%TF.GenerationSoftware,KiCad,Pcbnew,5.0.2+dfsg1-1*%
%TF.CreationDate,2021-01-23T14:19:40+01:00*%
%TF.ProjectId,AmigaPCDriveAdapter,416d6967-6150-4434-9472-697665416461,2.0*%
%TF.SameCoordinates,Original*%
%TF.FileFunction,Legend,Top*%
%TF.FilePolarity,Positive*%
%FSLAX46Y46*%
G04 Gerber Fmt 4.6, Leading zero omitted, Abs format (unit mm)*
G04 Created by KiCad (PCBNEW 5.0.2+dfsg1-1) date Sat 23 Jan 2021 02:19:40 PM CET*
%MOMM*%
%LPD*%
G01*
G04 APERTURE LIST*
%ADD10C,0.100000*%
%ADD11C,0.200000*%
%ADD12C,0.300000*%
%ADD13C,0.150000*%
%ADD14C,0.120000*%
%ADD15C,0.010000*%
G04 APERTURE END LIST*
D10*
X158504523Y-111160714D02*
X158885476Y-111160714D01*
X158695000Y-111351190D02*
X158695000Y-110970238D01*
X159385476Y-111351190D02*
X159099761Y-111351190D01*
X159242619Y-111351190D02*
X159242619Y-110851190D01*
X159195000Y-110922619D01*
X159147380Y-110970238D01*
X159099761Y-110994047D01*
X159575952Y-110898809D02*
X159599761Y-110875000D01*
X159647380Y-110851190D01*
X159766428Y-110851190D01*
X159814047Y-110875000D01*
X159837857Y-110898809D01*
X159861666Y-110946428D01*
X159861666Y-110994047D01*
X159837857Y-111065476D01*
X159552142Y-111351190D01*
X159861666Y-111351190D01*
X160004523Y-110851190D02*
X160171190Y-111351190D01*
X160337857Y-110851190D01*
X161909285Y-110875000D02*
X161861666Y-110851190D01*
X161790238Y-110851190D01*
X161718809Y-110875000D01*
X161671190Y-110922619D01*
X161647380Y-110970238D01*
X161623571Y-111065476D01*
X161623571Y-111136904D01*
X161647380Y-111232142D01*
X161671190Y-111279761D01*
X161718809Y-111327380D01*
X161790238Y-111351190D01*
X161837857Y-111351190D01*
X161909285Y-111327380D01*
X161933095Y-111303571D01*
X161933095Y-111136904D01*
X161837857Y-111136904D01*
X162147380Y-111351190D02*
X162147380Y-110851190D01*
X162433095Y-111351190D01*
X162433095Y-110851190D01*
X162671190Y-111351190D02*
X162671190Y-110851190D01*
X162790238Y-110851190D01*
X162861666Y-110875000D01*
X162909285Y-110922619D01*
X162933095Y-110970238D01*
X162956904Y-111065476D01*
X162956904Y-111136904D01*
X162933095Y-111232142D01*
X162909285Y-111279761D01*
X162861666Y-111327380D01*
X162790238Y-111351190D01*
X162671190Y-111351190D01*
X164575952Y-110875000D02*
X164528333Y-110851190D01*
X164456904Y-110851190D01*
X164385476Y-110875000D01*
X164337857Y-110922619D01*
X164314047Y-110970238D01*
X164290238Y-111065476D01*
X164290238Y-111136904D01*
X164314047Y-111232142D01*
X164337857Y-111279761D01*
X164385476Y-111327380D01*
X164456904Y-111351190D01*
X164504523Y-111351190D01*
X164575952Y-111327380D01*
X164599761Y-111303571D01*
X164599761Y-111136904D01*
X164504523Y-111136904D01*
X164814047Y-111351190D02*
X164814047Y-110851190D01*
X165099761Y-111351190D01*
X165099761Y-110851190D01*
X165337857Y-111351190D02*
X165337857Y-110851190D01*
X165456904Y-110851190D01*
X165528333Y-110875000D01*
X165575952Y-110922619D01*
X165599761Y-110970238D01*
X165623571Y-111065476D01*
X165623571Y-111136904D01*
X165599761Y-111232142D01*
X165575952Y-111279761D01*
X165528333Y-111327380D01*
X165456904Y-111351190D01*
X165337857Y-111351190D01*
X166599761Y-111160714D02*
X166980714Y-111160714D01*
X166790238Y-111351190D02*
X166790238Y-110970238D01*
X167456904Y-110851190D02*
X167218809Y-110851190D01*
X167195000Y-111089285D01*
X167218809Y-111065476D01*
X167266428Y-111041666D01*
X167385476Y-111041666D01*
X167433095Y-111065476D01*
X167456904Y-111089285D01*
X167480714Y-111136904D01*
X167480714Y-111255952D01*
X167456904Y-111303571D01*
X167433095Y-111327380D01*
X167385476Y-111351190D01*
X167266428Y-111351190D01*
X167218809Y-111327380D01*
X167195000Y-111303571D01*
X167623571Y-110851190D02*
X167790238Y-111351190D01*
X167956904Y-110851190D01*
X139100714Y-122990952D02*
X139100714Y-122610000D01*
X139291190Y-122800476D02*
X138910238Y-122800476D01*
X138791190Y-122133809D02*
X138791190Y-122371904D01*
X139029285Y-122395714D01*
X139005476Y-122371904D01*
X138981666Y-122324285D01*
X138981666Y-122205238D01*
X139005476Y-122157619D01*
X139029285Y-122133809D01*
X139076904Y-122110000D01*
X139195952Y-122110000D01*
X139243571Y-122133809D01*
X139267380Y-122157619D01*
X139291190Y-122205238D01*
X139291190Y-122324285D01*
X139267380Y-122371904D01*
X139243571Y-122395714D01*
X138791190Y-121967142D02*
X139291190Y-121800476D01*
X138791190Y-121633809D01*
X138815000Y-120062380D02*
X138791190Y-120110000D01*
X138791190Y-120181428D01*
X138815000Y-120252857D01*
X138862619Y-120300476D01*
X138910238Y-120324285D01*
X139005476Y-120348095D01*
X139076904Y-120348095D01*
X139172142Y-120324285D01*
X139219761Y-120300476D01*
X139267380Y-120252857D01*
X139291190Y-120181428D01*
X139291190Y-120133809D01*
X139267380Y-120062380D01*
X139243571Y-120038571D01*
X139076904Y-120038571D01*
X139076904Y-120133809D01*
X139291190Y-119824285D02*
X138791190Y-119824285D01*
X139291190Y-119538571D01*
X138791190Y-119538571D01*
X139291190Y-119300476D02*
X138791190Y-119300476D01*
X138791190Y-119181428D01*
X138815000Y-119110000D01*
X138862619Y-119062380D01*
X138910238Y-119038571D01*
X139005476Y-119014761D01*
X139076904Y-119014761D01*
X139172142Y-119038571D01*
X139219761Y-119062380D01*
X139267380Y-119110000D01*
X139291190Y-119181428D01*
X139291190Y-119300476D01*
X138815000Y-117395714D02*
X138791190Y-117443333D01*
X138791190Y-117514761D01*
X138815000Y-117586190D01*
X138862619Y-117633809D01*
X138910238Y-117657619D01*
X139005476Y-117681428D01*
X139076904Y-117681428D01*
X139172142Y-117657619D01*
X139219761Y-117633809D01*
X139267380Y-117586190D01*
X139291190Y-117514761D01*
X139291190Y-117467142D01*
X139267380Y-117395714D01*
X139243571Y-117371904D01*
X139076904Y-117371904D01*
X139076904Y-117467142D01*
X139291190Y-117157619D02*
X138791190Y-117157619D01*
X139291190Y-116871904D01*
X138791190Y-116871904D01*
X139291190Y-116633809D02*
X138791190Y-116633809D01*
X138791190Y-116514761D01*
X138815000Y-116443333D01*
X138862619Y-116395714D01*
X138910238Y-116371904D01*
X139005476Y-116348095D01*
X139076904Y-116348095D01*
X139172142Y-116371904D01*
X139219761Y-116395714D01*
X139267380Y-116443333D01*
X139291190Y-116514761D01*
X139291190Y-116633809D01*
X139100714Y-114990952D02*
X139100714Y-114610000D01*
X139291190Y-114800476D02*
X138910238Y-114800476D01*
X139291190Y-114110000D02*
X139291190Y-114395714D01*
X139291190Y-114252857D02*
X138791190Y-114252857D01*
X138862619Y-114300476D01*
X138910238Y-114348095D01*
X138934047Y-114395714D01*
X138838809Y-113919523D02*
X138815000Y-113895714D01*
X138791190Y-113848095D01*
X138791190Y-113729047D01*
X138815000Y-113681428D01*
X138838809Y-113657619D01*
X138886428Y-113633809D01*
X138934047Y-113633809D01*
X139005476Y-113657619D01*
X139291190Y-113943333D01*
X139291190Y-113633809D01*
X138791190Y-113490952D02*
X139291190Y-113324285D01*
X138791190Y-113157619D01*
X141026190Y-124051190D02*
X141026190Y-123551190D01*
X141026190Y-124027380D02*
X140978571Y-124051190D01*
X140883333Y-124051190D01*
X140835714Y-124027380D01*
X140811904Y-124003571D01*
X140788095Y-123955952D01*
X140788095Y-123813095D01*
X140811904Y-123765476D01*
X140835714Y-123741666D01*
X140883333Y-123717857D01*
X140978571Y-123717857D01*
X141026190Y-123741666D01*
X141454761Y-124027380D02*
X141407142Y-124051190D01*
X141311904Y-124051190D01*
X141264285Y-124027380D01*
X141240476Y-123979761D01*
X141240476Y-123789285D01*
X141264285Y-123741666D01*
X141311904Y-123717857D01*
X141407142Y-123717857D01*
X141454761Y-123741666D01*
X141478571Y-123789285D01*
X141478571Y-123836904D01*
X141240476Y-123884523D01*
X141669047Y-124027380D02*
X141716666Y-124051190D01*
X141811904Y-124051190D01*
X141859523Y-124027380D01*
X141883333Y-123979761D01*
X141883333Y-123955952D01*
X141859523Y-123908333D01*
X141811904Y-123884523D01*
X141740476Y-123884523D01*
X141692857Y-123860714D01*
X141669047Y-123813095D01*
X141669047Y-123789285D01*
X141692857Y-123741666D01*
X141740476Y-123717857D01*
X141811904Y-123717857D01*
X141859523Y-123741666D01*
X142097619Y-124051190D02*
X142097619Y-123717857D01*
X142097619Y-123551190D02*
X142073809Y-123575000D01*
X142097619Y-123598809D01*
X142121428Y-123575000D01*
X142097619Y-123551190D01*
X142097619Y-123598809D01*
X142550000Y-123717857D02*
X142550000Y-124122619D01*
X142526190Y-124170238D01*
X142502380Y-124194047D01*
X142454761Y-124217857D01*
X142383333Y-124217857D01*
X142335714Y-124194047D01*
X142550000Y-124027380D02*
X142502380Y-124051190D01*
X142407142Y-124051190D01*
X142359523Y-124027380D01*
X142335714Y-124003571D01*
X142311904Y-123955952D01*
X142311904Y-123813095D01*
X142335714Y-123765476D01*
X142359523Y-123741666D01*
X142407142Y-123717857D01*
X142502380Y-123717857D01*
X142550000Y-123741666D01*
X142788095Y-123717857D02*
X142788095Y-124051190D01*
X142788095Y-123765476D02*
X142811904Y-123741666D01*
X142859523Y-123717857D01*
X142930952Y-123717857D01*
X142978571Y-123741666D01*
X143002380Y-123789285D01*
X143002380Y-124051190D01*
X143430952Y-124027380D02*
X143383333Y-124051190D01*
X143288095Y-124051190D01*
X143240476Y-124027380D01*
X143216666Y-123979761D01*
X143216666Y-123789285D01*
X143240476Y-123741666D01*
X143288095Y-123717857D01*
X143383333Y-123717857D01*
X143430952Y-123741666D01*
X143454761Y-123789285D01*
X143454761Y-123836904D01*
X143216666Y-123884523D01*
X143883333Y-124051190D02*
X143883333Y-123551190D01*
X143883333Y-124027380D02*
X143835714Y-124051190D01*
X143740476Y-124051190D01*
X143692857Y-124027380D01*
X143669047Y-124003571D01*
X143645238Y-123955952D01*
X143645238Y-123813095D01*
X143669047Y-123765476D01*
X143692857Y-123741666D01*
X143740476Y-123717857D01*
X143835714Y-123717857D01*
X143883333Y-123741666D01*
X144502380Y-124051190D02*
X144502380Y-123551190D01*
X144502380Y-123741666D02*
X144550000Y-123717857D01*
X144645238Y-123717857D01*
X144692857Y-123741666D01*
X144716666Y-123765476D01*
X144740476Y-123813095D01*
X144740476Y-123955952D01*
X144716666Y-124003571D01*
X144692857Y-124027380D01*
X144645238Y-124051190D01*
X144550000Y-124051190D01*
X144502380Y-124027380D01*
X144907142Y-123717857D02*
X145026190Y-124051190D01*
X145145238Y-123717857D02*
X145026190Y-124051190D01*
X144978571Y-124170238D01*
X144954761Y-124194047D01*
X144907142Y-124217857D01*
X146002380Y-124051190D02*
X145835714Y-123813095D01*
X145716666Y-124051190D02*
X145716666Y-123551190D01*
X145907142Y-123551190D01*
X145954761Y-123575000D01*
X145978571Y-123598809D01*
X146002380Y-123646428D01*
X146002380Y-123717857D01*
X145978571Y-123765476D01*
X145954761Y-123789285D01*
X145907142Y-123813095D01*
X145716666Y-123813095D01*
X146216666Y-124003571D02*
X146240476Y-124027380D01*
X146216666Y-124051190D01*
X146192857Y-124027380D01*
X146216666Y-124003571D01*
X146216666Y-124051190D01*
X146716666Y-123575000D02*
X146669047Y-123551190D01*
X146597619Y-123551190D01*
X146526190Y-123575000D01*
X146478571Y-123622619D01*
X146454761Y-123670238D01*
X146430952Y-123765476D01*
X146430952Y-123836904D01*
X146454761Y-123932142D01*
X146478571Y-123979761D01*
X146526190Y-124027380D01*
X146597619Y-124051190D01*
X146645238Y-124051190D01*
X146716666Y-124027380D01*
X146740476Y-124003571D01*
X146740476Y-123836904D01*
X146645238Y-123836904D01*
X146954761Y-124003571D02*
X146978571Y-124027380D01*
X146954761Y-124051190D01*
X146930952Y-124027380D01*
X146954761Y-124003571D01*
X146954761Y-124051190D01*
X147169047Y-123598809D02*
X147192857Y-123575000D01*
X147240476Y-123551190D01*
X147359523Y-123551190D01*
X147407142Y-123575000D01*
X147430952Y-123598809D01*
X147454761Y-123646428D01*
X147454761Y-123694047D01*
X147430952Y-123765476D01*
X147145238Y-124051190D01*
X147454761Y-124051190D01*
X147764285Y-123551190D02*
X147811904Y-123551190D01*
X147859523Y-123575000D01*
X147883333Y-123598809D01*
X147907142Y-123646428D01*
X147930952Y-123741666D01*
X147930952Y-123860714D01*
X147907142Y-123955952D01*
X147883333Y-124003571D01*
X147859523Y-124027380D01*
X147811904Y-124051190D01*
X147764285Y-124051190D01*
X147716666Y-124027380D01*
X147692857Y-124003571D01*
X147669047Y-123955952D01*
X147645238Y-123860714D01*
X147645238Y-123741666D01*
X147669047Y-123646428D01*
X147692857Y-123598809D01*
X147716666Y-123575000D01*
X147764285Y-123551190D01*
X148407142Y-124051190D02*
X148121428Y-124051190D01*
X148264285Y-124051190D02*
X148264285Y-123551190D01*
X148216666Y-123622619D01*
X148169047Y-123670238D01*
X148121428Y-123694047D01*
X148692857Y-123765476D02*
X148645238Y-123741666D01*
X148621428Y-123717857D01*
X148597619Y-123670238D01*
X148597619Y-123646428D01*
X148621428Y-123598809D01*
X148645238Y-123575000D01*
X148692857Y-123551190D01*
X148788095Y-123551190D01*
X148835714Y-123575000D01*
X148859523Y-123598809D01*
X148883333Y-123646428D01*
X148883333Y-123670238D01*
X148859523Y-123717857D01*
X148835714Y-123741666D01*
X148788095Y-123765476D01*
X148692857Y-123765476D01*
X148645238Y-123789285D01*
X148621428Y-123813095D01*
X148597619Y-123860714D01*
X148597619Y-123955952D01*
X148621428Y-124003571D01*
X148645238Y-124027380D01*
X148692857Y-124051190D01*
X148788095Y-124051190D01*
X148835714Y-124027380D01*
X148859523Y-124003571D01*
X148883333Y-123955952D01*
X148883333Y-123860714D01*
X148859523Y-123813095D01*
X148835714Y-123789285D01*
X148788095Y-123765476D01*
X149454761Y-123527380D02*
X149026190Y-124170238D01*
X149597619Y-123598809D02*
X149621428Y-123575000D01*
X149669047Y-123551190D01*
X149788095Y-123551190D01*
X149835714Y-123575000D01*
X149859523Y-123598809D01*
X149883333Y-123646428D01*
X149883333Y-123694047D01*
X149859523Y-123765476D01*
X149573809Y-124051190D01*
X149883333Y-124051190D01*
X150192857Y-123551190D02*
X150240476Y-123551190D01*
X150288095Y-123575000D01*
X150311904Y-123598809D01*
X150335714Y-123646428D01*
X150359523Y-123741666D01*
X150359523Y-123860714D01*
X150335714Y-123955952D01*
X150311904Y-124003571D01*
X150288095Y-124027380D01*
X150240476Y-124051190D01*
X150192857Y-124051190D01*
X150145238Y-124027380D01*
X150121428Y-124003571D01*
X150097619Y-123955952D01*
X150073809Y-123860714D01*
X150073809Y-123741666D01*
X150097619Y-123646428D01*
X150121428Y-123598809D01*
X150145238Y-123575000D01*
X150192857Y-123551190D01*
X150550000Y-123598809D02*
X150573809Y-123575000D01*
X150621428Y-123551190D01*
X150740476Y-123551190D01*
X150788095Y-123575000D01*
X150811904Y-123598809D01*
X150835714Y-123646428D01*
X150835714Y-123694047D01*
X150811904Y-123765476D01*
X150526190Y-124051190D01*
X150835714Y-124051190D01*
X151311904Y-124051190D02*
X151026190Y-124051190D01*
X151169047Y-124051190D02*
X151169047Y-123551190D01*
X151121428Y-123622619D01*
X151073809Y-123670238D01*
X151026190Y-123694047D01*
D11*
X223345476Y-94702380D02*
X223964523Y-94702380D01*
X223631190Y-95083333D01*
X223774047Y-95083333D01*
X223869285Y-95130952D01*
X223916904Y-95178571D01*
X223964523Y-95273809D01*
X223964523Y-95511904D01*
X223916904Y-95607142D01*
X223869285Y-95654761D01*
X223774047Y-95702380D01*
X223488333Y-95702380D01*
X223393095Y-95654761D01*
X223345476Y-95607142D01*
X224821666Y-95035714D02*
X224821666Y-95702380D01*
X224583571Y-94654761D02*
X224345476Y-95369047D01*
X224964523Y-95369047D01*
X180625714Y-102052380D02*
X180054285Y-102052380D01*
X180340000Y-102052380D02*
X180340000Y-101052380D01*
X180244761Y-101195238D01*
X180149523Y-101290476D01*
X180054285Y-101338095D01*
D12*
X184862857Y-107565000D02*
X185934285Y-107565000D01*
X184648571Y-107993571D02*
X185398571Y-106493571D01*
X186148571Y-107993571D01*
X186898571Y-107993571D02*
X186898571Y-106493571D01*
X187648571Y-107565000D01*
X188398571Y-106493571D01*
X188398571Y-107993571D01*
X189470000Y-107993571D02*
X189470000Y-106493571D01*
X191720000Y-106565000D02*
X191505714Y-106493571D01*
X191184285Y-106493571D01*
X190862857Y-106565000D01*
X190648571Y-106707857D01*
X190541428Y-106850714D01*
X190434285Y-107136428D01*
X190434285Y-107350714D01*
X190541428Y-107636428D01*
X190648571Y-107779285D01*
X190862857Y-107922142D01*
X191184285Y-107993571D01*
X191398571Y-107993571D01*
X191720000Y-107922142D01*
X191827142Y-107850714D01*
X191827142Y-107350714D01*
X191398571Y-107350714D01*
X192684285Y-107565000D02*
X193755714Y-107565000D01*
X192470000Y-107993571D02*
X193220000Y-106493571D01*
X193970000Y-107993571D01*
X197184285Y-107207857D02*
X196434285Y-107207857D01*
X196434285Y-107993571D02*
X196434285Y-106493571D01*
X197505714Y-106493571D01*
X199434285Y-107993571D02*
X198362857Y-107993571D01*
X198362857Y-106493571D01*
X200612857Y-106493571D02*
X201041428Y-106493571D01*
X201255714Y-106565000D01*
X201470000Y-106707857D01*
X201577142Y-106993571D01*
X201577142Y-107493571D01*
X201470000Y-107779285D01*
X201255714Y-107922142D01*
X201041428Y-107993571D01*
X200612857Y-107993571D01*
X200398571Y-107922142D01*
X200184285Y-107779285D01*
X200077142Y-107493571D01*
X200077142Y-106993571D01*
X200184285Y-106707857D01*
X200398571Y-106565000D01*
X200612857Y-106493571D01*
X202541428Y-107993571D02*
X202541428Y-106493571D01*
X203398571Y-106493571D01*
X203612857Y-106565000D01*
X203720000Y-106636428D01*
X203827142Y-106779285D01*
X203827142Y-106993571D01*
X203720000Y-107136428D01*
X203612857Y-107207857D01*
X203398571Y-107279285D01*
X202541428Y-107279285D01*
X204791428Y-107993571D02*
X204791428Y-106493571D01*
X205648571Y-106493571D01*
X205862857Y-106565000D01*
X205970000Y-106636428D01*
X206077142Y-106779285D01*
X206077142Y-106993571D01*
X205970000Y-107136428D01*
X205862857Y-107207857D01*
X205648571Y-107279285D01*
X204791428Y-107279285D01*
X207470000Y-107279285D02*
X207470000Y-107993571D01*
X206720000Y-106493571D02*
X207470000Y-107279285D01*
X208220000Y-106493571D01*
X210577142Y-107565000D02*
X211648571Y-107565000D01*
X210362857Y-107993571D02*
X211112857Y-106493571D01*
X211862857Y-107993571D01*
X212612857Y-107993571D02*
X212612857Y-106493571D01*
X213148571Y-106493571D01*
X213470000Y-106565000D01*
X213684285Y-106707857D01*
X213791428Y-106850714D01*
X213898571Y-107136428D01*
X213898571Y-107350714D01*
X213791428Y-107636428D01*
X213684285Y-107779285D01*
X213470000Y-107922142D01*
X213148571Y-107993571D01*
X212612857Y-107993571D01*
X214755714Y-107565000D02*
X215827142Y-107565000D01*
X214541428Y-107993571D02*
X215291428Y-106493571D01*
X216041428Y-107993571D01*
X216791428Y-107993571D02*
X216791428Y-106493571D01*
X217648571Y-106493571D01*
X217862857Y-106565000D01*
X217970000Y-106636428D01*
X218077142Y-106779285D01*
X218077142Y-106993571D01*
X217970000Y-107136428D01*
X217862857Y-107207857D01*
X217648571Y-107279285D01*
X216791428Y-107279285D01*
X218720000Y-106493571D02*
X220005714Y-106493571D01*
X219362857Y-107993571D02*
X219362857Y-106493571D01*
X220755714Y-107207857D02*
X221505714Y-107207857D01*
X221827142Y-107993571D02*
X220755714Y-107993571D01*
X220755714Y-106493571D01*
X221827142Y-106493571D01*
X224077142Y-107993571D02*
X223327142Y-107279285D01*
X222791428Y-107993571D02*
X222791428Y-106493571D01*
X223648571Y-106493571D01*
X223862857Y-106565000D01*
X223970000Y-106636428D01*
X224077142Y-106779285D01*
X224077142Y-106993571D01*
X223970000Y-107136428D01*
X223862857Y-107207857D01*
X223648571Y-107279285D01*
X222791428Y-107279285D01*
D13*
X211144285Y-102574285D02*
X210894285Y-102217142D01*
X210715714Y-102574285D02*
X210715714Y-101824285D01*
X211001428Y-101824285D01*
X211072857Y-101860000D01*
X211108571Y-101895714D01*
X211144285Y-101967142D01*
X211144285Y-102074285D01*
X211108571Y-102145714D01*
X211072857Y-102181428D01*
X211001428Y-102217142D01*
X210715714Y-102217142D01*
X211465714Y-102181428D02*
X211715714Y-102181428D01*
X211822857Y-102574285D02*
X211465714Y-102574285D01*
X211465714Y-101824285D01*
X211822857Y-101824285D01*
X212037142Y-101824285D02*
X212465714Y-101824285D01*
X212251428Y-102574285D02*
X212251428Y-101824285D01*
X213144285Y-102574285D02*
X212894285Y-102217142D01*
X212715714Y-102574285D02*
X212715714Y-101824285D01*
X213001428Y-101824285D01*
X213072857Y-101860000D01*
X213108571Y-101895714D01*
X213144285Y-101967142D01*
X213144285Y-102074285D01*
X213108571Y-102145714D01*
X213072857Y-102181428D01*
X213001428Y-102217142D01*
X212715714Y-102217142D01*
X213608571Y-101824285D02*
X213751428Y-101824285D01*
X213822857Y-101860000D01*
X213894285Y-101931428D01*
X213930000Y-102074285D01*
X213930000Y-102324285D01*
X213894285Y-102467142D01*
X213822857Y-102538571D01*
X213751428Y-102574285D01*
X213608571Y-102574285D01*
X213537142Y-102538571D01*
X213465714Y-102467142D01*
X213430000Y-102324285D01*
X213430000Y-102074285D01*
X213465714Y-101931428D01*
X213537142Y-101860000D01*
X213608571Y-101824285D01*
X214501428Y-102181428D02*
X214608571Y-102217142D01*
X214644285Y-102252857D01*
X214680000Y-102324285D01*
X214680000Y-102431428D01*
X214644285Y-102502857D01*
X214608571Y-102538571D01*
X214537142Y-102574285D01*
X214251428Y-102574285D01*
X214251428Y-101824285D01*
X214501428Y-101824285D01*
X214572857Y-101860000D01*
X214608571Y-101895714D01*
X214644285Y-101967142D01*
X214644285Y-102038571D01*
X214608571Y-102110000D01*
X214572857Y-102145714D01*
X214501428Y-102181428D01*
X214251428Y-102181428D01*
X215001428Y-102574285D02*
X215001428Y-101824285D01*
X215251428Y-101824285D02*
X215680000Y-101824285D01*
X215465714Y-102574285D02*
X215465714Y-101824285D01*
X216287142Y-102574285D02*
X215930000Y-102574285D01*
X215930000Y-101824285D01*
X216501428Y-102360000D02*
X216858571Y-102360000D01*
X216430000Y-102574285D02*
X216680000Y-101824285D01*
X216930000Y-102574285D01*
X217430000Y-102181428D02*
X217537142Y-102217142D01*
X217572857Y-102252857D01*
X217608571Y-102324285D01*
X217608571Y-102431428D01*
X217572857Y-102502857D01*
X217537142Y-102538571D01*
X217465714Y-102574285D01*
X217180000Y-102574285D01*
X217180000Y-101824285D01*
X217430000Y-101824285D01*
X217501428Y-101860000D01*
X217537142Y-101895714D01*
X217572857Y-101967142D01*
X217572857Y-102038571D01*
X217537142Y-102110000D01*
X217501428Y-102145714D01*
X217430000Y-102181428D01*
X217180000Y-102181428D01*
X218930000Y-102574285D02*
X218680000Y-102217142D01*
X218501428Y-102574285D02*
X218501428Y-101824285D01*
X218787142Y-101824285D01*
X218858571Y-101860000D01*
X218894285Y-101895714D01*
X218930000Y-101967142D01*
X218930000Y-102074285D01*
X218894285Y-102145714D01*
X218858571Y-102181428D01*
X218787142Y-102217142D01*
X218501428Y-102217142D01*
X219501428Y-102181428D02*
X219608571Y-102217142D01*
X219644285Y-102252857D01*
X219680000Y-102324285D01*
X219680000Y-102431428D01*
X219644285Y-102502857D01*
X219608571Y-102538571D01*
X219537142Y-102574285D01*
X219251428Y-102574285D01*
X219251428Y-101824285D01*
X219501428Y-101824285D01*
X219572857Y-101860000D01*
X219608571Y-101895714D01*
X219644285Y-101967142D01*
X219644285Y-102038571D01*
X219608571Y-102110000D01*
X219572857Y-102145714D01*
X219501428Y-102181428D01*
X219251428Y-102181428D01*
X220358571Y-102574285D02*
X220001428Y-102574285D01*
X220001428Y-101824285D01*
X220751428Y-101824285D02*
X220822857Y-101824285D01*
X220894285Y-101860000D01*
X220930000Y-101895714D01*
X220965714Y-101967142D01*
X221001428Y-102110000D01*
X221001428Y-102288571D01*
X220965714Y-102431428D01*
X220930000Y-102502857D01*
X220894285Y-102538571D01*
X220822857Y-102574285D01*
X220751428Y-102574285D01*
X220680000Y-102538571D01*
X220644285Y-102502857D01*
X220608571Y-102431428D01*
X220572857Y-102288571D01*
X220572857Y-102110000D01*
X220608571Y-101967142D01*
X220644285Y-101895714D01*
X220680000Y-101860000D01*
X220751428Y-101824285D01*
X221465714Y-101824285D02*
X221537142Y-101824285D01*
X221608571Y-101860000D01*
X221644285Y-101895714D01*
X221680000Y-101967142D01*
X221715714Y-102110000D01*
X221715714Y-102288571D01*
X221680000Y-102431428D01*
X221644285Y-102502857D01*
X221608571Y-102538571D01*
X221537142Y-102574285D01*
X221465714Y-102574285D01*
X221394285Y-102538571D01*
X221358571Y-102502857D01*
X221322857Y-102431428D01*
X221287142Y-102288571D01*
X221287142Y-102110000D01*
X221322857Y-101967142D01*
X221358571Y-101895714D01*
X221394285Y-101860000D01*
X221465714Y-101824285D01*
X222144285Y-102145714D02*
X222072857Y-102110000D01*
X222037142Y-102074285D01*
X222001428Y-102002857D01*
X222001428Y-101967142D01*
X222037142Y-101895714D01*
X222072857Y-101860000D01*
X222144285Y-101824285D01*
X222287142Y-101824285D01*
X222358571Y-101860000D01*
X222394285Y-101895714D01*
X222430000Y-101967142D01*
X222430000Y-102002857D01*
X222394285Y-102074285D01*
X222358571Y-102110000D01*
X222287142Y-102145714D01*
X222144285Y-102145714D01*
X222072857Y-102181428D01*
X222037142Y-102217142D01*
X222001428Y-102288571D01*
X222001428Y-102431428D01*
X222037142Y-102502857D01*
X222072857Y-102538571D01*
X222144285Y-102574285D01*
X222287142Y-102574285D01*
X222358571Y-102538571D01*
X222394285Y-102502857D01*
X222430000Y-102431428D01*
X222430000Y-102288571D01*
X222394285Y-102217142D01*
X222358571Y-102181428D01*
X222287142Y-102145714D01*
X222751428Y-102502857D02*
X222787142Y-102538571D01*
X222751428Y-102574285D01*
X222715714Y-102538571D01*
X222751428Y-102502857D01*
X222751428Y-102574285D01*
X223251428Y-101824285D02*
X223322857Y-101824285D01*
X223394285Y-101860000D01*
X223430000Y-101895714D01*
X223465714Y-101967142D01*
X223501428Y-102110000D01*
X223501428Y-102288571D01*
X223465714Y-102431428D01*
X223430000Y-102502857D01*
X223394285Y-102538571D01*
X223322857Y-102574285D01*
X223251428Y-102574285D01*
X223180000Y-102538571D01*
X223144285Y-102502857D01*
X223108571Y-102431428D01*
X223072857Y-102288571D01*
X223072857Y-102110000D01*
X223108571Y-101967142D01*
X223144285Y-101895714D01*
X223180000Y-101860000D01*
X223251428Y-101824285D01*
X223965714Y-101824285D02*
X224037142Y-101824285D01*
X224108571Y-101860000D01*
X224144285Y-101895714D01*
X224180000Y-101967142D01*
X224215714Y-102110000D01*
X224215714Y-102288571D01*
X224180000Y-102431428D01*
X224144285Y-102502857D01*
X224108571Y-102538571D01*
X224037142Y-102574285D01*
X223965714Y-102574285D01*
X223894285Y-102538571D01*
X223858571Y-102502857D01*
X223822857Y-102431428D01*
X223787142Y-102288571D01*
X223787142Y-102110000D01*
X223822857Y-101967142D01*
X223858571Y-101895714D01*
X223894285Y-101860000D01*
X223965714Y-101824285D01*
X224501428Y-101895714D02*
X224537142Y-101860000D01*
X224608571Y-101824285D01*
X224787142Y-101824285D01*
X224858571Y-101860000D01*
X224894285Y-101895714D01*
X224930000Y-101967142D01*
X224930000Y-102038571D01*
X224894285Y-102145714D01*
X224465714Y-102574285D01*
X224930000Y-102574285D01*
D14*
X158810000Y-119110000D02*
G75*
G02X158810000Y-117110000I0J1000000D01*
G01*
X158810000Y-117110000D02*
X158810000Y-115460000D01*
X158810000Y-115460000D02*
X140910000Y-115460000D01*
X140910000Y-115460000D02*
X140910000Y-120760000D01*
X140910000Y-120760000D02*
X158810000Y-120760000D01*
X158810000Y-120760000D02*
X158810000Y-119110000D01*
X178100000Y-100735000D02*
X178100000Y-96825000D01*
X176230000Y-100735000D02*
X178100000Y-100735000D01*
X176230000Y-96825000D02*
X176230000Y-100735000D01*
X178049936Y-104415000D02*
X179254064Y-104415000D01*
X178049936Y-102595000D02*
X179254064Y-102595000D01*
X166775000Y-105110000D02*
X162865000Y-105110000D01*
X166775000Y-106980000D02*
X166775000Y-105110000D01*
X162865000Y-106980000D02*
X166775000Y-106980000D01*
X181530000Y-108085000D02*
X177470000Y-108085000D01*
X181530000Y-110355000D02*
X181530000Y-108085000D01*
X177470000Y-110355000D02*
X181530000Y-110355000D01*
X168970000Y-107890000D02*
X168970000Y-109220000D01*
X167640000Y-107890000D02*
X168970000Y-107890000D01*
X166370000Y-107890000D02*
X166370000Y-110550000D01*
X166370000Y-110550000D02*
X158690000Y-110550000D01*
X166370000Y-107890000D02*
X158690000Y-107890000D01*
X158690000Y-107890000D02*
X158690000Y-110550000D01*
X138430000Y-123190000D02*
X137160000Y-123190000D01*
X138430000Y-121920000D02*
X138430000Y-123190000D01*
X136117071Y-113920000D02*
X135720000Y-113920000D01*
X136117071Y-114680000D02*
X135720000Y-114680000D01*
X127060000Y-113920000D02*
X133060000Y-113920000D01*
X127060000Y-114680000D02*
X127060000Y-113920000D01*
X133060000Y-114680000D02*
X127060000Y-114680000D01*
X135720000Y-115570000D02*
X133060000Y-115570000D01*
X136117071Y-116460000D02*
X135720000Y-116460000D01*
X136117071Y-117220000D02*
X135720000Y-117220000D01*
X127060000Y-116460000D02*
X133060000Y-116460000D01*
X127060000Y-117220000D02*
X127060000Y-116460000D01*
X133060000Y-117220000D02*
X127060000Y-117220000D01*
X135720000Y-118110000D02*
X133060000Y-118110000D01*
X136117071Y-119000000D02*
X135720000Y-119000000D01*
X136117071Y-119760000D02*
X135720000Y-119760000D01*
X127060000Y-119000000D02*
X133060000Y-119000000D01*
X127060000Y-119760000D02*
X127060000Y-119000000D01*
X133060000Y-119760000D02*
X127060000Y-119760000D01*
X135720000Y-120650000D02*
X133060000Y-120650000D01*
X136050000Y-121540000D02*
X135720000Y-121540000D01*
X136050000Y-122300000D02*
X135720000Y-122300000D01*
X133060000Y-121640000D02*
X127060000Y-121640000D01*
X133060000Y-121760000D02*
X127060000Y-121760000D01*
X133060000Y-121880000D02*
X127060000Y-121880000D01*
X133060000Y-122000000D02*
X127060000Y-122000000D01*
X133060000Y-122120000D02*
X127060000Y-122120000D01*
X133060000Y-122240000D02*
X127060000Y-122240000D01*
X127060000Y-121540000D02*
X133060000Y-121540000D01*
X127060000Y-122300000D02*
X127060000Y-121540000D01*
X133060000Y-122300000D02*
X127060000Y-122300000D01*
X133060000Y-123250000D02*
X135720000Y-123250000D01*
X133060000Y-112970000D02*
X133060000Y-123250000D01*
X135720000Y-112970000D02*
X133060000Y-112970000D01*
X135720000Y-123250000D02*
X135720000Y-112970000D01*
X184817936Y-105685000D02*
X186022064Y-105685000D01*
X184817936Y-103865000D02*
X186022064Y-103865000D01*
X202597936Y-112035000D02*
X203802064Y-112035000D01*
X202597936Y-110215000D02*
X203802064Y-110215000D01*
X220595936Y-112035000D02*
X221800064Y-112035000D01*
X220595936Y-110215000D02*
X221800064Y-110215000D01*
X173169936Y-110130000D02*
X174374064Y-110130000D01*
X173169936Y-108310000D02*
X174374064Y-108310000D01*
X172720000Y-123190000D02*
X172466000Y-123698000D01*
X172466000Y-123698000D02*
X172974000Y-123698000D01*
X172974000Y-123698000D02*
X172720000Y-123190000D01*
D13*
X218440000Y-121920000D02*
X167640000Y-121920000D01*
X218440000Y-114300000D02*
X218440000Y-121920000D01*
X167640000Y-114300000D02*
X218440000Y-114300000D01*
X167640000Y-121920000D02*
X167640000Y-114300000D01*
D15*
G36*
X163876964Y-115790018D02*
X163933812Y-116091570D01*
X164353338Y-116264512D01*
X164604984Y-116093395D01*
X164675458Y-116045750D01*
X164739163Y-116003210D01*
X164793126Y-115967715D01*
X164834373Y-115941210D01*
X164859934Y-115925636D01*
X164866895Y-115922278D01*
X164879435Y-115930914D01*
X164906231Y-115954792D01*
X164944280Y-115990859D01*
X164990579Y-116036067D01*
X165042123Y-116087364D01*
X165095909Y-116141701D01*
X165148935Y-116196028D01*
X165198195Y-116247295D01*
X165240687Y-116292451D01*
X165273407Y-116328446D01*
X165293351Y-116352230D01*
X165298119Y-116360190D01*
X165291257Y-116374865D01*
X165272020Y-116407014D01*
X165242430Y-116453492D01*
X165204510Y-116511156D01*
X165160282Y-116576860D01*
X165134654Y-116614336D01*
X165087941Y-116682768D01*
X165046432Y-116744520D01*
X165012140Y-116796519D01*
X164987080Y-116835692D01*
X164973264Y-116858965D01*
X164971188Y-116863855D01*
X164975895Y-116877755D01*
X164988723Y-116910150D01*
X165007738Y-116956485D01*
X165031003Y-117012206D01*
X165056584Y-117072758D01*
X165082545Y-117133586D01*
X165106950Y-117190136D01*
X165127863Y-117237852D01*
X165143349Y-117272181D01*
X165151472Y-117288568D01*
X165151952Y-117289212D01*
X165164707Y-117292341D01*
X165198677Y-117299321D01*
X165250340Y-117309467D01*
X165316176Y-117322092D01*
X165392664Y-117336509D01*
X165437290Y-117344823D01*
X165519021Y-117360384D01*
X165592843Y-117375192D01*
X165655021Y-117388436D01*
X165701822Y-117399305D01*
X165729509Y-117406989D01*
X165735074Y-117409427D01*
X165740526Y-117425930D01*
X165744924Y-117463200D01*
X165748272Y-117516880D01*
X165750574Y-117582612D01*
X165751832Y-117656037D01*
X165752048Y-117732796D01*
X165751227Y-117808532D01*
X165749371Y-117878886D01*
X165746482Y-117939500D01*
X165742565Y-117986016D01*
X165737622Y-118014075D01*
X165734657Y-118019916D01*
X165716934Y-118026917D01*
X165679381Y-118036927D01*
X165626964Y-118048769D01*
X165564652Y-118061267D01*
X165542900Y-118065310D01*
X165438024Y-118084520D01*
X165355180Y-118099991D01*
X165291630Y-118112337D01*
X165244637Y-118122173D01*
X165211463Y-118130114D01*
X165189371Y-118136776D01*
X165175624Y-118142773D01*
X165167484Y-118148719D01*
X165166345Y-118149894D01*
X165154977Y-118168826D01*
X165137635Y-118205669D01*
X165116050Y-118255913D01*
X165091954Y-118315046D01*
X165067079Y-118378556D01*
X165043157Y-118441932D01*
X165021919Y-118500662D01*
X165005097Y-118550235D01*
X164994422Y-118586139D01*
X164991627Y-118603862D01*
X164991860Y-118604483D01*
X165001331Y-118618970D01*
X165022818Y-118650844D01*
X165054063Y-118696789D01*
X165092807Y-118753485D01*
X165136793Y-118817617D01*
X165149319Y-118835842D01*
X165193984Y-118901914D01*
X165233288Y-118962200D01*
X165265088Y-119013235D01*
X165287245Y-119051560D01*
X165297617Y-119073711D01*
X165298119Y-119076432D01*
X165289405Y-119090736D01*
X165265325Y-119119072D01*
X165228976Y-119158396D01*
X165183453Y-119205661D01*
X165131852Y-119257823D01*
X165077267Y-119311835D01*
X165022794Y-119364653D01*
X164971529Y-119413231D01*
X164926567Y-119454523D01*
X164891004Y-119485485D01*
X164867935Y-119503070D01*
X164861554Y-119505941D01*
X164846699Y-119499178D01*
X164816286Y-119480939D01*
X164775268Y-119454297D01*
X164743709Y-119432852D01*
X164686525Y-119393503D01*
X164618806Y-119347171D01*
X164550880Y-119300913D01*
X164514361Y-119276155D01*
X164390752Y-119192547D01*
X164286991Y-119248650D01*
X164239720Y-119273228D01*
X164199523Y-119292331D01*
X164172326Y-119303227D01*
X164165402Y-119304743D01*
X164157077Y-119293549D01*
X164140654Y-119261917D01*
X164117357Y-119212765D01*
X164088414Y-119149010D01*
X164055050Y-119073571D01*
X164018491Y-118989364D01*
X163979964Y-118899308D01*
X163940694Y-118806321D01*
X163901908Y-118713320D01*
X163864830Y-118623223D01*
X163830689Y-118538948D01*
X163800708Y-118463413D01*
X163776116Y-118399534D01*
X163758136Y-118350231D01*
X163747997Y-118318421D01*
X163746366Y-118307496D01*
X163759291Y-118293561D01*
X163787589Y-118270940D01*
X163825346Y-118244333D01*
X163828515Y-118242228D01*
X163926100Y-118164114D01*
X164004786Y-118072982D01*
X164063891Y-117971745D01*
X164102732Y-117863318D01*
X164120628Y-117750614D01*
X164116897Y-117636548D01*
X164090857Y-117524034D01*
X164041825Y-117415985D01*
X164027400Y-117392345D01*
X163952369Y-117296887D01*
X163863730Y-117220232D01*
X163764549Y-117162780D01*
X163657895Y-117124929D01*
X163546836Y-117107078D01*
X163434439Y-117109625D01*
X163323773Y-117132970D01*
X163217906Y-117177510D01*
X163119905Y-117243645D01*
X163089590Y-117270487D01*
X163012438Y-117354512D01*
X162956218Y-117442966D01*
X162917653Y-117542115D01*
X162896174Y-117640303D01*
X162890872Y-117750697D01*
X162908552Y-117861640D01*
X162947419Y-117969381D01*
X163005677Y-118070169D01*
X163081531Y-118160256D01*
X163173183Y-118235892D01*
X163185228Y-118243864D01*
X163223389Y-118269974D01*
X163252399Y-118292595D01*
X163266268Y-118307039D01*
X163266469Y-118307496D01*
X163263492Y-118323121D01*
X163251689Y-118358582D01*
X163232286Y-118410962D01*
X163206512Y-118477345D01*
X163175591Y-118554814D01*
X163140751Y-118640450D01*
X163103217Y-118731337D01*
X163064217Y-118824559D01*
X163024977Y-118917197D01*
X162986724Y-119006335D01*
X162950683Y-119089055D01*
X162918083Y-119162441D01*
X162890148Y-119223575D01*
X162868105Y-119269541D01*
X162853182Y-119297421D01*
X162847172Y-119304743D01*
X162828809Y-119299041D01*
X162794448Y-119283749D01*
X162750016Y-119261599D01*
X162725583Y-119248650D01*
X162621822Y-119192547D01*
X162498213Y-119276155D01*
X162435114Y-119318987D01*
X162366030Y-119366122D01*
X162301293Y-119410503D01*
X162268866Y-119432852D01*
X162223259Y-119463477D01*
X162184640Y-119487747D01*
X162158048Y-119502587D01*
X162149410Y-119505724D01*
X162136839Y-119497261D01*
X162109016Y-119473636D01*
X162068639Y-119437302D01*
X162018405Y-119390711D01*
X161961012Y-119336317D01*
X161924714Y-119301392D01*
X161861210Y-119238996D01*
X161806327Y-119183188D01*
X161762286Y-119136354D01*
X161731305Y-119100882D01*
X161715602Y-119079161D01*
X161714095Y-119074752D01*
X161721086Y-119057985D01*
X161740406Y-119024082D01*
X161769909Y-118976476D01*
X161807455Y-118918599D01*
X161850900Y-118853884D01*
X161863255Y-118835842D01*
X161908273Y-118770267D01*
X161948660Y-118711228D01*
X161982160Y-118662042D01*
X162006514Y-118626028D01*
X162019464Y-118606502D01*
X162020715Y-118604483D01*
X162018844Y-118588922D01*
X162008913Y-118554709D01*
X161992653Y-118506355D01*
X161971795Y-118448371D01*
X161948073Y-118385270D01*
X161923216Y-118321563D01*
X161898958Y-118261761D01*
X161877029Y-118210376D01*
X161859162Y-118171919D01*
X161847087Y-118150902D01*
X161846229Y-118149894D01*
X161838846Y-118143888D01*
X161826375Y-118137948D01*
X161806080Y-118131460D01*
X161775222Y-118123809D01*
X161731066Y-118114380D01*
X161670874Y-118102559D01*
X161591907Y-118087729D01*
X161491430Y-118069277D01*
X161469675Y-118065310D01*
X161405198Y-118052853D01*
X161348989Y-118040666D01*
X161306013Y-118029926D01*
X161281240Y-118021809D01*
X161277918Y-118019916D01*
X161272444Y-118003138D01*
X161267994Y-117965645D01*
X161264572Y-117911794D01*
X161262181Y-117845944D01*
X161260823Y-117772453D01*
X161260501Y-117695680D01*
X161261219Y-117619983D01*
X161262979Y-117549720D01*
X161265784Y-117489250D01*
X161269638Y-117442930D01*
X161274543Y-117415119D01*
X161277500Y-117409427D01*
X161293963Y-117403686D01*
X161331449Y-117394345D01*
X161386225Y-117382215D01*
X161454555Y-117368107D01*
X161532706Y-117352830D01*
X161575284Y-117344823D01*
X161656071Y-117329721D01*
X161728113Y-117316040D01*
X161787889Y-117304467D01*
X161831879Y-117295687D01*
X161856561Y-117290387D01*
X161860623Y-117289212D01*
X161867489Y-117275965D01*
X161882002Y-117244057D01*
X161902229Y-117198047D01*
X161926234Y-117142492D01*
X161952082Y-117081953D01*
X161977840Y-117020986D01*
X162001573Y-116964151D01*
X162021346Y-116916006D01*
X162035224Y-116881110D01*
X162041274Y-116864021D01*
X162041386Y-116863274D01*
X162034528Y-116849793D01*
X162015302Y-116818770D01*
X161985728Y-116773289D01*
X161947827Y-116716432D01*
X161903620Y-116651283D01*
X161877921Y-116613862D01*
X161831093Y-116545247D01*
X161789501Y-116482952D01*
X161755175Y-116430129D01*
X161730143Y-116389927D01*
X161716435Y-116365500D01*
X161714456Y-116360024D01*
X161722966Y-116347278D01*
X161746493Y-116320063D01*
X161782032Y-116281428D01*
X161826577Y-116234423D01*
X161877123Y-116182095D01*
X161930664Y-116127495D01*
X161984195Y-116073670D01*
X162034711Y-116023670D01*
X162079206Y-115980543D01*
X162114675Y-115947339D01*
X162138113Y-115927106D01*
X162145954Y-115922278D01*
X162158720Y-115929067D01*
X162189256Y-115948142D01*
X162234590Y-115977561D01*
X162291756Y-116015381D01*
X162357784Y-116059661D01*
X162407590Y-116093395D01*
X162659236Y-116264512D01*
X162868999Y-116178041D01*
X163078763Y-116091570D01*
X163135611Y-115790018D01*
X163192460Y-115488466D01*
X163820115Y-115488466D01*
X163876964Y-115790018D01*
X163876964Y-115790018D01*
G37*
X163876964Y-115790018D02*
X163933812Y-116091570D01*
X164353338Y-116264512D01*
X164604984Y-116093395D01*
X164675458Y-116045750D01*
X164739163Y-116003210D01*
X164793126Y-115967715D01*
X164834373Y-115941210D01*
X164859934Y-115925636D01*
X164866895Y-115922278D01*
X164879435Y-115930914D01*
X164906231Y-115954792D01*
X164944280Y-115990859D01*
X164990579Y-116036067D01*
X165042123Y-116087364D01*
X165095909Y-116141701D01*
X165148935Y-116196028D01*
X165198195Y-116247295D01*
X165240687Y-116292451D01*
X165273407Y-116328446D01*
X165293351Y-116352230D01*
X165298119Y-116360190D01*
X165291257Y-116374865D01*
X165272020Y-116407014D01*
X165242430Y-116453492D01*
X165204510Y-116511156D01*
X165160282Y-116576860D01*
X165134654Y-116614336D01*
X165087941Y-116682768D01*
X165046432Y-116744520D01*
X165012140Y-116796519D01*
X164987080Y-116835692D01*
X164973264Y-116858965D01*
X164971188Y-116863855D01*
X164975895Y-116877755D01*
X164988723Y-116910150D01*
X165007738Y-116956485D01*
X165031003Y-117012206D01*
X165056584Y-117072758D01*
X165082545Y-117133586D01*
X165106950Y-117190136D01*
X165127863Y-117237852D01*
X165143349Y-117272181D01*
X165151472Y-117288568D01*
X165151952Y-117289212D01*
X165164707Y-117292341D01*
X165198677Y-117299321D01*
X165250340Y-117309467D01*
X165316176Y-117322092D01*
X165392664Y-117336509D01*
X165437290Y-117344823D01*
X165519021Y-117360384D01*
X165592843Y-117375192D01*
X165655021Y-117388436D01*
X165701822Y-117399305D01*
X165729509Y-117406989D01*
X165735074Y-117409427D01*
X165740526Y-117425930D01*
X165744924Y-117463200D01*
X165748272Y-117516880D01*
X165750574Y-117582612D01*
X165751832Y-117656037D01*
X165752048Y-117732796D01*
X165751227Y-117808532D01*
X165749371Y-117878886D01*
X165746482Y-117939500D01*
X165742565Y-117986016D01*
X165737622Y-118014075D01*
X165734657Y-118019916D01*
X165716934Y-118026917D01*
X165679381Y-118036927D01*
X165626964Y-118048769D01*
X165564652Y-118061267D01*
X165542900Y-118065310D01*
X165438024Y-118084520D01*
X165355180Y-118099991D01*
X165291630Y-118112337D01*
X165244637Y-118122173D01*
X165211463Y-118130114D01*
X165189371Y-118136776D01*
X165175624Y-118142773D01*
X165167484Y-118148719D01*
X165166345Y-118149894D01*
X165154977Y-118168826D01*
X165137635Y-118205669D01*
X165116050Y-118255913D01*
X165091954Y-118315046D01*
X165067079Y-118378556D01*
X165043157Y-118441932D01*
X165021919Y-118500662D01*
X165005097Y-118550235D01*
X164994422Y-118586139D01*
X164991627Y-118603862D01*
X164991860Y-118604483D01*
X165001331Y-118618970D01*
X165022818Y-118650844D01*
X165054063Y-118696789D01*
X165092807Y-118753485D01*
X165136793Y-118817617D01*
X165149319Y-118835842D01*
X165193984Y-118901914D01*
X165233288Y-118962200D01*
X165265088Y-119013235D01*
X165287245Y-119051560D01*
X165297617Y-119073711D01*
X165298119Y-119076432D01*
X165289405Y-119090736D01*
X165265325Y-119119072D01*
X165228976Y-119158396D01*
X165183453Y-119205661D01*
X165131852Y-119257823D01*
X165077267Y-119311835D01*
X165022794Y-119364653D01*
X164971529Y-119413231D01*
X164926567Y-119454523D01*
X164891004Y-119485485D01*
X164867935Y-119503070D01*
X164861554Y-119505941D01*
X164846699Y-119499178D01*
X164816286Y-119480939D01*
X164775268Y-119454297D01*
X164743709Y-119432852D01*
X164686525Y-119393503D01*
X164618806Y-119347171D01*
X164550880Y-119300913D01*
X164514361Y-119276155D01*
X164390752Y-119192547D01*
X164286991Y-119248650D01*
X164239720Y-119273228D01*
X164199523Y-119292331D01*
X164172326Y-119303227D01*
X164165402Y-119304743D01*
X164157077Y-119293549D01*
X164140654Y-119261917D01*
X164117357Y-119212765D01*
X164088414Y-119149010D01*
X164055050Y-119073571D01*
X164018491Y-118989364D01*
X163979964Y-118899308D01*
X163940694Y-118806321D01*
X163901908Y-118713320D01*
X163864830Y-118623223D01*
X163830689Y-118538948D01*
X163800708Y-118463413D01*
X163776116Y-118399534D01*
X163758136Y-118350231D01*
X163747997Y-118318421D01*
X163746366Y-118307496D01*
X163759291Y-118293561D01*
X163787589Y-118270940D01*
X163825346Y-118244333D01*
X163828515Y-118242228D01*
X163926100Y-118164114D01*
X164004786Y-118072982D01*
X164063891Y-117971745D01*
X164102732Y-117863318D01*
X164120628Y-117750614D01*
X164116897Y-117636548D01*
X164090857Y-117524034D01*
X164041825Y-117415985D01*
X164027400Y-117392345D01*
X163952369Y-117296887D01*
X163863730Y-117220232D01*
X163764549Y-117162780D01*
X163657895Y-117124929D01*
X163546836Y-117107078D01*
X163434439Y-117109625D01*
X163323773Y-117132970D01*
X163217906Y-117177510D01*
X163119905Y-117243645D01*
X163089590Y-117270487D01*
X163012438Y-117354512D01*
X162956218Y-117442966D01*
X162917653Y-117542115D01*
X162896174Y-117640303D01*
X162890872Y-117750697D01*
X162908552Y-117861640D01*
X162947419Y-117969381D01*
X163005677Y-118070169D01*
X163081531Y-118160256D01*
X163173183Y-118235892D01*
X163185228Y-118243864D01*
X163223389Y-118269974D01*
X163252399Y-118292595D01*
X163266268Y-118307039D01*
X163266469Y-118307496D01*
X163263492Y-118323121D01*
X163251689Y-118358582D01*
X163232286Y-118410962D01*
X163206512Y-118477345D01*
X163175591Y-118554814D01*
X163140751Y-118640450D01*
X163103217Y-118731337D01*
X163064217Y-118824559D01*
X163024977Y-118917197D01*
X162986724Y-119006335D01*
X162950683Y-119089055D01*
X162918083Y-119162441D01*
X162890148Y-119223575D01*
X162868105Y-119269541D01*
X162853182Y-119297421D01*
X162847172Y-119304743D01*
X162828809Y-119299041D01*
X162794448Y-119283749D01*
X162750016Y-119261599D01*
X162725583Y-119248650D01*
X162621822Y-119192547D01*
X162498213Y-119276155D01*
X162435114Y-119318987D01*
X162366030Y-119366122D01*
X162301293Y-119410503D01*
X162268866Y-119432852D01*
X162223259Y-119463477D01*
X162184640Y-119487747D01*
X162158048Y-119502587D01*
X162149410Y-119505724D01*
X162136839Y-119497261D01*
X162109016Y-119473636D01*
X162068639Y-119437302D01*
X162018405Y-119390711D01*
X161961012Y-119336317D01*
X161924714Y-119301392D01*
X161861210Y-119238996D01*
X161806327Y-119183188D01*
X161762286Y-119136354D01*
X161731305Y-119100882D01*
X161715602Y-119079161D01*
X161714095Y-119074752D01*
X161721086Y-119057985D01*
X161740406Y-119024082D01*
X161769909Y-118976476D01*
X161807455Y-118918599D01*
X161850900Y-118853884D01*
X161863255Y-118835842D01*
X161908273Y-118770267D01*
X161948660Y-118711228D01*
X161982160Y-118662042D01*
X162006514Y-118626028D01*
X162019464Y-118606502D01*
X162020715Y-118604483D01*
X162018844Y-118588922D01*
X162008913Y-118554709D01*
X161992653Y-118506355D01*
X161971795Y-118448371D01*
X161948073Y-118385270D01*
X161923216Y-118321563D01*
X161898958Y-118261761D01*
X161877029Y-118210376D01*
X161859162Y-118171919D01*
X161847087Y-118150902D01*
X161846229Y-118149894D01*
X161838846Y-118143888D01*
X161826375Y-118137948D01*
X161806080Y-118131460D01*
X161775222Y-118123809D01*
X161731066Y-118114380D01*
X161670874Y-118102559D01*
X161591907Y-118087729D01*
X161491430Y-118069277D01*
X161469675Y-118065310D01*
X161405198Y-118052853D01*
X161348989Y-118040666D01*
X161306013Y-118029926D01*
X161281240Y-118021809D01*
X161277918Y-118019916D01*
X161272444Y-118003138D01*
X161267994Y-117965645D01*
X161264572Y-117911794D01*
X161262181Y-117845944D01*
X161260823Y-117772453D01*
X161260501Y-117695680D01*
X161261219Y-117619983D01*
X161262979Y-117549720D01*
X161265784Y-117489250D01*
X161269638Y-117442930D01*
X161274543Y-117415119D01*
X161277500Y-117409427D01*
X161293963Y-117403686D01*
X161331449Y-117394345D01*
X161386225Y-117382215D01*
X161454555Y-117368107D01*
X161532706Y-117352830D01*
X161575284Y-117344823D01*
X161656071Y-117329721D01*
X161728113Y-117316040D01*
X161787889Y-117304467D01*
X161831879Y-117295687D01*
X161856561Y-117290387D01*
X161860623Y-117289212D01*
X161867489Y-117275965D01*
X161882002Y-117244057D01*
X161902229Y-117198047D01*
X161926234Y-117142492D01*
X161952082Y-117081953D01*
X161977840Y-117020986D01*
X162001573Y-116964151D01*
X162021346Y-116916006D01*
X162035224Y-116881110D01*
X162041274Y-116864021D01*
X162041386Y-116863274D01*
X162034528Y-116849793D01*
X162015302Y-116818770D01*
X161985728Y-116773289D01*
X161947827Y-116716432D01*
X161903620Y-116651283D01*
X161877921Y-116613862D01*
X161831093Y-116545247D01*
X161789501Y-116482952D01*
X161755175Y-116430129D01*
X161730143Y-116389927D01*
X161716435Y-116365500D01*
X161714456Y-116360024D01*
X161722966Y-116347278D01*
X161746493Y-116320063D01*
X161782032Y-116281428D01*
X161826577Y-116234423D01*
X161877123Y-116182095D01*
X161930664Y-116127495D01*
X161984195Y-116073670D01*
X162034711Y-116023670D01*
X162079206Y-115980543D01*
X162114675Y-115947339D01*
X162138113Y-115927106D01*
X162145954Y-115922278D01*
X162158720Y-115929067D01*
X162189256Y-115948142D01*
X162234590Y-115977561D01*
X162291756Y-116015381D01*
X162357784Y-116059661D01*
X162407590Y-116093395D01*
X162659236Y-116264512D01*
X162868999Y-116178041D01*
X163078763Y-116091570D01*
X163135611Y-115790018D01*
X163192460Y-115488466D01*
X163820115Y-115488466D01*
X163876964Y-115790018D01*
G36*
X165299460Y-119958030D02*
X165342711Y-119971245D01*
X165370558Y-119987941D01*
X165379629Y-120001145D01*
X165377132Y-120016797D01*
X165360931Y-120041385D01*
X165347232Y-120058800D01*
X165318992Y-120090283D01*
X165297775Y-120103529D01*
X165279688Y-120102664D01*
X165226035Y-120089010D01*
X165186630Y-120089630D01*
X165154632Y-120105104D01*
X165143890Y-120114161D01*
X165109505Y-120146027D01*
X165109505Y-120562179D01*
X164971188Y-120562179D01*
X164971188Y-119958614D01*
X165040347Y-119958614D01*
X165081869Y-119960256D01*
X165103291Y-119966087D01*
X165109502Y-119977461D01*
X165109505Y-119977798D01*
X165112439Y-119989713D01*
X165125704Y-119988159D01*
X165144084Y-119979563D01*
X165182046Y-119963568D01*
X165212872Y-119953945D01*
X165252536Y-119951478D01*
X165299460Y-119958030D01*
X165299460Y-119958030D01*
G37*
X165299460Y-119958030D02*
X165342711Y-119971245D01*
X165370558Y-119987941D01*
X165379629Y-120001145D01*
X165377132Y-120016797D01*
X165360931Y-120041385D01*
X165347232Y-120058800D01*
X165318992Y-120090283D01*
X165297775Y-120103529D01*
X165279688Y-120102664D01*
X165226035Y-120089010D01*
X165186630Y-120089630D01*
X165154632Y-120105104D01*
X165143890Y-120114161D01*
X165109505Y-120146027D01*
X165109505Y-120562179D01*
X164971188Y-120562179D01*
X164971188Y-119958614D01*
X165040347Y-119958614D01*
X165081869Y-119960256D01*
X165103291Y-119966087D01*
X165109502Y-119977461D01*
X165109505Y-119977798D01*
X165112439Y-119989713D01*
X165125704Y-119988159D01*
X165144084Y-119979563D01*
X165182046Y-119963568D01*
X165212872Y-119953945D01*
X165252536Y-119951478D01*
X165299460Y-119958030D01*
G36*
X162745988Y-119969002D02*
X162777283Y-119983950D01*
X162807591Y-120005541D01*
X162830682Y-120030391D01*
X162847500Y-120062087D01*
X162858994Y-120104214D01*
X162866109Y-120160358D01*
X162869793Y-120234106D01*
X162870992Y-120329044D01*
X162871011Y-120338985D01*
X162871287Y-120562179D01*
X162732970Y-120562179D01*
X162732970Y-120356418D01*
X162732872Y-120280189D01*
X162732191Y-120224939D01*
X162730349Y-120186501D01*
X162726767Y-120160706D01*
X162720868Y-120143384D01*
X162712073Y-120130368D01*
X162699820Y-120117507D01*
X162656953Y-120089873D01*
X162610157Y-120084745D01*
X162565576Y-120102217D01*
X162550072Y-120115221D01*
X162538690Y-120127447D01*
X162530519Y-120140540D01*
X162525026Y-120158615D01*
X162521680Y-120185787D01*
X162519949Y-120226170D01*
X162519303Y-120283879D01*
X162519208Y-120354132D01*
X162519208Y-120562179D01*
X162380891Y-120562179D01*
X162380891Y-119958614D01*
X162450050Y-119958614D01*
X162491572Y-119960256D01*
X162512994Y-119966087D01*
X162519205Y-119977461D01*
X162519208Y-119977798D01*
X162522090Y-119988938D01*
X162534801Y-119987674D01*
X162560074Y-119975434D01*
X162617395Y-119957424D01*
X162682963Y-119955421D01*
X162745988Y-119969002D01*
X162745988Y-119969002D01*
G37*
X162745988Y-119969002D02*
X162777283Y-119983950D01*
X162807591Y-120005541D01*
X162830682Y-120030391D01*
X162847500Y-120062087D01*
X162858994Y-120104214D01*
X162866109Y-120160358D01*
X162869793Y-120234106D01*
X162870992Y-120329044D01*
X162871011Y-120338985D01*
X162871287Y-120562179D01*
X162732970Y-120562179D01*
X162732970Y-120356418D01*
X162732872Y-120280189D01*
X162732191Y-120224939D01*
X162730349Y-120186501D01*
X162726767Y-120160706D01*
X162720868Y-120143384D01*
X162712073Y-120130368D01*
X162699820Y-120117507D01*
X162656953Y-120089873D01*
X162610157Y-120084745D01*
X162565576Y-120102217D01*
X162550072Y-120115221D01*
X162538690Y-120127447D01*
X162530519Y-120140540D01*
X162525026Y-120158615D01*
X162521680Y-120185787D01*
X162519949Y-120226170D01*
X162519303Y-120283879D01*
X162519208Y-120354132D01*
X162519208Y-120562179D01*
X162380891Y-120562179D01*
X162380891Y-119958614D01*
X162450050Y-119958614D01*
X162491572Y-119960256D01*
X162512994Y-119966087D01*
X162519205Y-119977461D01*
X162519208Y-119977798D01*
X162522090Y-119988938D01*
X162534801Y-119987674D01*
X162560074Y-119975434D01*
X162617395Y-119957424D01*
X162682963Y-119955421D01*
X162745988Y-119969002D01*
G36*
X166177898Y-119956457D02*
X166210096Y-119964279D01*
X166271825Y-119992921D01*
X166324610Y-120036667D01*
X166361141Y-120089117D01*
X166366160Y-120100893D01*
X166373045Y-120131740D01*
X166377864Y-120177371D01*
X166379505Y-120223492D01*
X166379505Y-120310693D01*
X166197178Y-120310693D01*
X166121979Y-120310978D01*
X166069003Y-120312704D01*
X166035325Y-120317181D01*
X166018020Y-120325720D01*
X166014163Y-120339630D01*
X166020829Y-120360222D01*
X166032770Y-120384315D01*
X166066080Y-120424525D01*
X166112368Y-120444558D01*
X166168944Y-120443905D01*
X166233031Y-120422101D01*
X166288417Y-120395193D01*
X166334375Y-120431532D01*
X166380333Y-120467872D01*
X166337096Y-120507819D01*
X166279374Y-120545563D01*
X166208386Y-120568320D01*
X166132029Y-120574688D01*
X166058199Y-120563268D01*
X166046287Y-120559393D01*
X165981399Y-120525506D01*
X165933130Y-120474986D01*
X165900465Y-120406325D01*
X165882385Y-120318014D01*
X165882175Y-120316121D01*
X165880556Y-120219878D01*
X165887100Y-120185542D01*
X166014852Y-120185542D01*
X166026584Y-120190822D01*
X166058438Y-120194867D01*
X166105397Y-120197176D01*
X166135154Y-120197525D01*
X166190648Y-120197306D01*
X166225346Y-120195916D01*
X166243601Y-120192251D01*
X166249766Y-120185210D01*
X166248195Y-120173690D01*
X166246878Y-120169233D01*
X166224382Y-120127355D01*
X166189003Y-120093604D01*
X166157780Y-120078773D01*
X166116301Y-120079668D01*
X166074269Y-120098164D01*
X166039012Y-120128786D01*
X166017854Y-120166062D01*
X166014852Y-120185542D01*
X165887100Y-120185542D01*
X165896690Y-120135229D01*
X165928698Y-120064191D01*
X165974701Y-120008779D01*
X166032821Y-119971009D01*
X166101180Y-119952896D01*
X166177898Y-119956457D01*
X166177898Y-119956457D01*
G37*
X166177898Y-119956457D02*
X166210096Y-119964279D01*
X166271825Y-119992921D01*
X166324610Y-120036667D01*
X166361141Y-120089117D01*
X166366160Y-120100893D01*
X166373045Y-120131740D01*
X166377864Y-120177371D01*
X166379505Y-120223492D01*
X166379505Y-120310693D01*
X166197178Y-120310693D01*
X166121979Y-120310978D01*
X166069003Y-120312704D01*
X166035325Y-120317181D01*
X166018020Y-120325720D01*
X166014163Y-120339630D01*
X166020829Y-120360222D01*
X166032770Y-120384315D01*
X166066080Y-120424525D01*
X166112368Y-120444558D01*
X166168944Y-120443905D01*
X166233031Y-120422101D01*
X166288417Y-120395193D01*
X166334375Y-120431532D01*
X166380333Y-120467872D01*
X166337096Y-120507819D01*
X166279374Y-120545563D01*
X166208386Y-120568320D01*
X166132029Y-120574688D01*
X166058199Y-120563268D01*
X166046287Y-120559393D01*
X165981399Y-120525506D01*
X165933130Y-120474986D01*
X165900465Y-120406325D01*
X165882385Y-120318014D01*
X165882175Y-120316121D01*
X165880556Y-120219878D01*
X165887100Y-120185542D01*
X166014852Y-120185542D01*
X166026584Y-120190822D01*
X166058438Y-120194867D01*
X166105397Y-120197176D01*
X166135154Y-120197525D01*
X166190648Y-120197306D01*
X166225346Y-120195916D01*
X166243601Y-120192251D01*
X166249766Y-120185210D01*
X166248195Y-120173690D01*
X166246878Y-120169233D01*
X166224382Y-120127355D01*
X166189003Y-120093604D01*
X166157780Y-120078773D01*
X166116301Y-120079668D01*
X166074269Y-120098164D01*
X166039012Y-120128786D01*
X166017854Y-120166062D01*
X166014852Y-120185542D01*
X165887100Y-120185542D01*
X165896690Y-120135229D01*
X165928698Y-120064191D01*
X165974701Y-120008779D01*
X166032821Y-119971009D01*
X166101180Y-119952896D01*
X166177898Y-119956457D01*
G36*
X165717226Y-119963880D02*
X165790080Y-119994830D01*
X165813027Y-120009895D01*
X165842354Y-120033048D01*
X165860764Y-120051253D01*
X165863961Y-120057183D01*
X165854935Y-120070340D01*
X165831837Y-120092667D01*
X165813344Y-120108250D01*
X165762728Y-120148926D01*
X165722760Y-120115295D01*
X165691874Y-120093584D01*
X165661759Y-120086090D01*
X165627292Y-120087920D01*
X165572561Y-120101528D01*
X165534886Y-120129772D01*
X165511991Y-120175433D01*
X165501597Y-120241289D01*
X165501595Y-120241331D01*
X165502494Y-120314939D01*
X165516463Y-120368946D01*
X165544328Y-120405716D01*
X165563325Y-120418168D01*
X165613776Y-120433673D01*
X165667663Y-120433683D01*
X165714546Y-120418638D01*
X165725644Y-120411287D01*
X165753476Y-120392511D01*
X165775236Y-120389434D01*
X165798704Y-120403409D01*
X165824649Y-120428510D01*
X165865716Y-120470880D01*
X165820121Y-120508464D01*
X165749674Y-120550882D01*
X165670233Y-120571785D01*
X165587215Y-120570272D01*
X165532694Y-120556411D01*
X165468970Y-120522135D01*
X165418005Y-120468212D01*
X165394851Y-120430149D01*
X165376099Y-120375536D01*
X165366715Y-120306369D01*
X165366643Y-120231407D01*
X165375824Y-120159409D01*
X165394199Y-120099137D01*
X165397093Y-120092958D01*
X165439952Y-120032351D01*
X165497979Y-119988224D01*
X165566591Y-119961493D01*
X165641201Y-119953073D01*
X165717226Y-119963880D01*
X165717226Y-119963880D01*
G37*
X165717226Y-119963880D02*
X165790080Y-119994830D01*
X165813027Y-120009895D01*
X165842354Y-120033048D01*
X165860764Y-120051253D01*
X165863961Y-120057183D01*
X165854935Y-120070340D01*
X165831837Y-120092667D01*
X165813344Y-120108250D01*
X165762728Y-120148926D01*
X165722760Y-120115295D01*
X165691874Y-120093584D01*
X165661759Y-120086090D01*
X165627292Y-120087920D01*
X165572561Y-120101528D01*
X165534886Y-120129772D01*
X165511991Y-120175433D01*
X165501597Y-120241289D01*
X165501595Y-120241331D01*
X165502494Y-120314939D01*
X165516463Y-120368946D01*
X165544328Y-120405716D01*
X165563325Y-120418168D01*
X165613776Y-120433673D01*
X165667663Y-120433683D01*
X165714546Y-120418638D01*
X165725644Y-120411287D01*
X165753476Y-120392511D01*
X165775236Y-120389434D01*
X165798704Y-120403409D01*
X165824649Y-120428510D01*
X165865716Y-120470880D01*
X165820121Y-120508464D01*
X165749674Y-120550882D01*
X165670233Y-120571785D01*
X165587215Y-120570272D01*
X165532694Y-120556411D01*
X165468970Y-120522135D01*
X165418005Y-120468212D01*
X165394851Y-120430149D01*
X165376099Y-120375536D01*
X165366715Y-120306369D01*
X165366643Y-120231407D01*
X165375824Y-120159409D01*
X165394199Y-120099137D01*
X165397093Y-120092958D01*
X165439952Y-120032351D01*
X165497979Y-119988224D01*
X165566591Y-119961493D01*
X165641201Y-119953073D01*
X165717226Y-119963880D01*
G36*
X164493367Y-120154342D02*
X164494555Y-120246563D01*
X164498897Y-120316610D01*
X164507558Y-120367381D01*
X164521704Y-120401772D01*
X164542500Y-120422679D01*
X164571110Y-120433000D01*
X164606535Y-120435636D01*
X164643636Y-120432682D01*
X164671818Y-120421889D01*
X164692243Y-120400360D01*
X164706079Y-120365199D01*
X164714491Y-120313510D01*
X164718643Y-120242394D01*
X164719703Y-120154342D01*
X164719703Y-119958614D01*
X164858020Y-119958614D01*
X164858020Y-120562179D01*
X164788862Y-120562179D01*
X164747170Y-120560489D01*
X164725701Y-120554556D01*
X164719703Y-120543293D01*
X164716091Y-120533261D01*
X164701714Y-120535383D01*
X164672736Y-120549580D01*
X164606319Y-120571480D01*
X164535875Y-120569928D01*
X164468377Y-120546147D01*
X164436233Y-120527362D01*
X164411715Y-120507022D01*
X164393804Y-120481573D01*
X164381479Y-120447458D01*
X164373723Y-120401121D01*
X164369516Y-120339007D01*
X164367840Y-120257561D01*
X164367624Y-120194578D01*
X164367624Y-119958614D01*
X164493367Y-119958614D01*
X164493367Y-120154342D01*
X164493367Y-120154342D01*
G37*
X164493367Y-120154342D02*
X164494555Y-120246563D01*
X164498897Y-120316610D01*
X164507558Y-120367381D01*
X164521704Y-120401772D01*
X164542500Y-120422679D01*
X164571110Y-120433000D01*
X164606535Y-120435636D01*
X164643636Y-120432682D01*
X164671818Y-120421889D01*
X164692243Y-120400360D01*
X164706079Y-120365199D01*
X164714491Y-120313510D01*
X164718643Y-120242394D01*
X164719703Y-120154342D01*
X164719703Y-119958614D01*
X164858020Y-119958614D01*
X164858020Y-120562179D01*
X164788862Y-120562179D01*
X164747170Y-120560489D01*
X164725701Y-120554556D01*
X164719703Y-120543293D01*
X164716091Y-120533261D01*
X164701714Y-120535383D01*
X164672736Y-120549580D01*
X164606319Y-120571480D01*
X164535875Y-120569928D01*
X164468377Y-120546147D01*
X164436233Y-120527362D01*
X164411715Y-120507022D01*
X164393804Y-120481573D01*
X164381479Y-120447458D01*
X164373723Y-120401121D01*
X164369516Y-120339007D01*
X164367840Y-120257561D01*
X164367624Y-120194578D01*
X164367624Y-119958614D01*
X164493367Y-119958614D01*
X164493367Y-120154342D01*
G36*
X164110762Y-119966055D02*
X164174363Y-120000692D01*
X164224123Y-120055372D01*
X164247568Y-120099842D01*
X164257634Y-120139121D01*
X164264156Y-120195116D01*
X164266951Y-120259621D01*
X164265836Y-120324429D01*
X164260626Y-120381334D01*
X164254541Y-120411727D01*
X164234014Y-120453306D01*
X164198463Y-120497468D01*
X164155619Y-120536087D01*
X164113211Y-120561034D01*
X164112177Y-120561430D01*
X164059553Y-120572331D01*
X163997188Y-120572601D01*
X163937924Y-120562676D01*
X163915040Y-120554722D01*
X163856102Y-120521300D01*
X163813890Y-120477511D01*
X163786156Y-120419538D01*
X163770651Y-120343565D01*
X163767143Y-120303771D01*
X163767590Y-120253766D01*
X163902376Y-120253766D01*
X163906917Y-120326732D01*
X163919986Y-120382334D01*
X163940756Y-120417861D01*
X163955552Y-120428020D01*
X163993464Y-120435104D01*
X164038527Y-120433007D01*
X164077487Y-120422812D01*
X164087704Y-120417204D01*
X164114659Y-120384538D01*
X164132451Y-120334545D01*
X164140024Y-120273705D01*
X164136325Y-120208497D01*
X164128057Y-120169253D01*
X164104320Y-120123805D01*
X164066849Y-120095396D01*
X164021720Y-120085573D01*
X163975011Y-120095887D01*
X163939132Y-120121112D01*
X163920277Y-120141925D01*
X163909272Y-120162439D01*
X163904026Y-120190203D01*
X163902449Y-120232762D01*
X163902376Y-120253766D01*
X163767590Y-120253766D01*
X163768094Y-120197580D01*
X163785388Y-120110501D01*
X163819029Y-120042530D01*
X163869018Y-119993664D01*
X163935356Y-119963899D01*
X163949601Y-119960448D01*
X164035210Y-119952345D01*
X164110762Y-119966055D01*
X164110762Y-119966055D01*
G37*
X164110762Y-119966055D02*
X164174363Y-120000692D01*
X164224123Y-120055372D01*
X164247568Y-120099842D01*
X164257634Y-120139121D01*
X164264156Y-120195116D01*
X164266951Y-120259621D01*
X164265836Y-120324429D01*
X164260626Y-120381334D01*
X164254541Y-120411727D01*
X164234014Y-120453306D01*
X164198463Y-120497468D01*
X164155619Y-120536087D01*
X164113211Y-120561034D01*
X164112177Y-120561430D01*
X164059553Y-120572331D01*
X163997188Y-120572601D01*
X163937924Y-120562676D01*
X163915040Y-120554722D01*
X163856102Y-120521300D01*
X163813890Y-120477511D01*
X163786156Y-120419538D01*
X163770651Y-120343565D01*
X163767143Y-120303771D01*
X163767590Y-120253766D01*
X163902376Y-120253766D01*
X163906917Y-120326732D01*
X163919986Y-120382334D01*
X163940756Y-120417861D01*
X163955552Y-120428020D01*
X163993464Y-120435104D01*
X164038527Y-120433007D01*
X164077487Y-120422812D01*
X164087704Y-120417204D01*
X164114659Y-120384538D01*
X164132451Y-120334545D01*
X164140024Y-120273705D01*
X164136325Y-120208497D01*
X164128057Y-120169253D01*
X164104320Y-120123805D01*
X164066849Y-120095396D01*
X164021720Y-120085573D01*
X163975011Y-120095887D01*
X163939132Y-120121112D01*
X163920277Y-120141925D01*
X163909272Y-120162439D01*
X163904026Y-120190203D01*
X163902449Y-120232762D01*
X163902376Y-120253766D01*
X163767590Y-120253766D01*
X163768094Y-120197580D01*
X163785388Y-120110501D01*
X163819029Y-120042530D01*
X163869018Y-119993664D01*
X163935356Y-119963899D01*
X163949601Y-119960448D01*
X164035210Y-119952345D01*
X164110762Y-119966055D01*
G36*
X163514017Y-119956452D02*
X163561634Y-119965482D01*
X163611034Y-119984370D01*
X163616312Y-119986777D01*
X163653774Y-120006476D01*
X163679717Y-120024781D01*
X163688103Y-120036508D01*
X163680117Y-120055632D01*
X163660720Y-120083850D01*
X163652110Y-120094384D01*
X163616628Y-120135847D01*
X163570885Y-120108858D01*
X163527350Y-120090878D01*
X163477050Y-120081267D01*
X163428812Y-120080660D01*
X163391467Y-120089691D01*
X163382505Y-120095327D01*
X163365437Y-120121171D01*
X163363363Y-120150941D01*
X163376134Y-120174197D01*
X163383688Y-120178708D01*
X163406325Y-120184309D01*
X163446115Y-120190892D01*
X163495166Y-120197183D01*
X163504215Y-120198170D01*
X163582996Y-120211798D01*
X163640136Y-120234946D01*
X163678030Y-120269752D01*
X163699079Y-120318354D01*
X163705635Y-120377718D01*
X163696577Y-120445198D01*
X163667164Y-120498188D01*
X163617278Y-120536783D01*
X163546800Y-120561081D01*
X163468565Y-120570667D01*
X163404766Y-120570552D01*
X163353016Y-120561845D01*
X163317673Y-120549825D01*
X163273017Y-120528880D01*
X163231747Y-120504574D01*
X163217079Y-120493876D01*
X163179357Y-120463084D01*
X163224852Y-120417049D01*
X163270347Y-120371013D01*
X163322072Y-120405243D01*
X163373952Y-120430952D01*
X163429351Y-120444399D01*
X163482605Y-120445818D01*
X163528049Y-120435443D01*
X163560016Y-120413507D01*
X163570338Y-120394998D01*
X163568789Y-120365314D01*
X163543140Y-120342615D01*
X163493460Y-120326940D01*
X163439031Y-120319695D01*
X163355264Y-120305873D01*
X163293033Y-120279796D01*
X163251507Y-120240699D01*
X163229853Y-120187820D01*
X163226853Y-120125126D01*
X163241671Y-120059642D01*
X163275454Y-120010144D01*
X163328505Y-119976408D01*
X163401126Y-119958207D01*
X163454928Y-119954639D01*
X163514017Y-119956452D01*
X163514017Y-119956452D01*
G37*
X163514017Y-119956452D02*
X163561634Y-119965482D01*
X163611034Y-119984370D01*
X163616312Y-119986777D01*
X163653774Y-120006476D01*
X163679717Y-120024781D01*
X163688103Y-120036508D01*
X163680117Y-120055632D01*
X163660720Y-120083850D01*
X163652110Y-120094384D01*
X163616628Y-120135847D01*
X163570885Y-120108858D01*
X163527350Y-120090878D01*
X163477050Y-120081267D01*
X163428812Y-120080660D01*
X163391467Y-120089691D01*
X163382505Y-120095327D01*
X163365437Y-120121171D01*
X163363363Y-120150941D01*
X163376134Y-120174197D01*
X163383688Y-120178708D01*
X163406325Y-120184309D01*
X163446115Y-120190892D01*
X163495166Y-120197183D01*
X163504215Y-120198170D01*
X163582996Y-120211798D01*
X163640136Y-120234946D01*
X163678030Y-120269752D01*
X163699079Y-120318354D01*
X163705635Y-120377718D01*
X163696577Y-120445198D01*
X163667164Y-120498188D01*
X163617278Y-120536783D01*
X163546800Y-120561081D01*
X163468565Y-120570667D01*
X163404766Y-120570552D01*
X163353016Y-120561845D01*
X163317673Y-120549825D01*
X163273017Y-120528880D01*
X163231747Y-120504574D01*
X163217079Y-120493876D01*
X163179357Y-120463084D01*
X163224852Y-120417049D01*
X163270347Y-120371013D01*
X163322072Y-120405243D01*
X163373952Y-120430952D01*
X163429351Y-120444399D01*
X163482605Y-120445818D01*
X163528049Y-120435443D01*
X163560016Y-120413507D01*
X163570338Y-120394998D01*
X163568789Y-120365314D01*
X163543140Y-120342615D01*
X163493460Y-120326940D01*
X163439031Y-120319695D01*
X163355264Y-120305873D01*
X163293033Y-120279796D01*
X163251507Y-120240699D01*
X163229853Y-120187820D01*
X163226853Y-120125126D01*
X163241671Y-120059642D01*
X163275454Y-120010144D01*
X163328505Y-119976408D01*
X163401126Y-119958207D01*
X163454928Y-119954639D01*
X163514017Y-119956452D01*
G36*
X162143301Y-119972614D02*
X162155832Y-119978514D01*
X162199201Y-120010283D01*
X162240210Y-120056646D01*
X162270832Y-120107696D01*
X162279541Y-120131166D01*
X162287488Y-120173091D01*
X162292226Y-120223757D01*
X162292801Y-120244679D01*
X162292871Y-120310693D01*
X161912917Y-120310693D01*
X161921017Y-120345273D01*
X161940896Y-120386170D01*
X161975653Y-120421514D01*
X162017002Y-120444282D01*
X162043351Y-120449010D01*
X162079084Y-120443273D01*
X162121718Y-120428882D01*
X162136201Y-120422262D01*
X162189760Y-120395513D01*
X162235467Y-120430376D01*
X162261842Y-120453955D01*
X162275876Y-120473417D01*
X162276586Y-120479129D01*
X162264049Y-120492973D01*
X162236572Y-120514012D01*
X162211634Y-120530425D01*
X162144336Y-120559930D01*
X162068890Y-120573284D01*
X161994112Y-120569812D01*
X161934505Y-120551663D01*
X161873059Y-120512784D01*
X161829392Y-120461595D01*
X161802074Y-120395367D01*
X161789678Y-120311371D01*
X161788579Y-120272936D01*
X161792978Y-120184861D01*
X161793518Y-120182299D01*
X161919418Y-120182299D01*
X161922885Y-120190558D01*
X161937137Y-120195113D01*
X161966530Y-120197065D01*
X162015425Y-120197517D01*
X162034252Y-120197525D01*
X162091533Y-120196843D01*
X162127859Y-120194364D01*
X162147396Y-120189443D01*
X162154310Y-120181434D01*
X162154555Y-120178862D01*
X162146664Y-120158423D01*
X162126915Y-120129789D01*
X162118425Y-120119763D01*
X162086906Y-120091408D01*
X162054051Y-120080259D01*
X162036349Y-120079327D01*
X161988461Y-120090981D01*
X161948301Y-120122285D01*
X161922827Y-120167752D01*
X161922375Y-120169233D01*
X161919418Y-120182299D01*
X161793518Y-120182299D01*
X161807608Y-120115510D01*
X161833962Y-120060025D01*
X161866193Y-120020639D01*
X161925783Y-119977931D01*
X161995832Y-119955109D01*
X162070339Y-119953046D01*
X162143301Y-119972614D01*
X162143301Y-119972614D01*
G37*
X162143301Y-119972614D02*
X162155832Y-119978514D01*
X162199201Y-120010283D01*
X162240210Y-120056646D01*
X162270832Y-120107696D01*
X162279541Y-120131166D01*
X162287488Y-120173091D01*
X162292226Y-120223757D01*
X162292801Y-120244679D01*
X162292871Y-120310693D01*
X161912917Y-120310693D01*
X161921017Y-120345273D01*
X161940896Y-120386170D01*
X161975653Y-120421514D01*
X162017002Y-120444282D01*
X162043351Y-120449010D01*
X162079084Y-120443273D01*
X162121718Y-120428882D01*
X162136201Y-120422262D01*
X162189760Y-120395513D01*
X162235467Y-120430376D01*
X162261842Y-120453955D01*
X162275876Y-120473417D01*
X162276586Y-120479129D01*
X162264049Y-120492973D01*
X162236572Y-120514012D01*
X162211634Y-120530425D01*
X162144336Y-120559930D01*
X162068890Y-120573284D01*
X161994112Y-120569812D01*
X161934505Y-120551663D01*
X161873059Y-120512784D01*
X161829392Y-120461595D01*
X161802074Y-120395367D01*
X161789678Y-120311371D01*
X161788579Y-120272936D01*
X161792978Y-120184861D01*
X161793518Y-120182299D01*
X161919418Y-120182299D01*
X161922885Y-120190558D01*
X161937137Y-120195113D01*
X161966530Y-120197065D01*
X162015425Y-120197517D01*
X162034252Y-120197525D01*
X162091533Y-120196843D01*
X162127859Y-120194364D01*
X162147396Y-120189443D01*
X162154310Y-120181434D01*
X162154555Y-120178862D01*
X162146664Y-120158423D01*
X162126915Y-120129789D01*
X162118425Y-120119763D01*
X162086906Y-120091408D01*
X162054051Y-120080259D01*
X162036349Y-120079327D01*
X161988461Y-120090981D01*
X161948301Y-120122285D01*
X161922827Y-120167752D01*
X161922375Y-120169233D01*
X161919418Y-120182299D01*
X161793518Y-120182299D01*
X161807608Y-120115510D01*
X161833962Y-120060025D01*
X161866193Y-120020639D01*
X161925783Y-119977931D01*
X161995832Y-119955109D01*
X162070339Y-119953046D01*
X162143301Y-119972614D01*
G36*
X160961739Y-119965148D02*
X161027521Y-119994231D01*
X161077460Y-120042793D01*
X161111626Y-120110908D01*
X161130093Y-120198651D01*
X161131417Y-120212351D01*
X161132454Y-120308939D01*
X161119007Y-120393602D01*
X161091892Y-120462221D01*
X161077373Y-120484294D01*
X161026799Y-120531011D01*
X160962391Y-120561268D01*
X160890334Y-120573824D01*
X160816815Y-120567439D01*
X160760928Y-120547772D01*
X160712868Y-120514629D01*
X160673588Y-120471175D01*
X160672908Y-120470158D01*
X160656956Y-120443338D01*
X160646590Y-120416368D01*
X160640312Y-120382332D01*
X160636627Y-120334310D01*
X160635003Y-120294931D01*
X160634328Y-120259219D01*
X160760045Y-120259219D01*
X160761274Y-120294770D01*
X160765734Y-120342094D01*
X160773603Y-120372465D01*
X160787793Y-120394072D01*
X160801083Y-120406694D01*
X160848198Y-120433122D01*
X160897495Y-120436653D01*
X160943407Y-120417639D01*
X160966362Y-120396331D01*
X160982904Y-120374859D01*
X160992579Y-120354313D01*
X160996826Y-120327574D01*
X160997080Y-120287523D01*
X160995772Y-120250638D01*
X160992957Y-120197947D01*
X160988495Y-120163772D01*
X160980452Y-120141480D01*
X160966897Y-120124442D01*
X160956155Y-120114703D01*
X160911223Y-120089123D01*
X160862751Y-120087847D01*
X160822106Y-120102999D01*
X160787433Y-120134642D01*
X160766776Y-120186620D01*
X160760045Y-120259219D01*
X160634328Y-120259219D01*
X160633521Y-120216621D01*
X160636052Y-120158056D01*
X160643638Y-120114007D01*
X160657319Y-120079248D01*
X160678135Y-120048551D01*
X160685853Y-120039436D01*
X160734111Y-119994021D01*
X160785872Y-119967493D01*
X160849172Y-119956379D01*
X160880039Y-119955471D01*
X160961739Y-119965148D01*
X160961739Y-119965148D01*
G37*
X160961739Y-119965148D02*
X161027521Y-119994231D01*
X161077460Y-120042793D01*
X161111626Y-120110908D01*
X161130093Y-120198651D01*
X161131417Y-120212351D01*
X161132454Y-120308939D01*
X161119007Y-120393602D01*
X161091892Y-120462221D01*
X161077373Y-120484294D01*
X161026799Y-120531011D01*
X160962391Y-120561268D01*
X160890334Y-120573824D01*
X160816815Y-120567439D01*
X160760928Y-120547772D01*
X160712868Y-120514629D01*
X160673588Y-120471175D01*
X160672908Y-120470158D01*
X160656956Y-120443338D01*
X160646590Y-120416368D01*
X160640312Y-120382332D01*
X160636627Y-120334310D01*
X160635003Y-120294931D01*
X160634328Y-120259219D01*
X160760045Y-120259219D01*
X160761274Y-120294770D01*
X160765734Y-120342094D01*
X160773603Y-120372465D01*
X160787793Y-120394072D01*
X160801083Y-120406694D01*
X160848198Y-120433122D01*
X160897495Y-120436653D01*
X160943407Y-120417639D01*
X160966362Y-120396331D01*
X160982904Y-120374859D01*
X160992579Y-120354313D01*
X160996826Y-120327574D01*
X160997080Y-120287523D01*
X160995772Y-120250638D01*
X160992957Y-120197947D01*
X160988495Y-120163772D01*
X160980452Y-120141480D01*
X160966897Y-120124442D01*
X160956155Y-120114703D01*
X160911223Y-120089123D01*
X160862751Y-120087847D01*
X160822106Y-120102999D01*
X160787433Y-120134642D01*
X160766776Y-120186620D01*
X160760045Y-120259219D01*
X160634328Y-120259219D01*
X160633521Y-120216621D01*
X160636052Y-120158056D01*
X160643638Y-120114007D01*
X160657319Y-120079248D01*
X160678135Y-120048551D01*
X160685853Y-120039436D01*
X160734111Y-119994021D01*
X160785872Y-119967493D01*
X160849172Y-119956379D01*
X160880039Y-119955471D01*
X160961739Y-119965148D01*
G36*
X165532581Y-120904970D02*
X165592685Y-120920597D01*
X165643021Y-120952848D01*
X165667393Y-120976940D01*
X165707345Y-121033895D01*
X165730242Y-121099965D01*
X165738108Y-121181182D01*
X165738148Y-121187748D01*
X165738218Y-121253763D01*
X165358264Y-121253763D01*
X165366363Y-121288342D01*
X165380987Y-121319659D01*
X165406581Y-121352291D01*
X165411935Y-121357500D01*
X165457943Y-121385694D01*
X165510410Y-121390475D01*
X165570803Y-121371926D01*
X165581040Y-121366931D01*
X165612439Y-121351745D01*
X165633470Y-121343094D01*
X165637139Y-121342293D01*
X165649948Y-121350063D01*
X165674378Y-121369072D01*
X165686779Y-121379460D01*
X165712476Y-121403321D01*
X165720915Y-121419077D01*
X165715058Y-121433571D01*
X165711928Y-121437534D01*
X165690725Y-121454879D01*
X165655738Y-121475959D01*
X165631337Y-121488265D01*
X165562072Y-121509946D01*
X165485388Y-121516971D01*
X165412765Y-121508647D01*
X165392426Y-121502686D01*
X165329476Y-121468952D01*
X165282815Y-121417045D01*
X165252173Y-121346459D01*
X165237282Y-121256692D01*
X165235647Y-121209753D01*
X165240421Y-121141413D01*
X165360990Y-121141413D01*
X165372652Y-121146465D01*
X165403998Y-121150429D01*
X165449571Y-121152768D01*
X165480446Y-121153169D01*
X165535981Y-121152783D01*
X165571033Y-121150975D01*
X165590262Y-121146773D01*
X165598330Y-121139203D01*
X165599901Y-121128218D01*
X165589121Y-121094381D01*
X165561980Y-121060940D01*
X165526277Y-121035272D01*
X165490560Y-121024772D01*
X165442048Y-121034086D01*
X165400053Y-121061013D01*
X165370936Y-121099827D01*
X165360990Y-121141413D01*
X165240421Y-121141413D01*
X165242599Y-121110236D01*
X165264055Y-121030949D01*
X165300470Y-120971263D01*
X165352297Y-120930549D01*
X165419990Y-120908179D01*
X165456662Y-120903871D01*
X165532581Y-120904970D01*
X165532581Y-120904970D01*
G37*
X165532581Y-120904970D02*
X165592685Y-120920597D01*
X165643021Y-120952848D01*
X165667393Y-120976940D01*
X165707345Y-121033895D01*
X165730242Y-121099965D01*
X165738108Y-121181182D01*
X165738148Y-121187748D01*
X165738218Y-121253763D01*
X165358264Y-121253763D01*
X165366363Y-121288342D01*
X165380987Y-121319659D01*
X165406581Y-121352291D01*
X165411935Y-121357500D01*
X165457943Y-121385694D01*
X165510410Y-121390475D01*
X165570803Y-121371926D01*
X165581040Y-121366931D01*
X165612439Y-121351745D01*
X165633470Y-121343094D01*
X165637139Y-121342293D01*
X165649948Y-121350063D01*
X165674378Y-121369072D01*
X165686779Y-121379460D01*
X165712476Y-121403321D01*
X165720915Y-121419077D01*
X165715058Y-121433571D01*
X165711928Y-121437534D01*
X165690725Y-121454879D01*
X165655738Y-121475959D01*
X165631337Y-121488265D01*
X165562072Y-121509946D01*
X165485388Y-121516971D01*
X165412765Y-121508647D01*
X165392426Y-121502686D01*
X165329476Y-121468952D01*
X165282815Y-121417045D01*
X165252173Y-121346459D01*
X165237282Y-121256692D01*
X165235647Y-121209753D01*
X165240421Y-121141413D01*
X165360990Y-121141413D01*
X165372652Y-121146465D01*
X165403998Y-121150429D01*
X165449571Y-121152768D01*
X165480446Y-121153169D01*
X165535981Y-121152783D01*
X165571033Y-121150975D01*
X165590262Y-121146773D01*
X165598330Y-121139203D01*
X165599901Y-121128218D01*
X165589121Y-121094381D01*
X165561980Y-121060940D01*
X165526277Y-121035272D01*
X165490560Y-121024772D01*
X165442048Y-121034086D01*
X165400053Y-121061013D01*
X165370936Y-121099827D01*
X165360990Y-121141413D01*
X165240421Y-121141413D01*
X165242599Y-121110236D01*
X165264055Y-121030949D01*
X165300470Y-120971263D01*
X165352297Y-120930549D01*
X165419990Y-120908179D01*
X165456662Y-120903871D01*
X165532581Y-120904970D01*
G36*
X165135255Y-120901486D02*
X165183595Y-120911015D01*
X165211114Y-120925125D01*
X165240064Y-120948568D01*
X165198876Y-121000571D01*
X165173482Y-121032064D01*
X165156238Y-121047428D01*
X165139102Y-121049776D01*
X165114027Y-121042217D01*
X165102257Y-121037941D01*
X165054270Y-121031631D01*
X165010324Y-121045156D01*
X164978060Y-121075710D01*
X164972819Y-121085452D01*
X164967112Y-121111258D01*
X164962706Y-121158817D01*
X164959811Y-121224758D01*
X164958631Y-121305710D01*
X164958614Y-121317226D01*
X164958614Y-121517822D01*
X164820297Y-121517822D01*
X164820297Y-120901683D01*
X164889456Y-120901683D01*
X164929333Y-120902725D01*
X164950107Y-120907358D01*
X164957789Y-120917849D01*
X164958614Y-120927745D01*
X164958614Y-120953806D01*
X164991745Y-120927745D01*
X165029735Y-120909965D01*
X165080770Y-120901174D01*
X165135255Y-120901486D01*
X165135255Y-120901486D01*
G37*
X165135255Y-120901486D02*
X165183595Y-120911015D01*
X165211114Y-120925125D01*
X165240064Y-120948568D01*
X165198876Y-121000571D01*
X165173482Y-121032064D01*
X165156238Y-121047428D01*
X165139102Y-121049776D01*
X165114027Y-121042217D01*
X165102257Y-121037941D01*
X165054270Y-121031631D01*
X165010324Y-121045156D01*
X164978060Y-121075710D01*
X164972819Y-121085452D01*
X164967112Y-121111258D01*
X164962706Y-121158817D01*
X164959811Y-121224758D01*
X164958631Y-121305710D01*
X164958614Y-121317226D01*
X164958614Y-121517822D01*
X164820297Y-121517822D01*
X164820297Y-120901683D01*
X164889456Y-120901683D01*
X164929333Y-120902725D01*
X164950107Y-120907358D01*
X164957789Y-120917849D01*
X164958614Y-120927745D01*
X164958614Y-120953806D01*
X164991745Y-120927745D01*
X165029735Y-120909965D01*
X165080770Y-120901174D01*
X165135255Y-120901486D01*
G36*
X164538411Y-120905417D02*
X164591411Y-120918290D01*
X164606731Y-120925110D01*
X164636428Y-120942974D01*
X164659220Y-120963093D01*
X164676083Y-120988962D01*
X164687998Y-121024073D01*
X164695942Y-121071920D01*
X164700894Y-121135996D01*
X164703831Y-121219794D01*
X164704947Y-121275768D01*
X164709052Y-121517822D01*
X164638932Y-121517822D01*
X164596393Y-121516038D01*
X164574476Y-121509942D01*
X164568812Y-121499706D01*
X164565821Y-121488637D01*
X164552451Y-121490754D01*
X164534233Y-121499629D01*
X164488624Y-121513233D01*
X164430007Y-121516899D01*
X164368354Y-121510903D01*
X164313638Y-121495521D01*
X164308730Y-121493386D01*
X164258723Y-121458255D01*
X164225756Y-121409419D01*
X164210587Y-121352333D01*
X164211746Y-121331824D01*
X164335508Y-121331824D01*
X164346413Y-121359425D01*
X164378745Y-121379204D01*
X164430910Y-121389819D01*
X164458787Y-121391228D01*
X164505247Y-121387620D01*
X164536129Y-121373597D01*
X164543664Y-121366931D01*
X164564076Y-121330666D01*
X164568812Y-121297773D01*
X164568812Y-121253763D01*
X164507513Y-121253763D01*
X164436256Y-121257395D01*
X164386276Y-121268818D01*
X164354696Y-121288824D01*
X164347626Y-121297743D01*
X164335508Y-121331824D01*
X164211746Y-121331824D01*
X164213971Y-121292456D01*
X164236663Y-121235244D01*
X164267624Y-121196580D01*
X164286376Y-121179864D01*
X164304733Y-121168878D01*
X164328619Y-121162180D01*
X164363957Y-121158326D01*
X164416669Y-121155873D01*
X164437577Y-121155168D01*
X164568812Y-121150879D01*
X164568620Y-121111158D01*
X164563537Y-121069405D01*
X164545162Y-121044158D01*
X164508039Y-121028030D01*
X164507043Y-121027742D01*
X164454410Y-121021400D01*
X164402906Y-121029684D01*
X164364630Y-121049827D01*
X164349272Y-121059773D01*
X164332730Y-121058397D01*
X164307275Y-121043987D01*
X164292328Y-121033817D01*
X164263091Y-121012088D01*
X164244980Y-120995800D01*
X164242074Y-120991137D01*
X164254040Y-120967005D01*
X164289396Y-120938185D01*
X164304753Y-120928461D01*
X164348901Y-120911714D01*
X164408398Y-120902227D01*
X164474487Y-120900095D01*
X164538411Y-120905417D01*
X164538411Y-120905417D01*
G37*
X164538411Y-120905417D02*
X164591411Y-120918290D01*
X164606731Y-120925110D01*
X164636428Y-120942974D01*
X164659220Y-120963093D01*
X164676083Y-120988962D01*
X164687998Y-121024073D01*
X164695942Y-121071920D01*
X164700894Y-121135996D01*
X164703831Y-121219794D01*
X164704947Y-121275768D01*
X164709052Y-121517822D01*
X164638932Y-121517822D01*
X164596393Y-121516038D01*
X164574476Y-121509942D01*
X164568812Y-121499706D01*
X164565821Y-121488637D01*
X164552451Y-121490754D01*
X164534233Y-121499629D01*
X164488624Y-121513233D01*
X164430007Y-121516899D01*
X164368354Y-121510903D01*
X164313638Y-121495521D01*
X164308730Y-121493386D01*
X164258723Y-121458255D01*
X164225756Y-121409419D01*
X164210587Y-121352333D01*
X164211746Y-121331824D01*
X164335508Y-121331824D01*
X164346413Y-121359425D01*
X164378745Y-121379204D01*
X164430910Y-121389819D01*
X164458787Y-121391228D01*
X164505247Y-121387620D01*
X164536129Y-121373597D01*
X164543664Y-121366931D01*
X164564076Y-121330666D01*
X164568812Y-121297773D01*
X164568812Y-121253763D01*
X164507513Y-121253763D01*
X164436256Y-121257395D01*
X164386276Y-121268818D01*
X164354696Y-121288824D01*
X164347626Y-121297743D01*
X164335508Y-121331824D01*
X164211746Y-121331824D01*
X164213971Y-121292456D01*
X164236663Y-121235244D01*
X164267624Y-121196580D01*
X164286376Y-121179864D01*
X164304733Y-121168878D01*
X164328619Y-121162180D01*
X164363957Y-121158326D01*
X164416669Y-121155873D01*
X164437577Y-121155168D01*
X164568812Y-121150879D01*
X164568620Y-121111158D01*
X164563537Y-121069405D01*
X164545162Y-121044158D01*
X164508039Y-121028030D01*
X164507043Y-121027742D01*
X164454410Y-121021400D01*
X164402906Y-121029684D01*
X164364630Y-121049827D01*
X164349272Y-121059773D01*
X164332730Y-121058397D01*
X164307275Y-121043987D01*
X164292328Y-121033817D01*
X164263091Y-121012088D01*
X164244980Y-120995800D01*
X164242074Y-120991137D01*
X164254040Y-120967005D01*
X164289396Y-120938185D01*
X164304753Y-120928461D01*
X164348901Y-120911714D01*
X164408398Y-120902227D01*
X164474487Y-120900095D01*
X164538411Y-120905417D01*
G36*
X163781524Y-120904237D02*
X163831255Y-120907971D01*
X163961291Y-121297773D01*
X163981678Y-121228614D01*
X163993946Y-121185874D01*
X164010085Y-121128115D01*
X164027512Y-121064625D01*
X164036726Y-121030570D01*
X164071388Y-120901683D01*
X164214391Y-120901683D01*
X164171646Y-121036857D01*
X164150596Y-121103342D01*
X164125167Y-121183539D01*
X164098610Y-121267193D01*
X164074902Y-121341782D01*
X164020902Y-121511535D01*
X163962598Y-121515328D01*
X163904295Y-121519122D01*
X163872679Y-121414734D01*
X163853182Y-121349889D01*
X163831904Y-121278400D01*
X163813308Y-121215263D01*
X163812574Y-121212750D01*
X163798684Y-121169969D01*
X163786429Y-121140779D01*
X163777846Y-121129741D01*
X163776082Y-121131018D01*
X163769891Y-121148130D01*
X163758128Y-121184787D01*
X163742225Y-121236378D01*
X163723614Y-121298294D01*
X163713543Y-121332352D01*
X163659007Y-121517822D01*
X163543264Y-121517822D01*
X163450737Y-121225471D01*
X163424744Y-121143462D01*
X163401066Y-121068987D01*
X163380820Y-121005544D01*
X163365126Y-120956632D01*
X163355102Y-120925749D01*
X163352055Y-120916726D01*
X163354467Y-120907487D01*
X163373408Y-120903441D01*
X163412823Y-120903846D01*
X163418993Y-120904152D01*
X163492086Y-120907971D01*
X163539957Y-121084010D01*
X163557553Y-121148211D01*
X163573277Y-121204649D01*
X163585746Y-121248422D01*
X163593574Y-121274630D01*
X163595020Y-121278903D01*
X163601014Y-121273990D01*
X163613101Y-121248532D01*
X163629893Y-121205997D01*
X163650003Y-121149850D01*
X163667003Y-121099130D01*
X163731794Y-120900504D01*
X163781524Y-120904237D01*
X163781524Y-120904237D01*
G37*
X163781524Y-120904237D02*
X163831255Y-120907971D01*
X163961291Y-121297773D01*
X163981678Y-121228614D01*
X163993946Y-121185874D01*
X164010085Y-121128115D01*
X164027512Y-121064625D01*
X164036726Y-121030570D01*
X164071388Y-120901683D01*
X164214391Y-120901683D01*
X164171646Y-121036857D01*
X164150596Y-121103342D01*
X164125167Y-121183539D01*
X164098610Y-121267193D01*
X164074902Y-121341782D01*
X164020902Y-121511535D01*
X163962598Y-121515328D01*
X163904295Y-121519122D01*
X163872679Y-121414734D01*
X163853182Y-121349889D01*
X163831904Y-121278400D01*
X163813308Y-121215263D01*
X163812574Y-121212750D01*
X163798684Y-121169969D01*
X163786429Y-121140779D01*
X163777846Y-121129741D01*
X163776082Y-121131018D01*
X163769891Y-121148130D01*
X163758128Y-121184787D01*
X163742225Y-121236378D01*
X163723614Y-121298294D01*
X163713543Y-121332352D01*
X163659007Y-121517822D01*
X163543264Y-121517822D01*
X163450737Y-121225471D01*
X163424744Y-121143462D01*
X163401066Y-121068987D01*
X163380820Y-121005544D01*
X163365126Y-120956632D01*
X163355102Y-120925749D01*
X163352055Y-120916726D01*
X163354467Y-120907487D01*
X163373408Y-120903441D01*
X163412823Y-120903846D01*
X163418993Y-120904152D01*
X163492086Y-120907971D01*
X163539957Y-121084010D01*
X163557553Y-121148211D01*
X163573277Y-121204649D01*
X163585746Y-121248422D01*
X163593574Y-121274630D01*
X163595020Y-121278903D01*
X163601014Y-121273990D01*
X163613101Y-121248532D01*
X163629893Y-121205997D01*
X163650003Y-121149850D01*
X163667003Y-121099130D01*
X163731794Y-120900504D01*
X163781524Y-120904237D01*
G36*
X163298812Y-121517822D02*
X163229654Y-121517822D01*
X163189512Y-121516645D01*
X163168606Y-121511772D01*
X163161078Y-121501186D01*
X163160495Y-121494029D01*
X163159226Y-121479676D01*
X163151221Y-121476923D01*
X163130185Y-121485771D01*
X163113827Y-121494029D01*
X163051023Y-121513597D01*
X162982752Y-121514729D01*
X162927248Y-121500135D01*
X162875562Y-121464877D01*
X162836162Y-121412835D01*
X162814587Y-121351450D01*
X162814038Y-121348018D01*
X162810833Y-121310571D01*
X162809239Y-121256813D01*
X162809367Y-121216155D01*
X162946721Y-121216155D01*
X162949903Y-121270194D01*
X162957141Y-121314735D01*
X162966940Y-121339888D01*
X163004011Y-121374260D01*
X163048026Y-121386582D01*
X163093416Y-121376618D01*
X163132203Y-121346895D01*
X163146892Y-121326905D01*
X163155481Y-121303050D01*
X163159504Y-121268230D01*
X163160495Y-121215930D01*
X163158722Y-121164139D01*
X163154037Y-121118634D01*
X163147397Y-121088181D01*
X163146290Y-121085452D01*
X163119509Y-121053000D01*
X163080421Y-121035183D01*
X163036685Y-121032306D01*
X162995962Y-121044674D01*
X162965913Y-121072593D01*
X162962796Y-121078148D01*
X162953039Y-121112022D01*
X162947723Y-121160728D01*
X162946721Y-121216155D01*
X162809367Y-121216155D01*
X162809432Y-121195540D01*
X162810336Y-121162563D01*
X162816486Y-121080981D01*
X162829267Y-121019730D01*
X162850529Y-120974449D01*
X162882122Y-120940779D01*
X162912793Y-120921014D01*
X162955646Y-120907120D01*
X163008944Y-120902354D01*
X163063520Y-120906236D01*
X163110208Y-120918282D01*
X163134876Y-120932693D01*
X163160495Y-120955878D01*
X163160495Y-120662773D01*
X163298812Y-120662773D01*
X163298812Y-121517822D01*
X163298812Y-121517822D01*
G37*
X163298812Y-121517822D02*
X163229654Y-121517822D01*
X163189512Y-121516645D01*
X163168606Y-121511772D01*
X163161078Y-121501186D01*
X163160495Y-121494029D01*
X163159226Y-121479676D01*
X163151221Y-121476923D01*
X163130185Y-121485771D01*
X163113827Y-121494029D01*
X163051023Y-121513597D01*
X162982752Y-121514729D01*
X162927248Y-121500135D01*
X162875562Y-121464877D01*
X162836162Y-121412835D01*
X162814587Y-121351450D01*
X162814038Y-121348018D01*
X162810833Y-121310571D01*
X162809239Y-121256813D01*
X162809367Y-121216155D01*
X162946721Y-121216155D01*
X162949903Y-121270194D01*
X162957141Y-121314735D01*
X162966940Y-121339888D01*
X163004011Y-121374260D01*
X163048026Y-121386582D01*
X163093416Y-121376618D01*
X163132203Y-121346895D01*
X163146892Y-121326905D01*
X163155481Y-121303050D01*
X163159504Y-121268230D01*
X163160495Y-121215930D01*
X163158722Y-121164139D01*
X163154037Y-121118634D01*
X163147397Y-121088181D01*
X163146290Y-121085452D01*
X163119509Y-121053000D01*
X163080421Y-121035183D01*
X163036685Y-121032306D01*
X162995962Y-121044674D01*
X162965913Y-121072593D01*
X162962796Y-121078148D01*
X162953039Y-121112022D01*
X162947723Y-121160728D01*
X162946721Y-121216155D01*
X162809367Y-121216155D01*
X162809432Y-121195540D01*
X162810336Y-121162563D01*
X162816486Y-121080981D01*
X162829267Y-121019730D01*
X162850529Y-120974449D01*
X162882122Y-120940779D01*
X162912793Y-120921014D01*
X162955646Y-120907120D01*
X163008944Y-120902354D01*
X163063520Y-120906236D01*
X163110208Y-120918282D01*
X163134876Y-120932693D01*
X163160495Y-120955878D01*
X163160495Y-120662773D01*
X163298812Y-120662773D01*
X163298812Y-121517822D01*
G36*
X162506644Y-120903020D02*
X162525461Y-120908660D01*
X162531527Y-120921053D01*
X162531782Y-120926647D01*
X162532871Y-120942230D01*
X162540368Y-120944676D01*
X162560619Y-120933993D01*
X162572649Y-120926694D01*
X162610600Y-120911063D01*
X162655928Y-120903334D01*
X162703456Y-120902740D01*
X162748005Y-120908513D01*
X162784398Y-120919884D01*
X162807457Y-120936088D01*
X162812004Y-120956355D01*
X162809709Y-120961843D01*
X162792980Y-120984626D01*
X162767037Y-121012647D01*
X162762345Y-121017177D01*
X162737617Y-121038005D01*
X162716282Y-121044735D01*
X162686445Y-121040038D01*
X162674492Y-121036917D01*
X162637295Y-121029421D01*
X162611141Y-121032792D01*
X162589054Y-121044681D01*
X162568822Y-121060635D01*
X162553921Y-121080700D01*
X162543566Y-121108702D01*
X162536971Y-121148467D01*
X162533351Y-121203823D01*
X162531922Y-121278594D01*
X162531782Y-121323740D01*
X162531782Y-121517822D01*
X162406040Y-121517822D01*
X162406040Y-120901683D01*
X162468911Y-120901683D01*
X162506644Y-120903020D01*
X162506644Y-120903020D01*
G37*
X162506644Y-120903020D02*
X162525461Y-120908660D01*
X162531527Y-120921053D01*
X162531782Y-120926647D01*
X162532871Y-120942230D01*
X162540368Y-120944676D01*
X162560619Y-120933993D01*
X162572649Y-120926694D01*
X162610600Y-120911063D01*
X162655928Y-120903334D01*
X162703456Y-120902740D01*
X162748005Y-120908513D01*
X162784398Y-120919884D01*
X162807457Y-120936088D01*
X162812004Y-120956355D01*
X162809709Y-120961843D01*
X162792980Y-120984626D01*
X162767037Y-121012647D01*
X162762345Y-121017177D01*
X162737617Y-121038005D01*
X162716282Y-121044735D01*
X162686445Y-121040038D01*
X162674492Y-121036917D01*
X162637295Y-121029421D01*
X162611141Y-121032792D01*
X162589054Y-121044681D01*
X162568822Y-121060635D01*
X162553921Y-121080700D01*
X162543566Y-121108702D01*
X162536971Y-121148467D01*
X162533351Y-121203823D01*
X162531922Y-121278594D01*
X162531782Y-121323740D01*
X162531782Y-121517822D01*
X162406040Y-121517822D01*
X162406040Y-120901683D01*
X162468911Y-120901683D01*
X162506644Y-120903020D01*
G36*
X162115790Y-120906555D02*
X162174945Y-120922339D01*
X162219977Y-120950948D01*
X162251754Y-120988419D01*
X162261634Y-121004411D01*
X162268927Y-121021163D01*
X162274026Y-121042592D01*
X162277321Y-121072616D01*
X162279203Y-121115154D01*
X162280063Y-121174122D01*
X162280293Y-121253440D01*
X162280297Y-121274484D01*
X162280297Y-121517822D01*
X162219941Y-121517822D01*
X162181443Y-121515126D01*
X162152977Y-121508295D01*
X162145845Y-121504083D01*
X162126348Y-121496813D01*
X162106434Y-121504083D01*
X162073647Y-121513160D01*
X162026022Y-121516813D01*
X161973236Y-121515228D01*
X161924964Y-121508589D01*
X161896782Y-121500072D01*
X161842247Y-121465063D01*
X161808165Y-121416479D01*
X161792843Y-121351882D01*
X161792701Y-121350223D01*
X161794045Y-121321566D01*
X161915644Y-121321566D01*
X161926274Y-121354161D01*
X161943590Y-121372505D01*
X161978348Y-121386379D01*
X162024227Y-121391917D01*
X162071012Y-121389191D01*
X162108486Y-121378274D01*
X162118985Y-121371269D01*
X162137332Y-121338904D01*
X162141980Y-121302111D01*
X162141980Y-121253763D01*
X162072418Y-121253763D01*
X162006333Y-121258850D01*
X161956236Y-121273263D01*
X161925071Y-121295729D01*
X161915644Y-121321566D01*
X161794045Y-121321566D01*
X161796013Y-121279647D01*
X161819290Y-121223845D01*
X161863052Y-121181647D01*
X161869101Y-121177808D01*
X161895093Y-121165309D01*
X161927265Y-121157740D01*
X161972240Y-121154061D01*
X162025669Y-121153216D01*
X162141980Y-121153169D01*
X162141980Y-121104411D01*
X162137047Y-121066581D01*
X162124457Y-121041236D01*
X162122983Y-121039887D01*
X162094966Y-121028800D01*
X162052674Y-121024503D01*
X162005936Y-121026615D01*
X161964582Y-121034756D01*
X161940043Y-121046965D01*
X161926747Y-121056746D01*
X161912706Y-121058613D01*
X161893329Y-121050600D01*
X161864024Y-121030739D01*
X161820197Y-120997063D01*
X161816175Y-120993909D01*
X161818236Y-120982236D01*
X161835432Y-120962822D01*
X161861567Y-120941248D01*
X161890448Y-120923096D01*
X161899522Y-120918809D01*
X161932620Y-120910256D01*
X161981120Y-120904155D01*
X162035305Y-120901708D01*
X162037839Y-120901703D01*
X162115790Y-120906555D01*
X162115790Y-120906555D01*
G37*
X162115790Y-120906555D02*
X162174945Y-120922339D01*
X162219977Y-120950948D01*
X162251754Y-120988419D01*
X162261634Y-121004411D01*
X162268927Y-121021163D01*
X162274026Y-121042592D01*
X162277321Y-121072616D01*
X162279203Y-121115154D01*
X162280063Y-121174122D01*
X162280293Y-121253440D01*
X162280297Y-121274484D01*
X162280297Y-121517822D01*
X162219941Y-121517822D01*
X162181443Y-121515126D01*
X162152977Y-121508295D01*
X162145845Y-121504083D01*
X162126348Y-121496813D01*
X162106434Y-121504083D01*
X162073647Y-121513160D01*
X162026022Y-121516813D01*
X161973236Y-121515228D01*
X161924964Y-121508589D01*
X161896782Y-121500072D01*
X161842247Y-121465063D01*
X161808165Y-121416479D01*
X161792843Y-121351882D01*
X161792701Y-121350223D01*
X161794045Y-121321566D01*
X161915644Y-121321566D01*
X161926274Y-121354161D01*
X161943590Y-121372505D01*
X161978348Y-121386379D01*
X162024227Y-121391917D01*
X162071012Y-121389191D01*
X162108486Y-121378274D01*
X162118985Y-121371269D01*
X162137332Y-121338904D01*
X162141980Y-121302111D01*
X162141980Y-121253763D01*
X162072418Y-121253763D01*
X162006333Y-121258850D01*
X161956236Y-121273263D01*
X161925071Y-121295729D01*
X161915644Y-121321566D01*
X161794045Y-121321566D01*
X161796013Y-121279647D01*
X161819290Y-121223845D01*
X161863052Y-121181647D01*
X161869101Y-121177808D01*
X161895093Y-121165309D01*
X161927265Y-121157740D01*
X161972240Y-121154061D01*
X162025669Y-121153216D01*
X162141980Y-121153169D01*
X162141980Y-121104411D01*
X162137047Y-121066581D01*
X162124457Y-121041236D01*
X162122983Y-121039887D01*
X162094966Y-121028800D01*
X162052674Y-121024503D01*
X162005936Y-121026615D01*
X161964582Y-121034756D01*
X161940043Y-121046965D01*
X161926747Y-121056746D01*
X161912706Y-121058613D01*
X161893329Y-121050600D01*
X161864024Y-121030739D01*
X161820197Y-120997063D01*
X161816175Y-120993909D01*
X161818236Y-120982236D01*
X161835432Y-120962822D01*
X161861567Y-120941248D01*
X161890448Y-120923096D01*
X161899522Y-120918809D01*
X161932620Y-120910256D01*
X161981120Y-120904155D01*
X162035305Y-120901708D01*
X162037839Y-120901703D01*
X162115790Y-120906555D01*
G36*
X161591241Y-119969184D02*
X161617753Y-119982282D01*
X161650447Y-120005106D01*
X161674275Y-120029996D01*
X161690594Y-120061249D01*
X161700760Y-120103166D01*
X161706128Y-120160044D01*
X161708056Y-120236184D01*
X161708169Y-120268917D01*
X161707839Y-120340656D01*
X161706473Y-120391927D01*
X161703500Y-120427404D01*
X161698351Y-120451763D01*
X161690457Y-120469680D01*
X161682243Y-120481902D01*
X161629813Y-120533905D01*
X161568070Y-120565184D01*
X161501464Y-120574592D01*
X161434442Y-120560980D01*
X161413208Y-120551354D01*
X161362376Y-120524859D01*
X161362376Y-120940052D01*
X161399475Y-120920868D01*
X161448357Y-120906025D01*
X161508439Y-120902222D01*
X161568436Y-120909243D01*
X161613744Y-120925013D01*
X161651325Y-120955047D01*
X161683436Y-120998024D01*
X161685850Y-121002436D01*
X161696033Y-121023221D01*
X161703470Y-121044170D01*
X161708589Y-121069548D01*
X161711819Y-121103618D01*
X161713587Y-121150641D01*
X161714323Y-121214882D01*
X161714456Y-121287176D01*
X161714456Y-121517822D01*
X161576139Y-121517822D01*
X161576139Y-121092533D01*
X161537451Y-121059979D01*
X161497262Y-121033940D01*
X161459203Y-121029205D01*
X161420934Y-121041389D01*
X161400538Y-121053320D01*
X161385358Y-121070313D01*
X161374562Y-121095995D01*
X161367317Y-121133991D01*
X161362792Y-121187926D01*
X161360156Y-121261425D01*
X161359228Y-121310347D01*
X161356089Y-121511535D01*
X161290074Y-121515336D01*
X161224060Y-121519136D01*
X161224060Y-120270650D01*
X161362376Y-120270650D01*
X161365903Y-120340254D01*
X161377785Y-120388569D01*
X161399980Y-120418631D01*
X161434441Y-120433471D01*
X161469258Y-120436436D01*
X161508671Y-120433028D01*
X161534829Y-120419617D01*
X161551186Y-120401896D01*
X161564063Y-120382835D01*
X161571728Y-120361601D01*
X161575139Y-120331849D01*
X161575251Y-120287236D01*
X161574103Y-120249880D01*
X161571468Y-120193604D01*
X161567544Y-120156658D01*
X161560937Y-120133223D01*
X161550251Y-120117480D01*
X161540167Y-120108380D01*
X161498030Y-120088537D01*
X161448160Y-120085332D01*
X161419524Y-120092168D01*
X161391172Y-120116464D01*
X161372391Y-120163728D01*
X161363288Y-120233624D01*
X161362376Y-120270650D01*
X161224060Y-120270650D01*
X161224060Y-119958614D01*
X161293218Y-119958614D01*
X161334740Y-119960256D01*
X161356162Y-119966087D01*
X161362374Y-119977461D01*
X161362376Y-119977798D01*
X161365258Y-119988938D01*
X161377970Y-119987673D01*
X161403243Y-119975433D01*
X161462131Y-119956707D01*
X161528385Y-119954739D01*
X161591241Y-119969184D01*
X161591241Y-119969184D01*
G37*
X161591241Y-119969184D02*
X161617753Y-119982282D01*
X161650447Y-120005106D01*
X161674275Y-120029996D01*
X161690594Y-120061249D01*
X161700760Y-120103166D01*
X161706128Y-120160044D01*
X161708056Y-120236184D01*
X161708169Y-120268917D01*
X161707839Y-120340656D01*
X161706473Y-120391927D01*
X161703500Y-120427404D01*
X161698351Y-120451763D01*
X161690457Y-120469680D01*
X161682243Y-120481902D01*
X161629813Y-120533905D01*
X161568070Y-120565184D01*
X161501464Y-120574592D01*
X161434442Y-120560980D01*
X161413208Y-120551354D01*
X161362376Y-120524859D01*
X161362376Y-120940052D01*
X161399475Y-120920868D01*
X161448357Y-120906025D01*
X161508439Y-120902222D01*
X161568436Y-120909243D01*
X161613744Y-120925013D01*
X161651325Y-120955047D01*
X161683436Y-120998024D01*
X161685850Y-121002436D01*
X161696033Y-121023221D01*
X161703470Y-121044170D01*
X161708589Y-121069548D01*
X161711819Y-121103618D01*
X161713587Y-121150641D01*
X161714323Y-121214882D01*
X161714456Y-121287176D01*
X161714456Y-121517822D01*
X161576139Y-121517822D01*
X161576139Y-121092533D01*
X161537451Y-121059979D01*
X161497262Y-121033940D01*
X161459203Y-121029205D01*
X161420934Y-121041389D01*
X161400538Y-121053320D01*
X161385358Y-121070313D01*
X161374562Y-121095995D01*
X161367317Y-121133991D01*
X161362792Y-121187926D01*
X161360156Y-121261425D01*
X161359228Y-121310347D01*
X161356089Y-121511535D01*
X161290074Y-121515336D01*
X161224060Y-121519136D01*
X161224060Y-120270650D01*
X161362376Y-120270650D01*
X161365903Y-120340254D01*
X161377785Y-120388569D01*
X161399980Y-120418631D01*
X161434441Y-120433471D01*
X161469258Y-120436436D01*
X161508671Y-120433028D01*
X161534829Y-120419617D01*
X161551186Y-120401896D01*
X161564063Y-120382835D01*
X161571728Y-120361601D01*
X161575139Y-120331849D01*
X161575251Y-120287236D01*
X161574103Y-120249880D01*
X161571468Y-120193604D01*
X161567544Y-120156658D01*
X161560937Y-120133223D01*
X161550251Y-120117480D01*
X161540167Y-120108380D01*
X161498030Y-120088537D01*
X161448160Y-120085332D01*
X161419524Y-120092168D01*
X161391172Y-120116464D01*
X161372391Y-120163728D01*
X161363288Y-120233624D01*
X161362376Y-120270650D01*
X161224060Y-120270650D01*
X161224060Y-119958614D01*
X161293218Y-119958614D01*
X161334740Y-119960256D01*
X161356162Y-119966087D01*
X161362374Y-119977461D01*
X161362376Y-119977798D01*
X161365258Y-119988938D01*
X161377970Y-119987673D01*
X161403243Y-119975433D01*
X161462131Y-119956707D01*
X161528385Y-119954739D01*
X161591241Y-119969184D01*
D13*
X159258095Y-112482380D02*
X159258095Y-113291904D01*
X159305714Y-113387142D01*
X159353333Y-113434761D01*
X159448571Y-113482380D01*
X159639047Y-113482380D01*
X159734285Y-113434761D01*
X159781904Y-113387142D01*
X159829523Y-113291904D01*
X159829523Y-112482380D01*
X160829523Y-113482380D02*
X160258095Y-113482380D01*
X160543809Y-113482380D02*
X160543809Y-112482380D01*
X160448571Y-112625238D01*
X160353333Y-112720476D01*
X160258095Y-112768095D01*
X176998333Y-101957142D02*
X176950714Y-102004761D01*
X176807857Y-102052380D01*
X176712619Y-102052380D01*
X176569761Y-102004761D01*
X176474523Y-101909523D01*
X176426904Y-101814285D01*
X176379285Y-101623809D01*
X176379285Y-101480952D01*
X176426904Y-101290476D01*
X176474523Y-101195238D01*
X176569761Y-101100000D01*
X176712619Y-101052380D01*
X176807857Y-101052380D01*
X176950714Y-101100000D01*
X176998333Y-101147619D01*
X177950714Y-102052380D02*
X177379285Y-102052380D01*
X177665000Y-102052380D02*
X177665000Y-101052380D01*
X177569761Y-101195238D01*
X177474523Y-101290476D01*
X177379285Y-101338095D01*
X176997833Y-105767142D02*
X176950214Y-105814761D01*
X176807357Y-105862380D01*
X176712119Y-105862380D01*
X176569261Y-105814761D01*
X176474023Y-105719523D01*
X176426404Y-105624285D01*
X176378785Y-105433809D01*
X176378785Y-105290952D01*
X176426404Y-105100476D01*
X176474023Y-105005238D01*
X176569261Y-104910000D01*
X176712119Y-104862380D01*
X176807357Y-104862380D01*
X176950214Y-104910000D01*
X176997833Y-104957619D01*
X177378785Y-104957619D02*
X177426404Y-104910000D01*
X177521642Y-104862380D01*
X177759738Y-104862380D01*
X177854976Y-104910000D01*
X177902595Y-104957619D01*
X177950214Y-105052857D01*
X177950214Y-105148095D01*
X177902595Y-105290952D01*
X177331166Y-105862380D01*
X177950214Y-105862380D01*
X160488333Y-106402142D02*
X160440714Y-106449761D01*
X160297857Y-106497380D01*
X160202619Y-106497380D01*
X160059761Y-106449761D01*
X159964523Y-106354523D01*
X159916904Y-106259285D01*
X159869285Y-106068809D01*
X159869285Y-105925952D01*
X159916904Y-105735476D01*
X159964523Y-105640238D01*
X160059761Y-105545000D01*
X160202619Y-105497380D01*
X160297857Y-105497380D01*
X160440714Y-105545000D01*
X160488333Y-105592619D01*
X161345476Y-105830714D02*
X161345476Y-106497380D01*
X161107380Y-105449761D02*
X160869285Y-106164047D01*
X161488333Y-106164047D01*
X178331904Y-107767380D02*
X178331904Y-106767380D01*
X178570000Y-106767380D01*
X178712857Y-106815000D01*
X178808095Y-106910238D01*
X178855714Y-107005476D01*
X178903333Y-107195952D01*
X178903333Y-107338809D01*
X178855714Y-107529285D01*
X178808095Y-107624523D01*
X178712857Y-107719761D01*
X178570000Y-107767380D01*
X178331904Y-107767380D01*
X179855714Y-107767380D02*
X179284285Y-107767380D01*
X179570000Y-107767380D02*
X179570000Y-106767380D01*
X179474761Y-106910238D01*
X179379523Y-107005476D01*
X179284285Y-107053095D01*
X168806904Y-107132380D02*
X168806904Y-106132380D01*
X169187857Y-106132380D01*
X169283095Y-106180000D01*
X169330714Y-106227619D01*
X169378333Y-106322857D01*
X169378333Y-106465714D01*
X169330714Y-106560952D01*
X169283095Y-106608571D01*
X169187857Y-106656190D01*
X168806904Y-106656190D01*
X170330714Y-107132380D02*
X169759285Y-107132380D01*
X170045000Y-107132380D02*
X170045000Y-106132380D01*
X169949761Y-106275238D01*
X169854523Y-106370476D01*
X169759285Y-106418095D01*
X130706904Y-118562380D02*
X130706904Y-117562380D01*
X131087857Y-117562380D01*
X131183095Y-117610000D01*
X131230714Y-117657619D01*
X131278333Y-117752857D01*
X131278333Y-117895714D01*
X131230714Y-117990952D01*
X131183095Y-118038571D01*
X131087857Y-118086190D01*
X130706904Y-118086190D01*
X131659285Y-117657619D02*
X131706904Y-117610000D01*
X131802142Y-117562380D01*
X132040238Y-117562380D01*
X132135476Y-117610000D01*
X132183095Y-117657619D01*
X132230714Y-117752857D01*
X132230714Y-117848095D01*
X132183095Y-117990952D01*
X131611666Y-118562380D01*
X132230714Y-118562380D01*
X185253333Y-103407380D02*
X184920000Y-102931190D01*
X184681904Y-103407380D02*
X184681904Y-102407380D01*
X185062857Y-102407380D01*
X185158095Y-102455000D01*
X185205714Y-102502619D01*
X185253333Y-102597857D01*
X185253333Y-102740714D01*
X185205714Y-102835952D01*
X185158095Y-102883571D01*
X185062857Y-102931190D01*
X184681904Y-102931190D01*
X186205714Y-103407380D02*
X185634285Y-103407380D01*
X185920000Y-103407380D02*
X185920000Y-102407380D01*
X185824761Y-102550238D01*
X185729523Y-102645476D01*
X185634285Y-102693095D01*
X203033333Y-109757380D02*
X202700000Y-109281190D01*
X202461904Y-109757380D02*
X202461904Y-108757380D01*
X202842857Y-108757380D01*
X202938095Y-108805000D01*
X202985714Y-108852619D01*
X203033333Y-108947857D01*
X203033333Y-109090714D01*
X202985714Y-109185952D01*
X202938095Y-109233571D01*
X202842857Y-109281190D01*
X202461904Y-109281190D01*
X203414285Y-108852619D02*
X203461904Y-108805000D01*
X203557142Y-108757380D01*
X203795238Y-108757380D01*
X203890476Y-108805000D01*
X203938095Y-108852619D01*
X203985714Y-108947857D01*
X203985714Y-109043095D01*
X203938095Y-109185952D01*
X203366666Y-109757380D01*
X203985714Y-109757380D01*
X221031333Y-109757380D02*
X220698000Y-109281190D01*
X220459904Y-109757380D02*
X220459904Y-108757380D01*
X220840857Y-108757380D01*
X220936095Y-108805000D01*
X220983714Y-108852619D01*
X221031333Y-108947857D01*
X221031333Y-109090714D01*
X220983714Y-109185952D01*
X220936095Y-109233571D01*
X220840857Y-109281190D01*
X220459904Y-109281190D01*
X221888476Y-108757380D02*
X221698000Y-108757380D01*
X221602761Y-108805000D01*
X221555142Y-108852619D01*
X221459904Y-108995476D01*
X221412285Y-109185952D01*
X221412285Y-109566904D01*
X221459904Y-109662142D01*
X221507523Y-109709761D01*
X221602761Y-109757380D01*
X221793238Y-109757380D01*
X221888476Y-109709761D01*
X221936095Y-109662142D01*
X221983714Y-109566904D01*
X221983714Y-109328809D01*
X221936095Y-109233571D01*
X221888476Y-109185952D01*
X221793238Y-109138333D01*
X221602761Y-109138333D01*
X221507523Y-109185952D01*
X221459904Y-109233571D01*
X221412285Y-109328809D01*
X173822833Y-107767380D02*
X173489500Y-107291190D01*
X173251404Y-107767380D02*
X173251404Y-106767380D01*
X173632357Y-106767380D01*
X173727595Y-106815000D01*
X173775214Y-106862619D01*
X173822833Y-106957857D01*
X173822833Y-107100714D01*
X173775214Y-107195952D01*
X173727595Y-107243571D01*
X173632357Y-107291190D01*
X173251404Y-107291190D01*
X174394261Y-107195952D02*
X174299023Y-107148333D01*
X174251404Y-107100714D01*
X174203785Y-107005476D01*
X174203785Y-106957857D01*
X174251404Y-106862619D01*
X174299023Y-106815000D01*
X174394261Y-106767380D01*
X174584738Y-106767380D01*
X174679976Y-106815000D01*
X174727595Y-106862619D01*
X174775214Y-106957857D01*
X174775214Y-107005476D01*
X174727595Y-107100714D01*
X174679976Y-107148333D01*
X174584738Y-107195952D01*
X174394261Y-107195952D01*
X174299023Y-107243571D01*
X174251404Y-107291190D01*
X174203785Y-107386428D01*
X174203785Y-107576904D01*
X174251404Y-107672142D01*
X174299023Y-107719761D01*
X174394261Y-107767380D01*
X174584738Y-107767380D01*
X174679976Y-107719761D01*
X174727595Y-107672142D01*
X174775214Y-107576904D01*
X174775214Y-107386428D01*
X174727595Y-107291190D01*
X174679976Y-107243571D01*
X174584738Y-107195952D01*
X217146666Y-122642380D02*
X217718095Y-122642380D01*
X217432380Y-123642380D02*
X217432380Y-122642380D01*
X218241904Y-122642380D02*
X218432380Y-122642380D01*
X218527619Y-122690000D01*
X218622857Y-122785238D01*
X218670476Y-122975714D01*
X218670476Y-123309047D01*
X218622857Y-123499523D01*
X218527619Y-123594761D01*
X218432380Y-123642380D01*
X218241904Y-123642380D01*
X218146666Y-123594761D01*
X218051428Y-123499523D01*
X218003809Y-123309047D01*
X218003809Y-122975714D01*
X218051428Y-122785238D01*
X218146666Y-122690000D01*
X218241904Y-122642380D01*
X218860952Y-123737619D02*
X219622857Y-123737619D01*
X219813333Y-123356666D02*
X220289523Y-123356666D01*
X219718095Y-123642380D02*
X220051428Y-122642380D01*
X220384761Y-123642380D01*
X220718095Y-123642380D02*
X220718095Y-122642380D01*
X221051428Y-123356666D01*
X221384761Y-122642380D01*
X221384761Y-123642380D01*
X221860952Y-123642380D02*
X221860952Y-122642380D01*
X222860952Y-122690000D02*
X222765714Y-122642380D01*
X222622857Y-122642380D01*
X222480000Y-122690000D01*
X222384761Y-122785238D01*
X222337142Y-122880476D01*
X222289523Y-123070952D01*
X222289523Y-123213809D01*
X222337142Y-123404285D01*
X222384761Y-123499523D01*
X222480000Y-123594761D01*
X222622857Y-123642380D01*
X222718095Y-123642380D01*
X222860952Y-123594761D01*
X222908571Y-123547142D01*
X222908571Y-123213809D01*
X222718095Y-123213809D01*
X223289523Y-123356666D02*
X223765714Y-123356666D01*
X223194285Y-123642380D02*
X223527619Y-122642380D01*
X223860952Y-123642380D01*
X224718095Y-123642380D02*
X224146666Y-123642380D01*
X224432380Y-123642380D02*
X224432380Y-122642380D01*
X224337142Y-122785238D01*
X224241904Y-122880476D01*
X224146666Y-122928095D01*
M02*
