%TF.GenerationSoftware,KiCad,Pcbnew,5.1.9+dfsg1-1*%
%TF.CreationDate,2022-04-01T11:17:58+02:00*%
%TF.ProjectId,AmigaPCDriveAdapter,416d6967-6150-4434-9472-697665416461,2.0*%
%TF.SameCoordinates,Original*%
%TF.FileFunction,Soldermask,Top*%
%TF.FilePolarity,Negative*%
%FSLAX46Y46*%
G04 Gerber Fmt 4.6, Leading zero omitted, Abs format (unit mm)*
G04 Created by KiCad (PCBNEW 5.1.9+dfsg1-1) date 2022-04-01 11:17:58*
%MOMM*%
%LPD*%
G01*
G04 APERTURE LIST*
%ADD10O,1.600000X1.600000*%
%ADD11R,1.600000X1.600000*%
%ADD12O,1.700000X1.700000*%
%ADD13R,1.700000X1.700000*%
%ADD14C,1.520000*%
%ADD15R,1.520000X1.520000*%
%ADD16C,0.600000*%
G04 APERTURE END LIST*
G36*
G01*
X149672000Y-100845000D02*
X149672000Y-99595000D01*
G75*
G02*
X149922000Y-99345000I250000J0D01*
G01*
X150722000Y-99345000D01*
G75*
G02*
X150972000Y-99595000I0J-250000D01*
G01*
X150972000Y-100845000D01*
G75*
G02*
X150722000Y-101095000I-250000J0D01*
G01*
X149922000Y-101095000D01*
G75*
G02*
X149672000Y-100845000I0J250000D01*
G01*
G37*
G36*
G01*
X146572000Y-100845000D02*
X146572000Y-99595000D01*
G75*
G02*
X146822000Y-99345000I250000J0D01*
G01*
X147622000Y-99345000D01*
G75*
G02*
X147872000Y-99595000I0J-250000D01*
G01*
X147872000Y-100845000D01*
G75*
G02*
X147622000Y-101095000I-250000J0D01*
G01*
X146822000Y-101095000D01*
G75*
G02*
X146572000Y-100845000I0J250000D01*
G01*
G37*
G36*
G01*
X197098000Y-102750000D02*
X197098000Y-101500000D01*
G75*
G02*
X197348000Y-101250000I250000J0D01*
G01*
X198148000Y-101250000D01*
G75*
G02*
X198398000Y-101500000I0J-250000D01*
G01*
X198398000Y-102750000D01*
G75*
G02*
X198148000Y-103000000I-250000J0D01*
G01*
X197348000Y-103000000D01*
G75*
G02*
X197098000Y-102750000I0J250000D01*
G01*
G37*
G36*
G01*
X193998000Y-102750000D02*
X193998000Y-101500000D01*
G75*
G02*
X194248000Y-101250000I250000J0D01*
G01*
X195048000Y-101250000D01*
G75*
G02*
X195298000Y-101500000I0J-250000D01*
G01*
X195298000Y-102750000D01*
G75*
G02*
X195048000Y-103000000I-250000J0D01*
G01*
X194248000Y-103000000D01*
G75*
G02*
X193998000Y-102750000I0J250000D01*
G01*
G37*
G36*
G01*
X179100000Y-102750000D02*
X179100000Y-101500000D01*
G75*
G02*
X179350000Y-101250000I250000J0D01*
G01*
X180150000Y-101250000D01*
G75*
G02*
X180400000Y-101500000I0J-250000D01*
G01*
X180400000Y-102750000D01*
G75*
G02*
X180150000Y-103000000I-250000J0D01*
G01*
X179350000Y-103000000D01*
G75*
G02*
X179100000Y-102750000I0J250000D01*
G01*
G37*
G36*
G01*
X176000000Y-102750000D02*
X176000000Y-101500000D01*
G75*
G02*
X176250000Y-101250000I250000J0D01*
G01*
X177050000Y-101250000D01*
G75*
G02*
X177300000Y-101500000I0J-250000D01*
G01*
X177300000Y-102750000D01*
G75*
G02*
X177050000Y-103000000I-250000J0D01*
G01*
X176250000Y-103000000D01*
G75*
G02*
X176000000Y-102750000I0J250000D01*
G01*
G37*
G36*
G01*
X161320000Y-96400000D02*
X161320000Y-95150000D01*
G75*
G02*
X161570000Y-94900000I250000J0D01*
G01*
X162370000Y-94900000D01*
G75*
G02*
X162620000Y-95150000I0J-250000D01*
G01*
X162620000Y-96400000D01*
G75*
G02*
X162370000Y-96650000I-250000J0D01*
G01*
X161570000Y-96650000D01*
G75*
G02*
X161320000Y-96400000I0J250000D01*
G01*
G37*
G36*
G01*
X158220000Y-96400000D02*
X158220000Y-95150000D01*
G75*
G02*
X158470000Y-94900000I250000J0D01*
G01*
X159270000Y-94900000D01*
G75*
G02*
X159520000Y-95150000I0J-250000D01*
G01*
X159520000Y-96400000D01*
G75*
G02*
X159270000Y-96650000I-250000J0D01*
G01*
X158470000Y-96650000D01*
G75*
G02*
X158220000Y-96400000I0J250000D01*
G01*
G37*
G36*
G01*
X154552000Y-95155001D02*
X154552000Y-93854999D01*
G75*
G02*
X154801999Y-93605000I249999J0D01*
G01*
X155627001Y-93605000D01*
G75*
G02*
X155877000Y-93854999I0J-249999D01*
G01*
X155877000Y-95155001D01*
G75*
G02*
X155627001Y-95405000I-249999J0D01*
G01*
X154801999Y-95405000D01*
G75*
G02*
X154552000Y-95155001I0J249999D01*
G01*
G37*
G36*
G01*
X151427000Y-95155001D02*
X151427000Y-93854999D01*
G75*
G02*
X151676999Y-93605000I249999J0D01*
G01*
X152502001Y-93605000D01*
G75*
G02*
X152752000Y-93854999I0J-249999D01*
G01*
X152752000Y-95155001D01*
G75*
G02*
X152502001Y-95405000I-249999J0D01*
G01*
X151676999Y-95405000D01*
G75*
G02*
X151427000Y-95155001I0J249999D01*
G01*
G37*
D10*
X132480000Y-112920000D03*
X117240000Y-105300000D03*
X129940000Y-112920000D03*
X119780000Y-105300000D03*
X127400000Y-112920000D03*
X122320000Y-105300000D03*
X124860000Y-112920000D03*
X124860000Y-105300000D03*
X122320000Y-112920000D03*
X127400000Y-105300000D03*
X119780000Y-112920000D03*
X129940000Y-105300000D03*
X117240000Y-112920000D03*
D11*
X132480000Y-105300000D03*
G36*
G01*
X152590001Y-88775000D02*
X151739999Y-88775000D01*
G75*
G02*
X151490000Y-88525001I0J249999D01*
G01*
X151490000Y-87624999D01*
G75*
G02*
X151739999Y-87375000I249999J0D01*
G01*
X152590001Y-87375000D01*
G75*
G02*
X152840000Y-87624999I0J-249999D01*
G01*
X152840000Y-88525001D01*
G75*
G02*
X152590001Y-88775000I-249999J0D01*
G01*
G37*
G36*
G01*
X152590001Y-91475000D02*
X151739999Y-91475000D01*
G75*
G02*
X151490000Y-91225001I0J249999D01*
G01*
X151490000Y-90324999D01*
G75*
G02*
X151739999Y-90075000I249999J0D01*
G01*
X152590001Y-90075000D01*
G75*
G02*
X152840000Y-90324999I0J-249999D01*
G01*
X152840000Y-91225001D01*
G75*
G02*
X152590001Y-91475000I-249999J0D01*
G01*
G37*
G36*
G01*
X138815000Y-96619999D02*
X138815000Y-97470001D01*
G75*
G02*
X138565001Y-97720000I-249999J0D01*
G01*
X137664999Y-97720000D01*
G75*
G02*
X137415000Y-97470001I0J249999D01*
G01*
X137415000Y-96619999D01*
G75*
G02*
X137664999Y-96370000I249999J0D01*
G01*
X138565001Y-96370000D01*
G75*
G02*
X138815000Y-96619999I0J-249999D01*
G01*
G37*
G36*
G01*
X141515000Y-96619999D02*
X141515000Y-97470001D01*
G75*
G02*
X141265001Y-97720000I-249999J0D01*
G01*
X140364999Y-97720000D01*
G75*
G02*
X140115000Y-97470001I0J249999D01*
G01*
X140115000Y-96619999D01*
G75*
G02*
X140364999Y-96370000I249999J0D01*
G01*
X141265001Y-96370000D01*
G75*
G02*
X141515000Y-96619999I0J-249999D01*
G01*
G37*
G36*
G01*
X153295000Y-99595000D02*
X153295000Y-100845000D01*
G75*
G02*
X153045000Y-101095000I-250000J0D01*
G01*
X152120000Y-101095000D01*
G75*
G02*
X151870000Y-100845000I0J250000D01*
G01*
X151870000Y-99595000D01*
G75*
G02*
X152120000Y-99345000I250000J0D01*
G01*
X153045000Y-99345000D01*
G75*
G02*
X153295000Y-99595000I0J-250000D01*
G01*
G37*
G36*
G01*
X156270000Y-99595000D02*
X156270000Y-100845000D01*
G75*
G02*
X156020000Y-101095000I-250000J0D01*
G01*
X155095000Y-101095000D01*
G75*
G02*
X154845000Y-100845000I0J250000D01*
G01*
X154845000Y-99595000D01*
G75*
G02*
X155095000Y-99345000I250000J0D01*
G01*
X156020000Y-99345000D01*
G75*
G02*
X156270000Y-99595000I0J-250000D01*
G01*
G37*
D12*
X135020000Y-100220000D03*
X137560000Y-100220000D03*
X140100000Y-100220000D03*
D13*
X142640000Y-100220000D03*
D12*
X112160000Y-105300000D03*
X112160000Y-107840000D03*
X112160000Y-110380000D03*
D13*
X112160000Y-112920000D03*
D14*
X188360000Y-107840000D03*
X188360000Y-110380000D03*
X185820000Y-107840000D03*
X185820000Y-110380000D03*
X183280000Y-107840000D03*
X183280000Y-110380000D03*
X180740000Y-107840000D03*
X180740000Y-110380000D03*
X178200000Y-107840000D03*
X178200000Y-110380000D03*
X175660000Y-107840000D03*
X175660000Y-110380000D03*
X173120000Y-107840000D03*
X173120000Y-110380000D03*
X170580000Y-107840000D03*
X170580000Y-110380000D03*
X168040000Y-107840000D03*
X168040000Y-110380000D03*
X165500000Y-107840000D03*
X165500000Y-110380000D03*
X162960000Y-107840000D03*
X162960000Y-110380000D03*
X160420000Y-107840000D03*
X160420000Y-110380000D03*
X157880000Y-107840000D03*
X157880000Y-110380000D03*
X155340000Y-107840000D03*
X155340000Y-110380000D03*
X152800000Y-107840000D03*
X152800000Y-110380000D03*
X150260000Y-107840000D03*
X150260000Y-110380000D03*
X147720000Y-107840000D03*
D15*
X147720000Y-110380000D03*
D12*
X195980000Y-87520000D03*
X195980000Y-90060000D03*
X193440000Y-87520000D03*
X193440000Y-90060000D03*
X190900000Y-87520000D03*
X190900000Y-90060000D03*
X188360000Y-87520000D03*
X188360000Y-90060000D03*
X185820000Y-87520000D03*
X185820000Y-90060000D03*
X183280000Y-87520000D03*
X183280000Y-90060000D03*
X180740000Y-87520000D03*
X180740000Y-90060000D03*
X178200000Y-87520000D03*
X178200000Y-90060000D03*
X175660000Y-87520000D03*
X175660000Y-90060000D03*
X173120000Y-87520000D03*
X173120000Y-90060000D03*
X170580000Y-87520000D03*
X170580000Y-90060000D03*
X168040000Y-87520000D03*
X168040000Y-90060000D03*
X165500000Y-87520000D03*
X165500000Y-90060000D03*
X162960000Y-87520000D03*
X162960000Y-90060000D03*
X160420000Y-87520000D03*
X160420000Y-90060000D03*
X157880000Y-87520000D03*
X157880000Y-90060000D03*
X155340000Y-87520000D03*
D13*
X155340000Y-90060000D03*
D16*
X178471500Y-102409500D03*
X184260600Y-102770200D03*
M02*
