%TF.GenerationSoftware,KiCad,Pcbnew,5.1.9+dfsg1-1*%
%TF.CreationDate,2022-04-01T11:17:58+02:00*%
%TF.ProjectId,AmigaPCDriveAdapter,416d6967-6150-4434-9472-697665416461,2.0*%
%TF.SameCoordinates,Original*%
%TF.FileFunction,Copper,L2,Bot*%
%TF.FilePolarity,Positive*%
%FSLAX46Y46*%
G04 Gerber Fmt 4.6, Leading zero omitted, Abs format (unit mm)*
G04 Created by KiCad (PCBNEW 5.1.9+dfsg1-1) date 2022-04-01 11:17:58*
%MOMM*%
%LPD*%
G01*
G04 APERTURE LIST*
%TA.AperFunction,ComponentPad*%
%ADD10O,1.600000X1.600000*%
%TD*%
%TA.AperFunction,ComponentPad*%
%ADD11R,1.600000X1.600000*%
%TD*%
%TA.AperFunction,ComponentPad*%
%ADD12O,1.700000X1.700000*%
%TD*%
%TA.AperFunction,ComponentPad*%
%ADD13R,1.700000X1.700000*%
%TD*%
%TA.AperFunction,ComponentPad*%
%ADD14C,1.520000*%
%TD*%
%TA.AperFunction,ComponentPad*%
%ADD15R,1.520000X1.520000*%
%TD*%
%TA.AperFunction,ViaPad*%
%ADD16C,0.600000*%
%TD*%
%TA.AperFunction,Conductor*%
%ADD17C,0.250000*%
%TD*%
%TA.AperFunction,Conductor*%
%ADD18C,0.254000*%
%TD*%
%TA.AperFunction,Conductor*%
%ADD19C,0.100000*%
%TD*%
G04 APERTURE END LIST*
%TA.AperFunction,SMDPad,CuDef*%
G36*
G01*
X119732000Y-108485000D02*
X119732000Y-109735000D01*
G75*
G02*
X119482000Y-109985000I-250000J0D01*
G01*
X118682000Y-109985000D01*
G75*
G02*
X118432000Y-109735000I0J250000D01*
G01*
X118432000Y-108485000D01*
G75*
G02*
X118682000Y-108235000I250000J0D01*
G01*
X119482000Y-108235000D01*
G75*
G02*
X119732000Y-108485000I0J-250000D01*
G01*
G37*
%TD.AperFunction*%
%TA.AperFunction,SMDPad,CuDef*%
G36*
G01*
X122832000Y-108485000D02*
X122832000Y-109735000D01*
G75*
G02*
X122582000Y-109985000I-250000J0D01*
G01*
X121782000Y-109985000D01*
G75*
G02*
X121532000Y-109735000I0J250000D01*
G01*
X121532000Y-108485000D01*
G75*
G02*
X121782000Y-108235000I250000J0D01*
G01*
X122582000Y-108235000D01*
G75*
G02*
X122832000Y-108485000I0J-250000D01*
G01*
G37*
%TD.AperFunction*%
%TA.AperFunction,SMDPad,CuDef*%
G36*
G01*
X131692000Y-109735000D02*
X131692000Y-108485000D01*
G75*
G02*
X131942000Y-108235000I250000J0D01*
G01*
X132742000Y-108235000D01*
G75*
G02*
X132992000Y-108485000I0J-250000D01*
G01*
X132992000Y-109735000D01*
G75*
G02*
X132742000Y-109985000I-250000J0D01*
G01*
X131942000Y-109985000D01*
G75*
G02*
X131692000Y-109735000I0J250000D01*
G01*
G37*
%TD.AperFunction*%
%TA.AperFunction,SMDPad,CuDef*%
G36*
G01*
X128592000Y-109735000D02*
X128592000Y-108485000D01*
G75*
G02*
X128842000Y-108235000I250000J0D01*
G01*
X129642000Y-108235000D01*
G75*
G02*
X129892000Y-108485000I0J-250000D01*
G01*
X129892000Y-109735000D01*
G75*
G02*
X129642000Y-109985000I-250000J0D01*
G01*
X128842000Y-109985000D01*
G75*
G02*
X128592000Y-109735000I0J250000D01*
G01*
G37*
%TD.AperFunction*%
%TA.AperFunction,SMDPad,CuDef*%
G36*
G01*
X186938000Y-101480000D02*
X186938000Y-100230000D01*
G75*
G02*
X187188000Y-99980000I250000J0D01*
G01*
X187988000Y-99980000D01*
G75*
G02*
X188238000Y-100230000I0J-250000D01*
G01*
X188238000Y-101480000D01*
G75*
G02*
X187988000Y-101730000I-250000J0D01*
G01*
X187188000Y-101730000D01*
G75*
G02*
X186938000Y-101480000I0J250000D01*
G01*
G37*
%TD.AperFunction*%
%TA.AperFunction,SMDPad,CuDef*%
G36*
G01*
X183838000Y-101480000D02*
X183838000Y-100230000D01*
G75*
G02*
X184088000Y-99980000I250000J0D01*
G01*
X184888000Y-99980000D01*
G75*
G02*
X185138000Y-100230000I0J-250000D01*
G01*
X185138000Y-101480000D01*
G75*
G02*
X184888000Y-101730000I-250000J0D01*
G01*
X184088000Y-101730000D01*
G75*
G02*
X183838000Y-101480000I0J250000D01*
G01*
G37*
%TD.AperFunction*%
%TA.AperFunction,SMDPad,CuDef*%
G36*
G01*
X187138000Y-96400000D02*
X187138000Y-95150000D01*
G75*
G02*
X187388000Y-94900000I250000J0D01*
G01*
X188188000Y-94900000D01*
G75*
G02*
X188438000Y-95150000I0J-250000D01*
G01*
X188438000Y-96400000D01*
G75*
G02*
X188188000Y-96650000I-250000J0D01*
G01*
X187388000Y-96650000D01*
G75*
G02*
X187138000Y-96400000I0J250000D01*
G01*
G37*
%TD.AperFunction*%
%TA.AperFunction,SMDPad,CuDef*%
G36*
G01*
X184038000Y-96400000D02*
X184038000Y-95150000D01*
G75*
G02*
X184288000Y-94900000I250000J0D01*
G01*
X185088000Y-94900000D01*
G75*
G02*
X185338000Y-95150000I0J-250000D01*
G01*
X185338000Y-96400000D01*
G75*
G02*
X185088000Y-96650000I-250000J0D01*
G01*
X184288000Y-96650000D01*
G75*
G02*
X184038000Y-96400000I0J250000D01*
G01*
G37*
%TD.AperFunction*%
%TA.AperFunction,SMDPad,CuDef*%
G36*
G01*
X138348000Y-103379999D02*
X138348000Y-104680001D01*
G75*
G02*
X138098001Y-104930000I-249999J0D01*
G01*
X137272999Y-104930000D01*
G75*
G02*
X137023000Y-104680001I0J249999D01*
G01*
X137023000Y-103379999D01*
G75*
G02*
X137272999Y-103130000I249999J0D01*
G01*
X138098001Y-103130000D01*
G75*
G02*
X138348000Y-103379999I0J-249999D01*
G01*
G37*
%TD.AperFunction*%
%TA.AperFunction,SMDPad,CuDef*%
G36*
G01*
X141473000Y-103379999D02*
X141473000Y-104680001D01*
G75*
G02*
X141223001Y-104930000I-249999J0D01*
G01*
X140397999Y-104930000D01*
G75*
G02*
X140148000Y-104680001I0J249999D01*
G01*
X140148000Y-103379999D01*
G75*
G02*
X140397999Y-103130000I249999J0D01*
G01*
X141223001Y-103130000D01*
G75*
G02*
X141473000Y-103379999I0J-249999D01*
G01*
G37*
%TD.AperFunction*%
D10*
X132480000Y-112920000D03*
X117240000Y-105300000D03*
X129940000Y-112920000D03*
X119780000Y-105300000D03*
X127400000Y-112920000D03*
X122320000Y-105300000D03*
X124860000Y-112920000D03*
X124860000Y-105300000D03*
X122320000Y-112920000D03*
X127400000Y-105300000D03*
X119780000Y-112920000D03*
X129940000Y-105300000D03*
X117240000Y-112920000D03*
D11*
X132480000Y-105300000D03*
D12*
X135020000Y-100220000D03*
X137560000Y-100220000D03*
X140100000Y-100220000D03*
D13*
X142640000Y-100220000D03*
D12*
X112160000Y-105300000D03*
X112160000Y-107840000D03*
X112160000Y-110380000D03*
D13*
X112160000Y-112920000D03*
D14*
X188360000Y-107840000D03*
X188360000Y-110380000D03*
X185820000Y-107840000D03*
X185820000Y-110380000D03*
X183280000Y-107840000D03*
X183280000Y-110380000D03*
X180740000Y-107840000D03*
X180740000Y-110380000D03*
X178200000Y-107840000D03*
X178200000Y-110380000D03*
X175660000Y-107840000D03*
X175660000Y-110380000D03*
X173120000Y-107840000D03*
X173120000Y-110380000D03*
X170580000Y-107840000D03*
X170580000Y-110380000D03*
X168040000Y-107840000D03*
X168040000Y-110380000D03*
X165500000Y-107840000D03*
X165500000Y-110380000D03*
X162960000Y-107840000D03*
X162960000Y-110380000D03*
X160420000Y-107840000D03*
X160420000Y-110380000D03*
X157880000Y-107840000D03*
X157880000Y-110380000D03*
X155340000Y-107840000D03*
X155340000Y-110380000D03*
X152800000Y-107840000D03*
X152800000Y-110380000D03*
X150260000Y-107840000D03*
X150260000Y-110380000D03*
X147720000Y-107840000D03*
D15*
X147720000Y-110380000D03*
D12*
X195980000Y-87520000D03*
X195980000Y-90060000D03*
X193440000Y-87520000D03*
X193440000Y-90060000D03*
X190900000Y-87520000D03*
X190900000Y-90060000D03*
X188360000Y-87520000D03*
X188360000Y-90060000D03*
X185820000Y-87520000D03*
X185820000Y-90060000D03*
X183280000Y-87520000D03*
X183280000Y-90060000D03*
X180740000Y-87520000D03*
X180740000Y-90060000D03*
X178200000Y-87520000D03*
X178200000Y-90060000D03*
X175660000Y-87520000D03*
X175660000Y-90060000D03*
X173120000Y-87520000D03*
X173120000Y-90060000D03*
X170580000Y-87520000D03*
X170580000Y-90060000D03*
X168040000Y-87520000D03*
X168040000Y-90060000D03*
X165500000Y-87520000D03*
X165500000Y-90060000D03*
X162960000Y-87520000D03*
X162960000Y-90060000D03*
X160420000Y-87520000D03*
X160420000Y-90060000D03*
X157880000Y-87520000D03*
X157880000Y-90060000D03*
X155340000Y-87520000D03*
D13*
X155340000Y-90060000D03*
D16*
X178471500Y-102409500D03*
X184260600Y-102770200D03*
D17*
X146634400Y-99044700D02*
X141642500Y-99044700D01*
X141642500Y-99044700D02*
X141275300Y-99411900D01*
X141275300Y-99411900D02*
X141275300Y-100220000D01*
X155340000Y-91235300D02*
X147530600Y-99044700D01*
X147530600Y-99044700D02*
X146634400Y-99044700D01*
X147720000Y-109294700D02*
X147584300Y-109294700D01*
X147584300Y-109294700D02*
X146634400Y-108344800D01*
X146634400Y-108344800D02*
X146634400Y-99044700D01*
X147720000Y-110380000D02*
X147720000Y-109294700D01*
X140100000Y-100220000D02*
X141275300Y-100220000D01*
X155340000Y-90060000D02*
X155340000Y-91235300D01*
X137560000Y-103829500D02*
X119554500Y-103829500D01*
X119554500Y-103829500D02*
X118365300Y-105018700D01*
X118365300Y-105018700D02*
X118365300Y-105300000D01*
X137760500Y-104030000D02*
X137560000Y-103829500D01*
X137560000Y-101395300D02*
X137560000Y-103829500D01*
X117240000Y-105300000D02*
X118365300Y-105300000D01*
X112160000Y-107840000D02*
X113574700Y-107840000D01*
X113574700Y-107840000D02*
X116114700Y-105300000D01*
X117240000Y-105300000D02*
X116114700Y-105300000D01*
X112160000Y-110380000D02*
X112160000Y-107840000D01*
X137560000Y-100220000D02*
X137560000Y-101395300D01*
X195980000Y-87520000D02*
X195980000Y-88695300D01*
X147720000Y-107840000D02*
X149174600Y-109294600D01*
X149174600Y-109294600D02*
X150776800Y-109294600D01*
X150776800Y-109294600D02*
X151530000Y-110047800D01*
X151530000Y-110047800D02*
X151530000Y-110668100D01*
X151530000Y-110668100D02*
X152341200Y-111479300D01*
X152341200Y-111479300D02*
X186266900Y-111479300D01*
X186266900Y-111479300D02*
X186930700Y-110815500D01*
X186930700Y-110815500D02*
X186930700Y-107734400D01*
X186930700Y-107734400D02*
X194804700Y-99860400D01*
X194804700Y-99860400D02*
X194804700Y-89503200D01*
X194804700Y-89503200D02*
X195612600Y-88695300D01*
X195612600Y-88695300D02*
X195980000Y-88695300D01*
X162960000Y-87520000D02*
X162960000Y-88695300D01*
X155340000Y-107840000D02*
X155340000Y-98729200D01*
X155340000Y-98729200D02*
X161784700Y-92284500D01*
X161784700Y-92284500D02*
X161784700Y-89503200D01*
X161784700Y-89503200D02*
X162592600Y-88695300D01*
X162592600Y-88695300D02*
X162960000Y-88695300D01*
X157880000Y-107840000D02*
X157880000Y-100734100D01*
X157880000Y-100734100D02*
X166864700Y-91749400D01*
X166864700Y-91749400D02*
X166864700Y-89503200D01*
X166864700Y-89503200D02*
X167672600Y-88695300D01*
X167672600Y-88695300D02*
X168040000Y-88695300D01*
X168040000Y-87520000D02*
X168040000Y-88695300D01*
X185820000Y-88695300D02*
X185452600Y-88695300D01*
X185452600Y-88695300D02*
X184644700Y-89503200D01*
X184644700Y-89503200D02*
X184644700Y-90420700D01*
X184644700Y-90420700D02*
X178471500Y-96593900D01*
X178471500Y-96593900D02*
X178471500Y-102409500D01*
X178471500Y-102409500D02*
X178200000Y-102681000D01*
X178200000Y-102681000D02*
X178200000Y-107840000D01*
X185820000Y-87520000D02*
X185820000Y-88695300D01*
X180740000Y-107840000D02*
X185789400Y-102790600D01*
X185789400Y-102790600D02*
X185789400Y-97711100D01*
X185789400Y-97711100D02*
X187725500Y-95775000D01*
X188360000Y-87520000D02*
X188360000Y-88695300D01*
X188360000Y-88695300D02*
X187992700Y-88695300D01*
X187992700Y-88695300D02*
X187169400Y-89518600D01*
X187169400Y-89518600D02*
X187169400Y-95218900D01*
X187169400Y-95218900D02*
X187725500Y-95775000D01*
X187525500Y-100855000D02*
X187525500Y-103594500D01*
X187525500Y-103594500D02*
X183280000Y-107840000D01*
X190900000Y-88695300D02*
X190532600Y-88695300D01*
X190532600Y-88695300D02*
X189724700Y-89503200D01*
X189724700Y-89503200D02*
X189724700Y-98655800D01*
X189724700Y-98655800D02*
X187525500Y-100855000D01*
X190900000Y-87520000D02*
X190900000Y-88695300D01*
X184550500Y-100855000D02*
X184550500Y-95975000D01*
X184550500Y-95975000D02*
X184750500Y-95775000D01*
X184260600Y-102770200D02*
X184260600Y-101144900D01*
X184260600Y-101144900D02*
X184550500Y-100855000D01*
X140735500Y-104030000D02*
X140735500Y-103299800D01*
X140735500Y-103299800D02*
X142640000Y-101395300D01*
X132279500Y-109110000D02*
X135655500Y-109110000D01*
X135655500Y-109110000D02*
X140735500Y-104030000D01*
X142640000Y-100220000D02*
X142640000Y-101395300D01*
X131065100Y-110324400D02*
X132480000Y-111739300D01*
X132480000Y-111739300D02*
X132480000Y-112920000D01*
X131065100Y-110324400D02*
X132279500Y-109110000D01*
X119144500Y-110324400D02*
X131065100Y-110324400D01*
X113335300Y-112920000D02*
X115930900Y-110324400D01*
X115930900Y-110324400D02*
X119144500Y-110324400D01*
X119144500Y-110324400D02*
X119144500Y-109110000D01*
X112160000Y-112920000D02*
X113335300Y-112920000D01*
X135020000Y-100220000D02*
X135020000Y-101395300D01*
X112160000Y-105300000D02*
X113335300Y-105300000D01*
X113335300Y-105300000D02*
X115256200Y-103379100D01*
X115256200Y-103379100D02*
X133036200Y-103379100D01*
X133036200Y-103379100D02*
X135020000Y-101395300D01*
X127400000Y-106425300D02*
X127400000Y-105300000D01*
X129304500Y-109110000D02*
X127400000Y-107205500D01*
X127400000Y-107205500D02*
X127400000Y-106425300D01*
X127400000Y-106425300D02*
X124289200Y-106425300D01*
X124289200Y-106425300D02*
X123445300Y-105581400D01*
X123445300Y-105581400D02*
X123445300Y-105300000D01*
X122320000Y-105300000D02*
X123445300Y-105300000D01*
X119780000Y-105300000D02*
X119780000Y-106425300D01*
X122119500Y-109110000D02*
X122119500Y-108764800D01*
X122119500Y-108764800D02*
X119780000Y-106425300D01*
X157880000Y-87520000D02*
X157880000Y-88695300D01*
X157880000Y-88695300D02*
X157512600Y-88695300D01*
X157512600Y-88695300D02*
X156704700Y-89503200D01*
X156704700Y-89503200D02*
X156704700Y-92727400D01*
X156704700Y-92727400D02*
X150260000Y-99172100D01*
X150260000Y-99172100D02*
X150260000Y-107840000D01*
X152800000Y-107840000D02*
X152800000Y-97848900D01*
X152800000Y-97848900D02*
X159244700Y-91404200D01*
X159244700Y-91404200D02*
X159244700Y-89503200D01*
X159244700Y-89503200D02*
X160052600Y-88695300D01*
X160052600Y-88695300D02*
X160420000Y-88695300D01*
X160420000Y-87520000D02*
X160420000Y-88695300D01*
X160420000Y-107840000D02*
X159326600Y-108933400D01*
X159326600Y-108933400D02*
X157371300Y-108933400D01*
X157371300Y-108933400D02*
X156794600Y-108356700D01*
X156794600Y-108356700D02*
X156794600Y-101182600D01*
X156794600Y-101182600D02*
X164324700Y-93652500D01*
X164324700Y-93652500D02*
X164324700Y-89503200D01*
X164324700Y-89503200D02*
X165132600Y-88695300D01*
X165132600Y-88695300D02*
X165500000Y-88695300D01*
X165500000Y-87520000D02*
X165500000Y-88695300D01*
X170580000Y-87520000D02*
X170580000Y-88695300D01*
X170580000Y-88695300D02*
X170212600Y-88695300D01*
X170212600Y-88695300D02*
X169404700Y-89503200D01*
X169404700Y-89503200D02*
X169404700Y-90404800D01*
X169404700Y-90404800D02*
X162960000Y-96849500D01*
X162960000Y-96849500D02*
X162960000Y-107840000D01*
X173120000Y-87520000D02*
X173120000Y-88695300D01*
X173120000Y-88695300D02*
X172752600Y-88695300D01*
X172752600Y-88695300D02*
X171944700Y-89503200D01*
X171944700Y-89503200D02*
X171944700Y-90404900D01*
X171944700Y-90404900D02*
X165500000Y-96849600D01*
X165500000Y-96849600D02*
X165500000Y-107840000D01*
X175660000Y-87520000D02*
X175660000Y-88695300D01*
X175660000Y-88695300D02*
X175292600Y-88695300D01*
X175292600Y-88695300D02*
X174484700Y-89503200D01*
X174484700Y-89503200D02*
X174484700Y-90405000D01*
X174484700Y-90405000D02*
X168040000Y-96849700D01*
X168040000Y-96849700D02*
X168040000Y-107840000D01*
X178200000Y-87520000D02*
X178200000Y-88695300D01*
X178200000Y-88695300D02*
X177832600Y-88695300D01*
X177832600Y-88695300D02*
X177024700Y-89503200D01*
X177024700Y-89503200D02*
X177024700Y-90405500D01*
X177024700Y-90405500D02*
X170580000Y-96850200D01*
X170580000Y-96850200D02*
X170580000Y-107840000D01*
X180740000Y-87520000D02*
X180740000Y-88695300D01*
X180740000Y-88695300D02*
X180372600Y-88695300D01*
X180372600Y-88695300D02*
X179564700Y-89503200D01*
X179564700Y-89503200D02*
X179564700Y-90407200D01*
X179564700Y-90407200D02*
X173120000Y-96851900D01*
X173120000Y-96851900D02*
X173120000Y-107840000D01*
X183280000Y-87520000D02*
X183280000Y-88695300D01*
X183280000Y-88695300D02*
X182912600Y-88695300D01*
X182912600Y-88695300D02*
X182104700Y-89503200D01*
X182104700Y-89503200D02*
X182104700Y-90414400D01*
X182104700Y-90414400D02*
X175660000Y-96859100D01*
X175660000Y-96859100D02*
X175660000Y-107840000D01*
X193440000Y-88695300D02*
X193072600Y-88695300D01*
X193072600Y-88695300D02*
X192264700Y-89503200D01*
X192264700Y-89503200D02*
X192264700Y-101395300D01*
X192264700Y-101395300D02*
X185820000Y-107840000D01*
X193440000Y-87520000D02*
X193440000Y-88695300D01*
D18*
X199314782Y-85693267D02*
X199559855Y-85767259D01*
X199785890Y-85887443D01*
X199984281Y-86049248D01*
X200147460Y-86246497D01*
X200269220Y-86471687D01*
X200344924Y-86716247D01*
X200375001Y-87002408D01*
X200375000Y-113426495D01*
X200346733Y-113714782D01*
X200272741Y-113959855D01*
X200152554Y-114185893D01*
X199990754Y-114384279D01*
X199793503Y-114547460D01*
X199568310Y-114669221D01*
X199323753Y-114744924D01*
X199037602Y-114775000D01*
X104033505Y-114775000D01*
X103745218Y-114746733D01*
X103500145Y-114672741D01*
X103274107Y-114552554D01*
X103075721Y-114390754D01*
X102912540Y-114193503D01*
X102790779Y-113968310D01*
X102715076Y-113723753D01*
X102685000Y-113437602D01*
X102685000Y-108196890D01*
X110718524Y-108196890D01*
X110763175Y-108344099D01*
X110888359Y-108606920D01*
X111062412Y-108840269D01*
X111278645Y-109035178D01*
X111404255Y-109110000D01*
X111278645Y-109184822D01*
X111062412Y-109379731D01*
X110888359Y-109613080D01*
X110763175Y-109875901D01*
X110718524Y-110023110D01*
X110839845Y-110253000D01*
X112033000Y-110253000D01*
X112033000Y-107967000D01*
X112287000Y-107967000D01*
X112287000Y-110253000D01*
X113480155Y-110253000D01*
X113601476Y-110023110D01*
X113556825Y-109875901D01*
X113431641Y-109613080D01*
X113257588Y-109379731D01*
X113041355Y-109184822D01*
X112915745Y-109110000D01*
X113041355Y-109035178D01*
X113257588Y-108840269D01*
X113431641Y-108606920D01*
X113556825Y-108344099D01*
X113601476Y-108196890D01*
X113480155Y-107967000D01*
X112287000Y-107967000D01*
X112033000Y-107967000D01*
X110839845Y-107967000D01*
X110718524Y-108196890D01*
X102685000Y-108196890D01*
X102685000Y-104793505D01*
X102713267Y-104505218D01*
X102787259Y-104260145D01*
X102907443Y-104034110D01*
X103069248Y-103835719D01*
X103266497Y-103672540D01*
X103491687Y-103550780D01*
X103736247Y-103475076D01*
X104022398Y-103445000D01*
X114115498Y-103445000D01*
X113260303Y-104300196D01*
X113106632Y-104146525D01*
X112863411Y-103984010D01*
X112593158Y-103872068D01*
X112306260Y-103815000D01*
X112013740Y-103815000D01*
X111726842Y-103872068D01*
X111456589Y-103984010D01*
X111213368Y-104146525D01*
X111006525Y-104353368D01*
X110844010Y-104596589D01*
X110732068Y-104866842D01*
X110675000Y-105153740D01*
X110675000Y-105446260D01*
X110732068Y-105733158D01*
X110844010Y-106003411D01*
X111006525Y-106246632D01*
X111213368Y-106453475D01*
X111395534Y-106575195D01*
X111278645Y-106644822D01*
X111062412Y-106839731D01*
X110888359Y-107073080D01*
X110763175Y-107335901D01*
X110718524Y-107483110D01*
X110839845Y-107713000D01*
X112033000Y-107713000D01*
X112033000Y-107693000D01*
X112287000Y-107693000D01*
X112287000Y-107713000D01*
X113480155Y-107713000D01*
X113601476Y-107483110D01*
X113556825Y-107335901D01*
X113431641Y-107073080D01*
X113257588Y-106839731D01*
X113041355Y-106644822D01*
X112924466Y-106575195D01*
X113106632Y-106453475D01*
X113313475Y-106246632D01*
X113442796Y-106053089D01*
X113484286Y-106049003D01*
X113627547Y-106005546D01*
X113759576Y-105934974D01*
X113875301Y-105840001D01*
X113899104Y-105810997D01*
X114061061Y-105649040D01*
X115848091Y-105649040D01*
X115942930Y-105913881D01*
X116087615Y-106155131D01*
X116276586Y-106363519D01*
X116502580Y-106531037D01*
X116756913Y-106651246D01*
X116890961Y-106691904D01*
X117113000Y-106569915D01*
X117113000Y-105427000D01*
X115969376Y-105427000D01*
X115848091Y-105649040D01*
X114061061Y-105649040D01*
X115571002Y-104139100D01*
X116407960Y-104139100D01*
X116276586Y-104236481D01*
X116087615Y-104444869D01*
X115942930Y-104686119D01*
X115848091Y-104950960D01*
X115969376Y-105173000D01*
X117113000Y-105173000D01*
X117113000Y-105153000D01*
X117367000Y-105153000D01*
X117367000Y-105173000D01*
X117387000Y-105173000D01*
X117387000Y-105427000D01*
X117367000Y-105427000D01*
X117367000Y-106569915D01*
X117589039Y-106691904D01*
X117723087Y-106651246D01*
X117977420Y-106531037D01*
X118203414Y-106363519D01*
X118392385Y-106155131D01*
X118503933Y-105969135D01*
X118508320Y-105979727D01*
X118665363Y-106214759D01*
X118865241Y-106414637D01*
X119025843Y-106521948D01*
X119030568Y-106569915D01*
X119030998Y-106574285D01*
X119074454Y-106717546D01*
X119145026Y-106849576D01*
X119197286Y-106913254D01*
X119240000Y-106965301D01*
X119268998Y-106989099D01*
X120893928Y-108614030D01*
X120893928Y-109564400D01*
X120370072Y-109564400D01*
X120370072Y-108485000D01*
X120353008Y-108311746D01*
X120302472Y-108145150D01*
X120220405Y-107991614D01*
X120109962Y-107857038D01*
X119975386Y-107746595D01*
X119821850Y-107664528D01*
X119655254Y-107613992D01*
X119482000Y-107596928D01*
X118682000Y-107596928D01*
X118508746Y-107613992D01*
X118342150Y-107664528D01*
X118188614Y-107746595D01*
X118054038Y-107857038D01*
X117943595Y-107991614D01*
X117861528Y-108145150D01*
X117810992Y-108311746D01*
X117793928Y-108485000D01*
X117793928Y-109564400D01*
X115968225Y-109564400D01*
X115930900Y-109560724D01*
X115893575Y-109564400D01*
X115893567Y-109564400D01*
X115781914Y-109575397D01*
X115638653Y-109618854D01*
X115506624Y-109689426D01*
X115390899Y-109784399D01*
X115367101Y-109813397D01*
X113506485Y-111674014D01*
X113461185Y-111618815D01*
X113364494Y-111539463D01*
X113254180Y-111480498D01*
X113173534Y-111456034D01*
X113257588Y-111380269D01*
X113431641Y-111146920D01*
X113556825Y-110884099D01*
X113601476Y-110736890D01*
X113480155Y-110507000D01*
X112287000Y-110507000D01*
X112287000Y-110527000D01*
X112033000Y-110527000D01*
X112033000Y-110507000D01*
X110839845Y-110507000D01*
X110718524Y-110736890D01*
X110763175Y-110884099D01*
X110888359Y-111146920D01*
X111062412Y-111380269D01*
X111146466Y-111456034D01*
X111065820Y-111480498D01*
X110955506Y-111539463D01*
X110858815Y-111618815D01*
X110779463Y-111715506D01*
X110720498Y-111825820D01*
X110684188Y-111945518D01*
X110671928Y-112070000D01*
X110671928Y-113770000D01*
X110684188Y-113894482D01*
X110720498Y-114014180D01*
X110779463Y-114124494D01*
X110858815Y-114221185D01*
X110955506Y-114300537D01*
X111065820Y-114359502D01*
X111185518Y-114395812D01*
X111310000Y-114408072D01*
X113010000Y-114408072D01*
X113134482Y-114395812D01*
X113254180Y-114359502D01*
X113364494Y-114300537D01*
X113461185Y-114221185D01*
X113540537Y-114124494D01*
X113599502Y-114014180D01*
X113635812Y-113894482D01*
X113648072Y-113770000D01*
X113648072Y-113614575D01*
X113759576Y-113554974D01*
X113875301Y-113460001D01*
X113899104Y-113430997D01*
X116245702Y-111084400D01*
X119107167Y-111084400D01*
X119144500Y-111088077D01*
X119181833Y-111084400D01*
X130750299Y-111084400D01*
X131518251Y-111852353D01*
X131365363Y-112005241D01*
X131210000Y-112237759D01*
X131054637Y-112005241D01*
X130854759Y-111805363D01*
X130619727Y-111648320D01*
X130358574Y-111540147D01*
X130081335Y-111485000D01*
X129798665Y-111485000D01*
X129521426Y-111540147D01*
X129260273Y-111648320D01*
X129025241Y-111805363D01*
X128825363Y-112005241D01*
X128670000Y-112237759D01*
X128514637Y-112005241D01*
X128314759Y-111805363D01*
X128079727Y-111648320D01*
X127818574Y-111540147D01*
X127541335Y-111485000D01*
X127258665Y-111485000D01*
X126981426Y-111540147D01*
X126720273Y-111648320D01*
X126485241Y-111805363D01*
X126285363Y-112005241D01*
X126130000Y-112237759D01*
X125974637Y-112005241D01*
X125774759Y-111805363D01*
X125539727Y-111648320D01*
X125278574Y-111540147D01*
X125001335Y-111485000D01*
X124718665Y-111485000D01*
X124441426Y-111540147D01*
X124180273Y-111648320D01*
X123945241Y-111805363D01*
X123745363Y-112005241D01*
X123590000Y-112237759D01*
X123434637Y-112005241D01*
X123234759Y-111805363D01*
X122999727Y-111648320D01*
X122738574Y-111540147D01*
X122461335Y-111485000D01*
X122178665Y-111485000D01*
X121901426Y-111540147D01*
X121640273Y-111648320D01*
X121405241Y-111805363D01*
X121205363Y-112005241D01*
X121050000Y-112237759D01*
X120894637Y-112005241D01*
X120694759Y-111805363D01*
X120459727Y-111648320D01*
X120198574Y-111540147D01*
X119921335Y-111485000D01*
X119638665Y-111485000D01*
X119361426Y-111540147D01*
X119100273Y-111648320D01*
X118865241Y-111805363D01*
X118665363Y-112005241D01*
X118510000Y-112237759D01*
X118354637Y-112005241D01*
X118154759Y-111805363D01*
X117919727Y-111648320D01*
X117658574Y-111540147D01*
X117381335Y-111485000D01*
X117098665Y-111485000D01*
X116821426Y-111540147D01*
X116560273Y-111648320D01*
X116325241Y-111805363D01*
X116125363Y-112005241D01*
X115968320Y-112240273D01*
X115860147Y-112501426D01*
X115805000Y-112778665D01*
X115805000Y-113061335D01*
X115860147Y-113338574D01*
X115968320Y-113599727D01*
X116125363Y-113834759D01*
X116325241Y-114034637D01*
X116560273Y-114191680D01*
X116821426Y-114299853D01*
X117098665Y-114355000D01*
X117381335Y-114355000D01*
X117658574Y-114299853D01*
X117919727Y-114191680D01*
X118154759Y-114034637D01*
X118354637Y-113834759D01*
X118510000Y-113602241D01*
X118665363Y-113834759D01*
X118865241Y-114034637D01*
X119100273Y-114191680D01*
X119361426Y-114299853D01*
X119638665Y-114355000D01*
X119921335Y-114355000D01*
X120198574Y-114299853D01*
X120459727Y-114191680D01*
X120694759Y-114034637D01*
X120894637Y-113834759D01*
X121050000Y-113602241D01*
X121205363Y-113834759D01*
X121405241Y-114034637D01*
X121640273Y-114191680D01*
X121901426Y-114299853D01*
X122178665Y-114355000D01*
X122461335Y-114355000D01*
X122738574Y-114299853D01*
X122999727Y-114191680D01*
X123234759Y-114034637D01*
X123434637Y-113834759D01*
X123590000Y-113602241D01*
X123745363Y-113834759D01*
X123945241Y-114034637D01*
X124180273Y-114191680D01*
X124441426Y-114299853D01*
X124718665Y-114355000D01*
X125001335Y-114355000D01*
X125278574Y-114299853D01*
X125539727Y-114191680D01*
X125774759Y-114034637D01*
X125974637Y-113834759D01*
X126130000Y-113602241D01*
X126285363Y-113834759D01*
X126485241Y-114034637D01*
X126720273Y-114191680D01*
X126981426Y-114299853D01*
X127258665Y-114355000D01*
X127541335Y-114355000D01*
X127818574Y-114299853D01*
X128079727Y-114191680D01*
X128314759Y-114034637D01*
X128514637Y-113834759D01*
X128670000Y-113602241D01*
X128825363Y-113834759D01*
X129025241Y-114034637D01*
X129260273Y-114191680D01*
X129521426Y-114299853D01*
X129798665Y-114355000D01*
X130081335Y-114355000D01*
X130358574Y-114299853D01*
X130619727Y-114191680D01*
X130854759Y-114034637D01*
X131054637Y-113834759D01*
X131210000Y-113602241D01*
X131365363Y-113834759D01*
X131565241Y-114034637D01*
X131800273Y-114191680D01*
X132061426Y-114299853D01*
X132338665Y-114355000D01*
X132621335Y-114355000D01*
X132898574Y-114299853D01*
X133159727Y-114191680D01*
X133394759Y-114034637D01*
X133594637Y-113834759D01*
X133751680Y-113599727D01*
X133859853Y-113338574D01*
X133915000Y-113061335D01*
X133915000Y-112778665D01*
X133859853Y-112501426D01*
X133751680Y-112240273D01*
X133594637Y-112005241D01*
X133394759Y-111805363D01*
X133239999Y-111701956D01*
X133229003Y-111590314D01*
X133185546Y-111447053D01*
X133114974Y-111315024D01*
X133020001Y-111199299D01*
X132991004Y-111175502D01*
X132955502Y-111140000D01*
X146321928Y-111140000D01*
X146334188Y-111264482D01*
X146370498Y-111384180D01*
X146429463Y-111494494D01*
X146508815Y-111591185D01*
X146605506Y-111670537D01*
X146715820Y-111729502D01*
X146835518Y-111765812D01*
X146960000Y-111778072D01*
X147434250Y-111775000D01*
X147593000Y-111616250D01*
X147593000Y-110507000D01*
X146483750Y-110507000D01*
X146325000Y-110665750D01*
X146321928Y-111140000D01*
X132955502Y-111140000D01*
X132438574Y-110623072D01*
X132742000Y-110623072D01*
X132915254Y-110606008D01*
X133081850Y-110555472D01*
X133235386Y-110473405D01*
X133369962Y-110362962D01*
X133480405Y-110228386D01*
X133562472Y-110074850D01*
X133613008Y-109908254D01*
X133616776Y-109870000D01*
X135618178Y-109870000D01*
X135655500Y-109873676D01*
X135692822Y-109870000D01*
X135692833Y-109870000D01*
X135804486Y-109859003D01*
X135947747Y-109815546D01*
X136079776Y-109744974D01*
X136195501Y-109650001D01*
X136219304Y-109620997D01*
X136220301Y-109620000D01*
X146321928Y-109620000D01*
X146325000Y-110094250D01*
X146483750Y-110253000D01*
X147593000Y-110253000D01*
X147593000Y-110233000D01*
X147847000Y-110233000D01*
X147847000Y-110253000D01*
X147867000Y-110253000D01*
X147867000Y-110507000D01*
X147847000Y-110507000D01*
X147847000Y-111616250D01*
X148005750Y-111775000D01*
X148480000Y-111778072D01*
X148604482Y-111765812D01*
X148724180Y-111729502D01*
X148834494Y-111670537D01*
X148931185Y-111591185D01*
X149010537Y-111494494D01*
X149069502Y-111384180D01*
X149105812Y-111264482D01*
X149118072Y-111140000D01*
X149117910Y-111115024D01*
X149295863Y-111164531D01*
X150080395Y-110380000D01*
X150066253Y-110365858D01*
X150245858Y-110186253D01*
X150260000Y-110200395D01*
X150274143Y-110186253D01*
X150453748Y-110365858D01*
X150439605Y-110380000D01*
X150453748Y-110394143D01*
X150274142Y-110573748D01*
X150260000Y-110559605D01*
X149475469Y-111344137D01*
X149542206Y-111584025D01*
X149790892Y-111700924D01*
X150057606Y-111767061D01*
X150332097Y-111779895D01*
X150603817Y-111738931D01*
X150862326Y-111645744D01*
X150977794Y-111584025D01*
X151044531Y-111344139D01*
X151160948Y-111460556D01*
X151204302Y-111417203D01*
X151777401Y-111990302D01*
X151801199Y-112019301D01*
X151830197Y-112043099D01*
X151916923Y-112114274D01*
X152002470Y-112160000D01*
X152048953Y-112184846D01*
X152192214Y-112228303D01*
X152303867Y-112239300D01*
X152303876Y-112239300D01*
X152341199Y-112242976D01*
X152378522Y-112239300D01*
X186229578Y-112239300D01*
X186266900Y-112242976D01*
X186304222Y-112239300D01*
X186304233Y-112239300D01*
X186415886Y-112228303D01*
X186559147Y-112184846D01*
X186691176Y-112114274D01*
X186806901Y-112019301D01*
X186830703Y-111990298D01*
X187409749Y-111411253D01*
X187459052Y-111460556D01*
X187575469Y-111344139D01*
X187642206Y-111584025D01*
X187890892Y-111700924D01*
X188157606Y-111767061D01*
X188432097Y-111779895D01*
X188703817Y-111738931D01*
X188962326Y-111645744D01*
X189077794Y-111584025D01*
X189144531Y-111344137D01*
X188360000Y-110559605D01*
X188345858Y-110573748D01*
X188166253Y-110394143D01*
X188180395Y-110380000D01*
X188539605Y-110380000D01*
X189324137Y-111164531D01*
X189564025Y-111097794D01*
X189680924Y-110849108D01*
X189747061Y-110582394D01*
X189759895Y-110307903D01*
X189718931Y-110036183D01*
X189625744Y-109777674D01*
X189564025Y-109662206D01*
X189324137Y-109595469D01*
X188539605Y-110380000D01*
X188180395Y-110380000D01*
X188166252Y-110365858D01*
X188345858Y-110186252D01*
X188360000Y-110200395D01*
X189144531Y-109415863D01*
X189077794Y-109175975D01*
X188938293Y-109110400D01*
X189020780Y-109076233D01*
X189249261Y-108923567D01*
X189443567Y-108729261D01*
X189596233Y-108500780D01*
X189701391Y-108246907D01*
X189755000Y-107977396D01*
X189755000Y-107702604D01*
X189701391Y-107433093D01*
X189596233Y-107179220D01*
X189443567Y-106950739D01*
X189249261Y-106756433D01*
X189089930Y-106649971D01*
X195315704Y-100424198D01*
X195344701Y-100400401D01*
X195439674Y-100284676D01*
X195510246Y-100152647D01*
X195553703Y-100009386D01*
X195564700Y-99897733D01*
X195564700Y-99897732D01*
X195568377Y-99860400D01*
X195564700Y-99823067D01*
X195564700Y-91483759D01*
X195623110Y-91501476D01*
X195853000Y-91380155D01*
X195853000Y-90187000D01*
X196107000Y-90187000D01*
X196107000Y-91380155D01*
X196336890Y-91501476D01*
X196484099Y-91456825D01*
X196746920Y-91331641D01*
X196980269Y-91157588D01*
X197175178Y-90941355D01*
X197324157Y-90691252D01*
X197421481Y-90416891D01*
X197300814Y-90187000D01*
X196107000Y-90187000D01*
X195853000Y-90187000D01*
X195833000Y-90187000D01*
X195833000Y-89933000D01*
X195853000Y-89933000D01*
X195853000Y-89913000D01*
X196107000Y-89913000D01*
X196107000Y-89933000D01*
X197300814Y-89933000D01*
X197421481Y-89703109D01*
X197324157Y-89428748D01*
X197175178Y-89178645D01*
X196980269Y-88962412D01*
X196750594Y-88791100D01*
X196926632Y-88673475D01*
X197133475Y-88466632D01*
X197295990Y-88223411D01*
X197407932Y-87953158D01*
X197465000Y-87666260D01*
X197465000Y-87373740D01*
X197407932Y-87086842D01*
X197295990Y-86816589D01*
X197133475Y-86573368D01*
X196926632Y-86366525D01*
X196683411Y-86204010D01*
X196413158Y-86092068D01*
X196126260Y-86035000D01*
X195833740Y-86035000D01*
X195546842Y-86092068D01*
X195276589Y-86204010D01*
X195033368Y-86366525D01*
X194826525Y-86573368D01*
X194710000Y-86747760D01*
X194593475Y-86573368D01*
X194386632Y-86366525D01*
X194143411Y-86204010D01*
X193873158Y-86092068D01*
X193586260Y-86035000D01*
X193293740Y-86035000D01*
X193006842Y-86092068D01*
X192736589Y-86204010D01*
X192493368Y-86366525D01*
X192286525Y-86573368D01*
X192170000Y-86747760D01*
X192053475Y-86573368D01*
X191846632Y-86366525D01*
X191603411Y-86204010D01*
X191333158Y-86092068D01*
X191046260Y-86035000D01*
X190753740Y-86035000D01*
X190466842Y-86092068D01*
X190196589Y-86204010D01*
X189953368Y-86366525D01*
X189746525Y-86573368D01*
X189630000Y-86747760D01*
X189513475Y-86573368D01*
X189306632Y-86366525D01*
X189063411Y-86204010D01*
X188793158Y-86092068D01*
X188506260Y-86035000D01*
X188213740Y-86035000D01*
X187926842Y-86092068D01*
X187656589Y-86204010D01*
X187413368Y-86366525D01*
X187206525Y-86573368D01*
X187090000Y-86747760D01*
X186973475Y-86573368D01*
X186766632Y-86366525D01*
X186523411Y-86204010D01*
X186253158Y-86092068D01*
X185966260Y-86035000D01*
X185673740Y-86035000D01*
X185386842Y-86092068D01*
X185116589Y-86204010D01*
X184873368Y-86366525D01*
X184666525Y-86573368D01*
X184550000Y-86747760D01*
X184433475Y-86573368D01*
X184226632Y-86366525D01*
X183983411Y-86204010D01*
X183713158Y-86092068D01*
X183426260Y-86035000D01*
X183133740Y-86035000D01*
X182846842Y-86092068D01*
X182576589Y-86204010D01*
X182333368Y-86366525D01*
X182126525Y-86573368D01*
X182010000Y-86747760D01*
X181893475Y-86573368D01*
X181686632Y-86366525D01*
X181443411Y-86204010D01*
X181173158Y-86092068D01*
X180886260Y-86035000D01*
X180593740Y-86035000D01*
X180306842Y-86092068D01*
X180036589Y-86204010D01*
X179793368Y-86366525D01*
X179586525Y-86573368D01*
X179470000Y-86747760D01*
X179353475Y-86573368D01*
X179146632Y-86366525D01*
X178903411Y-86204010D01*
X178633158Y-86092068D01*
X178346260Y-86035000D01*
X178053740Y-86035000D01*
X177766842Y-86092068D01*
X177496589Y-86204010D01*
X177253368Y-86366525D01*
X177046525Y-86573368D01*
X176930000Y-86747760D01*
X176813475Y-86573368D01*
X176606632Y-86366525D01*
X176363411Y-86204010D01*
X176093158Y-86092068D01*
X175806260Y-86035000D01*
X175513740Y-86035000D01*
X175226842Y-86092068D01*
X174956589Y-86204010D01*
X174713368Y-86366525D01*
X174506525Y-86573368D01*
X174390000Y-86747760D01*
X174273475Y-86573368D01*
X174066632Y-86366525D01*
X173823411Y-86204010D01*
X173553158Y-86092068D01*
X173266260Y-86035000D01*
X172973740Y-86035000D01*
X172686842Y-86092068D01*
X172416589Y-86204010D01*
X172173368Y-86366525D01*
X171966525Y-86573368D01*
X171850000Y-86747760D01*
X171733475Y-86573368D01*
X171526632Y-86366525D01*
X171283411Y-86204010D01*
X171013158Y-86092068D01*
X170726260Y-86035000D01*
X170433740Y-86035000D01*
X170146842Y-86092068D01*
X169876589Y-86204010D01*
X169633368Y-86366525D01*
X169426525Y-86573368D01*
X169310000Y-86747760D01*
X169193475Y-86573368D01*
X168986632Y-86366525D01*
X168743411Y-86204010D01*
X168473158Y-86092068D01*
X168186260Y-86035000D01*
X167893740Y-86035000D01*
X167606842Y-86092068D01*
X167336589Y-86204010D01*
X167093368Y-86366525D01*
X166886525Y-86573368D01*
X166770000Y-86747760D01*
X166653475Y-86573368D01*
X166446632Y-86366525D01*
X166203411Y-86204010D01*
X165933158Y-86092068D01*
X165646260Y-86035000D01*
X165353740Y-86035000D01*
X165066842Y-86092068D01*
X164796589Y-86204010D01*
X164553368Y-86366525D01*
X164346525Y-86573368D01*
X164230000Y-86747760D01*
X164113475Y-86573368D01*
X163906632Y-86366525D01*
X163663411Y-86204010D01*
X163393158Y-86092068D01*
X163106260Y-86035000D01*
X162813740Y-86035000D01*
X162526842Y-86092068D01*
X162256589Y-86204010D01*
X162013368Y-86366525D01*
X161806525Y-86573368D01*
X161690000Y-86747760D01*
X161573475Y-86573368D01*
X161366632Y-86366525D01*
X161123411Y-86204010D01*
X160853158Y-86092068D01*
X160566260Y-86035000D01*
X160273740Y-86035000D01*
X159986842Y-86092068D01*
X159716589Y-86204010D01*
X159473368Y-86366525D01*
X159266525Y-86573368D01*
X159150000Y-86747760D01*
X159033475Y-86573368D01*
X158826632Y-86366525D01*
X158583411Y-86204010D01*
X158313158Y-86092068D01*
X158026260Y-86035000D01*
X157733740Y-86035000D01*
X157446842Y-86092068D01*
X157176589Y-86204010D01*
X156933368Y-86366525D01*
X156726525Y-86573368D01*
X156610000Y-86747760D01*
X156493475Y-86573368D01*
X156286632Y-86366525D01*
X156043411Y-86204010D01*
X155773158Y-86092068D01*
X155486260Y-86035000D01*
X155193740Y-86035000D01*
X154906842Y-86092068D01*
X154636589Y-86204010D01*
X154393368Y-86366525D01*
X154186525Y-86573368D01*
X154024010Y-86816589D01*
X153912068Y-87086842D01*
X153855000Y-87373740D01*
X153855000Y-87666260D01*
X153912068Y-87953158D01*
X154024010Y-88223411D01*
X154186525Y-88466632D01*
X154318380Y-88598487D01*
X154245820Y-88620498D01*
X154135506Y-88679463D01*
X154038815Y-88758815D01*
X153959463Y-88855506D01*
X153900498Y-88965820D01*
X153864188Y-89085518D01*
X153851928Y-89210000D01*
X153855000Y-89774250D01*
X154013750Y-89933000D01*
X155213000Y-89933000D01*
X155213000Y-89913000D01*
X155467000Y-89913000D01*
X155467000Y-89933000D01*
X155487000Y-89933000D01*
X155487000Y-90187000D01*
X155467000Y-90187000D01*
X155467000Y-91386250D01*
X155625750Y-91545000D01*
X155944701Y-91546736D01*
X155944701Y-92412597D01*
X149749003Y-98608296D01*
X149719999Y-98632099D01*
X149670949Y-98691867D01*
X149625026Y-98747824D01*
X149584750Y-98823175D01*
X149554454Y-98879854D01*
X149510997Y-99023115D01*
X149500000Y-99134768D01*
X149500000Y-99134778D01*
X149496324Y-99172100D01*
X149500000Y-99209422D01*
X149500001Y-106670063D01*
X149370739Y-106756433D01*
X149176433Y-106950739D01*
X149023767Y-107179220D01*
X148990000Y-107260740D01*
X148956233Y-107179220D01*
X148803567Y-106950739D01*
X148609261Y-106756433D01*
X148380780Y-106603767D01*
X148126907Y-106498609D01*
X147857396Y-106445000D01*
X147582604Y-106445000D01*
X147313093Y-106498609D01*
X147059220Y-106603767D01*
X146830739Y-106756433D01*
X146636433Y-106950739D01*
X146483767Y-107179220D01*
X146378609Y-107433093D01*
X146325000Y-107702604D01*
X146325000Y-107977396D01*
X146378609Y-108246907D01*
X146483767Y-108500780D01*
X146636433Y-108729261D01*
X146830739Y-108923567D01*
X146923467Y-108985526D01*
X146835518Y-108994188D01*
X146715820Y-109030498D01*
X146605506Y-109089463D01*
X146508815Y-109168815D01*
X146429463Y-109265506D01*
X146370498Y-109375820D01*
X146334188Y-109495518D01*
X146321928Y-109620000D01*
X136220301Y-109620000D01*
X140283506Y-105556795D01*
X140397999Y-105568072D01*
X141223001Y-105568072D01*
X141396255Y-105551008D01*
X141562851Y-105500472D01*
X141716387Y-105418405D01*
X141850962Y-105307962D01*
X141961405Y-105173387D01*
X142043472Y-105019851D01*
X142094008Y-104853255D01*
X142111072Y-104680001D01*
X142111072Y-103379999D01*
X142094008Y-103206745D01*
X142049635Y-103060466D01*
X143151003Y-101959099D01*
X143180001Y-101935301D01*
X143274974Y-101819576D01*
X143334575Y-101708072D01*
X143490000Y-101708072D01*
X143614482Y-101695812D01*
X143734180Y-101659502D01*
X143844494Y-101600537D01*
X143941185Y-101521185D01*
X144020537Y-101424494D01*
X144079502Y-101314180D01*
X144115812Y-101194482D01*
X144128072Y-101070000D01*
X144128072Y-99370000D01*
X144115812Y-99245518D01*
X144079502Y-99125820D01*
X144020537Y-99015506D01*
X143941185Y-98918815D01*
X143844494Y-98839463D01*
X143734180Y-98780498D01*
X143614482Y-98744188D01*
X143490000Y-98731928D01*
X141790000Y-98731928D01*
X141665518Y-98744188D01*
X141545820Y-98780498D01*
X141435506Y-98839463D01*
X141338815Y-98918815D01*
X141259463Y-99015506D01*
X141200498Y-99125820D01*
X141176034Y-99206466D01*
X141100269Y-99122412D01*
X140866920Y-98948359D01*
X140604099Y-98823175D01*
X140456890Y-98778524D01*
X140227000Y-98899845D01*
X140227000Y-100093000D01*
X140247000Y-100093000D01*
X140247000Y-100347000D01*
X140227000Y-100347000D01*
X140227000Y-101540155D01*
X140456890Y-101661476D01*
X140604099Y-101616825D01*
X140866920Y-101491641D01*
X141100269Y-101317588D01*
X141176034Y-101233534D01*
X141200498Y-101314180D01*
X141259463Y-101424494D01*
X141338815Y-101521185D01*
X141394013Y-101566485D01*
X140468571Y-102491928D01*
X140397999Y-102491928D01*
X140224745Y-102508992D01*
X140058149Y-102559528D01*
X139904613Y-102641595D01*
X139770038Y-102752038D01*
X139659595Y-102886613D01*
X139577528Y-103040149D01*
X139526992Y-103206745D01*
X139509928Y-103379999D01*
X139509928Y-104180770D01*
X138984950Y-104705748D01*
X138983000Y-104315750D01*
X138824250Y-104157000D01*
X137812500Y-104157000D01*
X137812500Y-105406250D01*
X137971250Y-105565000D01*
X138124449Y-105566249D01*
X135340699Y-108350000D01*
X133616776Y-108350000D01*
X133613008Y-108311746D01*
X133562472Y-108145150D01*
X133480405Y-107991614D01*
X133369962Y-107857038D01*
X133235386Y-107746595D01*
X133081850Y-107664528D01*
X132915254Y-107613992D01*
X132742000Y-107596928D01*
X131942000Y-107596928D01*
X131768746Y-107613992D01*
X131602150Y-107664528D01*
X131448614Y-107746595D01*
X131314038Y-107857038D01*
X131203595Y-107991614D01*
X131121528Y-108145150D01*
X131070992Y-108311746D01*
X131053928Y-108485000D01*
X131053928Y-109260771D01*
X130750299Y-109564400D01*
X130530072Y-109564400D01*
X130530072Y-108485000D01*
X130513008Y-108311746D01*
X130462472Y-108145150D01*
X130380405Y-107991614D01*
X130269962Y-107857038D01*
X130135386Y-107746595D01*
X129981850Y-107664528D01*
X129815254Y-107613992D01*
X129642000Y-107596928D01*
X128866229Y-107596928D01*
X128160000Y-106890699D01*
X128160000Y-106518043D01*
X128314759Y-106414637D01*
X128514637Y-106214759D01*
X128670000Y-105982241D01*
X128825363Y-106214759D01*
X129025241Y-106414637D01*
X129260273Y-106571680D01*
X129521426Y-106679853D01*
X129798665Y-106735000D01*
X130081335Y-106735000D01*
X130358574Y-106679853D01*
X130619727Y-106571680D01*
X130854759Y-106414637D01*
X131053357Y-106216039D01*
X131054188Y-106224482D01*
X131090498Y-106344180D01*
X131149463Y-106454494D01*
X131228815Y-106551185D01*
X131325506Y-106630537D01*
X131435820Y-106689502D01*
X131555518Y-106725812D01*
X131680000Y-106738072D01*
X133280000Y-106738072D01*
X133404482Y-106725812D01*
X133524180Y-106689502D01*
X133634494Y-106630537D01*
X133731185Y-106551185D01*
X133810537Y-106454494D01*
X133869502Y-106344180D01*
X133905812Y-106224482D01*
X133918072Y-106100000D01*
X133918072Y-104930000D01*
X136384928Y-104930000D01*
X136397188Y-105054482D01*
X136433498Y-105174180D01*
X136492463Y-105284494D01*
X136571815Y-105381185D01*
X136668506Y-105460537D01*
X136778820Y-105519502D01*
X136898518Y-105555812D01*
X137023000Y-105568072D01*
X137399750Y-105565000D01*
X137558500Y-105406250D01*
X137558500Y-104157000D01*
X136546750Y-104157000D01*
X136388000Y-104315750D01*
X136384928Y-104930000D01*
X133918072Y-104930000D01*
X133918072Y-104500000D01*
X133905812Y-104375518D01*
X133869502Y-104255820D01*
X133810537Y-104145506D01*
X133731185Y-104048815D01*
X133634494Y-103969463D01*
X133562031Y-103930730D01*
X133576201Y-103919101D01*
X133600004Y-103890097D01*
X134360101Y-103130000D01*
X136384928Y-103130000D01*
X136388000Y-103744250D01*
X136546750Y-103903000D01*
X137558500Y-103903000D01*
X137558500Y-102653750D01*
X137812500Y-102653750D01*
X137812500Y-103903000D01*
X138824250Y-103903000D01*
X138983000Y-103744250D01*
X138986072Y-103130000D01*
X138973812Y-103005518D01*
X138937502Y-102885820D01*
X138878537Y-102775506D01*
X138799185Y-102678815D01*
X138702494Y-102599463D01*
X138592180Y-102540498D01*
X138472482Y-102504188D01*
X138348000Y-102491928D01*
X137971250Y-102495000D01*
X137812500Y-102653750D01*
X137558500Y-102653750D01*
X137399750Y-102495000D01*
X137023000Y-102491928D01*
X136898518Y-102504188D01*
X136778820Y-102540498D01*
X136668506Y-102599463D01*
X136571815Y-102678815D01*
X136492463Y-102775506D01*
X136433498Y-102885820D01*
X136397188Y-103005518D01*
X136384928Y-103130000D01*
X134360101Y-103130000D01*
X135531003Y-101959099D01*
X135560001Y-101935301D01*
X135654974Y-101819576D01*
X135725546Y-101687547D01*
X135769003Y-101544286D01*
X135773089Y-101502796D01*
X135966632Y-101373475D01*
X136173475Y-101166632D01*
X136295195Y-100984466D01*
X136364822Y-101101355D01*
X136559731Y-101317588D01*
X136793080Y-101491641D01*
X137055901Y-101616825D01*
X137203110Y-101661476D01*
X137433000Y-101540155D01*
X137433000Y-100347000D01*
X137687000Y-100347000D01*
X137687000Y-101540155D01*
X137916890Y-101661476D01*
X138064099Y-101616825D01*
X138326920Y-101491641D01*
X138560269Y-101317588D01*
X138755178Y-101101355D01*
X138830000Y-100975745D01*
X138904822Y-101101355D01*
X139099731Y-101317588D01*
X139333080Y-101491641D01*
X139595901Y-101616825D01*
X139743110Y-101661476D01*
X139973000Y-101540155D01*
X139973000Y-100347000D01*
X137687000Y-100347000D01*
X137433000Y-100347000D01*
X137413000Y-100347000D01*
X137413000Y-100093000D01*
X137433000Y-100093000D01*
X137433000Y-98899845D01*
X137687000Y-98899845D01*
X137687000Y-100093000D01*
X139973000Y-100093000D01*
X139973000Y-98899845D01*
X139743110Y-98778524D01*
X139595901Y-98823175D01*
X139333080Y-98948359D01*
X139099731Y-99122412D01*
X138904822Y-99338645D01*
X138830000Y-99464255D01*
X138755178Y-99338645D01*
X138560269Y-99122412D01*
X138326920Y-98948359D01*
X138064099Y-98823175D01*
X137916890Y-98778524D01*
X137687000Y-98899845D01*
X137433000Y-98899845D01*
X137203110Y-98778524D01*
X137055901Y-98823175D01*
X136793080Y-98948359D01*
X136559731Y-99122412D01*
X136364822Y-99338645D01*
X136295195Y-99455534D01*
X136173475Y-99273368D01*
X135966632Y-99066525D01*
X135723411Y-98904010D01*
X135453158Y-98792068D01*
X135166260Y-98735000D01*
X134873740Y-98735000D01*
X134586842Y-98792068D01*
X134316589Y-98904010D01*
X134073368Y-99066525D01*
X133866525Y-99273368D01*
X133704010Y-99516589D01*
X133592068Y-99786842D01*
X133535000Y-100073740D01*
X133535000Y-100366260D01*
X133592068Y-100653158D01*
X133704010Y-100923411D01*
X133866525Y-101166632D01*
X134020196Y-101320303D01*
X132721399Y-102619100D01*
X132414157Y-102619100D01*
X132423881Y-102609578D01*
X132429978Y-102602208D01*
X132676679Y-102299724D01*
X132711047Y-102247995D01*
X132746111Y-102196785D01*
X132750661Y-102188372D01*
X132933910Y-101843730D01*
X132957555Y-101786364D01*
X132982028Y-101729264D01*
X132984856Y-101720127D01*
X133097674Y-101346456D01*
X133109737Y-101285531D01*
X133122641Y-101224826D01*
X133123641Y-101215314D01*
X133161731Y-100826845D01*
X133161731Y-100826837D01*
X133165000Y-100793647D01*
X133165000Y-97963736D01*
X135303736Y-95825000D01*
X148293647Y-95825000D01*
X148323645Y-95822045D01*
X148336047Y-95822132D01*
X148345565Y-95821198D01*
X148733758Y-95780397D01*
X148794539Y-95767920D01*
X148855560Y-95756280D01*
X148864716Y-95753516D01*
X149237591Y-95638092D01*
X149294870Y-95614014D01*
X149352388Y-95590775D01*
X149360833Y-95586286D01*
X149704188Y-95400634D01*
X149755635Y-95365932D01*
X149807610Y-95331921D01*
X149815022Y-95325876D01*
X150115777Y-95077069D01*
X150159524Y-95033016D01*
X150203881Y-94989578D01*
X150209978Y-94982208D01*
X150456679Y-94679724D01*
X150491047Y-94627995D01*
X150526111Y-94576785D01*
X150530661Y-94568372D01*
X150713910Y-94223730D01*
X150737555Y-94166364D01*
X150762028Y-94109264D01*
X150764856Y-94100127D01*
X150877674Y-93726456D01*
X150889737Y-93665531D01*
X150902641Y-93604826D01*
X150903641Y-93595314D01*
X150941731Y-93206845D01*
X150941731Y-93206837D01*
X150945000Y-93173647D01*
X150945000Y-90910000D01*
X153851928Y-90910000D01*
X153864188Y-91034482D01*
X153900498Y-91154180D01*
X153959463Y-91264494D01*
X154038815Y-91361185D01*
X154135506Y-91440537D01*
X154245820Y-91499502D01*
X154365518Y-91535812D01*
X154490000Y-91548072D01*
X155054250Y-91545000D01*
X155213000Y-91386250D01*
X155213000Y-90187000D01*
X154013750Y-90187000D01*
X153855000Y-90345750D01*
X153851928Y-90910000D01*
X150945000Y-90910000D01*
X150945000Y-87803736D01*
X153083736Y-85665000D01*
X199026495Y-85665000D01*
X199314782Y-85693267D01*
%TA.AperFunction,Conductor*%
D19*
G36*
X199314782Y-85693267D02*
G01*
X199559855Y-85767259D01*
X199785890Y-85887443D01*
X199984281Y-86049248D01*
X200147460Y-86246497D01*
X200269220Y-86471687D01*
X200344924Y-86716247D01*
X200375001Y-87002408D01*
X200375000Y-113426495D01*
X200346733Y-113714782D01*
X200272741Y-113959855D01*
X200152554Y-114185893D01*
X199990754Y-114384279D01*
X199793503Y-114547460D01*
X199568310Y-114669221D01*
X199323753Y-114744924D01*
X199037602Y-114775000D01*
X104033505Y-114775000D01*
X103745218Y-114746733D01*
X103500145Y-114672741D01*
X103274107Y-114552554D01*
X103075721Y-114390754D01*
X102912540Y-114193503D01*
X102790779Y-113968310D01*
X102715076Y-113723753D01*
X102685000Y-113437602D01*
X102685000Y-108196890D01*
X110718524Y-108196890D01*
X110763175Y-108344099D01*
X110888359Y-108606920D01*
X111062412Y-108840269D01*
X111278645Y-109035178D01*
X111404255Y-109110000D01*
X111278645Y-109184822D01*
X111062412Y-109379731D01*
X110888359Y-109613080D01*
X110763175Y-109875901D01*
X110718524Y-110023110D01*
X110839845Y-110253000D01*
X112033000Y-110253000D01*
X112033000Y-107967000D01*
X112287000Y-107967000D01*
X112287000Y-110253000D01*
X113480155Y-110253000D01*
X113601476Y-110023110D01*
X113556825Y-109875901D01*
X113431641Y-109613080D01*
X113257588Y-109379731D01*
X113041355Y-109184822D01*
X112915745Y-109110000D01*
X113041355Y-109035178D01*
X113257588Y-108840269D01*
X113431641Y-108606920D01*
X113556825Y-108344099D01*
X113601476Y-108196890D01*
X113480155Y-107967000D01*
X112287000Y-107967000D01*
X112033000Y-107967000D01*
X110839845Y-107967000D01*
X110718524Y-108196890D01*
X102685000Y-108196890D01*
X102685000Y-104793505D01*
X102713267Y-104505218D01*
X102787259Y-104260145D01*
X102907443Y-104034110D01*
X103069248Y-103835719D01*
X103266497Y-103672540D01*
X103491687Y-103550780D01*
X103736247Y-103475076D01*
X104022398Y-103445000D01*
X114115498Y-103445000D01*
X113260303Y-104300196D01*
X113106632Y-104146525D01*
X112863411Y-103984010D01*
X112593158Y-103872068D01*
X112306260Y-103815000D01*
X112013740Y-103815000D01*
X111726842Y-103872068D01*
X111456589Y-103984010D01*
X111213368Y-104146525D01*
X111006525Y-104353368D01*
X110844010Y-104596589D01*
X110732068Y-104866842D01*
X110675000Y-105153740D01*
X110675000Y-105446260D01*
X110732068Y-105733158D01*
X110844010Y-106003411D01*
X111006525Y-106246632D01*
X111213368Y-106453475D01*
X111395534Y-106575195D01*
X111278645Y-106644822D01*
X111062412Y-106839731D01*
X110888359Y-107073080D01*
X110763175Y-107335901D01*
X110718524Y-107483110D01*
X110839845Y-107713000D01*
X112033000Y-107713000D01*
X112033000Y-107693000D01*
X112287000Y-107693000D01*
X112287000Y-107713000D01*
X113480155Y-107713000D01*
X113601476Y-107483110D01*
X113556825Y-107335901D01*
X113431641Y-107073080D01*
X113257588Y-106839731D01*
X113041355Y-106644822D01*
X112924466Y-106575195D01*
X113106632Y-106453475D01*
X113313475Y-106246632D01*
X113442796Y-106053089D01*
X113484286Y-106049003D01*
X113627547Y-106005546D01*
X113759576Y-105934974D01*
X113875301Y-105840001D01*
X113899104Y-105810997D01*
X114061061Y-105649040D01*
X115848091Y-105649040D01*
X115942930Y-105913881D01*
X116087615Y-106155131D01*
X116276586Y-106363519D01*
X116502580Y-106531037D01*
X116756913Y-106651246D01*
X116890961Y-106691904D01*
X117113000Y-106569915D01*
X117113000Y-105427000D01*
X115969376Y-105427000D01*
X115848091Y-105649040D01*
X114061061Y-105649040D01*
X115571002Y-104139100D01*
X116407960Y-104139100D01*
X116276586Y-104236481D01*
X116087615Y-104444869D01*
X115942930Y-104686119D01*
X115848091Y-104950960D01*
X115969376Y-105173000D01*
X117113000Y-105173000D01*
X117113000Y-105153000D01*
X117367000Y-105153000D01*
X117367000Y-105173000D01*
X117387000Y-105173000D01*
X117387000Y-105427000D01*
X117367000Y-105427000D01*
X117367000Y-106569915D01*
X117589039Y-106691904D01*
X117723087Y-106651246D01*
X117977420Y-106531037D01*
X118203414Y-106363519D01*
X118392385Y-106155131D01*
X118503933Y-105969135D01*
X118508320Y-105979727D01*
X118665363Y-106214759D01*
X118865241Y-106414637D01*
X119025843Y-106521948D01*
X119030568Y-106569915D01*
X119030998Y-106574285D01*
X119074454Y-106717546D01*
X119145026Y-106849576D01*
X119197286Y-106913254D01*
X119240000Y-106965301D01*
X119268998Y-106989099D01*
X120893928Y-108614030D01*
X120893928Y-109564400D01*
X120370072Y-109564400D01*
X120370072Y-108485000D01*
X120353008Y-108311746D01*
X120302472Y-108145150D01*
X120220405Y-107991614D01*
X120109962Y-107857038D01*
X119975386Y-107746595D01*
X119821850Y-107664528D01*
X119655254Y-107613992D01*
X119482000Y-107596928D01*
X118682000Y-107596928D01*
X118508746Y-107613992D01*
X118342150Y-107664528D01*
X118188614Y-107746595D01*
X118054038Y-107857038D01*
X117943595Y-107991614D01*
X117861528Y-108145150D01*
X117810992Y-108311746D01*
X117793928Y-108485000D01*
X117793928Y-109564400D01*
X115968225Y-109564400D01*
X115930900Y-109560724D01*
X115893575Y-109564400D01*
X115893567Y-109564400D01*
X115781914Y-109575397D01*
X115638653Y-109618854D01*
X115506624Y-109689426D01*
X115390899Y-109784399D01*
X115367101Y-109813397D01*
X113506485Y-111674014D01*
X113461185Y-111618815D01*
X113364494Y-111539463D01*
X113254180Y-111480498D01*
X113173534Y-111456034D01*
X113257588Y-111380269D01*
X113431641Y-111146920D01*
X113556825Y-110884099D01*
X113601476Y-110736890D01*
X113480155Y-110507000D01*
X112287000Y-110507000D01*
X112287000Y-110527000D01*
X112033000Y-110527000D01*
X112033000Y-110507000D01*
X110839845Y-110507000D01*
X110718524Y-110736890D01*
X110763175Y-110884099D01*
X110888359Y-111146920D01*
X111062412Y-111380269D01*
X111146466Y-111456034D01*
X111065820Y-111480498D01*
X110955506Y-111539463D01*
X110858815Y-111618815D01*
X110779463Y-111715506D01*
X110720498Y-111825820D01*
X110684188Y-111945518D01*
X110671928Y-112070000D01*
X110671928Y-113770000D01*
X110684188Y-113894482D01*
X110720498Y-114014180D01*
X110779463Y-114124494D01*
X110858815Y-114221185D01*
X110955506Y-114300537D01*
X111065820Y-114359502D01*
X111185518Y-114395812D01*
X111310000Y-114408072D01*
X113010000Y-114408072D01*
X113134482Y-114395812D01*
X113254180Y-114359502D01*
X113364494Y-114300537D01*
X113461185Y-114221185D01*
X113540537Y-114124494D01*
X113599502Y-114014180D01*
X113635812Y-113894482D01*
X113648072Y-113770000D01*
X113648072Y-113614575D01*
X113759576Y-113554974D01*
X113875301Y-113460001D01*
X113899104Y-113430997D01*
X116245702Y-111084400D01*
X119107167Y-111084400D01*
X119144500Y-111088077D01*
X119181833Y-111084400D01*
X130750299Y-111084400D01*
X131518251Y-111852353D01*
X131365363Y-112005241D01*
X131210000Y-112237759D01*
X131054637Y-112005241D01*
X130854759Y-111805363D01*
X130619727Y-111648320D01*
X130358574Y-111540147D01*
X130081335Y-111485000D01*
X129798665Y-111485000D01*
X129521426Y-111540147D01*
X129260273Y-111648320D01*
X129025241Y-111805363D01*
X128825363Y-112005241D01*
X128670000Y-112237759D01*
X128514637Y-112005241D01*
X128314759Y-111805363D01*
X128079727Y-111648320D01*
X127818574Y-111540147D01*
X127541335Y-111485000D01*
X127258665Y-111485000D01*
X126981426Y-111540147D01*
X126720273Y-111648320D01*
X126485241Y-111805363D01*
X126285363Y-112005241D01*
X126130000Y-112237759D01*
X125974637Y-112005241D01*
X125774759Y-111805363D01*
X125539727Y-111648320D01*
X125278574Y-111540147D01*
X125001335Y-111485000D01*
X124718665Y-111485000D01*
X124441426Y-111540147D01*
X124180273Y-111648320D01*
X123945241Y-111805363D01*
X123745363Y-112005241D01*
X123590000Y-112237759D01*
X123434637Y-112005241D01*
X123234759Y-111805363D01*
X122999727Y-111648320D01*
X122738574Y-111540147D01*
X122461335Y-111485000D01*
X122178665Y-111485000D01*
X121901426Y-111540147D01*
X121640273Y-111648320D01*
X121405241Y-111805363D01*
X121205363Y-112005241D01*
X121050000Y-112237759D01*
X120894637Y-112005241D01*
X120694759Y-111805363D01*
X120459727Y-111648320D01*
X120198574Y-111540147D01*
X119921335Y-111485000D01*
X119638665Y-111485000D01*
X119361426Y-111540147D01*
X119100273Y-111648320D01*
X118865241Y-111805363D01*
X118665363Y-112005241D01*
X118510000Y-112237759D01*
X118354637Y-112005241D01*
X118154759Y-111805363D01*
X117919727Y-111648320D01*
X117658574Y-111540147D01*
X117381335Y-111485000D01*
X117098665Y-111485000D01*
X116821426Y-111540147D01*
X116560273Y-111648320D01*
X116325241Y-111805363D01*
X116125363Y-112005241D01*
X115968320Y-112240273D01*
X115860147Y-112501426D01*
X115805000Y-112778665D01*
X115805000Y-113061335D01*
X115860147Y-113338574D01*
X115968320Y-113599727D01*
X116125363Y-113834759D01*
X116325241Y-114034637D01*
X116560273Y-114191680D01*
X116821426Y-114299853D01*
X117098665Y-114355000D01*
X117381335Y-114355000D01*
X117658574Y-114299853D01*
X117919727Y-114191680D01*
X118154759Y-114034637D01*
X118354637Y-113834759D01*
X118510000Y-113602241D01*
X118665363Y-113834759D01*
X118865241Y-114034637D01*
X119100273Y-114191680D01*
X119361426Y-114299853D01*
X119638665Y-114355000D01*
X119921335Y-114355000D01*
X120198574Y-114299853D01*
X120459727Y-114191680D01*
X120694759Y-114034637D01*
X120894637Y-113834759D01*
X121050000Y-113602241D01*
X121205363Y-113834759D01*
X121405241Y-114034637D01*
X121640273Y-114191680D01*
X121901426Y-114299853D01*
X122178665Y-114355000D01*
X122461335Y-114355000D01*
X122738574Y-114299853D01*
X122999727Y-114191680D01*
X123234759Y-114034637D01*
X123434637Y-113834759D01*
X123590000Y-113602241D01*
X123745363Y-113834759D01*
X123945241Y-114034637D01*
X124180273Y-114191680D01*
X124441426Y-114299853D01*
X124718665Y-114355000D01*
X125001335Y-114355000D01*
X125278574Y-114299853D01*
X125539727Y-114191680D01*
X125774759Y-114034637D01*
X125974637Y-113834759D01*
X126130000Y-113602241D01*
X126285363Y-113834759D01*
X126485241Y-114034637D01*
X126720273Y-114191680D01*
X126981426Y-114299853D01*
X127258665Y-114355000D01*
X127541335Y-114355000D01*
X127818574Y-114299853D01*
X128079727Y-114191680D01*
X128314759Y-114034637D01*
X128514637Y-113834759D01*
X128670000Y-113602241D01*
X128825363Y-113834759D01*
X129025241Y-114034637D01*
X129260273Y-114191680D01*
X129521426Y-114299853D01*
X129798665Y-114355000D01*
X130081335Y-114355000D01*
X130358574Y-114299853D01*
X130619727Y-114191680D01*
X130854759Y-114034637D01*
X131054637Y-113834759D01*
X131210000Y-113602241D01*
X131365363Y-113834759D01*
X131565241Y-114034637D01*
X131800273Y-114191680D01*
X132061426Y-114299853D01*
X132338665Y-114355000D01*
X132621335Y-114355000D01*
X132898574Y-114299853D01*
X133159727Y-114191680D01*
X133394759Y-114034637D01*
X133594637Y-113834759D01*
X133751680Y-113599727D01*
X133859853Y-113338574D01*
X133915000Y-113061335D01*
X133915000Y-112778665D01*
X133859853Y-112501426D01*
X133751680Y-112240273D01*
X133594637Y-112005241D01*
X133394759Y-111805363D01*
X133239999Y-111701956D01*
X133229003Y-111590314D01*
X133185546Y-111447053D01*
X133114974Y-111315024D01*
X133020001Y-111199299D01*
X132991004Y-111175502D01*
X132955502Y-111140000D01*
X146321928Y-111140000D01*
X146334188Y-111264482D01*
X146370498Y-111384180D01*
X146429463Y-111494494D01*
X146508815Y-111591185D01*
X146605506Y-111670537D01*
X146715820Y-111729502D01*
X146835518Y-111765812D01*
X146960000Y-111778072D01*
X147434250Y-111775000D01*
X147593000Y-111616250D01*
X147593000Y-110507000D01*
X146483750Y-110507000D01*
X146325000Y-110665750D01*
X146321928Y-111140000D01*
X132955502Y-111140000D01*
X132438574Y-110623072D01*
X132742000Y-110623072D01*
X132915254Y-110606008D01*
X133081850Y-110555472D01*
X133235386Y-110473405D01*
X133369962Y-110362962D01*
X133480405Y-110228386D01*
X133562472Y-110074850D01*
X133613008Y-109908254D01*
X133616776Y-109870000D01*
X135618178Y-109870000D01*
X135655500Y-109873676D01*
X135692822Y-109870000D01*
X135692833Y-109870000D01*
X135804486Y-109859003D01*
X135947747Y-109815546D01*
X136079776Y-109744974D01*
X136195501Y-109650001D01*
X136219304Y-109620997D01*
X136220301Y-109620000D01*
X146321928Y-109620000D01*
X146325000Y-110094250D01*
X146483750Y-110253000D01*
X147593000Y-110253000D01*
X147593000Y-110233000D01*
X147847000Y-110233000D01*
X147847000Y-110253000D01*
X147867000Y-110253000D01*
X147867000Y-110507000D01*
X147847000Y-110507000D01*
X147847000Y-111616250D01*
X148005750Y-111775000D01*
X148480000Y-111778072D01*
X148604482Y-111765812D01*
X148724180Y-111729502D01*
X148834494Y-111670537D01*
X148931185Y-111591185D01*
X149010537Y-111494494D01*
X149069502Y-111384180D01*
X149105812Y-111264482D01*
X149118072Y-111140000D01*
X149117910Y-111115024D01*
X149295863Y-111164531D01*
X150080395Y-110380000D01*
X150066253Y-110365858D01*
X150245858Y-110186253D01*
X150260000Y-110200395D01*
X150274143Y-110186253D01*
X150453748Y-110365858D01*
X150439605Y-110380000D01*
X150453748Y-110394143D01*
X150274142Y-110573748D01*
X150260000Y-110559605D01*
X149475469Y-111344137D01*
X149542206Y-111584025D01*
X149790892Y-111700924D01*
X150057606Y-111767061D01*
X150332097Y-111779895D01*
X150603817Y-111738931D01*
X150862326Y-111645744D01*
X150977794Y-111584025D01*
X151044531Y-111344139D01*
X151160948Y-111460556D01*
X151204302Y-111417203D01*
X151777401Y-111990302D01*
X151801199Y-112019301D01*
X151830197Y-112043099D01*
X151916923Y-112114274D01*
X152002470Y-112160000D01*
X152048953Y-112184846D01*
X152192214Y-112228303D01*
X152303867Y-112239300D01*
X152303876Y-112239300D01*
X152341199Y-112242976D01*
X152378522Y-112239300D01*
X186229578Y-112239300D01*
X186266900Y-112242976D01*
X186304222Y-112239300D01*
X186304233Y-112239300D01*
X186415886Y-112228303D01*
X186559147Y-112184846D01*
X186691176Y-112114274D01*
X186806901Y-112019301D01*
X186830703Y-111990298D01*
X187409749Y-111411253D01*
X187459052Y-111460556D01*
X187575469Y-111344139D01*
X187642206Y-111584025D01*
X187890892Y-111700924D01*
X188157606Y-111767061D01*
X188432097Y-111779895D01*
X188703817Y-111738931D01*
X188962326Y-111645744D01*
X189077794Y-111584025D01*
X189144531Y-111344137D01*
X188360000Y-110559605D01*
X188345858Y-110573748D01*
X188166253Y-110394143D01*
X188180395Y-110380000D01*
X188539605Y-110380000D01*
X189324137Y-111164531D01*
X189564025Y-111097794D01*
X189680924Y-110849108D01*
X189747061Y-110582394D01*
X189759895Y-110307903D01*
X189718931Y-110036183D01*
X189625744Y-109777674D01*
X189564025Y-109662206D01*
X189324137Y-109595469D01*
X188539605Y-110380000D01*
X188180395Y-110380000D01*
X188166252Y-110365858D01*
X188345858Y-110186252D01*
X188360000Y-110200395D01*
X189144531Y-109415863D01*
X189077794Y-109175975D01*
X188938293Y-109110400D01*
X189020780Y-109076233D01*
X189249261Y-108923567D01*
X189443567Y-108729261D01*
X189596233Y-108500780D01*
X189701391Y-108246907D01*
X189755000Y-107977396D01*
X189755000Y-107702604D01*
X189701391Y-107433093D01*
X189596233Y-107179220D01*
X189443567Y-106950739D01*
X189249261Y-106756433D01*
X189089930Y-106649971D01*
X195315704Y-100424198D01*
X195344701Y-100400401D01*
X195439674Y-100284676D01*
X195510246Y-100152647D01*
X195553703Y-100009386D01*
X195564700Y-99897733D01*
X195564700Y-99897732D01*
X195568377Y-99860400D01*
X195564700Y-99823067D01*
X195564700Y-91483759D01*
X195623110Y-91501476D01*
X195853000Y-91380155D01*
X195853000Y-90187000D01*
X196107000Y-90187000D01*
X196107000Y-91380155D01*
X196336890Y-91501476D01*
X196484099Y-91456825D01*
X196746920Y-91331641D01*
X196980269Y-91157588D01*
X197175178Y-90941355D01*
X197324157Y-90691252D01*
X197421481Y-90416891D01*
X197300814Y-90187000D01*
X196107000Y-90187000D01*
X195853000Y-90187000D01*
X195833000Y-90187000D01*
X195833000Y-89933000D01*
X195853000Y-89933000D01*
X195853000Y-89913000D01*
X196107000Y-89913000D01*
X196107000Y-89933000D01*
X197300814Y-89933000D01*
X197421481Y-89703109D01*
X197324157Y-89428748D01*
X197175178Y-89178645D01*
X196980269Y-88962412D01*
X196750594Y-88791100D01*
X196926632Y-88673475D01*
X197133475Y-88466632D01*
X197295990Y-88223411D01*
X197407932Y-87953158D01*
X197465000Y-87666260D01*
X197465000Y-87373740D01*
X197407932Y-87086842D01*
X197295990Y-86816589D01*
X197133475Y-86573368D01*
X196926632Y-86366525D01*
X196683411Y-86204010D01*
X196413158Y-86092068D01*
X196126260Y-86035000D01*
X195833740Y-86035000D01*
X195546842Y-86092068D01*
X195276589Y-86204010D01*
X195033368Y-86366525D01*
X194826525Y-86573368D01*
X194710000Y-86747760D01*
X194593475Y-86573368D01*
X194386632Y-86366525D01*
X194143411Y-86204010D01*
X193873158Y-86092068D01*
X193586260Y-86035000D01*
X193293740Y-86035000D01*
X193006842Y-86092068D01*
X192736589Y-86204010D01*
X192493368Y-86366525D01*
X192286525Y-86573368D01*
X192170000Y-86747760D01*
X192053475Y-86573368D01*
X191846632Y-86366525D01*
X191603411Y-86204010D01*
X191333158Y-86092068D01*
X191046260Y-86035000D01*
X190753740Y-86035000D01*
X190466842Y-86092068D01*
X190196589Y-86204010D01*
X189953368Y-86366525D01*
X189746525Y-86573368D01*
X189630000Y-86747760D01*
X189513475Y-86573368D01*
X189306632Y-86366525D01*
X189063411Y-86204010D01*
X188793158Y-86092068D01*
X188506260Y-86035000D01*
X188213740Y-86035000D01*
X187926842Y-86092068D01*
X187656589Y-86204010D01*
X187413368Y-86366525D01*
X187206525Y-86573368D01*
X187090000Y-86747760D01*
X186973475Y-86573368D01*
X186766632Y-86366525D01*
X186523411Y-86204010D01*
X186253158Y-86092068D01*
X185966260Y-86035000D01*
X185673740Y-86035000D01*
X185386842Y-86092068D01*
X185116589Y-86204010D01*
X184873368Y-86366525D01*
X184666525Y-86573368D01*
X184550000Y-86747760D01*
X184433475Y-86573368D01*
X184226632Y-86366525D01*
X183983411Y-86204010D01*
X183713158Y-86092068D01*
X183426260Y-86035000D01*
X183133740Y-86035000D01*
X182846842Y-86092068D01*
X182576589Y-86204010D01*
X182333368Y-86366525D01*
X182126525Y-86573368D01*
X182010000Y-86747760D01*
X181893475Y-86573368D01*
X181686632Y-86366525D01*
X181443411Y-86204010D01*
X181173158Y-86092068D01*
X180886260Y-86035000D01*
X180593740Y-86035000D01*
X180306842Y-86092068D01*
X180036589Y-86204010D01*
X179793368Y-86366525D01*
X179586525Y-86573368D01*
X179470000Y-86747760D01*
X179353475Y-86573368D01*
X179146632Y-86366525D01*
X178903411Y-86204010D01*
X178633158Y-86092068D01*
X178346260Y-86035000D01*
X178053740Y-86035000D01*
X177766842Y-86092068D01*
X177496589Y-86204010D01*
X177253368Y-86366525D01*
X177046525Y-86573368D01*
X176930000Y-86747760D01*
X176813475Y-86573368D01*
X176606632Y-86366525D01*
X176363411Y-86204010D01*
X176093158Y-86092068D01*
X175806260Y-86035000D01*
X175513740Y-86035000D01*
X175226842Y-86092068D01*
X174956589Y-86204010D01*
X174713368Y-86366525D01*
X174506525Y-86573368D01*
X174390000Y-86747760D01*
X174273475Y-86573368D01*
X174066632Y-86366525D01*
X173823411Y-86204010D01*
X173553158Y-86092068D01*
X173266260Y-86035000D01*
X172973740Y-86035000D01*
X172686842Y-86092068D01*
X172416589Y-86204010D01*
X172173368Y-86366525D01*
X171966525Y-86573368D01*
X171850000Y-86747760D01*
X171733475Y-86573368D01*
X171526632Y-86366525D01*
X171283411Y-86204010D01*
X171013158Y-86092068D01*
X170726260Y-86035000D01*
X170433740Y-86035000D01*
X170146842Y-86092068D01*
X169876589Y-86204010D01*
X169633368Y-86366525D01*
X169426525Y-86573368D01*
X169310000Y-86747760D01*
X169193475Y-86573368D01*
X168986632Y-86366525D01*
X168743411Y-86204010D01*
X168473158Y-86092068D01*
X168186260Y-86035000D01*
X167893740Y-86035000D01*
X167606842Y-86092068D01*
X167336589Y-86204010D01*
X167093368Y-86366525D01*
X166886525Y-86573368D01*
X166770000Y-86747760D01*
X166653475Y-86573368D01*
X166446632Y-86366525D01*
X166203411Y-86204010D01*
X165933158Y-86092068D01*
X165646260Y-86035000D01*
X165353740Y-86035000D01*
X165066842Y-86092068D01*
X164796589Y-86204010D01*
X164553368Y-86366525D01*
X164346525Y-86573368D01*
X164230000Y-86747760D01*
X164113475Y-86573368D01*
X163906632Y-86366525D01*
X163663411Y-86204010D01*
X163393158Y-86092068D01*
X163106260Y-86035000D01*
X162813740Y-86035000D01*
X162526842Y-86092068D01*
X162256589Y-86204010D01*
X162013368Y-86366525D01*
X161806525Y-86573368D01*
X161690000Y-86747760D01*
X161573475Y-86573368D01*
X161366632Y-86366525D01*
X161123411Y-86204010D01*
X160853158Y-86092068D01*
X160566260Y-86035000D01*
X160273740Y-86035000D01*
X159986842Y-86092068D01*
X159716589Y-86204010D01*
X159473368Y-86366525D01*
X159266525Y-86573368D01*
X159150000Y-86747760D01*
X159033475Y-86573368D01*
X158826632Y-86366525D01*
X158583411Y-86204010D01*
X158313158Y-86092068D01*
X158026260Y-86035000D01*
X157733740Y-86035000D01*
X157446842Y-86092068D01*
X157176589Y-86204010D01*
X156933368Y-86366525D01*
X156726525Y-86573368D01*
X156610000Y-86747760D01*
X156493475Y-86573368D01*
X156286632Y-86366525D01*
X156043411Y-86204010D01*
X155773158Y-86092068D01*
X155486260Y-86035000D01*
X155193740Y-86035000D01*
X154906842Y-86092068D01*
X154636589Y-86204010D01*
X154393368Y-86366525D01*
X154186525Y-86573368D01*
X154024010Y-86816589D01*
X153912068Y-87086842D01*
X153855000Y-87373740D01*
X153855000Y-87666260D01*
X153912068Y-87953158D01*
X154024010Y-88223411D01*
X154186525Y-88466632D01*
X154318380Y-88598487D01*
X154245820Y-88620498D01*
X154135506Y-88679463D01*
X154038815Y-88758815D01*
X153959463Y-88855506D01*
X153900498Y-88965820D01*
X153864188Y-89085518D01*
X153851928Y-89210000D01*
X153855000Y-89774250D01*
X154013750Y-89933000D01*
X155213000Y-89933000D01*
X155213000Y-89913000D01*
X155467000Y-89913000D01*
X155467000Y-89933000D01*
X155487000Y-89933000D01*
X155487000Y-90187000D01*
X155467000Y-90187000D01*
X155467000Y-91386250D01*
X155625750Y-91545000D01*
X155944701Y-91546736D01*
X155944701Y-92412597D01*
X149749003Y-98608296D01*
X149719999Y-98632099D01*
X149670949Y-98691867D01*
X149625026Y-98747824D01*
X149584750Y-98823175D01*
X149554454Y-98879854D01*
X149510997Y-99023115D01*
X149500000Y-99134768D01*
X149500000Y-99134778D01*
X149496324Y-99172100D01*
X149500000Y-99209422D01*
X149500001Y-106670063D01*
X149370739Y-106756433D01*
X149176433Y-106950739D01*
X149023767Y-107179220D01*
X148990000Y-107260740D01*
X148956233Y-107179220D01*
X148803567Y-106950739D01*
X148609261Y-106756433D01*
X148380780Y-106603767D01*
X148126907Y-106498609D01*
X147857396Y-106445000D01*
X147582604Y-106445000D01*
X147313093Y-106498609D01*
X147059220Y-106603767D01*
X146830739Y-106756433D01*
X146636433Y-106950739D01*
X146483767Y-107179220D01*
X146378609Y-107433093D01*
X146325000Y-107702604D01*
X146325000Y-107977396D01*
X146378609Y-108246907D01*
X146483767Y-108500780D01*
X146636433Y-108729261D01*
X146830739Y-108923567D01*
X146923467Y-108985526D01*
X146835518Y-108994188D01*
X146715820Y-109030498D01*
X146605506Y-109089463D01*
X146508815Y-109168815D01*
X146429463Y-109265506D01*
X146370498Y-109375820D01*
X146334188Y-109495518D01*
X146321928Y-109620000D01*
X136220301Y-109620000D01*
X140283506Y-105556795D01*
X140397999Y-105568072D01*
X141223001Y-105568072D01*
X141396255Y-105551008D01*
X141562851Y-105500472D01*
X141716387Y-105418405D01*
X141850962Y-105307962D01*
X141961405Y-105173387D01*
X142043472Y-105019851D01*
X142094008Y-104853255D01*
X142111072Y-104680001D01*
X142111072Y-103379999D01*
X142094008Y-103206745D01*
X142049635Y-103060466D01*
X143151003Y-101959099D01*
X143180001Y-101935301D01*
X143274974Y-101819576D01*
X143334575Y-101708072D01*
X143490000Y-101708072D01*
X143614482Y-101695812D01*
X143734180Y-101659502D01*
X143844494Y-101600537D01*
X143941185Y-101521185D01*
X144020537Y-101424494D01*
X144079502Y-101314180D01*
X144115812Y-101194482D01*
X144128072Y-101070000D01*
X144128072Y-99370000D01*
X144115812Y-99245518D01*
X144079502Y-99125820D01*
X144020537Y-99015506D01*
X143941185Y-98918815D01*
X143844494Y-98839463D01*
X143734180Y-98780498D01*
X143614482Y-98744188D01*
X143490000Y-98731928D01*
X141790000Y-98731928D01*
X141665518Y-98744188D01*
X141545820Y-98780498D01*
X141435506Y-98839463D01*
X141338815Y-98918815D01*
X141259463Y-99015506D01*
X141200498Y-99125820D01*
X141176034Y-99206466D01*
X141100269Y-99122412D01*
X140866920Y-98948359D01*
X140604099Y-98823175D01*
X140456890Y-98778524D01*
X140227000Y-98899845D01*
X140227000Y-100093000D01*
X140247000Y-100093000D01*
X140247000Y-100347000D01*
X140227000Y-100347000D01*
X140227000Y-101540155D01*
X140456890Y-101661476D01*
X140604099Y-101616825D01*
X140866920Y-101491641D01*
X141100269Y-101317588D01*
X141176034Y-101233534D01*
X141200498Y-101314180D01*
X141259463Y-101424494D01*
X141338815Y-101521185D01*
X141394013Y-101566485D01*
X140468571Y-102491928D01*
X140397999Y-102491928D01*
X140224745Y-102508992D01*
X140058149Y-102559528D01*
X139904613Y-102641595D01*
X139770038Y-102752038D01*
X139659595Y-102886613D01*
X139577528Y-103040149D01*
X139526992Y-103206745D01*
X139509928Y-103379999D01*
X139509928Y-104180770D01*
X138984950Y-104705748D01*
X138983000Y-104315750D01*
X138824250Y-104157000D01*
X137812500Y-104157000D01*
X137812500Y-105406250D01*
X137971250Y-105565000D01*
X138124449Y-105566249D01*
X135340699Y-108350000D01*
X133616776Y-108350000D01*
X133613008Y-108311746D01*
X133562472Y-108145150D01*
X133480405Y-107991614D01*
X133369962Y-107857038D01*
X133235386Y-107746595D01*
X133081850Y-107664528D01*
X132915254Y-107613992D01*
X132742000Y-107596928D01*
X131942000Y-107596928D01*
X131768746Y-107613992D01*
X131602150Y-107664528D01*
X131448614Y-107746595D01*
X131314038Y-107857038D01*
X131203595Y-107991614D01*
X131121528Y-108145150D01*
X131070992Y-108311746D01*
X131053928Y-108485000D01*
X131053928Y-109260771D01*
X130750299Y-109564400D01*
X130530072Y-109564400D01*
X130530072Y-108485000D01*
X130513008Y-108311746D01*
X130462472Y-108145150D01*
X130380405Y-107991614D01*
X130269962Y-107857038D01*
X130135386Y-107746595D01*
X129981850Y-107664528D01*
X129815254Y-107613992D01*
X129642000Y-107596928D01*
X128866229Y-107596928D01*
X128160000Y-106890699D01*
X128160000Y-106518043D01*
X128314759Y-106414637D01*
X128514637Y-106214759D01*
X128670000Y-105982241D01*
X128825363Y-106214759D01*
X129025241Y-106414637D01*
X129260273Y-106571680D01*
X129521426Y-106679853D01*
X129798665Y-106735000D01*
X130081335Y-106735000D01*
X130358574Y-106679853D01*
X130619727Y-106571680D01*
X130854759Y-106414637D01*
X131053357Y-106216039D01*
X131054188Y-106224482D01*
X131090498Y-106344180D01*
X131149463Y-106454494D01*
X131228815Y-106551185D01*
X131325506Y-106630537D01*
X131435820Y-106689502D01*
X131555518Y-106725812D01*
X131680000Y-106738072D01*
X133280000Y-106738072D01*
X133404482Y-106725812D01*
X133524180Y-106689502D01*
X133634494Y-106630537D01*
X133731185Y-106551185D01*
X133810537Y-106454494D01*
X133869502Y-106344180D01*
X133905812Y-106224482D01*
X133918072Y-106100000D01*
X133918072Y-104930000D01*
X136384928Y-104930000D01*
X136397188Y-105054482D01*
X136433498Y-105174180D01*
X136492463Y-105284494D01*
X136571815Y-105381185D01*
X136668506Y-105460537D01*
X136778820Y-105519502D01*
X136898518Y-105555812D01*
X137023000Y-105568072D01*
X137399750Y-105565000D01*
X137558500Y-105406250D01*
X137558500Y-104157000D01*
X136546750Y-104157000D01*
X136388000Y-104315750D01*
X136384928Y-104930000D01*
X133918072Y-104930000D01*
X133918072Y-104500000D01*
X133905812Y-104375518D01*
X133869502Y-104255820D01*
X133810537Y-104145506D01*
X133731185Y-104048815D01*
X133634494Y-103969463D01*
X133562031Y-103930730D01*
X133576201Y-103919101D01*
X133600004Y-103890097D01*
X134360101Y-103130000D01*
X136384928Y-103130000D01*
X136388000Y-103744250D01*
X136546750Y-103903000D01*
X137558500Y-103903000D01*
X137558500Y-102653750D01*
X137812500Y-102653750D01*
X137812500Y-103903000D01*
X138824250Y-103903000D01*
X138983000Y-103744250D01*
X138986072Y-103130000D01*
X138973812Y-103005518D01*
X138937502Y-102885820D01*
X138878537Y-102775506D01*
X138799185Y-102678815D01*
X138702494Y-102599463D01*
X138592180Y-102540498D01*
X138472482Y-102504188D01*
X138348000Y-102491928D01*
X137971250Y-102495000D01*
X137812500Y-102653750D01*
X137558500Y-102653750D01*
X137399750Y-102495000D01*
X137023000Y-102491928D01*
X136898518Y-102504188D01*
X136778820Y-102540498D01*
X136668506Y-102599463D01*
X136571815Y-102678815D01*
X136492463Y-102775506D01*
X136433498Y-102885820D01*
X136397188Y-103005518D01*
X136384928Y-103130000D01*
X134360101Y-103130000D01*
X135531003Y-101959099D01*
X135560001Y-101935301D01*
X135654974Y-101819576D01*
X135725546Y-101687547D01*
X135769003Y-101544286D01*
X135773089Y-101502796D01*
X135966632Y-101373475D01*
X136173475Y-101166632D01*
X136295195Y-100984466D01*
X136364822Y-101101355D01*
X136559731Y-101317588D01*
X136793080Y-101491641D01*
X137055901Y-101616825D01*
X137203110Y-101661476D01*
X137433000Y-101540155D01*
X137433000Y-100347000D01*
X137687000Y-100347000D01*
X137687000Y-101540155D01*
X137916890Y-101661476D01*
X138064099Y-101616825D01*
X138326920Y-101491641D01*
X138560269Y-101317588D01*
X138755178Y-101101355D01*
X138830000Y-100975745D01*
X138904822Y-101101355D01*
X139099731Y-101317588D01*
X139333080Y-101491641D01*
X139595901Y-101616825D01*
X139743110Y-101661476D01*
X139973000Y-101540155D01*
X139973000Y-100347000D01*
X137687000Y-100347000D01*
X137433000Y-100347000D01*
X137413000Y-100347000D01*
X137413000Y-100093000D01*
X137433000Y-100093000D01*
X137433000Y-98899845D01*
X137687000Y-98899845D01*
X137687000Y-100093000D01*
X139973000Y-100093000D01*
X139973000Y-98899845D01*
X139743110Y-98778524D01*
X139595901Y-98823175D01*
X139333080Y-98948359D01*
X139099731Y-99122412D01*
X138904822Y-99338645D01*
X138830000Y-99464255D01*
X138755178Y-99338645D01*
X138560269Y-99122412D01*
X138326920Y-98948359D01*
X138064099Y-98823175D01*
X137916890Y-98778524D01*
X137687000Y-98899845D01*
X137433000Y-98899845D01*
X137203110Y-98778524D01*
X137055901Y-98823175D01*
X136793080Y-98948359D01*
X136559731Y-99122412D01*
X136364822Y-99338645D01*
X136295195Y-99455534D01*
X136173475Y-99273368D01*
X135966632Y-99066525D01*
X135723411Y-98904010D01*
X135453158Y-98792068D01*
X135166260Y-98735000D01*
X134873740Y-98735000D01*
X134586842Y-98792068D01*
X134316589Y-98904010D01*
X134073368Y-99066525D01*
X133866525Y-99273368D01*
X133704010Y-99516589D01*
X133592068Y-99786842D01*
X133535000Y-100073740D01*
X133535000Y-100366260D01*
X133592068Y-100653158D01*
X133704010Y-100923411D01*
X133866525Y-101166632D01*
X134020196Y-101320303D01*
X132721399Y-102619100D01*
X132414157Y-102619100D01*
X132423881Y-102609578D01*
X132429978Y-102602208D01*
X132676679Y-102299724D01*
X132711047Y-102247995D01*
X132746111Y-102196785D01*
X132750661Y-102188372D01*
X132933910Y-101843730D01*
X132957555Y-101786364D01*
X132982028Y-101729264D01*
X132984856Y-101720127D01*
X133097674Y-101346456D01*
X133109737Y-101285531D01*
X133122641Y-101224826D01*
X133123641Y-101215314D01*
X133161731Y-100826845D01*
X133161731Y-100826837D01*
X133165000Y-100793647D01*
X133165000Y-97963736D01*
X135303736Y-95825000D01*
X148293647Y-95825000D01*
X148323645Y-95822045D01*
X148336047Y-95822132D01*
X148345565Y-95821198D01*
X148733758Y-95780397D01*
X148794539Y-95767920D01*
X148855560Y-95756280D01*
X148864716Y-95753516D01*
X149237591Y-95638092D01*
X149294870Y-95614014D01*
X149352388Y-95590775D01*
X149360833Y-95586286D01*
X149704188Y-95400634D01*
X149755635Y-95365932D01*
X149807610Y-95331921D01*
X149815022Y-95325876D01*
X150115777Y-95077069D01*
X150159524Y-95033016D01*
X150203881Y-94989578D01*
X150209978Y-94982208D01*
X150456679Y-94679724D01*
X150491047Y-94627995D01*
X150526111Y-94576785D01*
X150530661Y-94568372D01*
X150713910Y-94223730D01*
X150737555Y-94166364D01*
X150762028Y-94109264D01*
X150764856Y-94100127D01*
X150877674Y-93726456D01*
X150889737Y-93665531D01*
X150902641Y-93604826D01*
X150903641Y-93595314D01*
X150941731Y-93206845D01*
X150941731Y-93206837D01*
X150945000Y-93173647D01*
X150945000Y-90910000D01*
X153851928Y-90910000D01*
X153864188Y-91034482D01*
X153900498Y-91154180D01*
X153959463Y-91264494D01*
X154038815Y-91361185D01*
X154135506Y-91440537D01*
X154245820Y-91499502D01*
X154365518Y-91535812D01*
X154490000Y-91548072D01*
X155054250Y-91545000D01*
X155213000Y-91386250D01*
X155213000Y-90187000D01*
X154013750Y-90187000D01*
X153855000Y-90345750D01*
X153851928Y-90910000D01*
X150945000Y-90910000D01*
X150945000Y-87803736D01*
X153083736Y-85665000D01*
X199026495Y-85665000D01*
X199314782Y-85693267D01*
G37*
%TD.AperFunction*%
D18*
X184583767Y-108500780D02*
X184736433Y-108729261D01*
X184930739Y-108923567D01*
X185159220Y-109076233D01*
X185235501Y-109107830D01*
X185217674Y-109114256D01*
X185102206Y-109175975D01*
X185035469Y-109415863D01*
X185820000Y-110200395D01*
X185834142Y-110186252D01*
X186013748Y-110365858D01*
X185999605Y-110380000D01*
X186013748Y-110394143D01*
X185834143Y-110573748D01*
X185820000Y-110559605D01*
X185805858Y-110573748D01*
X185626253Y-110394143D01*
X185640395Y-110380000D01*
X184855863Y-109595469D01*
X184615975Y-109662206D01*
X184552668Y-109796882D01*
X184545744Y-109777674D01*
X184484025Y-109662206D01*
X184244137Y-109595469D01*
X183459605Y-110380000D01*
X183473748Y-110394143D01*
X183294143Y-110573748D01*
X183280000Y-110559605D01*
X183265858Y-110573748D01*
X183086253Y-110394143D01*
X183100395Y-110380000D01*
X182315863Y-109595469D01*
X182075975Y-109662206D01*
X182012668Y-109796882D01*
X182005744Y-109777674D01*
X181944025Y-109662206D01*
X181704137Y-109595469D01*
X180919605Y-110380000D01*
X180933748Y-110394143D01*
X180754143Y-110573748D01*
X180740000Y-110559605D01*
X180725858Y-110573748D01*
X180546253Y-110394143D01*
X180560395Y-110380000D01*
X179775863Y-109595469D01*
X179535975Y-109662206D01*
X179472668Y-109796882D01*
X179465744Y-109777674D01*
X179404025Y-109662206D01*
X179164137Y-109595469D01*
X178379605Y-110380000D01*
X178393748Y-110394143D01*
X178214143Y-110573748D01*
X178200000Y-110559605D01*
X178185858Y-110573748D01*
X178006253Y-110394143D01*
X178020395Y-110380000D01*
X177235863Y-109595469D01*
X176995975Y-109662206D01*
X176932668Y-109796882D01*
X176925744Y-109777674D01*
X176864025Y-109662206D01*
X176624137Y-109595469D01*
X175839605Y-110380000D01*
X175853748Y-110394143D01*
X175674143Y-110573748D01*
X175660000Y-110559605D01*
X175645858Y-110573748D01*
X175466253Y-110394143D01*
X175480395Y-110380000D01*
X174695863Y-109595469D01*
X174455975Y-109662206D01*
X174392668Y-109796882D01*
X174385744Y-109777674D01*
X174324025Y-109662206D01*
X174084137Y-109595469D01*
X173299605Y-110380000D01*
X173313748Y-110394143D01*
X173134143Y-110573748D01*
X173120000Y-110559605D01*
X173105858Y-110573748D01*
X172926253Y-110394143D01*
X172940395Y-110380000D01*
X172155863Y-109595469D01*
X171915975Y-109662206D01*
X171852668Y-109796882D01*
X171845744Y-109777674D01*
X171784025Y-109662206D01*
X171544137Y-109595469D01*
X170759605Y-110380000D01*
X170773748Y-110394143D01*
X170594143Y-110573748D01*
X170580000Y-110559605D01*
X170565858Y-110573748D01*
X170386253Y-110394143D01*
X170400395Y-110380000D01*
X169615863Y-109595469D01*
X169375975Y-109662206D01*
X169312668Y-109796882D01*
X169305744Y-109777674D01*
X169244025Y-109662206D01*
X169004137Y-109595469D01*
X168219605Y-110380000D01*
X168233748Y-110394143D01*
X168054143Y-110573748D01*
X168040000Y-110559605D01*
X168025858Y-110573748D01*
X167846253Y-110394143D01*
X167860395Y-110380000D01*
X167075863Y-109595469D01*
X166835975Y-109662206D01*
X166772668Y-109796882D01*
X166765744Y-109777674D01*
X166704025Y-109662206D01*
X166464137Y-109595469D01*
X165679605Y-110380000D01*
X165693748Y-110394143D01*
X165514143Y-110573748D01*
X165500000Y-110559605D01*
X165485858Y-110573748D01*
X165306253Y-110394143D01*
X165320395Y-110380000D01*
X164535863Y-109595469D01*
X164295975Y-109662206D01*
X164232668Y-109796882D01*
X164225744Y-109777674D01*
X164164025Y-109662206D01*
X163924137Y-109595469D01*
X163139605Y-110380000D01*
X163153748Y-110394143D01*
X162974143Y-110573748D01*
X162960000Y-110559605D01*
X162945858Y-110573748D01*
X162766253Y-110394143D01*
X162780395Y-110380000D01*
X161995863Y-109595469D01*
X161755975Y-109662206D01*
X161692668Y-109796882D01*
X161685744Y-109777674D01*
X161624025Y-109662206D01*
X161384137Y-109595469D01*
X160599605Y-110380000D01*
X160613748Y-110394143D01*
X160434143Y-110573748D01*
X160420000Y-110559605D01*
X160405858Y-110573748D01*
X160226253Y-110394143D01*
X160240395Y-110380000D01*
X160226252Y-110365858D01*
X160405858Y-110186252D01*
X160420000Y-110200395D01*
X161204531Y-109415863D01*
X161137794Y-109175975D01*
X160998293Y-109110400D01*
X161080780Y-109076233D01*
X161309261Y-108923567D01*
X161503567Y-108729261D01*
X161656233Y-108500780D01*
X161690000Y-108419260D01*
X161723767Y-108500780D01*
X161876433Y-108729261D01*
X162070739Y-108923567D01*
X162299220Y-109076233D01*
X162375501Y-109107830D01*
X162357674Y-109114256D01*
X162242206Y-109175975D01*
X162175469Y-109415863D01*
X162960000Y-110200395D01*
X163744531Y-109415863D01*
X163677794Y-109175975D01*
X163538293Y-109110400D01*
X163620780Y-109076233D01*
X163849261Y-108923567D01*
X164043567Y-108729261D01*
X164196233Y-108500780D01*
X164230000Y-108419260D01*
X164263767Y-108500780D01*
X164416433Y-108729261D01*
X164610739Y-108923567D01*
X164839220Y-109076233D01*
X164915501Y-109107830D01*
X164897674Y-109114256D01*
X164782206Y-109175975D01*
X164715469Y-109415863D01*
X165500000Y-110200395D01*
X166284531Y-109415863D01*
X166217794Y-109175975D01*
X166078293Y-109110400D01*
X166160780Y-109076233D01*
X166389261Y-108923567D01*
X166583567Y-108729261D01*
X166736233Y-108500780D01*
X166770000Y-108419260D01*
X166803767Y-108500780D01*
X166956433Y-108729261D01*
X167150739Y-108923567D01*
X167379220Y-109076233D01*
X167455501Y-109107830D01*
X167437674Y-109114256D01*
X167322206Y-109175975D01*
X167255469Y-109415863D01*
X168040000Y-110200395D01*
X168824531Y-109415863D01*
X168757794Y-109175975D01*
X168618293Y-109110400D01*
X168700780Y-109076233D01*
X168929261Y-108923567D01*
X169123567Y-108729261D01*
X169276233Y-108500780D01*
X169310000Y-108419260D01*
X169343767Y-108500780D01*
X169496433Y-108729261D01*
X169690739Y-108923567D01*
X169919220Y-109076233D01*
X169995501Y-109107830D01*
X169977674Y-109114256D01*
X169862206Y-109175975D01*
X169795469Y-109415863D01*
X170580000Y-110200395D01*
X171364531Y-109415863D01*
X171297794Y-109175975D01*
X171158293Y-109110400D01*
X171240780Y-109076233D01*
X171469261Y-108923567D01*
X171663567Y-108729261D01*
X171816233Y-108500780D01*
X171850000Y-108419260D01*
X171883767Y-108500780D01*
X172036433Y-108729261D01*
X172230739Y-108923567D01*
X172459220Y-109076233D01*
X172535501Y-109107830D01*
X172517674Y-109114256D01*
X172402206Y-109175975D01*
X172335469Y-109415863D01*
X173120000Y-110200395D01*
X173904531Y-109415863D01*
X173837794Y-109175975D01*
X173698293Y-109110400D01*
X173780780Y-109076233D01*
X174009261Y-108923567D01*
X174203567Y-108729261D01*
X174356233Y-108500780D01*
X174390000Y-108419260D01*
X174423767Y-108500780D01*
X174576433Y-108729261D01*
X174770739Y-108923567D01*
X174999220Y-109076233D01*
X175075501Y-109107830D01*
X175057674Y-109114256D01*
X174942206Y-109175975D01*
X174875469Y-109415863D01*
X175660000Y-110200395D01*
X176444531Y-109415863D01*
X176377794Y-109175975D01*
X176238293Y-109110400D01*
X176320780Y-109076233D01*
X176549261Y-108923567D01*
X176743567Y-108729261D01*
X176896233Y-108500780D01*
X176930000Y-108419260D01*
X176963767Y-108500780D01*
X177116433Y-108729261D01*
X177310739Y-108923567D01*
X177539220Y-109076233D01*
X177615501Y-109107830D01*
X177597674Y-109114256D01*
X177482206Y-109175975D01*
X177415469Y-109415863D01*
X178200000Y-110200395D01*
X178984531Y-109415863D01*
X178917794Y-109175975D01*
X178778293Y-109110400D01*
X178860780Y-109076233D01*
X179089261Y-108923567D01*
X179283567Y-108729261D01*
X179436233Y-108500780D01*
X179470000Y-108419260D01*
X179503767Y-108500780D01*
X179656433Y-108729261D01*
X179850739Y-108923567D01*
X180079220Y-109076233D01*
X180155501Y-109107830D01*
X180137674Y-109114256D01*
X180022206Y-109175975D01*
X179955469Y-109415863D01*
X180740000Y-110200395D01*
X181524531Y-109415863D01*
X181457794Y-109175975D01*
X181318293Y-109110400D01*
X181400780Y-109076233D01*
X181629261Y-108923567D01*
X181823567Y-108729261D01*
X181976233Y-108500780D01*
X182010000Y-108419260D01*
X182043767Y-108500780D01*
X182196433Y-108729261D01*
X182390739Y-108923567D01*
X182619220Y-109076233D01*
X182695501Y-109107830D01*
X182677674Y-109114256D01*
X182562206Y-109175975D01*
X182495469Y-109415863D01*
X183280000Y-110200395D01*
X184064531Y-109415863D01*
X183997794Y-109175975D01*
X183858293Y-109110400D01*
X183940780Y-109076233D01*
X184169261Y-108923567D01*
X184363567Y-108729261D01*
X184516233Y-108500780D01*
X184550000Y-108419260D01*
X184583767Y-108500780D01*
%TA.AperFunction,Conductor*%
D19*
G36*
X184583767Y-108500780D02*
G01*
X184736433Y-108729261D01*
X184930739Y-108923567D01*
X185159220Y-109076233D01*
X185235501Y-109107830D01*
X185217674Y-109114256D01*
X185102206Y-109175975D01*
X185035469Y-109415863D01*
X185820000Y-110200395D01*
X185834142Y-110186252D01*
X186013748Y-110365858D01*
X185999605Y-110380000D01*
X186013748Y-110394143D01*
X185834143Y-110573748D01*
X185820000Y-110559605D01*
X185805858Y-110573748D01*
X185626253Y-110394143D01*
X185640395Y-110380000D01*
X184855863Y-109595469D01*
X184615975Y-109662206D01*
X184552668Y-109796882D01*
X184545744Y-109777674D01*
X184484025Y-109662206D01*
X184244137Y-109595469D01*
X183459605Y-110380000D01*
X183473748Y-110394143D01*
X183294143Y-110573748D01*
X183280000Y-110559605D01*
X183265858Y-110573748D01*
X183086253Y-110394143D01*
X183100395Y-110380000D01*
X182315863Y-109595469D01*
X182075975Y-109662206D01*
X182012668Y-109796882D01*
X182005744Y-109777674D01*
X181944025Y-109662206D01*
X181704137Y-109595469D01*
X180919605Y-110380000D01*
X180933748Y-110394143D01*
X180754143Y-110573748D01*
X180740000Y-110559605D01*
X180725858Y-110573748D01*
X180546253Y-110394143D01*
X180560395Y-110380000D01*
X179775863Y-109595469D01*
X179535975Y-109662206D01*
X179472668Y-109796882D01*
X179465744Y-109777674D01*
X179404025Y-109662206D01*
X179164137Y-109595469D01*
X178379605Y-110380000D01*
X178393748Y-110394143D01*
X178214143Y-110573748D01*
X178200000Y-110559605D01*
X178185858Y-110573748D01*
X178006253Y-110394143D01*
X178020395Y-110380000D01*
X177235863Y-109595469D01*
X176995975Y-109662206D01*
X176932668Y-109796882D01*
X176925744Y-109777674D01*
X176864025Y-109662206D01*
X176624137Y-109595469D01*
X175839605Y-110380000D01*
X175853748Y-110394143D01*
X175674143Y-110573748D01*
X175660000Y-110559605D01*
X175645858Y-110573748D01*
X175466253Y-110394143D01*
X175480395Y-110380000D01*
X174695863Y-109595469D01*
X174455975Y-109662206D01*
X174392668Y-109796882D01*
X174385744Y-109777674D01*
X174324025Y-109662206D01*
X174084137Y-109595469D01*
X173299605Y-110380000D01*
X173313748Y-110394143D01*
X173134143Y-110573748D01*
X173120000Y-110559605D01*
X173105858Y-110573748D01*
X172926253Y-110394143D01*
X172940395Y-110380000D01*
X172155863Y-109595469D01*
X171915975Y-109662206D01*
X171852668Y-109796882D01*
X171845744Y-109777674D01*
X171784025Y-109662206D01*
X171544137Y-109595469D01*
X170759605Y-110380000D01*
X170773748Y-110394143D01*
X170594143Y-110573748D01*
X170580000Y-110559605D01*
X170565858Y-110573748D01*
X170386253Y-110394143D01*
X170400395Y-110380000D01*
X169615863Y-109595469D01*
X169375975Y-109662206D01*
X169312668Y-109796882D01*
X169305744Y-109777674D01*
X169244025Y-109662206D01*
X169004137Y-109595469D01*
X168219605Y-110380000D01*
X168233748Y-110394143D01*
X168054143Y-110573748D01*
X168040000Y-110559605D01*
X168025858Y-110573748D01*
X167846253Y-110394143D01*
X167860395Y-110380000D01*
X167075863Y-109595469D01*
X166835975Y-109662206D01*
X166772668Y-109796882D01*
X166765744Y-109777674D01*
X166704025Y-109662206D01*
X166464137Y-109595469D01*
X165679605Y-110380000D01*
X165693748Y-110394143D01*
X165514143Y-110573748D01*
X165500000Y-110559605D01*
X165485858Y-110573748D01*
X165306253Y-110394143D01*
X165320395Y-110380000D01*
X164535863Y-109595469D01*
X164295975Y-109662206D01*
X164232668Y-109796882D01*
X164225744Y-109777674D01*
X164164025Y-109662206D01*
X163924137Y-109595469D01*
X163139605Y-110380000D01*
X163153748Y-110394143D01*
X162974143Y-110573748D01*
X162960000Y-110559605D01*
X162945858Y-110573748D01*
X162766253Y-110394143D01*
X162780395Y-110380000D01*
X161995863Y-109595469D01*
X161755975Y-109662206D01*
X161692668Y-109796882D01*
X161685744Y-109777674D01*
X161624025Y-109662206D01*
X161384137Y-109595469D01*
X160599605Y-110380000D01*
X160613748Y-110394143D01*
X160434143Y-110573748D01*
X160420000Y-110559605D01*
X160405858Y-110573748D01*
X160226253Y-110394143D01*
X160240395Y-110380000D01*
X160226252Y-110365858D01*
X160405858Y-110186252D01*
X160420000Y-110200395D01*
X161204531Y-109415863D01*
X161137794Y-109175975D01*
X160998293Y-109110400D01*
X161080780Y-109076233D01*
X161309261Y-108923567D01*
X161503567Y-108729261D01*
X161656233Y-108500780D01*
X161690000Y-108419260D01*
X161723767Y-108500780D01*
X161876433Y-108729261D01*
X162070739Y-108923567D01*
X162299220Y-109076233D01*
X162375501Y-109107830D01*
X162357674Y-109114256D01*
X162242206Y-109175975D01*
X162175469Y-109415863D01*
X162960000Y-110200395D01*
X163744531Y-109415863D01*
X163677794Y-109175975D01*
X163538293Y-109110400D01*
X163620780Y-109076233D01*
X163849261Y-108923567D01*
X164043567Y-108729261D01*
X164196233Y-108500780D01*
X164230000Y-108419260D01*
X164263767Y-108500780D01*
X164416433Y-108729261D01*
X164610739Y-108923567D01*
X164839220Y-109076233D01*
X164915501Y-109107830D01*
X164897674Y-109114256D01*
X164782206Y-109175975D01*
X164715469Y-109415863D01*
X165500000Y-110200395D01*
X166284531Y-109415863D01*
X166217794Y-109175975D01*
X166078293Y-109110400D01*
X166160780Y-109076233D01*
X166389261Y-108923567D01*
X166583567Y-108729261D01*
X166736233Y-108500780D01*
X166770000Y-108419260D01*
X166803767Y-108500780D01*
X166956433Y-108729261D01*
X167150739Y-108923567D01*
X167379220Y-109076233D01*
X167455501Y-109107830D01*
X167437674Y-109114256D01*
X167322206Y-109175975D01*
X167255469Y-109415863D01*
X168040000Y-110200395D01*
X168824531Y-109415863D01*
X168757794Y-109175975D01*
X168618293Y-109110400D01*
X168700780Y-109076233D01*
X168929261Y-108923567D01*
X169123567Y-108729261D01*
X169276233Y-108500780D01*
X169310000Y-108419260D01*
X169343767Y-108500780D01*
X169496433Y-108729261D01*
X169690739Y-108923567D01*
X169919220Y-109076233D01*
X169995501Y-109107830D01*
X169977674Y-109114256D01*
X169862206Y-109175975D01*
X169795469Y-109415863D01*
X170580000Y-110200395D01*
X171364531Y-109415863D01*
X171297794Y-109175975D01*
X171158293Y-109110400D01*
X171240780Y-109076233D01*
X171469261Y-108923567D01*
X171663567Y-108729261D01*
X171816233Y-108500780D01*
X171850000Y-108419260D01*
X171883767Y-108500780D01*
X172036433Y-108729261D01*
X172230739Y-108923567D01*
X172459220Y-109076233D01*
X172535501Y-109107830D01*
X172517674Y-109114256D01*
X172402206Y-109175975D01*
X172335469Y-109415863D01*
X173120000Y-110200395D01*
X173904531Y-109415863D01*
X173837794Y-109175975D01*
X173698293Y-109110400D01*
X173780780Y-109076233D01*
X174009261Y-108923567D01*
X174203567Y-108729261D01*
X174356233Y-108500780D01*
X174390000Y-108419260D01*
X174423767Y-108500780D01*
X174576433Y-108729261D01*
X174770739Y-108923567D01*
X174999220Y-109076233D01*
X175075501Y-109107830D01*
X175057674Y-109114256D01*
X174942206Y-109175975D01*
X174875469Y-109415863D01*
X175660000Y-110200395D01*
X176444531Y-109415863D01*
X176377794Y-109175975D01*
X176238293Y-109110400D01*
X176320780Y-109076233D01*
X176549261Y-108923567D01*
X176743567Y-108729261D01*
X176896233Y-108500780D01*
X176930000Y-108419260D01*
X176963767Y-108500780D01*
X177116433Y-108729261D01*
X177310739Y-108923567D01*
X177539220Y-109076233D01*
X177615501Y-109107830D01*
X177597674Y-109114256D01*
X177482206Y-109175975D01*
X177415469Y-109415863D01*
X178200000Y-110200395D01*
X178984531Y-109415863D01*
X178917794Y-109175975D01*
X178778293Y-109110400D01*
X178860780Y-109076233D01*
X179089261Y-108923567D01*
X179283567Y-108729261D01*
X179436233Y-108500780D01*
X179470000Y-108419260D01*
X179503767Y-108500780D01*
X179656433Y-108729261D01*
X179850739Y-108923567D01*
X180079220Y-109076233D01*
X180155501Y-109107830D01*
X180137674Y-109114256D01*
X180022206Y-109175975D01*
X179955469Y-109415863D01*
X180740000Y-110200395D01*
X181524531Y-109415863D01*
X181457794Y-109175975D01*
X181318293Y-109110400D01*
X181400780Y-109076233D01*
X181629261Y-108923567D01*
X181823567Y-108729261D01*
X181976233Y-108500780D01*
X182010000Y-108419260D01*
X182043767Y-108500780D01*
X182196433Y-108729261D01*
X182390739Y-108923567D01*
X182619220Y-109076233D01*
X182695501Y-109107830D01*
X182677674Y-109114256D01*
X182562206Y-109175975D01*
X182495469Y-109415863D01*
X183280000Y-110200395D01*
X184064531Y-109415863D01*
X183997794Y-109175975D01*
X183858293Y-109110400D01*
X183940780Y-109076233D01*
X184169261Y-108923567D01*
X184363567Y-108729261D01*
X184516233Y-108500780D01*
X184550000Y-108419260D01*
X184583767Y-108500780D01*
G37*
%TD.AperFunction*%
D18*
X154103767Y-108500780D02*
X154256433Y-108729261D01*
X154450739Y-108923567D01*
X154679220Y-109076233D01*
X154755501Y-109107830D01*
X154737674Y-109114256D01*
X154622206Y-109175975D01*
X154555469Y-109415863D01*
X155340000Y-110200395D01*
X156124531Y-109415863D01*
X156057794Y-109175975D01*
X155918293Y-109110400D01*
X156000780Y-109076233D01*
X156229261Y-108923567D01*
X156255438Y-108897390D01*
X156283602Y-108920503D01*
X156807500Y-109444402D01*
X156819487Y-109459009D01*
X156799444Y-109479052D01*
X156915861Y-109595469D01*
X156675975Y-109662206D01*
X156612668Y-109796882D01*
X156605744Y-109777674D01*
X156544025Y-109662206D01*
X156304137Y-109595469D01*
X155519605Y-110380000D01*
X155533748Y-110394143D01*
X155354143Y-110573748D01*
X155340000Y-110559605D01*
X155325858Y-110573748D01*
X155146253Y-110394143D01*
X155160395Y-110380000D01*
X154375863Y-109595469D01*
X154135975Y-109662206D01*
X154072668Y-109796882D01*
X154065744Y-109777674D01*
X154004025Y-109662206D01*
X153764137Y-109595469D01*
X152979605Y-110380000D01*
X152993748Y-110394143D01*
X152814143Y-110573748D01*
X152800000Y-110559605D01*
X152785858Y-110573748D01*
X152606253Y-110394143D01*
X152620395Y-110380000D01*
X152606253Y-110365858D01*
X152785858Y-110186252D01*
X152800000Y-110200395D01*
X153584531Y-109415863D01*
X153517794Y-109175975D01*
X153378293Y-109110400D01*
X153460780Y-109076233D01*
X153689261Y-108923567D01*
X153883567Y-108729261D01*
X154036233Y-108500780D01*
X154070000Y-108419260D01*
X154103767Y-108500780D01*
%TA.AperFunction,Conductor*%
D19*
G36*
X154103767Y-108500780D02*
G01*
X154256433Y-108729261D01*
X154450739Y-108923567D01*
X154679220Y-109076233D01*
X154755501Y-109107830D01*
X154737674Y-109114256D01*
X154622206Y-109175975D01*
X154555469Y-109415863D01*
X155340000Y-110200395D01*
X156124531Y-109415863D01*
X156057794Y-109175975D01*
X155918293Y-109110400D01*
X156000780Y-109076233D01*
X156229261Y-108923567D01*
X156255438Y-108897390D01*
X156283602Y-108920503D01*
X156807500Y-109444402D01*
X156819487Y-109459009D01*
X156799444Y-109479052D01*
X156915861Y-109595469D01*
X156675975Y-109662206D01*
X156612668Y-109796882D01*
X156605744Y-109777674D01*
X156544025Y-109662206D01*
X156304137Y-109595469D01*
X155519605Y-110380000D01*
X155533748Y-110394143D01*
X155354143Y-110573748D01*
X155340000Y-110559605D01*
X155325858Y-110573748D01*
X155146253Y-110394143D01*
X155160395Y-110380000D01*
X154375863Y-109595469D01*
X154135975Y-109662206D01*
X154072668Y-109796882D01*
X154065744Y-109777674D01*
X154004025Y-109662206D01*
X153764137Y-109595469D01*
X152979605Y-110380000D01*
X152993748Y-110394143D01*
X152814143Y-110573748D01*
X152800000Y-110559605D01*
X152785858Y-110573748D01*
X152606253Y-110394143D01*
X152620395Y-110380000D01*
X152606253Y-110365858D01*
X152785858Y-110186252D01*
X152800000Y-110200395D01*
X153584531Y-109415863D01*
X153517794Y-109175975D01*
X153378293Y-109110400D01*
X153460780Y-109076233D01*
X153689261Y-108923567D01*
X153883567Y-108729261D01*
X154036233Y-108500780D01*
X154070000Y-108419260D01*
X154103767Y-108500780D01*
G37*
%TD.AperFunction*%
D18*
X158073748Y-110365858D02*
X158059605Y-110380000D01*
X158073748Y-110394143D01*
X157894143Y-110573748D01*
X157880000Y-110559605D01*
X157865858Y-110573748D01*
X157686253Y-110394143D01*
X157700395Y-110380000D01*
X157686252Y-110365858D01*
X157865858Y-110186252D01*
X157880000Y-110200395D01*
X157894142Y-110186252D01*
X158073748Y-110365858D01*
%TA.AperFunction,Conductor*%
D19*
G36*
X158073748Y-110365858D02*
G01*
X158059605Y-110380000D01*
X158073748Y-110394143D01*
X157894143Y-110573748D01*
X157880000Y-110559605D01*
X157865858Y-110573748D01*
X157686253Y-110394143D01*
X157700395Y-110380000D01*
X157686252Y-110365858D01*
X157865858Y-110186252D01*
X157880000Y-110200395D01*
X157894142Y-110186252D01*
X158073748Y-110365858D01*
G37*
%TD.AperFunction*%
D18*
X160547000Y-89933000D02*
X160567000Y-89933000D01*
X160567000Y-90187000D01*
X160547000Y-90187000D01*
X160547000Y-91380155D01*
X160776890Y-91501476D01*
X160924099Y-91456825D01*
X161024700Y-91408908D01*
X161024700Y-91969698D01*
X154828998Y-98165401D01*
X154800000Y-98189199D01*
X154776202Y-98218197D01*
X154776201Y-98218198D01*
X154705026Y-98304924D01*
X154634454Y-98436954D01*
X154590998Y-98580215D01*
X154576324Y-98729200D01*
X154580001Y-98766532D01*
X154580000Y-106670064D01*
X154450739Y-106756433D01*
X154256433Y-106950739D01*
X154103767Y-107179220D01*
X154070000Y-107260740D01*
X154036233Y-107179220D01*
X153883567Y-106950739D01*
X153689261Y-106756433D01*
X153560000Y-106670064D01*
X153560000Y-98163701D01*
X159755704Y-91967998D01*
X159784701Y-91944201D01*
X159811032Y-91912117D01*
X159879674Y-91828477D01*
X159950246Y-91696447D01*
X159964479Y-91649526D01*
X159993703Y-91553186D01*
X160000662Y-91482534D01*
X160063110Y-91501476D01*
X160293000Y-91380155D01*
X160293000Y-90187000D01*
X160273000Y-90187000D01*
X160273000Y-89933000D01*
X160293000Y-89933000D01*
X160293000Y-89913000D01*
X160547000Y-89913000D01*
X160547000Y-89933000D01*
%TA.AperFunction,Conductor*%
D19*
G36*
X160547000Y-89933000D02*
G01*
X160567000Y-89933000D01*
X160567000Y-90187000D01*
X160547000Y-90187000D01*
X160547000Y-91380155D01*
X160776890Y-91501476D01*
X160924099Y-91456825D01*
X161024700Y-91408908D01*
X161024700Y-91969698D01*
X154828998Y-98165401D01*
X154800000Y-98189199D01*
X154776202Y-98218197D01*
X154776201Y-98218198D01*
X154705026Y-98304924D01*
X154634454Y-98436954D01*
X154590998Y-98580215D01*
X154576324Y-98729200D01*
X154580001Y-98766532D01*
X154580000Y-106670064D01*
X154450739Y-106756433D01*
X154256433Y-106950739D01*
X154103767Y-107179220D01*
X154070000Y-107260740D01*
X154036233Y-107179220D01*
X153883567Y-106950739D01*
X153689261Y-106756433D01*
X153560000Y-106670064D01*
X153560000Y-98163701D01*
X159755704Y-91967998D01*
X159784701Y-91944201D01*
X159811032Y-91912117D01*
X159879674Y-91828477D01*
X159950246Y-91696447D01*
X159964479Y-91649526D01*
X159993703Y-91553186D01*
X160000662Y-91482534D01*
X160063110Y-91501476D01*
X160293000Y-91380155D01*
X160293000Y-90187000D01*
X160273000Y-90187000D01*
X160273000Y-89933000D01*
X160293000Y-89933000D01*
X160293000Y-89913000D01*
X160547000Y-89913000D01*
X160547000Y-89933000D01*
G37*
%TD.AperFunction*%
D18*
X185947000Y-89933000D02*
X185967000Y-89933000D01*
X185967000Y-90187000D01*
X185947000Y-90187000D01*
X185947000Y-91380155D01*
X186176890Y-91501476D01*
X186324099Y-91456825D01*
X186409400Y-91416195D01*
X186409401Y-95181568D01*
X186405724Y-95218900D01*
X186409401Y-95256233D01*
X186416261Y-95325877D01*
X186420398Y-95367885D01*
X186463854Y-95511146D01*
X186499928Y-95578635D01*
X186499928Y-95925770D01*
X185970650Y-96455048D01*
X185976072Y-96400000D01*
X185976072Y-95150000D01*
X185959008Y-94976746D01*
X185908472Y-94810150D01*
X185826405Y-94656614D01*
X185715962Y-94522038D01*
X185581386Y-94411595D01*
X185427850Y-94329528D01*
X185261254Y-94278992D01*
X185088000Y-94261928D01*
X184288000Y-94261928D01*
X184114746Y-94278992D01*
X183948150Y-94329528D01*
X183794614Y-94411595D01*
X183660038Y-94522038D01*
X183549595Y-94656614D01*
X183467528Y-94810150D01*
X183416992Y-94976746D01*
X183399928Y-95150000D01*
X183399928Y-96400000D01*
X183416992Y-96573254D01*
X183467528Y-96739850D01*
X183549595Y-96893386D01*
X183660038Y-97027962D01*
X183790501Y-97135029D01*
X183790500Y-99396681D01*
X183748150Y-99409528D01*
X183594614Y-99491595D01*
X183460038Y-99602038D01*
X183349595Y-99736614D01*
X183267528Y-99890150D01*
X183216992Y-100056746D01*
X183199928Y-100230000D01*
X183199928Y-101480000D01*
X183216992Y-101653254D01*
X183267528Y-101819850D01*
X183349595Y-101973386D01*
X183460038Y-102107962D01*
X183500600Y-102141250D01*
X183500600Y-102224664D01*
X183432014Y-102327311D01*
X183361532Y-102497471D01*
X183325600Y-102678111D01*
X183325600Y-102862289D01*
X183361532Y-103042929D01*
X183432014Y-103213089D01*
X183534338Y-103366228D01*
X183664572Y-103496462D01*
X183817711Y-103598786D01*
X183880432Y-103624766D01*
X181029870Y-106475329D01*
X180877396Y-106445000D01*
X180602604Y-106445000D01*
X180333093Y-106498609D01*
X180079220Y-106603767D01*
X179850739Y-106756433D01*
X179656433Y-106950739D01*
X179503767Y-107179220D01*
X179470000Y-107260740D01*
X179436233Y-107179220D01*
X179283567Y-106950739D01*
X179089261Y-106756433D01*
X178960000Y-106670064D01*
X178960000Y-103207610D01*
X179067528Y-103135762D01*
X179197762Y-103005528D01*
X179300086Y-102852389D01*
X179370568Y-102682229D01*
X179406500Y-102501589D01*
X179406500Y-102317411D01*
X179370568Y-102136771D01*
X179300086Y-101966611D01*
X179231500Y-101863965D01*
X179231500Y-96908701D01*
X184913026Y-91227176D01*
X185053080Y-91331641D01*
X185315901Y-91456825D01*
X185463110Y-91501476D01*
X185693000Y-91380155D01*
X185693000Y-90187000D01*
X185673000Y-90187000D01*
X185673000Y-89933000D01*
X185693000Y-89933000D01*
X185693000Y-89913000D01*
X185947000Y-89913000D01*
X185947000Y-89933000D01*
%TA.AperFunction,Conductor*%
D19*
G36*
X185947000Y-89933000D02*
G01*
X185967000Y-89933000D01*
X185967000Y-90187000D01*
X185947000Y-90187000D01*
X185947000Y-91380155D01*
X186176890Y-91501476D01*
X186324099Y-91456825D01*
X186409400Y-91416195D01*
X186409401Y-95181568D01*
X186405724Y-95218900D01*
X186409401Y-95256233D01*
X186416261Y-95325877D01*
X186420398Y-95367885D01*
X186463854Y-95511146D01*
X186499928Y-95578635D01*
X186499928Y-95925770D01*
X185970650Y-96455048D01*
X185976072Y-96400000D01*
X185976072Y-95150000D01*
X185959008Y-94976746D01*
X185908472Y-94810150D01*
X185826405Y-94656614D01*
X185715962Y-94522038D01*
X185581386Y-94411595D01*
X185427850Y-94329528D01*
X185261254Y-94278992D01*
X185088000Y-94261928D01*
X184288000Y-94261928D01*
X184114746Y-94278992D01*
X183948150Y-94329528D01*
X183794614Y-94411595D01*
X183660038Y-94522038D01*
X183549595Y-94656614D01*
X183467528Y-94810150D01*
X183416992Y-94976746D01*
X183399928Y-95150000D01*
X183399928Y-96400000D01*
X183416992Y-96573254D01*
X183467528Y-96739850D01*
X183549595Y-96893386D01*
X183660038Y-97027962D01*
X183790501Y-97135029D01*
X183790500Y-99396681D01*
X183748150Y-99409528D01*
X183594614Y-99491595D01*
X183460038Y-99602038D01*
X183349595Y-99736614D01*
X183267528Y-99890150D01*
X183216992Y-100056746D01*
X183199928Y-100230000D01*
X183199928Y-101480000D01*
X183216992Y-101653254D01*
X183267528Y-101819850D01*
X183349595Y-101973386D01*
X183460038Y-102107962D01*
X183500600Y-102141250D01*
X183500600Y-102224664D01*
X183432014Y-102327311D01*
X183361532Y-102497471D01*
X183325600Y-102678111D01*
X183325600Y-102862289D01*
X183361532Y-103042929D01*
X183432014Y-103213089D01*
X183534338Y-103366228D01*
X183664572Y-103496462D01*
X183817711Y-103598786D01*
X183880432Y-103624766D01*
X181029870Y-106475329D01*
X180877396Y-106445000D01*
X180602604Y-106445000D01*
X180333093Y-106498609D01*
X180079220Y-106603767D01*
X179850739Y-106756433D01*
X179656433Y-106950739D01*
X179503767Y-107179220D01*
X179470000Y-107260740D01*
X179436233Y-107179220D01*
X179283567Y-106950739D01*
X179089261Y-106756433D01*
X178960000Y-106670064D01*
X178960000Y-103207610D01*
X179067528Y-103135762D01*
X179197762Y-103005528D01*
X179300086Y-102852389D01*
X179370568Y-102682229D01*
X179406500Y-102501589D01*
X179406500Y-102317411D01*
X179370568Y-102136771D01*
X179300086Y-101966611D01*
X179231500Y-101863965D01*
X179231500Y-96908701D01*
X184913026Y-91227176D01*
X185053080Y-91331641D01*
X185315901Y-91456825D01*
X185463110Y-91501476D01*
X185693000Y-91380155D01*
X185693000Y-90187000D01*
X185673000Y-90187000D01*
X185673000Y-89933000D01*
X185693000Y-89933000D01*
X185693000Y-89913000D01*
X185947000Y-89913000D01*
X185947000Y-89933000D01*
G37*
%TD.AperFunction*%
D18*
X191027000Y-89933000D02*
X191047000Y-89933000D01*
X191047000Y-90187000D01*
X191027000Y-90187000D01*
X191027000Y-91380155D01*
X191256890Y-91501476D01*
X191404099Y-91456825D01*
X191504700Y-91408908D01*
X191504701Y-101080497D01*
X186109870Y-106475329D01*
X185957396Y-106445000D01*
X185749801Y-106445000D01*
X188036503Y-104158299D01*
X188065501Y-104134501D01*
X188160474Y-104018776D01*
X188231046Y-103886747D01*
X188274503Y-103743486D01*
X188285500Y-103631833D01*
X188285500Y-103631825D01*
X188289176Y-103594500D01*
X188285500Y-103557175D01*
X188285500Y-102313319D01*
X188327850Y-102300472D01*
X188481386Y-102218405D01*
X188615962Y-102107962D01*
X188726405Y-101973386D01*
X188808472Y-101819850D01*
X188859008Y-101653254D01*
X188876072Y-101480000D01*
X188876072Y-100579230D01*
X190235708Y-99219595D01*
X190264701Y-99195801D01*
X190288495Y-99166808D01*
X190288499Y-99166804D01*
X190359673Y-99080077D01*
X190366917Y-99066525D01*
X190430246Y-98948047D01*
X190473703Y-98804786D01*
X190484700Y-98693133D01*
X190484700Y-98693124D01*
X190488376Y-98655801D01*
X190484700Y-98618478D01*
X190484700Y-91483759D01*
X190543110Y-91501476D01*
X190773000Y-91380155D01*
X190773000Y-90187000D01*
X190753000Y-90187000D01*
X190753000Y-89933000D01*
X190773000Y-89933000D01*
X190773000Y-89913000D01*
X191027000Y-89913000D01*
X191027000Y-89933000D01*
%TA.AperFunction,Conductor*%
D19*
G36*
X191027000Y-89933000D02*
G01*
X191047000Y-89933000D01*
X191047000Y-90187000D01*
X191027000Y-90187000D01*
X191027000Y-91380155D01*
X191256890Y-91501476D01*
X191404099Y-91456825D01*
X191504700Y-91408908D01*
X191504701Y-101080497D01*
X186109870Y-106475329D01*
X185957396Y-106445000D01*
X185749801Y-106445000D01*
X188036503Y-104158299D01*
X188065501Y-104134501D01*
X188160474Y-104018776D01*
X188231046Y-103886747D01*
X188274503Y-103743486D01*
X188285500Y-103631833D01*
X188285500Y-103631825D01*
X188289176Y-103594500D01*
X188285500Y-103557175D01*
X188285500Y-102313319D01*
X188327850Y-102300472D01*
X188481386Y-102218405D01*
X188615962Y-102107962D01*
X188726405Y-101973386D01*
X188808472Y-101819850D01*
X188859008Y-101653254D01*
X188876072Y-101480000D01*
X188876072Y-100579230D01*
X190235708Y-99219595D01*
X190264701Y-99195801D01*
X190288495Y-99166808D01*
X190288499Y-99166804D01*
X190359673Y-99080077D01*
X190366917Y-99066525D01*
X190430246Y-98948047D01*
X190473703Y-98804786D01*
X190484700Y-98693133D01*
X190484700Y-98693124D01*
X190488376Y-98655801D01*
X190484700Y-98618478D01*
X190484700Y-91483759D01*
X190543110Y-91501476D01*
X190773000Y-91380155D01*
X190773000Y-90187000D01*
X190753000Y-90187000D01*
X190753000Y-89933000D01*
X190773000Y-89933000D01*
X190773000Y-89913000D01*
X191027000Y-89913000D01*
X191027000Y-89933000D01*
G37*
%TD.AperFunction*%
D18*
X163087000Y-89933000D02*
X163107000Y-89933000D01*
X163107000Y-90187000D01*
X163087000Y-90187000D01*
X163087000Y-91380155D01*
X163316890Y-91501476D01*
X163464099Y-91456825D01*
X163564701Y-91408908D01*
X163564700Y-93337698D01*
X156283598Y-100618801D01*
X156254600Y-100642599D01*
X156230802Y-100671597D01*
X156230801Y-100671598D01*
X156159626Y-100758324D01*
X156100000Y-100869876D01*
X156100000Y-99044001D01*
X162295704Y-92848298D01*
X162324701Y-92824501D01*
X162351032Y-92792417D01*
X162419674Y-92708777D01*
X162490246Y-92576747D01*
X162503531Y-92532950D01*
X162533703Y-92433486D01*
X162544700Y-92321833D01*
X162544700Y-92321824D01*
X162548376Y-92284501D01*
X162544700Y-92247178D01*
X162544700Y-91483759D01*
X162603110Y-91501476D01*
X162833000Y-91380155D01*
X162833000Y-90187000D01*
X162813000Y-90187000D01*
X162813000Y-89933000D01*
X162833000Y-89933000D01*
X162833000Y-89913000D01*
X163087000Y-89913000D01*
X163087000Y-89933000D01*
%TA.AperFunction,Conductor*%
D19*
G36*
X163087000Y-89933000D02*
G01*
X163107000Y-89933000D01*
X163107000Y-90187000D01*
X163087000Y-90187000D01*
X163087000Y-91380155D01*
X163316890Y-91501476D01*
X163464099Y-91456825D01*
X163564701Y-91408908D01*
X163564700Y-93337698D01*
X156283598Y-100618801D01*
X156254600Y-100642599D01*
X156230802Y-100671597D01*
X156230801Y-100671598D01*
X156159626Y-100758324D01*
X156100000Y-100869876D01*
X156100000Y-99044001D01*
X162295704Y-92848298D01*
X162324701Y-92824501D01*
X162351032Y-92792417D01*
X162419674Y-92708777D01*
X162490246Y-92576747D01*
X162503531Y-92532950D01*
X162533703Y-92433486D01*
X162544700Y-92321833D01*
X162544700Y-92321824D01*
X162548376Y-92284501D01*
X162544700Y-92247178D01*
X162544700Y-91483759D01*
X162603110Y-91501476D01*
X162833000Y-91380155D01*
X162833000Y-90187000D01*
X162813000Y-90187000D01*
X162813000Y-89933000D01*
X162833000Y-89933000D01*
X162833000Y-89913000D01*
X163087000Y-89913000D01*
X163087000Y-89933000D01*
G37*
%TD.AperFunction*%
D18*
X193567000Y-89933000D02*
X193587000Y-89933000D01*
X193587000Y-90187000D01*
X193567000Y-90187000D01*
X193567000Y-91380155D01*
X193796890Y-91501476D01*
X193944099Y-91456825D01*
X194044701Y-91408907D01*
X194044700Y-99545598D01*
X193024700Y-100565598D01*
X193024700Y-91483759D01*
X193083110Y-91501476D01*
X193313000Y-91380155D01*
X193313000Y-90187000D01*
X193293000Y-90187000D01*
X193293000Y-89933000D01*
X193313000Y-89933000D01*
X193313000Y-89913000D01*
X193567000Y-89913000D01*
X193567000Y-89933000D01*
%TA.AperFunction,Conductor*%
D19*
G36*
X193567000Y-89933000D02*
G01*
X193587000Y-89933000D01*
X193587000Y-90187000D01*
X193567000Y-90187000D01*
X193567000Y-91380155D01*
X193796890Y-91501476D01*
X193944099Y-91456825D01*
X194044701Y-91408907D01*
X194044700Y-99545598D01*
X193024700Y-100565598D01*
X193024700Y-91483759D01*
X193083110Y-91501476D01*
X193313000Y-91380155D01*
X193313000Y-90187000D01*
X193293000Y-90187000D01*
X193293000Y-89933000D01*
X193313000Y-89933000D01*
X193313000Y-89913000D01*
X193567000Y-89913000D01*
X193567000Y-89933000D01*
G37*
%TD.AperFunction*%
D18*
X188487000Y-89933000D02*
X188507000Y-89933000D01*
X188507000Y-90187000D01*
X188487000Y-90187000D01*
X188487000Y-91380155D01*
X188716890Y-91501476D01*
X188864099Y-91456825D01*
X188964700Y-91408908D01*
X188964701Y-94728260D01*
X188926405Y-94656614D01*
X188815962Y-94522038D01*
X188681386Y-94411595D01*
X188527850Y-94329528D01*
X188361254Y-94278992D01*
X188188000Y-94261928D01*
X187929400Y-94261928D01*
X187929400Y-91479119D01*
X188003110Y-91501476D01*
X188233000Y-91380155D01*
X188233000Y-90187000D01*
X188213000Y-90187000D01*
X188213000Y-89933000D01*
X188233000Y-89933000D01*
X188233000Y-89913000D01*
X188487000Y-89913000D01*
X188487000Y-89933000D01*
%TA.AperFunction,Conductor*%
D19*
G36*
X188487000Y-89933000D02*
G01*
X188507000Y-89933000D01*
X188507000Y-90187000D01*
X188487000Y-90187000D01*
X188487000Y-91380155D01*
X188716890Y-91501476D01*
X188864099Y-91456825D01*
X188964700Y-91408908D01*
X188964701Y-94728260D01*
X188926405Y-94656614D01*
X188815962Y-94522038D01*
X188681386Y-94411595D01*
X188527850Y-94329528D01*
X188361254Y-94278992D01*
X188188000Y-94261928D01*
X187929400Y-94261928D01*
X187929400Y-91479119D01*
X188003110Y-91501476D01*
X188233000Y-91380155D01*
X188233000Y-90187000D01*
X188213000Y-90187000D01*
X188213000Y-89933000D01*
X188233000Y-89933000D01*
X188233000Y-89913000D01*
X188487000Y-89913000D01*
X188487000Y-89933000D01*
G37*
%TD.AperFunction*%
D18*
X165627000Y-89933000D02*
X165647000Y-89933000D01*
X165647000Y-90187000D01*
X165627000Y-90187000D01*
X165627000Y-91380155D01*
X165856890Y-91501476D01*
X166004099Y-91456825D01*
X166104700Y-91408908D01*
X166104700Y-91434598D01*
X165084700Y-92454598D01*
X165084700Y-91483759D01*
X165143110Y-91501476D01*
X165373000Y-91380155D01*
X165373000Y-90187000D01*
X165353000Y-90187000D01*
X165353000Y-89933000D01*
X165373000Y-89933000D01*
X165373000Y-89913000D01*
X165627000Y-89913000D01*
X165627000Y-89933000D01*
%TA.AperFunction,Conductor*%
D19*
G36*
X165627000Y-89933000D02*
G01*
X165647000Y-89933000D01*
X165647000Y-90187000D01*
X165627000Y-90187000D01*
X165627000Y-91380155D01*
X165856890Y-91501476D01*
X166004099Y-91456825D01*
X166104700Y-91408908D01*
X166104700Y-91434598D01*
X165084700Y-92454598D01*
X165084700Y-91483759D01*
X165143110Y-91501476D01*
X165373000Y-91380155D01*
X165373000Y-90187000D01*
X165353000Y-90187000D01*
X165353000Y-89933000D01*
X165373000Y-89933000D01*
X165373000Y-89913000D01*
X165627000Y-89913000D01*
X165627000Y-89933000D01*
G37*
%TD.AperFunction*%
D18*
X158007000Y-89933000D02*
X158027000Y-89933000D01*
X158027000Y-90187000D01*
X158007000Y-90187000D01*
X158007000Y-91380155D01*
X158129366Y-91444732D01*
X157464700Y-92109398D01*
X157464700Y-91483759D01*
X157523110Y-91501476D01*
X157753000Y-91380155D01*
X157753000Y-90187000D01*
X157733000Y-90187000D01*
X157733000Y-89933000D01*
X157753000Y-89933000D01*
X157753000Y-89913000D01*
X158007000Y-89913000D01*
X158007000Y-89933000D01*
%TA.AperFunction,Conductor*%
D19*
G36*
X158007000Y-89933000D02*
G01*
X158027000Y-89933000D01*
X158027000Y-90187000D01*
X158007000Y-90187000D01*
X158007000Y-91380155D01*
X158129366Y-91444732D01*
X157464700Y-92109398D01*
X157464700Y-91483759D01*
X157523110Y-91501476D01*
X157753000Y-91380155D01*
X157753000Y-90187000D01*
X157733000Y-90187000D01*
X157733000Y-89933000D01*
X157753000Y-89933000D01*
X157753000Y-89913000D01*
X158007000Y-89913000D01*
X158007000Y-89933000D01*
G37*
%TD.AperFunction*%
D18*
X180867000Y-89933000D02*
X180887000Y-89933000D01*
X180887000Y-90187000D01*
X180867000Y-90187000D01*
X180867000Y-90207000D01*
X180613000Y-90207000D01*
X180613000Y-90187000D01*
X180593000Y-90187000D01*
X180593000Y-89933000D01*
X180613000Y-89933000D01*
X180613000Y-89913000D01*
X180867000Y-89913000D01*
X180867000Y-89933000D01*
%TA.AperFunction,Conductor*%
D19*
G36*
X180867000Y-89933000D02*
G01*
X180887000Y-89933000D01*
X180887000Y-90187000D01*
X180867000Y-90187000D01*
X180867000Y-90207000D01*
X180613000Y-90207000D01*
X180613000Y-90187000D01*
X180593000Y-90187000D01*
X180593000Y-89933000D01*
X180613000Y-89933000D01*
X180613000Y-89913000D01*
X180867000Y-89913000D01*
X180867000Y-89933000D01*
G37*
%TD.AperFunction*%
D18*
X178327000Y-89933000D02*
X178347000Y-89933000D01*
X178347000Y-90187000D01*
X178327000Y-90187000D01*
X178327000Y-90207000D01*
X178073000Y-90207000D01*
X178073000Y-90187000D01*
X178053000Y-90187000D01*
X178053000Y-89933000D01*
X178073000Y-89933000D01*
X178073000Y-89913000D01*
X178327000Y-89913000D01*
X178327000Y-89933000D01*
%TA.AperFunction,Conductor*%
D19*
G36*
X178327000Y-89933000D02*
G01*
X178347000Y-89933000D01*
X178347000Y-90187000D01*
X178327000Y-90187000D01*
X178327000Y-90207000D01*
X178073000Y-90207000D01*
X178073000Y-90187000D01*
X178053000Y-90187000D01*
X178053000Y-89933000D01*
X178073000Y-89933000D01*
X178073000Y-89913000D01*
X178327000Y-89913000D01*
X178327000Y-89933000D01*
G37*
%TD.AperFunction*%
D18*
X175787000Y-89933000D02*
X175807000Y-89933000D01*
X175807000Y-90187000D01*
X175787000Y-90187000D01*
X175787000Y-90207000D01*
X175533000Y-90207000D01*
X175533000Y-90187000D01*
X175513000Y-90187000D01*
X175513000Y-89933000D01*
X175533000Y-89933000D01*
X175533000Y-89913000D01*
X175787000Y-89913000D01*
X175787000Y-89933000D01*
%TA.AperFunction,Conductor*%
D19*
G36*
X175787000Y-89933000D02*
G01*
X175807000Y-89933000D01*
X175807000Y-90187000D01*
X175787000Y-90187000D01*
X175787000Y-90207000D01*
X175533000Y-90207000D01*
X175533000Y-90187000D01*
X175513000Y-90187000D01*
X175513000Y-89933000D01*
X175533000Y-89933000D01*
X175533000Y-89913000D01*
X175787000Y-89913000D01*
X175787000Y-89933000D01*
G37*
%TD.AperFunction*%
D18*
X183407000Y-89933000D02*
X183427000Y-89933000D01*
X183427000Y-90187000D01*
X183407000Y-90187000D01*
X183407000Y-90207000D01*
X183153000Y-90207000D01*
X183153000Y-90187000D01*
X183133000Y-90187000D01*
X183133000Y-89933000D01*
X183153000Y-89933000D01*
X183153000Y-89913000D01*
X183407000Y-89913000D01*
X183407000Y-89933000D01*
%TA.AperFunction,Conductor*%
D19*
G36*
X183407000Y-89933000D02*
G01*
X183427000Y-89933000D01*
X183427000Y-90187000D01*
X183407000Y-90187000D01*
X183407000Y-90207000D01*
X183153000Y-90207000D01*
X183153000Y-90187000D01*
X183133000Y-90187000D01*
X183133000Y-89933000D01*
X183153000Y-89933000D01*
X183153000Y-89913000D01*
X183407000Y-89913000D01*
X183407000Y-89933000D01*
G37*
%TD.AperFunction*%
D18*
X173247000Y-89933000D02*
X173267000Y-89933000D01*
X173267000Y-90187000D01*
X173247000Y-90187000D01*
X173247000Y-90207000D01*
X172993000Y-90207000D01*
X172993000Y-90187000D01*
X172973000Y-90187000D01*
X172973000Y-89933000D01*
X172993000Y-89933000D01*
X172993000Y-89913000D01*
X173247000Y-89913000D01*
X173247000Y-89933000D01*
%TA.AperFunction,Conductor*%
D19*
G36*
X173247000Y-89933000D02*
G01*
X173267000Y-89933000D01*
X173267000Y-90187000D01*
X173247000Y-90187000D01*
X173247000Y-90207000D01*
X172993000Y-90207000D01*
X172993000Y-90187000D01*
X172973000Y-90187000D01*
X172973000Y-89933000D01*
X172993000Y-89933000D01*
X172993000Y-89913000D01*
X173247000Y-89913000D01*
X173247000Y-89933000D01*
G37*
%TD.AperFunction*%
D18*
X170707000Y-89933000D02*
X170727000Y-89933000D01*
X170727000Y-90187000D01*
X170707000Y-90187000D01*
X170707000Y-90207000D01*
X170453000Y-90207000D01*
X170453000Y-90187000D01*
X170433000Y-90187000D01*
X170433000Y-89933000D01*
X170453000Y-89933000D01*
X170453000Y-89913000D01*
X170707000Y-89913000D01*
X170707000Y-89933000D01*
%TA.AperFunction,Conductor*%
D19*
G36*
X170707000Y-89933000D02*
G01*
X170727000Y-89933000D01*
X170727000Y-90187000D01*
X170707000Y-90187000D01*
X170707000Y-90207000D01*
X170453000Y-90207000D01*
X170453000Y-90187000D01*
X170433000Y-90187000D01*
X170433000Y-89933000D01*
X170453000Y-89933000D01*
X170453000Y-89913000D01*
X170707000Y-89913000D01*
X170707000Y-89933000D01*
G37*
%TD.AperFunction*%
D18*
X168167000Y-89933000D02*
X168187000Y-89933000D01*
X168187000Y-90187000D01*
X168167000Y-90187000D01*
X168167000Y-90207000D01*
X167913000Y-90207000D01*
X167913000Y-90187000D01*
X167893000Y-90187000D01*
X167893000Y-89933000D01*
X167913000Y-89933000D01*
X167913000Y-89913000D01*
X168167000Y-89913000D01*
X168167000Y-89933000D01*
%TA.AperFunction,Conductor*%
D19*
G36*
X168167000Y-89933000D02*
G01*
X168187000Y-89933000D01*
X168187000Y-90187000D01*
X168167000Y-90187000D01*
X168167000Y-90207000D01*
X167913000Y-90207000D01*
X167913000Y-90187000D01*
X167893000Y-90187000D01*
X167893000Y-89933000D01*
X167913000Y-89933000D01*
X167913000Y-89913000D01*
X168167000Y-89913000D01*
X168167000Y-89933000D01*
G37*
%TD.AperFunction*%
M02*
