%TF.GenerationSoftware,KiCad,Pcbnew,4.0.2+dfsg1-stable*%
%TF.CreationDate,2018-12-23T16:06:34+01:00*%
%TF.ProjectId,AmigaPCDriveAdapter,416D6967615043447269766541646170,rev?*%
%TF.FileFunction,Legend,Top*%
%FSLAX46Y46*%
G04 Gerber Fmt 4.6, Leading zero omitted, Abs format (unit mm)*
G04 Created by KiCad (PCBNEW 4.0.2+dfsg1-stable) date Sun 23 Dec 2018 16:06:34 CET*
%MOMM*%
G01*
G04 APERTURE LIST*
%ADD10C,0.100000*%
%ADD11C,0.150000*%
%ADD12C,0.300000*%
G04 APERTURE END LIST*
D10*
D11*
X223118433Y-97851167D02*
X223551766Y-97851167D01*
X223318433Y-98117833D01*
X223418433Y-98117833D01*
X223485100Y-98151167D01*
X223518433Y-98184500D01*
X223551766Y-98251167D01*
X223551766Y-98417833D01*
X223518433Y-98484500D01*
X223485100Y-98517833D01*
X223418433Y-98551167D01*
X223218433Y-98551167D01*
X223151766Y-98517833D01*
X223118433Y-98484500D01*
X224151767Y-98084500D02*
X224151767Y-98551167D01*
X223985100Y-97817833D02*
X223818433Y-98317833D01*
X224251767Y-98317833D01*
X180717800Y-104278867D02*
X180317800Y-104278867D01*
X180517800Y-104278867D02*
X180517800Y-103578867D01*
X180451134Y-103678867D01*
X180384467Y-103745533D01*
X180317800Y-103778867D01*
X144018668Y-123760667D02*
X144018668Y-123060667D01*
X144018668Y-123727333D02*
X143952001Y-123760667D01*
X143818668Y-123760667D01*
X143752001Y-123727333D01*
X143718668Y-123694000D01*
X143685334Y-123627333D01*
X143685334Y-123427333D01*
X143718668Y-123360667D01*
X143752001Y-123327333D01*
X143818668Y-123294000D01*
X143952001Y-123294000D01*
X144018668Y-123327333D01*
X144618667Y-123727333D02*
X144552001Y-123760667D01*
X144418667Y-123760667D01*
X144352001Y-123727333D01*
X144318667Y-123660667D01*
X144318667Y-123394000D01*
X144352001Y-123327333D01*
X144418667Y-123294000D01*
X144552001Y-123294000D01*
X144618667Y-123327333D01*
X144652001Y-123394000D01*
X144652001Y-123460667D01*
X144318667Y-123527333D01*
X144918667Y-123727333D02*
X144985334Y-123760667D01*
X145118667Y-123760667D01*
X145185334Y-123727333D01*
X145218667Y-123660667D01*
X145218667Y-123627333D01*
X145185334Y-123560667D01*
X145118667Y-123527333D01*
X145018667Y-123527333D01*
X144952001Y-123494000D01*
X144918667Y-123427333D01*
X144918667Y-123394000D01*
X144952001Y-123327333D01*
X145018667Y-123294000D01*
X145118667Y-123294000D01*
X145185334Y-123327333D01*
X145518668Y-123760667D02*
X145518668Y-123294000D01*
X145518668Y-123060667D02*
X145485334Y-123094000D01*
X145518668Y-123127333D01*
X145552001Y-123094000D01*
X145518668Y-123060667D01*
X145518668Y-123127333D01*
X146152001Y-123294000D02*
X146152001Y-123860667D01*
X146118667Y-123927333D01*
X146085334Y-123960667D01*
X146018667Y-123994000D01*
X145918667Y-123994000D01*
X145852001Y-123960667D01*
X146152001Y-123727333D02*
X146085334Y-123760667D01*
X145952001Y-123760667D01*
X145885334Y-123727333D01*
X145852001Y-123694000D01*
X145818667Y-123627333D01*
X145818667Y-123427333D01*
X145852001Y-123360667D01*
X145885334Y-123327333D01*
X145952001Y-123294000D01*
X146085334Y-123294000D01*
X146152001Y-123327333D01*
X146485334Y-123294000D02*
X146485334Y-123760667D01*
X146485334Y-123360667D02*
X146518667Y-123327333D01*
X146585334Y-123294000D01*
X146685334Y-123294000D01*
X146752000Y-123327333D01*
X146785334Y-123394000D01*
X146785334Y-123760667D01*
X147385333Y-123727333D02*
X147318667Y-123760667D01*
X147185333Y-123760667D01*
X147118667Y-123727333D01*
X147085333Y-123660667D01*
X147085333Y-123394000D01*
X147118667Y-123327333D01*
X147185333Y-123294000D01*
X147318667Y-123294000D01*
X147385333Y-123327333D01*
X147418667Y-123394000D01*
X147418667Y-123460667D01*
X147085333Y-123527333D01*
X148018667Y-123760667D02*
X148018667Y-123060667D01*
X148018667Y-123727333D02*
X147952000Y-123760667D01*
X147818667Y-123760667D01*
X147752000Y-123727333D01*
X147718667Y-123694000D01*
X147685333Y-123627333D01*
X147685333Y-123427333D01*
X147718667Y-123360667D01*
X147752000Y-123327333D01*
X147818667Y-123294000D01*
X147952000Y-123294000D01*
X148018667Y-123327333D01*
X148885333Y-123760667D02*
X148885333Y-123060667D01*
X148885333Y-123327333D02*
X148951999Y-123294000D01*
X149085333Y-123294000D01*
X149151999Y-123327333D01*
X149185333Y-123360667D01*
X149218666Y-123427333D01*
X149218666Y-123627333D01*
X149185333Y-123694000D01*
X149151999Y-123727333D01*
X149085333Y-123760667D01*
X148951999Y-123760667D01*
X148885333Y-123727333D01*
X149451999Y-123294000D02*
X149618666Y-123760667D01*
X149785332Y-123294000D02*
X149618666Y-123760667D01*
X149551999Y-123927333D01*
X149518666Y-123960667D01*
X149451999Y-123994000D01*
X150985332Y-123760667D02*
X150751998Y-123427333D01*
X150585332Y-123760667D02*
X150585332Y-123060667D01*
X150851998Y-123060667D01*
X150918665Y-123094000D01*
X150951998Y-123127333D01*
X150985332Y-123194000D01*
X150985332Y-123294000D01*
X150951998Y-123360667D01*
X150918665Y-123394000D01*
X150851998Y-123427333D01*
X150585332Y-123427333D01*
X151285332Y-123694000D02*
X151318665Y-123727333D01*
X151285332Y-123760667D01*
X151251998Y-123727333D01*
X151285332Y-123694000D01*
X151285332Y-123760667D01*
X151985331Y-123094000D02*
X151918665Y-123060667D01*
X151818665Y-123060667D01*
X151718665Y-123094000D01*
X151651998Y-123160667D01*
X151618665Y-123227333D01*
X151585331Y-123360667D01*
X151585331Y-123460667D01*
X151618665Y-123594000D01*
X151651998Y-123660667D01*
X151718665Y-123727333D01*
X151818665Y-123760667D01*
X151885331Y-123760667D01*
X151985331Y-123727333D01*
X152018665Y-123694000D01*
X152018665Y-123460667D01*
X151885331Y-123460667D01*
X152318665Y-123694000D02*
X152351998Y-123727333D01*
X152318665Y-123760667D01*
X152285331Y-123727333D01*
X152318665Y-123694000D01*
X152318665Y-123760667D01*
X152618664Y-123127333D02*
X152651998Y-123094000D01*
X152718664Y-123060667D01*
X152885331Y-123060667D01*
X152951998Y-123094000D01*
X152985331Y-123127333D01*
X153018664Y-123194000D01*
X153018664Y-123260667D01*
X152985331Y-123360667D01*
X152585331Y-123760667D01*
X153018664Y-123760667D01*
X153451998Y-123060667D02*
X153518665Y-123060667D01*
X153585331Y-123094000D01*
X153618665Y-123127333D01*
X153651998Y-123194000D01*
X153685331Y-123327333D01*
X153685331Y-123494000D01*
X153651998Y-123627333D01*
X153618665Y-123694000D01*
X153585331Y-123727333D01*
X153518665Y-123760667D01*
X153451998Y-123760667D01*
X153385331Y-123727333D01*
X153351998Y-123694000D01*
X153318665Y-123627333D01*
X153285331Y-123494000D01*
X153285331Y-123327333D01*
X153318665Y-123194000D01*
X153351998Y-123127333D01*
X153385331Y-123094000D01*
X153451998Y-123060667D01*
X154351998Y-123760667D02*
X153951998Y-123760667D01*
X154151998Y-123760667D02*
X154151998Y-123060667D01*
X154085332Y-123160667D01*
X154018665Y-123227333D01*
X153951998Y-123260667D01*
X154751999Y-123360667D02*
X154685332Y-123327333D01*
X154651999Y-123294000D01*
X154618665Y-123227333D01*
X154618665Y-123194000D01*
X154651999Y-123127333D01*
X154685332Y-123094000D01*
X154751999Y-123060667D01*
X154885332Y-123060667D01*
X154951999Y-123094000D01*
X154985332Y-123127333D01*
X155018665Y-123194000D01*
X155018665Y-123227333D01*
X154985332Y-123294000D01*
X154951999Y-123327333D01*
X154885332Y-123360667D01*
X154751999Y-123360667D01*
X154685332Y-123394000D01*
X154651999Y-123427333D01*
X154618665Y-123494000D01*
X154618665Y-123627333D01*
X154651999Y-123694000D01*
X154685332Y-123727333D01*
X154751999Y-123760667D01*
X154885332Y-123760667D01*
X154951999Y-123727333D01*
X154985332Y-123694000D01*
X155018665Y-123627333D01*
X155018665Y-123494000D01*
X154985332Y-123427333D01*
X154951999Y-123394000D01*
X154885332Y-123360667D01*
D12*
X178321573Y-96563571D02*
X177821573Y-95849286D01*
X177464430Y-96563571D02*
X177464430Y-95063571D01*
X178035858Y-95063571D01*
X178178716Y-95135000D01*
X178250144Y-95206429D01*
X178321573Y-95349286D01*
X178321573Y-95563571D01*
X178250144Y-95706429D01*
X178178716Y-95777857D01*
X178035858Y-95849286D01*
X177464430Y-95849286D01*
X178964430Y-95777857D02*
X179464430Y-95777857D01*
X179678716Y-96563571D02*
X178964430Y-96563571D01*
X178964430Y-95063571D01*
X179678716Y-95063571D01*
X180107287Y-95063571D02*
X180964430Y-95063571D01*
X180535859Y-96563571D02*
X180535859Y-95063571D01*
X182321573Y-96563571D02*
X181821573Y-95849286D01*
X181464430Y-96563571D02*
X181464430Y-95063571D01*
X182035858Y-95063571D01*
X182178716Y-95135000D01*
X182250144Y-95206429D01*
X182321573Y-95349286D01*
X182321573Y-95563571D01*
X182250144Y-95706429D01*
X182178716Y-95777857D01*
X182035858Y-95849286D01*
X181464430Y-95849286D01*
X183250144Y-95063571D02*
X183535858Y-95063571D01*
X183678716Y-95135000D01*
X183821573Y-95277857D01*
X183893001Y-95563571D01*
X183893001Y-96063571D01*
X183821573Y-96349286D01*
X183678716Y-96492143D01*
X183535858Y-96563571D01*
X183250144Y-96563571D01*
X183107287Y-96492143D01*
X182964430Y-96349286D01*
X182893001Y-96063571D01*
X182893001Y-95563571D01*
X182964430Y-95277857D01*
X183107287Y-95135000D01*
X183250144Y-95063571D01*
X185035859Y-95777857D02*
X185250145Y-95849286D01*
X185321573Y-95920714D01*
X185393002Y-96063571D01*
X185393002Y-96277857D01*
X185321573Y-96420714D01*
X185250145Y-96492143D01*
X185107287Y-96563571D01*
X184535859Y-96563571D01*
X184535859Y-95063571D01*
X185035859Y-95063571D01*
X185178716Y-95135000D01*
X185250145Y-95206429D01*
X185321573Y-95349286D01*
X185321573Y-95492143D01*
X185250145Y-95635000D01*
X185178716Y-95706429D01*
X185035859Y-95777857D01*
X184535859Y-95777857D01*
X186035859Y-96563571D02*
X186035859Y-95063571D01*
X186535859Y-95063571D02*
X187393002Y-95063571D01*
X186964431Y-96563571D02*
X186964431Y-95063571D01*
X188607288Y-96563571D02*
X187893002Y-96563571D01*
X187893002Y-95063571D01*
X189035859Y-96135000D02*
X189750145Y-96135000D01*
X188893002Y-96563571D02*
X189393002Y-95063571D01*
X189893002Y-96563571D01*
X190893002Y-95777857D02*
X191107288Y-95849286D01*
X191178716Y-95920714D01*
X191250145Y-96063571D01*
X191250145Y-96277857D01*
X191178716Y-96420714D01*
X191107288Y-96492143D01*
X190964430Y-96563571D01*
X190393002Y-96563571D01*
X190393002Y-95063571D01*
X190893002Y-95063571D01*
X191035859Y-95135000D01*
X191107288Y-95206429D01*
X191178716Y-95349286D01*
X191178716Y-95492143D01*
X191107288Y-95635000D01*
X191035859Y-95706429D01*
X190893002Y-95777857D01*
X190393002Y-95777857D01*
X193893002Y-96563571D02*
X193393002Y-95849286D01*
X193035859Y-96563571D02*
X193035859Y-95063571D01*
X193607287Y-95063571D01*
X193750145Y-95135000D01*
X193821573Y-95206429D01*
X193893002Y-95349286D01*
X193893002Y-95563571D01*
X193821573Y-95706429D01*
X193750145Y-95777857D01*
X193607287Y-95849286D01*
X193035859Y-95849286D01*
X195035859Y-95777857D02*
X195250145Y-95849286D01*
X195321573Y-95920714D01*
X195393002Y-96063571D01*
X195393002Y-96277857D01*
X195321573Y-96420714D01*
X195250145Y-96492143D01*
X195107287Y-96563571D01*
X194535859Y-96563571D01*
X194535859Y-95063571D01*
X195035859Y-95063571D01*
X195178716Y-95135000D01*
X195250145Y-95206429D01*
X195321573Y-95349286D01*
X195321573Y-95492143D01*
X195250145Y-95635000D01*
X195178716Y-95706429D01*
X195035859Y-95777857D01*
X194535859Y-95777857D01*
X196750145Y-96563571D02*
X196035859Y-96563571D01*
X196035859Y-95063571D01*
X197535859Y-95063571D02*
X197678716Y-95063571D01*
X197821573Y-95135000D01*
X197893002Y-95206429D01*
X197964431Y-95349286D01*
X198035859Y-95635000D01*
X198035859Y-95992143D01*
X197964431Y-96277857D01*
X197893002Y-96420714D01*
X197821573Y-96492143D01*
X197678716Y-96563571D01*
X197535859Y-96563571D01*
X197393002Y-96492143D01*
X197321573Y-96420714D01*
X197250145Y-96277857D01*
X197178716Y-95992143D01*
X197178716Y-95635000D01*
X197250145Y-95349286D01*
X197321573Y-95206429D01*
X197393002Y-95135000D01*
X197535859Y-95063571D01*
X198964430Y-95063571D02*
X199107287Y-95063571D01*
X199250144Y-95135000D01*
X199321573Y-95206429D01*
X199393002Y-95349286D01*
X199464430Y-95635000D01*
X199464430Y-95992143D01*
X199393002Y-96277857D01*
X199321573Y-96420714D01*
X199250144Y-96492143D01*
X199107287Y-96563571D01*
X198964430Y-96563571D01*
X198821573Y-96492143D01*
X198750144Y-96420714D01*
X198678716Y-96277857D01*
X198607287Y-95992143D01*
X198607287Y-95635000D01*
X198678716Y-95349286D01*
X198750144Y-95206429D01*
X198821573Y-95135000D01*
X198964430Y-95063571D01*
X200321573Y-95706429D02*
X200178715Y-95635000D01*
X200107287Y-95563571D01*
X200035858Y-95420714D01*
X200035858Y-95349286D01*
X200107287Y-95206429D01*
X200178715Y-95135000D01*
X200321573Y-95063571D01*
X200607287Y-95063571D01*
X200750144Y-95135000D01*
X200821573Y-95206429D01*
X200893001Y-95349286D01*
X200893001Y-95420714D01*
X200821573Y-95563571D01*
X200750144Y-95635000D01*
X200607287Y-95706429D01*
X200321573Y-95706429D01*
X200178715Y-95777857D01*
X200107287Y-95849286D01*
X200035858Y-95992143D01*
X200035858Y-96277857D01*
X200107287Y-96420714D01*
X200178715Y-96492143D01*
X200321573Y-96563571D01*
X200607287Y-96563571D01*
X200750144Y-96492143D01*
X200821573Y-96420714D01*
X200893001Y-96277857D01*
X200893001Y-95992143D01*
X200821573Y-95849286D01*
X200750144Y-95777857D01*
X200607287Y-95706429D01*
X201535858Y-96420714D02*
X201607286Y-96492143D01*
X201535858Y-96563571D01*
X201464429Y-96492143D01*
X201535858Y-96420714D01*
X201535858Y-96563571D01*
X202535858Y-95063571D02*
X202678715Y-95063571D01*
X202821572Y-95135000D01*
X202893001Y-95206429D01*
X202964430Y-95349286D01*
X203035858Y-95635000D01*
X203035858Y-95992143D01*
X202964430Y-96277857D01*
X202893001Y-96420714D01*
X202821572Y-96492143D01*
X202678715Y-96563571D01*
X202535858Y-96563571D01*
X202393001Y-96492143D01*
X202321572Y-96420714D01*
X202250144Y-96277857D01*
X202178715Y-95992143D01*
X202178715Y-95635000D01*
X202250144Y-95349286D01*
X202321572Y-95206429D01*
X202393001Y-95135000D01*
X202535858Y-95063571D01*
X203964429Y-95063571D02*
X204107286Y-95063571D01*
X204250143Y-95135000D01*
X204321572Y-95206429D01*
X204393001Y-95349286D01*
X204464429Y-95635000D01*
X204464429Y-95992143D01*
X204393001Y-96277857D01*
X204321572Y-96420714D01*
X204250143Y-96492143D01*
X204107286Y-96563571D01*
X203964429Y-96563571D01*
X203821572Y-96492143D01*
X203750143Y-96420714D01*
X203678715Y-96277857D01*
X203607286Y-95992143D01*
X203607286Y-95635000D01*
X203678715Y-95349286D01*
X203750143Y-95206429D01*
X203821572Y-95135000D01*
X203964429Y-95063571D01*
X205893000Y-96563571D02*
X205035857Y-96563571D01*
X205464429Y-96563571D02*
X205464429Y-95063571D01*
X205321572Y-95277857D01*
X205178714Y-95420714D01*
X205035857Y-95492143D01*
X186064572Y-112264000D02*
X186778858Y-112264000D01*
X185921715Y-112692571D02*
X186421715Y-111192571D01*
X186921715Y-112692571D01*
X187421715Y-112692571D02*
X187421715Y-111192571D01*
X187921715Y-112264000D01*
X188421715Y-111192571D01*
X188421715Y-112692571D01*
X189136001Y-112692571D02*
X189136001Y-111192571D01*
X190636001Y-111264000D02*
X190493144Y-111192571D01*
X190278858Y-111192571D01*
X190064573Y-111264000D01*
X189921715Y-111406857D01*
X189850287Y-111549714D01*
X189778858Y-111835429D01*
X189778858Y-112049714D01*
X189850287Y-112335429D01*
X189921715Y-112478286D01*
X190064573Y-112621143D01*
X190278858Y-112692571D01*
X190421715Y-112692571D01*
X190636001Y-112621143D01*
X190707430Y-112549714D01*
X190707430Y-112049714D01*
X190421715Y-112049714D01*
X191278858Y-112264000D02*
X191993144Y-112264000D01*
X191136001Y-112692571D02*
X191636001Y-111192571D01*
X192136001Y-112692571D01*
X194278858Y-111906857D02*
X193778858Y-111906857D01*
X193778858Y-112692571D02*
X193778858Y-111192571D01*
X194493144Y-111192571D01*
X195778858Y-112692571D02*
X195064572Y-112692571D01*
X195064572Y-111192571D01*
X196564572Y-111192571D02*
X196850286Y-111192571D01*
X196993144Y-111264000D01*
X197136001Y-111406857D01*
X197207429Y-111692571D01*
X197207429Y-112192571D01*
X197136001Y-112478286D01*
X196993144Y-112621143D01*
X196850286Y-112692571D01*
X196564572Y-112692571D01*
X196421715Y-112621143D01*
X196278858Y-112478286D01*
X196207429Y-112192571D01*
X196207429Y-111692571D01*
X196278858Y-111406857D01*
X196421715Y-111264000D01*
X196564572Y-111192571D01*
X197850287Y-112692571D02*
X197850287Y-111192571D01*
X198421715Y-111192571D01*
X198564573Y-111264000D01*
X198636001Y-111335429D01*
X198707430Y-111478286D01*
X198707430Y-111692571D01*
X198636001Y-111835429D01*
X198564573Y-111906857D01*
X198421715Y-111978286D01*
X197850287Y-111978286D01*
X199350287Y-112692571D02*
X199350287Y-111192571D01*
X199921715Y-111192571D01*
X200064573Y-111264000D01*
X200136001Y-111335429D01*
X200207430Y-111478286D01*
X200207430Y-111692571D01*
X200136001Y-111835429D01*
X200064573Y-111906857D01*
X199921715Y-111978286D01*
X199350287Y-111978286D01*
X201136001Y-111978286D02*
X201136001Y-112692571D01*
X200636001Y-111192571D02*
X201136001Y-111978286D01*
X201636001Y-111192571D01*
X203207429Y-112264000D02*
X203921715Y-112264000D01*
X203064572Y-112692571D02*
X203564572Y-111192571D01*
X204064572Y-112692571D01*
X204564572Y-112692571D02*
X204564572Y-111192571D01*
X204921715Y-111192571D01*
X205136000Y-111264000D01*
X205278858Y-111406857D01*
X205350286Y-111549714D01*
X205421715Y-111835429D01*
X205421715Y-112049714D01*
X205350286Y-112335429D01*
X205278858Y-112478286D01*
X205136000Y-112621143D01*
X204921715Y-112692571D01*
X204564572Y-112692571D01*
X205993143Y-112264000D02*
X206707429Y-112264000D01*
X205850286Y-112692571D02*
X206350286Y-111192571D01*
X206850286Y-112692571D01*
X207350286Y-112692571D02*
X207350286Y-111192571D01*
X207921714Y-111192571D01*
X208064572Y-111264000D01*
X208136000Y-111335429D01*
X208207429Y-111478286D01*
X208207429Y-111692571D01*
X208136000Y-111835429D01*
X208064572Y-111906857D01*
X207921714Y-111978286D01*
X207350286Y-111978286D01*
X208636000Y-111192571D02*
X209493143Y-111192571D01*
X209064572Y-112692571D02*
X209064572Y-111192571D01*
X209993143Y-111906857D02*
X210493143Y-111906857D01*
X210707429Y-112692571D02*
X209993143Y-112692571D01*
X209993143Y-111192571D01*
X210707429Y-111192571D01*
X212207429Y-112692571D02*
X211707429Y-111978286D01*
X211350286Y-112692571D02*
X211350286Y-111192571D01*
X211921714Y-111192571D01*
X212064572Y-111264000D01*
X212136000Y-111335429D01*
X212207429Y-111478286D01*
X212207429Y-111692571D01*
X212136000Y-111835429D01*
X212064572Y-111906857D01*
X211921714Y-111978286D01*
X211350286Y-111978286D01*
D10*
X167222856Y-111443333D02*
X167722856Y-111776667D01*
X168079999Y-111443333D02*
X168079999Y-112143333D01*
X167508571Y-112143333D01*
X167365713Y-112110000D01*
X167294285Y-112076667D01*
X167222856Y-112010000D01*
X167222856Y-111910000D01*
X167294285Y-111843333D01*
X167365713Y-111810000D01*
X167508571Y-111776667D01*
X168079999Y-111776667D01*
X164937142Y-111810000D02*
X164722856Y-111776667D01*
X164651428Y-111743333D01*
X164579999Y-111676667D01*
X164579999Y-111576667D01*
X164651428Y-111510000D01*
X164722856Y-111476667D01*
X164865714Y-111443333D01*
X165437142Y-111443333D01*
X165437142Y-112143333D01*
X164937142Y-112143333D01*
X164794285Y-112110000D01*
X164722856Y-112076667D01*
X164651428Y-112010000D01*
X164651428Y-111943333D01*
X164722856Y-111876667D01*
X164794285Y-111843333D01*
X164937142Y-111810000D01*
X165437142Y-111810000D01*
X162294285Y-111810000D02*
X162079999Y-111776667D01*
X162008571Y-111743333D01*
X161937142Y-111676667D01*
X161937142Y-111576667D01*
X162008571Y-111510000D01*
X162079999Y-111476667D01*
X162222857Y-111443333D01*
X162794285Y-111443333D01*
X162794285Y-112143333D01*
X162294285Y-112143333D01*
X162151428Y-112110000D01*
X162079999Y-112076667D01*
X162008571Y-112010000D01*
X162008571Y-111943333D01*
X162079999Y-111876667D01*
X162151428Y-111843333D01*
X162294285Y-111810000D01*
X162794285Y-111810000D01*
X159865714Y-111776667D02*
X159865714Y-111443333D01*
X160365714Y-112143333D02*
X159865714Y-111776667D01*
X159365714Y-112143333D01*
X141921667Y-122137856D02*
X141588333Y-122637856D01*
X141921667Y-122994999D02*
X141221667Y-122994999D01*
X141221667Y-122423571D01*
X141255000Y-122280713D01*
X141288333Y-122209285D01*
X141355000Y-122137856D01*
X141455000Y-122137856D01*
X141521667Y-122209285D01*
X141555000Y-122280713D01*
X141588333Y-122423571D01*
X141588333Y-122994999D01*
X141555000Y-119852142D02*
X141588333Y-119637856D01*
X141621667Y-119566428D01*
X141688333Y-119494999D01*
X141788333Y-119494999D01*
X141855000Y-119566428D01*
X141888333Y-119637856D01*
X141921667Y-119780714D01*
X141921667Y-120352142D01*
X141221667Y-120352142D01*
X141221667Y-119852142D01*
X141255000Y-119709285D01*
X141288333Y-119637856D01*
X141355000Y-119566428D01*
X141421667Y-119566428D01*
X141488333Y-119637856D01*
X141521667Y-119709285D01*
X141555000Y-119852142D01*
X141555000Y-120352142D01*
X141555000Y-117209285D02*
X141588333Y-116994999D01*
X141621667Y-116923571D01*
X141688333Y-116852142D01*
X141788333Y-116852142D01*
X141855000Y-116923571D01*
X141888333Y-116994999D01*
X141921667Y-117137857D01*
X141921667Y-117709285D01*
X141221667Y-117709285D01*
X141221667Y-117209285D01*
X141255000Y-117066428D01*
X141288333Y-116994999D01*
X141355000Y-116923571D01*
X141421667Y-116923571D01*
X141488333Y-116994999D01*
X141521667Y-117066428D01*
X141555000Y-117209285D01*
X141555000Y-117709285D01*
X141588333Y-114780714D02*
X141921667Y-114780714D01*
X141221667Y-115280714D02*
X141588333Y-114780714D01*
X141221667Y-114280714D01*
X139750000Y-123343333D02*
X139750000Y-122810000D01*
X140016667Y-123076667D02*
X139483333Y-123076667D01*
X139316667Y-122143333D02*
X139316667Y-122476666D01*
X139650000Y-122510000D01*
X139616667Y-122476666D01*
X139583333Y-122410000D01*
X139583333Y-122243333D01*
X139616667Y-122176666D01*
X139650000Y-122143333D01*
X139716667Y-122110000D01*
X139883333Y-122110000D01*
X139950000Y-122143333D01*
X139983333Y-122176666D01*
X140016667Y-122243333D01*
X140016667Y-122410000D01*
X139983333Y-122476666D01*
X139950000Y-122510000D01*
X139316667Y-121909999D02*
X140016667Y-121676666D01*
X139316667Y-121443333D01*
X139350000Y-120310000D02*
X139316667Y-120376666D01*
X139316667Y-120476666D01*
X139350000Y-120576666D01*
X139416667Y-120643333D01*
X139483333Y-120676666D01*
X139616667Y-120710000D01*
X139716667Y-120710000D01*
X139850000Y-120676666D01*
X139916667Y-120643333D01*
X139983333Y-120576666D01*
X140016667Y-120476666D01*
X140016667Y-120410000D01*
X139983333Y-120310000D01*
X139950000Y-120276666D01*
X139716667Y-120276666D01*
X139716667Y-120410000D01*
X140016667Y-119976666D02*
X139316667Y-119976666D01*
X140016667Y-119576666D01*
X139316667Y-119576666D01*
X140016667Y-119243333D02*
X139316667Y-119243333D01*
X139316667Y-119076667D01*
X139350000Y-118976667D01*
X139416667Y-118910000D01*
X139483333Y-118876667D01*
X139616667Y-118843333D01*
X139716667Y-118843333D01*
X139850000Y-118876667D01*
X139916667Y-118910000D01*
X139983333Y-118976667D01*
X140016667Y-119076667D01*
X140016667Y-119243333D01*
X139350000Y-117643334D02*
X139316667Y-117710000D01*
X139316667Y-117810000D01*
X139350000Y-117910000D01*
X139416667Y-117976667D01*
X139483333Y-118010000D01*
X139616667Y-118043334D01*
X139716667Y-118043334D01*
X139850000Y-118010000D01*
X139916667Y-117976667D01*
X139983333Y-117910000D01*
X140016667Y-117810000D01*
X140016667Y-117743334D01*
X139983333Y-117643334D01*
X139950000Y-117610000D01*
X139716667Y-117610000D01*
X139716667Y-117743334D01*
X140016667Y-117310000D02*
X139316667Y-117310000D01*
X140016667Y-116910000D01*
X139316667Y-116910000D01*
X140016667Y-116576667D02*
X139316667Y-116576667D01*
X139316667Y-116410001D01*
X139350000Y-116310001D01*
X139416667Y-116243334D01*
X139483333Y-116210001D01*
X139616667Y-116176667D01*
X139716667Y-116176667D01*
X139850000Y-116210001D01*
X139916667Y-116243334D01*
X139983333Y-116310001D01*
X140016667Y-116410001D01*
X140016667Y-116576667D01*
X139750000Y-115343334D02*
X139750000Y-114810001D01*
X140016667Y-115076668D02*
X139483333Y-115076668D01*
X140016667Y-114110001D02*
X140016667Y-114510001D01*
X140016667Y-114310001D02*
X139316667Y-114310001D01*
X139416667Y-114376667D01*
X139483333Y-114443334D01*
X139516667Y-114510001D01*
X139383333Y-113843334D02*
X139350000Y-113810000D01*
X139316667Y-113743334D01*
X139316667Y-113576667D01*
X139350000Y-113510000D01*
X139383333Y-113476667D01*
X139450000Y-113443334D01*
X139516667Y-113443334D01*
X139616667Y-113476667D01*
X140016667Y-113876667D01*
X140016667Y-113443334D01*
X139316667Y-113243333D02*
X140016667Y-113010000D01*
X139316667Y-112776667D01*
X169063333Y-106630000D02*
X168530000Y-106630000D01*
X168796667Y-106363333D02*
X168796667Y-106896667D01*
X167863333Y-107063333D02*
X168196666Y-107063333D01*
X168230000Y-106730000D01*
X168196666Y-106763333D01*
X168130000Y-106796667D01*
X167963333Y-106796667D01*
X167896666Y-106763333D01*
X167863333Y-106730000D01*
X167830000Y-106663333D01*
X167830000Y-106496667D01*
X167863333Y-106430000D01*
X167896666Y-106396667D01*
X167963333Y-106363333D01*
X168130000Y-106363333D01*
X168196666Y-106396667D01*
X168230000Y-106430000D01*
X167629999Y-107063333D02*
X167396666Y-106363333D01*
X167163333Y-107063333D01*
X166030000Y-107030000D02*
X166096666Y-107063333D01*
X166196666Y-107063333D01*
X166296666Y-107030000D01*
X166363333Y-106963333D01*
X166396666Y-106896667D01*
X166430000Y-106763333D01*
X166430000Y-106663333D01*
X166396666Y-106530000D01*
X166363333Y-106463333D01*
X166296666Y-106396667D01*
X166196666Y-106363333D01*
X166130000Y-106363333D01*
X166030000Y-106396667D01*
X165996666Y-106430000D01*
X165996666Y-106663333D01*
X166130000Y-106663333D01*
X165696666Y-106363333D02*
X165696666Y-107063333D01*
X165296666Y-106363333D01*
X165296666Y-107063333D01*
X164963333Y-106363333D02*
X164963333Y-107063333D01*
X164796667Y-107063333D01*
X164696667Y-107030000D01*
X164630000Y-106963333D01*
X164596667Y-106896667D01*
X164563333Y-106763333D01*
X164563333Y-106663333D01*
X164596667Y-106530000D01*
X164630000Y-106463333D01*
X164696667Y-106396667D01*
X164796667Y-106363333D01*
X164963333Y-106363333D01*
X163363334Y-107030000D02*
X163430000Y-107063333D01*
X163530000Y-107063333D01*
X163630000Y-107030000D01*
X163696667Y-106963333D01*
X163730000Y-106896667D01*
X163763334Y-106763333D01*
X163763334Y-106663333D01*
X163730000Y-106530000D01*
X163696667Y-106463333D01*
X163630000Y-106396667D01*
X163530000Y-106363333D01*
X163463334Y-106363333D01*
X163363334Y-106396667D01*
X163330000Y-106430000D01*
X163330000Y-106663333D01*
X163463334Y-106663333D01*
X163030000Y-106363333D02*
X163030000Y-107063333D01*
X162630000Y-106363333D01*
X162630000Y-107063333D01*
X162296667Y-106363333D02*
X162296667Y-107063333D01*
X162130001Y-107063333D01*
X162030001Y-107030000D01*
X161963334Y-106963333D01*
X161930001Y-106896667D01*
X161896667Y-106763333D01*
X161896667Y-106663333D01*
X161930001Y-106530000D01*
X161963334Y-106463333D01*
X162030001Y-106396667D01*
X162130001Y-106363333D01*
X162296667Y-106363333D01*
X161063334Y-106630000D02*
X160530001Y-106630000D01*
X160796668Y-106363333D02*
X160796668Y-106896667D01*
X159830001Y-106363333D02*
X160230001Y-106363333D01*
X160030001Y-106363333D02*
X160030001Y-107063333D01*
X160096667Y-106963333D01*
X160163334Y-106896667D01*
X160230001Y-106863333D01*
X159563334Y-106996667D02*
X159530000Y-107030000D01*
X159463334Y-107063333D01*
X159296667Y-107063333D01*
X159230000Y-107030000D01*
X159196667Y-106996667D01*
X159163334Y-106930000D01*
X159163334Y-106863333D01*
X159196667Y-106763333D01*
X159596667Y-106363333D01*
X159163334Y-106363333D01*
X158963333Y-107063333D02*
X158730000Y-106363333D01*
X158496667Y-107063333D01*
D11*
X166370000Y-107950000D02*
X158750000Y-107950000D01*
X166370000Y-110490000D02*
X158750000Y-110490000D01*
X169190000Y-110770000D02*
X167640000Y-110770000D01*
X158750000Y-107950000D02*
X158750000Y-110490000D01*
X166370000Y-110490000D02*
X166370000Y-107950000D01*
X167640000Y-107670000D02*
X169190000Y-107670000D01*
X169190000Y-107670000D02*
X169190000Y-110770000D01*
X138460000Y-123470000D02*
X138460000Y-121920000D01*
X137160000Y-123470000D02*
X138460000Y-123470000D01*
X132969000Y-122047000D02*
X127127000Y-122047000D01*
X127127000Y-122047000D02*
X127127000Y-121793000D01*
X127127000Y-121793000D02*
X132969000Y-121793000D01*
X132969000Y-121793000D02*
X132969000Y-121920000D01*
X132969000Y-121920000D02*
X127127000Y-121920000D01*
X135636000Y-122174000D02*
X136017000Y-122174000D01*
X135636000Y-121666000D02*
X136017000Y-121666000D01*
X135636000Y-119634000D02*
X136017000Y-119634000D01*
X135636000Y-119126000D02*
X136017000Y-119126000D01*
X135636000Y-117094000D02*
X136017000Y-117094000D01*
X135636000Y-116586000D02*
X136017000Y-116586000D01*
X135636000Y-114046000D02*
X136017000Y-114046000D01*
X135636000Y-114554000D02*
X136017000Y-114554000D01*
X135636000Y-123190000D02*
X133096000Y-123190000D01*
X135636000Y-120650000D02*
X133096000Y-120650000D01*
X135636000Y-120650000D02*
X135636000Y-118110000D01*
X135636000Y-118110000D02*
X133096000Y-118110000D01*
X133096000Y-119634000D02*
X127000000Y-119634000D01*
X127000000Y-119634000D02*
X127000000Y-119126000D01*
X127000000Y-119126000D02*
X133096000Y-119126000D01*
X133096000Y-118110000D02*
X133096000Y-120650000D01*
X133096000Y-120650000D02*
X133096000Y-123190000D01*
X127000000Y-121666000D02*
X133096000Y-121666000D01*
X127000000Y-122174000D02*
X127000000Y-121666000D01*
X133096000Y-122174000D02*
X127000000Y-122174000D01*
X135636000Y-120650000D02*
X133096000Y-120650000D01*
X135636000Y-123190000D02*
X135636000Y-120650000D01*
X135636000Y-115570000D02*
X133096000Y-115570000D01*
X135636000Y-115570000D02*
X135636000Y-113030000D01*
X135636000Y-113030000D02*
X133096000Y-113030000D01*
X133096000Y-114554000D02*
X127000000Y-114554000D01*
X127000000Y-114554000D02*
X127000000Y-114046000D01*
X127000000Y-114046000D02*
X133096000Y-114046000D01*
X133096000Y-113030000D02*
X133096000Y-115570000D01*
X133096000Y-115570000D02*
X133096000Y-118110000D01*
X127000000Y-116586000D02*
X133096000Y-116586000D01*
X127000000Y-117094000D02*
X127000000Y-116586000D01*
X133096000Y-117094000D02*
X127000000Y-117094000D01*
X135636000Y-115570000D02*
X133096000Y-115570000D01*
X135636000Y-118110000D02*
X135636000Y-115570000D01*
X135636000Y-118110000D02*
X133096000Y-118110000D01*
X216400000Y-107355000D02*
X215400000Y-107355000D01*
X215400000Y-106005000D02*
X216400000Y-106005000D01*
X221480000Y-107355000D02*
X220480000Y-107355000D01*
X220480000Y-106005000D02*
X221480000Y-106005000D01*
X211320000Y-107355000D02*
X210320000Y-107355000D01*
X210320000Y-106005000D02*
X211320000Y-106005000D01*
X206240000Y-107355000D02*
X205240000Y-107355000D01*
X205240000Y-106005000D02*
X206240000Y-106005000D01*
X201160000Y-107355000D02*
X200160000Y-107355000D01*
X200160000Y-106005000D02*
X201160000Y-106005000D01*
X191000000Y-107355000D02*
X190000000Y-107355000D01*
X190000000Y-106005000D02*
X191000000Y-106005000D01*
X196080000Y-107355000D02*
X195080000Y-107355000D01*
X195080000Y-106005000D02*
X196080000Y-106005000D01*
X172720000Y-113560000D02*
X223520000Y-113560000D01*
X173260000Y-114110000D02*
X222960000Y-114110000D01*
X172720000Y-122660000D02*
X223520000Y-122660000D01*
X173260000Y-122110000D02*
X195870000Y-122110000D01*
X200370000Y-122110000D02*
X222960000Y-122110000D01*
X195870000Y-122110000D02*
X195870000Y-122660000D01*
X200370000Y-122110000D02*
X200370000Y-122660000D01*
X172720000Y-113560000D02*
X172720000Y-122660000D01*
X173260000Y-114110000D02*
X173260000Y-122110000D01*
X223520000Y-113560000D02*
X223520000Y-122660000D01*
X222960000Y-114110000D02*
X222960000Y-122110000D01*
X172720000Y-113560000D02*
X173260000Y-114110000D01*
X223520000Y-113560000D02*
X222960000Y-114110000D01*
X172720000Y-122660000D02*
X173260000Y-122110000D01*
X223520000Y-122660000D02*
X222960000Y-122110000D01*
X169935000Y-114435000D02*
X168665000Y-114435000D01*
X169935000Y-121785000D02*
X168665000Y-121785000D01*
X150105000Y-121785000D02*
X151375000Y-121785000D01*
X150105000Y-114435000D02*
X151375000Y-114435000D01*
X169935000Y-114435000D02*
X169935000Y-121785000D01*
X150105000Y-114435000D02*
X150105000Y-121785000D01*
X168665000Y-114435000D02*
X168665000Y-113500000D01*
X179240000Y-109135000D02*
X181140000Y-109135000D01*
X179240000Y-108035000D02*
X181140000Y-108035000D01*
X180140000Y-108585000D02*
X180590000Y-108585000D01*
X180090000Y-108335000D02*
X180090000Y-108835000D01*
X180090000Y-108585000D02*
X180340000Y-108335000D01*
X180340000Y-108335000D02*
X180340000Y-108835000D01*
X180340000Y-108835000D02*
X180090000Y-108585000D01*
X184920000Y-107910000D02*
X185920000Y-107910000D01*
X185920000Y-109260000D02*
X184920000Y-109260000D01*
X176013000Y-99584000D02*
X176013000Y-101584000D01*
X178063000Y-101584000D02*
X178063000Y-99584000D01*
X212836000Y-94733000D02*
X210836000Y-94733000D01*
X210836000Y-96783000D02*
X212836000Y-96783000D01*
X218710000Y-96783000D02*
X220710000Y-96783000D01*
X220710000Y-94733000D02*
X218710000Y-94733000D01*
X176006000Y-107687000D02*
X174006000Y-107687000D01*
X174006000Y-109737000D02*
X176006000Y-109737000D01*
X147972780Y-119783860D02*
X148333460Y-121254520D01*
X148333460Y-121254520D02*
X148612860Y-120192800D01*
X148612860Y-120192800D02*
X148922740Y-121264680D01*
X148922740Y-121264680D02*
X149263100Y-119814340D01*
X146552920Y-120474740D02*
X147342860Y-120464580D01*
X147342860Y-120464580D02*
X147353020Y-120474740D01*
X147353020Y-120474740D02*
X147353020Y-120464580D01*
X147393660Y-119753380D02*
X147393660Y-121295160D01*
X146504660Y-119743220D02*
X146504660Y-121312940D01*
X146504660Y-121312940D02*
X146514820Y-121302780D01*
X145953480Y-119844820D02*
X145602960Y-119763540D01*
X145602960Y-119763540D02*
X145282920Y-119753380D01*
X145282920Y-119753380D02*
X145044160Y-119954040D01*
X145044160Y-119954040D02*
X145013680Y-120223280D01*
X145013680Y-120223280D02*
X145254980Y-120464580D01*
X145254980Y-120464580D02*
X145643600Y-120594120D01*
X145643600Y-120594120D02*
X145823940Y-120754140D01*
X145823940Y-120754140D02*
X145864580Y-121053860D01*
X145864580Y-121053860D02*
X145633440Y-121274840D01*
X145633440Y-121274840D02*
X145313400Y-121302780D01*
X145313400Y-121302780D02*
X144962880Y-121193560D01*
X143924020Y-119743220D02*
X143675100Y-119763540D01*
X143675100Y-119763540D02*
X143433800Y-120004840D01*
X143433800Y-120004840D02*
X143344900Y-120495060D01*
X143344900Y-120495060D02*
X143372840Y-120843040D01*
X143372840Y-120843040D02*
X143573500Y-121163080D01*
X143573500Y-121163080D02*
X143824960Y-121285000D01*
X143824960Y-121285000D02*
X144134840Y-121213880D01*
X144134840Y-121213880D02*
X144353280Y-121033540D01*
X144353280Y-121033540D02*
X144424400Y-120573800D01*
X144424400Y-120573800D02*
X144373600Y-120164860D01*
X144373600Y-120164860D02*
X144264380Y-119882920D01*
X144264380Y-119882920D02*
X143903700Y-119753380D01*
X144523460Y-118023640D02*
X144264380Y-118584980D01*
X144264380Y-118584980D02*
X144802860Y-119103140D01*
X144802860Y-119103140D02*
X145323560Y-118833900D01*
X145323560Y-118833900D02*
X145602960Y-118993920D01*
X147043140Y-118973600D02*
X147373340Y-118783100D01*
X147373340Y-118783100D02*
X147812760Y-119113300D01*
X147812760Y-119113300D02*
X148285200Y-118623080D01*
X148285200Y-118623080D02*
X148003260Y-118143020D01*
X148003260Y-118143020D02*
X148193760Y-117673120D01*
X148193760Y-117673120D02*
X148803360Y-117485160D01*
X148803360Y-117485160D02*
X148803360Y-116804440D01*
X148803360Y-116804440D02*
X148244560Y-116664740D01*
X148244560Y-116664740D02*
X148043900Y-116093240D01*
X148043900Y-116093240D02*
X148313140Y-115623340D01*
X148313140Y-115623340D02*
X147843240Y-115112800D01*
X147843240Y-115112800D02*
X147325080Y-115374420D01*
X147325080Y-115374420D02*
X146855180Y-115173760D01*
X146855180Y-115173760D02*
X146685000Y-114632740D01*
X146685000Y-114632740D02*
X145994120Y-114614960D01*
X145994120Y-114614960D02*
X145783300Y-115163600D01*
X145783300Y-115163600D02*
X145364200Y-115333780D01*
X145364200Y-115333780D02*
X144813020Y-115064540D01*
X144813020Y-115064540D02*
X144294860Y-115592860D01*
X144294860Y-115592860D02*
X144543780Y-116133880D01*
X144543780Y-116133880D02*
X144373600Y-116613940D01*
X144373600Y-116613940D02*
X143824960Y-116713000D01*
X143824960Y-116713000D02*
X143814800Y-117414040D01*
X143814800Y-117414040D02*
X144373600Y-117614700D01*
X144373600Y-117614700D02*
X144513300Y-118013480D01*
X146654520Y-117993160D02*
X146954240Y-117843300D01*
X146954240Y-117843300D02*
X147154900Y-117645180D01*
X147154900Y-117645180D02*
X147304760Y-117243860D01*
X147304760Y-117243860D02*
X147304760Y-116845080D01*
X147304760Y-116845080D02*
X147154900Y-116494560D01*
X147154900Y-116494560D02*
X146702780Y-116144040D01*
X146702780Y-116144040D02*
X146253200Y-116093240D01*
X146253200Y-116093240D02*
X145854420Y-116194840D01*
X145854420Y-116194840D02*
X145453100Y-116542820D01*
X145453100Y-116542820D02*
X145303240Y-116994940D01*
X145303240Y-116994940D02*
X145354040Y-117492780D01*
X145354040Y-117492780D02*
X145602960Y-117795040D01*
X145602960Y-117795040D02*
X145953480Y-117993160D01*
X145953480Y-117993160D02*
X145602960Y-118993920D01*
X146654520Y-117993160D02*
X147053300Y-118993920D01*
X171267381Y-109958095D02*
X170267381Y-109958095D01*
X170267381Y-109577142D01*
X170315000Y-109481904D01*
X170362619Y-109434285D01*
X170457857Y-109386666D01*
X170600714Y-109386666D01*
X170695952Y-109434285D01*
X170743571Y-109481904D01*
X170791190Y-109577142D01*
X170791190Y-109958095D01*
X171267381Y-108434285D02*
X171267381Y-109005714D01*
X171267381Y-108720000D02*
X170267381Y-108720000D01*
X170410238Y-108815238D01*
X170505476Y-108910476D01*
X170553095Y-109005714D01*
X130071905Y-118562381D02*
X130071905Y-117562381D01*
X130452858Y-117562381D01*
X130548096Y-117610000D01*
X130595715Y-117657619D01*
X130643334Y-117752857D01*
X130643334Y-117895714D01*
X130595715Y-117990952D01*
X130548096Y-118038571D01*
X130452858Y-118086190D01*
X130071905Y-118086190D01*
X131024286Y-117657619D02*
X131071905Y-117610000D01*
X131167143Y-117562381D01*
X131405239Y-117562381D01*
X131500477Y-117610000D01*
X131548096Y-117657619D01*
X131595715Y-117752857D01*
X131595715Y-117848095D01*
X131548096Y-117990952D01*
X130976667Y-118562381D01*
X131595715Y-118562381D01*
X215733334Y-105232381D02*
X215400000Y-104756190D01*
X215161905Y-105232381D02*
X215161905Y-104232381D01*
X215542858Y-104232381D01*
X215638096Y-104280000D01*
X215685715Y-104327619D01*
X215733334Y-104422857D01*
X215733334Y-104565714D01*
X215685715Y-104660952D01*
X215638096Y-104708571D01*
X215542858Y-104756190D01*
X215161905Y-104756190D01*
X216685715Y-105232381D02*
X216114286Y-105232381D01*
X216400000Y-105232381D02*
X216400000Y-104232381D01*
X216304762Y-104375238D01*
X216209524Y-104470476D01*
X216114286Y-104518095D01*
X220813334Y-105232381D02*
X220480000Y-104756190D01*
X220241905Y-105232381D02*
X220241905Y-104232381D01*
X220622858Y-104232381D01*
X220718096Y-104280000D01*
X220765715Y-104327619D01*
X220813334Y-104422857D01*
X220813334Y-104565714D01*
X220765715Y-104660952D01*
X220718096Y-104708571D01*
X220622858Y-104756190D01*
X220241905Y-104756190D01*
X221194286Y-104327619D02*
X221241905Y-104280000D01*
X221337143Y-104232381D01*
X221575239Y-104232381D01*
X221670477Y-104280000D01*
X221718096Y-104327619D01*
X221765715Y-104422857D01*
X221765715Y-104518095D01*
X221718096Y-104660952D01*
X221146667Y-105232381D01*
X221765715Y-105232381D01*
X210653334Y-105232381D02*
X210320000Y-104756190D01*
X210081905Y-105232381D02*
X210081905Y-104232381D01*
X210462858Y-104232381D01*
X210558096Y-104280000D01*
X210605715Y-104327619D01*
X210653334Y-104422857D01*
X210653334Y-104565714D01*
X210605715Y-104660952D01*
X210558096Y-104708571D01*
X210462858Y-104756190D01*
X210081905Y-104756190D01*
X210986667Y-104232381D02*
X211605715Y-104232381D01*
X211272381Y-104613333D01*
X211415239Y-104613333D01*
X211510477Y-104660952D01*
X211558096Y-104708571D01*
X211605715Y-104803810D01*
X211605715Y-105041905D01*
X211558096Y-105137143D01*
X211510477Y-105184762D01*
X211415239Y-105232381D01*
X211129524Y-105232381D01*
X211034286Y-105184762D01*
X210986667Y-105137143D01*
X205573334Y-105232381D02*
X205240000Y-104756190D01*
X205001905Y-105232381D02*
X205001905Y-104232381D01*
X205382858Y-104232381D01*
X205478096Y-104280000D01*
X205525715Y-104327619D01*
X205573334Y-104422857D01*
X205573334Y-104565714D01*
X205525715Y-104660952D01*
X205478096Y-104708571D01*
X205382858Y-104756190D01*
X205001905Y-104756190D01*
X206430477Y-104565714D02*
X206430477Y-105232381D01*
X206192381Y-104184762D02*
X205954286Y-104899048D01*
X206573334Y-104899048D01*
X200493334Y-105232381D02*
X200160000Y-104756190D01*
X199921905Y-105232381D02*
X199921905Y-104232381D01*
X200302858Y-104232381D01*
X200398096Y-104280000D01*
X200445715Y-104327619D01*
X200493334Y-104422857D01*
X200493334Y-104565714D01*
X200445715Y-104660952D01*
X200398096Y-104708571D01*
X200302858Y-104756190D01*
X199921905Y-104756190D01*
X201398096Y-104232381D02*
X200921905Y-104232381D01*
X200874286Y-104708571D01*
X200921905Y-104660952D01*
X201017143Y-104613333D01*
X201255239Y-104613333D01*
X201350477Y-104660952D01*
X201398096Y-104708571D01*
X201445715Y-104803810D01*
X201445715Y-105041905D01*
X201398096Y-105137143D01*
X201350477Y-105184762D01*
X201255239Y-105232381D01*
X201017143Y-105232381D01*
X200921905Y-105184762D01*
X200874286Y-105137143D01*
X190333334Y-105232381D02*
X190000000Y-104756190D01*
X189761905Y-105232381D02*
X189761905Y-104232381D01*
X190142858Y-104232381D01*
X190238096Y-104280000D01*
X190285715Y-104327619D01*
X190333334Y-104422857D01*
X190333334Y-104565714D01*
X190285715Y-104660952D01*
X190238096Y-104708571D01*
X190142858Y-104756190D01*
X189761905Y-104756190D01*
X191190477Y-104232381D02*
X191000000Y-104232381D01*
X190904762Y-104280000D01*
X190857143Y-104327619D01*
X190761905Y-104470476D01*
X190714286Y-104660952D01*
X190714286Y-105041905D01*
X190761905Y-105137143D01*
X190809524Y-105184762D01*
X190904762Y-105232381D01*
X191095239Y-105232381D01*
X191190477Y-105184762D01*
X191238096Y-105137143D01*
X191285715Y-105041905D01*
X191285715Y-104803810D01*
X191238096Y-104708571D01*
X191190477Y-104660952D01*
X191095239Y-104613333D01*
X190904762Y-104613333D01*
X190809524Y-104660952D01*
X190761905Y-104708571D01*
X190714286Y-104803810D01*
X195413334Y-105232381D02*
X195080000Y-104756190D01*
X194841905Y-105232381D02*
X194841905Y-104232381D01*
X195222858Y-104232381D01*
X195318096Y-104280000D01*
X195365715Y-104327619D01*
X195413334Y-104422857D01*
X195413334Y-104565714D01*
X195365715Y-104660952D01*
X195318096Y-104708571D01*
X195222858Y-104756190D01*
X194841905Y-104756190D01*
X195746667Y-104232381D02*
X196413334Y-104232381D01*
X195984762Y-105232381D01*
X215876667Y-111847381D02*
X216448096Y-111847381D01*
X216162381Y-112847381D02*
X216162381Y-111847381D01*
X216971905Y-111847381D02*
X217162382Y-111847381D01*
X217257620Y-111895000D01*
X217352858Y-111990238D01*
X217400477Y-112180714D01*
X217400477Y-112514048D01*
X217352858Y-112704524D01*
X217257620Y-112799762D01*
X217162382Y-112847381D01*
X216971905Y-112847381D01*
X216876667Y-112799762D01*
X216781429Y-112704524D01*
X216733810Y-112514048D01*
X216733810Y-112180714D01*
X216781429Y-111990238D01*
X216876667Y-111895000D01*
X216971905Y-111847381D01*
X217590953Y-112942619D02*
X218352858Y-112942619D01*
X218543334Y-112561667D02*
X219019525Y-112561667D01*
X218448096Y-112847381D02*
X218781429Y-111847381D01*
X219114763Y-112847381D01*
X219448096Y-112847381D02*
X219448096Y-111847381D01*
X219781430Y-112561667D01*
X220114763Y-111847381D01*
X220114763Y-112847381D01*
X220590953Y-112847381D02*
X220590953Y-111847381D01*
X221590953Y-111895000D02*
X221495715Y-111847381D01*
X221352858Y-111847381D01*
X221210000Y-111895000D01*
X221114762Y-111990238D01*
X221067143Y-112085476D01*
X221019524Y-112275952D01*
X221019524Y-112418810D01*
X221067143Y-112609286D01*
X221114762Y-112704524D01*
X221210000Y-112799762D01*
X221352858Y-112847381D01*
X221448096Y-112847381D01*
X221590953Y-112799762D01*
X221638572Y-112752143D01*
X221638572Y-112418810D01*
X221448096Y-112418810D01*
X222019524Y-112561667D02*
X222495715Y-112561667D01*
X221924286Y-112847381D02*
X222257619Y-111847381D01*
X222590953Y-112847381D01*
X223448096Y-112847381D02*
X222876667Y-112847381D01*
X223162381Y-112847381D02*
X223162381Y-111847381D01*
X223067143Y-111990238D01*
X222971905Y-112085476D01*
X222876667Y-112133095D01*
X170434095Y-113498381D02*
X170434095Y-114307905D01*
X170481714Y-114403143D01*
X170529333Y-114450762D01*
X170624571Y-114498381D01*
X170815048Y-114498381D01*
X170910286Y-114450762D01*
X170957905Y-114403143D01*
X171005524Y-114307905D01*
X171005524Y-113498381D01*
X172005524Y-114498381D02*
X171434095Y-114498381D01*
X171719809Y-114498381D02*
X171719809Y-113498381D01*
X171624571Y-113641238D01*
X171529333Y-113736476D01*
X171434095Y-113784095D01*
X179601905Y-107537381D02*
X179601905Y-106537381D01*
X179840000Y-106537381D01*
X179982858Y-106585000D01*
X180078096Y-106680238D01*
X180125715Y-106775476D01*
X180173334Y-106965952D01*
X180173334Y-107108810D01*
X180125715Y-107299286D01*
X180078096Y-107394524D01*
X179982858Y-107489762D01*
X179840000Y-107537381D01*
X179601905Y-107537381D01*
X181125715Y-107537381D02*
X180554286Y-107537381D01*
X180840000Y-107537381D02*
X180840000Y-106537381D01*
X180744762Y-106680238D01*
X180649524Y-106775476D01*
X180554286Y-106823095D01*
X185253334Y-107132381D02*
X184920000Y-106656190D01*
X184681905Y-107132381D02*
X184681905Y-106132381D01*
X185062858Y-106132381D01*
X185158096Y-106180000D01*
X185205715Y-106227619D01*
X185253334Y-106322857D01*
X185253334Y-106465714D01*
X185205715Y-106560952D01*
X185158096Y-106608571D01*
X185062858Y-106656190D01*
X184681905Y-106656190D01*
X185824762Y-106560952D02*
X185729524Y-106513333D01*
X185681905Y-106465714D01*
X185634286Y-106370476D01*
X185634286Y-106322857D01*
X185681905Y-106227619D01*
X185729524Y-106180000D01*
X185824762Y-106132381D01*
X186015239Y-106132381D01*
X186110477Y-106180000D01*
X186158096Y-106227619D01*
X186205715Y-106322857D01*
X186205715Y-106370476D01*
X186158096Y-106465714D01*
X186110477Y-106513333D01*
X186015239Y-106560952D01*
X185824762Y-106560952D01*
X185729524Y-106608571D01*
X185681905Y-106656190D01*
X185634286Y-106751429D01*
X185634286Y-106941905D01*
X185681905Y-107037143D01*
X185729524Y-107084762D01*
X185824762Y-107132381D01*
X186015239Y-107132381D01*
X186110477Y-107084762D01*
X186158096Y-107037143D01*
X186205715Y-106941905D01*
X186205715Y-106751429D01*
X186158096Y-106656190D01*
X186110477Y-106608571D01*
X186015239Y-106560952D01*
X176871334Y-105513143D02*
X176823715Y-105560762D01*
X176680858Y-105608381D01*
X176585620Y-105608381D01*
X176442762Y-105560762D01*
X176347524Y-105465524D01*
X176299905Y-105370286D01*
X176252286Y-105179810D01*
X176252286Y-105036952D01*
X176299905Y-104846476D01*
X176347524Y-104751238D01*
X176442762Y-104656000D01*
X176585620Y-104608381D01*
X176680858Y-104608381D01*
X176823715Y-104656000D01*
X176871334Y-104703619D01*
X177823715Y-105608381D02*
X177252286Y-105608381D01*
X177538000Y-105608381D02*
X177538000Y-104608381D01*
X177442762Y-104751238D01*
X177347524Y-104846476D01*
X177252286Y-104894095D01*
X206970334Y-96242143D02*
X206922715Y-96289762D01*
X206779858Y-96337381D01*
X206684620Y-96337381D01*
X206541762Y-96289762D01*
X206446524Y-96194524D01*
X206398905Y-96099286D01*
X206351286Y-95908810D01*
X206351286Y-95765952D01*
X206398905Y-95575476D01*
X206446524Y-95480238D01*
X206541762Y-95385000D01*
X206684620Y-95337381D01*
X206779858Y-95337381D01*
X206922715Y-95385000D01*
X206970334Y-95432619D01*
X207351286Y-95432619D02*
X207398905Y-95385000D01*
X207494143Y-95337381D01*
X207732239Y-95337381D01*
X207827477Y-95385000D01*
X207875096Y-95432619D01*
X207922715Y-95527857D01*
X207922715Y-95623095D01*
X207875096Y-95765952D01*
X207303667Y-96337381D01*
X207922715Y-96337381D01*
X224115334Y-95988143D02*
X224067715Y-96035762D01*
X223924858Y-96083381D01*
X223829620Y-96083381D01*
X223686762Y-96035762D01*
X223591524Y-95940524D01*
X223543905Y-95845286D01*
X223496286Y-95654810D01*
X223496286Y-95511952D01*
X223543905Y-95321476D01*
X223591524Y-95226238D01*
X223686762Y-95131000D01*
X223829620Y-95083381D01*
X223924858Y-95083381D01*
X224067715Y-95131000D01*
X224115334Y-95178619D01*
X224448667Y-95083381D02*
X225067715Y-95083381D01*
X224734381Y-95464333D01*
X224877239Y-95464333D01*
X224972477Y-95511952D01*
X225020096Y-95559571D01*
X225067715Y-95654810D01*
X225067715Y-95892905D01*
X225020096Y-95988143D01*
X224972477Y-96035762D01*
X224877239Y-96083381D01*
X224591524Y-96083381D01*
X224496286Y-96035762D01*
X224448667Y-95988143D01*
X174839334Y-106769143D02*
X174791715Y-106816762D01*
X174648858Y-106864381D01*
X174553620Y-106864381D01*
X174410762Y-106816762D01*
X174315524Y-106721524D01*
X174267905Y-106626286D01*
X174220286Y-106435810D01*
X174220286Y-106292952D01*
X174267905Y-106102476D01*
X174315524Y-106007238D01*
X174410762Y-105912000D01*
X174553620Y-105864381D01*
X174648858Y-105864381D01*
X174791715Y-105912000D01*
X174839334Y-105959619D01*
X175696477Y-106197714D02*
X175696477Y-106864381D01*
X175458381Y-105816762D02*
X175220286Y-106531048D01*
X175839334Y-106531048D01*
M02*
