%TF.GenerationSoftware,KiCad,Pcbnew,5.1.9+dfsg1-1*%
%TF.CreationDate,2022-04-01T11:17:58+02:00*%
%TF.ProjectId,AmigaPCDriveAdapter,416d6967-6150-4434-9472-697665416461,2.0*%
%TF.SameCoordinates,Original*%
%TF.FileFunction,Legend,Top*%
%TF.FilePolarity,Positive*%
%FSLAX46Y46*%
G04 Gerber Fmt 4.6, Leading zero omitted, Abs format (unit mm)*
G04 Created by KiCad (PCBNEW 5.1.9+dfsg1-1) date 2022-04-01 11:17:58*
%MOMM*%
%LPD*%
G01*
G04 APERTURE LIST*
%ADD10C,0.100000*%
%ADD11C,0.200000*%
%ADD12C,0.300000*%
%ADD13C,0.150000*%
%ADD14C,0.120000*%
G04 APERTURE END LIST*
D10*
X133504523Y-102160714D02*
X133885476Y-102160714D01*
X133695000Y-102351190D02*
X133695000Y-101970238D01*
X134385476Y-102351190D02*
X134099761Y-102351190D01*
X134242619Y-102351190D02*
X134242619Y-101851190D01*
X134195000Y-101922619D01*
X134147380Y-101970238D01*
X134099761Y-101994047D01*
X134575952Y-101898809D02*
X134599761Y-101875000D01*
X134647380Y-101851190D01*
X134766428Y-101851190D01*
X134814047Y-101875000D01*
X134837857Y-101898809D01*
X134861666Y-101946428D01*
X134861666Y-101994047D01*
X134837857Y-102065476D01*
X134552142Y-102351190D01*
X134861666Y-102351190D01*
X135004523Y-101851190D02*
X135171190Y-102351190D01*
X135337857Y-101851190D01*
X136909285Y-101875000D02*
X136861666Y-101851190D01*
X136790238Y-101851190D01*
X136718809Y-101875000D01*
X136671190Y-101922619D01*
X136647380Y-101970238D01*
X136623571Y-102065476D01*
X136623571Y-102136904D01*
X136647380Y-102232142D01*
X136671190Y-102279761D01*
X136718809Y-102327380D01*
X136790238Y-102351190D01*
X136837857Y-102351190D01*
X136909285Y-102327380D01*
X136933095Y-102303571D01*
X136933095Y-102136904D01*
X136837857Y-102136904D01*
X137147380Y-102351190D02*
X137147380Y-101851190D01*
X137433095Y-102351190D01*
X137433095Y-101851190D01*
X137671190Y-102351190D02*
X137671190Y-101851190D01*
X137790238Y-101851190D01*
X137861666Y-101875000D01*
X137909285Y-101922619D01*
X137933095Y-101970238D01*
X137956904Y-102065476D01*
X137956904Y-102136904D01*
X137933095Y-102232142D01*
X137909285Y-102279761D01*
X137861666Y-102327380D01*
X137790238Y-102351190D01*
X137671190Y-102351190D01*
X139575952Y-101875000D02*
X139528333Y-101851190D01*
X139456904Y-101851190D01*
X139385476Y-101875000D01*
X139337857Y-101922619D01*
X139314047Y-101970238D01*
X139290238Y-102065476D01*
X139290238Y-102136904D01*
X139314047Y-102232142D01*
X139337857Y-102279761D01*
X139385476Y-102327380D01*
X139456904Y-102351190D01*
X139504523Y-102351190D01*
X139575952Y-102327380D01*
X139599761Y-102303571D01*
X139599761Y-102136904D01*
X139504523Y-102136904D01*
X139814047Y-102351190D02*
X139814047Y-101851190D01*
X140099761Y-102351190D01*
X140099761Y-101851190D01*
X140337857Y-102351190D02*
X140337857Y-101851190D01*
X140456904Y-101851190D01*
X140528333Y-101875000D01*
X140575952Y-101922619D01*
X140599761Y-101970238D01*
X140623571Y-102065476D01*
X140623571Y-102136904D01*
X140599761Y-102232142D01*
X140575952Y-102279761D01*
X140528333Y-102327380D01*
X140456904Y-102351190D01*
X140337857Y-102351190D01*
X141599761Y-102160714D02*
X141980714Y-102160714D01*
X141790238Y-102351190D02*
X141790238Y-101970238D01*
X142456904Y-101851190D02*
X142218809Y-101851190D01*
X142195000Y-102089285D01*
X142218809Y-102065476D01*
X142266428Y-102041666D01*
X142385476Y-102041666D01*
X142433095Y-102065476D01*
X142456904Y-102089285D01*
X142480714Y-102136904D01*
X142480714Y-102255952D01*
X142456904Y-102303571D01*
X142433095Y-102327380D01*
X142385476Y-102351190D01*
X142266428Y-102351190D01*
X142218809Y-102327380D01*
X142195000Y-102303571D01*
X142623571Y-101851190D02*
X142790238Y-102351190D01*
X142956904Y-101851190D01*
X114100714Y-113990952D02*
X114100714Y-113610000D01*
X114291190Y-113800476D02*
X113910238Y-113800476D01*
X113791190Y-113133809D02*
X113791190Y-113371904D01*
X114029285Y-113395714D01*
X114005476Y-113371904D01*
X113981666Y-113324285D01*
X113981666Y-113205238D01*
X114005476Y-113157619D01*
X114029285Y-113133809D01*
X114076904Y-113110000D01*
X114195952Y-113110000D01*
X114243571Y-113133809D01*
X114267380Y-113157619D01*
X114291190Y-113205238D01*
X114291190Y-113324285D01*
X114267380Y-113371904D01*
X114243571Y-113395714D01*
X113791190Y-112967142D02*
X114291190Y-112800476D01*
X113791190Y-112633809D01*
X113815000Y-111062380D02*
X113791190Y-111110000D01*
X113791190Y-111181428D01*
X113815000Y-111252857D01*
X113862619Y-111300476D01*
X113910238Y-111324285D01*
X114005476Y-111348095D01*
X114076904Y-111348095D01*
X114172142Y-111324285D01*
X114219761Y-111300476D01*
X114267380Y-111252857D01*
X114291190Y-111181428D01*
X114291190Y-111133809D01*
X114267380Y-111062380D01*
X114243571Y-111038571D01*
X114076904Y-111038571D01*
X114076904Y-111133809D01*
X114291190Y-110824285D02*
X113791190Y-110824285D01*
X114291190Y-110538571D01*
X113791190Y-110538571D01*
X114291190Y-110300476D02*
X113791190Y-110300476D01*
X113791190Y-110181428D01*
X113815000Y-110110000D01*
X113862619Y-110062380D01*
X113910238Y-110038571D01*
X114005476Y-110014761D01*
X114076904Y-110014761D01*
X114172142Y-110038571D01*
X114219761Y-110062380D01*
X114267380Y-110110000D01*
X114291190Y-110181428D01*
X114291190Y-110300476D01*
X113815000Y-108395714D02*
X113791190Y-108443333D01*
X113791190Y-108514761D01*
X113815000Y-108586190D01*
X113862619Y-108633809D01*
X113910238Y-108657619D01*
X114005476Y-108681428D01*
X114076904Y-108681428D01*
X114172142Y-108657619D01*
X114219761Y-108633809D01*
X114267380Y-108586190D01*
X114291190Y-108514761D01*
X114291190Y-108467142D01*
X114267380Y-108395714D01*
X114243571Y-108371904D01*
X114076904Y-108371904D01*
X114076904Y-108467142D01*
X114291190Y-108157619D02*
X113791190Y-108157619D01*
X114291190Y-107871904D01*
X113791190Y-107871904D01*
X114291190Y-107633809D02*
X113791190Y-107633809D01*
X113791190Y-107514761D01*
X113815000Y-107443333D01*
X113862619Y-107395714D01*
X113910238Y-107371904D01*
X114005476Y-107348095D01*
X114076904Y-107348095D01*
X114172142Y-107371904D01*
X114219761Y-107395714D01*
X114267380Y-107443333D01*
X114291190Y-107514761D01*
X114291190Y-107633809D01*
X114100714Y-105990952D02*
X114100714Y-105610000D01*
X114291190Y-105800476D02*
X113910238Y-105800476D01*
X114291190Y-105110000D02*
X114291190Y-105395714D01*
X114291190Y-105252857D02*
X113791190Y-105252857D01*
X113862619Y-105300476D01*
X113910238Y-105348095D01*
X113934047Y-105395714D01*
X113838809Y-104919523D02*
X113815000Y-104895714D01*
X113791190Y-104848095D01*
X113791190Y-104729047D01*
X113815000Y-104681428D01*
X113838809Y-104657619D01*
X113886428Y-104633809D01*
X113934047Y-104633809D01*
X114005476Y-104657619D01*
X114291190Y-104943333D01*
X114291190Y-104633809D01*
X113791190Y-104490952D02*
X114291190Y-104324285D01*
X113791190Y-104157619D01*
X114811904Y-115051190D02*
X114811904Y-114551190D01*
X114811904Y-115027380D02*
X114764285Y-115051190D01*
X114669047Y-115051190D01*
X114621428Y-115027380D01*
X114597619Y-115003571D01*
X114573809Y-114955952D01*
X114573809Y-114813095D01*
X114597619Y-114765476D01*
X114621428Y-114741666D01*
X114669047Y-114717857D01*
X114764285Y-114717857D01*
X114811904Y-114741666D01*
X115240476Y-115027380D02*
X115192857Y-115051190D01*
X115097619Y-115051190D01*
X115050000Y-115027380D01*
X115026190Y-114979761D01*
X115026190Y-114789285D01*
X115050000Y-114741666D01*
X115097619Y-114717857D01*
X115192857Y-114717857D01*
X115240476Y-114741666D01*
X115264285Y-114789285D01*
X115264285Y-114836904D01*
X115026190Y-114884523D01*
X115454761Y-115027380D02*
X115502380Y-115051190D01*
X115597619Y-115051190D01*
X115645238Y-115027380D01*
X115669047Y-114979761D01*
X115669047Y-114955952D01*
X115645238Y-114908333D01*
X115597619Y-114884523D01*
X115526190Y-114884523D01*
X115478571Y-114860714D01*
X115454761Y-114813095D01*
X115454761Y-114789285D01*
X115478571Y-114741666D01*
X115526190Y-114717857D01*
X115597619Y-114717857D01*
X115645238Y-114741666D01*
X115883333Y-115051190D02*
X115883333Y-114717857D01*
X115883333Y-114551190D02*
X115859523Y-114575000D01*
X115883333Y-114598809D01*
X115907142Y-114575000D01*
X115883333Y-114551190D01*
X115883333Y-114598809D01*
X116335714Y-114717857D02*
X116335714Y-115122619D01*
X116311904Y-115170238D01*
X116288095Y-115194047D01*
X116240476Y-115217857D01*
X116169047Y-115217857D01*
X116121428Y-115194047D01*
X116335714Y-115027380D02*
X116288095Y-115051190D01*
X116192857Y-115051190D01*
X116145238Y-115027380D01*
X116121428Y-115003571D01*
X116097619Y-114955952D01*
X116097619Y-114813095D01*
X116121428Y-114765476D01*
X116145238Y-114741666D01*
X116192857Y-114717857D01*
X116288095Y-114717857D01*
X116335714Y-114741666D01*
X116573809Y-114717857D02*
X116573809Y-115051190D01*
X116573809Y-114765476D02*
X116597619Y-114741666D01*
X116645238Y-114717857D01*
X116716666Y-114717857D01*
X116764285Y-114741666D01*
X116788095Y-114789285D01*
X116788095Y-115051190D01*
X117216666Y-115027380D02*
X117169047Y-115051190D01*
X117073809Y-115051190D01*
X117026190Y-115027380D01*
X117002380Y-114979761D01*
X117002380Y-114789285D01*
X117026190Y-114741666D01*
X117073809Y-114717857D01*
X117169047Y-114717857D01*
X117216666Y-114741666D01*
X117240476Y-114789285D01*
X117240476Y-114836904D01*
X117002380Y-114884523D01*
X117669047Y-115051190D02*
X117669047Y-114551190D01*
X117669047Y-115027380D02*
X117621428Y-115051190D01*
X117526190Y-115051190D01*
X117478571Y-115027380D01*
X117454761Y-115003571D01*
X117430952Y-114955952D01*
X117430952Y-114813095D01*
X117454761Y-114765476D01*
X117478571Y-114741666D01*
X117526190Y-114717857D01*
X117621428Y-114717857D01*
X117669047Y-114741666D01*
X118288095Y-115051190D02*
X118288095Y-114551190D01*
X118288095Y-114741666D02*
X118335714Y-114717857D01*
X118430952Y-114717857D01*
X118478571Y-114741666D01*
X118502380Y-114765476D01*
X118526190Y-114813095D01*
X118526190Y-114955952D01*
X118502380Y-115003571D01*
X118478571Y-115027380D01*
X118430952Y-115051190D01*
X118335714Y-115051190D01*
X118288095Y-115027380D01*
X118692857Y-114717857D02*
X118811904Y-115051190D01*
X118930952Y-114717857D02*
X118811904Y-115051190D01*
X118764285Y-115170238D01*
X118740476Y-115194047D01*
X118692857Y-115217857D01*
X119788095Y-115051190D02*
X119621428Y-114813095D01*
X119502380Y-115051190D02*
X119502380Y-114551190D01*
X119692857Y-114551190D01*
X119740476Y-114575000D01*
X119764285Y-114598809D01*
X119788095Y-114646428D01*
X119788095Y-114717857D01*
X119764285Y-114765476D01*
X119740476Y-114789285D01*
X119692857Y-114813095D01*
X119502380Y-114813095D01*
X120002380Y-115003571D02*
X120026190Y-115027380D01*
X120002380Y-115051190D01*
X119978571Y-115027380D01*
X120002380Y-115003571D01*
X120002380Y-115051190D01*
X120502380Y-114575000D02*
X120454761Y-114551190D01*
X120383333Y-114551190D01*
X120311904Y-114575000D01*
X120264285Y-114622619D01*
X120240476Y-114670238D01*
X120216666Y-114765476D01*
X120216666Y-114836904D01*
X120240476Y-114932142D01*
X120264285Y-114979761D01*
X120311904Y-115027380D01*
X120383333Y-115051190D01*
X120430952Y-115051190D01*
X120502380Y-115027380D01*
X120526190Y-115003571D01*
X120526190Y-114836904D01*
X120430952Y-114836904D01*
X120740476Y-115003571D02*
X120764285Y-115027380D01*
X120740476Y-115051190D01*
X120716666Y-115027380D01*
X120740476Y-115003571D01*
X120740476Y-115051190D01*
X120954761Y-114598809D02*
X120978571Y-114575000D01*
X121026190Y-114551190D01*
X121145238Y-114551190D01*
X121192857Y-114575000D01*
X121216666Y-114598809D01*
X121240476Y-114646428D01*
X121240476Y-114694047D01*
X121216666Y-114765476D01*
X120930952Y-115051190D01*
X121240476Y-115051190D01*
X121550000Y-114551190D02*
X121597619Y-114551190D01*
X121645238Y-114575000D01*
X121669047Y-114598809D01*
X121692857Y-114646428D01*
X121716666Y-114741666D01*
X121716666Y-114860714D01*
X121692857Y-114955952D01*
X121669047Y-115003571D01*
X121645238Y-115027380D01*
X121597619Y-115051190D01*
X121550000Y-115051190D01*
X121502380Y-115027380D01*
X121478571Y-115003571D01*
X121454761Y-114955952D01*
X121430952Y-114860714D01*
X121430952Y-114741666D01*
X121454761Y-114646428D01*
X121478571Y-114598809D01*
X121502380Y-114575000D01*
X121550000Y-114551190D01*
X122192857Y-115051190D02*
X121907142Y-115051190D01*
X122050000Y-115051190D02*
X122050000Y-114551190D01*
X122002380Y-114622619D01*
X121954761Y-114670238D01*
X121907142Y-114694047D01*
X122478571Y-114765476D02*
X122430952Y-114741666D01*
X122407142Y-114717857D01*
X122383333Y-114670238D01*
X122383333Y-114646428D01*
X122407142Y-114598809D01*
X122430952Y-114575000D01*
X122478571Y-114551190D01*
X122573809Y-114551190D01*
X122621428Y-114575000D01*
X122645238Y-114598809D01*
X122669047Y-114646428D01*
X122669047Y-114670238D01*
X122645238Y-114717857D01*
X122621428Y-114741666D01*
X122573809Y-114765476D01*
X122478571Y-114765476D01*
X122430952Y-114789285D01*
X122407142Y-114813095D01*
X122383333Y-114860714D01*
X122383333Y-114955952D01*
X122407142Y-115003571D01*
X122430952Y-115027380D01*
X122478571Y-115051190D01*
X122573809Y-115051190D01*
X122621428Y-115027380D01*
X122645238Y-115003571D01*
X122669047Y-114955952D01*
X122669047Y-114860714D01*
X122645238Y-114813095D01*
X122621428Y-114789285D01*
X122573809Y-114765476D01*
X123240476Y-114527380D02*
X122811904Y-115170238D01*
X123383333Y-114598809D02*
X123407142Y-114575000D01*
X123454761Y-114551190D01*
X123573809Y-114551190D01*
X123621428Y-114575000D01*
X123645238Y-114598809D01*
X123669047Y-114646428D01*
X123669047Y-114694047D01*
X123645238Y-114765476D01*
X123359523Y-115051190D01*
X123669047Y-115051190D01*
X123978571Y-114551190D02*
X124026190Y-114551190D01*
X124073809Y-114575000D01*
X124097619Y-114598809D01*
X124121428Y-114646428D01*
X124145238Y-114741666D01*
X124145238Y-114860714D01*
X124121428Y-114955952D01*
X124097619Y-115003571D01*
X124073809Y-115027380D01*
X124026190Y-115051190D01*
X123978571Y-115051190D01*
X123930952Y-115027380D01*
X123907142Y-115003571D01*
X123883333Y-114955952D01*
X123859523Y-114860714D01*
X123859523Y-114741666D01*
X123883333Y-114646428D01*
X123907142Y-114598809D01*
X123930952Y-114575000D01*
X123978571Y-114551190D01*
X124335714Y-114598809D02*
X124359523Y-114575000D01*
X124407142Y-114551190D01*
X124526190Y-114551190D01*
X124573809Y-114575000D01*
X124597619Y-114598809D01*
X124621428Y-114646428D01*
X124621428Y-114694047D01*
X124597619Y-114765476D01*
X124311904Y-115051190D01*
X124621428Y-115051190D01*
X125097619Y-115051190D02*
X124811904Y-115051190D01*
X124954761Y-115051190D02*
X124954761Y-114551190D01*
X124907142Y-114622619D01*
X124859523Y-114670238D01*
X124811904Y-114694047D01*
X125669047Y-114527380D02*
X125240476Y-115170238D01*
X125811904Y-114598809D02*
X125835714Y-114575000D01*
X125883333Y-114551190D01*
X126002380Y-114551190D01*
X126050000Y-114575000D01*
X126073809Y-114598809D01*
X126097619Y-114646428D01*
X126097619Y-114694047D01*
X126073809Y-114765476D01*
X125788095Y-115051190D01*
X126097619Y-115051190D01*
X126407142Y-114551190D02*
X126454761Y-114551190D01*
X126502380Y-114575000D01*
X126526190Y-114598809D01*
X126550000Y-114646428D01*
X126573809Y-114741666D01*
X126573809Y-114860714D01*
X126550000Y-114955952D01*
X126526190Y-115003571D01*
X126502380Y-115027380D01*
X126454761Y-115051190D01*
X126407142Y-115051190D01*
X126359523Y-115027380D01*
X126335714Y-115003571D01*
X126311904Y-114955952D01*
X126288095Y-114860714D01*
X126288095Y-114741666D01*
X126311904Y-114646428D01*
X126335714Y-114598809D01*
X126359523Y-114575000D01*
X126407142Y-114551190D01*
X126764285Y-114598809D02*
X126788095Y-114575000D01*
X126835714Y-114551190D01*
X126954761Y-114551190D01*
X127002380Y-114575000D01*
X127026190Y-114598809D01*
X127050000Y-114646428D01*
X127050000Y-114694047D01*
X127026190Y-114765476D01*
X126740476Y-115051190D01*
X127050000Y-115051190D01*
X127240476Y-114598809D02*
X127264285Y-114575000D01*
X127311904Y-114551190D01*
X127430952Y-114551190D01*
X127478571Y-114575000D01*
X127502380Y-114598809D01*
X127526190Y-114646428D01*
X127526190Y-114694047D01*
X127502380Y-114765476D01*
X127216666Y-115051190D01*
X127526190Y-115051190D01*
D11*
X198010476Y-86912380D02*
X198629523Y-86912380D01*
X198296190Y-87293333D01*
X198439047Y-87293333D01*
X198534285Y-87340952D01*
X198581904Y-87388571D01*
X198629523Y-87483809D01*
X198629523Y-87721904D01*
X198581904Y-87817142D01*
X198534285Y-87864761D01*
X198439047Y-87912380D01*
X198153333Y-87912380D01*
X198058095Y-87864761D01*
X198010476Y-87817142D01*
X199486666Y-87245714D02*
X199486666Y-87912380D01*
X199248571Y-86864761D02*
X199010476Y-87579047D01*
X199629523Y-87579047D01*
X155635714Y-92722380D02*
X155064285Y-92722380D01*
X155350000Y-92722380D02*
X155350000Y-91722380D01*
X155254761Y-91865238D01*
X155159523Y-91960476D01*
X155064285Y-92008095D01*
D12*
X159862857Y-98565000D02*
X160934285Y-98565000D01*
X159648571Y-98993571D02*
X160398571Y-97493571D01*
X161148571Y-98993571D01*
X161898571Y-98993571D02*
X161898571Y-97493571D01*
X162648571Y-98565000D01*
X163398571Y-97493571D01*
X163398571Y-98993571D01*
X164470000Y-98993571D02*
X164470000Y-97493571D01*
X166720000Y-97565000D02*
X166505714Y-97493571D01*
X166184285Y-97493571D01*
X165862857Y-97565000D01*
X165648571Y-97707857D01*
X165541428Y-97850714D01*
X165434285Y-98136428D01*
X165434285Y-98350714D01*
X165541428Y-98636428D01*
X165648571Y-98779285D01*
X165862857Y-98922142D01*
X166184285Y-98993571D01*
X166398571Y-98993571D01*
X166720000Y-98922142D01*
X166827142Y-98850714D01*
X166827142Y-98350714D01*
X166398571Y-98350714D01*
X167684285Y-98565000D02*
X168755714Y-98565000D01*
X167470000Y-98993571D02*
X168220000Y-97493571D01*
X168970000Y-98993571D01*
X172184285Y-98207857D02*
X171434285Y-98207857D01*
X171434285Y-98993571D02*
X171434285Y-97493571D01*
X172505714Y-97493571D01*
X174434285Y-98993571D02*
X173362857Y-98993571D01*
X173362857Y-97493571D01*
X175612857Y-97493571D02*
X176041428Y-97493571D01*
X176255714Y-97565000D01*
X176470000Y-97707857D01*
X176577142Y-97993571D01*
X176577142Y-98493571D01*
X176470000Y-98779285D01*
X176255714Y-98922142D01*
X176041428Y-98993571D01*
X175612857Y-98993571D01*
X175398571Y-98922142D01*
X175184285Y-98779285D01*
X175077142Y-98493571D01*
X175077142Y-97993571D01*
X175184285Y-97707857D01*
X175398571Y-97565000D01*
X175612857Y-97493571D01*
X177541428Y-98993571D02*
X177541428Y-97493571D01*
X178398571Y-97493571D01*
X178612857Y-97565000D01*
X178720000Y-97636428D01*
X178827142Y-97779285D01*
X178827142Y-97993571D01*
X178720000Y-98136428D01*
X178612857Y-98207857D01*
X178398571Y-98279285D01*
X177541428Y-98279285D01*
X179791428Y-98993571D02*
X179791428Y-97493571D01*
X180648571Y-97493571D01*
X180862857Y-97565000D01*
X180970000Y-97636428D01*
X181077142Y-97779285D01*
X181077142Y-97993571D01*
X180970000Y-98136428D01*
X180862857Y-98207857D01*
X180648571Y-98279285D01*
X179791428Y-98279285D01*
X182470000Y-98279285D02*
X182470000Y-98993571D01*
X181720000Y-97493571D02*
X182470000Y-98279285D01*
X183220000Y-97493571D01*
X185577142Y-98565000D02*
X186648571Y-98565000D01*
X185362857Y-98993571D02*
X186112857Y-97493571D01*
X186862857Y-98993571D01*
X187612857Y-98993571D02*
X187612857Y-97493571D01*
X188148571Y-97493571D01*
X188470000Y-97565000D01*
X188684285Y-97707857D01*
X188791428Y-97850714D01*
X188898571Y-98136428D01*
X188898571Y-98350714D01*
X188791428Y-98636428D01*
X188684285Y-98779285D01*
X188470000Y-98922142D01*
X188148571Y-98993571D01*
X187612857Y-98993571D01*
X189755714Y-98565000D02*
X190827142Y-98565000D01*
X189541428Y-98993571D02*
X190291428Y-97493571D01*
X191041428Y-98993571D01*
X191791428Y-98993571D02*
X191791428Y-97493571D01*
X192648571Y-97493571D01*
X192862857Y-97565000D01*
X192970000Y-97636428D01*
X193077142Y-97779285D01*
X193077142Y-97993571D01*
X192970000Y-98136428D01*
X192862857Y-98207857D01*
X192648571Y-98279285D01*
X191791428Y-98279285D01*
X193720000Y-97493571D02*
X195005714Y-97493571D01*
X194362857Y-98993571D02*
X194362857Y-97493571D01*
X195755714Y-98207857D02*
X196505714Y-98207857D01*
X196827142Y-98993571D02*
X195755714Y-98993571D01*
X195755714Y-97493571D01*
X196827142Y-97493571D01*
X199077142Y-98993571D02*
X198327142Y-98279285D01*
X197791428Y-98993571D02*
X197791428Y-97493571D01*
X198648571Y-97493571D01*
X198862857Y-97565000D01*
X198970000Y-97636428D01*
X199077142Y-97779285D01*
X199077142Y-97993571D01*
X198970000Y-98136428D01*
X198862857Y-98207857D01*
X198648571Y-98279285D01*
X197791428Y-98279285D01*
D13*
X186144285Y-93574285D02*
X185894285Y-93217142D01*
X185715714Y-93574285D02*
X185715714Y-92824285D01*
X186001428Y-92824285D01*
X186072857Y-92860000D01*
X186108571Y-92895714D01*
X186144285Y-92967142D01*
X186144285Y-93074285D01*
X186108571Y-93145714D01*
X186072857Y-93181428D01*
X186001428Y-93217142D01*
X185715714Y-93217142D01*
X186465714Y-93181428D02*
X186715714Y-93181428D01*
X186822857Y-93574285D02*
X186465714Y-93574285D01*
X186465714Y-92824285D01*
X186822857Y-92824285D01*
X187037142Y-92824285D02*
X187465714Y-92824285D01*
X187251428Y-93574285D02*
X187251428Y-92824285D01*
X188144285Y-93574285D02*
X187894285Y-93217142D01*
X187715714Y-93574285D02*
X187715714Y-92824285D01*
X188001428Y-92824285D01*
X188072857Y-92860000D01*
X188108571Y-92895714D01*
X188144285Y-92967142D01*
X188144285Y-93074285D01*
X188108571Y-93145714D01*
X188072857Y-93181428D01*
X188001428Y-93217142D01*
X187715714Y-93217142D01*
X188608571Y-92824285D02*
X188751428Y-92824285D01*
X188822857Y-92860000D01*
X188894285Y-92931428D01*
X188930000Y-93074285D01*
X188930000Y-93324285D01*
X188894285Y-93467142D01*
X188822857Y-93538571D01*
X188751428Y-93574285D01*
X188608571Y-93574285D01*
X188537142Y-93538571D01*
X188465714Y-93467142D01*
X188430000Y-93324285D01*
X188430000Y-93074285D01*
X188465714Y-92931428D01*
X188537142Y-92860000D01*
X188608571Y-92824285D01*
X189501428Y-93181428D02*
X189608571Y-93217142D01*
X189644285Y-93252857D01*
X189680000Y-93324285D01*
X189680000Y-93431428D01*
X189644285Y-93502857D01*
X189608571Y-93538571D01*
X189537142Y-93574285D01*
X189251428Y-93574285D01*
X189251428Y-92824285D01*
X189501428Y-92824285D01*
X189572857Y-92860000D01*
X189608571Y-92895714D01*
X189644285Y-92967142D01*
X189644285Y-93038571D01*
X189608571Y-93110000D01*
X189572857Y-93145714D01*
X189501428Y-93181428D01*
X189251428Y-93181428D01*
X190001428Y-93574285D02*
X190001428Y-92824285D01*
X190251428Y-92824285D02*
X190680000Y-92824285D01*
X190465714Y-93574285D02*
X190465714Y-92824285D01*
X191287142Y-93574285D02*
X190930000Y-93574285D01*
X190930000Y-92824285D01*
X191501428Y-93360000D02*
X191858571Y-93360000D01*
X191430000Y-93574285D02*
X191680000Y-92824285D01*
X191930000Y-93574285D01*
X192430000Y-93181428D02*
X192537142Y-93217142D01*
X192572857Y-93252857D01*
X192608571Y-93324285D01*
X192608571Y-93431428D01*
X192572857Y-93502857D01*
X192537142Y-93538571D01*
X192465714Y-93574285D01*
X192180000Y-93574285D01*
X192180000Y-92824285D01*
X192430000Y-92824285D01*
X192501428Y-92860000D01*
X192537142Y-92895714D01*
X192572857Y-92967142D01*
X192572857Y-93038571D01*
X192537142Y-93110000D01*
X192501428Y-93145714D01*
X192430000Y-93181428D01*
X192180000Y-93181428D01*
X193930000Y-93574285D02*
X193680000Y-93217142D01*
X193501428Y-93574285D02*
X193501428Y-92824285D01*
X193787142Y-92824285D01*
X193858571Y-92860000D01*
X193894285Y-92895714D01*
X193930000Y-92967142D01*
X193930000Y-93074285D01*
X193894285Y-93145714D01*
X193858571Y-93181428D01*
X193787142Y-93217142D01*
X193501428Y-93217142D01*
X194501428Y-93181428D02*
X194608571Y-93217142D01*
X194644285Y-93252857D01*
X194680000Y-93324285D01*
X194680000Y-93431428D01*
X194644285Y-93502857D01*
X194608571Y-93538571D01*
X194537142Y-93574285D01*
X194251428Y-93574285D01*
X194251428Y-92824285D01*
X194501428Y-92824285D01*
X194572857Y-92860000D01*
X194608571Y-92895714D01*
X194644285Y-92967142D01*
X194644285Y-93038571D01*
X194608571Y-93110000D01*
X194572857Y-93145714D01*
X194501428Y-93181428D01*
X194251428Y-93181428D01*
X195358571Y-93574285D02*
X195001428Y-93574285D01*
X195001428Y-92824285D01*
X195751428Y-92824285D02*
X195822857Y-92824285D01*
X195894285Y-92860000D01*
X195930000Y-92895714D01*
X195965714Y-92967142D01*
X196001428Y-93110000D01*
X196001428Y-93288571D01*
X195965714Y-93431428D01*
X195930000Y-93502857D01*
X195894285Y-93538571D01*
X195822857Y-93574285D01*
X195751428Y-93574285D01*
X195680000Y-93538571D01*
X195644285Y-93502857D01*
X195608571Y-93431428D01*
X195572857Y-93288571D01*
X195572857Y-93110000D01*
X195608571Y-92967142D01*
X195644285Y-92895714D01*
X195680000Y-92860000D01*
X195751428Y-92824285D01*
X196465714Y-92824285D02*
X196537142Y-92824285D01*
X196608571Y-92860000D01*
X196644285Y-92895714D01*
X196680000Y-92967142D01*
X196715714Y-93110000D01*
X196715714Y-93288571D01*
X196680000Y-93431428D01*
X196644285Y-93502857D01*
X196608571Y-93538571D01*
X196537142Y-93574285D01*
X196465714Y-93574285D01*
X196394285Y-93538571D01*
X196358571Y-93502857D01*
X196322857Y-93431428D01*
X196287142Y-93288571D01*
X196287142Y-93110000D01*
X196322857Y-92967142D01*
X196358571Y-92895714D01*
X196394285Y-92860000D01*
X196465714Y-92824285D01*
X197144285Y-93145714D02*
X197072857Y-93110000D01*
X197037142Y-93074285D01*
X197001428Y-93002857D01*
X197001428Y-92967142D01*
X197037142Y-92895714D01*
X197072857Y-92860000D01*
X197144285Y-92824285D01*
X197287142Y-92824285D01*
X197358571Y-92860000D01*
X197394285Y-92895714D01*
X197430000Y-92967142D01*
X197430000Y-93002857D01*
X197394285Y-93074285D01*
X197358571Y-93110000D01*
X197287142Y-93145714D01*
X197144285Y-93145714D01*
X197072857Y-93181428D01*
X197037142Y-93217142D01*
X197001428Y-93288571D01*
X197001428Y-93431428D01*
X197037142Y-93502857D01*
X197072857Y-93538571D01*
X197144285Y-93574285D01*
X197287142Y-93574285D01*
X197358571Y-93538571D01*
X197394285Y-93502857D01*
X197430000Y-93431428D01*
X197430000Y-93288571D01*
X197394285Y-93217142D01*
X197358571Y-93181428D01*
X197287142Y-93145714D01*
X197751428Y-93502857D02*
X197787142Y-93538571D01*
X197751428Y-93574285D01*
X197715714Y-93538571D01*
X197751428Y-93502857D01*
X197751428Y-93574285D01*
X198251428Y-92824285D02*
X198322857Y-92824285D01*
X198394285Y-92860000D01*
X198430000Y-92895714D01*
X198465714Y-92967142D01*
X198501428Y-93110000D01*
X198501428Y-93288571D01*
X198465714Y-93431428D01*
X198430000Y-93502857D01*
X198394285Y-93538571D01*
X198322857Y-93574285D01*
X198251428Y-93574285D01*
X198180000Y-93538571D01*
X198144285Y-93502857D01*
X198108571Y-93431428D01*
X198072857Y-93288571D01*
X198072857Y-93110000D01*
X198108571Y-92967142D01*
X198144285Y-92895714D01*
X198180000Y-92860000D01*
X198251428Y-92824285D01*
X198965714Y-92824285D02*
X199037142Y-92824285D01*
X199108571Y-92860000D01*
X199144285Y-92895714D01*
X199180000Y-92967142D01*
X199215714Y-93110000D01*
X199215714Y-93288571D01*
X199180000Y-93431428D01*
X199144285Y-93502857D01*
X199108571Y-93538571D01*
X199037142Y-93574285D01*
X198965714Y-93574285D01*
X198894285Y-93538571D01*
X198858571Y-93502857D01*
X198822857Y-93431428D01*
X198787142Y-93288571D01*
X198787142Y-93110000D01*
X198822857Y-92967142D01*
X198858571Y-92895714D01*
X198894285Y-92860000D01*
X198965714Y-92824285D01*
X199501428Y-92895714D02*
X199537142Y-92860000D01*
X199608571Y-92824285D01*
X199787142Y-92824285D01*
X199858571Y-92860000D01*
X199894285Y-92895714D01*
X199930000Y-92967142D01*
X199930000Y-93038571D01*
X199894285Y-93145714D01*
X199465714Y-93574285D01*
X199930000Y-93574285D01*
D14*
X148044936Y-99310000D02*
X149499064Y-99310000D01*
X148044936Y-101130000D02*
X149499064Y-101130000D01*
X195470936Y-101215000D02*
X196925064Y-101215000D01*
X195470936Y-103035000D02*
X196925064Y-103035000D01*
X177472936Y-101215000D02*
X178927064Y-101215000D01*
X177472936Y-103035000D02*
X178927064Y-103035000D01*
X159692936Y-94865000D02*
X161147064Y-94865000D01*
X159692936Y-96685000D02*
X161147064Y-96685000D01*
X152940748Y-93595000D02*
X154363252Y-93595000D01*
X152940748Y-95415000D02*
X154363252Y-95415000D01*
X133810000Y-110110000D02*
G75*
G02*
X133810000Y-108110000I0J1000000D01*
G01*
X133810000Y-108110000D02*
X133810000Y-106460000D01*
X133810000Y-106460000D02*
X115910000Y-106460000D01*
X115910000Y-106460000D02*
X115910000Y-111760000D01*
X115910000Y-111760000D02*
X133810000Y-111760000D01*
X133810000Y-111760000D02*
X133810000Y-110110000D01*
X151230000Y-87825000D02*
X151230000Y-91735000D01*
X151230000Y-91735000D02*
X153100000Y-91735000D01*
X153100000Y-91735000D02*
X153100000Y-87825000D01*
X137865000Y-97980000D02*
X141775000Y-97980000D01*
X141775000Y-97980000D02*
X141775000Y-96110000D01*
X141775000Y-96110000D02*
X137865000Y-96110000D01*
X152470000Y-101355000D02*
X156530000Y-101355000D01*
X156530000Y-101355000D02*
X156530000Y-99085000D01*
X156530000Y-99085000D02*
X152470000Y-99085000D01*
X133690000Y-98890000D02*
X133690000Y-101550000D01*
X141370000Y-98890000D02*
X133690000Y-98890000D01*
X141370000Y-101550000D02*
X133690000Y-101550000D01*
X141370000Y-98890000D02*
X141370000Y-101550000D01*
X142640000Y-98890000D02*
X143970000Y-98890000D01*
X143970000Y-98890000D02*
X143970000Y-100220000D01*
X110720000Y-114250000D02*
X110720000Y-103970000D01*
X110720000Y-103970000D02*
X108060000Y-103970000D01*
X108060000Y-103970000D02*
X108060000Y-114250000D01*
X108060000Y-114250000D02*
X110720000Y-114250000D01*
X108060000Y-113300000D02*
X102060000Y-113300000D01*
X102060000Y-113300000D02*
X102060000Y-112540000D01*
X102060000Y-112540000D02*
X108060000Y-112540000D01*
X108060000Y-113240000D02*
X102060000Y-113240000D01*
X108060000Y-113120000D02*
X102060000Y-113120000D01*
X108060000Y-113000000D02*
X102060000Y-113000000D01*
X108060000Y-112880000D02*
X102060000Y-112880000D01*
X108060000Y-112760000D02*
X102060000Y-112760000D01*
X108060000Y-112640000D02*
X102060000Y-112640000D01*
X111050000Y-113300000D02*
X110720000Y-113300000D01*
X111050000Y-112540000D02*
X110720000Y-112540000D01*
X110720000Y-111650000D02*
X108060000Y-111650000D01*
X108060000Y-110760000D02*
X102060000Y-110760000D01*
X102060000Y-110760000D02*
X102060000Y-110000000D01*
X102060000Y-110000000D02*
X108060000Y-110000000D01*
X111117071Y-110760000D02*
X110720000Y-110760000D01*
X111117071Y-110000000D02*
X110720000Y-110000000D01*
X110720000Y-109110000D02*
X108060000Y-109110000D01*
X108060000Y-108220000D02*
X102060000Y-108220000D01*
X102060000Y-108220000D02*
X102060000Y-107460000D01*
X102060000Y-107460000D02*
X108060000Y-107460000D01*
X111117071Y-108220000D02*
X110720000Y-108220000D01*
X111117071Y-107460000D02*
X110720000Y-107460000D01*
X110720000Y-106570000D02*
X108060000Y-106570000D01*
X108060000Y-105680000D02*
X102060000Y-105680000D01*
X102060000Y-105680000D02*
X102060000Y-104920000D01*
X102060000Y-104920000D02*
X108060000Y-104920000D01*
X111117071Y-105680000D02*
X110720000Y-105680000D01*
X111117071Y-104920000D02*
X110720000Y-104920000D01*
X113430000Y-112920000D02*
X113430000Y-114190000D01*
X113430000Y-114190000D02*
X112160000Y-114190000D01*
D13*
X142640000Y-112920000D02*
X142640000Y-105300000D01*
X142640000Y-105300000D02*
X193440000Y-105300000D01*
X193440000Y-105300000D02*
X193440000Y-112920000D01*
X193440000Y-112920000D02*
X142640000Y-112920000D01*
D14*
X147974000Y-114698000D02*
X147720000Y-114190000D01*
X147466000Y-114698000D02*
X147974000Y-114698000D01*
X147720000Y-114190000D02*
X147466000Y-114698000D01*
D13*
X148605333Y-98852380D02*
X148272000Y-98376190D01*
X148033904Y-98852380D02*
X148033904Y-97852380D01*
X148414857Y-97852380D01*
X148510095Y-97900000D01*
X148557714Y-97947619D01*
X148605333Y-98042857D01*
X148605333Y-98185714D01*
X148557714Y-98280952D01*
X148510095Y-98328571D01*
X148414857Y-98376190D01*
X148033904Y-98376190D01*
X149176761Y-98280952D02*
X149081523Y-98233333D01*
X149033904Y-98185714D01*
X148986285Y-98090476D01*
X148986285Y-98042857D01*
X149033904Y-97947619D01*
X149081523Y-97900000D01*
X149176761Y-97852380D01*
X149367238Y-97852380D01*
X149462476Y-97900000D01*
X149510095Y-97947619D01*
X149557714Y-98042857D01*
X149557714Y-98090476D01*
X149510095Y-98185714D01*
X149462476Y-98233333D01*
X149367238Y-98280952D01*
X149176761Y-98280952D01*
X149081523Y-98328571D01*
X149033904Y-98376190D01*
X148986285Y-98471428D01*
X148986285Y-98661904D01*
X149033904Y-98757142D01*
X149081523Y-98804761D01*
X149176761Y-98852380D01*
X149367238Y-98852380D01*
X149462476Y-98804761D01*
X149510095Y-98757142D01*
X149557714Y-98661904D01*
X149557714Y-98471428D01*
X149510095Y-98376190D01*
X149462476Y-98328571D01*
X149367238Y-98280952D01*
X196031333Y-100757380D02*
X195698000Y-100281190D01*
X195459904Y-100757380D02*
X195459904Y-99757380D01*
X195840857Y-99757380D01*
X195936095Y-99805000D01*
X195983714Y-99852619D01*
X196031333Y-99947857D01*
X196031333Y-100090714D01*
X195983714Y-100185952D01*
X195936095Y-100233571D01*
X195840857Y-100281190D01*
X195459904Y-100281190D01*
X196888476Y-99757380D02*
X196698000Y-99757380D01*
X196602761Y-99805000D01*
X196555142Y-99852619D01*
X196459904Y-99995476D01*
X196412285Y-100185952D01*
X196412285Y-100566904D01*
X196459904Y-100662142D01*
X196507523Y-100709761D01*
X196602761Y-100757380D01*
X196793238Y-100757380D01*
X196888476Y-100709761D01*
X196936095Y-100662142D01*
X196983714Y-100566904D01*
X196983714Y-100328809D01*
X196936095Y-100233571D01*
X196888476Y-100185952D01*
X196793238Y-100138333D01*
X196602761Y-100138333D01*
X196507523Y-100185952D01*
X196459904Y-100233571D01*
X196412285Y-100328809D01*
X178033333Y-100757380D02*
X177700000Y-100281190D01*
X177461904Y-100757380D02*
X177461904Y-99757380D01*
X177842857Y-99757380D01*
X177938095Y-99805000D01*
X177985714Y-99852619D01*
X178033333Y-99947857D01*
X178033333Y-100090714D01*
X177985714Y-100185952D01*
X177938095Y-100233571D01*
X177842857Y-100281190D01*
X177461904Y-100281190D01*
X178414285Y-99852619D02*
X178461904Y-99805000D01*
X178557142Y-99757380D01*
X178795238Y-99757380D01*
X178890476Y-99805000D01*
X178938095Y-99852619D01*
X178985714Y-99947857D01*
X178985714Y-100043095D01*
X178938095Y-100185952D01*
X178366666Y-100757380D01*
X178985714Y-100757380D01*
X160253333Y-94407380D02*
X159920000Y-93931190D01*
X159681904Y-94407380D02*
X159681904Y-93407380D01*
X160062857Y-93407380D01*
X160158095Y-93455000D01*
X160205714Y-93502619D01*
X160253333Y-93597857D01*
X160253333Y-93740714D01*
X160205714Y-93835952D01*
X160158095Y-93883571D01*
X160062857Y-93931190D01*
X159681904Y-93931190D01*
X161205714Y-94407380D02*
X160634285Y-94407380D01*
X160920000Y-94407380D02*
X160920000Y-93407380D01*
X160824761Y-93550238D01*
X160729523Y-93645476D01*
X160634285Y-93693095D01*
X153473333Y-96707142D02*
X153425714Y-96754761D01*
X153282857Y-96802380D01*
X153187619Y-96802380D01*
X153044761Y-96754761D01*
X152949523Y-96659523D01*
X152901904Y-96564285D01*
X152854285Y-96373809D01*
X152854285Y-96230952D01*
X152901904Y-96040476D01*
X152949523Y-95945238D01*
X153044761Y-95850000D01*
X153187619Y-95802380D01*
X153282857Y-95802380D01*
X153425714Y-95850000D01*
X153473333Y-95897619D01*
X153854285Y-95897619D02*
X153901904Y-95850000D01*
X153997142Y-95802380D01*
X154235238Y-95802380D01*
X154330476Y-95850000D01*
X154378095Y-95897619D01*
X154425714Y-95992857D01*
X154425714Y-96088095D01*
X154378095Y-96230952D01*
X153806666Y-96802380D01*
X154425714Y-96802380D01*
X134258095Y-103482380D02*
X134258095Y-104291904D01*
X134305714Y-104387142D01*
X134353333Y-104434761D01*
X134448571Y-104482380D01*
X134639047Y-104482380D01*
X134734285Y-104434761D01*
X134781904Y-104387142D01*
X134829523Y-104291904D01*
X134829523Y-103482380D01*
X135829523Y-104482380D02*
X135258095Y-104482380D01*
X135543809Y-104482380D02*
X135543809Y-103482380D01*
X135448571Y-103625238D01*
X135353333Y-103720476D01*
X135258095Y-103768095D01*
X151998333Y-92957142D02*
X151950714Y-93004761D01*
X151807857Y-93052380D01*
X151712619Y-93052380D01*
X151569761Y-93004761D01*
X151474523Y-92909523D01*
X151426904Y-92814285D01*
X151379285Y-92623809D01*
X151379285Y-92480952D01*
X151426904Y-92290476D01*
X151474523Y-92195238D01*
X151569761Y-92100000D01*
X151712619Y-92052380D01*
X151807857Y-92052380D01*
X151950714Y-92100000D01*
X151998333Y-92147619D01*
X152950714Y-93052380D02*
X152379285Y-93052380D01*
X152665000Y-93052380D02*
X152665000Y-92052380D01*
X152569761Y-92195238D01*
X152474523Y-92290476D01*
X152379285Y-92338095D01*
X135488333Y-97402142D02*
X135440714Y-97449761D01*
X135297857Y-97497380D01*
X135202619Y-97497380D01*
X135059761Y-97449761D01*
X134964523Y-97354523D01*
X134916904Y-97259285D01*
X134869285Y-97068809D01*
X134869285Y-96925952D01*
X134916904Y-96735476D01*
X134964523Y-96640238D01*
X135059761Y-96545000D01*
X135202619Y-96497380D01*
X135297857Y-96497380D01*
X135440714Y-96545000D01*
X135488333Y-96592619D01*
X136345476Y-96830714D02*
X136345476Y-97497380D01*
X136107380Y-96449761D02*
X135869285Y-97164047D01*
X136488333Y-97164047D01*
X153331904Y-98767380D02*
X153331904Y-97767380D01*
X153570000Y-97767380D01*
X153712857Y-97815000D01*
X153808095Y-97910238D01*
X153855714Y-98005476D01*
X153903333Y-98195952D01*
X153903333Y-98338809D01*
X153855714Y-98529285D01*
X153808095Y-98624523D01*
X153712857Y-98719761D01*
X153570000Y-98767380D01*
X153331904Y-98767380D01*
X154855714Y-98767380D02*
X154284285Y-98767380D01*
X154570000Y-98767380D02*
X154570000Y-97767380D01*
X154474761Y-97910238D01*
X154379523Y-98005476D01*
X154284285Y-98053095D01*
X143806904Y-98132380D02*
X143806904Y-97132380D01*
X144187857Y-97132380D01*
X144283095Y-97180000D01*
X144330714Y-97227619D01*
X144378333Y-97322857D01*
X144378333Y-97465714D01*
X144330714Y-97560952D01*
X144283095Y-97608571D01*
X144187857Y-97656190D01*
X143806904Y-97656190D01*
X145330714Y-98132380D02*
X144759285Y-98132380D01*
X145045000Y-98132380D02*
X145045000Y-97132380D01*
X144949761Y-97275238D01*
X144854523Y-97370476D01*
X144759285Y-97418095D01*
X105706904Y-109562380D02*
X105706904Y-108562380D01*
X106087857Y-108562380D01*
X106183095Y-108610000D01*
X106230714Y-108657619D01*
X106278333Y-108752857D01*
X106278333Y-108895714D01*
X106230714Y-108990952D01*
X106183095Y-109038571D01*
X106087857Y-109086190D01*
X105706904Y-109086190D01*
X106659285Y-108657619D02*
X106706904Y-108610000D01*
X106802142Y-108562380D01*
X107040238Y-108562380D01*
X107135476Y-108610000D01*
X107183095Y-108657619D01*
X107230714Y-108752857D01*
X107230714Y-108848095D01*
X107183095Y-108990952D01*
X106611666Y-109562380D01*
X107230714Y-109562380D01*
X192146666Y-113642380D02*
X192718095Y-113642380D01*
X192432380Y-114642380D02*
X192432380Y-113642380D01*
X193241904Y-113642380D02*
X193432380Y-113642380D01*
X193527619Y-113690000D01*
X193622857Y-113785238D01*
X193670476Y-113975714D01*
X193670476Y-114309047D01*
X193622857Y-114499523D01*
X193527619Y-114594761D01*
X193432380Y-114642380D01*
X193241904Y-114642380D01*
X193146666Y-114594761D01*
X193051428Y-114499523D01*
X193003809Y-114309047D01*
X193003809Y-113975714D01*
X193051428Y-113785238D01*
X193146666Y-113690000D01*
X193241904Y-113642380D01*
X193860952Y-114737619D02*
X194622857Y-114737619D01*
X194813333Y-114356666D02*
X195289523Y-114356666D01*
X194718095Y-114642380D02*
X195051428Y-113642380D01*
X195384761Y-114642380D01*
X195718095Y-114642380D02*
X195718095Y-113642380D01*
X196051428Y-114356666D01*
X196384761Y-113642380D01*
X196384761Y-114642380D01*
X196860952Y-114642380D02*
X196860952Y-113642380D01*
X197860952Y-113690000D02*
X197765714Y-113642380D01*
X197622857Y-113642380D01*
X197480000Y-113690000D01*
X197384761Y-113785238D01*
X197337142Y-113880476D01*
X197289523Y-114070952D01*
X197289523Y-114213809D01*
X197337142Y-114404285D01*
X197384761Y-114499523D01*
X197480000Y-114594761D01*
X197622857Y-114642380D01*
X197718095Y-114642380D01*
X197860952Y-114594761D01*
X197908571Y-114547142D01*
X197908571Y-114213809D01*
X197718095Y-114213809D01*
X198289523Y-114356666D02*
X198765714Y-114356666D01*
X198194285Y-114642380D02*
X198527619Y-113642380D01*
X198860952Y-114642380D01*
X199718095Y-114642380D02*
X199146666Y-114642380D01*
X199432380Y-114642380D02*
X199432380Y-113642380D01*
X199337142Y-113785238D01*
X199241904Y-113880476D01*
X199146666Y-113928095D01*
M02*
