%TF.GenerationSoftware,KiCad,Pcbnew,4.0.2+dfsg1-stable*%
%TF.CreationDate,2018-12-23T16:06:34+01:00*%
%TF.ProjectId,AmigaPCDriveAdapter,416D6967615043447269766541646170,rev?*%
%TF.FileFunction,Copper,L1,Top,Signal*%
%FSLAX46Y46*%
G04 Gerber Fmt 4.6, Leading zero omitted, Abs format (unit mm)*
G04 Created by KiCad (PCBNEW 4.0.2+dfsg1-stable) date Sun 23 Dec 2018 16:06:34 CET*
%MOMM*%
G01*
G04 APERTURE LIST*
%ADD10C,0.100000*%
%ADD11R,1.727200X2.032000*%
%ADD12O,1.727200X2.032000*%
%ADD13R,2.032000X1.727200*%
%ADD14O,2.032000X1.727200*%
%ADD15R,1.200000X0.900000*%
%ADD16R,1.727200X1.727200*%
%ADD17O,1.727200X1.727200*%
%ADD18O,1.600000X1.600000*%
%ADD19R,0.797560X0.797560*%
%ADD20R,1.600000X2.000000*%
%ADD21R,2.000000X1.600000*%
%ADD22C,0.600000*%
%ADD23C,0.250000*%
G04 APERTURE END LIST*
D10*
D11*
X167640000Y-109220000D03*
D12*
X165100000Y-109220000D03*
X162560000Y-109220000D03*
X160020000Y-109220000D03*
D13*
X137160000Y-121920000D03*
D14*
X137160000Y-119380000D03*
X137160000Y-116840000D03*
X137160000Y-114300000D03*
D15*
X214800000Y-106680000D03*
X217000000Y-106680000D03*
X219880000Y-106680000D03*
X222080000Y-106680000D03*
X209720000Y-106680000D03*
X211920000Y-106680000D03*
X204640000Y-106680000D03*
X206840000Y-106680000D03*
X199560000Y-106680000D03*
X201760000Y-106680000D03*
X189400000Y-106680000D03*
X191600000Y-106680000D03*
X194480000Y-106680000D03*
X196680000Y-106680000D03*
D16*
X177800000Y-119380000D03*
D17*
X177800000Y-116840000D03*
X180340000Y-119380000D03*
X180340000Y-116840000D03*
X182880000Y-119380000D03*
X182880000Y-116840000D03*
X185420000Y-119380000D03*
X185420000Y-116840000D03*
X187960000Y-119380000D03*
X187960000Y-116840000D03*
X190500000Y-119380000D03*
X190500000Y-116840000D03*
X193040000Y-119380000D03*
X193040000Y-116840000D03*
X195580000Y-119380000D03*
X195580000Y-116840000D03*
X198120000Y-119380000D03*
X198120000Y-116840000D03*
X200660000Y-119380000D03*
X200660000Y-116840000D03*
X203200000Y-119380000D03*
X203200000Y-116840000D03*
X205740000Y-119380000D03*
X205740000Y-116840000D03*
X208280000Y-119380000D03*
X208280000Y-116840000D03*
X210820000Y-119380000D03*
X210820000Y-116840000D03*
X213360000Y-119380000D03*
X213360000Y-116840000D03*
X215900000Y-119380000D03*
X215900000Y-116840000D03*
X218440000Y-119380000D03*
X218440000Y-116840000D03*
D16*
X180340000Y-101600000D03*
D17*
X180340000Y-99060000D03*
X182880000Y-101600000D03*
X182880000Y-99060000D03*
X185420000Y-101600000D03*
X185420000Y-99060000D03*
X187960000Y-101600000D03*
X187960000Y-99060000D03*
X190500000Y-101600000D03*
X190500000Y-99060000D03*
X193040000Y-101600000D03*
X193040000Y-99060000D03*
X195580000Y-101600000D03*
X195580000Y-99060000D03*
X198120000Y-101600000D03*
X198120000Y-99060000D03*
X200660000Y-101600000D03*
X200660000Y-99060000D03*
X203200000Y-101600000D03*
X203200000Y-99060000D03*
X205740000Y-101600000D03*
X205740000Y-99060000D03*
X208280000Y-101600000D03*
X208280000Y-99060000D03*
X210820000Y-101600000D03*
X210820000Y-99060000D03*
X213360000Y-101600000D03*
X213360000Y-99060000D03*
X215900000Y-101600000D03*
X215900000Y-99060000D03*
X218440000Y-101600000D03*
X218440000Y-99060000D03*
X220980000Y-101600000D03*
X220980000Y-99060000D03*
D18*
X167640000Y-114300000D03*
X165100000Y-114300000D03*
X162560000Y-114300000D03*
X160020000Y-114300000D03*
X157480000Y-114300000D03*
X154940000Y-114300000D03*
X152400000Y-114300000D03*
X152400000Y-121920000D03*
X154940000Y-121920000D03*
X157480000Y-121920000D03*
X160020000Y-121920000D03*
X162560000Y-121920000D03*
X165100000Y-121920000D03*
X167640000Y-121920000D03*
D19*
X181089300Y-108585000D03*
X179590700Y-108585000D03*
D15*
X186520000Y-108585000D03*
X184320000Y-108585000D03*
D20*
X177038000Y-102584000D03*
X177038000Y-98584000D03*
D21*
X209836000Y-95758000D03*
X213836000Y-95758000D03*
X221710000Y-95758000D03*
X217710000Y-95758000D03*
X173006000Y-108712000D03*
X177006000Y-108712000D03*
D22*
X178344900Y-98584000D03*
X213603500Y-106060200D03*
X180427500Y-111606900D03*
X186346600Y-103650400D03*
X209628100Y-109219900D03*
X212008900Y-107668900D03*
X212483800Y-111599600D03*
X192247800Y-111968400D03*
X193012300Y-104405800D03*
D23*
X179590700Y-108585000D02*
X178866600Y-108585000D01*
X218068500Y-100411100D02*
X218440000Y-100411100D01*
X217237500Y-99580100D02*
X218068500Y-100411100D01*
X217237500Y-95758000D02*
X217237500Y-99580100D01*
X217710000Y-95758000D02*
X217237500Y-95758000D01*
X217237500Y-95758000D02*
X213836000Y-95758000D01*
X177038000Y-98584000D02*
X178163300Y-98584000D01*
X178163300Y-98584000D02*
X178344900Y-98584000D01*
X218440000Y-101600000D02*
X218440000Y-101005500D01*
X218440000Y-101005500D02*
X218440000Y-100411100D01*
X217683400Y-101005500D02*
X217088900Y-101600000D01*
X218440000Y-101005500D02*
X217683400Y-101005500D01*
X216494500Y-101600000D02*
X217088900Y-101600000D01*
X216494500Y-101600000D02*
X215900000Y-101600000D01*
X215900000Y-101600000D02*
X213360000Y-101600000D01*
X213360000Y-101600000D02*
X210820000Y-101600000D01*
X210820000Y-101600000D02*
X208280000Y-101600000D01*
X208280000Y-101600000D02*
X205740000Y-101600000D01*
X205740000Y-101600000D02*
X203200000Y-101600000D01*
X203200000Y-101600000D02*
X200660000Y-101600000D01*
X200660000Y-101600000D02*
X198120000Y-101600000D01*
X198120000Y-101600000D02*
X195580000Y-101600000D01*
X195580000Y-101600000D02*
X193040000Y-101600000D01*
X193040000Y-101600000D02*
X190500000Y-101600000D01*
X190500000Y-101600000D02*
X187960000Y-101600000D01*
X187960000Y-101600000D02*
X185420000Y-101600000D01*
X185420000Y-101600000D02*
X182880000Y-101600000D01*
X182880000Y-101600000D02*
X180340000Y-101600000D01*
X218440000Y-119380000D02*
X215900000Y-119380000D01*
X215900000Y-119380000D02*
X213360000Y-119380000D01*
X213360000Y-119380000D02*
X210820000Y-119380000D01*
X210820000Y-119380000D02*
X208280000Y-119380000D01*
X208280000Y-119380000D02*
X205740000Y-119380000D01*
X205740000Y-119380000D02*
X203200000Y-119380000D01*
X203200000Y-119380000D02*
X200660000Y-119380000D01*
X200660000Y-119380000D02*
X198120000Y-119380000D01*
X198120000Y-119380000D02*
X195580000Y-119380000D01*
X195580000Y-119380000D02*
X193040000Y-119380000D01*
X193040000Y-119380000D02*
X190500000Y-119380000D01*
X190500000Y-119380000D02*
X187960000Y-119380000D01*
X187960000Y-119380000D02*
X185420000Y-119380000D01*
X185420000Y-119380000D02*
X182880000Y-119380000D01*
X182880000Y-119380000D02*
X180340000Y-119380000D01*
X180340000Y-119380000D02*
X177800000Y-119380000D01*
X148734700Y-116840000D02*
X151274700Y-114300000D01*
X137160000Y-116840000D02*
X148734700Y-116840000D01*
X152400000Y-114300000D02*
X151274700Y-114300000D01*
X162560000Y-109220000D02*
X165100000Y-109220000D01*
X165100000Y-109220000D02*
X166288900Y-109220000D01*
X178739600Y-108712000D02*
X177006000Y-108712000D01*
X178866600Y-108585000D02*
X178739600Y-108712000D01*
X166288900Y-108179700D02*
X166288900Y-109220000D01*
X166882000Y-107586600D02*
X166288900Y-108179700D01*
X176022000Y-107586600D02*
X166882000Y-107586600D01*
X177006000Y-108570600D02*
X176022000Y-107586600D01*
X177006000Y-108712000D02*
X177006000Y-108570600D01*
X191600000Y-106680000D02*
X191600000Y-105904700D01*
X192050300Y-105454400D02*
X191600000Y-105904700D01*
X212997700Y-105454400D02*
X192050300Y-105454400D01*
X213603500Y-106060200D02*
X212997700Y-105454400D01*
X187448400Y-111606900D02*
X191600000Y-107455300D01*
X180427500Y-111606900D02*
X187448400Y-111606900D01*
X191600000Y-106680000D02*
X191600000Y-107455300D01*
X163404000Y-116840000D02*
X177800000Y-116840000D01*
X161145300Y-114581300D02*
X163404000Y-116840000D01*
X161145300Y-114300000D02*
X161145300Y-114581300D01*
X160020000Y-114300000D02*
X161145300Y-114300000D01*
X214745700Y-103650400D02*
X217000000Y-105904700D01*
X186346600Y-103650400D02*
X214745700Y-103650400D01*
X217000000Y-106680000D02*
X217000000Y-105904700D01*
X187960000Y-116840000D02*
X186771100Y-116840000D01*
X165100000Y-114300000D02*
X167640000Y-114300000D01*
X186771100Y-116468500D02*
X186771100Y-116840000D01*
X184602600Y-114300000D02*
X186771100Y-116468500D01*
X167640000Y-114300000D02*
X184602600Y-114300000D01*
X222080000Y-106680000D02*
X222080000Y-107455300D01*
X220315400Y-109219900D02*
X209628100Y-109219900D01*
X222080000Y-107455300D02*
X220315400Y-109219900D01*
X211920000Y-107580000D02*
X212008900Y-107668900D01*
X211920000Y-106680000D02*
X211920000Y-107580000D01*
X206840000Y-106680000D02*
X206840000Y-107455300D01*
X210427100Y-111599600D02*
X212483800Y-111599600D01*
X206840000Y-108012500D02*
X210427100Y-111599600D01*
X206840000Y-107455300D02*
X206840000Y-108012500D01*
X219710000Y-105734700D02*
X219880000Y-105904700D01*
X219710000Y-98602000D02*
X219710000Y-105734700D01*
X221428700Y-96883300D02*
X219710000Y-98602000D01*
X221710000Y-96883300D02*
X221428700Y-96883300D01*
X221710000Y-95758000D02*
X221710000Y-96883300D01*
X189400000Y-106680000D02*
X189400000Y-107455300D01*
X190898900Y-104405800D02*
X189400000Y-105904700D01*
X193012300Y-104405800D02*
X190898900Y-104405800D01*
X189400000Y-106680000D02*
X189400000Y-105904700D01*
X196680000Y-106680000D02*
X196680000Y-107455300D01*
X192247800Y-111887500D02*
X192247800Y-111968400D01*
X196680000Y-107455300D02*
X192247800Y-111887500D01*
X188270300Y-108585000D02*
X186520000Y-108585000D01*
X189400000Y-107455300D02*
X188270300Y-108585000D01*
X186043000Y-109837300D02*
X173006000Y-109837300D01*
X186520000Y-109360300D02*
X186043000Y-109837300D01*
X209720000Y-106680000D02*
X209720000Y-107455300D01*
X201760000Y-106680000D02*
X204640000Y-106680000D01*
X213933600Y-108321700D02*
X214800000Y-107455300D01*
X209720000Y-108321700D02*
X213933600Y-108321700D01*
X209720000Y-108321700D02*
X209720000Y-107455300D01*
X219880000Y-106680000D02*
X219880000Y-106292300D01*
X219880000Y-106292300D02*
X219880000Y-105904700D01*
X218717000Y-107455300D02*
X214800000Y-107455300D01*
X219880000Y-106292300D02*
X218717000Y-107455300D01*
X214800000Y-107067600D02*
X214800000Y-107455300D01*
X214800000Y-107067600D02*
X214800000Y-106680000D01*
X213301100Y-104405800D02*
X193012300Y-104405800D01*
X214800000Y-105904700D02*
X213301100Y-104405800D01*
X214800000Y-106680000D02*
X214800000Y-105904700D01*
X209623800Y-108321700D02*
X209720000Y-108321700D01*
X208951700Y-108993800D02*
X209623800Y-108321700D01*
X208951700Y-109487300D02*
X208951700Y-108993800D01*
X209672500Y-110208100D02*
X208951700Y-109487300D01*
X211979500Y-110208100D02*
X209672500Y-110208100D01*
X213113000Y-111341600D02*
X211979500Y-110208100D01*
X213113000Y-111857800D02*
X213113000Y-111341600D01*
X212712900Y-112257900D02*
X213113000Y-111857800D01*
X208777900Y-112257900D02*
X212712900Y-112257900D01*
X204640000Y-108120000D02*
X208777900Y-112257900D01*
X204640000Y-106680000D02*
X204640000Y-108120000D01*
X166514700Y-122201400D02*
X166514700Y-121920000D01*
X165670800Y-123045300D02*
X166514700Y-122201400D01*
X139626600Y-123045300D02*
X165670800Y-123045300D01*
X138501300Y-121920000D02*
X139626600Y-123045300D01*
X137160000Y-121920000D02*
X138501300Y-121920000D01*
X167640000Y-121920000D02*
X166514700Y-121920000D01*
X173006000Y-108712000D02*
X173006000Y-109274600D01*
X173006000Y-109274600D02*
X173006000Y-109837300D01*
X168883500Y-109274600D02*
X168828900Y-109220000D01*
X173006000Y-109274600D02*
X168883500Y-109274600D01*
X167640000Y-109220000D02*
X168828900Y-109220000D01*
X186520000Y-108585000D02*
X186520000Y-109360300D01*
X178163300Y-101458700D02*
X178163300Y-102584000D01*
X179211000Y-100411000D02*
X178163300Y-101458700D01*
X201063600Y-100411000D02*
X179211000Y-100411000D01*
X201930000Y-99544600D02*
X201063600Y-100411000D01*
X201930000Y-98638800D02*
X201930000Y-99544600D01*
X204810800Y-95758000D02*
X201930000Y-98638800D01*
X209836000Y-95758000D02*
X204810800Y-95758000D01*
X177038000Y-102584000D02*
X177600700Y-102584000D01*
X177600700Y-102584000D02*
X178163300Y-102584000D01*
X161208900Y-108699900D02*
X161208900Y-109220000D01*
X163301900Y-106606900D02*
X161208900Y-108699900D01*
X173577800Y-106606900D02*
X163301900Y-106606900D01*
X177600700Y-102584000D02*
X173577800Y-106606900D01*
X160020000Y-109220000D02*
X161208900Y-109220000D01*
X162560000Y-114300000D02*
X163685300Y-114300000D01*
X199560000Y-106680000D02*
X199560000Y-107455300D01*
X193840600Y-113174700D02*
X199560000Y-107455300D01*
X164561100Y-113174700D02*
X193840600Y-113174700D01*
X163685300Y-114050500D02*
X164561100Y-113174700D01*
X163685300Y-114300000D02*
X163685300Y-114050500D01*
X154940000Y-114300000D02*
X156065300Y-114300000D01*
X194480000Y-106680000D02*
X194480000Y-107455300D01*
X156065300Y-114018600D02*
X156065300Y-114300000D01*
X157359500Y-112724400D02*
X156065300Y-114018600D01*
X189210900Y-112724400D02*
X157359500Y-112724400D01*
X194480000Y-107455300D02*
X189210900Y-112724400D01*
X200363700Y-105904700D02*
X194480000Y-105904700D01*
X200660000Y-106201000D02*
X200363700Y-105904700D01*
X200660000Y-107090100D02*
X200660000Y-106201000D01*
X209221000Y-115651100D02*
X200660000Y-107090100D01*
X216433800Y-115651100D02*
X209221000Y-115651100D01*
X217251100Y-116468400D02*
X216433800Y-115651100D01*
X217251100Y-116840000D02*
X217251100Y-116468400D01*
X218440000Y-116840000D02*
X217251100Y-116840000D01*
X194480000Y-106680000D02*
X194480000Y-105904700D01*
X181089300Y-108585000D02*
X184320000Y-108585000D01*
M02*
