M48
;DRILL file {KiCad 5.0.2+dfsg1-1} date Sat 23 Jan 2021 02:19:42 PM CET
;FORMAT={-:-/ absolute / inch / decimal}
FMAT,2
INCH,TZ
T1C0.0157
T2C0.0315
T3C0.0358
T4C0.0394
%
G90
G05
T1
X8.0107Y-4.3862
X8.2386Y-4.4004
T2
X5.6Y-4.5
X5.6Y-4.8
X5.7Y-4.5
X5.7Y-4.8
X5.8Y-4.5
X5.8Y-4.8
X5.9Y-4.5
X5.9Y-4.8
X6.Y-4.5
X6.Y-4.8
X6.1Y-4.5
X6.1Y-4.8
X6.2Y-4.5
X6.2Y-4.8
T3
X6.8Y-4.6
X6.8Y-4.7
X6.9Y-4.6
X6.9Y-4.7
X7.Y-4.6
X7.Y-4.7
X7.1Y-4.6
X7.1Y-4.7
X7.2Y-4.6
X7.2Y-4.7
X7.3Y-4.6
X7.3Y-4.7
X7.4Y-4.6
X7.4Y-4.7
X7.5Y-4.6
X7.5Y-4.7
X7.6Y-4.6
X7.6Y-4.7
X7.7Y-4.6
X7.7Y-4.7
X7.8Y-4.6
X7.8Y-4.7
X7.9Y-4.6
X7.9Y-4.7
X8.Y-4.6
X8.Y-4.7
X8.1Y-4.6
X8.1Y-4.7
X8.2Y-4.6
X8.2Y-4.7
X8.3Y-4.6
X8.3Y-4.7
X8.4Y-4.6
X8.4Y-4.7
T4
X5.4Y-4.5
X5.4Y-4.6
X5.4Y-4.7
X5.4Y-4.8
X7.1Y-3.8
X7.1Y-3.9
X7.2Y-3.8
X7.2Y-3.9
X7.3Y-3.8
X7.3Y-3.9
X7.4Y-3.8
X7.4Y-3.9
X7.5Y-3.8
X7.5Y-3.9
X7.6Y-3.8
X7.6Y-3.9
X7.7Y-3.8
X7.7Y-3.9
X7.8Y-3.8
X7.8Y-3.9
X7.9Y-3.8
X7.9Y-3.9
X8.Y-3.8
X8.Y-3.9
X8.1Y-3.8
X8.1Y-3.9
X8.2Y-3.8
X8.2Y-3.9
X8.3Y-3.8
X8.3Y-3.9
X8.4Y-3.8
X8.4Y-3.9
X8.5Y-3.8
X8.5Y-3.9
X8.6Y-3.8
X8.6Y-3.9
X8.7Y-3.8
X8.7Y-3.9
X6.3Y-4.3
X6.4Y-4.3
X6.5Y-4.3
X6.6Y-4.3
T0
M30
