%TF.GenerationSoftware,KiCad,Pcbnew,4.0.2+dfsg1-stable*%
%TF.CreationDate,2019-03-01T14:06:32+01:00*%
%TF.ProjectId,AmigaPCDriveAdapter,416D6967615043447269766541646170,rev?*%
%TF.FileFunction,Copper,L2,Bot,Signal*%
%FSLAX46Y46*%
G04 Gerber Fmt 4.6, Leading zero omitted, Abs format (unit mm)*
G04 Created by KiCad (PCBNEW 4.0.2+dfsg1-stable) date Fri 01 Mar 2019 14:06:32 CET*
%MOMM*%
G01*
G04 APERTURE LIST*
%ADD10C,0.100000*%
%ADD11R,1.727200X2.032000*%
%ADD12O,1.727200X2.032000*%
%ADD13R,2.032000X1.727200*%
%ADD14O,2.032000X1.727200*%
%ADD15R,1.727200X1.727200*%
%ADD16O,1.727200X1.727200*%
%ADD17O,1.600000X1.600000*%
%ADD18R,1.520000X1.520000*%
%ADD19C,1.520000*%
%ADD20C,0.600000*%
%ADD21C,0.250000*%
%ADD22C,0.254000*%
G04 APERTURE END LIST*
D10*
D11*
X167640000Y-109220000D03*
D12*
X165100000Y-109220000D03*
X162560000Y-109220000D03*
X160020000Y-109220000D03*
D13*
X137160000Y-121920000D03*
D14*
X137160000Y-119380000D03*
X137160000Y-116840000D03*
X137160000Y-114300000D03*
D15*
X180340000Y-101600000D03*
D16*
X180340000Y-99060000D03*
X182880000Y-101600000D03*
X182880000Y-99060000D03*
X185420000Y-101600000D03*
X185420000Y-99060000D03*
X187960000Y-101600000D03*
X187960000Y-99060000D03*
X190500000Y-101600000D03*
X190500000Y-99060000D03*
X193040000Y-101600000D03*
X193040000Y-99060000D03*
X195580000Y-101600000D03*
X195580000Y-99060000D03*
X198120000Y-101600000D03*
X198120000Y-99060000D03*
X200660000Y-101600000D03*
X200660000Y-99060000D03*
X203200000Y-101600000D03*
X203200000Y-99060000D03*
X205740000Y-101600000D03*
X205740000Y-99060000D03*
X208280000Y-101600000D03*
X208280000Y-99060000D03*
X210820000Y-101600000D03*
X210820000Y-99060000D03*
X213360000Y-101600000D03*
X213360000Y-99060000D03*
X215900000Y-101600000D03*
X215900000Y-99060000D03*
X218440000Y-101600000D03*
X218440000Y-99060000D03*
X220980000Y-101600000D03*
X220980000Y-99060000D03*
D17*
X167640000Y-114300000D03*
X165100000Y-114300000D03*
X162560000Y-114300000D03*
X160020000Y-114300000D03*
X157480000Y-114300000D03*
X154940000Y-114300000D03*
X152400000Y-114300000D03*
X152400000Y-121920000D03*
X154940000Y-121920000D03*
X157480000Y-121920000D03*
X160020000Y-121920000D03*
X162560000Y-121920000D03*
X165100000Y-121920000D03*
X167640000Y-121920000D03*
D18*
X177800000Y-119380000D03*
D19*
X177800000Y-116840000D03*
X180340000Y-119380000D03*
X180340000Y-116840000D03*
X182880000Y-119380000D03*
X182880000Y-116840000D03*
X185420000Y-119380000D03*
X185420000Y-116840000D03*
X187960000Y-119380000D03*
X187960000Y-116840000D03*
X190500000Y-119380000D03*
X190500000Y-116840000D03*
X193040000Y-119380000D03*
X193040000Y-116840000D03*
X195580000Y-119380000D03*
X195580000Y-116840000D03*
X198120000Y-119380000D03*
X198120000Y-116840000D03*
X200660000Y-119380000D03*
X200660000Y-116840000D03*
X203200000Y-119380000D03*
X203200000Y-116840000D03*
X205740000Y-119380000D03*
X205740000Y-116840000D03*
X208280000Y-119380000D03*
X208280000Y-116840000D03*
X210820000Y-119380000D03*
X210820000Y-116840000D03*
X213360000Y-119380000D03*
X213360000Y-116840000D03*
X215900000Y-119380000D03*
X215900000Y-116840000D03*
X218440000Y-119380000D03*
X218440000Y-116840000D03*
D20*
X178344900Y-98584000D03*
X213603500Y-106060200D03*
X180427500Y-111606900D03*
X186346600Y-103650400D03*
X209628100Y-109219900D03*
X212008900Y-107668900D03*
X212483800Y-111599600D03*
X192247800Y-111968400D03*
X193012300Y-104405800D03*
D21*
X178344900Y-98768300D02*
X178344900Y-98584000D01*
X179987700Y-100411100D02*
X178344900Y-98768300D01*
X180340000Y-100411100D02*
X179987700Y-100411100D01*
X218440000Y-119380000D02*
X218440000Y-118191100D01*
X218811500Y-118191100D02*
X218440000Y-118191100D01*
X219653800Y-117348800D02*
X218811500Y-118191100D01*
X219653800Y-101600000D02*
X219653800Y-117348800D01*
X220980000Y-101600000D02*
X219653800Y-101600000D01*
X219653800Y-101600000D02*
X218440000Y-101600000D01*
X180340000Y-101600000D02*
X180340000Y-101005500D01*
X180340000Y-101005500D02*
X180340000Y-100411100D01*
X167242300Y-107077700D02*
X165100000Y-109220000D01*
X174267800Y-107077700D02*
X167242300Y-107077700D01*
X180340000Y-101005500D02*
X174267800Y-107077700D01*
X137160000Y-116840000D02*
X137160000Y-119380000D01*
X153525300Y-114018600D02*
X153525300Y-114300000D01*
X154369200Y-113174700D02*
X153525300Y-114018600D01*
X157936500Y-113174700D02*
X154369200Y-113174700D01*
X161371100Y-109740100D02*
X157936500Y-113174700D01*
X161371100Y-109220000D02*
X161371100Y-109740100D01*
X162560000Y-109220000D02*
X161371100Y-109220000D01*
X152400000Y-114300000D02*
X153525300Y-114300000D01*
X220980000Y-99060000D02*
X219791100Y-99060000D01*
X219791100Y-99431600D02*
X219791100Y-99060000D01*
X218973800Y-100248900D02*
X219791100Y-99431600D01*
X218087800Y-100248900D02*
X218973800Y-100248900D01*
X217170000Y-101166700D02*
X218087800Y-100248900D01*
X217170000Y-102493700D02*
X217170000Y-101166700D01*
X213603500Y-106060200D02*
X217170000Y-102493700D01*
X180427500Y-113023600D02*
X180427500Y-111606900D01*
X177800000Y-115651100D02*
X180427500Y-113023600D01*
X177800000Y-116840000D02*
X177800000Y-115651100D01*
X187960000Y-99060000D02*
X187960000Y-100248900D01*
X186771100Y-103225900D02*
X186346600Y-103650400D01*
X186771100Y-101066200D02*
X186771100Y-103225900D01*
X187588400Y-100248900D02*
X186771100Y-101066200D01*
X187960000Y-100248900D02*
X187588400Y-100248900D01*
X185420000Y-104577000D02*
X185420000Y-116840000D01*
X186346600Y-103650400D02*
X185420000Y-104577000D01*
X193040000Y-99060000D02*
X193040000Y-100248900D01*
X187960000Y-116840000D02*
X187960000Y-115651100D01*
X187960000Y-115369100D02*
X187960000Y-115651100D01*
X191851100Y-111478000D02*
X187960000Y-115369100D01*
X191851100Y-101066200D02*
X191851100Y-111478000D01*
X192668400Y-100248900D02*
X191851100Y-101066200D01*
X193040000Y-100248900D02*
X192668400Y-100248900D01*
X210820000Y-99060000D02*
X210820000Y-100248900D01*
X208280000Y-116840000D02*
X208280000Y-115651100D01*
X209628100Y-101069200D02*
X209628100Y-109219900D01*
X210448400Y-100248900D02*
X209628100Y-101069200D01*
X210820000Y-100248900D02*
X210448400Y-100248900D01*
X209628100Y-114303000D02*
X209628100Y-109219900D01*
X208280000Y-115651100D02*
X209628100Y-114303000D01*
X213360000Y-99060000D02*
X213360000Y-100248900D01*
X210820000Y-116840000D02*
X210820000Y-115651100D01*
X212008900Y-101228400D02*
X212008900Y-107668900D01*
X212988400Y-100248900D02*
X212008900Y-101228400D01*
X213360000Y-100248900D02*
X212988400Y-100248900D01*
X210820000Y-108857800D02*
X210820000Y-115651100D01*
X212008900Y-107668900D02*
X210820000Y-108857800D01*
X217131000Y-97829000D02*
X215900000Y-99060000D01*
X221467500Y-97829000D02*
X217131000Y-97829000D01*
X222243700Y-98605200D02*
X221467500Y-97829000D01*
X222243700Y-117367300D02*
X222243700Y-98605200D01*
X219001100Y-120609900D02*
X222243700Y-117367300D01*
X217915700Y-120609900D02*
X219001100Y-120609900D01*
X217170000Y-119864200D02*
X217915700Y-120609900D01*
X217170000Y-118946700D02*
X217170000Y-119864200D01*
X216252200Y-118028900D02*
X217170000Y-118946700D01*
X215366200Y-118028900D02*
X216252200Y-118028900D01*
X214548900Y-117211600D02*
X215366200Y-118028900D01*
X214548900Y-116840000D02*
X214548900Y-117211600D01*
X213360000Y-116840000D02*
X214548900Y-116840000D01*
X212483800Y-114774900D02*
X213360000Y-115651100D01*
X212483800Y-111599600D02*
X212483800Y-114774900D01*
X213360000Y-116840000D02*
X213360000Y-115651100D01*
X166451100Y-119605800D02*
X166451100Y-109220000D01*
X167640000Y-120794700D02*
X166451100Y-119605800D01*
X167640000Y-121920000D02*
X167640000Y-120794700D01*
X167640000Y-109220000D02*
X166451100Y-109220000D01*
X193012300Y-111203900D02*
X192247800Y-111968400D01*
X193012300Y-104405800D02*
X193012300Y-111203900D01*
X137160000Y-114300000D02*
X137160000Y-113111100D01*
X137756400Y-112514700D02*
X137160000Y-113111100D01*
X137756400Y-112514600D02*
X137756400Y-112514700D01*
X157226100Y-112514600D02*
X137756400Y-112514600D01*
X160020000Y-109720700D02*
X157226100Y-112514600D01*
X160020000Y-109220000D02*
X160020000Y-109720700D01*
X157480000Y-114300000D02*
X158605300Y-114300000D01*
X162560000Y-114300000D02*
X161434700Y-114300000D01*
X161434700Y-114476800D02*
X161434700Y-114300000D01*
X160486200Y-115425300D02*
X161434700Y-114476800D01*
X159553800Y-115425300D02*
X160486200Y-115425300D01*
X158605300Y-114476800D02*
X159553800Y-115425300D01*
X158605300Y-114300000D02*
X158605300Y-114476800D01*
X181528900Y-114462200D02*
X180340000Y-115651100D01*
X181528900Y-101228400D02*
X181528900Y-114462200D01*
X182508400Y-100248900D02*
X181528900Y-101228400D01*
X182880000Y-100248900D02*
X182508400Y-100248900D01*
X182880000Y-99060000D02*
X182880000Y-100248900D01*
X180340000Y-116840000D02*
X180340000Y-115651100D01*
X184068900Y-114462200D02*
X182880000Y-115651100D01*
X184068900Y-101228400D02*
X184068900Y-114462200D01*
X185048400Y-100248900D02*
X184068900Y-101228400D01*
X185420000Y-100248900D02*
X185048400Y-100248900D01*
X185420000Y-99060000D02*
X185420000Y-100248900D01*
X182880000Y-116840000D02*
X182880000Y-115651100D01*
X189311100Y-117209500D02*
X189311100Y-116840000D01*
X188464300Y-118056300D02*
X189311100Y-117209500D01*
X187473000Y-118056300D02*
X188464300Y-118056300D01*
X186771000Y-117354300D02*
X187473000Y-118056300D01*
X186771000Y-105248000D02*
X186771000Y-117354300D01*
X189311100Y-102707900D02*
X186771000Y-105248000D01*
X189311100Y-101066200D02*
X189311100Y-102707900D01*
X190128400Y-100248900D02*
X189311100Y-101066200D01*
X190500000Y-100248900D02*
X190128400Y-100248900D01*
X190500000Y-99060000D02*
X190500000Y-100248900D01*
X190500000Y-116840000D02*
X189311100Y-116840000D01*
X194228900Y-114462200D02*
X193040000Y-115651100D01*
X194228900Y-101228400D02*
X194228900Y-114462200D01*
X195208400Y-100248900D02*
X194228900Y-101228400D01*
X195580000Y-100248900D02*
X195208400Y-100248900D01*
X195580000Y-99060000D02*
X195580000Y-100248900D01*
X193040000Y-116840000D02*
X193040000Y-115651100D01*
X196768900Y-114462200D02*
X195580000Y-115651100D01*
X196768900Y-101228400D02*
X196768900Y-114462200D01*
X197748400Y-100248900D02*
X196768900Y-101228400D01*
X198120000Y-100248900D02*
X197748400Y-100248900D01*
X198120000Y-99060000D02*
X198120000Y-100248900D01*
X195580000Y-116840000D02*
X195580000Y-115651100D01*
X199308900Y-114462200D02*
X198120000Y-115651100D01*
X199308900Y-101228400D02*
X199308900Y-114462200D01*
X200288400Y-100248900D02*
X199308900Y-101228400D01*
X200660000Y-100248900D02*
X200288400Y-100248900D01*
X200660000Y-99060000D02*
X200660000Y-100248900D01*
X198120000Y-116840000D02*
X198120000Y-115651100D01*
X201848900Y-114462200D02*
X200660000Y-115651100D01*
X201848900Y-101228400D02*
X201848900Y-114462200D01*
X202828400Y-100248900D02*
X201848900Y-101228400D01*
X203200000Y-100248900D02*
X202828400Y-100248900D01*
X203200000Y-99060000D02*
X203200000Y-100248900D01*
X200660000Y-116840000D02*
X200660000Y-115651100D01*
X204388900Y-114462200D02*
X203200000Y-115651100D01*
X204388900Y-101228400D02*
X204388900Y-114462200D01*
X205368400Y-100248900D02*
X204388900Y-101228400D01*
X205740000Y-100248900D02*
X205368400Y-100248900D01*
X205740000Y-99060000D02*
X205740000Y-100248900D01*
X203200000Y-116840000D02*
X203200000Y-115651100D01*
X206928900Y-114462200D02*
X205740000Y-115651100D01*
X206928900Y-101228400D02*
X206928900Y-114462200D01*
X207908400Y-100248900D02*
X206928900Y-101228400D01*
X208280000Y-100248900D02*
X207908400Y-100248900D01*
X208280000Y-99060000D02*
X208280000Y-100248900D01*
X205740000Y-116840000D02*
X205740000Y-115651100D01*
X218440000Y-99060000D02*
X217251100Y-99060000D01*
X215900000Y-116840000D02*
X215900000Y-115651100D01*
X217251100Y-99431600D02*
X217251100Y-99060000D01*
X216433800Y-100248900D02*
X217251100Y-99431600D01*
X215547800Y-100248900D02*
X216433800Y-100248900D01*
X214630000Y-101166700D02*
X215547800Y-100248900D01*
X214630000Y-104149100D02*
X214630000Y-101166700D01*
X212958700Y-105820400D02*
X214630000Y-104149100D01*
X212958700Y-111190100D02*
X212958700Y-105820400D01*
X215900000Y-114131400D02*
X212958700Y-111190100D01*
X215900000Y-115651100D02*
X215900000Y-114131400D01*
D22*
G36*
X225375000Y-123775000D02*
X127685000Y-123775000D01*
X127685000Y-121056400D01*
X135496560Y-121056400D01*
X135496560Y-122783600D01*
X135540838Y-123018917D01*
X135679910Y-123235041D01*
X135892110Y-123380031D01*
X136144000Y-123431040D01*
X138176000Y-123431040D01*
X138411317Y-123386762D01*
X138627441Y-123247690D01*
X138772431Y-123035490D01*
X138823440Y-122783600D01*
X138823440Y-121056400D01*
X138779162Y-120821083D01*
X138640090Y-120604959D01*
X138427890Y-120459969D01*
X138333073Y-120440768D01*
X138510732Y-120282036D01*
X138764709Y-119754791D01*
X138767358Y-119739026D01*
X138646217Y-119507000D01*
X137287000Y-119507000D01*
X137287000Y-119527000D01*
X137033000Y-119527000D01*
X137033000Y-119507000D01*
X135673783Y-119507000D01*
X135552642Y-119739026D01*
X135555291Y-119754791D01*
X135809268Y-120282036D01*
X135984845Y-120438907D01*
X135908683Y-120453238D01*
X135692559Y-120592310D01*
X135547569Y-120804510D01*
X135496560Y-121056400D01*
X127685000Y-121056400D01*
X127685000Y-117199026D01*
X135552642Y-117199026D01*
X135555291Y-117214791D01*
X135809268Y-117742036D01*
X136221108Y-118110000D01*
X135809268Y-118477964D01*
X135555291Y-119005209D01*
X135552642Y-119020974D01*
X135673783Y-119253000D01*
X137033000Y-119253000D01*
X137033000Y-116967000D01*
X137287000Y-116967000D01*
X137287000Y-119253000D01*
X138646217Y-119253000D01*
X138767358Y-119020974D01*
X138764709Y-119005209D01*
X138510732Y-118477964D01*
X138098892Y-118110000D01*
X138510732Y-117742036D01*
X138764709Y-117214791D01*
X138767358Y-117199026D01*
X138646217Y-116967000D01*
X137287000Y-116967000D01*
X137033000Y-116967000D01*
X135673783Y-116967000D01*
X135552642Y-117199026D01*
X127685000Y-117199026D01*
X127685000Y-112445000D01*
X136751298Y-112445000D01*
X136622599Y-112573699D01*
X136457852Y-112820261D01*
X136440443Y-112907781D01*
X136401766Y-112915474D01*
X135915585Y-113240330D01*
X135590729Y-113726511D01*
X135476655Y-114300000D01*
X135590729Y-114873489D01*
X135915585Y-115359670D01*
X136225069Y-115566461D01*
X135809268Y-115937964D01*
X135555291Y-116465209D01*
X135552642Y-116480974D01*
X135673783Y-116713000D01*
X137033000Y-116713000D01*
X137033000Y-116693000D01*
X137287000Y-116693000D01*
X137287000Y-116713000D01*
X138646217Y-116713000D01*
X138767358Y-116480974D01*
X138764709Y-116465209D01*
X138510732Y-115937964D01*
X138094931Y-115566461D01*
X138404415Y-115359670D01*
X138729271Y-114873489D01*
X138773916Y-114649041D01*
X151008086Y-114649041D01*
X151247611Y-115155134D01*
X151662577Y-115531041D01*
X152050961Y-115691904D01*
X152273000Y-115569915D01*
X152273000Y-114427000D01*
X151129371Y-114427000D01*
X151008086Y-114649041D01*
X138773916Y-114649041D01*
X138843345Y-114300000D01*
X138729271Y-113726511D01*
X138427313Y-113274600D01*
X151435569Y-113274600D01*
X151247611Y-113444866D01*
X151008086Y-113950959D01*
X151129371Y-114173000D01*
X152273000Y-114173000D01*
X152273000Y-114153000D01*
X152527000Y-114153000D01*
X152527000Y-114173000D01*
X152547000Y-114173000D01*
X152547000Y-114427000D01*
X152527000Y-114427000D01*
X152527000Y-115569915D01*
X152749039Y-115691904D01*
X153137423Y-115531041D01*
X153552389Y-115155134D01*
X153655014Y-114938297D01*
X153925302Y-115342811D01*
X154390849Y-115653880D01*
X154940000Y-115763113D01*
X155489151Y-115653880D01*
X155954698Y-115342811D01*
X156210000Y-114960725D01*
X156465302Y-115342811D01*
X156930849Y-115653880D01*
X157480000Y-115763113D01*
X158029151Y-115653880D01*
X158435838Y-115382140D01*
X159016399Y-115962701D01*
X159262961Y-116127448D01*
X159553800Y-116185300D01*
X160486200Y-116185300D01*
X160777039Y-116127448D01*
X161023601Y-115962701D01*
X161604162Y-115382140D01*
X162010849Y-115653880D01*
X162560000Y-115763113D01*
X163109151Y-115653880D01*
X163574698Y-115342811D01*
X163830000Y-114960725D01*
X164085302Y-115342811D01*
X164550849Y-115653880D01*
X165100000Y-115763113D01*
X165649151Y-115653880D01*
X165691100Y-115625851D01*
X165691100Y-119605800D01*
X165748952Y-119896639D01*
X165913699Y-120143201D01*
X166638720Y-120868223D01*
X166625302Y-120877189D01*
X166370000Y-121259275D01*
X166114698Y-120877189D01*
X165649151Y-120566120D01*
X165100000Y-120456887D01*
X164550849Y-120566120D01*
X164085302Y-120877189D01*
X163830000Y-121259275D01*
X163574698Y-120877189D01*
X163109151Y-120566120D01*
X162560000Y-120456887D01*
X162010849Y-120566120D01*
X161545302Y-120877189D01*
X161290000Y-121259275D01*
X161034698Y-120877189D01*
X160569151Y-120566120D01*
X160020000Y-120456887D01*
X159470849Y-120566120D01*
X159005302Y-120877189D01*
X158750000Y-121259275D01*
X158494698Y-120877189D01*
X158029151Y-120566120D01*
X157480000Y-120456887D01*
X156930849Y-120566120D01*
X156465302Y-120877189D01*
X156210000Y-121259275D01*
X155954698Y-120877189D01*
X155489151Y-120566120D01*
X154940000Y-120456887D01*
X154390849Y-120566120D01*
X153925302Y-120877189D01*
X153670000Y-121259275D01*
X153414698Y-120877189D01*
X152949151Y-120566120D01*
X152400000Y-120456887D01*
X151850849Y-120566120D01*
X151385302Y-120877189D01*
X151074233Y-121342736D01*
X150965000Y-121891887D01*
X150965000Y-121948113D01*
X151074233Y-122497264D01*
X151385302Y-122962811D01*
X151850849Y-123273880D01*
X152400000Y-123383113D01*
X152949151Y-123273880D01*
X153414698Y-122962811D01*
X153670000Y-122580725D01*
X153925302Y-122962811D01*
X154390849Y-123273880D01*
X154940000Y-123383113D01*
X155489151Y-123273880D01*
X155954698Y-122962811D01*
X156210000Y-122580725D01*
X156465302Y-122962811D01*
X156930849Y-123273880D01*
X157480000Y-123383113D01*
X158029151Y-123273880D01*
X158494698Y-122962811D01*
X158750000Y-122580725D01*
X159005302Y-122962811D01*
X159470849Y-123273880D01*
X160020000Y-123383113D01*
X160569151Y-123273880D01*
X161034698Y-122962811D01*
X161290000Y-122580725D01*
X161545302Y-122962811D01*
X162010849Y-123273880D01*
X162560000Y-123383113D01*
X163109151Y-123273880D01*
X163574698Y-122962811D01*
X163830000Y-122580725D01*
X164085302Y-122962811D01*
X164550849Y-123273880D01*
X165100000Y-123383113D01*
X165649151Y-123273880D01*
X166114698Y-122962811D01*
X166370000Y-122580725D01*
X166625302Y-122962811D01*
X167090849Y-123273880D01*
X167640000Y-123383113D01*
X168189151Y-123273880D01*
X168654698Y-122962811D01*
X168965767Y-122497264D01*
X169075000Y-121948113D01*
X169075000Y-121891887D01*
X168965767Y-121342736D01*
X168654698Y-120877189D01*
X168379882Y-120693563D01*
X168342148Y-120503861D01*
X168177402Y-120257299D01*
X167585853Y-119665750D01*
X176301400Y-119665750D01*
X176301400Y-120369910D01*
X176398073Y-120603299D01*
X176576702Y-120781927D01*
X176810091Y-120878600D01*
X177514250Y-120878600D01*
X177673000Y-120719850D01*
X177673000Y-119507000D01*
X177927000Y-119507000D01*
X177927000Y-120719850D01*
X178085750Y-120878600D01*
X178789909Y-120878600D01*
X179023298Y-120781927D01*
X179201927Y-120603299D01*
X179284529Y-120403881D01*
X179451510Y-120586821D01*
X179980973Y-120834968D01*
X180213000Y-120714469D01*
X180213000Y-119507000D01*
X180467000Y-119507000D01*
X180467000Y-120714469D01*
X180699027Y-120834968D01*
X181228490Y-120586821D01*
X181610000Y-120168848D01*
X181991510Y-120586821D01*
X182520973Y-120834968D01*
X182753000Y-120714469D01*
X182753000Y-119507000D01*
X183007000Y-119507000D01*
X183007000Y-120714469D01*
X183239027Y-120834968D01*
X183768490Y-120586821D01*
X184150000Y-120168848D01*
X184531510Y-120586821D01*
X185060973Y-120834968D01*
X185293000Y-120714469D01*
X185293000Y-119507000D01*
X185547000Y-119507000D01*
X185547000Y-120714469D01*
X185779027Y-120834968D01*
X186308490Y-120586821D01*
X186690000Y-120168848D01*
X187071510Y-120586821D01*
X187600973Y-120834968D01*
X187833000Y-120714469D01*
X187833000Y-119507000D01*
X188087000Y-119507000D01*
X188087000Y-120714469D01*
X188319027Y-120834968D01*
X188848490Y-120586821D01*
X189230000Y-120168848D01*
X189611510Y-120586821D01*
X190140973Y-120834968D01*
X190373000Y-120714469D01*
X190373000Y-119507000D01*
X190627000Y-119507000D01*
X190627000Y-120714469D01*
X190859027Y-120834968D01*
X191388490Y-120586821D01*
X191770000Y-120168848D01*
X192151510Y-120586821D01*
X192680973Y-120834968D01*
X192913000Y-120714469D01*
X192913000Y-119507000D01*
X193167000Y-119507000D01*
X193167000Y-120714469D01*
X193399027Y-120834968D01*
X193928490Y-120586821D01*
X194310000Y-120168848D01*
X194691510Y-120586821D01*
X195220973Y-120834968D01*
X195453000Y-120714469D01*
X195453000Y-119507000D01*
X195707000Y-119507000D01*
X195707000Y-120714469D01*
X195939027Y-120834968D01*
X196468490Y-120586821D01*
X196850000Y-120168848D01*
X197231510Y-120586821D01*
X197760973Y-120834968D01*
X197993000Y-120714469D01*
X197993000Y-119507000D01*
X198247000Y-119507000D01*
X198247000Y-120714469D01*
X198479027Y-120834968D01*
X199008490Y-120586821D01*
X199390000Y-120168848D01*
X199771510Y-120586821D01*
X200300973Y-120834968D01*
X200533000Y-120714469D01*
X200533000Y-119507000D01*
X200787000Y-119507000D01*
X200787000Y-120714469D01*
X201019027Y-120834968D01*
X201548490Y-120586821D01*
X201930000Y-120168848D01*
X202311510Y-120586821D01*
X202840973Y-120834968D01*
X203073000Y-120714469D01*
X203073000Y-119507000D01*
X203327000Y-119507000D01*
X203327000Y-120714469D01*
X203559027Y-120834968D01*
X204088490Y-120586821D01*
X204470000Y-120168848D01*
X204851510Y-120586821D01*
X205380973Y-120834968D01*
X205613000Y-120714469D01*
X205613000Y-119507000D01*
X205867000Y-119507000D01*
X205867000Y-120714469D01*
X206099027Y-120834968D01*
X206628490Y-120586821D01*
X207010000Y-120168848D01*
X207391510Y-120586821D01*
X207920973Y-120834968D01*
X208153000Y-120714469D01*
X208153000Y-119507000D01*
X208407000Y-119507000D01*
X208407000Y-120714469D01*
X208639027Y-120834968D01*
X209168490Y-120586821D01*
X209550000Y-120168848D01*
X209931510Y-120586821D01*
X210460973Y-120834968D01*
X210693000Y-120714469D01*
X210693000Y-119507000D01*
X210947000Y-119507000D01*
X210947000Y-120714469D01*
X211179027Y-120834968D01*
X211708490Y-120586821D01*
X212090000Y-120168848D01*
X212471510Y-120586821D01*
X213000973Y-120834968D01*
X213233000Y-120714469D01*
X213233000Y-119507000D01*
X213487000Y-119507000D01*
X213487000Y-120714469D01*
X213719027Y-120834968D01*
X214248490Y-120586821D01*
X214630000Y-120168848D01*
X215011510Y-120586821D01*
X215540973Y-120834968D01*
X215773000Y-120714469D01*
X215773000Y-119507000D01*
X213487000Y-119507000D01*
X213233000Y-119507000D01*
X210947000Y-119507000D01*
X210693000Y-119507000D01*
X208407000Y-119507000D01*
X208153000Y-119507000D01*
X205867000Y-119507000D01*
X205613000Y-119507000D01*
X203327000Y-119507000D01*
X203073000Y-119507000D01*
X200787000Y-119507000D01*
X200533000Y-119507000D01*
X198247000Y-119507000D01*
X197993000Y-119507000D01*
X195707000Y-119507000D01*
X195453000Y-119507000D01*
X193167000Y-119507000D01*
X192913000Y-119507000D01*
X190627000Y-119507000D01*
X190373000Y-119507000D01*
X188087000Y-119507000D01*
X187833000Y-119507000D01*
X185547000Y-119507000D01*
X185293000Y-119507000D01*
X183007000Y-119507000D01*
X182753000Y-119507000D01*
X180467000Y-119507000D01*
X180213000Y-119507000D01*
X177927000Y-119507000D01*
X177673000Y-119507000D01*
X176460150Y-119507000D01*
X176301400Y-119665750D01*
X167585853Y-119665750D01*
X167211100Y-119290998D01*
X167211100Y-116840000D01*
X176272041Y-116840000D01*
X176386115Y-117413489D01*
X176710971Y-117899670D01*
X176732023Y-117913737D01*
X176576702Y-117978073D01*
X176398073Y-118156701D01*
X176301400Y-118390090D01*
X176301400Y-119094250D01*
X176460150Y-119253000D01*
X177673000Y-119253000D01*
X177673000Y-119233000D01*
X177927000Y-119233000D01*
X177927000Y-119253000D01*
X180213000Y-119253000D01*
X180213000Y-119233000D01*
X180467000Y-119233000D01*
X180467000Y-119253000D01*
X182753000Y-119253000D01*
X182753000Y-119233000D01*
X183007000Y-119233000D01*
X183007000Y-119253000D01*
X185293000Y-119253000D01*
X185293000Y-119233000D01*
X185547000Y-119233000D01*
X185547000Y-119253000D01*
X187833000Y-119253000D01*
X187833000Y-119233000D01*
X188087000Y-119233000D01*
X188087000Y-119253000D01*
X190373000Y-119253000D01*
X190373000Y-119233000D01*
X190627000Y-119233000D01*
X190627000Y-119253000D01*
X192913000Y-119253000D01*
X192913000Y-119233000D01*
X193167000Y-119233000D01*
X193167000Y-119253000D01*
X195453000Y-119253000D01*
X195453000Y-119233000D01*
X195707000Y-119233000D01*
X195707000Y-119253000D01*
X197993000Y-119253000D01*
X197993000Y-119233000D01*
X198247000Y-119233000D01*
X198247000Y-119253000D01*
X200533000Y-119253000D01*
X200533000Y-119233000D01*
X200787000Y-119233000D01*
X200787000Y-119253000D01*
X203073000Y-119253000D01*
X203073000Y-119233000D01*
X203327000Y-119233000D01*
X203327000Y-119253000D01*
X205613000Y-119253000D01*
X205613000Y-119233000D01*
X205867000Y-119233000D01*
X205867000Y-119253000D01*
X208153000Y-119253000D01*
X208153000Y-119233000D01*
X208407000Y-119233000D01*
X208407000Y-119253000D01*
X210693000Y-119253000D01*
X210693000Y-119233000D01*
X210947000Y-119233000D01*
X210947000Y-119253000D01*
X213233000Y-119253000D01*
X213233000Y-119233000D01*
X213487000Y-119233000D01*
X213487000Y-119253000D01*
X215773000Y-119253000D01*
X215773000Y-119233000D01*
X216027000Y-119233000D01*
X216027000Y-119253000D01*
X216047000Y-119253000D01*
X216047000Y-119507000D01*
X216027000Y-119507000D01*
X216027000Y-120714469D01*
X216259027Y-120834968D01*
X216788490Y-120586821D01*
X216802486Y-120571488D01*
X217378299Y-121147301D01*
X217624861Y-121312048D01*
X217915700Y-121369900D01*
X219001100Y-121369900D01*
X219291939Y-121312048D01*
X219538501Y-121147301D01*
X222781101Y-117904701D01*
X222945848Y-117658139D01*
X223003700Y-117367300D01*
X223003700Y-98605200D01*
X222945848Y-98314361D01*
X222781101Y-98067799D01*
X222004901Y-97291599D01*
X221758339Y-97126852D01*
X221467500Y-97069000D01*
X217131000Y-97069000D01*
X216840161Y-97126852D01*
X216593599Y-97291599D01*
X216258356Y-97626842D01*
X215929359Y-97561400D01*
X215870641Y-97561400D01*
X215297152Y-97675474D01*
X214810971Y-98000330D01*
X214630000Y-98271172D01*
X214449029Y-98000330D01*
X213962848Y-97675474D01*
X213389359Y-97561400D01*
X213330641Y-97561400D01*
X212757152Y-97675474D01*
X212270971Y-98000330D01*
X212090000Y-98271172D01*
X211909029Y-98000330D01*
X211422848Y-97675474D01*
X210849359Y-97561400D01*
X210790641Y-97561400D01*
X210217152Y-97675474D01*
X209730971Y-98000330D01*
X209550000Y-98271172D01*
X209369029Y-98000330D01*
X208882848Y-97675474D01*
X208309359Y-97561400D01*
X208250641Y-97561400D01*
X207677152Y-97675474D01*
X207190971Y-98000330D01*
X207010000Y-98271172D01*
X206829029Y-98000330D01*
X206342848Y-97675474D01*
X205769359Y-97561400D01*
X205710641Y-97561400D01*
X205137152Y-97675474D01*
X204650971Y-98000330D01*
X204470000Y-98271172D01*
X204289029Y-98000330D01*
X203802848Y-97675474D01*
X203229359Y-97561400D01*
X203170641Y-97561400D01*
X202597152Y-97675474D01*
X202110971Y-98000330D01*
X201930000Y-98271172D01*
X201749029Y-98000330D01*
X201262848Y-97675474D01*
X200689359Y-97561400D01*
X200630641Y-97561400D01*
X200057152Y-97675474D01*
X199570971Y-98000330D01*
X199390000Y-98271172D01*
X199209029Y-98000330D01*
X198722848Y-97675474D01*
X198149359Y-97561400D01*
X198090641Y-97561400D01*
X197517152Y-97675474D01*
X197030971Y-98000330D01*
X196850000Y-98271172D01*
X196669029Y-98000330D01*
X196182848Y-97675474D01*
X195609359Y-97561400D01*
X195550641Y-97561400D01*
X194977152Y-97675474D01*
X194490971Y-98000330D01*
X194310000Y-98271172D01*
X194129029Y-98000330D01*
X193642848Y-97675474D01*
X193069359Y-97561400D01*
X193010641Y-97561400D01*
X192437152Y-97675474D01*
X191950971Y-98000330D01*
X191770000Y-98271172D01*
X191589029Y-98000330D01*
X191102848Y-97675474D01*
X190529359Y-97561400D01*
X190470641Y-97561400D01*
X189897152Y-97675474D01*
X189410971Y-98000330D01*
X189230000Y-98271172D01*
X189049029Y-98000330D01*
X188562848Y-97675474D01*
X187989359Y-97561400D01*
X187930641Y-97561400D01*
X187357152Y-97675474D01*
X186870971Y-98000330D01*
X186690000Y-98271172D01*
X186509029Y-98000330D01*
X186022848Y-97675474D01*
X185449359Y-97561400D01*
X185390641Y-97561400D01*
X184817152Y-97675474D01*
X184330971Y-98000330D01*
X184150000Y-98271172D01*
X183969029Y-98000330D01*
X183482848Y-97675474D01*
X182909359Y-97561400D01*
X182850641Y-97561400D01*
X182277152Y-97675474D01*
X181790971Y-98000330D01*
X181610000Y-98271172D01*
X181429029Y-98000330D01*
X180942848Y-97675474D01*
X180369359Y-97561400D01*
X180310641Y-97561400D01*
X179737152Y-97675474D01*
X179250971Y-98000330D01*
X178926115Y-98486511D01*
X178812041Y-99060000D01*
X178926115Y-99633489D01*
X179250971Y-100119670D01*
X179272023Y-100133737D01*
X179116702Y-100198073D01*
X178938073Y-100376701D01*
X178841400Y-100610090D01*
X178841400Y-101314250D01*
X179000150Y-101473000D01*
X180213000Y-101473000D01*
X180213000Y-101453000D01*
X180467000Y-101453000D01*
X180467000Y-101473000D01*
X180487000Y-101473000D01*
X180487000Y-101727000D01*
X180467000Y-101727000D01*
X180467000Y-102939850D01*
X180625750Y-103098600D01*
X180768900Y-103098600D01*
X180768900Y-110736258D01*
X180614299Y-110672062D01*
X180242333Y-110671738D01*
X179898557Y-110813783D01*
X179635308Y-111076573D01*
X179492662Y-111420101D01*
X179492338Y-111792067D01*
X179634383Y-112135843D01*
X179667500Y-112169018D01*
X179667500Y-112708798D01*
X177262599Y-115113699D01*
X177097852Y-115360261D01*
X177060789Y-115546589D01*
X176710971Y-115780330D01*
X176386115Y-116266511D01*
X176272041Y-116840000D01*
X167211100Y-116840000D01*
X167211100Y-115677799D01*
X167640000Y-115763113D01*
X168189151Y-115653880D01*
X168654698Y-115342811D01*
X168965767Y-114877264D01*
X169075000Y-114328113D01*
X169075000Y-114271887D01*
X168965767Y-113722736D01*
X168654698Y-113257189D01*
X168189151Y-112946120D01*
X167640000Y-112836887D01*
X167211100Y-112922201D01*
X167211100Y-110883440D01*
X168503600Y-110883440D01*
X168738917Y-110839162D01*
X168955041Y-110700090D01*
X169100031Y-110487890D01*
X169151040Y-110236000D01*
X169151040Y-108204000D01*
X169106762Y-107968683D01*
X168967690Y-107752559D01*
X168755490Y-107607569D01*
X168503600Y-107556560D01*
X166776400Y-107556560D01*
X166541083Y-107600838D01*
X166324959Y-107739910D01*
X166179969Y-107952110D01*
X166160768Y-108046927D01*
X166002036Y-107869268D01*
X165474791Y-107615291D01*
X165459026Y-107612642D01*
X165227000Y-107733783D01*
X165227000Y-109093000D01*
X165247000Y-109093000D01*
X165247000Y-109347000D01*
X165227000Y-109347000D01*
X165227000Y-110706217D01*
X165459026Y-110827358D01*
X165474791Y-110824709D01*
X165691100Y-110720512D01*
X165691100Y-112974149D01*
X165649151Y-112946120D01*
X165100000Y-112836887D01*
X164550849Y-112946120D01*
X164085302Y-113257189D01*
X163830000Y-113639275D01*
X163574698Y-113257189D01*
X163109151Y-112946120D01*
X162560000Y-112836887D01*
X162010849Y-112946120D01*
X161545302Y-113257189D01*
X161344321Y-113557978D01*
X161248424Y-113577053D01*
X161034698Y-113257189D01*
X160569151Y-112946120D01*
X160020000Y-112836887D01*
X159470849Y-112946120D01*
X159005302Y-113257189D01*
X158791576Y-113577053D01*
X158695679Y-113557978D01*
X158494698Y-113257189D01*
X158029151Y-112946120D01*
X157895889Y-112919613D01*
X159930049Y-110885453D01*
X160020000Y-110903345D01*
X160593489Y-110789271D01*
X161079670Y-110464415D01*
X161286461Y-110154931D01*
X161657964Y-110570732D01*
X162185209Y-110824709D01*
X162200974Y-110827358D01*
X162433000Y-110706217D01*
X162433000Y-109347000D01*
X162687000Y-109347000D01*
X162687000Y-110706217D01*
X162919026Y-110827358D01*
X162934791Y-110824709D01*
X163462036Y-110570732D01*
X163830000Y-110158892D01*
X164197964Y-110570732D01*
X164725209Y-110824709D01*
X164740974Y-110827358D01*
X164973000Y-110706217D01*
X164973000Y-109347000D01*
X162687000Y-109347000D01*
X162433000Y-109347000D01*
X162413000Y-109347000D01*
X162413000Y-109093000D01*
X162433000Y-109093000D01*
X162433000Y-107733783D01*
X162687000Y-107733783D01*
X162687000Y-109093000D01*
X164973000Y-109093000D01*
X164973000Y-107733783D01*
X164740974Y-107612642D01*
X164725209Y-107615291D01*
X164197964Y-107869268D01*
X163830000Y-108281108D01*
X163462036Y-107869268D01*
X162934791Y-107615291D01*
X162919026Y-107612642D01*
X162687000Y-107733783D01*
X162433000Y-107733783D01*
X162200974Y-107612642D01*
X162185209Y-107615291D01*
X161657964Y-107869268D01*
X161286461Y-108285069D01*
X161079670Y-107975585D01*
X160593489Y-107650729D01*
X160020000Y-107536655D01*
X159446511Y-107650729D01*
X158960330Y-107975585D01*
X158635474Y-108461766D01*
X158521400Y-109035255D01*
X158521400Y-109404745D01*
X158635474Y-109978234D01*
X158656378Y-110009520D01*
X158165000Y-110500898D01*
X158165000Y-106963736D01*
X160303736Y-104825000D01*
X175260000Y-104825000D01*
X175522138Y-104772857D01*
X175744368Y-104624368D01*
X175892857Y-104402138D01*
X175945000Y-104140000D01*
X175945000Y-101885750D01*
X178841400Y-101885750D01*
X178841400Y-102589910D01*
X178938073Y-102823299D01*
X179116702Y-103001927D01*
X179350091Y-103098600D01*
X180054250Y-103098600D01*
X180213000Y-102939850D01*
X180213000Y-101727000D01*
X179000150Y-101727000D01*
X178841400Y-101885750D01*
X175945000Y-101885750D01*
X175945000Y-96803736D01*
X178083736Y-94665000D01*
X225375000Y-94665000D01*
X225375000Y-123775000D01*
X225375000Y-123775000D01*
G37*
X225375000Y-123775000D02*
X127685000Y-123775000D01*
X127685000Y-121056400D01*
X135496560Y-121056400D01*
X135496560Y-122783600D01*
X135540838Y-123018917D01*
X135679910Y-123235041D01*
X135892110Y-123380031D01*
X136144000Y-123431040D01*
X138176000Y-123431040D01*
X138411317Y-123386762D01*
X138627441Y-123247690D01*
X138772431Y-123035490D01*
X138823440Y-122783600D01*
X138823440Y-121056400D01*
X138779162Y-120821083D01*
X138640090Y-120604959D01*
X138427890Y-120459969D01*
X138333073Y-120440768D01*
X138510732Y-120282036D01*
X138764709Y-119754791D01*
X138767358Y-119739026D01*
X138646217Y-119507000D01*
X137287000Y-119507000D01*
X137287000Y-119527000D01*
X137033000Y-119527000D01*
X137033000Y-119507000D01*
X135673783Y-119507000D01*
X135552642Y-119739026D01*
X135555291Y-119754791D01*
X135809268Y-120282036D01*
X135984845Y-120438907D01*
X135908683Y-120453238D01*
X135692559Y-120592310D01*
X135547569Y-120804510D01*
X135496560Y-121056400D01*
X127685000Y-121056400D01*
X127685000Y-117199026D01*
X135552642Y-117199026D01*
X135555291Y-117214791D01*
X135809268Y-117742036D01*
X136221108Y-118110000D01*
X135809268Y-118477964D01*
X135555291Y-119005209D01*
X135552642Y-119020974D01*
X135673783Y-119253000D01*
X137033000Y-119253000D01*
X137033000Y-116967000D01*
X137287000Y-116967000D01*
X137287000Y-119253000D01*
X138646217Y-119253000D01*
X138767358Y-119020974D01*
X138764709Y-119005209D01*
X138510732Y-118477964D01*
X138098892Y-118110000D01*
X138510732Y-117742036D01*
X138764709Y-117214791D01*
X138767358Y-117199026D01*
X138646217Y-116967000D01*
X137287000Y-116967000D01*
X137033000Y-116967000D01*
X135673783Y-116967000D01*
X135552642Y-117199026D01*
X127685000Y-117199026D01*
X127685000Y-112445000D01*
X136751298Y-112445000D01*
X136622599Y-112573699D01*
X136457852Y-112820261D01*
X136440443Y-112907781D01*
X136401766Y-112915474D01*
X135915585Y-113240330D01*
X135590729Y-113726511D01*
X135476655Y-114300000D01*
X135590729Y-114873489D01*
X135915585Y-115359670D01*
X136225069Y-115566461D01*
X135809268Y-115937964D01*
X135555291Y-116465209D01*
X135552642Y-116480974D01*
X135673783Y-116713000D01*
X137033000Y-116713000D01*
X137033000Y-116693000D01*
X137287000Y-116693000D01*
X137287000Y-116713000D01*
X138646217Y-116713000D01*
X138767358Y-116480974D01*
X138764709Y-116465209D01*
X138510732Y-115937964D01*
X138094931Y-115566461D01*
X138404415Y-115359670D01*
X138729271Y-114873489D01*
X138773916Y-114649041D01*
X151008086Y-114649041D01*
X151247611Y-115155134D01*
X151662577Y-115531041D01*
X152050961Y-115691904D01*
X152273000Y-115569915D01*
X152273000Y-114427000D01*
X151129371Y-114427000D01*
X151008086Y-114649041D01*
X138773916Y-114649041D01*
X138843345Y-114300000D01*
X138729271Y-113726511D01*
X138427313Y-113274600D01*
X151435569Y-113274600D01*
X151247611Y-113444866D01*
X151008086Y-113950959D01*
X151129371Y-114173000D01*
X152273000Y-114173000D01*
X152273000Y-114153000D01*
X152527000Y-114153000D01*
X152527000Y-114173000D01*
X152547000Y-114173000D01*
X152547000Y-114427000D01*
X152527000Y-114427000D01*
X152527000Y-115569915D01*
X152749039Y-115691904D01*
X153137423Y-115531041D01*
X153552389Y-115155134D01*
X153655014Y-114938297D01*
X153925302Y-115342811D01*
X154390849Y-115653880D01*
X154940000Y-115763113D01*
X155489151Y-115653880D01*
X155954698Y-115342811D01*
X156210000Y-114960725D01*
X156465302Y-115342811D01*
X156930849Y-115653880D01*
X157480000Y-115763113D01*
X158029151Y-115653880D01*
X158435838Y-115382140D01*
X159016399Y-115962701D01*
X159262961Y-116127448D01*
X159553800Y-116185300D01*
X160486200Y-116185300D01*
X160777039Y-116127448D01*
X161023601Y-115962701D01*
X161604162Y-115382140D01*
X162010849Y-115653880D01*
X162560000Y-115763113D01*
X163109151Y-115653880D01*
X163574698Y-115342811D01*
X163830000Y-114960725D01*
X164085302Y-115342811D01*
X164550849Y-115653880D01*
X165100000Y-115763113D01*
X165649151Y-115653880D01*
X165691100Y-115625851D01*
X165691100Y-119605800D01*
X165748952Y-119896639D01*
X165913699Y-120143201D01*
X166638720Y-120868223D01*
X166625302Y-120877189D01*
X166370000Y-121259275D01*
X166114698Y-120877189D01*
X165649151Y-120566120D01*
X165100000Y-120456887D01*
X164550849Y-120566120D01*
X164085302Y-120877189D01*
X163830000Y-121259275D01*
X163574698Y-120877189D01*
X163109151Y-120566120D01*
X162560000Y-120456887D01*
X162010849Y-120566120D01*
X161545302Y-120877189D01*
X161290000Y-121259275D01*
X161034698Y-120877189D01*
X160569151Y-120566120D01*
X160020000Y-120456887D01*
X159470849Y-120566120D01*
X159005302Y-120877189D01*
X158750000Y-121259275D01*
X158494698Y-120877189D01*
X158029151Y-120566120D01*
X157480000Y-120456887D01*
X156930849Y-120566120D01*
X156465302Y-120877189D01*
X156210000Y-121259275D01*
X155954698Y-120877189D01*
X155489151Y-120566120D01*
X154940000Y-120456887D01*
X154390849Y-120566120D01*
X153925302Y-120877189D01*
X153670000Y-121259275D01*
X153414698Y-120877189D01*
X152949151Y-120566120D01*
X152400000Y-120456887D01*
X151850849Y-120566120D01*
X151385302Y-120877189D01*
X151074233Y-121342736D01*
X150965000Y-121891887D01*
X150965000Y-121948113D01*
X151074233Y-122497264D01*
X151385302Y-122962811D01*
X151850849Y-123273880D01*
X152400000Y-123383113D01*
X152949151Y-123273880D01*
X153414698Y-122962811D01*
X153670000Y-122580725D01*
X153925302Y-122962811D01*
X154390849Y-123273880D01*
X154940000Y-123383113D01*
X155489151Y-123273880D01*
X155954698Y-122962811D01*
X156210000Y-122580725D01*
X156465302Y-122962811D01*
X156930849Y-123273880D01*
X157480000Y-123383113D01*
X158029151Y-123273880D01*
X158494698Y-122962811D01*
X158750000Y-122580725D01*
X159005302Y-122962811D01*
X159470849Y-123273880D01*
X160020000Y-123383113D01*
X160569151Y-123273880D01*
X161034698Y-122962811D01*
X161290000Y-122580725D01*
X161545302Y-122962811D01*
X162010849Y-123273880D01*
X162560000Y-123383113D01*
X163109151Y-123273880D01*
X163574698Y-122962811D01*
X163830000Y-122580725D01*
X164085302Y-122962811D01*
X164550849Y-123273880D01*
X165100000Y-123383113D01*
X165649151Y-123273880D01*
X166114698Y-122962811D01*
X166370000Y-122580725D01*
X166625302Y-122962811D01*
X167090849Y-123273880D01*
X167640000Y-123383113D01*
X168189151Y-123273880D01*
X168654698Y-122962811D01*
X168965767Y-122497264D01*
X169075000Y-121948113D01*
X169075000Y-121891887D01*
X168965767Y-121342736D01*
X168654698Y-120877189D01*
X168379882Y-120693563D01*
X168342148Y-120503861D01*
X168177402Y-120257299D01*
X167585853Y-119665750D01*
X176301400Y-119665750D01*
X176301400Y-120369910D01*
X176398073Y-120603299D01*
X176576702Y-120781927D01*
X176810091Y-120878600D01*
X177514250Y-120878600D01*
X177673000Y-120719850D01*
X177673000Y-119507000D01*
X177927000Y-119507000D01*
X177927000Y-120719850D01*
X178085750Y-120878600D01*
X178789909Y-120878600D01*
X179023298Y-120781927D01*
X179201927Y-120603299D01*
X179284529Y-120403881D01*
X179451510Y-120586821D01*
X179980973Y-120834968D01*
X180213000Y-120714469D01*
X180213000Y-119507000D01*
X180467000Y-119507000D01*
X180467000Y-120714469D01*
X180699027Y-120834968D01*
X181228490Y-120586821D01*
X181610000Y-120168848D01*
X181991510Y-120586821D01*
X182520973Y-120834968D01*
X182753000Y-120714469D01*
X182753000Y-119507000D01*
X183007000Y-119507000D01*
X183007000Y-120714469D01*
X183239027Y-120834968D01*
X183768490Y-120586821D01*
X184150000Y-120168848D01*
X184531510Y-120586821D01*
X185060973Y-120834968D01*
X185293000Y-120714469D01*
X185293000Y-119507000D01*
X185547000Y-119507000D01*
X185547000Y-120714469D01*
X185779027Y-120834968D01*
X186308490Y-120586821D01*
X186690000Y-120168848D01*
X187071510Y-120586821D01*
X187600973Y-120834968D01*
X187833000Y-120714469D01*
X187833000Y-119507000D01*
X188087000Y-119507000D01*
X188087000Y-120714469D01*
X188319027Y-120834968D01*
X188848490Y-120586821D01*
X189230000Y-120168848D01*
X189611510Y-120586821D01*
X190140973Y-120834968D01*
X190373000Y-120714469D01*
X190373000Y-119507000D01*
X190627000Y-119507000D01*
X190627000Y-120714469D01*
X190859027Y-120834968D01*
X191388490Y-120586821D01*
X191770000Y-120168848D01*
X192151510Y-120586821D01*
X192680973Y-120834968D01*
X192913000Y-120714469D01*
X192913000Y-119507000D01*
X193167000Y-119507000D01*
X193167000Y-120714469D01*
X193399027Y-120834968D01*
X193928490Y-120586821D01*
X194310000Y-120168848D01*
X194691510Y-120586821D01*
X195220973Y-120834968D01*
X195453000Y-120714469D01*
X195453000Y-119507000D01*
X195707000Y-119507000D01*
X195707000Y-120714469D01*
X195939027Y-120834968D01*
X196468490Y-120586821D01*
X196850000Y-120168848D01*
X197231510Y-120586821D01*
X197760973Y-120834968D01*
X197993000Y-120714469D01*
X197993000Y-119507000D01*
X198247000Y-119507000D01*
X198247000Y-120714469D01*
X198479027Y-120834968D01*
X199008490Y-120586821D01*
X199390000Y-120168848D01*
X199771510Y-120586821D01*
X200300973Y-120834968D01*
X200533000Y-120714469D01*
X200533000Y-119507000D01*
X200787000Y-119507000D01*
X200787000Y-120714469D01*
X201019027Y-120834968D01*
X201548490Y-120586821D01*
X201930000Y-120168848D01*
X202311510Y-120586821D01*
X202840973Y-120834968D01*
X203073000Y-120714469D01*
X203073000Y-119507000D01*
X203327000Y-119507000D01*
X203327000Y-120714469D01*
X203559027Y-120834968D01*
X204088490Y-120586821D01*
X204470000Y-120168848D01*
X204851510Y-120586821D01*
X205380973Y-120834968D01*
X205613000Y-120714469D01*
X205613000Y-119507000D01*
X205867000Y-119507000D01*
X205867000Y-120714469D01*
X206099027Y-120834968D01*
X206628490Y-120586821D01*
X207010000Y-120168848D01*
X207391510Y-120586821D01*
X207920973Y-120834968D01*
X208153000Y-120714469D01*
X208153000Y-119507000D01*
X208407000Y-119507000D01*
X208407000Y-120714469D01*
X208639027Y-120834968D01*
X209168490Y-120586821D01*
X209550000Y-120168848D01*
X209931510Y-120586821D01*
X210460973Y-120834968D01*
X210693000Y-120714469D01*
X210693000Y-119507000D01*
X210947000Y-119507000D01*
X210947000Y-120714469D01*
X211179027Y-120834968D01*
X211708490Y-120586821D01*
X212090000Y-120168848D01*
X212471510Y-120586821D01*
X213000973Y-120834968D01*
X213233000Y-120714469D01*
X213233000Y-119507000D01*
X213487000Y-119507000D01*
X213487000Y-120714469D01*
X213719027Y-120834968D01*
X214248490Y-120586821D01*
X214630000Y-120168848D01*
X215011510Y-120586821D01*
X215540973Y-120834968D01*
X215773000Y-120714469D01*
X215773000Y-119507000D01*
X213487000Y-119507000D01*
X213233000Y-119507000D01*
X210947000Y-119507000D01*
X210693000Y-119507000D01*
X208407000Y-119507000D01*
X208153000Y-119507000D01*
X205867000Y-119507000D01*
X205613000Y-119507000D01*
X203327000Y-119507000D01*
X203073000Y-119507000D01*
X200787000Y-119507000D01*
X200533000Y-119507000D01*
X198247000Y-119507000D01*
X197993000Y-119507000D01*
X195707000Y-119507000D01*
X195453000Y-119507000D01*
X193167000Y-119507000D01*
X192913000Y-119507000D01*
X190627000Y-119507000D01*
X190373000Y-119507000D01*
X188087000Y-119507000D01*
X187833000Y-119507000D01*
X185547000Y-119507000D01*
X185293000Y-119507000D01*
X183007000Y-119507000D01*
X182753000Y-119507000D01*
X180467000Y-119507000D01*
X180213000Y-119507000D01*
X177927000Y-119507000D01*
X177673000Y-119507000D01*
X176460150Y-119507000D01*
X176301400Y-119665750D01*
X167585853Y-119665750D01*
X167211100Y-119290998D01*
X167211100Y-116840000D01*
X176272041Y-116840000D01*
X176386115Y-117413489D01*
X176710971Y-117899670D01*
X176732023Y-117913737D01*
X176576702Y-117978073D01*
X176398073Y-118156701D01*
X176301400Y-118390090D01*
X176301400Y-119094250D01*
X176460150Y-119253000D01*
X177673000Y-119253000D01*
X177673000Y-119233000D01*
X177927000Y-119233000D01*
X177927000Y-119253000D01*
X180213000Y-119253000D01*
X180213000Y-119233000D01*
X180467000Y-119233000D01*
X180467000Y-119253000D01*
X182753000Y-119253000D01*
X182753000Y-119233000D01*
X183007000Y-119233000D01*
X183007000Y-119253000D01*
X185293000Y-119253000D01*
X185293000Y-119233000D01*
X185547000Y-119233000D01*
X185547000Y-119253000D01*
X187833000Y-119253000D01*
X187833000Y-119233000D01*
X188087000Y-119233000D01*
X188087000Y-119253000D01*
X190373000Y-119253000D01*
X190373000Y-119233000D01*
X190627000Y-119233000D01*
X190627000Y-119253000D01*
X192913000Y-119253000D01*
X192913000Y-119233000D01*
X193167000Y-119233000D01*
X193167000Y-119253000D01*
X195453000Y-119253000D01*
X195453000Y-119233000D01*
X195707000Y-119233000D01*
X195707000Y-119253000D01*
X197993000Y-119253000D01*
X197993000Y-119233000D01*
X198247000Y-119233000D01*
X198247000Y-119253000D01*
X200533000Y-119253000D01*
X200533000Y-119233000D01*
X200787000Y-119233000D01*
X200787000Y-119253000D01*
X203073000Y-119253000D01*
X203073000Y-119233000D01*
X203327000Y-119233000D01*
X203327000Y-119253000D01*
X205613000Y-119253000D01*
X205613000Y-119233000D01*
X205867000Y-119233000D01*
X205867000Y-119253000D01*
X208153000Y-119253000D01*
X208153000Y-119233000D01*
X208407000Y-119233000D01*
X208407000Y-119253000D01*
X210693000Y-119253000D01*
X210693000Y-119233000D01*
X210947000Y-119233000D01*
X210947000Y-119253000D01*
X213233000Y-119253000D01*
X213233000Y-119233000D01*
X213487000Y-119233000D01*
X213487000Y-119253000D01*
X215773000Y-119253000D01*
X215773000Y-119233000D01*
X216027000Y-119233000D01*
X216027000Y-119253000D01*
X216047000Y-119253000D01*
X216047000Y-119507000D01*
X216027000Y-119507000D01*
X216027000Y-120714469D01*
X216259027Y-120834968D01*
X216788490Y-120586821D01*
X216802486Y-120571488D01*
X217378299Y-121147301D01*
X217624861Y-121312048D01*
X217915700Y-121369900D01*
X219001100Y-121369900D01*
X219291939Y-121312048D01*
X219538501Y-121147301D01*
X222781101Y-117904701D01*
X222945848Y-117658139D01*
X223003700Y-117367300D01*
X223003700Y-98605200D01*
X222945848Y-98314361D01*
X222781101Y-98067799D01*
X222004901Y-97291599D01*
X221758339Y-97126852D01*
X221467500Y-97069000D01*
X217131000Y-97069000D01*
X216840161Y-97126852D01*
X216593599Y-97291599D01*
X216258356Y-97626842D01*
X215929359Y-97561400D01*
X215870641Y-97561400D01*
X215297152Y-97675474D01*
X214810971Y-98000330D01*
X214630000Y-98271172D01*
X214449029Y-98000330D01*
X213962848Y-97675474D01*
X213389359Y-97561400D01*
X213330641Y-97561400D01*
X212757152Y-97675474D01*
X212270971Y-98000330D01*
X212090000Y-98271172D01*
X211909029Y-98000330D01*
X211422848Y-97675474D01*
X210849359Y-97561400D01*
X210790641Y-97561400D01*
X210217152Y-97675474D01*
X209730971Y-98000330D01*
X209550000Y-98271172D01*
X209369029Y-98000330D01*
X208882848Y-97675474D01*
X208309359Y-97561400D01*
X208250641Y-97561400D01*
X207677152Y-97675474D01*
X207190971Y-98000330D01*
X207010000Y-98271172D01*
X206829029Y-98000330D01*
X206342848Y-97675474D01*
X205769359Y-97561400D01*
X205710641Y-97561400D01*
X205137152Y-97675474D01*
X204650971Y-98000330D01*
X204470000Y-98271172D01*
X204289029Y-98000330D01*
X203802848Y-97675474D01*
X203229359Y-97561400D01*
X203170641Y-97561400D01*
X202597152Y-97675474D01*
X202110971Y-98000330D01*
X201930000Y-98271172D01*
X201749029Y-98000330D01*
X201262848Y-97675474D01*
X200689359Y-97561400D01*
X200630641Y-97561400D01*
X200057152Y-97675474D01*
X199570971Y-98000330D01*
X199390000Y-98271172D01*
X199209029Y-98000330D01*
X198722848Y-97675474D01*
X198149359Y-97561400D01*
X198090641Y-97561400D01*
X197517152Y-97675474D01*
X197030971Y-98000330D01*
X196850000Y-98271172D01*
X196669029Y-98000330D01*
X196182848Y-97675474D01*
X195609359Y-97561400D01*
X195550641Y-97561400D01*
X194977152Y-97675474D01*
X194490971Y-98000330D01*
X194310000Y-98271172D01*
X194129029Y-98000330D01*
X193642848Y-97675474D01*
X193069359Y-97561400D01*
X193010641Y-97561400D01*
X192437152Y-97675474D01*
X191950971Y-98000330D01*
X191770000Y-98271172D01*
X191589029Y-98000330D01*
X191102848Y-97675474D01*
X190529359Y-97561400D01*
X190470641Y-97561400D01*
X189897152Y-97675474D01*
X189410971Y-98000330D01*
X189230000Y-98271172D01*
X189049029Y-98000330D01*
X188562848Y-97675474D01*
X187989359Y-97561400D01*
X187930641Y-97561400D01*
X187357152Y-97675474D01*
X186870971Y-98000330D01*
X186690000Y-98271172D01*
X186509029Y-98000330D01*
X186022848Y-97675474D01*
X185449359Y-97561400D01*
X185390641Y-97561400D01*
X184817152Y-97675474D01*
X184330971Y-98000330D01*
X184150000Y-98271172D01*
X183969029Y-98000330D01*
X183482848Y-97675474D01*
X182909359Y-97561400D01*
X182850641Y-97561400D01*
X182277152Y-97675474D01*
X181790971Y-98000330D01*
X181610000Y-98271172D01*
X181429029Y-98000330D01*
X180942848Y-97675474D01*
X180369359Y-97561400D01*
X180310641Y-97561400D01*
X179737152Y-97675474D01*
X179250971Y-98000330D01*
X178926115Y-98486511D01*
X178812041Y-99060000D01*
X178926115Y-99633489D01*
X179250971Y-100119670D01*
X179272023Y-100133737D01*
X179116702Y-100198073D01*
X178938073Y-100376701D01*
X178841400Y-100610090D01*
X178841400Y-101314250D01*
X179000150Y-101473000D01*
X180213000Y-101473000D01*
X180213000Y-101453000D01*
X180467000Y-101453000D01*
X180467000Y-101473000D01*
X180487000Y-101473000D01*
X180487000Y-101727000D01*
X180467000Y-101727000D01*
X180467000Y-102939850D01*
X180625750Y-103098600D01*
X180768900Y-103098600D01*
X180768900Y-110736258D01*
X180614299Y-110672062D01*
X180242333Y-110671738D01*
X179898557Y-110813783D01*
X179635308Y-111076573D01*
X179492662Y-111420101D01*
X179492338Y-111792067D01*
X179634383Y-112135843D01*
X179667500Y-112169018D01*
X179667500Y-112708798D01*
X177262599Y-115113699D01*
X177097852Y-115360261D01*
X177060789Y-115546589D01*
X176710971Y-115780330D01*
X176386115Y-116266511D01*
X176272041Y-116840000D01*
X167211100Y-116840000D01*
X167211100Y-115677799D01*
X167640000Y-115763113D01*
X168189151Y-115653880D01*
X168654698Y-115342811D01*
X168965767Y-114877264D01*
X169075000Y-114328113D01*
X169075000Y-114271887D01*
X168965767Y-113722736D01*
X168654698Y-113257189D01*
X168189151Y-112946120D01*
X167640000Y-112836887D01*
X167211100Y-112922201D01*
X167211100Y-110883440D01*
X168503600Y-110883440D01*
X168738917Y-110839162D01*
X168955041Y-110700090D01*
X169100031Y-110487890D01*
X169151040Y-110236000D01*
X169151040Y-108204000D01*
X169106762Y-107968683D01*
X168967690Y-107752559D01*
X168755490Y-107607569D01*
X168503600Y-107556560D01*
X166776400Y-107556560D01*
X166541083Y-107600838D01*
X166324959Y-107739910D01*
X166179969Y-107952110D01*
X166160768Y-108046927D01*
X166002036Y-107869268D01*
X165474791Y-107615291D01*
X165459026Y-107612642D01*
X165227000Y-107733783D01*
X165227000Y-109093000D01*
X165247000Y-109093000D01*
X165247000Y-109347000D01*
X165227000Y-109347000D01*
X165227000Y-110706217D01*
X165459026Y-110827358D01*
X165474791Y-110824709D01*
X165691100Y-110720512D01*
X165691100Y-112974149D01*
X165649151Y-112946120D01*
X165100000Y-112836887D01*
X164550849Y-112946120D01*
X164085302Y-113257189D01*
X163830000Y-113639275D01*
X163574698Y-113257189D01*
X163109151Y-112946120D01*
X162560000Y-112836887D01*
X162010849Y-112946120D01*
X161545302Y-113257189D01*
X161344321Y-113557978D01*
X161248424Y-113577053D01*
X161034698Y-113257189D01*
X160569151Y-112946120D01*
X160020000Y-112836887D01*
X159470849Y-112946120D01*
X159005302Y-113257189D01*
X158791576Y-113577053D01*
X158695679Y-113557978D01*
X158494698Y-113257189D01*
X158029151Y-112946120D01*
X157895889Y-112919613D01*
X159930049Y-110885453D01*
X160020000Y-110903345D01*
X160593489Y-110789271D01*
X161079670Y-110464415D01*
X161286461Y-110154931D01*
X161657964Y-110570732D01*
X162185209Y-110824709D01*
X162200974Y-110827358D01*
X162433000Y-110706217D01*
X162433000Y-109347000D01*
X162687000Y-109347000D01*
X162687000Y-110706217D01*
X162919026Y-110827358D01*
X162934791Y-110824709D01*
X163462036Y-110570732D01*
X163830000Y-110158892D01*
X164197964Y-110570732D01*
X164725209Y-110824709D01*
X164740974Y-110827358D01*
X164973000Y-110706217D01*
X164973000Y-109347000D01*
X162687000Y-109347000D01*
X162433000Y-109347000D01*
X162413000Y-109347000D01*
X162413000Y-109093000D01*
X162433000Y-109093000D01*
X162433000Y-107733783D01*
X162687000Y-107733783D01*
X162687000Y-109093000D01*
X164973000Y-109093000D01*
X164973000Y-107733783D01*
X164740974Y-107612642D01*
X164725209Y-107615291D01*
X164197964Y-107869268D01*
X163830000Y-108281108D01*
X163462036Y-107869268D01*
X162934791Y-107615291D01*
X162919026Y-107612642D01*
X162687000Y-107733783D01*
X162433000Y-107733783D01*
X162200974Y-107612642D01*
X162185209Y-107615291D01*
X161657964Y-107869268D01*
X161286461Y-108285069D01*
X161079670Y-107975585D01*
X160593489Y-107650729D01*
X160020000Y-107536655D01*
X159446511Y-107650729D01*
X158960330Y-107975585D01*
X158635474Y-108461766D01*
X158521400Y-109035255D01*
X158521400Y-109404745D01*
X158635474Y-109978234D01*
X158656378Y-110009520D01*
X158165000Y-110500898D01*
X158165000Y-106963736D01*
X160303736Y-104825000D01*
X175260000Y-104825000D01*
X175522138Y-104772857D01*
X175744368Y-104624368D01*
X175892857Y-104402138D01*
X175945000Y-104140000D01*
X175945000Y-101885750D01*
X178841400Y-101885750D01*
X178841400Y-102589910D01*
X178938073Y-102823299D01*
X179116702Y-103001927D01*
X179350091Y-103098600D01*
X180054250Y-103098600D01*
X180213000Y-102939850D01*
X180213000Y-101727000D01*
X179000150Y-101727000D01*
X178841400Y-101885750D01*
X175945000Y-101885750D01*
X175945000Y-96803736D01*
X178083736Y-94665000D01*
X225375000Y-94665000D01*
X225375000Y-123775000D01*
G36*
X218567000Y-119253000D02*
X218587000Y-119253000D01*
X218587000Y-119507000D01*
X218567000Y-119507000D01*
X218567000Y-119527000D01*
X218313000Y-119527000D01*
X218313000Y-119507000D01*
X218293000Y-119507000D01*
X218293000Y-119253000D01*
X218313000Y-119253000D01*
X218313000Y-119233000D01*
X218567000Y-119233000D01*
X218567000Y-119253000D01*
X218567000Y-119253000D01*
G37*
X218567000Y-119253000D02*
X218587000Y-119253000D01*
X218587000Y-119507000D01*
X218567000Y-119507000D01*
X218567000Y-119527000D01*
X218313000Y-119527000D01*
X218313000Y-119507000D01*
X218293000Y-119507000D01*
X218293000Y-119253000D01*
X218313000Y-119253000D01*
X218313000Y-119233000D01*
X218567000Y-119233000D01*
X218567000Y-119253000D01*
G36*
X218567000Y-101473000D02*
X220853000Y-101473000D01*
X220853000Y-101453000D01*
X221107000Y-101453000D01*
X221107000Y-101473000D01*
X221127000Y-101473000D01*
X221127000Y-101727000D01*
X221107000Y-101727000D01*
X221107000Y-102934469D01*
X221339027Y-103054968D01*
X221483700Y-102987163D01*
X221483700Y-117052498D01*
X219783741Y-118752457D01*
X219722688Y-118605053D01*
X219328490Y-118173179D01*
X219205772Y-118115664D01*
X219529029Y-117899670D01*
X219853885Y-117413489D01*
X219967959Y-116840000D01*
X219853885Y-116266511D01*
X219529029Y-115780330D01*
X219042848Y-115455474D01*
X218469359Y-115341400D01*
X218410641Y-115341400D01*
X217837152Y-115455474D01*
X217350971Y-115780330D01*
X217170000Y-116051172D01*
X216989029Y-115780330D01*
X216660000Y-115560480D01*
X216660000Y-114131400D01*
X216648334Y-114072752D01*
X216602148Y-113840560D01*
X216437401Y-113593999D01*
X213718700Y-110875298D01*
X213718700Y-106995301D01*
X213788667Y-106995362D01*
X214132443Y-106853317D01*
X214395692Y-106590527D01*
X214538338Y-106246999D01*
X214538379Y-106200123D01*
X217707401Y-103031101D01*
X217784345Y-102915945D01*
X218080973Y-103054968D01*
X218313000Y-102934469D01*
X218313000Y-101727000D01*
X218567000Y-101727000D01*
X218567000Y-102934469D01*
X218799027Y-103054968D01*
X219328490Y-102806821D01*
X219710000Y-102388848D01*
X220091510Y-102806821D01*
X220620973Y-103054968D01*
X220853000Y-102934469D01*
X220853000Y-101727000D01*
X218567000Y-101727000D01*
X218313000Y-101727000D01*
X218293000Y-101727000D01*
X218293000Y-101473000D01*
X218313000Y-101473000D01*
X218313000Y-101453000D01*
X218567000Y-101453000D01*
X218567000Y-101473000D01*
X218567000Y-101473000D01*
G37*
X218567000Y-101473000D02*
X220853000Y-101473000D01*
X220853000Y-101453000D01*
X221107000Y-101453000D01*
X221107000Y-101473000D01*
X221127000Y-101473000D01*
X221127000Y-101727000D01*
X221107000Y-101727000D01*
X221107000Y-102934469D01*
X221339027Y-103054968D01*
X221483700Y-102987163D01*
X221483700Y-117052498D01*
X219783741Y-118752457D01*
X219722688Y-118605053D01*
X219328490Y-118173179D01*
X219205772Y-118115664D01*
X219529029Y-117899670D01*
X219853885Y-117413489D01*
X219967959Y-116840000D01*
X219853885Y-116266511D01*
X219529029Y-115780330D01*
X219042848Y-115455474D01*
X218469359Y-115341400D01*
X218410641Y-115341400D01*
X217837152Y-115455474D01*
X217350971Y-115780330D01*
X217170000Y-116051172D01*
X216989029Y-115780330D01*
X216660000Y-115560480D01*
X216660000Y-114131400D01*
X216648334Y-114072752D01*
X216602148Y-113840560D01*
X216437401Y-113593999D01*
X213718700Y-110875298D01*
X213718700Y-106995301D01*
X213788667Y-106995362D01*
X214132443Y-106853317D01*
X214395692Y-106590527D01*
X214538338Y-106246999D01*
X214538379Y-106200123D01*
X217707401Y-103031101D01*
X217784345Y-102915945D01*
X218080973Y-103054968D01*
X218313000Y-102934469D01*
X218313000Y-101727000D01*
X218567000Y-101727000D01*
X218567000Y-102934469D01*
X218799027Y-103054968D01*
X219328490Y-102806821D01*
X219710000Y-102388848D01*
X220091510Y-102806821D01*
X220620973Y-103054968D01*
X220853000Y-102934469D01*
X220853000Y-101727000D01*
X218567000Y-101727000D01*
X218313000Y-101727000D01*
X218293000Y-101727000D01*
X218293000Y-101473000D01*
X218313000Y-101473000D01*
X218313000Y-101453000D01*
X218567000Y-101453000D01*
X218567000Y-101473000D01*
G36*
X195707000Y-101473000D02*
X195727000Y-101473000D01*
X195727000Y-101727000D01*
X195707000Y-101727000D01*
X195707000Y-102934469D01*
X195939027Y-103054968D01*
X196008900Y-103022220D01*
X196008900Y-114147397D01*
X195042599Y-115113699D01*
X194877852Y-115360261D01*
X194840789Y-115546589D01*
X194490971Y-115780330D01*
X194310000Y-116051172D01*
X194129029Y-115780330D01*
X194043033Y-115722869D01*
X194766302Y-114999601D01*
X194931048Y-114753039D01*
X194988900Y-114462200D01*
X194988900Y-102946201D01*
X195220973Y-103054968D01*
X195453000Y-102934469D01*
X195453000Y-101727000D01*
X195433000Y-101727000D01*
X195433000Y-101473000D01*
X195453000Y-101473000D01*
X195453000Y-101453000D01*
X195707000Y-101453000D01*
X195707000Y-101473000D01*
X195707000Y-101473000D01*
G37*
X195707000Y-101473000D02*
X195727000Y-101473000D01*
X195727000Y-101727000D01*
X195707000Y-101727000D01*
X195707000Y-102934469D01*
X195939027Y-103054968D01*
X196008900Y-103022220D01*
X196008900Y-114147397D01*
X195042599Y-115113699D01*
X194877852Y-115360261D01*
X194840789Y-115546589D01*
X194490971Y-115780330D01*
X194310000Y-116051172D01*
X194129029Y-115780330D01*
X194043033Y-115722869D01*
X194766302Y-114999601D01*
X194931048Y-114753039D01*
X194988900Y-114462200D01*
X194988900Y-102946201D01*
X195220973Y-103054968D01*
X195453000Y-102934469D01*
X195453000Y-101727000D01*
X195433000Y-101727000D01*
X195433000Y-101473000D01*
X195453000Y-101473000D01*
X195453000Y-101453000D01*
X195707000Y-101453000D01*
X195707000Y-101473000D01*
G36*
X183007000Y-101473000D02*
X183027000Y-101473000D01*
X183027000Y-101727000D01*
X183007000Y-101727000D01*
X183007000Y-102934469D01*
X183239027Y-103054968D01*
X183308900Y-103022220D01*
X183308900Y-114147397D01*
X182342599Y-115113699D01*
X182177852Y-115360261D01*
X182140789Y-115546589D01*
X181790971Y-115780330D01*
X181610000Y-116051172D01*
X181429029Y-115780330D01*
X181343033Y-115722869D01*
X182066302Y-114999601D01*
X182231048Y-114753039D01*
X182288900Y-114462200D01*
X182288900Y-102946201D01*
X182520973Y-103054968D01*
X182753000Y-102934469D01*
X182753000Y-101727000D01*
X182733000Y-101727000D01*
X182733000Y-101473000D01*
X182753000Y-101473000D01*
X182753000Y-101453000D01*
X183007000Y-101453000D01*
X183007000Y-101473000D01*
X183007000Y-101473000D01*
G37*
X183007000Y-101473000D02*
X183027000Y-101473000D01*
X183027000Y-101727000D01*
X183007000Y-101727000D01*
X183007000Y-102934469D01*
X183239027Y-103054968D01*
X183308900Y-103022220D01*
X183308900Y-114147397D01*
X182342599Y-115113699D01*
X182177852Y-115360261D01*
X182140789Y-115546589D01*
X181790971Y-115780330D01*
X181610000Y-116051172D01*
X181429029Y-115780330D01*
X181343033Y-115722869D01*
X182066302Y-114999601D01*
X182231048Y-114753039D01*
X182288900Y-114462200D01*
X182288900Y-102946201D01*
X182520973Y-103054968D01*
X182753000Y-102934469D01*
X182753000Y-101727000D01*
X182733000Y-101727000D01*
X182733000Y-101473000D01*
X182753000Y-101473000D01*
X182753000Y-101453000D01*
X183007000Y-101453000D01*
X183007000Y-101473000D01*
G36*
X208407000Y-101473000D02*
X208427000Y-101473000D01*
X208427000Y-101727000D01*
X208407000Y-101727000D01*
X208407000Y-102934469D01*
X208639027Y-103054968D01*
X208868100Y-102947607D01*
X208868100Y-108657437D01*
X208835908Y-108689573D01*
X208693262Y-109033101D01*
X208692938Y-109405067D01*
X208834983Y-109748843D01*
X208868100Y-109782018D01*
X208868100Y-113988198D01*
X207742599Y-115113699D01*
X207577852Y-115360261D01*
X207540789Y-115546589D01*
X207190971Y-115780330D01*
X207010000Y-116051172D01*
X206829029Y-115780330D01*
X206743033Y-115722869D01*
X207466302Y-114999601D01*
X207631048Y-114753039D01*
X207688900Y-114462200D01*
X207688900Y-102946201D01*
X207920973Y-103054968D01*
X208153000Y-102934469D01*
X208153000Y-101727000D01*
X208133000Y-101727000D01*
X208133000Y-101473000D01*
X208153000Y-101473000D01*
X208153000Y-101453000D01*
X208407000Y-101453000D01*
X208407000Y-101473000D01*
X208407000Y-101473000D01*
G37*
X208407000Y-101473000D02*
X208427000Y-101473000D01*
X208427000Y-101727000D01*
X208407000Y-101727000D01*
X208407000Y-102934469D01*
X208639027Y-103054968D01*
X208868100Y-102947607D01*
X208868100Y-108657437D01*
X208835908Y-108689573D01*
X208693262Y-109033101D01*
X208692938Y-109405067D01*
X208834983Y-109748843D01*
X208868100Y-109782018D01*
X208868100Y-113988198D01*
X207742599Y-115113699D01*
X207577852Y-115360261D01*
X207540789Y-115546589D01*
X207190971Y-115780330D01*
X207010000Y-116051172D01*
X206829029Y-115780330D01*
X206743033Y-115722869D01*
X207466302Y-114999601D01*
X207631048Y-114753039D01*
X207688900Y-114462200D01*
X207688900Y-102946201D01*
X207920973Y-103054968D01*
X208153000Y-102934469D01*
X208153000Y-101727000D01*
X208133000Y-101727000D01*
X208133000Y-101473000D01*
X208153000Y-101473000D01*
X208153000Y-101453000D01*
X208407000Y-101453000D01*
X208407000Y-101473000D01*
G36*
X203327000Y-101473000D02*
X203347000Y-101473000D01*
X203347000Y-101727000D01*
X203327000Y-101727000D01*
X203327000Y-102934469D01*
X203559027Y-103054968D01*
X203628900Y-103022220D01*
X203628900Y-114147397D01*
X202662599Y-115113699D01*
X202497852Y-115360261D01*
X202460789Y-115546589D01*
X202110971Y-115780330D01*
X201930000Y-116051172D01*
X201749029Y-115780330D01*
X201663033Y-115722869D01*
X202386302Y-114999601D01*
X202551048Y-114753039D01*
X202608900Y-114462200D01*
X202608900Y-102946201D01*
X202840973Y-103054968D01*
X203073000Y-102934469D01*
X203073000Y-101727000D01*
X203053000Y-101727000D01*
X203053000Y-101473000D01*
X203073000Y-101473000D01*
X203073000Y-101453000D01*
X203327000Y-101453000D01*
X203327000Y-101473000D01*
X203327000Y-101473000D01*
G37*
X203327000Y-101473000D02*
X203347000Y-101473000D01*
X203347000Y-101727000D01*
X203327000Y-101727000D01*
X203327000Y-102934469D01*
X203559027Y-103054968D01*
X203628900Y-103022220D01*
X203628900Y-114147397D01*
X202662599Y-115113699D01*
X202497852Y-115360261D01*
X202460789Y-115546589D01*
X202110971Y-115780330D01*
X201930000Y-116051172D01*
X201749029Y-115780330D01*
X201663033Y-115722869D01*
X202386302Y-114999601D01*
X202551048Y-114753039D01*
X202608900Y-114462200D01*
X202608900Y-102946201D01*
X202840973Y-103054968D01*
X203073000Y-102934469D01*
X203073000Y-101727000D01*
X203053000Y-101727000D01*
X203053000Y-101473000D01*
X203073000Y-101473000D01*
X203073000Y-101453000D01*
X203327000Y-101453000D01*
X203327000Y-101473000D01*
G36*
X198247000Y-101473000D02*
X198267000Y-101473000D01*
X198267000Y-101727000D01*
X198247000Y-101727000D01*
X198247000Y-102934469D01*
X198479027Y-103054968D01*
X198548900Y-103022220D01*
X198548900Y-114147397D01*
X197582599Y-115113699D01*
X197417852Y-115360261D01*
X197380789Y-115546589D01*
X197030971Y-115780330D01*
X196850000Y-116051172D01*
X196669029Y-115780330D01*
X196583033Y-115722869D01*
X197306302Y-114999601D01*
X197471048Y-114753039D01*
X197528900Y-114462200D01*
X197528900Y-102946201D01*
X197760973Y-103054968D01*
X197993000Y-102934469D01*
X197993000Y-101727000D01*
X197973000Y-101727000D01*
X197973000Y-101473000D01*
X197993000Y-101473000D01*
X197993000Y-101453000D01*
X198247000Y-101453000D01*
X198247000Y-101473000D01*
X198247000Y-101473000D01*
G37*
X198247000Y-101473000D02*
X198267000Y-101473000D01*
X198267000Y-101727000D01*
X198247000Y-101727000D01*
X198247000Y-102934469D01*
X198479027Y-103054968D01*
X198548900Y-103022220D01*
X198548900Y-114147397D01*
X197582599Y-115113699D01*
X197417852Y-115360261D01*
X197380789Y-115546589D01*
X197030971Y-115780330D01*
X196850000Y-116051172D01*
X196669029Y-115780330D01*
X196583033Y-115722869D01*
X197306302Y-114999601D01*
X197471048Y-114753039D01*
X197528900Y-114462200D01*
X197528900Y-102946201D01*
X197760973Y-103054968D01*
X197993000Y-102934469D01*
X197993000Y-101727000D01*
X197973000Y-101727000D01*
X197973000Y-101473000D01*
X197993000Y-101473000D01*
X197993000Y-101453000D01*
X198247000Y-101453000D01*
X198247000Y-101473000D01*
G36*
X205867000Y-101473000D02*
X205887000Y-101473000D01*
X205887000Y-101727000D01*
X205867000Y-101727000D01*
X205867000Y-102934469D01*
X206099027Y-103054968D01*
X206168900Y-103022220D01*
X206168900Y-114147397D01*
X205202599Y-115113699D01*
X205037852Y-115360261D01*
X205000789Y-115546589D01*
X204650971Y-115780330D01*
X204470000Y-116051172D01*
X204289029Y-115780330D01*
X204203033Y-115722869D01*
X204926302Y-114999601D01*
X205091048Y-114753039D01*
X205148900Y-114462200D01*
X205148900Y-102946201D01*
X205380973Y-103054968D01*
X205613000Y-102934469D01*
X205613000Y-101727000D01*
X205593000Y-101727000D01*
X205593000Y-101473000D01*
X205613000Y-101473000D01*
X205613000Y-101453000D01*
X205867000Y-101453000D01*
X205867000Y-101473000D01*
X205867000Y-101473000D01*
G37*
X205867000Y-101473000D02*
X205887000Y-101473000D01*
X205887000Y-101727000D01*
X205867000Y-101727000D01*
X205867000Y-102934469D01*
X206099027Y-103054968D01*
X206168900Y-103022220D01*
X206168900Y-114147397D01*
X205202599Y-115113699D01*
X205037852Y-115360261D01*
X205000789Y-115546589D01*
X204650971Y-115780330D01*
X204470000Y-116051172D01*
X204289029Y-115780330D01*
X204203033Y-115722869D01*
X204926302Y-114999601D01*
X205091048Y-114753039D01*
X205148900Y-114462200D01*
X205148900Y-102946201D01*
X205380973Y-103054968D01*
X205613000Y-102934469D01*
X205613000Y-101727000D01*
X205593000Y-101727000D01*
X205593000Y-101473000D01*
X205613000Y-101473000D01*
X205613000Y-101453000D01*
X205867000Y-101453000D01*
X205867000Y-101473000D01*
G36*
X200787000Y-101473000D02*
X200807000Y-101473000D01*
X200807000Y-101727000D01*
X200787000Y-101727000D01*
X200787000Y-102934469D01*
X201019027Y-103054968D01*
X201088900Y-103022220D01*
X201088900Y-114147397D01*
X200122599Y-115113699D01*
X199957852Y-115360261D01*
X199920789Y-115546589D01*
X199570971Y-115780330D01*
X199390000Y-116051172D01*
X199209029Y-115780330D01*
X199123033Y-115722869D01*
X199846302Y-114999601D01*
X200011048Y-114753039D01*
X200068900Y-114462200D01*
X200068900Y-102946201D01*
X200300973Y-103054968D01*
X200533000Y-102934469D01*
X200533000Y-101727000D01*
X200513000Y-101727000D01*
X200513000Y-101473000D01*
X200533000Y-101473000D01*
X200533000Y-101453000D01*
X200787000Y-101453000D01*
X200787000Y-101473000D01*
X200787000Y-101473000D01*
G37*
X200787000Y-101473000D02*
X200807000Y-101473000D01*
X200807000Y-101727000D01*
X200787000Y-101727000D01*
X200787000Y-102934469D01*
X201019027Y-103054968D01*
X201088900Y-103022220D01*
X201088900Y-114147397D01*
X200122599Y-115113699D01*
X199957852Y-115360261D01*
X199920789Y-115546589D01*
X199570971Y-115780330D01*
X199390000Y-116051172D01*
X199209029Y-115780330D01*
X199123033Y-115722869D01*
X199846302Y-114999601D01*
X200011048Y-114753039D01*
X200068900Y-114462200D01*
X200068900Y-102946201D01*
X200300973Y-103054968D01*
X200533000Y-102934469D01*
X200533000Y-101727000D01*
X200513000Y-101727000D01*
X200513000Y-101473000D01*
X200533000Y-101473000D01*
X200533000Y-101453000D01*
X200787000Y-101453000D01*
X200787000Y-101473000D01*
G36*
X190627000Y-101473000D02*
X190647000Y-101473000D01*
X190647000Y-101727000D01*
X190627000Y-101727000D01*
X190627000Y-102934469D01*
X190859027Y-103054968D01*
X191091100Y-102946201D01*
X191091100Y-111163198D01*
X187531000Y-114723298D01*
X187531000Y-105562802D01*
X189848501Y-103245301D01*
X190013248Y-102998739D01*
X190013909Y-102995416D01*
X190140973Y-103054968D01*
X190373000Y-102934469D01*
X190373000Y-101727000D01*
X190353000Y-101727000D01*
X190353000Y-101473000D01*
X190373000Y-101473000D01*
X190373000Y-101453000D01*
X190627000Y-101453000D01*
X190627000Y-101473000D01*
X190627000Y-101473000D01*
G37*
X190627000Y-101473000D02*
X190647000Y-101473000D01*
X190647000Y-101727000D01*
X190627000Y-101727000D01*
X190627000Y-102934469D01*
X190859027Y-103054968D01*
X191091100Y-102946201D01*
X191091100Y-111163198D01*
X187531000Y-114723298D01*
X187531000Y-105562802D01*
X189848501Y-103245301D01*
X190013248Y-102998739D01*
X190013909Y-102995416D01*
X190140973Y-103054968D01*
X190373000Y-102934469D01*
X190373000Y-101727000D01*
X190353000Y-101727000D01*
X190353000Y-101473000D01*
X190373000Y-101473000D01*
X190373000Y-101453000D01*
X190627000Y-101453000D01*
X190627000Y-101473000D01*
G36*
X210947000Y-101473000D02*
X210967000Y-101473000D01*
X210967000Y-101727000D01*
X210947000Y-101727000D01*
X210947000Y-102934469D01*
X211179027Y-103054968D01*
X211248900Y-103022220D01*
X211248900Y-107106437D01*
X211216708Y-107138573D01*
X211074062Y-107482101D01*
X211074021Y-107528976D01*
X210388100Y-108214898D01*
X210388100Y-103020814D01*
X210460973Y-103054968D01*
X210693000Y-102934469D01*
X210693000Y-101727000D01*
X210673000Y-101727000D01*
X210673000Y-101473000D01*
X210693000Y-101473000D01*
X210693000Y-101453000D01*
X210947000Y-101453000D01*
X210947000Y-101473000D01*
X210947000Y-101473000D01*
G37*
X210947000Y-101473000D02*
X210967000Y-101473000D01*
X210967000Y-101727000D01*
X210947000Y-101727000D01*
X210947000Y-102934469D01*
X211179027Y-103054968D01*
X211248900Y-103022220D01*
X211248900Y-107106437D01*
X211216708Y-107138573D01*
X211074062Y-107482101D01*
X211074021Y-107528976D01*
X210388100Y-108214898D01*
X210388100Y-103020814D01*
X210460973Y-103054968D01*
X210693000Y-102934469D01*
X210693000Y-101727000D01*
X210673000Y-101727000D01*
X210673000Y-101473000D01*
X210693000Y-101473000D01*
X210693000Y-101453000D01*
X210947000Y-101453000D01*
X210947000Y-101473000D01*
G36*
X213487000Y-101473000D02*
X213507000Y-101473000D01*
X213507000Y-101727000D01*
X213487000Y-101727000D01*
X213487000Y-102934469D01*
X213719027Y-103054968D01*
X213870000Y-102984210D01*
X213870000Y-103834298D01*
X212768900Y-104935398D01*
X212768900Y-102946201D01*
X213000973Y-103054968D01*
X213233000Y-102934469D01*
X213233000Y-101727000D01*
X213213000Y-101727000D01*
X213213000Y-101473000D01*
X213233000Y-101473000D01*
X213233000Y-101453000D01*
X213487000Y-101453000D01*
X213487000Y-101473000D01*
X213487000Y-101473000D01*
G37*
X213487000Y-101473000D02*
X213507000Y-101473000D01*
X213507000Y-101727000D01*
X213487000Y-101727000D01*
X213487000Y-102934469D01*
X213719027Y-103054968D01*
X213870000Y-102984210D01*
X213870000Y-103834298D01*
X212768900Y-104935398D01*
X212768900Y-102946201D01*
X213000973Y-103054968D01*
X213233000Y-102934469D01*
X213233000Y-101727000D01*
X213213000Y-101727000D01*
X213213000Y-101473000D01*
X213233000Y-101473000D01*
X213233000Y-101453000D01*
X213487000Y-101453000D01*
X213487000Y-101473000D01*
G36*
X185547000Y-101473000D02*
X185567000Y-101473000D01*
X185567000Y-101727000D01*
X185547000Y-101727000D01*
X185547000Y-102934469D01*
X185674175Y-103000515D01*
X185554408Y-103120073D01*
X185411762Y-103463601D01*
X185411721Y-103510477D01*
X184882599Y-104039599D01*
X184828900Y-104119965D01*
X184828900Y-102946201D01*
X185060973Y-103054968D01*
X185293000Y-102934469D01*
X185293000Y-101727000D01*
X185273000Y-101727000D01*
X185273000Y-101473000D01*
X185293000Y-101473000D01*
X185293000Y-101453000D01*
X185547000Y-101453000D01*
X185547000Y-101473000D01*
X185547000Y-101473000D01*
G37*
X185547000Y-101473000D02*
X185567000Y-101473000D01*
X185567000Y-101727000D01*
X185547000Y-101727000D01*
X185547000Y-102934469D01*
X185674175Y-103000515D01*
X185554408Y-103120073D01*
X185411762Y-103463601D01*
X185411721Y-103510477D01*
X184882599Y-104039599D01*
X184828900Y-104119965D01*
X184828900Y-102946201D01*
X185060973Y-103054968D01*
X185293000Y-102934469D01*
X185293000Y-101727000D01*
X185273000Y-101727000D01*
X185273000Y-101473000D01*
X185293000Y-101473000D01*
X185293000Y-101453000D01*
X185547000Y-101453000D01*
X185547000Y-101473000D01*
G36*
X193167000Y-101473000D02*
X193187000Y-101473000D01*
X193187000Y-101727000D01*
X193167000Y-101727000D01*
X193167000Y-102934469D01*
X193399027Y-103054968D01*
X193468900Y-103022220D01*
X193468900Y-103582994D01*
X193199099Y-103470962D01*
X192827133Y-103470638D01*
X192611100Y-103559901D01*
X192611100Y-103022220D01*
X192680973Y-103054968D01*
X192913000Y-102934469D01*
X192913000Y-101727000D01*
X192893000Y-101727000D01*
X192893000Y-101473000D01*
X192913000Y-101473000D01*
X192913000Y-101453000D01*
X193167000Y-101453000D01*
X193167000Y-101473000D01*
X193167000Y-101473000D01*
G37*
X193167000Y-101473000D02*
X193187000Y-101473000D01*
X193187000Y-101727000D01*
X193167000Y-101727000D01*
X193167000Y-102934469D01*
X193399027Y-103054968D01*
X193468900Y-103022220D01*
X193468900Y-103582994D01*
X193199099Y-103470962D01*
X192827133Y-103470638D01*
X192611100Y-103559901D01*
X192611100Y-103022220D01*
X192680973Y-103054968D01*
X192913000Y-102934469D01*
X192913000Y-101727000D01*
X192893000Y-101727000D01*
X192893000Y-101473000D01*
X192913000Y-101473000D01*
X192913000Y-101453000D01*
X193167000Y-101453000D01*
X193167000Y-101473000D01*
G36*
X216027000Y-101473000D02*
X216047000Y-101473000D01*
X216047000Y-101727000D01*
X216027000Y-101727000D01*
X216027000Y-101747000D01*
X215773000Y-101747000D01*
X215773000Y-101727000D01*
X215753000Y-101727000D01*
X215753000Y-101473000D01*
X215773000Y-101473000D01*
X215773000Y-101453000D01*
X216027000Y-101453000D01*
X216027000Y-101473000D01*
X216027000Y-101473000D01*
G37*
X216027000Y-101473000D02*
X216047000Y-101473000D01*
X216047000Y-101727000D01*
X216027000Y-101727000D01*
X216027000Y-101747000D01*
X215773000Y-101747000D01*
X215773000Y-101727000D01*
X215753000Y-101727000D01*
X215753000Y-101473000D01*
X215773000Y-101473000D01*
X215773000Y-101453000D01*
X216027000Y-101453000D01*
X216027000Y-101473000D01*
G36*
X188087000Y-101473000D02*
X188107000Y-101473000D01*
X188107000Y-101727000D01*
X188087000Y-101727000D01*
X188087000Y-101747000D01*
X187833000Y-101747000D01*
X187833000Y-101727000D01*
X187813000Y-101727000D01*
X187813000Y-101473000D01*
X187833000Y-101473000D01*
X187833000Y-101453000D01*
X188087000Y-101453000D01*
X188087000Y-101473000D01*
X188087000Y-101473000D01*
G37*
X188087000Y-101473000D02*
X188107000Y-101473000D01*
X188107000Y-101727000D01*
X188087000Y-101727000D01*
X188087000Y-101747000D01*
X187833000Y-101747000D01*
X187833000Y-101727000D01*
X187813000Y-101727000D01*
X187813000Y-101473000D01*
X187833000Y-101473000D01*
X187833000Y-101453000D01*
X188087000Y-101453000D01*
X188087000Y-101473000D01*
M02*
