%TF.GenerationSoftware,KiCad,Pcbnew,5.0.2+dfsg1-1*%
%TF.CreationDate,2021-01-23T14:19:40+01:00*%
%TF.ProjectId,AmigaPCDriveAdapter,416d6967-6150-4434-9472-697665416461,2.0*%
%TF.SameCoordinates,Original*%
%TF.FileFunction,Copper,L1,Top*%
%TF.FilePolarity,Positive*%
%FSLAX46Y46*%
G04 Gerber Fmt 4.6, Leading zero omitted, Abs format (unit mm)*
G04 Created by KiCad (PCBNEW 5.0.2+dfsg1-1) date Sat 23 Jan 2021 02:19:40 PM CET*
%MOMM*%
%LPD*%
G01*
G04 APERTURE LIST*
%ADD10R,1.600000X1.600000*%
%ADD11O,1.600000X1.600000*%
%ADD12C,0.100000*%
%ADD13C,1.350000*%
%ADD14C,1.425000*%
%ADD15O,1.700000X1.700000*%
%ADD16R,1.700000X1.700000*%
%ADD17C,1.520000*%
%ADD18R,1.520000X1.520000*%
%ADD19C,0.600000*%
%ADD20C,0.250000*%
%ADD21C,0.254000*%
G04 APERTURE END LIST*
D10*
X157480000Y-114300000D03*
D11*
X142240000Y-121920000D03*
X154940000Y-114300000D03*
X144780000Y-121920000D03*
X152400000Y-114300000D03*
X147320000Y-121920000D03*
X149860000Y-114300000D03*
X149860000Y-121920000D03*
X147320000Y-114300000D03*
X152400000Y-121920000D03*
X144780000Y-114300000D03*
X154940000Y-121920000D03*
X142240000Y-114300000D03*
X157480000Y-121920000D03*
D12*
G36*
X177614505Y-96376204D02*
X177638773Y-96379804D01*
X177662572Y-96385765D01*
X177685671Y-96394030D01*
X177707850Y-96404520D01*
X177728893Y-96417132D01*
X177748599Y-96431747D01*
X177766777Y-96448223D01*
X177783253Y-96466401D01*
X177797868Y-96486107D01*
X177810480Y-96507150D01*
X177820970Y-96529329D01*
X177829235Y-96552428D01*
X177835196Y-96576227D01*
X177838796Y-96600495D01*
X177840000Y-96624999D01*
X177840000Y-97525001D01*
X177838796Y-97549505D01*
X177835196Y-97573773D01*
X177829235Y-97597572D01*
X177820970Y-97620671D01*
X177810480Y-97642850D01*
X177797868Y-97663893D01*
X177783253Y-97683599D01*
X177766777Y-97701777D01*
X177748599Y-97718253D01*
X177728893Y-97732868D01*
X177707850Y-97745480D01*
X177685671Y-97755970D01*
X177662572Y-97764235D01*
X177638773Y-97770196D01*
X177614505Y-97773796D01*
X177590001Y-97775000D01*
X176739999Y-97775000D01*
X176715495Y-97773796D01*
X176691227Y-97770196D01*
X176667428Y-97764235D01*
X176644329Y-97755970D01*
X176622150Y-97745480D01*
X176601107Y-97732868D01*
X176581401Y-97718253D01*
X176563223Y-97701777D01*
X176546747Y-97683599D01*
X176532132Y-97663893D01*
X176519520Y-97642850D01*
X176509030Y-97620671D01*
X176500765Y-97597572D01*
X176494804Y-97573773D01*
X176491204Y-97549505D01*
X176490000Y-97525001D01*
X176490000Y-96624999D01*
X176491204Y-96600495D01*
X176494804Y-96576227D01*
X176500765Y-96552428D01*
X176509030Y-96529329D01*
X176519520Y-96507150D01*
X176532132Y-96486107D01*
X176546747Y-96466401D01*
X176563223Y-96448223D01*
X176581401Y-96431747D01*
X176601107Y-96417132D01*
X176622150Y-96404520D01*
X176644329Y-96394030D01*
X176667428Y-96385765D01*
X176691227Y-96379804D01*
X176715495Y-96376204D01*
X176739999Y-96375000D01*
X177590001Y-96375000D01*
X177614505Y-96376204D01*
X177614505Y-96376204D01*
G37*
D13*
X177165000Y-97075000D03*
D12*
G36*
X177614505Y-99076204D02*
X177638773Y-99079804D01*
X177662572Y-99085765D01*
X177685671Y-99094030D01*
X177707850Y-99104520D01*
X177728893Y-99117132D01*
X177748599Y-99131747D01*
X177766777Y-99148223D01*
X177783253Y-99166401D01*
X177797868Y-99186107D01*
X177810480Y-99207150D01*
X177820970Y-99229329D01*
X177829235Y-99252428D01*
X177835196Y-99276227D01*
X177838796Y-99300495D01*
X177840000Y-99324999D01*
X177840000Y-100225001D01*
X177838796Y-100249505D01*
X177835196Y-100273773D01*
X177829235Y-100297572D01*
X177820970Y-100320671D01*
X177810480Y-100342850D01*
X177797868Y-100363893D01*
X177783253Y-100383599D01*
X177766777Y-100401777D01*
X177748599Y-100418253D01*
X177728893Y-100432868D01*
X177707850Y-100445480D01*
X177685671Y-100455970D01*
X177662572Y-100464235D01*
X177638773Y-100470196D01*
X177614505Y-100473796D01*
X177590001Y-100475000D01*
X176739999Y-100475000D01*
X176715495Y-100473796D01*
X176691227Y-100470196D01*
X176667428Y-100464235D01*
X176644329Y-100455970D01*
X176622150Y-100445480D01*
X176601107Y-100432868D01*
X176581401Y-100418253D01*
X176563223Y-100401777D01*
X176546747Y-100383599D01*
X176532132Y-100363893D01*
X176519520Y-100342850D01*
X176509030Y-100320671D01*
X176500765Y-100297572D01*
X176494804Y-100273773D01*
X176491204Y-100249505D01*
X176490000Y-100225001D01*
X176490000Y-99324999D01*
X176491204Y-99300495D01*
X176494804Y-99276227D01*
X176500765Y-99252428D01*
X176509030Y-99229329D01*
X176519520Y-99207150D01*
X176532132Y-99186107D01*
X176546747Y-99166401D01*
X176563223Y-99148223D01*
X176581401Y-99131747D01*
X176601107Y-99117132D01*
X176622150Y-99104520D01*
X176644329Y-99094030D01*
X176667428Y-99085765D01*
X176691227Y-99079804D01*
X176715495Y-99076204D01*
X176739999Y-99075000D01*
X177590001Y-99075000D01*
X177614505Y-99076204D01*
X177614505Y-99076204D01*
G37*
D13*
X177165000Y-99775000D03*
D12*
G36*
X180626504Y-102631204D02*
X180650773Y-102634804D01*
X180674571Y-102640765D01*
X180697671Y-102649030D01*
X180719849Y-102659520D01*
X180740893Y-102672133D01*
X180760598Y-102686747D01*
X180778777Y-102703223D01*
X180795253Y-102721402D01*
X180809867Y-102741107D01*
X180822480Y-102762151D01*
X180832970Y-102784329D01*
X180841235Y-102807429D01*
X180847196Y-102831227D01*
X180850796Y-102855496D01*
X180852000Y-102880000D01*
X180852000Y-104130000D01*
X180850796Y-104154504D01*
X180847196Y-104178773D01*
X180841235Y-104202571D01*
X180832970Y-104225671D01*
X180822480Y-104247849D01*
X180809867Y-104268893D01*
X180795253Y-104288598D01*
X180778777Y-104306777D01*
X180760598Y-104323253D01*
X180740893Y-104337867D01*
X180719849Y-104350480D01*
X180697671Y-104360970D01*
X180674571Y-104369235D01*
X180650773Y-104375196D01*
X180626504Y-104378796D01*
X180602000Y-104380000D01*
X179677000Y-104380000D01*
X179652496Y-104378796D01*
X179628227Y-104375196D01*
X179604429Y-104369235D01*
X179581329Y-104360970D01*
X179559151Y-104350480D01*
X179538107Y-104337867D01*
X179518402Y-104323253D01*
X179500223Y-104306777D01*
X179483747Y-104288598D01*
X179469133Y-104268893D01*
X179456520Y-104247849D01*
X179446030Y-104225671D01*
X179437765Y-104202571D01*
X179431804Y-104178773D01*
X179428204Y-104154504D01*
X179427000Y-104130000D01*
X179427000Y-102880000D01*
X179428204Y-102855496D01*
X179431804Y-102831227D01*
X179437765Y-102807429D01*
X179446030Y-102784329D01*
X179456520Y-102762151D01*
X179469133Y-102741107D01*
X179483747Y-102721402D01*
X179500223Y-102703223D01*
X179518402Y-102686747D01*
X179538107Y-102672133D01*
X179559151Y-102659520D01*
X179581329Y-102649030D01*
X179604429Y-102640765D01*
X179628227Y-102634804D01*
X179652496Y-102631204D01*
X179677000Y-102630000D01*
X180602000Y-102630000D01*
X180626504Y-102631204D01*
X180626504Y-102631204D01*
G37*
D14*
X180139500Y-103505000D03*
D12*
G36*
X177651504Y-102631204D02*
X177675773Y-102634804D01*
X177699571Y-102640765D01*
X177722671Y-102649030D01*
X177744849Y-102659520D01*
X177765893Y-102672133D01*
X177785598Y-102686747D01*
X177803777Y-102703223D01*
X177820253Y-102721402D01*
X177834867Y-102741107D01*
X177847480Y-102762151D01*
X177857970Y-102784329D01*
X177866235Y-102807429D01*
X177872196Y-102831227D01*
X177875796Y-102855496D01*
X177877000Y-102880000D01*
X177877000Y-104130000D01*
X177875796Y-104154504D01*
X177872196Y-104178773D01*
X177866235Y-104202571D01*
X177857970Y-104225671D01*
X177847480Y-104247849D01*
X177834867Y-104268893D01*
X177820253Y-104288598D01*
X177803777Y-104306777D01*
X177785598Y-104323253D01*
X177765893Y-104337867D01*
X177744849Y-104350480D01*
X177722671Y-104360970D01*
X177699571Y-104369235D01*
X177675773Y-104375196D01*
X177651504Y-104378796D01*
X177627000Y-104380000D01*
X176702000Y-104380000D01*
X176677496Y-104378796D01*
X176653227Y-104375196D01*
X176629429Y-104369235D01*
X176606329Y-104360970D01*
X176584151Y-104350480D01*
X176563107Y-104337867D01*
X176543402Y-104323253D01*
X176525223Y-104306777D01*
X176508747Y-104288598D01*
X176494133Y-104268893D01*
X176481520Y-104247849D01*
X176471030Y-104225671D01*
X176462765Y-104202571D01*
X176456804Y-104178773D01*
X176453204Y-104154504D01*
X176452000Y-104130000D01*
X176452000Y-102880000D01*
X176453204Y-102855496D01*
X176456804Y-102831227D01*
X176462765Y-102807429D01*
X176471030Y-102784329D01*
X176481520Y-102762151D01*
X176494133Y-102741107D01*
X176508747Y-102721402D01*
X176525223Y-102703223D01*
X176543402Y-102686747D01*
X176563107Y-102672133D01*
X176584151Y-102659520D01*
X176606329Y-102649030D01*
X176629429Y-102640765D01*
X176653227Y-102634804D01*
X176677496Y-102631204D01*
X176702000Y-102630000D01*
X177627000Y-102630000D01*
X177651504Y-102631204D01*
X177651504Y-102631204D01*
G37*
D14*
X177164500Y-103505000D03*
D12*
G36*
X163589505Y-105371204D02*
X163613773Y-105374804D01*
X163637572Y-105380765D01*
X163660671Y-105389030D01*
X163682850Y-105399520D01*
X163703893Y-105412132D01*
X163723599Y-105426747D01*
X163741777Y-105443223D01*
X163758253Y-105461401D01*
X163772868Y-105481107D01*
X163785480Y-105502150D01*
X163795970Y-105524329D01*
X163804235Y-105547428D01*
X163810196Y-105571227D01*
X163813796Y-105595495D01*
X163815000Y-105619999D01*
X163815000Y-106470001D01*
X163813796Y-106494505D01*
X163810196Y-106518773D01*
X163804235Y-106542572D01*
X163795970Y-106565671D01*
X163785480Y-106587850D01*
X163772868Y-106608893D01*
X163758253Y-106628599D01*
X163741777Y-106646777D01*
X163723599Y-106663253D01*
X163703893Y-106677868D01*
X163682850Y-106690480D01*
X163660671Y-106700970D01*
X163637572Y-106709235D01*
X163613773Y-106715196D01*
X163589505Y-106718796D01*
X163565001Y-106720000D01*
X162664999Y-106720000D01*
X162640495Y-106718796D01*
X162616227Y-106715196D01*
X162592428Y-106709235D01*
X162569329Y-106700970D01*
X162547150Y-106690480D01*
X162526107Y-106677868D01*
X162506401Y-106663253D01*
X162488223Y-106646777D01*
X162471747Y-106628599D01*
X162457132Y-106608893D01*
X162444520Y-106587850D01*
X162434030Y-106565671D01*
X162425765Y-106542572D01*
X162419804Y-106518773D01*
X162416204Y-106494505D01*
X162415000Y-106470001D01*
X162415000Y-105619999D01*
X162416204Y-105595495D01*
X162419804Y-105571227D01*
X162425765Y-105547428D01*
X162434030Y-105524329D01*
X162444520Y-105502150D01*
X162457132Y-105481107D01*
X162471747Y-105461401D01*
X162488223Y-105443223D01*
X162506401Y-105426747D01*
X162526107Y-105412132D01*
X162547150Y-105399520D01*
X162569329Y-105389030D01*
X162592428Y-105380765D01*
X162616227Y-105374804D01*
X162640495Y-105371204D01*
X162664999Y-105370000D01*
X163565001Y-105370000D01*
X163589505Y-105371204D01*
X163589505Y-105371204D01*
G37*
D13*
X163115000Y-106045000D03*
D12*
G36*
X166289505Y-105371204D02*
X166313773Y-105374804D01*
X166337572Y-105380765D01*
X166360671Y-105389030D01*
X166382850Y-105399520D01*
X166403893Y-105412132D01*
X166423599Y-105426747D01*
X166441777Y-105443223D01*
X166458253Y-105461401D01*
X166472868Y-105481107D01*
X166485480Y-105502150D01*
X166495970Y-105524329D01*
X166504235Y-105547428D01*
X166510196Y-105571227D01*
X166513796Y-105595495D01*
X166515000Y-105619999D01*
X166515000Y-106470001D01*
X166513796Y-106494505D01*
X166510196Y-106518773D01*
X166504235Y-106542572D01*
X166495970Y-106565671D01*
X166485480Y-106587850D01*
X166472868Y-106608893D01*
X166458253Y-106628599D01*
X166441777Y-106646777D01*
X166423599Y-106663253D01*
X166403893Y-106677868D01*
X166382850Y-106690480D01*
X166360671Y-106700970D01*
X166337572Y-106709235D01*
X166313773Y-106715196D01*
X166289505Y-106718796D01*
X166265001Y-106720000D01*
X165364999Y-106720000D01*
X165340495Y-106718796D01*
X165316227Y-106715196D01*
X165292428Y-106709235D01*
X165269329Y-106700970D01*
X165247150Y-106690480D01*
X165226107Y-106677868D01*
X165206401Y-106663253D01*
X165188223Y-106646777D01*
X165171747Y-106628599D01*
X165157132Y-106608893D01*
X165144520Y-106587850D01*
X165134030Y-106565671D01*
X165125765Y-106542572D01*
X165119804Y-106518773D01*
X165116204Y-106494505D01*
X165115000Y-106470001D01*
X165115000Y-105619999D01*
X165116204Y-105595495D01*
X165119804Y-105571227D01*
X165125765Y-105547428D01*
X165134030Y-105524329D01*
X165144520Y-105502150D01*
X165157132Y-105481107D01*
X165171747Y-105461401D01*
X165188223Y-105443223D01*
X165206401Y-105426747D01*
X165226107Y-105412132D01*
X165247150Y-105399520D01*
X165269329Y-105389030D01*
X165292428Y-105380765D01*
X165316227Y-105374804D01*
X165340495Y-105371204D01*
X165364999Y-105370000D01*
X166265001Y-105370000D01*
X166289505Y-105371204D01*
X166289505Y-105371204D01*
G37*
D13*
X165815000Y-106045000D03*
D12*
G36*
X178069504Y-108346204D02*
X178093773Y-108349804D01*
X178117571Y-108355765D01*
X178140671Y-108364030D01*
X178162849Y-108374520D01*
X178183893Y-108387133D01*
X178203598Y-108401747D01*
X178221777Y-108418223D01*
X178238253Y-108436402D01*
X178252867Y-108456107D01*
X178265480Y-108477151D01*
X178275970Y-108499329D01*
X178284235Y-108522429D01*
X178290196Y-108546227D01*
X178293796Y-108570496D01*
X178295000Y-108595000D01*
X178295000Y-109845000D01*
X178293796Y-109869504D01*
X178290196Y-109893773D01*
X178284235Y-109917571D01*
X178275970Y-109940671D01*
X178265480Y-109962849D01*
X178252867Y-109983893D01*
X178238253Y-110003598D01*
X178221777Y-110021777D01*
X178203598Y-110038253D01*
X178183893Y-110052867D01*
X178162849Y-110065480D01*
X178140671Y-110075970D01*
X178117571Y-110084235D01*
X178093773Y-110090196D01*
X178069504Y-110093796D01*
X178045000Y-110095000D01*
X177120000Y-110095000D01*
X177095496Y-110093796D01*
X177071227Y-110090196D01*
X177047429Y-110084235D01*
X177024329Y-110075970D01*
X177002151Y-110065480D01*
X176981107Y-110052867D01*
X176961402Y-110038253D01*
X176943223Y-110021777D01*
X176926747Y-110003598D01*
X176912133Y-109983893D01*
X176899520Y-109962849D01*
X176889030Y-109940671D01*
X176880765Y-109917571D01*
X176874804Y-109893773D01*
X176871204Y-109869504D01*
X176870000Y-109845000D01*
X176870000Y-108595000D01*
X176871204Y-108570496D01*
X176874804Y-108546227D01*
X176880765Y-108522429D01*
X176889030Y-108499329D01*
X176899520Y-108477151D01*
X176912133Y-108456107D01*
X176926747Y-108436402D01*
X176943223Y-108418223D01*
X176961402Y-108401747D01*
X176981107Y-108387133D01*
X177002151Y-108374520D01*
X177024329Y-108364030D01*
X177047429Y-108355765D01*
X177071227Y-108349804D01*
X177095496Y-108346204D01*
X177120000Y-108345000D01*
X178045000Y-108345000D01*
X178069504Y-108346204D01*
X178069504Y-108346204D01*
G37*
D14*
X177582500Y-109220000D03*
D12*
G36*
X181044504Y-108346204D02*
X181068773Y-108349804D01*
X181092571Y-108355765D01*
X181115671Y-108364030D01*
X181137849Y-108374520D01*
X181158893Y-108387133D01*
X181178598Y-108401747D01*
X181196777Y-108418223D01*
X181213253Y-108436402D01*
X181227867Y-108456107D01*
X181240480Y-108477151D01*
X181250970Y-108499329D01*
X181259235Y-108522429D01*
X181265196Y-108546227D01*
X181268796Y-108570496D01*
X181270000Y-108595000D01*
X181270000Y-109845000D01*
X181268796Y-109869504D01*
X181265196Y-109893773D01*
X181259235Y-109917571D01*
X181250970Y-109940671D01*
X181240480Y-109962849D01*
X181227867Y-109983893D01*
X181213253Y-110003598D01*
X181196777Y-110021777D01*
X181178598Y-110038253D01*
X181158893Y-110052867D01*
X181137849Y-110065480D01*
X181115671Y-110075970D01*
X181092571Y-110084235D01*
X181068773Y-110090196D01*
X181044504Y-110093796D01*
X181020000Y-110095000D01*
X180095000Y-110095000D01*
X180070496Y-110093796D01*
X180046227Y-110090196D01*
X180022429Y-110084235D01*
X179999329Y-110075970D01*
X179977151Y-110065480D01*
X179956107Y-110052867D01*
X179936402Y-110038253D01*
X179918223Y-110021777D01*
X179901747Y-110003598D01*
X179887133Y-109983893D01*
X179874520Y-109962849D01*
X179864030Y-109940671D01*
X179855765Y-109917571D01*
X179849804Y-109893773D01*
X179846204Y-109869504D01*
X179845000Y-109845000D01*
X179845000Y-108595000D01*
X179846204Y-108570496D01*
X179849804Y-108546227D01*
X179855765Y-108522429D01*
X179864030Y-108499329D01*
X179874520Y-108477151D01*
X179887133Y-108456107D01*
X179901747Y-108436402D01*
X179918223Y-108418223D01*
X179936402Y-108401747D01*
X179956107Y-108387133D01*
X179977151Y-108374520D01*
X179999329Y-108364030D01*
X180022429Y-108355765D01*
X180046227Y-108349804D01*
X180070496Y-108346204D01*
X180095000Y-108345000D01*
X181020000Y-108345000D01*
X181044504Y-108346204D01*
X181044504Y-108346204D01*
G37*
D14*
X180557500Y-109220000D03*
D15*
X160020000Y-109220000D03*
X162560000Y-109220000D03*
X165100000Y-109220000D03*
D16*
X167640000Y-109220000D03*
D15*
X137160000Y-114300000D03*
X137160000Y-116840000D03*
X137160000Y-119380000D03*
D16*
X137160000Y-121920000D03*
D12*
G36*
X187394504Y-103901204D02*
X187418773Y-103904804D01*
X187442571Y-103910765D01*
X187465671Y-103919030D01*
X187487849Y-103929520D01*
X187508893Y-103942133D01*
X187528598Y-103956747D01*
X187546777Y-103973223D01*
X187563253Y-103991402D01*
X187577867Y-104011107D01*
X187590480Y-104032151D01*
X187600970Y-104054329D01*
X187609235Y-104077429D01*
X187615196Y-104101227D01*
X187618796Y-104125496D01*
X187620000Y-104150000D01*
X187620000Y-105400000D01*
X187618796Y-105424504D01*
X187615196Y-105448773D01*
X187609235Y-105472571D01*
X187600970Y-105495671D01*
X187590480Y-105517849D01*
X187577867Y-105538893D01*
X187563253Y-105558598D01*
X187546777Y-105576777D01*
X187528598Y-105593253D01*
X187508893Y-105607867D01*
X187487849Y-105620480D01*
X187465671Y-105630970D01*
X187442571Y-105639235D01*
X187418773Y-105645196D01*
X187394504Y-105648796D01*
X187370000Y-105650000D01*
X186445000Y-105650000D01*
X186420496Y-105648796D01*
X186396227Y-105645196D01*
X186372429Y-105639235D01*
X186349329Y-105630970D01*
X186327151Y-105620480D01*
X186306107Y-105607867D01*
X186286402Y-105593253D01*
X186268223Y-105576777D01*
X186251747Y-105558598D01*
X186237133Y-105538893D01*
X186224520Y-105517849D01*
X186214030Y-105495671D01*
X186205765Y-105472571D01*
X186199804Y-105448773D01*
X186196204Y-105424504D01*
X186195000Y-105400000D01*
X186195000Y-104150000D01*
X186196204Y-104125496D01*
X186199804Y-104101227D01*
X186205765Y-104077429D01*
X186214030Y-104054329D01*
X186224520Y-104032151D01*
X186237133Y-104011107D01*
X186251747Y-103991402D01*
X186268223Y-103973223D01*
X186286402Y-103956747D01*
X186306107Y-103942133D01*
X186327151Y-103929520D01*
X186349329Y-103919030D01*
X186372429Y-103910765D01*
X186396227Y-103904804D01*
X186420496Y-103901204D01*
X186445000Y-103900000D01*
X187370000Y-103900000D01*
X187394504Y-103901204D01*
X187394504Y-103901204D01*
G37*
D14*
X186907500Y-104775000D03*
D12*
G36*
X184419504Y-103901204D02*
X184443773Y-103904804D01*
X184467571Y-103910765D01*
X184490671Y-103919030D01*
X184512849Y-103929520D01*
X184533893Y-103942133D01*
X184553598Y-103956747D01*
X184571777Y-103973223D01*
X184588253Y-103991402D01*
X184602867Y-104011107D01*
X184615480Y-104032151D01*
X184625970Y-104054329D01*
X184634235Y-104077429D01*
X184640196Y-104101227D01*
X184643796Y-104125496D01*
X184645000Y-104150000D01*
X184645000Y-105400000D01*
X184643796Y-105424504D01*
X184640196Y-105448773D01*
X184634235Y-105472571D01*
X184625970Y-105495671D01*
X184615480Y-105517849D01*
X184602867Y-105538893D01*
X184588253Y-105558598D01*
X184571777Y-105576777D01*
X184553598Y-105593253D01*
X184533893Y-105607867D01*
X184512849Y-105620480D01*
X184490671Y-105630970D01*
X184467571Y-105639235D01*
X184443773Y-105645196D01*
X184419504Y-105648796D01*
X184395000Y-105650000D01*
X183470000Y-105650000D01*
X183445496Y-105648796D01*
X183421227Y-105645196D01*
X183397429Y-105639235D01*
X183374329Y-105630970D01*
X183352151Y-105620480D01*
X183331107Y-105607867D01*
X183311402Y-105593253D01*
X183293223Y-105576777D01*
X183276747Y-105558598D01*
X183262133Y-105538893D01*
X183249520Y-105517849D01*
X183239030Y-105495671D01*
X183230765Y-105472571D01*
X183224804Y-105448773D01*
X183221204Y-105424504D01*
X183220000Y-105400000D01*
X183220000Y-104150000D01*
X183221204Y-104125496D01*
X183224804Y-104101227D01*
X183230765Y-104077429D01*
X183239030Y-104054329D01*
X183249520Y-104032151D01*
X183262133Y-104011107D01*
X183276747Y-103991402D01*
X183293223Y-103973223D01*
X183311402Y-103956747D01*
X183331107Y-103942133D01*
X183352151Y-103929520D01*
X183374329Y-103919030D01*
X183397429Y-103910765D01*
X183421227Y-103904804D01*
X183445496Y-103901204D01*
X183470000Y-103900000D01*
X184395000Y-103900000D01*
X184419504Y-103901204D01*
X184419504Y-103901204D01*
G37*
D14*
X183932500Y-104775000D03*
D12*
G36*
X205174504Y-110251204D02*
X205198773Y-110254804D01*
X205222571Y-110260765D01*
X205245671Y-110269030D01*
X205267849Y-110279520D01*
X205288893Y-110292133D01*
X205308598Y-110306747D01*
X205326777Y-110323223D01*
X205343253Y-110341402D01*
X205357867Y-110361107D01*
X205370480Y-110382151D01*
X205380970Y-110404329D01*
X205389235Y-110427429D01*
X205395196Y-110451227D01*
X205398796Y-110475496D01*
X205400000Y-110500000D01*
X205400000Y-111750000D01*
X205398796Y-111774504D01*
X205395196Y-111798773D01*
X205389235Y-111822571D01*
X205380970Y-111845671D01*
X205370480Y-111867849D01*
X205357867Y-111888893D01*
X205343253Y-111908598D01*
X205326777Y-111926777D01*
X205308598Y-111943253D01*
X205288893Y-111957867D01*
X205267849Y-111970480D01*
X205245671Y-111980970D01*
X205222571Y-111989235D01*
X205198773Y-111995196D01*
X205174504Y-111998796D01*
X205150000Y-112000000D01*
X204225000Y-112000000D01*
X204200496Y-111998796D01*
X204176227Y-111995196D01*
X204152429Y-111989235D01*
X204129329Y-111980970D01*
X204107151Y-111970480D01*
X204086107Y-111957867D01*
X204066402Y-111943253D01*
X204048223Y-111926777D01*
X204031747Y-111908598D01*
X204017133Y-111888893D01*
X204004520Y-111867849D01*
X203994030Y-111845671D01*
X203985765Y-111822571D01*
X203979804Y-111798773D01*
X203976204Y-111774504D01*
X203975000Y-111750000D01*
X203975000Y-110500000D01*
X203976204Y-110475496D01*
X203979804Y-110451227D01*
X203985765Y-110427429D01*
X203994030Y-110404329D01*
X204004520Y-110382151D01*
X204017133Y-110361107D01*
X204031747Y-110341402D01*
X204048223Y-110323223D01*
X204066402Y-110306747D01*
X204086107Y-110292133D01*
X204107151Y-110279520D01*
X204129329Y-110269030D01*
X204152429Y-110260765D01*
X204176227Y-110254804D01*
X204200496Y-110251204D01*
X204225000Y-110250000D01*
X205150000Y-110250000D01*
X205174504Y-110251204D01*
X205174504Y-110251204D01*
G37*
D14*
X204687500Y-111125000D03*
D12*
G36*
X202199504Y-110251204D02*
X202223773Y-110254804D01*
X202247571Y-110260765D01*
X202270671Y-110269030D01*
X202292849Y-110279520D01*
X202313893Y-110292133D01*
X202333598Y-110306747D01*
X202351777Y-110323223D01*
X202368253Y-110341402D01*
X202382867Y-110361107D01*
X202395480Y-110382151D01*
X202405970Y-110404329D01*
X202414235Y-110427429D01*
X202420196Y-110451227D01*
X202423796Y-110475496D01*
X202425000Y-110500000D01*
X202425000Y-111750000D01*
X202423796Y-111774504D01*
X202420196Y-111798773D01*
X202414235Y-111822571D01*
X202405970Y-111845671D01*
X202395480Y-111867849D01*
X202382867Y-111888893D01*
X202368253Y-111908598D01*
X202351777Y-111926777D01*
X202333598Y-111943253D01*
X202313893Y-111957867D01*
X202292849Y-111970480D01*
X202270671Y-111980970D01*
X202247571Y-111989235D01*
X202223773Y-111995196D01*
X202199504Y-111998796D01*
X202175000Y-112000000D01*
X201250000Y-112000000D01*
X201225496Y-111998796D01*
X201201227Y-111995196D01*
X201177429Y-111989235D01*
X201154329Y-111980970D01*
X201132151Y-111970480D01*
X201111107Y-111957867D01*
X201091402Y-111943253D01*
X201073223Y-111926777D01*
X201056747Y-111908598D01*
X201042133Y-111888893D01*
X201029520Y-111867849D01*
X201019030Y-111845671D01*
X201010765Y-111822571D01*
X201004804Y-111798773D01*
X201001204Y-111774504D01*
X201000000Y-111750000D01*
X201000000Y-110500000D01*
X201001204Y-110475496D01*
X201004804Y-110451227D01*
X201010765Y-110427429D01*
X201019030Y-110404329D01*
X201029520Y-110382151D01*
X201042133Y-110361107D01*
X201056747Y-110341402D01*
X201073223Y-110323223D01*
X201091402Y-110306747D01*
X201111107Y-110292133D01*
X201132151Y-110279520D01*
X201154329Y-110269030D01*
X201177429Y-110260765D01*
X201201227Y-110254804D01*
X201225496Y-110251204D01*
X201250000Y-110250000D01*
X202175000Y-110250000D01*
X202199504Y-110251204D01*
X202199504Y-110251204D01*
G37*
D14*
X201712500Y-111125000D03*
D12*
G36*
X223172504Y-110251204D02*
X223196773Y-110254804D01*
X223220571Y-110260765D01*
X223243671Y-110269030D01*
X223265849Y-110279520D01*
X223286893Y-110292133D01*
X223306598Y-110306747D01*
X223324777Y-110323223D01*
X223341253Y-110341402D01*
X223355867Y-110361107D01*
X223368480Y-110382151D01*
X223378970Y-110404329D01*
X223387235Y-110427429D01*
X223393196Y-110451227D01*
X223396796Y-110475496D01*
X223398000Y-110500000D01*
X223398000Y-111750000D01*
X223396796Y-111774504D01*
X223393196Y-111798773D01*
X223387235Y-111822571D01*
X223378970Y-111845671D01*
X223368480Y-111867849D01*
X223355867Y-111888893D01*
X223341253Y-111908598D01*
X223324777Y-111926777D01*
X223306598Y-111943253D01*
X223286893Y-111957867D01*
X223265849Y-111970480D01*
X223243671Y-111980970D01*
X223220571Y-111989235D01*
X223196773Y-111995196D01*
X223172504Y-111998796D01*
X223148000Y-112000000D01*
X222223000Y-112000000D01*
X222198496Y-111998796D01*
X222174227Y-111995196D01*
X222150429Y-111989235D01*
X222127329Y-111980970D01*
X222105151Y-111970480D01*
X222084107Y-111957867D01*
X222064402Y-111943253D01*
X222046223Y-111926777D01*
X222029747Y-111908598D01*
X222015133Y-111888893D01*
X222002520Y-111867849D01*
X221992030Y-111845671D01*
X221983765Y-111822571D01*
X221977804Y-111798773D01*
X221974204Y-111774504D01*
X221973000Y-111750000D01*
X221973000Y-110500000D01*
X221974204Y-110475496D01*
X221977804Y-110451227D01*
X221983765Y-110427429D01*
X221992030Y-110404329D01*
X222002520Y-110382151D01*
X222015133Y-110361107D01*
X222029747Y-110341402D01*
X222046223Y-110323223D01*
X222064402Y-110306747D01*
X222084107Y-110292133D01*
X222105151Y-110279520D01*
X222127329Y-110269030D01*
X222150429Y-110260765D01*
X222174227Y-110254804D01*
X222198496Y-110251204D01*
X222223000Y-110250000D01*
X223148000Y-110250000D01*
X223172504Y-110251204D01*
X223172504Y-110251204D01*
G37*
D14*
X222685500Y-111125000D03*
D12*
G36*
X220197504Y-110251204D02*
X220221773Y-110254804D01*
X220245571Y-110260765D01*
X220268671Y-110269030D01*
X220290849Y-110279520D01*
X220311893Y-110292133D01*
X220331598Y-110306747D01*
X220349777Y-110323223D01*
X220366253Y-110341402D01*
X220380867Y-110361107D01*
X220393480Y-110382151D01*
X220403970Y-110404329D01*
X220412235Y-110427429D01*
X220418196Y-110451227D01*
X220421796Y-110475496D01*
X220423000Y-110500000D01*
X220423000Y-111750000D01*
X220421796Y-111774504D01*
X220418196Y-111798773D01*
X220412235Y-111822571D01*
X220403970Y-111845671D01*
X220393480Y-111867849D01*
X220380867Y-111888893D01*
X220366253Y-111908598D01*
X220349777Y-111926777D01*
X220331598Y-111943253D01*
X220311893Y-111957867D01*
X220290849Y-111970480D01*
X220268671Y-111980970D01*
X220245571Y-111989235D01*
X220221773Y-111995196D01*
X220197504Y-111998796D01*
X220173000Y-112000000D01*
X219248000Y-112000000D01*
X219223496Y-111998796D01*
X219199227Y-111995196D01*
X219175429Y-111989235D01*
X219152329Y-111980970D01*
X219130151Y-111970480D01*
X219109107Y-111957867D01*
X219089402Y-111943253D01*
X219071223Y-111926777D01*
X219054747Y-111908598D01*
X219040133Y-111888893D01*
X219027520Y-111867849D01*
X219017030Y-111845671D01*
X219008765Y-111822571D01*
X219002804Y-111798773D01*
X218999204Y-111774504D01*
X218998000Y-111750000D01*
X218998000Y-110500000D01*
X218999204Y-110475496D01*
X219002804Y-110451227D01*
X219008765Y-110427429D01*
X219017030Y-110404329D01*
X219027520Y-110382151D01*
X219040133Y-110361107D01*
X219054747Y-110341402D01*
X219071223Y-110323223D01*
X219089402Y-110306747D01*
X219109107Y-110292133D01*
X219130151Y-110279520D01*
X219152329Y-110269030D01*
X219175429Y-110260765D01*
X219199227Y-110254804D01*
X219223496Y-110251204D01*
X219248000Y-110250000D01*
X220173000Y-110250000D01*
X220197504Y-110251204D01*
X220197504Y-110251204D01*
G37*
D14*
X219710500Y-111125000D03*
D12*
G36*
X175746504Y-108346204D02*
X175770773Y-108349804D01*
X175794571Y-108355765D01*
X175817671Y-108364030D01*
X175839849Y-108374520D01*
X175860893Y-108387133D01*
X175880598Y-108401747D01*
X175898777Y-108418223D01*
X175915253Y-108436402D01*
X175929867Y-108456107D01*
X175942480Y-108477151D01*
X175952970Y-108499329D01*
X175961235Y-108522429D01*
X175967196Y-108546227D01*
X175970796Y-108570496D01*
X175972000Y-108595000D01*
X175972000Y-109845000D01*
X175970796Y-109869504D01*
X175967196Y-109893773D01*
X175961235Y-109917571D01*
X175952970Y-109940671D01*
X175942480Y-109962849D01*
X175929867Y-109983893D01*
X175915253Y-110003598D01*
X175898777Y-110021777D01*
X175880598Y-110038253D01*
X175860893Y-110052867D01*
X175839849Y-110065480D01*
X175817671Y-110075970D01*
X175794571Y-110084235D01*
X175770773Y-110090196D01*
X175746504Y-110093796D01*
X175722000Y-110095000D01*
X174797000Y-110095000D01*
X174772496Y-110093796D01*
X174748227Y-110090196D01*
X174724429Y-110084235D01*
X174701329Y-110075970D01*
X174679151Y-110065480D01*
X174658107Y-110052867D01*
X174638402Y-110038253D01*
X174620223Y-110021777D01*
X174603747Y-110003598D01*
X174589133Y-109983893D01*
X174576520Y-109962849D01*
X174566030Y-109940671D01*
X174557765Y-109917571D01*
X174551804Y-109893773D01*
X174548204Y-109869504D01*
X174547000Y-109845000D01*
X174547000Y-108595000D01*
X174548204Y-108570496D01*
X174551804Y-108546227D01*
X174557765Y-108522429D01*
X174566030Y-108499329D01*
X174576520Y-108477151D01*
X174589133Y-108456107D01*
X174603747Y-108436402D01*
X174620223Y-108418223D01*
X174638402Y-108401747D01*
X174658107Y-108387133D01*
X174679151Y-108374520D01*
X174701329Y-108364030D01*
X174724429Y-108355765D01*
X174748227Y-108349804D01*
X174772496Y-108346204D01*
X174797000Y-108345000D01*
X175722000Y-108345000D01*
X175746504Y-108346204D01*
X175746504Y-108346204D01*
G37*
D14*
X175259500Y-109220000D03*
D12*
G36*
X172771504Y-108346204D02*
X172795773Y-108349804D01*
X172819571Y-108355765D01*
X172842671Y-108364030D01*
X172864849Y-108374520D01*
X172885893Y-108387133D01*
X172905598Y-108401747D01*
X172923777Y-108418223D01*
X172940253Y-108436402D01*
X172954867Y-108456107D01*
X172967480Y-108477151D01*
X172977970Y-108499329D01*
X172986235Y-108522429D01*
X172992196Y-108546227D01*
X172995796Y-108570496D01*
X172997000Y-108595000D01*
X172997000Y-109845000D01*
X172995796Y-109869504D01*
X172992196Y-109893773D01*
X172986235Y-109917571D01*
X172977970Y-109940671D01*
X172967480Y-109962849D01*
X172954867Y-109983893D01*
X172940253Y-110003598D01*
X172923777Y-110021777D01*
X172905598Y-110038253D01*
X172885893Y-110052867D01*
X172864849Y-110065480D01*
X172842671Y-110075970D01*
X172819571Y-110084235D01*
X172795773Y-110090196D01*
X172771504Y-110093796D01*
X172747000Y-110095000D01*
X171822000Y-110095000D01*
X171797496Y-110093796D01*
X171773227Y-110090196D01*
X171749429Y-110084235D01*
X171726329Y-110075970D01*
X171704151Y-110065480D01*
X171683107Y-110052867D01*
X171663402Y-110038253D01*
X171645223Y-110021777D01*
X171628747Y-110003598D01*
X171614133Y-109983893D01*
X171601520Y-109962849D01*
X171591030Y-109940671D01*
X171582765Y-109917571D01*
X171576804Y-109893773D01*
X171573204Y-109869504D01*
X171572000Y-109845000D01*
X171572000Y-108595000D01*
X171573204Y-108570496D01*
X171576804Y-108546227D01*
X171582765Y-108522429D01*
X171591030Y-108499329D01*
X171601520Y-108477151D01*
X171614133Y-108456107D01*
X171628747Y-108436402D01*
X171645223Y-108418223D01*
X171663402Y-108401747D01*
X171683107Y-108387133D01*
X171704151Y-108374520D01*
X171726329Y-108364030D01*
X171749429Y-108355765D01*
X171773227Y-108349804D01*
X171797496Y-108346204D01*
X171822000Y-108345000D01*
X172747000Y-108345000D01*
X172771504Y-108346204D01*
X172771504Y-108346204D01*
G37*
D14*
X172284500Y-109220000D03*
D17*
X213360000Y-116840000D03*
X213360000Y-119380000D03*
X210820000Y-116840000D03*
X210820000Y-119380000D03*
X208280000Y-116840000D03*
X208280000Y-119380000D03*
X205740000Y-116840000D03*
X205740000Y-119380000D03*
X203200000Y-116840000D03*
X203200000Y-119380000D03*
X200660000Y-116840000D03*
X200660000Y-119380000D03*
X198120000Y-116840000D03*
X198120000Y-119380000D03*
X195580000Y-116840000D03*
X195580000Y-119380000D03*
X193040000Y-116840000D03*
X193040000Y-119380000D03*
X190500000Y-116840000D03*
X190500000Y-119380000D03*
X187960000Y-116840000D03*
X187960000Y-119380000D03*
X185420000Y-116840000D03*
X185420000Y-119380000D03*
X182880000Y-116840000D03*
X182880000Y-119380000D03*
X180340000Y-116840000D03*
X180340000Y-119380000D03*
X177800000Y-116840000D03*
X177800000Y-119380000D03*
X175260000Y-116840000D03*
X175260000Y-119380000D03*
X172720000Y-116840000D03*
D18*
X172720000Y-119380000D03*
D16*
X180340000Y-99060000D03*
D15*
X180340000Y-96520000D03*
X182880000Y-99060000D03*
X182880000Y-96520000D03*
X185420000Y-99060000D03*
X185420000Y-96520000D03*
X187960000Y-99060000D03*
X187960000Y-96520000D03*
X190500000Y-99060000D03*
X190500000Y-96520000D03*
X193040000Y-99060000D03*
X193040000Y-96520000D03*
X195580000Y-99060000D03*
X195580000Y-96520000D03*
X198120000Y-99060000D03*
X198120000Y-96520000D03*
X200660000Y-99060000D03*
X200660000Y-96520000D03*
X203200000Y-99060000D03*
X203200000Y-96520000D03*
X205740000Y-99060000D03*
X205740000Y-96520000D03*
X208280000Y-99060000D03*
X208280000Y-96520000D03*
X210820000Y-99060000D03*
X210820000Y-96520000D03*
X213360000Y-99060000D03*
X213360000Y-96520000D03*
X215900000Y-99060000D03*
X215900000Y-96520000D03*
X218440000Y-99060000D03*
X218440000Y-96520000D03*
X220980000Y-99060000D03*
X220980000Y-96520000D03*
D19*
X203471500Y-111409500D03*
X209260600Y-111770200D03*
D20*
X182880000Y-99060000D02*
X184055300Y-99060000D01*
X185420000Y-98472300D02*
X184643000Y-98472300D01*
X184643000Y-98472300D02*
X184055300Y-99060000D01*
X185420000Y-98472300D02*
X185420000Y-97884700D01*
X185420000Y-99060000D02*
X185420000Y-98472300D01*
X189150600Y-99060000D02*
X187960000Y-99060000D01*
X190500000Y-99060000D02*
X189150600Y-99060000D01*
X189150600Y-99060000D02*
X189150600Y-96019900D01*
X189150600Y-96019900D02*
X188442400Y-95311700D01*
X188442400Y-95311700D02*
X187496700Y-95311700D01*
X187496700Y-95311700D02*
X186595300Y-96213100D01*
X186595300Y-96213100D02*
X186595300Y-97076800D01*
X186595300Y-97076800D02*
X185787400Y-97884700D01*
X185787400Y-97884700D02*
X185420000Y-97884700D01*
X180340000Y-119380000D02*
X182880000Y-119380000D01*
X177800000Y-119380000D02*
X180340000Y-119380000D01*
X180139500Y-103505000D02*
X180557500Y-103923000D01*
X180557500Y-103923000D02*
X180557500Y-109220000D01*
X180139500Y-103505000D02*
X180340000Y-103304500D01*
X180340000Y-103304500D02*
X180340000Y-99060000D01*
X180340000Y-99060000D02*
X179164700Y-99060000D01*
X179164700Y-99060000D02*
X177179700Y-97075000D01*
X177179700Y-97075000D02*
X177165000Y-97075000D01*
X182880000Y-99060000D02*
X180340000Y-99060000D01*
X163115000Y-109220000D02*
X165100000Y-109220000D01*
X163115000Y-109220000D02*
X162560000Y-109220000D01*
X163115000Y-109220000D02*
X163115000Y-106045000D01*
X210820000Y-119380000D02*
X213360000Y-119380000D01*
X208280000Y-119380000D02*
X210820000Y-119380000D01*
X205740000Y-119380000D02*
X208280000Y-119380000D01*
X203200000Y-119380000D02*
X205740000Y-119380000D01*
X200660000Y-119380000D02*
X203200000Y-119380000D01*
X198120000Y-119380000D02*
X200660000Y-119380000D01*
X195580000Y-119380000D02*
X198120000Y-119380000D01*
X193040000Y-119380000D02*
X195580000Y-119380000D01*
X190500000Y-119380000D02*
X193040000Y-119380000D01*
X187960000Y-119380000D02*
X190500000Y-119380000D01*
X185420000Y-119380000D02*
X187960000Y-119380000D01*
X182880000Y-119380000D02*
X185420000Y-119380000D01*
X175260000Y-119380000D02*
X177800000Y-119380000D01*
X172720000Y-119380000D02*
X175260000Y-119380000D01*
X193040000Y-99060000D02*
X190500000Y-99060000D01*
X195580000Y-99060000D02*
X193040000Y-99060000D01*
X198120000Y-99060000D02*
X195580000Y-99060000D01*
X200660000Y-99060000D02*
X198120000Y-99060000D01*
X203200000Y-99060000D02*
X200660000Y-99060000D01*
X205740000Y-99060000D02*
X203200000Y-99060000D01*
X208280000Y-99060000D02*
X205740000Y-99060000D01*
X210820000Y-99060000D02*
X208280000Y-99060000D01*
X213360000Y-99060000D02*
X210820000Y-99060000D01*
X215900000Y-99060000D02*
X213360000Y-99060000D01*
X218440000Y-99060000D02*
X215900000Y-99060000D01*
X220980000Y-99060000D02*
X218440000Y-99060000D01*
X220980000Y-96520000D02*
X220980000Y-97695300D01*
X220980000Y-97695300D02*
X221347300Y-97695300D01*
X221347300Y-97695300D02*
X222685500Y-99033500D01*
X222685500Y-99033500D02*
X222685500Y-111125000D01*
X172720000Y-116840000D02*
X153321000Y-116840000D01*
X153321000Y-116840000D02*
X150985300Y-114504300D01*
X150985300Y-114504300D02*
X150985300Y-114300000D01*
X149860000Y-114300000D02*
X150985300Y-114300000D01*
X187960000Y-96520000D02*
X187960000Y-97695300D01*
X187960000Y-97695300D02*
X187592700Y-97695300D01*
X187592700Y-97695300D02*
X186744400Y-98543600D01*
X186744400Y-98543600D02*
X186744400Y-104611900D01*
X186744400Y-104611900D02*
X186907500Y-104775000D01*
X154940000Y-114300000D02*
X157480000Y-114300000D01*
X182880000Y-116840000D02*
X180340000Y-114300000D01*
X180340000Y-114300000D02*
X157480000Y-114300000D01*
X203471500Y-111409500D02*
X204403000Y-111409500D01*
X204403000Y-111409500D02*
X204687500Y-111125000D01*
X201712500Y-111125000D02*
X187303300Y-111125000D01*
X187303300Y-111125000D02*
X183932500Y-107754200D01*
X209260600Y-111770200D02*
X208701200Y-112329600D01*
X208701200Y-112329600D02*
X202917100Y-112329600D01*
X202917100Y-112329600D02*
X201712500Y-111125000D01*
X183932500Y-107754200D02*
X183932500Y-104775000D01*
X172284500Y-109220000D02*
X173503400Y-110438900D01*
X173503400Y-110438900D02*
X181247800Y-110438900D01*
X181247800Y-110438900D02*
X183932500Y-107754200D01*
X167640000Y-109220000D02*
X172284500Y-109220000D01*
X167640000Y-109220000D02*
X167640000Y-107870000D01*
X167640000Y-107870000D02*
X165815000Y-106045000D01*
X219710500Y-111125000D02*
X219065300Y-111770200D01*
X219065300Y-111770200D02*
X209260600Y-111770200D01*
X160020000Y-109220000D02*
X160020000Y-107407100D01*
X160020000Y-107407100D02*
X162877200Y-104549900D01*
X162877200Y-104549900D02*
X176119600Y-104549900D01*
X176119600Y-104549900D02*
X177164500Y-103505000D01*
X177164500Y-103505000D02*
X177165000Y-103504500D01*
X177165000Y-103504500D02*
X177165000Y-99775000D01*
X144780000Y-114300000D02*
X145905300Y-114300000D01*
X213360000Y-116840000D02*
X212248800Y-117951200D01*
X212248800Y-117951200D02*
X149275200Y-117951200D01*
X149275200Y-117951200D02*
X145905300Y-114581300D01*
X145905300Y-114581300D02*
X145905300Y-114300000D01*
X177582500Y-109220000D02*
X175259500Y-109220000D01*
D21*
G36*
X225373000Y-123775000D02*
X127685000Y-123775000D01*
X127685000Y-121070000D01*
X135662560Y-121070000D01*
X135662560Y-122770000D01*
X135711843Y-123017765D01*
X135852191Y-123227809D01*
X136062235Y-123368157D01*
X136310000Y-123417440D01*
X138010000Y-123417440D01*
X138257765Y-123368157D01*
X138467809Y-123227809D01*
X138608157Y-123017765D01*
X138657440Y-122770000D01*
X138657440Y-121920000D01*
X140776887Y-121920000D01*
X140888260Y-122479909D01*
X141205423Y-122954577D01*
X141680091Y-123271740D01*
X142098667Y-123355000D01*
X142381333Y-123355000D01*
X142799909Y-123271740D01*
X143274577Y-122954577D01*
X143510000Y-122602242D01*
X143745423Y-122954577D01*
X144220091Y-123271740D01*
X144638667Y-123355000D01*
X144921333Y-123355000D01*
X145339909Y-123271740D01*
X145814577Y-122954577D01*
X146050000Y-122602242D01*
X146285423Y-122954577D01*
X146760091Y-123271740D01*
X147178667Y-123355000D01*
X147461333Y-123355000D01*
X147879909Y-123271740D01*
X148354577Y-122954577D01*
X148590000Y-122602242D01*
X148825423Y-122954577D01*
X149300091Y-123271740D01*
X149718667Y-123355000D01*
X150001333Y-123355000D01*
X150419909Y-123271740D01*
X150894577Y-122954577D01*
X151130000Y-122602242D01*
X151365423Y-122954577D01*
X151840091Y-123271740D01*
X152258667Y-123355000D01*
X152541333Y-123355000D01*
X152959909Y-123271740D01*
X153434577Y-122954577D01*
X153670000Y-122602242D01*
X153905423Y-122954577D01*
X154380091Y-123271740D01*
X154798667Y-123355000D01*
X155081333Y-123355000D01*
X155499909Y-123271740D01*
X155974577Y-122954577D01*
X156210000Y-122602242D01*
X156445423Y-122954577D01*
X156920091Y-123271740D01*
X157338667Y-123355000D01*
X157621333Y-123355000D01*
X158039909Y-123271740D01*
X158514577Y-122954577D01*
X158831740Y-122479909D01*
X158943113Y-121920000D01*
X158831740Y-121360091D01*
X158514577Y-120885423D01*
X158039909Y-120568260D01*
X157621333Y-120485000D01*
X157338667Y-120485000D01*
X156920091Y-120568260D01*
X156445423Y-120885423D01*
X156210000Y-121237758D01*
X155974577Y-120885423D01*
X155499909Y-120568260D01*
X155081333Y-120485000D01*
X154798667Y-120485000D01*
X154380091Y-120568260D01*
X153905423Y-120885423D01*
X153670000Y-121237758D01*
X153434577Y-120885423D01*
X152959909Y-120568260D01*
X152541333Y-120485000D01*
X152258667Y-120485000D01*
X151840091Y-120568260D01*
X151365423Y-120885423D01*
X151130000Y-121237758D01*
X150894577Y-120885423D01*
X150419909Y-120568260D01*
X150001333Y-120485000D01*
X149718667Y-120485000D01*
X149300091Y-120568260D01*
X148825423Y-120885423D01*
X148590000Y-121237758D01*
X148354577Y-120885423D01*
X147879909Y-120568260D01*
X147461333Y-120485000D01*
X147178667Y-120485000D01*
X146760091Y-120568260D01*
X146285423Y-120885423D01*
X146050000Y-121237758D01*
X145814577Y-120885423D01*
X145339909Y-120568260D01*
X144921333Y-120485000D01*
X144638667Y-120485000D01*
X144220091Y-120568260D01*
X143745423Y-120885423D01*
X143510000Y-121237758D01*
X143274577Y-120885423D01*
X142799909Y-120568260D01*
X142381333Y-120485000D01*
X142098667Y-120485000D01*
X141680091Y-120568260D01*
X141205423Y-120885423D01*
X140888260Y-121360091D01*
X140776887Y-121920000D01*
X138657440Y-121920000D01*
X138657440Y-121070000D01*
X138608157Y-120822235D01*
X138467809Y-120612191D01*
X138257765Y-120471843D01*
X138154292Y-120451261D01*
X138431645Y-120146924D01*
X138601476Y-119736890D01*
X138563933Y-119665750D01*
X171325000Y-119665750D01*
X171325000Y-120266310D01*
X171421673Y-120499699D01*
X171600302Y-120678327D01*
X171833691Y-120775000D01*
X172434250Y-120775000D01*
X172593000Y-120616250D01*
X172593000Y-119507000D01*
X171483750Y-119507000D01*
X171325000Y-119665750D01*
X138563933Y-119665750D01*
X138480155Y-119507000D01*
X137287000Y-119507000D01*
X137287000Y-119527000D01*
X137033000Y-119527000D01*
X137033000Y-119507000D01*
X135839845Y-119507000D01*
X135718524Y-119736890D01*
X135888355Y-120146924D01*
X136165708Y-120451261D01*
X136062235Y-120471843D01*
X135852191Y-120612191D01*
X135711843Y-120822235D01*
X135662560Y-121070000D01*
X127685000Y-121070000D01*
X127685000Y-117196890D01*
X135718524Y-117196890D01*
X135888355Y-117606924D01*
X136278642Y-118035183D01*
X136437954Y-118110000D01*
X136278642Y-118184817D01*
X135888355Y-118613076D01*
X135718524Y-119023110D01*
X135839845Y-119253000D01*
X137033000Y-119253000D01*
X137033000Y-116967000D01*
X137287000Y-116967000D01*
X137287000Y-119253000D01*
X138480155Y-119253000D01*
X138601476Y-119023110D01*
X138431645Y-118613076D01*
X138041358Y-118184817D01*
X137882046Y-118110000D01*
X138041358Y-118035183D01*
X138431645Y-117606924D01*
X138601476Y-117196890D01*
X138480155Y-116967000D01*
X137287000Y-116967000D01*
X137033000Y-116967000D01*
X135839845Y-116967000D01*
X135718524Y-117196890D01*
X127685000Y-117196890D01*
X127685000Y-114300000D01*
X135645908Y-114300000D01*
X135761161Y-114879418D01*
X136089375Y-115370625D01*
X136408478Y-115583843D01*
X136278642Y-115644817D01*
X135888355Y-116073076D01*
X135718524Y-116483110D01*
X135839845Y-116713000D01*
X137033000Y-116713000D01*
X137033000Y-116693000D01*
X137287000Y-116693000D01*
X137287000Y-116713000D01*
X138480155Y-116713000D01*
X138601476Y-116483110D01*
X138431645Y-116073076D01*
X138041358Y-115644817D01*
X137911522Y-115583843D01*
X138230625Y-115370625D01*
X138558839Y-114879418D01*
X138604663Y-114649041D01*
X140848086Y-114649041D01*
X141087611Y-115155134D01*
X141502577Y-115531041D01*
X141890961Y-115691904D01*
X142113000Y-115569915D01*
X142113000Y-114427000D01*
X140969371Y-114427000D01*
X140848086Y-114649041D01*
X138604663Y-114649041D01*
X138674092Y-114300000D01*
X138604664Y-113950959D01*
X140848086Y-113950959D01*
X140969371Y-114173000D01*
X142113000Y-114173000D01*
X142113000Y-113030085D01*
X142367000Y-113030085D01*
X142367000Y-114173000D01*
X142387000Y-114173000D01*
X142387000Y-114427000D01*
X142367000Y-114427000D01*
X142367000Y-115569915D01*
X142589039Y-115691904D01*
X142977423Y-115531041D01*
X143392389Y-115155134D01*
X143489053Y-114950892D01*
X143745423Y-115334577D01*
X144220091Y-115651740D01*
X144638667Y-115735000D01*
X144921333Y-115735000D01*
X145339909Y-115651740D01*
X145676222Y-115427023D01*
X148684871Y-118435673D01*
X148727271Y-118499129D01*
X148978663Y-118667104D01*
X149200348Y-118711200D01*
X149200352Y-118711200D01*
X149275199Y-118726088D01*
X149350046Y-118711200D01*
X171325000Y-118711200D01*
X171325000Y-119094250D01*
X171483750Y-119253000D01*
X172593000Y-119253000D01*
X172593000Y-119233000D01*
X172847000Y-119233000D01*
X172847000Y-119253000D01*
X172867000Y-119253000D01*
X172867000Y-119507000D01*
X172847000Y-119507000D01*
X172847000Y-120616250D01*
X173005750Y-120775000D01*
X173606309Y-120775000D01*
X173839698Y-120678327D01*
X174018327Y-120499699D01*
X174076704Y-120358764D01*
X174460841Y-120358764D01*
X174530059Y-120600742D01*
X175052780Y-120787155D01*
X175607049Y-120759341D01*
X175989941Y-120600742D01*
X176059159Y-120358764D01*
X177000841Y-120358764D01*
X177070059Y-120600742D01*
X177592780Y-120787155D01*
X178147049Y-120759341D01*
X178529941Y-120600742D01*
X178599159Y-120358764D01*
X179540841Y-120358764D01*
X179610059Y-120600742D01*
X180132780Y-120787155D01*
X180687049Y-120759341D01*
X181069941Y-120600742D01*
X181139159Y-120358764D01*
X182080841Y-120358764D01*
X182150059Y-120600742D01*
X182672780Y-120787155D01*
X183227049Y-120759341D01*
X183609941Y-120600742D01*
X183679159Y-120358764D01*
X184620841Y-120358764D01*
X184690059Y-120600742D01*
X185212780Y-120787155D01*
X185767049Y-120759341D01*
X186149941Y-120600742D01*
X186219159Y-120358764D01*
X187160841Y-120358764D01*
X187230059Y-120600742D01*
X187752780Y-120787155D01*
X188307049Y-120759341D01*
X188689941Y-120600742D01*
X188759159Y-120358764D01*
X189700841Y-120358764D01*
X189770059Y-120600742D01*
X190292780Y-120787155D01*
X190847049Y-120759341D01*
X191229941Y-120600742D01*
X191299159Y-120358764D01*
X192240841Y-120358764D01*
X192310059Y-120600742D01*
X192832780Y-120787155D01*
X193387049Y-120759341D01*
X193769941Y-120600742D01*
X193839159Y-120358764D01*
X194780841Y-120358764D01*
X194850059Y-120600742D01*
X195372780Y-120787155D01*
X195927049Y-120759341D01*
X196309941Y-120600742D01*
X196379159Y-120358764D01*
X197320841Y-120358764D01*
X197390059Y-120600742D01*
X197912780Y-120787155D01*
X198467049Y-120759341D01*
X198849941Y-120600742D01*
X198919159Y-120358764D01*
X199860841Y-120358764D01*
X199930059Y-120600742D01*
X200452780Y-120787155D01*
X201007049Y-120759341D01*
X201389941Y-120600742D01*
X201459159Y-120358764D01*
X202400841Y-120358764D01*
X202470059Y-120600742D01*
X202992780Y-120787155D01*
X203547049Y-120759341D01*
X203929941Y-120600742D01*
X203999159Y-120358764D01*
X204940841Y-120358764D01*
X205010059Y-120600742D01*
X205532780Y-120787155D01*
X206087049Y-120759341D01*
X206469941Y-120600742D01*
X206539159Y-120358764D01*
X207480841Y-120358764D01*
X207550059Y-120600742D01*
X208072780Y-120787155D01*
X208627049Y-120759341D01*
X209009941Y-120600742D01*
X209079159Y-120358764D01*
X210020841Y-120358764D01*
X210090059Y-120600742D01*
X210612780Y-120787155D01*
X211167049Y-120759341D01*
X211549941Y-120600742D01*
X211619159Y-120358764D01*
X212560841Y-120358764D01*
X212630059Y-120600742D01*
X213152780Y-120787155D01*
X213707049Y-120759341D01*
X214089941Y-120600742D01*
X214159159Y-120358764D01*
X213360000Y-119559605D01*
X212560841Y-120358764D01*
X211619159Y-120358764D01*
X210820000Y-119559605D01*
X210020841Y-120358764D01*
X209079159Y-120358764D01*
X208280000Y-119559605D01*
X207480841Y-120358764D01*
X206539159Y-120358764D01*
X205740000Y-119559605D01*
X204940841Y-120358764D01*
X203999159Y-120358764D01*
X203200000Y-119559605D01*
X202400841Y-120358764D01*
X201459159Y-120358764D01*
X200660000Y-119559605D01*
X199860841Y-120358764D01*
X198919159Y-120358764D01*
X198120000Y-119559605D01*
X197320841Y-120358764D01*
X196379159Y-120358764D01*
X195580000Y-119559605D01*
X194780841Y-120358764D01*
X193839159Y-120358764D01*
X193040000Y-119559605D01*
X192240841Y-120358764D01*
X191299159Y-120358764D01*
X190500000Y-119559605D01*
X189700841Y-120358764D01*
X188759159Y-120358764D01*
X187960000Y-119559605D01*
X187160841Y-120358764D01*
X186219159Y-120358764D01*
X185420000Y-119559605D01*
X184620841Y-120358764D01*
X183679159Y-120358764D01*
X182880000Y-119559605D01*
X182080841Y-120358764D01*
X181139159Y-120358764D01*
X180340000Y-119559605D01*
X179540841Y-120358764D01*
X178599159Y-120358764D01*
X177800000Y-119559605D01*
X177000841Y-120358764D01*
X176059159Y-120358764D01*
X175260000Y-119559605D01*
X174460841Y-120358764D01*
X174076704Y-120358764D01*
X174115000Y-120266310D01*
X174115000Y-120131607D01*
X174281236Y-120179159D01*
X175080395Y-119380000D01*
X175066253Y-119365858D01*
X175245858Y-119186253D01*
X175260000Y-119200395D01*
X175274143Y-119186253D01*
X175453748Y-119365858D01*
X175439605Y-119380000D01*
X176238764Y-120179159D01*
X176480742Y-120109941D01*
X176526320Y-119982137D01*
X176579258Y-120109941D01*
X176821236Y-120179159D01*
X177620395Y-119380000D01*
X177606253Y-119365858D01*
X177785858Y-119186253D01*
X177800000Y-119200395D01*
X177814143Y-119186253D01*
X177993748Y-119365858D01*
X177979605Y-119380000D01*
X178778764Y-120179159D01*
X179020742Y-120109941D01*
X179066320Y-119982137D01*
X179119258Y-120109941D01*
X179361236Y-120179159D01*
X180160395Y-119380000D01*
X180146253Y-119365858D01*
X180325858Y-119186253D01*
X180340000Y-119200395D01*
X180354143Y-119186253D01*
X180533748Y-119365858D01*
X180519605Y-119380000D01*
X181318764Y-120179159D01*
X181560742Y-120109941D01*
X181606320Y-119982137D01*
X181659258Y-120109941D01*
X181901236Y-120179159D01*
X182700395Y-119380000D01*
X182686253Y-119365858D01*
X182865858Y-119186253D01*
X182880000Y-119200395D01*
X182894143Y-119186253D01*
X183073748Y-119365858D01*
X183059605Y-119380000D01*
X183858764Y-120179159D01*
X184100742Y-120109941D01*
X184146320Y-119982137D01*
X184199258Y-120109941D01*
X184441236Y-120179159D01*
X185240395Y-119380000D01*
X185226253Y-119365858D01*
X185405858Y-119186253D01*
X185420000Y-119200395D01*
X185434143Y-119186253D01*
X185613748Y-119365858D01*
X185599605Y-119380000D01*
X186398764Y-120179159D01*
X186640742Y-120109941D01*
X186686320Y-119982137D01*
X186739258Y-120109941D01*
X186981236Y-120179159D01*
X187780395Y-119380000D01*
X187766253Y-119365858D01*
X187945858Y-119186253D01*
X187960000Y-119200395D01*
X187974143Y-119186253D01*
X188153748Y-119365858D01*
X188139605Y-119380000D01*
X188938764Y-120179159D01*
X189180742Y-120109941D01*
X189226320Y-119982137D01*
X189279258Y-120109941D01*
X189521236Y-120179159D01*
X190320395Y-119380000D01*
X190306253Y-119365858D01*
X190485858Y-119186253D01*
X190500000Y-119200395D01*
X190514143Y-119186253D01*
X190693748Y-119365858D01*
X190679605Y-119380000D01*
X191478764Y-120179159D01*
X191720742Y-120109941D01*
X191766320Y-119982137D01*
X191819258Y-120109941D01*
X192061236Y-120179159D01*
X192860395Y-119380000D01*
X192846253Y-119365858D01*
X193025858Y-119186253D01*
X193040000Y-119200395D01*
X193054143Y-119186253D01*
X193233748Y-119365858D01*
X193219605Y-119380000D01*
X194018764Y-120179159D01*
X194260742Y-120109941D01*
X194306320Y-119982137D01*
X194359258Y-120109941D01*
X194601236Y-120179159D01*
X195400395Y-119380000D01*
X195386253Y-119365858D01*
X195565858Y-119186253D01*
X195580000Y-119200395D01*
X195594143Y-119186253D01*
X195773748Y-119365858D01*
X195759605Y-119380000D01*
X196558764Y-120179159D01*
X196800742Y-120109941D01*
X196846320Y-119982137D01*
X196899258Y-120109941D01*
X197141236Y-120179159D01*
X197940395Y-119380000D01*
X197926253Y-119365858D01*
X198105858Y-119186253D01*
X198120000Y-119200395D01*
X198134143Y-119186253D01*
X198313748Y-119365858D01*
X198299605Y-119380000D01*
X199098764Y-120179159D01*
X199340742Y-120109941D01*
X199386320Y-119982137D01*
X199439258Y-120109941D01*
X199681236Y-120179159D01*
X200480395Y-119380000D01*
X200466253Y-119365858D01*
X200645858Y-119186253D01*
X200660000Y-119200395D01*
X200674143Y-119186253D01*
X200853748Y-119365858D01*
X200839605Y-119380000D01*
X201638764Y-120179159D01*
X201880742Y-120109941D01*
X201926320Y-119982137D01*
X201979258Y-120109941D01*
X202221236Y-120179159D01*
X203020395Y-119380000D01*
X203006253Y-119365858D01*
X203185858Y-119186253D01*
X203200000Y-119200395D01*
X203214143Y-119186253D01*
X203393748Y-119365858D01*
X203379605Y-119380000D01*
X204178764Y-120179159D01*
X204420742Y-120109941D01*
X204466320Y-119982137D01*
X204519258Y-120109941D01*
X204761236Y-120179159D01*
X205560395Y-119380000D01*
X205546253Y-119365858D01*
X205725858Y-119186253D01*
X205740000Y-119200395D01*
X205754143Y-119186253D01*
X205933748Y-119365858D01*
X205919605Y-119380000D01*
X206718764Y-120179159D01*
X206960742Y-120109941D01*
X207006320Y-119982137D01*
X207059258Y-120109941D01*
X207301236Y-120179159D01*
X208100395Y-119380000D01*
X208086253Y-119365858D01*
X208265858Y-119186253D01*
X208280000Y-119200395D01*
X208294143Y-119186253D01*
X208473748Y-119365858D01*
X208459605Y-119380000D01*
X209258764Y-120179159D01*
X209500742Y-120109941D01*
X209546320Y-119982137D01*
X209599258Y-120109941D01*
X209841236Y-120179159D01*
X210640395Y-119380000D01*
X210626253Y-119365858D01*
X210805858Y-119186253D01*
X210820000Y-119200395D01*
X210834143Y-119186253D01*
X211013748Y-119365858D01*
X210999605Y-119380000D01*
X211798764Y-120179159D01*
X212040742Y-120109941D01*
X212086320Y-119982137D01*
X212139258Y-120109941D01*
X212381236Y-120179159D01*
X213180395Y-119380000D01*
X213539605Y-119380000D01*
X214338764Y-120179159D01*
X214580742Y-120109941D01*
X214767155Y-119587220D01*
X214739341Y-119032951D01*
X214580742Y-118650059D01*
X214338764Y-118580841D01*
X213539605Y-119380000D01*
X213180395Y-119380000D01*
X213166253Y-119365858D01*
X213345858Y-119186253D01*
X213360000Y-119200395D01*
X214159159Y-118401236D01*
X214089941Y-118159258D01*
X213945069Y-118107594D01*
X214150204Y-118022624D01*
X214542624Y-117630204D01*
X214755000Y-117117483D01*
X214755000Y-116562517D01*
X214542624Y-116049796D01*
X214150204Y-115657376D01*
X213637483Y-115445000D01*
X213082517Y-115445000D01*
X212569796Y-115657376D01*
X212177376Y-116049796D01*
X212090000Y-116260740D01*
X212002624Y-116049796D01*
X211610204Y-115657376D01*
X211097483Y-115445000D01*
X210542517Y-115445000D01*
X210029796Y-115657376D01*
X209637376Y-116049796D01*
X209550000Y-116260740D01*
X209462624Y-116049796D01*
X209070204Y-115657376D01*
X208557483Y-115445000D01*
X208002517Y-115445000D01*
X207489796Y-115657376D01*
X207097376Y-116049796D01*
X207010000Y-116260740D01*
X206922624Y-116049796D01*
X206530204Y-115657376D01*
X206017483Y-115445000D01*
X205462517Y-115445000D01*
X204949796Y-115657376D01*
X204557376Y-116049796D01*
X204470000Y-116260740D01*
X204382624Y-116049796D01*
X203990204Y-115657376D01*
X203477483Y-115445000D01*
X202922517Y-115445000D01*
X202409796Y-115657376D01*
X202017376Y-116049796D01*
X201930000Y-116260740D01*
X201842624Y-116049796D01*
X201450204Y-115657376D01*
X200937483Y-115445000D01*
X200382517Y-115445000D01*
X199869796Y-115657376D01*
X199477376Y-116049796D01*
X199390000Y-116260740D01*
X199302624Y-116049796D01*
X198910204Y-115657376D01*
X198397483Y-115445000D01*
X197842517Y-115445000D01*
X197329796Y-115657376D01*
X196937376Y-116049796D01*
X196850000Y-116260740D01*
X196762624Y-116049796D01*
X196370204Y-115657376D01*
X195857483Y-115445000D01*
X195302517Y-115445000D01*
X194789796Y-115657376D01*
X194397376Y-116049796D01*
X194310000Y-116260740D01*
X194222624Y-116049796D01*
X193830204Y-115657376D01*
X193317483Y-115445000D01*
X192762517Y-115445000D01*
X192249796Y-115657376D01*
X191857376Y-116049796D01*
X191770000Y-116260740D01*
X191682624Y-116049796D01*
X191290204Y-115657376D01*
X190777483Y-115445000D01*
X190222517Y-115445000D01*
X189709796Y-115657376D01*
X189317376Y-116049796D01*
X189230000Y-116260740D01*
X189142624Y-116049796D01*
X188750204Y-115657376D01*
X188237483Y-115445000D01*
X187682517Y-115445000D01*
X187169796Y-115657376D01*
X186777376Y-116049796D01*
X186690000Y-116260740D01*
X186602624Y-116049796D01*
X186210204Y-115657376D01*
X185697483Y-115445000D01*
X185142517Y-115445000D01*
X184629796Y-115657376D01*
X184237376Y-116049796D01*
X184150000Y-116260740D01*
X184062624Y-116049796D01*
X183670204Y-115657376D01*
X183157483Y-115445000D01*
X182602517Y-115445000D01*
X182572313Y-115457511D01*
X180930331Y-113815530D01*
X180887929Y-113752071D01*
X180636537Y-113584096D01*
X180414852Y-113540000D01*
X180414847Y-113540000D01*
X180340000Y-113525112D01*
X180265153Y-113540000D01*
X158927440Y-113540000D01*
X158927440Y-113500000D01*
X158878157Y-113252235D01*
X158737809Y-113042191D01*
X158527765Y-112901843D01*
X158280000Y-112852560D01*
X156680000Y-112852560D01*
X156432235Y-112901843D01*
X156222191Y-113042191D01*
X156081843Y-113252235D01*
X156055215Y-113386106D01*
X155974577Y-113265423D01*
X155499909Y-112948260D01*
X155081333Y-112865000D01*
X154798667Y-112865000D01*
X154380091Y-112948260D01*
X153905423Y-113265423D01*
X153670000Y-113617758D01*
X153434577Y-113265423D01*
X152959909Y-112948260D01*
X152541333Y-112865000D01*
X152258667Y-112865000D01*
X151840091Y-112948260D01*
X151365423Y-113265423D01*
X151167667Y-113561386D01*
X151080786Y-113544104D01*
X150894577Y-113265423D01*
X150419909Y-112948260D01*
X150001333Y-112865000D01*
X149718667Y-112865000D01*
X149300091Y-112948260D01*
X148825423Y-113265423D01*
X148590000Y-113617758D01*
X148354577Y-113265423D01*
X147879909Y-112948260D01*
X147461333Y-112865000D01*
X147178667Y-112865000D01*
X146760091Y-112948260D01*
X146285423Y-113265423D01*
X146087667Y-113561386D01*
X146000786Y-113544104D01*
X145814577Y-113265423D01*
X145339909Y-112948260D01*
X144921333Y-112865000D01*
X144638667Y-112865000D01*
X144220091Y-112948260D01*
X143745423Y-113265423D01*
X143489053Y-113649108D01*
X143392389Y-113444866D01*
X142977423Y-113068959D01*
X142589039Y-112908096D01*
X142367000Y-113030085D01*
X142113000Y-113030085D01*
X141890961Y-112908096D01*
X141502577Y-113068959D01*
X141087611Y-113444866D01*
X140848086Y-113950959D01*
X138604664Y-113950959D01*
X138558839Y-113720582D01*
X138230625Y-113229375D01*
X137739418Y-112901161D01*
X137306256Y-112815000D01*
X137013744Y-112815000D01*
X136580582Y-112901161D01*
X136089375Y-113229375D01*
X135761161Y-113720582D01*
X135645908Y-114300000D01*
X127685000Y-114300000D01*
X127685000Y-112445000D01*
X157412539Y-112445000D01*
X157480000Y-112458419D01*
X157747273Y-112405255D01*
X157973857Y-112253857D01*
X158078369Y-112097443D01*
X158089803Y-112089803D01*
X158117333Y-112048601D01*
X158120016Y-112035114D01*
X158125255Y-112027273D01*
X158165000Y-111827462D01*
X158178419Y-111760000D01*
X158165000Y-111692538D01*
X158165000Y-107014606D01*
X160354606Y-104825000D01*
X161527298Y-104825000D01*
X159535528Y-106816771D01*
X159472072Y-106859171D01*
X159429672Y-106922627D01*
X159429671Y-106922628D01*
X159304097Y-107110563D01*
X159245112Y-107407100D01*
X159260001Y-107481952D01*
X159260001Y-107941822D01*
X158949375Y-108149375D01*
X158621161Y-108640582D01*
X158505908Y-109220000D01*
X158621161Y-109799418D01*
X158949375Y-110290625D01*
X159440582Y-110618839D01*
X159873744Y-110705000D01*
X160166256Y-110705000D01*
X160599418Y-110618839D01*
X161090625Y-110290625D01*
X161303843Y-109971522D01*
X161364817Y-110101358D01*
X161793076Y-110491645D01*
X162203110Y-110661476D01*
X162433000Y-110540155D01*
X162433000Y-109347000D01*
X162687000Y-109347000D01*
X162687000Y-110540155D01*
X162916890Y-110661476D01*
X163326924Y-110491645D01*
X163755183Y-110101358D01*
X163830000Y-109942046D01*
X163904817Y-110101358D01*
X164333076Y-110491645D01*
X164743110Y-110661476D01*
X164973000Y-110540155D01*
X164973000Y-109347000D01*
X162687000Y-109347000D01*
X162433000Y-109347000D01*
X162413000Y-109347000D01*
X162413000Y-109093000D01*
X162433000Y-109093000D01*
X162433000Y-107899845D01*
X162687000Y-107899845D01*
X162687000Y-109093000D01*
X164973000Y-109093000D01*
X164973000Y-107899845D01*
X164743110Y-107778524D01*
X164333076Y-107948355D01*
X163904817Y-108338642D01*
X163830000Y-108497954D01*
X163755183Y-108338642D01*
X163326924Y-107948355D01*
X162916890Y-107778524D01*
X162687000Y-107899845D01*
X162433000Y-107899845D01*
X162203110Y-107778524D01*
X161793076Y-107948355D01*
X161364817Y-108338642D01*
X161303843Y-108468478D01*
X161090625Y-108149375D01*
X160780000Y-107941822D01*
X160780000Y-107721901D01*
X161780000Y-106721901D01*
X161780000Y-106846310D01*
X161876673Y-107079699D01*
X162055302Y-107258327D01*
X162288691Y-107355000D01*
X162829250Y-107355000D01*
X162988000Y-107196250D01*
X162988000Y-106172000D01*
X163242000Y-106172000D01*
X163242000Y-107196250D01*
X163400750Y-107355000D01*
X163941309Y-107355000D01*
X164174698Y-107258327D01*
X164353327Y-107079699D01*
X164450000Y-106846310D01*
X164450000Y-106330750D01*
X164291250Y-106172000D01*
X163242000Y-106172000D01*
X162988000Y-106172000D01*
X162968000Y-106172000D01*
X162968000Y-105918000D01*
X162988000Y-105918000D01*
X162988000Y-105898000D01*
X163242000Y-105898000D01*
X163242000Y-105918000D01*
X164291250Y-105918000D01*
X164450000Y-105759250D01*
X164450000Y-105309900D01*
X164529242Y-105309900D01*
X164467560Y-105619999D01*
X164467560Y-106470001D01*
X164535873Y-106813436D01*
X164730414Y-107104586D01*
X165021564Y-107299127D01*
X165364999Y-107367440D01*
X166062639Y-107367440D01*
X166497160Y-107801961D01*
X166332191Y-107912191D01*
X166191843Y-108122235D01*
X166171261Y-108225708D01*
X165866924Y-107948355D01*
X165456890Y-107778524D01*
X165227000Y-107899845D01*
X165227000Y-109093000D01*
X165247000Y-109093000D01*
X165247000Y-109347000D01*
X165227000Y-109347000D01*
X165227000Y-110540155D01*
X165456890Y-110661476D01*
X165866924Y-110491645D01*
X166171261Y-110214292D01*
X166191843Y-110317765D01*
X166332191Y-110527809D01*
X166542235Y-110668157D01*
X166790000Y-110717440D01*
X168490000Y-110717440D01*
X168737765Y-110668157D01*
X168947809Y-110527809D01*
X169088157Y-110317765D01*
X169137440Y-110070000D01*
X169137440Y-109980000D01*
X170951413Y-109980000D01*
X170992874Y-110188435D01*
X171187414Y-110479586D01*
X171478565Y-110674126D01*
X171822000Y-110742440D01*
X172732138Y-110742440D01*
X172913071Y-110923373D01*
X172955471Y-110986829D01*
X173206863Y-111154804D01*
X173428548Y-111198900D01*
X173428553Y-111198900D01*
X173503400Y-111213788D01*
X173578247Y-111198900D01*
X181172953Y-111198900D01*
X181247800Y-111213788D01*
X181322647Y-111198900D01*
X181322652Y-111198900D01*
X181544337Y-111154804D01*
X181795729Y-110986829D01*
X181838131Y-110923370D01*
X183932500Y-108829001D01*
X186712970Y-111609472D01*
X186755371Y-111672929D01*
X187006763Y-111840904D01*
X187228448Y-111885000D01*
X187228452Y-111885000D01*
X187303299Y-111899888D01*
X187378146Y-111885000D01*
X200379413Y-111885000D01*
X200420874Y-112093435D01*
X200615414Y-112384586D01*
X200906565Y-112579126D01*
X201250000Y-112647440D01*
X202160138Y-112647440D01*
X202326771Y-112814073D01*
X202369171Y-112877529D01*
X202432627Y-112919929D01*
X202620562Y-113045504D01*
X202668705Y-113055080D01*
X202842248Y-113089600D01*
X202842252Y-113089600D01*
X202917100Y-113104488D01*
X202991948Y-113089600D01*
X208626353Y-113089600D01*
X208701200Y-113104488D01*
X208776047Y-113089600D01*
X208776052Y-113089600D01*
X208997737Y-113045504D01*
X209249129Y-112877529D01*
X209291531Y-112814070D01*
X209400401Y-112705200D01*
X209446583Y-112705200D01*
X209790235Y-112562855D01*
X209822890Y-112530200D01*
X218831342Y-112530200D01*
X218904565Y-112579126D01*
X219248000Y-112647440D01*
X220173000Y-112647440D01*
X220516435Y-112579126D01*
X220807586Y-112384586D01*
X221002126Y-112093435D01*
X221070440Y-111750000D01*
X221070440Y-110500000D01*
X221002126Y-110156565D01*
X220807586Y-109865414D01*
X220516435Y-109670874D01*
X220173000Y-109602560D01*
X219248000Y-109602560D01*
X218904565Y-109670874D01*
X218613414Y-109865414D01*
X218418874Y-110156565D01*
X218350560Y-110500000D01*
X218350560Y-111010200D01*
X209822890Y-111010200D01*
X209790235Y-110977545D01*
X209446583Y-110835200D01*
X209074617Y-110835200D01*
X208730965Y-110977545D01*
X208467945Y-111240565D01*
X208331655Y-111569600D01*
X206047440Y-111569600D01*
X206047440Y-110500000D01*
X205979126Y-110156565D01*
X205784586Y-109865414D01*
X205493435Y-109670874D01*
X205150000Y-109602560D01*
X204225000Y-109602560D01*
X203881565Y-109670874D01*
X203590414Y-109865414D01*
X203395874Y-110156565D01*
X203332632Y-110474500D01*
X203285517Y-110474500D01*
X203072440Y-110562759D01*
X203072440Y-110500000D01*
X203004126Y-110156565D01*
X202809586Y-109865414D01*
X202518435Y-109670874D01*
X202175000Y-109602560D01*
X201250000Y-109602560D01*
X200906565Y-109670874D01*
X200615414Y-109865414D01*
X200420874Y-110156565D01*
X200379413Y-110365000D01*
X187618102Y-110365000D01*
X184692500Y-107439399D01*
X184692500Y-106238263D01*
X184738435Y-106229126D01*
X185029586Y-106034586D01*
X185224126Y-105743435D01*
X185292440Y-105400000D01*
X185292440Y-104150000D01*
X185224126Y-103806565D01*
X185029586Y-103515414D01*
X184738435Y-103320874D01*
X184395000Y-103252560D01*
X183470000Y-103252560D01*
X183126565Y-103320874D01*
X182835414Y-103515414D01*
X182640874Y-103806565D01*
X182572560Y-104150000D01*
X182572560Y-105400000D01*
X182640874Y-105743435D01*
X182835414Y-106034586D01*
X183126565Y-106229126D01*
X183172501Y-106238263D01*
X183172500Y-107439398D01*
X181905000Y-108706899D01*
X181905000Y-108218690D01*
X181808327Y-107985301D01*
X181629698Y-107806673D01*
X181396309Y-107710000D01*
X180843250Y-107710000D01*
X180684500Y-107868750D01*
X180684500Y-109093000D01*
X180704500Y-109093000D01*
X180704500Y-109347000D01*
X180684500Y-109347000D01*
X180684500Y-109367000D01*
X180430500Y-109367000D01*
X180430500Y-109347000D01*
X179368750Y-109347000D01*
X179210000Y-109505750D01*
X179210000Y-109678900D01*
X178942440Y-109678900D01*
X178942440Y-108595000D01*
X178874126Y-108251565D01*
X178852160Y-108218690D01*
X179210000Y-108218690D01*
X179210000Y-108934250D01*
X179368750Y-109093000D01*
X180430500Y-109093000D01*
X180430500Y-107868750D01*
X180271750Y-107710000D01*
X179718691Y-107710000D01*
X179485302Y-107806673D01*
X179306673Y-107985301D01*
X179210000Y-108218690D01*
X178852160Y-108218690D01*
X178679586Y-107960414D01*
X178388435Y-107765874D01*
X178045000Y-107697560D01*
X177120000Y-107697560D01*
X176776565Y-107765874D01*
X176485414Y-107960414D01*
X176421000Y-108056817D01*
X176356586Y-107960414D01*
X176065435Y-107765874D01*
X175722000Y-107697560D01*
X174797000Y-107697560D01*
X174453565Y-107765874D01*
X174162414Y-107960414D01*
X173967874Y-108251565D01*
X173899560Y-108595000D01*
X173899560Y-109678900D01*
X173818202Y-109678900D01*
X173644440Y-109505138D01*
X173644440Y-108595000D01*
X173576126Y-108251565D01*
X173381586Y-107960414D01*
X173090435Y-107765874D01*
X172747000Y-107697560D01*
X171822000Y-107697560D01*
X171478565Y-107765874D01*
X171187414Y-107960414D01*
X170992874Y-108251565D01*
X170951413Y-108460000D01*
X169137440Y-108460000D01*
X169137440Y-108370000D01*
X169088157Y-108122235D01*
X168947809Y-107912191D01*
X168737765Y-107771843D01*
X168490000Y-107722560D01*
X168385561Y-107722560D01*
X168355904Y-107573463D01*
X168355904Y-107573462D01*
X168230329Y-107385527D01*
X168187929Y-107322071D01*
X168124473Y-107279671D01*
X167162440Y-106317639D01*
X167162440Y-105619999D01*
X167100758Y-105309900D01*
X176044753Y-105309900D01*
X176119600Y-105324788D01*
X176194447Y-105309900D01*
X176194452Y-105309900D01*
X176416137Y-105265804D01*
X176667529Y-105097829D01*
X176709931Y-105034370D01*
X176716861Y-105027440D01*
X177627000Y-105027440D01*
X177970435Y-104959126D01*
X178261586Y-104764586D01*
X178456126Y-104473435D01*
X178524440Y-104130000D01*
X178524440Y-103790750D01*
X178792000Y-103790750D01*
X178792000Y-104506310D01*
X178888673Y-104739699D01*
X179067302Y-104918327D01*
X179300691Y-105015000D01*
X179853750Y-105015000D01*
X180012500Y-104856250D01*
X180012500Y-103632000D01*
X180266500Y-103632000D01*
X180266500Y-104856250D01*
X180425250Y-105015000D01*
X180978309Y-105015000D01*
X181211698Y-104918327D01*
X181390327Y-104739699D01*
X181487000Y-104506310D01*
X181487000Y-103790750D01*
X181328250Y-103632000D01*
X180266500Y-103632000D01*
X180012500Y-103632000D01*
X178950750Y-103632000D01*
X178792000Y-103790750D01*
X178524440Y-103790750D01*
X178524440Y-102880000D01*
X178456126Y-102536565D01*
X178434160Y-102503690D01*
X178792000Y-102503690D01*
X178792000Y-103219250D01*
X178950750Y-103378000D01*
X180012500Y-103378000D01*
X180012500Y-102153750D01*
X180266500Y-102153750D01*
X180266500Y-103378000D01*
X181328250Y-103378000D01*
X181487000Y-103219250D01*
X181487000Y-102503690D01*
X181390327Y-102270301D01*
X181211698Y-102091673D01*
X180978309Y-101995000D01*
X180425250Y-101995000D01*
X180266500Y-102153750D01*
X180012500Y-102153750D01*
X179853750Y-101995000D01*
X179300691Y-101995000D01*
X179067302Y-102091673D01*
X178888673Y-102270301D01*
X178792000Y-102503690D01*
X178434160Y-102503690D01*
X178261586Y-102245414D01*
X177970435Y-102050874D01*
X177925000Y-102041836D01*
X177925000Y-101055805D01*
X177933436Y-101054127D01*
X178224586Y-100859586D01*
X178419127Y-100568436D01*
X178487440Y-100225001D01*
X178487440Y-99345750D01*
X178855000Y-99345750D01*
X178855000Y-100036309D01*
X178951673Y-100269698D01*
X179130301Y-100448327D01*
X179363690Y-100545000D01*
X180054250Y-100545000D01*
X180213000Y-100386250D01*
X180213000Y-99187000D01*
X180467000Y-99187000D01*
X180467000Y-100386250D01*
X180625750Y-100545000D01*
X181316310Y-100545000D01*
X181549699Y-100448327D01*
X181728327Y-100269698D01*
X181815136Y-100060122D01*
X182113076Y-100331645D01*
X182523110Y-100501476D01*
X182753000Y-100380155D01*
X182753000Y-99187000D01*
X183007000Y-99187000D01*
X183007000Y-100380155D01*
X183236890Y-100501476D01*
X183646924Y-100331645D01*
X184075183Y-99941358D01*
X184150000Y-99782046D01*
X184224817Y-99941358D01*
X184653076Y-100331645D01*
X185063110Y-100501476D01*
X185293000Y-100380155D01*
X185293000Y-99187000D01*
X183007000Y-99187000D01*
X182753000Y-99187000D01*
X180467000Y-99187000D01*
X180213000Y-99187000D01*
X179013750Y-99187000D01*
X178855000Y-99345750D01*
X178487440Y-99345750D01*
X178487440Y-99324999D01*
X178419127Y-98981564D01*
X178224586Y-98690414D01*
X177933436Y-98495873D01*
X177590001Y-98427560D01*
X176739999Y-98427560D01*
X176396564Y-98495873D01*
X176105414Y-98690414D01*
X175945000Y-98930490D01*
X175945000Y-98118588D01*
X175951673Y-98134698D01*
X176130301Y-98313327D01*
X176363690Y-98410000D01*
X176879250Y-98410000D01*
X177038000Y-98251250D01*
X177038000Y-97202000D01*
X177292000Y-97202000D01*
X177292000Y-98251250D01*
X177450750Y-98410000D01*
X177966310Y-98410000D01*
X178199699Y-98313327D01*
X178378327Y-98134698D01*
X178475000Y-97901309D01*
X178475000Y-97360750D01*
X178316250Y-97202000D01*
X177292000Y-97202000D01*
X177038000Y-97202000D01*
X177018000Y-97202000D01*
X177018000Y-96948000D01*
X177038000Y-96948000D01*
X177038000Y-95898750D01*
X177292000Y-95898750D01*
X177292000Y-96948000D01*
X178316250Y-96948000D01*
X178475000Y-96789250D01*
X178475000Y-96520000D01*
X178825908Y-96520000D01*
X178941161Y-97099418D01*
X179269375Y-97590625D01*
X179291032Y-97605096D01*
X179130301Y-97671673D01*
X178951673Y-97850302D01*
X178855000Y-98083691D01*
X178855000Y-98774250D01*
X179013750Y-98933000D01*
X180213000Y-98933000D01*
X180213000Y-98913000D01*
X180467000Y-98913000D01*
X180467000Y-98933000D01*
X182753000Y-98933000D01*
X182753000Y-98913000D01*
X183007000Y-98913000D01*
X183007000Y-98933000D01*
X185293000Y-98933000D01*
X185293000Y-98913000D01*
X185547000Y-98913000D01*
X185547000Y-98933000D01*
X185567000Y-98933000D01*
X185567000Y-99187000D01*
X185547000Y-99187000D01*
X185547000Y-100380155D01*
X185776890Y-100501476D01*
X185984400Y-100415528D01*
X185984401Y-103399160D01*
X185810414Y-103515414D01*
X185615874Y-103806565D01*
X185547560Y-104150000D01*
X185547560Y-105400000D01*
X185615874Y-105743435D01*
X185810414Y-106034586D01*
X186101565Y-106229126D01*
X186445000Y-106297440D01*
X187370000Y-106297440D01*
X187713435Y-106229126D01*
X188004586Y-106034586D01*
X188199126Y-105743435D01*
X188267440Y-105400000D01*
X188267440Y-104150000D01*
X188199126Y-103806565D01*
X188004586Y-103515414D01*
X187713435Y-103320874D01*
X187504400Y-103279294D01*
X187504400Y-100460592D01*
X187603110Y-100501476D01*
X187833000Y-100380155D01*
X187833000Y-99187000D01*
X188087000Y-99187000D01*
X188087000Y-100380155D01*
X188316890Y-100501476D01*
X188726924Y-100331645D01*
X189155183Y-99941358D01*
X189230000Y-99782046D01*
X189304817Y-99941358D01*
X189733076Y-100331645D01*
X190143110Y-100501476D01*
X190373000Y-100380155D01*
X190373000Y-99187000D01*
X190627000Y-99187000D01*
X190627000Y-100380155D01*
X190856890Y-100501476D01*
X191266924Y-100331645D01*
X191695183Y-99941358D01*
X191770000Y-99782046D01*
X191844817Y-99941358D01*
X192273076Y-100331645D01*
X192683110Y-100501476D01*
X192913000Y-100380155D01*
X192913000Y-99187000D01*
X193167000Y-99187000D01*
X193167000Y-100380155D01*
X193396890Y-100501476D01*
X193806924Y-100331645D01*
X194235183Y-99941358D01*
X194310000Y-99782046D01*
X194384817Y-99941358D01*
X194813076Y-100331645D01*
X195223110Y-100501476D01*
X195453000Y-100380155D01*
X195453000Y-99187000D01*
X195707000Y-99187000D01*
X195707000Y-100380155D01*
X195936890Y-100501476D01*
X196346924Y-100331645D01*
X196775183Y-99941358D01*
X196850000Y-99782046D01*
X196924817Y-99941358D01*
X197353076Y-100331645D01*
X197763110Y-100501476D01*
X197993000Y-100380155D01*
X197993000Y-99187000D01*
X198247000Y-99187000D01*
X198247000Y-100380155D01*
X198476890Y-100501476D01*
X198886924Y-100331645D01*
X199315183Y-99941358D01*
X199390000Y-99782046D01*
X199464817Y-99941358D01*
X199893076Y-100331645D01*
X200303110Y-100501476D01*
X200533000Y-100380155D01*
X200533000Y-99187000D01*
X200787000Y-99187000D01*
X200787000Y-100380155D01*
X201016890Y-100501476D01*
X201426924Y-100331645D01*
X201855183Y-99941358D01*
X201930000Y-99782046D01*
X202004817Y-99941358D01*
X202433076Y-100331645D01*
X202843110Y-100501476D01*
X203073000Y-100380155D01*
X203073000Y-99187000D01*
X203327000Y-99187000D01*
X203327000Y-100380155D01*
X203556890Y-100501476D01*
X203966924Y-100331645D01*
X204395183Y-99941358D01*
X204470000Y-99782046D01*
X204544817Y-99941358D01*
X204973076Y-100331645D01*
X205383110Y-100501476D01*
X205613000Y-100380155D01*
X205613000Y-99187000D01*
X205867000Y-99187000D01*
X205867000Y-100380155D01*
X206096890Y-100501476D01*
X206506924Y-100331645D01*
X206935183Y-99941358D01*
X207010000Y-99782046D01*
X207084817Y-99941358D01*
X207513076Y-100331645D01*
X207923110Y-100501476D01*
X208153000Y-100380155D01*
X208153000Y-99187000D01*
X208407000Y-99187000D01*
X208407000Y-100380155D01*
X208636890Y-100501476D01*
X209046924Y-100331645D01*
X209475183Y-99941358D01*
X209550000Y-99782046D01*
X209624817Y-99941358D01*
X210053076Y-100331645D01*
X210463110Y-100501476D01*
X210693000Y-100380155D01*
X210693000Y-99187000D01*
X210947000Y-99187000D01*
X210947000Y-100380155D01*
X211176890Y-100501476D01*
X211586924Y-100331645D01*
X212015183Y-99941358D01*
X212090000Y-99782046D01*
X212164817Y-99941358D01*
X212593076Y-100331645D01*
X213003110Y-100501476D01*
X213233000Y-100380155D01*
X213233000Y-99187000D01*
X213487000Y-99187000D01*
X213487000Y-100380155D01*
X213716890Y-100501476D01*
X214126924Y-100331645D01*
X214555183Y-99941358D01*
X214630000Y-99782046D01*
X214704817Y-99941358D01*
X215133076Y-100331645D01*
X215543110Y-100501476D01*
X215773000Y-100380155D01*
X215773000Y-99187000D01*
X216027000Y-99187000D01*
X216027000Y-100380155D01*
X216256890Y-100501476D01*
X216666924Y-100331645D01*
X217095183Y-99941358D01*
X217170000Y-99782046D01*
X217244817Y-99941358D01*
X217673076Y-100331645D01*
X218083110Y-100501476D01*
X218313000Y-100380155D01*
X218313000Y-99187000D01*
X218567000Y-99187000D01*
X218567000Y-100380155D01*
X218796890Y-100501476D01*
X219206924Y-100331645D01*
X219635183Y-99941358D01*
X219710000Y-99782046D01*
X219784817Y-99941358D01*
X220213076Y-100331645D01*
X220623110Y-100501476D01*
X220853000Y-100380155D01*
X220853000Y-99187000D01*
X218567000Y-99187000D01*
X218313000Y-99187000D01*
X216027000Y-99187000D01*
X215773000Y-99187000D01*
X213487000Y-99187000D01*
X213233000Y-99187000D01*
X210947000Y-99187000D01*
X210693000Y-99187000D01*
X208407000Y-99187000D01*
X208153000Y-99187000D01*
X205867000Y-99187000D01*
X205613000Y-99187000D01*
X203327000Y-99187000D01*
X203073000Y-99187000D01*
X200787000Y-99187000D01*
X200533000Y-99187000D01*
X198247000Y-99187000D01*
X197993000Y-99187000D01*
X195707000Y-99187000D01*
X195453000Y-99187000D01*
X193167000Y-99187000D01*
X192913000Y-99187000D01*
X190627000Y-99187000D01*
X190373000Y-99187000D01*
X188087000Y-99187000D01*
X187833000Y-99187000D01*
X187813000Y-99187000D01*
X187813000Y-98933000D01*
X187833000Y-98933000D01*
X187833000Y-98913000D01*
X188087000Y-98913000D01*
X188087000Y-98933000D01*
X190373000Y-98933000D01*
X190373000Y-98913000D01*
X190627000Y-98913000D01*
X190627000Y-98933000D01*
X192913000Y-98933000D01*
X192913000Y-98913000D01*
X193167000Y-98913000D01*
X193167000Y-98933000D01*
X195453000Y-98933000D01*
X195453000Y-98913000D01*
X195707000Y-98913000D01*
X195707000Y-98933000D01*
X197993000Y-98933000D01*
X197993000Y-98913000D01*
X198247000Y-98913000D01*
X198247000Y-98933000D01*
X200533000Y-98933000D01*
X200533000Y-98913000D01*
X200787000Y-98913000D01*
X200787000Y-98933000D01*
X203073000Y-98933000D01*
X203073000Y-98913000D01*
X203327000Y-98913000D01*
X203327000Y-98933000D01*
X205613000Y-98933000D01*
X205613000Y-98913000D01*
X205867000Y-98913000D01*
X205867000Y-98933000D01*
X208153000Y-98933000D01*
X208153000Y-98913000D01*
X208407000Y-98913000D01*
X208407000Y-98933000D01*
X210693000Y-98933000D01*
X210693000Y-98913000D01*
X210947000Y-98913000D01*
X210947000Y-98933000D01*
X213233000Y-98933000D01*
X213233000Y-98913000D01*
X213487000Y-98913000D01*
X213487000Y-98933000D01*
X215773000Y-98933000D01*
X215773000Y-98913000D01*
X216027000Y-98913000D01*
X216027000Y-98933000D01*
X218313000Y-98933000D01*
X218313000Y-98913000D01*
X218567000Y-98913000D01*
X218567000Y-98933000D01*
X220853000Y-98933000D01*
X220853000Y-98913000D01*
X221107000Y-98913000D01*
X221107000Y-98933000D01*
X221127000Y-98933000D01*
X221127000Y-99187000D01*
X221107000Y-99187000D01*
X221107000Y-100380155D01*
X221336890Y-100501476D01*
X221746924Y-100331645D01*
X221925500Y-100168903D01*
X221925501Y-109661737D01*
X221879565Y-109670874D01*
X221588414Y-109865414D01*
X221393874Y-110156565D01*
X221325560Y-110500000D01*
X221325560Y-111750000D01*
X221393874Y-112093435D01*
X221588414Y-112384586D01*
X221879565Y-112579126D01*
X222223000Y-112647440D01*
X223148000Y-112647440D01*
X223491435Y-112579126D01*
X223782586Y-112384586D01*
X223977126Y-112093435D01*
X224045440Y-111750000D01*
X224045440Y-110500000D01*
X223977126Y-110156565D01*
X223782586Y-109865414D01*
X223491435Y-109670874D01*
X223445500Y-109661737D01*
X223445500Y-99108348D01*
X223460388Y-99033500D01*
X223445500Y-98958652D01*
X223445500Y-98958648D01*
X223401404Y-98736963D01*
X223233429Y-98485571D01*
X223169973Y-98443171D01*
X222157491Y-97430689D01*
X222378839Y-97099418D01*
X222494092Y-96520000D01*
X222378839Y-95940582D01*
X222050625Y-95449375D01*
X221559418Y-95121161D01*
X221126256Y-95035000D01*
X220833744Y-95035000D01*
X220400582Y-95121161D01*
X219909375Y-95449375D01*
X219710000Y-95747761D01*
X219510625Y-95449375D01*
X219019418Y-95121161D01*
X218586256Y-95035000D01*
X218293744Y-95035000D01*
X217860582Y-95121161D01*
X217369375Y-95449375D01*
X217170000Y-95747761D01*
X216970625Y-95449375D01*
X216479418Y-95121161D01*
X216046256Y-95035000D01*
X215753744Y-95035000D01*
X215320582Y-95121161D01*
X214829375Y-95449375D01*
X214630000Y-95747761D01*
X214430625Y-95449375D01*
X213939418Y-95121161D01*
X213506256Y-95035000D01*
X213213744Y-95035000D01*
X212780582Y-95121161D01*
X212289375Y-95449375D01*
X212090000Y-95747761D01*
X211890625Y-95449375D01*
X211399418Y-95121161D01*
X210966256Y-95035000D01*
X210673744Y-95035000D01*
X210240582Y-95121161D01*
X209749375Y-95449375D01*
X209550000Y-95747761D01*
X209350625Y-95449375D01*
X208859418Y-95121161D01*
X208426256Y-95035000D01*
X208133744Y-95035000D01*
X207700582Y-95121161D01*
X207209375Y-95449375D01*
X207010000Y-95747761D01*
X206810625Y-95449375D01*
X206319418Y-95121161D01*
X205886256Y-95035000D01*
X205593744Y-95035000D01*
X205160582Y-95121161D01*
X204669375Y-95449375D01*
X204470000Y-95747761D01*
X204270625Y-95449375D01*
X203779418Y-95121161D01*
X203346256Y-95035000D01*
X203053744Y-95035000D01*
X202620582Y-95121161D01*
X202129375Y-95449375D01*
X201930000Y-95747761D01*
X201730625Y-95449375D01*
X201239418Y-95121161D01*
X200806256Y-95035000D01*
X200513744Y-95035000D01*
X200080582Y-95121161D01*
X199589375Y-95449375D01*
X199390000Y-95747761D01*
X199190625Y-95449375D01*
X198699418Y-95121161D01*
X198266256Y-95035000D01*
X197973744Y-95035000D01*
X197540582Y-95121161D01*
X197049375Y-95449375D01*
X196850000Y-95747761D01*
X196650625Y-95449375D01*
X196159418Y-95121161D01*
X195726256Y-95035000D01*
X195433744Y-95035000D01*
X195000582Y-95121161D01*
X194509375Y-95449375D01*
X194310000Y-95747761D01*
X194110625Y-95449375D01*
X193619418Y-95121161D01*
X193186256Y-95035000D01*
X192893744Y-95035000D01*
X192460582Y-95121161D01*
X191969375Y-95449375D01*
X191770000Y-95747761D01*
X191570625Y-95449375D01*
X191079418Y-95121161D01*
X190646256Y-95035000D01*
X190353744Y-95035000D01*
X189920582Y-95121161D01*
X189429375Y-95449375D01*
X189230000Y-95747761D01*
X189030625Y-95449375D01*
X188539418Y-95121161D01*
X188106256Y-95035000D01*
X187813744Y-95035000D01*
X187380582Y-95121161D01*
X186889375Y-95449375D01*
X186690000Y-95747761D01*
X186490625Y-95449375D01*
X185999418Y-95121161D01*
X185566256Y-95035000D01*
X185273744Y-95035000D01*
X184840582Y-95121161D01*
X184349375Y-95449375D01*
X184150000Y-95747761D01*
X183950625Y-95449375D01*
X183459418Y-95121161D01*
X183026256Y-95035000D01*
X182733744Y-95035000D01*
X182300582Y-95121161D01*
X181809375Y-95449375D01*
X181610000Y-95747761D01*
X181410625Y-95449375D01*
X180919418Y-95121161D01*
X180486256Y-95035000D01*
X180193744Y-95035000D01*
X179760582Y-95121161D01*
X179269375Y-95449375D01*
X178941161Y-95940582D01*
X178825908Y-96520000D01*
X178475000Y-96520000D01*
X178475000Y-96248691D01*
X178378327Y-96015302D01*
X178199699Y-95836673D01*
X177966310Y-95740000D01*
X177450750Y-95740000D01*
X177292000Y-95898750D01*
X177038000Y-95898750D01*
X176943993Y-95804743D01*
X178083736Y-94665000D01*
X225373000Y-94665000D01*
X225373000Y-123775000D01*
X225373000Y-123775000D01*
G37*
X225373000Y-123775000D02*
X127685000Y-123775000D01*
X127685000Y-121070000D01*
X135662560Y-121070000D01*
X135662560Y-122770000D01*
X135711843Y-123017765D01*
X135852191Y-123227809D01*
X136062235Y-123368157D01*
X136310000Y-123417440D01*
X138010000Y-123417440D01*
X138257765Y-123368157D01*
X138467809Y-123227809D01*
X138608157Y-123017765D01*
X138657440Y-122770000D01*
X138657440Y-121920000D01*
X140776887Y-121920000D01*
X140888260Y-122479909D01*
X141205423Y-122954577D01*
X141680091Y-123271740D01*
X142098667Y-123355000D01*
X142381333Y-123355000D01*
X142799909Y-123271740D01*
X143274577Y-122954577D01*
X143510000Y-122602242D01*
X143745423Y-122954577D01*
X144220091Y-123271740D01*
X144638667Y-123355000D01*
X144921333Y-123355000D01*
X145339909Y-123271740D01*
X145814577Y-122954577D01*
X146050000Y-122602242D01*
X146285423Y-122954577D01*
X146760091Y-123271740D01*
X147178667Y-123355000D01*
X147461333Y-123355000D01*
X147879909Y-123271740D01*
X148354577Y-122954577D01*
X148590000Y-122602242D01*
X148825423Y-122954577D01*
X149300091Y-123271740D01*
X149718667Y-123355000D01*
X150001333Y-123355000D01*
X150419909Y-123271740D01*
X150894577Y-122954577D01*
X151130000Y-122602242D01*
X151365423Y-122954577D01*
X151840091Y-123271740D01*
X152258667Y-123355000D01*
X152541333Y-123355000D01*
X152959909Y-123271740D01*
X153434577Y-122954577D01*
X153670000Y-122602242D01*
X153905423Y-122954577D01*
X154380091Y-123271740D01*
X154798667Y-123355000D01*
X155081333Y-123355000D01*
X155499909Y-123271740D01*
X155974577Y-122954577D01*
X156210000Y-122602242D01*
X156445423Y-122954577D01*
X156920091Y-123271740D01*
X157338667Y-123355000D01*
X157621333Y-123355000D01*
X158039909Y-123271740D01*
X158514577Y-122954577D01*
X158831740Y-122479909D01*
X158943113Y-121920000D01*
X158831740Y-121360091D01*
X158514577Y-120885423D01*
X158039909Y-120568260D01*
X157621333Y-120485000D01*
X157338667Y-120485000D01*
X156920091Y-120568260D01*
X156445423Y-120885423D01*
X156210000Y-121237758D01*
X155974577Y-120885423D01*
X155499909Y-120568260D01*
X155081333Y-120485000D01*
X154798667Y-120485000D01*
X154380091Y-120568260D01*
X153905423Y-120885423D01*
X153670000Y-121237758D01*
X153434577Y-120885423D01*
X152959909Y-120568260D01*
X152541333Y-120485000D01*
X152258667Y-120485000D01*
X151840091Y-120568260D01*
X151365423Y-120885423D01*
X151130000Y-121237758D01*
X150894577Y-120885423D01*
X150419909Y-120568260D01*
X150001333Y-120485000D01*
X149718667Y-120485000D01*
X149300091Y-120568260D01*
X148825423Y-120885423D01*
X148590000Y-121237758D01*
X148354577Y-120885423D01*
X147879909Y-120568260D01*
X147461333Y-120485000D01*
X147178667Y-120485000D01*
X146760091Y-120568260D01*
X146285423Y-120885423D01*
X146050000Y-121237758D01*
X145814577Y-120885423D01*
X145339909Y-120568260D01*
X144921333Y-120485000D01*
X144638667Y-120485000D01*
X144220091Y-120568260D01*
X143745423Y-120885423D01*
X143510000Y-121237758D01*
X143274577Y-120885423D01*
X142799909Y-120568260D01*
X142381333Y-120485000D01*
X142098667Y-120485000D01*
X141680091Y-120568260D01*
X141205423Y-120885423D01*
X140888260Y-121360091D01*
X140776887Y-121920000D01*
X138657440Y-121920000D01*
X138657440Y-121070000D01*
X138608157Y-120822235D01*
X138467809Y-120612191D01*
X138257765Y-120471843D01*
X138154292Y-120451261D01*
X138431645Y-120146924D01*
X138601476Y-119736890D01*
X138563933Y-119665750D01*
X171325000Y-119665750D01*
X171325000Y-120266310D01*
X171421673Y-120499699D01*
X171600302Y-120678327D01*
X171833691Y-120775000D01*
X172434250Y-120775000D01*
X172593000Y-120616250D01*
X172593000Y-119507000D01*
X171483750Y-119507000D01*
X171325000Y-119665750D01*
X138563933Y-119665750D01*
X138480155Y-119507000D01*
X137287000Y-119507000D01*
X137287000Y-119527000D01*
X137033000Y-119527000D01*
X137033000Y-119507000D01*
X135839845Y-119507000D01*
X135718524Y-119736890D01*
X135888355Y-120146924D01*
X136165708Y-120451261D01*
X136062235Y-120471843D01*
X135852191Y-120612191D01*
X135711843Y-120822235D01*
X135662560Y-121070000D01*
X127685000Y-121070000D01*
X127685000Y-117196890D01*
X135718524Y-117196890D01*
X135888355Y-117606924D01*
X136278642Y-118035183D01*
X136437954Y-118110000D01*
X136278642Y-118184817D01*
X135888355Y-118613076D01*
X135718524Y-119023110D01*
X135839845Y-119253000D01*
X137033000Y-119253000D01*
X137033000Y-116967000D01*
X137287000Y-116967000D01*
X137287000Y-119253000D01*
X138480155Y-119253000D01*
X138601476Y-119023110D01*
X138431645Y-118613076D01*
X138041358Y-118184817D01*
X137882046Y-118110000D01*
X138041358Y-118035183D01*
X138431645Y-117606924D01*
X138601476Y-117196890D01*
X138480155Y-116967000D01*
X137287000Y-116967000D01*
X137033000Y-116967000D01*
X135839845Y-116967000D01*
X135718524Y-117196890D01*
X127685000Y-117196890D01*
X127685000Y-114300000D01*
X135645908Y-114300000D01*
X135761161Y-114879418D01*
X136089375Y-115370625D01*
X136408478Y-115583843D01*
X136278642Y-115644817D01*
X135888355Y-116073076D01*
X135718524Y-116483110D01*
X135839845Y-116713000D01*
X137033000Y-116713000D01*
X137033000Y-116693000D01*
X137287000Y-116693000D01*
X137287000Y-116713000D01*
X138480155Y-116713000D01*
X138601476Y-116483110D01*
X138431645Y-116073076D01*
X138041358Y-115644817D01*
X137911522Y-115583843D01*
X138230625Y-115370625D01*
X138558839Y-114879418D01*
X138604663Y-114649041D01*
X140848086Y-114649041D01*
X141087611Y-115155134D01*
X141502577Y-115531041D01*
X141890961Y-115691904D01*
X142113000Y-115569915D01*
X142113000Y-114427000D01*
X140969371Y-114427000D01*
X140848086Y-114649041D01*
X138604663Y-114649041D01*
X138674092Y-114300000D01*
X138604664Y-113950959D01*
X140848086Y-113950959D01*
X140969371Y-114173000D01*
X142113000Y-114173000D01*
X142113000Y-113030085D01*
X142367000Y-113030085D01*
X142367000Y-114173000D01*
X142387000Y-114173000D01*
X142387000Y-114427000D01*
X142367000Y-114427000D01*
X142367000Y-115569915D01*
X142589039Y-115691904D01*
X142977423Y-115531041D01*
X143392389Y-115155134D01*
X143489053Y-114950892D01*
X143745423Y-115334577D01*
X144220091Y-115651740D01*
X144638667Y-115735000D01*
X144921333Y-115735000D01*
X145339909Y-115651740D01*
X145676222Y-115427023D01*
X148684871Y-118435673D01*
X148727271Y-118499129D01*
X148978663Y-118667104D01*
X149200348Y-118711200D01*
X149200352Y-118711200D01*
X149275199Y-118726088D01*
X149350046Y-118711200D01*
X171325000Y-118711200D01*
X171325000Y-119094250D01*
X171483750Y-119253000D01*
X172593000Y-119253000D01*
X172593000Y-119233000D01*
X172847000Y-119233000D01*
X172847000Y-119253000D01*
X172867000Y-119253000D01*
X172867000Y-119507000D01*
X172847000Y-119507000D01*
X172847000Y-120616250D01*
X173005750Y-120775000D01*
X173606309Y-120775000D01*
X173839698Y-120678327D01*
X174018327Y-120499699D01*
X174076704Y-120358764D01*
X174460841Y-120358764D01*
X174530059Y-120600742D01*
X175052780Y-120787155D01*
X175607049Y-120759341D01*
X175989941Y-120600742D01*
X176059159Y-120358764D01*
X177000841Y-120358764D01*
X177070059Y-120600742D01*
X177592780Y-120787155D01*
X178147049Y-120759341D01*
X178529941Y-120600742D01*
X178599159Y-120358764D01*
X179540841Y-120358764D01*
X179610059Y-120600742D01*
X180132780Y-120787155D01*
X180687049Y-120759341D01*
X181069941Y-120600742D01*
X181139159Y-120358764D01*
X182080841Y-120358764D01*
X182150059Y-120600742D01*
X182672780Y-120787155D01*
X183227049Y-120759341D01*
X183609941Y-120600742D01*
X183679159Y-120358764D01*
X184620841Y-120358764D01*
X184690059Y-120600742D01*
X185212780Y-120787155D01*
X185767049Y-120759341D01*
X186149941Y-120600742D01*
X186219159Y-120358764D01*
X187160841Y-120358764D01*
X187230059Y-120600742D01*
X187752780Y-120787155D01*
X188307049Y-120759341D01*
X188689941Y-120600742D01*
X188759159Y-120358764D01*
X189700841Y-120358764D01*
X189770059Y-120600742D01*
X190292780Y-120787155D01*
X190847049Y-120759341D01*
X191229941Y-120600742D01*
X191299159Y-120358764D01*
X192240841Y-120358764D01*
X192310059Y-120600742D01*
X192832780Y-120787155D01*
X193387049Y-120759341D01*
X193769941Y-120600742D01*
X193839159Y-120358764D01*
X194780841Y-120358764D01*
X194850059Y-120600742D01*
X195372780Y-120787155D01*
X195927049Y-120759341D01*
X196309941Y-120600742D01*
X196379159Y-120358764D01*
X197320841Y-120358764D01*
X197390059Y-120600742D01*
X197912780Y-120787155D01*
X198467049Y-120759341D01*
X198849941Y-120600742D01*
X198919159Y-120358764D01*
X199860841Y-120358764D01*
X199930059Y-120600742D01*
X200452780Y-120787155D01*
X201007049Y-120759341D01*
X201389941Y-120600742D01*
X201459159Y-120358764D01*
X202400841Y-120358764D01*
X202470059Y-120600742D01*
X202992780Y-120787155D01*
X203547049Y-120759341D01*
X203929941Y-120600742D01*
X203999159Y-120358764D01*
X204940841Y-120358764D01*
X205010059Y-120600742D01*
X205532780Y-120787155D01*
X206087049Y-120759341D01*
X206469941Y-120600742D01*
X206539159Y-120358764D01*
X207480841Y-120358764D01*
X207550059Y-120600742D01*
X208072780Y-120787155D01*
X208627049Y-120759341D01*
X209009941Y-120600742D01*
X209079159Y-120358764D01*
X210020841Y-120358764D01*
X210090059Y-120600742D01*
X210612780Y-120787155D01*
X211167049Y-120759341D01*
X211549941Y-120600742D01*
X211619159Y-120358764D01*
X212560841Y-120358764D01*
X212630059Y-120600742D01*
X213152780Y-120787155D01*
X213707049Y-120759341D01*
X214089941Y-120600742D01*
X214159159Y-120358764D01*
X213360000Y-119559605D01*
X212560841Y-120358764D01*
X211619159Y-120358764D01*
X210820000Y-119559605D01*
X210020841Y-120358764D01*
X209079159Y-120358764D01*
X208280000Y-119559605D01*
X207480841Y-120358764D01*
X206539159Y-120358764D01*
X205740000Y-119559605D01*
X204940841Y-120358764D01*
X203999159Y-120358764D01*
X203200000Y-119559605D01*
X202400841Y-120358764D01*
X201459159Y-120358764D01*
X200660000Y-119559605D01*
X199860841Y-120358764D01*
X198919159Y-120358764D01*
X198120000Y-119559605D01*
X197320841Y-120358764D01*
X196379159Y-120358764D01*
X195580000Y-119559605D01*
X194780841Y-120358764D01*
X193839159Y-120358764D01*
X193040000Y-119559605D01*
X192240841Y-120358764D01*
X191299159Y-120358764D01*
X190500000Y-119559605D01*
X189700841Y-120358764D01*
X188759159Y-120358764D01*
X187960000Y-119559605D01*
X187160841Y-120358764D01*
X186219159Y-120358764D01*
X185420000Y-119559605D01*
X184620841Y-120358764D01*
X183679159Y-120358764D01*
X182880000Y-119559605D01*
X182080841Y-120358764D01*
X181139159Y-120358764D01*
X180340000Y-119559605D01*
X179540841Y-120358764D01*
X178599159Y-120358764D01*
X177800000Y-119559605D01*
X177000841Y-120358764D01*
X176059159Y-120358764D01*
X175260000Y-119559605D01*
X174460841Y-120358764D01*
X174076704Y-120358764D01*
X174115000Y-120266310D01*
X174115000Y-120131607D01*
X174281236Y-120179159D01*
X175080395Y-119380000D01*
X175066253Y-119365858D01*
X175245858Y-119186253D01*
X175260000Y-119200395D01*
X175274143Y-119186253D01*
X175453748Y-119365858D01*
X175439605Y-119380000D01*
X176238764Y-120179159D01*
X176480742Y-120109941D01*
X176526320Y-119982137D01*
X176579258Y-120109941D01*
X176821236Y-120179159D01*
X177620395Y-119380000D01*
X177606253Y-119365858D01*
X177785858Y-119186253D01*
X177800000Y-119200395D01*
X177814143Y-119186253D01*
X177993748Y-119365858D01*
X177979605Y-119380000D01*
X178778764Y-120179159D01*
X179020742Y-120109941D01*
X179066320Y-119982137D01*
X179119258Y-120109941D01*
X179361236Y-120179159D01*
X180160395Y-119380000D01*
X180146253Y-119365858D01*
X180325858Y-119186253D01*
X180340000Y-119200395D01*
X180354143Y-119186253D01*
X180533748Y-119365858D01*
X180519605Y-119380000D01*
X181318764Y-120179159D01*
X181560742Y-120109941D01*
X181606320Y-119982137D01*
X181659258Y-120109941D01*
X181901236Y-120179159D01*
X182700395Y-119380000D01*
X182686253Y-119365858D01*
X182865858Y-119186253D01*
X182880000Y-119200395D01*
X182894143Y-119186253D01*
X183073748Y-119365858D01*
X183059605Y-119380000D01*
X183858764Y-120179159D01*
X184100742Y-120109941D01*
X184146320Y-119982137D01*
X184199258Y-120109941D01*
X184441236Y-120179159D01*
X185240395Y-119380000D01*
X185226253Y-119365858D01*
X185405858Y-119186253D01*
X185420000Y-119200395D01*
X185434143Y-119186253D01*
X185613748Y-119365858D01*
X185599605Y-119380000D01*
X186398764Y-120179159D01*
X186640742Y-120109941D01*
X186686320Y-119982137D01*
X186739258Y-120109941D01*
X186981236Y-120179159D01*
X187780395Y-119380000D01*
X187766253Y-119365858D01*
X187945858Y-119186253D01*
X187960000Y-119200395D01*
X187974143Y-119186253D01*
X188153748Y-119365858D01*
X188139605Y-119380000D01*
X188938764Y-120179159D01*
X189180742Y-120109941D01*
X189226320Y-119982137D01*
X189279258Y-120109941D01*
X189521236Y-120179159D01*
X190320395Y-119380000D01*
X190306253Y-119365858D01*
X190485858Y-119186253D01*
X190500000Y-119200395D01*
X190514143Y-119186253D01*
X190693748Y-119365858D01*
X190679605Y-119380000D01*
X191478764Y-120179159D01*
X191720742Y-120109941D01*
X191766320Y-119982137D01*
X191819258Y-120109941D01*
X192061236Y-120179159D01*
X192860395Y-119380000D01*
X192846253Y-119365858D01*
X193025858Y-119186253D01*
X193040000Y-119200395D01*
X193054143Y-119186253D01*
X193233748Y-119365858D01*
X193219605Y-119380000D01*
X194018764Y-120179159D01*
X194260742Y-120109941D01*
X194306320Y-119982137D01*
X194359258Y-120109941D01*
X194601236Y-120179159D01*
X195400395Y-119380000D01*
X195386253Y-119365858D01*
X195565858Y-119186253D01*
X195580000Y-119200395D01*
X195594143Y-119186253D01*
X195773748Y-119365858D01*
X195759605Y-119380000D01*
X196558764Y-120179159D01*
X196800742Y-120109941D01*
X196846320Y-119982137D01*
X196899258Y-120109941D01*
X197141236Y-120179159D01*
X197940395Y-119380000D01*
X197926253Y-119365858D01*
X198105858Y-119186253D01*
X198120000Y-119200395D01*
X198134143Y-119186253D01*
X198313748Y-119365858D01*
X198299605Y-119380000D01*
X199098764Y-120179159D01*
X199340742Y-120109941D01*
X199386320Y-119982137D01*
X199439258Y-120109941D01*
X199681236Y-120179159D01*
X200480395Y-119380000D01*
X200466253Y-119365858D01*
X200645858Y-119186253D01*
X200660000Y-119200395D01*
X200674143Y-119186253D01*
X200853748Y-119365858D01*
X200839605Y-119380000D01*
X201638764Y-120179159D01*
X201880742Y-120109941D01*
X201926320Y-119982137D01*
X201979258Y-120109941D01*
X202221236Y-120179159D01*
X203020395Y-119380000D01*
X203006253Y-119365858D01*
X203185858Y-119186253D01*
X203200000Y-119200395D01*
X203214143Y-119186253D01*
X203393748Y-119365858D01*
X203379605Y-119380000D01*
X204178764Y-120179159D01*
X204420742Y-120109941D01*
X204466320Y-119982137D01*
X204519258Y-120109941D01*
X204761236Y-120179159D01*
X205560395Y-119380000D01*
X205546253Y-119365858D01*
X205725858Y-119186253D01*
X205740000Y-119200395D01*
X205754143Y-119186253D01*
X205933748Y-119365858D01*
X205919605Y-119380000D01*
X206718764Y-120179159D01*
X206960742Y-120109941D01*
X207006320Y-119982137D01*
X207059258Y-120109941D01*
X207301236Y-120179159D01*
X208100395Y-119380000D01*
X208086253Y-119365858D01*
X208265858Y-119186253D01*
X208280000Y-119200395D01*
X208294143Y-119186253D01*
X208473748Y-119365858D01*
X208459605Y-119380000D01*
X209258764Y-120179159D01*
X209500742Y-120109941D01*
X209546320Y-119982137D01*
X209599258Y-120109941D01*
X209841236Y-120179159D01*
X210640395Y-119380000D01*
X210626253Y-119365858D01*
X210805858Y-119186253D01*
X210820000Y-119200395D01*
X210834143Y-119186253D01*
X211013748Y-119365858D01*
X210999605Y-119380000D01*
X211798764Y-120179159D01*
X212040742Y-120109941D01*
X212086320Y-119982137D01*
X212139258Y-120109941D01*
X212381236Y-120179159D01*
X213180395Y-119380000D01*
X213539605Y-119380000D01*
X214338764Y-120179159D01*
X214580742Y-120109941D01*
X214767155Y-119587220D01*
X214739341Y-119032951D01*
X214580742Y-118650059D01*
X214338764Y-118580841D01*
X213539605Y-119380000D01*
X213180395Y-119380000D01*
X213166253Y-119365858D01*
X213345858Y-119186253D01*
X213360000Y-119200395D01*
X214159159Y-118401236D01*
X214089941Y-118159258D01*
X213945069Y-118107594D01*
X214150204Y-118022624D01*
X214542624Y-117630204D01*
X214755000Y-117117483D01*
X214755000Y-116562517D01*
X214542624Y-116049796D01*
X214150204Y-115657376D01*
X213637483Y-115445000D01*
X213082517Y-115445000D01*
X212569796Y-115657376D01*
X212177376Y-116049796D01*
X212090000Y-116260740D01*
X212002624Y-116049796D01*
X211610204Y-115657376D01*
X211097483Y-115445000D01*
X210542517Y-115445000D01*
X210029796Y-115657376D01*
X209637376Y-116049796D01*
X209550000Y-116260740D01*
X209462624Y-116049796D01*
X209070204Y-115657376D01*
X208557483Y-115445000D01*
X208002517Y-115445000D01*
X207489796Y-115657376D01*
X207097376Y-116049796D01*
X207010000Y-116260740D01*
X206922624Y-116049796D01*
X206530204Y-115657376D01*
X206017483Y-115445000D01*
X205462517Y-115445000D01*
X204949796Y-115657376D01*
X204557376Y-116049796D01*
X204470000Y-116260740D01*
X204382624Y-116049796D01*
X203990204Y-115657376D01*
X203477483Y-115445000D01*
X202922517Y-115445000D01*
X202409796Y-115657376D01*
X202017376Y-116049796D01*
X201930000Y-116260740D01*
X201842624Y-116049796D01*
X201450204Y-115657376D01*
X200937483Y-115445000D01*
X200382517Y-115445000D01*
X199869796Y-115657376D01*
X199477376Y-116049796D01*
X199390000Y-116260740D01*
X199302624Y-116049796D01*
X198910204Y-115657376D01*
X198397483Y-115445000D01*
X197842517Y-115445000D01*
X197329796Y-115657376D01*
X196937376Y-116049796D01*
X196850000Y-116260740D01*
X196762624Y-116049796D01*
X196370204Y-115657376D01*
X195857483Y-115445000D01*
X195302517Y-115445000D01*
X194789796Y-115657376D01*
X194397376Y-116049796D01*
X194310000Y-116260740D01*
X194222624Y-116049796D01*
X193830204Y-115657376D01*
X193317483Y-115445000D01*
X192762517Y-115445000D01*
X192249796Y-115657376D01*
X191857376Y-116049796D01*
X191770000Y-116260740D01*
X191682624Y-116049796D01*
X191290204Y-115657376D01*
X190777483Y-115445000D01*
X190222517Y-115445000D01*
X189709796Y-115657376D01*
X189317376Y-116049796D01*
X189230000Y-116260740D01*
X189142624Y-116049796D01*
X188750204Y-115657376D01*
X188237483Y-115445000D01*
X187682517Y-115445000D01*
X187169796Y-115657376D01*
X186777376Y-116049796D01*
X186690000Y-116260740D01*
X186602624Y-116049796D01*
X186210204Y-115657376D01*
X185697483Y-115445000D01*
X185142517Y-115445000D01*
X184629796Y-115657376D01*
X184237376Y-116049796D01*
X184150000Y-116260740D01*
X184062624Y-116049796D01*
X183670204Y-115657376D01*
X183157483Y-115445000D01*
X182602517Y-115445000D01*
X182572313Y-115457511D01*
X180930331Y-113815530D01*
X180887929Y-113752071D01*
X180636537Y-113584096D01*
X180414852Y-113540000D01*
X180414847Y-113540000D01*
X180340000Y-113525112D01*
X180265153Y-113540000D01*
X158927440Y-113540000D01*
X158927440Y-113500000D01*
X158878157Y-113252235D01*
X158737809Y-113042191D01*
X158527765Y-112901843D01*
X158280000Y-112852560D01*
X156680000Y-112852560D01*
X156432235Y-112901843D01*
X156222191Y-113042191D01*
X156081843Y-113252235D01*
X156055215Y-113386106D01*
X155974577Y-113265423D01*
X155499909Y-112948260D01*
X155081333Y-112865000D01*
X154798667Y-112865000D01*
X154380091Y-112948260D01*
X153905423Y-113265423D01*
X153670000Y-113617758D01*
X153434577Y-113265423D01*
X152959909Y-112948260D01*
X152541333Y-112865000D01*
X152258667Y-112865000D01*
X151840091Y-112948260D01*
X151365423Y-113265423D01*
X151167667Y-113561386D01*
X151080786Y-113544104D01*
X150894577Y-113265423D01*
X150419909Y-112948260D01*
X150001333Y-112865000D01*
X149718667Y-112865000D01*
X149300091Y-112948260D01*
X148825423Y-113265423D01*
X148590000Y-113617758D01*
X148354577Y-113265423D01*
X147879909Y-112948260D01*
X147461333Y-112865000D01*
X147178667Y-112865000D01*
X146760091Y-112948260D01*
X146285423Y-113265423D01*
X146087667Y-113561386D01*
X146000786Y-113544104D01*
X145814577Y-113265423D01*
X145339909Y-112948260D01*
X144921333Y-112865000D01*
X144638667Y-112865000D01*
X144220091Y-112948260D01*
X143745423Y-113265423D01*
X143489053Y-113649108D01*
X143392389Y-113444866D01*
X142977423Y-113068959D01*
X142589039Y-112908096D01*
X142367000Y-113030085D01*
X142113000Y-113030085D01*
X141890961Y-112908096D01*
X141502577Y-113068959D01*
X141087611Y-113444866D01*
X140848086Y-113950959D01*
X138604664Y-113950959D01*
X138558839Y-113720582D01*
X138230625Y-113229375D01*
X137739418Y-112901161D01*
X137306256Y-112815000D01*
X137013744Y-112815000D01*
X136580582Y-112901161D01*
X136089375Y-113229375D01*
X135761161Y-113720582D01*
X135645908Y-114300000D01*
X127685000Y-114300000D01*
X127685000Y-112445000D01*
X157412539Y-112445000D01*
X157480000Y-112458419D01*
X157747273Y-112405255D01*
X157973857Y-112253857D01*
X158078369Y-112097443D01*
X158089803Y-112089803D01*
X158117333Y-112048601D01*
X158120016Y-112035114D01*
X158125255Y-112027273D01*
X158165000Y-111827462D01*
X158178419Y-111760000D01*
X158165000Y-111692538D01*
X158165000Y-107014606D01*
X160354606Y-104825000D01*
X161527298Y-104825000D01*
X159535528Y-106816771D01*
X159472072Y-106859171D01*
X159429672Y-106922627D01*
X159429671Y-106922628D01*
X159304097Y-107110563D01*
X159245112Y-107407100D01*
X159260001Y-107481952D01*
X159260001Y-107941822D01*
X158949375Y-108149375D01*
X158621161Y-108640582D01*
X158505908Y-109220000D01*
X158621161Y-109799418D01*
X158949375Y-110290625D01*
X159440582Y-110618839D01*
X159873744Y-110705000D01*
X160166256Y-110705000D01*
X160599418Y-110618839D01*
X161090625Y-110290625D01*
X161303843Y-109971522D01*
X161364817Y-110101358D01*
X161793076Y-110491645D01*
X162203110Y-110661476D01*
X162433000Y-110540155D01*
X162433000Y-109347000D01*
X162687000Y-109347000D01*
X162687000Y-110540155D01*
X162916890Y-110661476D01*
X163326924Y-110491645D01*
X163755183Y-110101358D01*
X163830000Y-109942046D01*
X163904817Y-110101358D01*
X164333076Y-110491645D01*
X164743110Y-110661476D01*
X164973000Y-110540155D01*
X164973000Y-109347000D01*
X162687000Y-109347000D01*
X162433000Y-109347000D01*
X162413000Y-109347000D01*
X162413000Y-109093000D01*
X162433000Y-109093000D01*
X162433000Y-107899845D01*
X162687000Y-107899845D01*
X162687000Y-109093000D01*
X164973000Y-109093000D01*
X164973000Y-107899845D01*
X164743110Y-107778524D01*
X164333076Y-107948355D01*
X163904817Y-108338642D01*
X163830000Y-108497954D01*
X163755183Y-108338642D01*
X163326924Y-107948355D01*
X162916890Y-107778524D01*
X162687000Y-107899845D01*
X162433000Y-107899845D01*
X162203110Y-107778524D01*
X161793076Y-107948355D01*
X161364817Y-108338642D01*
X161303843Y-108468478D01*
X161090625Y-108149375D01*
X160780000Y-107941822D01*
X160780000Y-107721901D01*
X161780000Y-106721901D01*
X161780000Y-106846310D01*
X161876673Y-107079699D01*
X162055302Y-107258327D01*
X162288691Y-107355000D01*
X162829250Y-107355000D01*
X162988000Y-107196250D01*
X162988000Y-106172000D01*
X163242000Y-106172000D01*
X163242000Y-107196250D01*
X163400750Y-107355000D01*
X163941309Y-107355000D01*
X164174698Y-107258327D01*
X164353327Y-107079699D01*
X164450000Y-106846310D01*
X164450000Y-106330750D01*
X164291250Y-106172000D01*
X163242000Y-106172000D01*
X162988000Y-106172000D01*
X162968000Y-106172000D01*
X162968000Y-105918000D01*
X162988000Y-105918000D01*
X162988000Y-105898000D01*
X163242000Y-105898000D01*
X163242000Y-105918000D01*
X164291250Y-105918000D01*
X164450000Y-105759250D01*
X164450000Y-105309900D01*
X164529242Y-105309900D01*
X164467560Y-105619999D01*
X164467560Y-106470001D01*
X164535873Y-106813436D01*
X164730414Y-107104586D01*
X165021564Y-107299127D01*
X165364999Y-107367440D01*
X166062639Y-107367440D01*
X166497160Y-107801961D01*
X166332191Y-107912191D01*
X166191843Y-108122235D01*
X166171261Y-108225708D01*
X165866924Y-107948355D01*
X165456890Y-107778524D01*
X165227000Y-107899845D01*
X165227000Y-109093000D01*
X165247000Y-109093000D01*
X165247000Y-109347000D01*
X165227000Y-109347000D01*
X165227000Y-110540155D01*
X165456890Y-110661476D01*
X165866924Y-110491645D01*
X166171261Y-110214292D01*
X166191843Y-110317765D01*
X166332191Y-110527809D01*
X166542235Y-110668157D01*
X166790000Y-110717440D01*
X168490000Y-110717440D01*
X168737765Y-110668157D01*
X168947809Y-110527809D01*
X169088157Y-110317765D01*
X169137440Y-110070000D01*
X169137440Y-109980000D01*
X170951413Y-109980000D01*
X170992874Y-110188435D01*
X171187414Y-110479586D01*
X171478565Y-110674126D01*
X171822000Y-110742440D01*
X172732138Y-110742440D01*
X172913071Y-110923373D01*
X172955471Y-110986829D01*
X173206863Y-111154804D01*
X173428548Y-111198900D01*
X173428553Y-111198900D01*
X173503400Y-111213788D01*
X173578247Y-111198900D01*
X181172953Y-111198900D01*
X181247800Y-111213788D01*
X181322647Y-111198900D01*
X181322652Y-111198900D01*
X181544337Y-111154804D01*
X181795729Y-110986829D01*
X181838131Y-110923370D01*
X183932500Y-108829001D01*
X186712970Y-111609472D01*
X186755371Y-111672929D01*
X187006763Y-111840904D01*
X187228448Y-111885000D01*
X187228452Y-111885000D01*
X187303299Y-111899888D01*
X187378146Y-111885000D01*
X200379413Y-111885000D01*
X200420874Y-112093435D01*
X200615414Y-112384586D01*
X200906565Y-112579126D01*
X201250000Y-112647440D01*
X202160138Y-112647440D01*
X202326771Y-112814073D01*
X202369171Y-112877529D01*
X202432627Y-112919929D01*
X202620562Y-113045504D01*
X202668705Y-113055080D01*
X202842248Y-113089600D01*
X202842252Y-113089600D01*
X202917100Y-113104488D01*
X202991948Y-113089600D01*
X208626353Y-113089600D01*
X208701200Y-113104488D01*
X208776047Y-113089600D01*
X208776052Y-113089600D01*
X208997737Y-113045504D01*
X209249129Y-112877529D01*
X209291531Y-112814070D01*
X209400401Y-112705200D01*
X209446583Y-112705200D01*
X209790235Y-112562855D01*
X209822890Y-112530200D01*
X218831342Y-112530200D01*
X218904565Y-112579126D01*
X219248000Y-112647440D01*
X220173000Y-112647440D01*
X220516435Y-112579126D01*
X220807586Y-112384586D01*
X221002126Y-112093435D01*
X221070440Y-111750000D01*
X221070440Y-110500000D01*
X221002126Y-110156565D01*
X220807586Y-109865414D01*
X220516435Y-109670874D01*
X220173000Y-109602560D01*
X219248000Y-109602560D01*
X218904565Y-109670874D01*
X218613414Y-109865414D01*
X218418874Y-110156565D01*
X218350560Y-110500000D01*
X218350560Y-111010200D01*
X209822890Y-111010200D01*
X209790235Y-110977545D01*
X209446583Y-110835200D01*
X209074617Y-110835200D01*
X208730965Y-110977545D01*
X208467945Y-111240565D01*
X208331655Y-111569600D01*
X206047440Y-111569600D01*
X206047440Y-110500000D01*
X205979126Y-110156565D01*
X205784586Y-109865414D01*
X205493435Y-109670874D01*
X205150000Y-109602560D01*
X204225000Y-109602560D01*
X203881565Y-109670874D01*
X203590414Y-109865414D01*
X203395874Y-110156565D01*
X203332632Y-110474500D01*
X203285517Y-110474500D01*
X203072440Y-110562759D01*
X203072440Y-110500000D01*
X203004126Y-110156565D01*
X202809586Y-109865414D01*
X202518435Y-109670874D01*
X202175000Y-109602560D01*
X201250000Y-109602560D01*
X200906565Y-109670874D01*
X200615414Y-109865414D01*
X200420874Y-110156565D01*
X200379413Y-110365000D01*
X187618102Y-110365000D01*
X184692500Y-107439399D01*
X184692500Y-106238263D01*
X184738435Y-106229126D01*
X185029586Y-106034586D01*
X185224126Y-105743435D01*
X185292440Y-105400000D01*
X185292440Y-104150000D01*
X185224126Y-103806565D01*
X185029586Y-103515414D01*
X184738435Y-103320874D01*
X184395000Y-103252560D01*
X183470000Y-103252560D01*
X183126565Y-103320874D01*
X182835414Y-103515414D01*
X182640874Y-103806565D01*
X182572560Y-104150000D01*
X182572560Y-105400000D01*
X182640874Y-105743435D01*
X182835414Y-106034586D01*
X183126565Y-106229126D01*
X183172501Y-106238263D01*
X183172500Y-107439398D01*
X181905000Y-108706899D01*
X181905000Y-108218690D01*
X181808327Y-107985301D01*
X181629698Y-107806673D01*
X181396309Y-107710000D01*
X180843250Y-107710000D01*
X180684500Y-107868750D01*
X180684500Y-109093000D01*
X180704500Y-109093000D01*
X180704500Y-109347000D01*
X180684500Y-109347000D01*
X180684500Y-109367000D01*
X180430500Y-109367000D01*
X180430500Y-109347000D01*
X179368750Y-109347000D01*
X179210000Y-109505750D01*
X179210000Y-109678900D01*
X178942440Y-109678900D01*
X178942440Y-108595000D01*
X178874126Y-108251565D01*
X178852160Y-108218690D01*
X179210000Y-108218690D01*
X179210000Y-108934250D01*
X179368750Y-109093000D01*
X180430500Y-109093000D01*
X180430500Y-107868750D01*
X180271750Y-107710000D01*
X179718691Y-107710000D01*
X179485302Y-107806673D01*
X179306673Y-107985301D01*
X179210000Y-108218690D01*
X178852160Y-108218690D01*
X178679586Y-107960414D01*
X178388435Y-107765874D01*
X178045000Y-107697560D01*
X177120000Y-107697560D01*
X176776565Y-107765874D01*
X176485414Y-107960414D01*
X176421000Y-108056817D01*
X176356586Y-107960414D01*
X176065435Y-107765874D01*
X175722000Y-107697560D01*
X174797000Y-107697560D01*
X174453565Y-107765874D01*
X174162414Y-107960414D01*
X173967874Y-108251565D01*
X173899560Y-108595000D01*
X173899560Y-109678900D01*
X173818202Y-109678900D01*
X173644440Y-109505138D01*
X173644440Y-108595000D01*
X173576126Y-108251565D01*
X173381586Y-107960414D01*
X173090435Y-107765874D01*
X172747000Y-107697560D01*
X171822000Y-107697560D01*
X171478565Y-107765874D01*
X171187414Y-107960414D01*
X170992874Y-108251565D01*
X170951413Y-108460000D01*
X169137440Y-108460000D01*
X169137440Y-108370000D01*
X169088157Y-108122235D01*
X168947809Y-107912191D01*
X168737765Y-107771843D01*
X168490000Y-107722560D01*
X168385561Y-107722560D01*
X168355904Y-107573463D01*
X168355904Y-107573462D01*
X168230329Y-107385527D01*
X168187929Y-107322071D01*
X168124473Y-107279671D01*
X167162440Y-106317639D01*
X167162440Y-105619999D01*
X167100758Y-105309900D01*
X176044753Y-105309900D01*
X176119600Y-105324788D01*
X176194447Y-105309900D01*
X176194452Y-105309900D01*
X176416137Y-105265804D01*
X176667529Y-105097829D01*
X176709931Y-105034370D01*
X176716861Y-105027440D01*
X177627000Y-105027440D01*
X177970435Y-104959126D01*
X178261586Y-104764586D01*
X178456126Y-104473435D01*
X178524440Y-104130000D01*
X178524440Y-103790750D01*
X178792000Y-103790750D01*
X178792000Y-104506310D01*
X178888673Y-104739699D01*
X179067302Y-104918327D01*
X179300691Y-105015000D01*
X179853750Y-105015000D01*
X180012500Y-104856250D01*
X180012500Y-103632000D01*
X180266500Y-103632000D01*
X180266500Y-104856250D01*
X180425250Y-105015000D01*
X180978309Y-105015000D01*
X181211698Y-104918327D01*
X181390327Y-104739699D01*
X181487000Y-104506310D01*
X181487000Y-103790750D01*
X181328250Y-103632000D01*
X180266500Y-103632000D01*
X180012500Y-103632000D01*
X178950750Y-103632000D01*
X178792000Y-103790750D01*
X178524440Y-103790750D01*
X178524440Y-102880000D01*
X178456126Y-102536565D01*
X178434160Y-102503690D01*
X178792000Y-102503690D01*
X178792000Y-103219250D01*
X178950750Y-103378000D01*
X180012500Y-103378000D01*
X180012500Y-102153750D01*
X180266500Y-102153750D01*
X180266500Y-103378000D01*
X181328250Y-103378000D01*
X181487000Y-103219250D01*
X181487000Y-102503690D01*
X181390327Y-102270301D01*
X181211698Y-102091673D01*
X180978309Y-101995000D01*
X180425250Y-101995000D01*
X180266500Y-102153750D01*
X180012500Y-102153750D01*
X179853750Y-101995000D01*
X179300691Y-101995000D01*
X179067302Y-102091673D01*
X178888673Y-102270301D01*
X178792000Y-102503690D01*
X178434160Y-102503690D01*
X178261586Y-102245414D01*
X177970435Y-102050874D01*
X177925000Y-102041836D01*
X177925000Y-101055805D01*
X177933436Y-101054127D01*
X178224586Y-100859586D01*
X178419127Y-100568436D01*
X178487440Y-100225001D01*
X178487440Y-99345750D01*
X178855000Y-99345750D01*
X178855000Y-100036309D01*
X178951673Y-100269698D01*
X179130301Y-100448327D01*
X179363690Y-100545000D01*
X180054250Y-100545000D01*
X180213000Y-100386250D01*
X180213000Y-99187000D01*
X180467000Y-99187000D01*
X180467000Y-100386250D01*
X180625750Y-100545000D01*
X181316310Y-100545000D01*
X181549699Y-100448327D01*
X181728327Y-100269698D01*
X181815136Y-100060122D01*
X182113076Y-100331645D01*
X182523110Y-100501476D01*
X182753000Y-100380155D01*
X182753000Y-99187000D01*
X183007000Y-99187000D01*
X183007000Y-100380155D01*
X183236890Y-100501476D01*
X183646924Y-100331645D01*
X184075183Y-99941358D01*
X184150000Y-99782046D01*
X184224817Y-99941358D01*
X184653076Y-100331645D01*
X185063110Y-100501476D01*
X185293000Y-100380155D01*
X185293000Y-99187000D01*
X183007000Y-99187000D01*
X182753000Y-99187000D01*
X180467000Y-99187000D01*
X180213000Y-99187000D01*
X179013750Y-99187000D01*
X178855000Y-99345750D01*
X178487440Y-99345750D01*
X178487440Y-99324999D01*
X178419127Y-98981564D01*
X178224586Y-98690414D01*
X177933436Y-98495873D01*
X177590001Y-98427560D01*
X176739999Y-98427560D01*
X176396564Y-98495873D01*
X176105414Y-98690414D01*
X175945000Y-98930490D01*
X175945000Y-98118588D01*
X175951673Y-98134698D01*
X176130301Y-98313327D01*
X176363690Y-98410000D01*
X176879250Y-98410000D01*
X177038000Y-98251250D01*
X177038000Y-97202000D01*
X177292000Y-97202000D01*
X177292000Y-98251250D01*
X177450750Y-98410000D01*
X177966310Y-98410000D01*
X178199699Y-98313327D01*
X178378327Y-98134698D01*
X178475000Y-97901309D01*
X178475000Y-97360750D01*
X178316250Y-97202000D01*
X177292000Y-97202000D01*
X177038000Y-97202000D01*
X177018000Y-97202000D01*
X177018000Y-96948000D01*
X177038000Y-96948000D01*
X177038000Y-95898750D01*
X177292000Y-95898750D01*
X177292000Y-96948000D01*
X178316250Y-96948000D01*
X178475000Y-96789250D01*
X178475000Y-96520000D01*
X178825908Y-96520000D01*
X178941161Y-97099418D01*
X179269375Y-97590625D01*
X179291032Y-97605096D01*
X179130301Y-97671673D01*
X178951673Y-97850302D01*
X178855000Y-98083691D01*
X178855000Y-98774250D01*
X179013750Y-98933000D01*
X180213000Y-98933000D01*
X180213000Y-98913000D01*
X180467000Y-98913000D01*
X180467000Y-98933000D01*
X182753000Y-98933000D01*
X182753000Y-98913000D01*
X183007000Y-98913000D01*
X183007000Y-98933000D01*
X185293000Y-98933000D01*
X185293000Y-98913000D01*
X185547000Y-98913000D01*
X185547000Y-98933000D01*
X185567000Y-98933000D01*
X185567000Y-99187000D01*
X185547000Y-99187000D01*
X185547000Y-100380155D01*
X185776890Y-100501476D01*
X185984400Y-100415528D01*
X185984401Y-103399160D01*
X185810414Y-103515414D01*
X185615874Y-103806565D01*
X185547560Y-104150000D01*
X185547560Y-105400000D01*
X185615874Y-105743435D01*
X185810414Y-106034586D01*
X186101565Y-106229126D01*
X186445000Y-106297440D01*
X187370000Y-106297440D01*
X187713435Y-106229126D01*
X188004586Y-106034586D01*
X188199126Y-105743435D01*
X188267440Y-105400000D01*
X188267440Y-104150000D01*
X188199126Y-103806565D01*
X188004586Y-103515414D01*
X187713435Y-103320874D01*
X187504400Y-103279294D01*
X187504400Y-100460592D01*
X187603110Y-100501476D01*
X187833000Y-100380155D01*
X187833000Y-99187000D01*
X188087000Y-99187000D01*
X188087000Y-100380155D01*
X188316890Y-100501476D01*
X188726924Y-100331645D01*
X189155183Y-99941358D01*
X189230000Y-99782046D01*
X189304817Y-99941358D01*
X189733076Y-100331645D01*
X190143110Y-100501476D01*
X190373000Y-100380155D01*
X190373000Y-99187000D01*
X190627000Y-99187000D01*
X190627000Y-100380155D01*
X190856890Y-100501476D01*
X191266924Y-100331645D01*
X191695183Y-99941358D01*
X191770000Y-99782046D01*
X191844817Y-99941358D01*
X192273076Y-100331645D01*
X192683110Y-100501476D01*
X192913000Y-100380155D01*
X192913000Y-99187000D01*
X193167000Y-99187000D01*
X193167000Y-100380155D01*
X193396890Y-100501476D01*
X193806924Y-100331645D01*
X194235183Y-99941358D01*
X194310000Y-99782046D01*
X194384817Y-99941358D01*
X194813076Y-100331645D01*
X195223110Y-100501476D01*
X195453000Y-100380155D01*
X195453000Y-99187000D01*
X195707000Y-99187000D01*
X195707000Y-100380155D01*
X195936890Y-100501476D01*
X196346924Y-100331645D01*
X196775183Y-99941358D01*
X196850000Y-99782046D01*
X196924817Y-99941358D01*
X197353076Y-100331645D01*
X197763110Y-100501476D01*
X197993000Y-100380155D01*
X197993000Y-99187000D01*
X198247000Y-99187000D01*
X198247000Y-100380155D01*
X198476890Y-100501476D01*
X198886924Y-100331645D01*
X199315183Y-99941358D01*
X199390000Y-99782046D01*
X199464817Y-99941358D01*
X199893076Y-100331645D01*
X200303110Y-100501476D01*
X200533000Y-100380155D01*
X200533000Y-99187000D01*
X200787000Y-99187000D01*
X200787000Y-100380155D01*
X201016890Y-100501476D01*
X201426924Y-100331645D01*
X201855183Y-99941358D01*
X201930000Y-99782046D01*
X202004817Y-99941358D01*
X202433076Y-100331645D01*
X202843110Y-100501476D01*
X203073000Y-100380155D01*
X203073000Y-99187000D01*
X203327000Y-99187000D01*
X203327000Y-100380155D01*
X203556890Y-100501476D01*
X203966924Y-100331645D01*
X204395183Y-99941358D01*
X204470000Y-99782046D01*
X204544817Y-99941358D01*
X204973076Y-100331645D01*
X205383110Y-100501476D01*
X205613000Y-100380155D01*
X205613000Y-99187000D01*
X205867000Y-99187000D01*
X205867000Y-100380155D01*
X206096890Y-100501476D01*
X206506924Y-100331645D01*
X206935183Y-99941358D01*
X207010000Y-99782046D01*
X207084817Y-99941358D01*
X207513076Y-100331645D01*
X207923110Y-100501476D01*
X208153000Y-100380155D01*
X208153000Y-99187000D01*
X208407000Y-99187000D01*
X208407000Y-100380155D01*
X208636890Y-100501476D01*
X209046924Y-100331645D01*
X209475183Y-99941358D01*
X209550000Y-99782046D01*
X209624817Y-99941358D01*
X210053076Y-100331645D01*
X210463110Y-100501476D01*
X210693000Y-100380155D01*
X210693000Y-99187000D01*
X210947000Y-99187000D01*
X210947000Y-100380155D01*
X211176890Y-100501476D01*
X211586924Y-100331645D01*
X212015183Y-99941358D01*
X212090000Y-99782046D01*
X212164817Y-99941358D01*
X212593076Y-100331645D01*
X213003110Y-100501476D01*
X213233000Y-100380155D01*
X213233000Y-99187000D01*
X213487000Y-99187000D01*
X213487000Y-100380155D01*
X213716890Y-100501476D01*
X214126924Y-100331645D01*
X214555183Y-99941358D01*
X214630000Y-99782046D01*
X214704817Y-99941358D01*
X215133076Y-100331645D01*
X215543110Y-100501476D01*
X215773000Y-100380155D01*
X215773000Y-99187000D01*
X216027000Y-99187000D01*
X216027000Y-100380155D01*
X216256890Y-100501476D01*
X216666924Y-100331645D01*
X217095183Y-99941358D01*
X217170000Y-99782046D01*
X217244817Y-99941358D01*
X217673076Y-100331645D01*
X218083110Y-100501476D01*
X218313000Y-100380155D01*
X218313000Y-99187000D01*
X218567000Y-99187000D01*
X218567000Y-100380155D01*
X218796890Y-100501476D01*
X219206924Y-100331645D01*
X219635183Y-99941358D01*
X219710000Y-99782046D01*
X219784817Y-99941358D01*
X220213076Y-100331645D01*
X220623110Y-100501476D01*
X220853000Y-100380155D01*
X220853000Y-99187000D01*
X218567000Y-99187000D01*
X218313000Y-99187000D01*
X216027000Y-99187000D01*
X215773000Y-99187000D01*
X213487000Y-99187000D01*
X213233000Y-99187000D01*
X210947000Y-99187000D01*
X210693000Y-99187000D01*
X208407000Y-99187000D01*
X208153000Y-99187000D01*
X205867000Y-99187000D01*
X205613000Y-99187000D01*
X203327000Y-99187000D01*
X203073000Y-99187000D01*
X200787000Y-99187000D01*
X200533000Y-99187000D01*
X198247000Y-99187000D01*
X197993000Y-99187000D01*
X195707000Y-99187000D01*
X195453000Y-99187000D01*
X193167000Y-99187000D01*
X192913000Y-99187000D01*
X190627000Y-99187000D01*
X190373000Y-99187000D01*
X188087000Y-99187000D01*
X187833000Y-99187000D01*
X187813000Y-99187000D01*
X187813000Y-98933000D01*
X187833000Y-98933000D01*
X187833000Y-98913000D01*
X188087000Y-98913000D01*
X188087000Y-98933000D01*
X190373000Y-98933000D01*
X190373000Y-98913000D01*
X190627000Y-98913000D01*
X190627000Y-98933000D01*
X192913000Y-98933000D01*
X192913000Y-98913000D01*
X193167000Y-98913000D01*
X193167000Y-98933000D01*
X195453000Y-98933000D01*
X195453000Y-98913000D01*
X195707000Y-98913000D01*
X195707000Y-98933000D01*
X197993000Y-98933000D01*
X197993000Y-98913000D01*
X198247000Y-98913000D01*
X198247000Y-98933000D01*
X200533000Y-98933000D01*
X200533000Y-98913000D01*
X200787000Y-98913000D01*
X200787000Y-98933000D01*
X203073000Y-98933000D01*
X203073000Y-98913000D01*
X203327000Y-98913000D01*
X203327000Y-98933000D01*
X205613000Y-98933000D01*
X205613000Y-98913000D01*
X205867000Y-98913000D01*
X205867000Y-98933000D01*
X208153000Y-98933000D01*
X208153000Y-98913000D01*
X208407000Y-98913000D01*
X208407000Y-98933000D01*
X210693000Y-98933000D01*
X210693000Y-98913000D01*
X210947000Y-98913000D01*
X210947000Y-98933000D01*
X213233000Y-98933000D01*
X213233000Y-98913000D01*
X213487000Y-98913000D01*
X213487000Y-98933000D01*
X215773000Y-98933000D01*
X215773000Y-98913000D01*
X216027000Y-98913000D01*
X216027000Y-98933000D01*
X218313000Y-98933000D01*
X218313000Y-98913000D01*
X218567000Y-98913000D01*
X218567000Y-98933000D01*
X220853000Y-98933000D01*
X220853000Y-98913000D01*
X221107000Y-98913000D01*
X221107000Y-98933000D01*
X221127000Y-98933000D01*
X221127000Y-99187000D01*
X221107000Y-99187000D01*
X221107000Y-100380155D01*
X221336890Y-100501476D01*
X221746924Y-100331645D01*
X221925500Y-100168903D01*
X221925501Y-109661737D01*
X221879565Y-109670874D01*
X221588414Y-109865414D01*
X221393874Y-110156565D01*
X221325560Y-110500000D01*
X221325560Y-111750000D01*
X221393874Y-112093435D01*
X221588414Y-112384586D01*
X221879565Y-112579126D01*
X222223000Y-112647440D01*
X223148000Y-112647440D01*
X223491435Y-112579126D01*
X223782586Y-112384586D01*
X223977126Y-112093435D01*
X224045440Y-111750000D01*
X224045440Y-110500000D01*
X223977126Y-110156565D01*
X223782586Y-109865414D01*
X223491435Y-109670874D01*
X223445500Y-109661737D01*
X223445500Y-99108348D01*
X223460388Y-99033500D01*
X223445500Y-98958652D01*
X223445500Y-98958648D01*
X223401404Y-98736963D01*
X223233429Y-98485571D01*
X223169973Y-98443171D01*
X222157491Y-97430689D01*
X222378839Y-97099418D01*
X222494092Y-96520000D01*
X222378839Y-95940582D01*
X222050625Y-95449375D01*
X221559418Y-95121161D01*
X221126256Y-95035000D01*
X220833744Y-95035000D01*
X220400582Y-95121161D01*
X219909375Y-95449375D01*
X219710000Y-95747761D01*
X219510625Y-95449375D01*
X219019418Y-95121161D01*
X218586256Y-95035000D01*
X218293744Y-95035000D01*
X217860582Y-95121161D01*
X217369375Y-95449375D01*
X217170000Y-95747761D01*
X216970625Y-95449375D01*
X216479418Y-95121161D01*
X216046256Y-95035000D01*
X215753744Y-95035000D01*
X215320582Y-95121161D01*
X214829375Y-95449375D01*
X214630000Y-95747761D01*
X214430625Y-95449375D01*
X213939418Y-95121161D01*
X213506256Y-95035000D01*
X213213744Y-95035000D01*
X212780582Y-95121161D01*
X212289375Y-95449375D01*
X212090000Y-95747761D01*
X211890625Y-95449375D01*
X211399418Y-95121161D01*
X210966256Y-95035000D01*
X210673744Y-95035000D01*
X210240582Y-95121161D01*
X209749375Y-95449375D01*
X209550000Y-95747761D01*
X209350625Y-95449375D01*
X208859418Y-95121161D01*
X208426256Y-95035000D01*
X208133744Y-95035000D01*
X207700582Y-95121161D01*
X207209375Y-95449375D01*
X207010000Y-95747761D01*
X206810625Y-95449375D01*
X206319418Y-95121161D01*
X205886256Y-95035000D01*
X205593744Y-95035000D01*
X205160582Y-95121161D01*
X204669375Y-95449375D01*
X204470000Y-95747761D01*
X204270625Y-95449375D01*
X203779418Y-95121161D01*
X203346256Y-95035000D01*
X203053744Y-95035000D01*
X202620582Y-95121161D01*
X202129375Y-95449375D01*
X201930000Y-95747761D01*
X201730625Y-95449375D01*
X201239418Y-95121161D01*
X200806256Y-95035000D01*
X200513744Y-95035000D01*
X200080582Y-95121161D01*
X199589375Y-95449375D01*
X199390000Y-95747761D01*
X199190625Y-95449375D01*
X198699418Y-95121161D01*
X198266256Y-95035000D01*
X197973744Y-95035000D01*
X197540582Y-95121161D01*
X197049375Y-95449375D01*
X196850000Y-95747761D01*
X196650625Y-95449375D01*
X196159418Y-95121161D01*
X195726256Y-95035000D01*
X195433744Y-95035000D01*
X195000582Y-95121161D01*
X194509375Y-95449375D01*
X194310000Y-95747761D01*
X194110625Y-95449375D01*
X193619418Y-95121161D01*
X193186256Y-95035000D01*
X192893744Y-95035000D01*
X192460582Y-95121161D01*
X191969375Y-95449375D01*
X191770000Y-95747761D01*
X191570625Y-95449375D01*
X191079418Y-95121161D01*
X190646256Y-95035000D01*
X190353744Y-95035000D01*
X189920582Y-95121161D01*
X189429375Y-95449375D01*
X189230000Y-95747761D01*
X189030625Y-95449375D01*
X188539418Y-95121161D01*
X188106256Y-95035000D01*
X187813744Y-95035000D01*
X187380582Y-95121161D01*
X186889375Y-95449375D01*
X186690000Y-95747761D01*
X186490625Y-95449375D01*
X185999418Y-95121161D01*
X185566256Y-95035000D01*
X185273744Y-95035000D01*
X184840582Y-95121161D01*
X184349375Y-95449375D01*
X184150000Y-95747761D01*
X183950625Y-95449375D01*
X183459418Y-95121161D01*
X183026256Y-95035000D01*
X182733744Y-95035000D01*
X182300582Y-95121161D01*
X181809375Y-95449375D01*
X181610000Y-95747761D01*
X181410625Y-95449375D01*
X180919418Y-95121161D01*
X180486256Y-95035000D01*
X180193744Y-95035000D01*
X179760582Y-95121161D01*
X179269375Y-95449375D01*
X178941161Y-95940582D01*
X178825908Y-96520000D01*
X178475000Y-96520000D01*
X178475000Y-96248691D01*
X178378327Y-96015302D01*
X178199699Y-95836673D01*
X177966310Y-95740000D01*
X177450750Y-95740000D01*
X177292000Y-95898750D01*
X177038000Y-95898750D01*
X176943993Y-95804743D01*
X178083736Y-94665000D01*
X225373000Y-94665000D01*
X225373000Y-123775000D01*
G36*
X186782509Y-97430689D02*
X186311402Y-97901796D01*
X186190214Y-97791353D01*
X186490625Y-97590625D01*
X186690000Y-97292239D01*
X186782509Y-97430689D01*
X186782509Y-97430689D01*
G37*
X186782509Y-97430689D02*
X186311402Y-97901796D01*
X186190214Y-97791353D01*
X186490625Y-97590625D01*
X186690000Y-97292239D01*
X186782509Y-97430689D01*
M02*
