%TF.GenerationSoftware,KiCad,Pcbnew,5.1.9+dfsg1-1*%
%TF.CreationDate,2022-04-01T11:17:58+02:00*%
%TF.ProjectId,AmigaPCDriveAdapter,416d6967-6150-4434-9472-697665416461,2.0*%
%TF.SameCoordinates,Original*%
%TF.FileFunction,Paste,Bot*%
%TF.FilePolarity,Positive*%
%FSLAX46Y46*%
G04 Gerber Fmt 4.6, Leading zero omitted, Abs format (unit mm)*
G04 Created by KiCad (PCBNEW 5.1.9+dfsg1-1) date 2022-04-01 11:17:58*
%MOMM*%
%LPD*%
G01*
G04 APERTURE LIST*
G04 APERTURE END LIST*
G36*
G01*
X119732000Y-108485000D02*
X119732000Y-109735000D01*
G75*
G02*
X119482000Y-109985000I-250000J0D01*
G01*
X118682000Y-109985000D01*
G75*
G02*
X118432000Y-109735000I0J250000D01*
G01*
X118432000Y-108485000D01*
G75*
G02*
X118682000Y-108235000I250000J0D01*
G01*
X119482000Y-108235000D01*
G75*
G02*
X119732000Y-108485000I0J-250000D01*
G01*
G37*
G36*
G01*
X122832000Y-108485000D02*
X122832000Y-109735000D01*
G75*
G02*
X122582000Y-109985000I-250000J0D01*
G01*
X121782000Y-109985000D01*
G75*
G02*
X121532000Y-109735000I0J250000D01*
G01*
X121532000Y-108485000D01*
G75*
G02*
X121782000Y-108235000I250000J0D01*
G01*
X122582000Y-108235000D01*
G75*
G02*
X122832000Y-108485000I0J-250000D01*
G01*
G37*
G36*
G01*
X131692000Y-109735000D02*
X131692000Y-108485000D01*
G75*
G02*
X131942000Y-108235000I250000J0D01*
G01*
X132742000Y-108235000D01*
G75*
G02*
X132992000Y-108485000I0J-250000D01*
G01*
X132992000Y-109735000D01*
G75*
G02*
X132742000Y-109985000I-250000J0D01*
G01*
X131942000Y-109985000D01*
G75*
G02*
X131692000Y-109735000I0J250000D01*
G01*
G37*
G36*
G01*
X128592000Y-109735000D02*
X128592000Y-108485000D01*
G75*
G02*
X128842000Y-108235000I250000J0D01*
G01*
X129642000Y-108235000D01*
G75*
G02*
X129892000Y-108485000I0J-250000D01*
G01*
X129892000Y-109735000D01*
G75*
G02*
X129642000Y-109985000I-250000J0D01*
G01*
X128842000Y-109985000D01*
G75*
G02*
X128592000Y-109735000I0J250000D01*
G01*
G37*
G36*
G01*
X186938000Y-101480000D02*
X186938000Y-100230000D01*
G75*
G02*
X187188000Y-99980000I250000J0D01*
G01*
X187988000Y-99980000D01*
G75*
G02*
X188238000Y-100230000I0J-250000D01*
G01*
X188238000Y-101480000D01*
G75*
G02*
X187988000Y-101730000I-250000J0D01*
G01*
X187188000Y-101730000D01*
G75*
G02*
X186938000Y-101480000I0J250000D01*
G01*
G37*
G36*
G01*
X183838000Y-101480000D02*
X183838000Y-100230000D01*
G75*
G02*
X184088000Y-99980000I250000J0D01*
G01*
X184888000Y-99980000D01*
G75*
G02*
X185138000Y-100230000I0J-250000D01*
G01*
X185138000Y-101480000D01*
G75*
G02*
X184888000Y-101730000I-250000J0D01*
G01*
X184088000Y-101730000D01*
G75*
G02*
X183838000Y-101480000I0J250000D01*
G01*
G37*
G36*
G01*
X187138000Y-96400000D02*
X187138000Y-95150000D01*
G75*
G02*
X187388000Y-94900000I250000J0D01*
G01*
X188188000Y-94900000D01*
G75*
G02*
X188438000Y-95150000I0J-250000D01*
G01*
X188438000Y-96400000D01*
G75*
G02*
X188188000Y-96650000I-250000J0D01*
G01*
X187388000Y-96650000D01*
G75*
G02*
X187138000Y-96400000I0J250000D01*
G01*
G37*
G36*
G01*
X184038000Y-96400000D02*
X184038000Y-95150000D01*
G75*
G02*
X184288000Y-94900000I250000J0D01*
G01*
X185088000Y-94900000D01*
G75*
G02*
X185338000Y-95150000I0J-250000D01*
G01*
X185338000Y-96400000D01*
G75*
G02*
X185088000Y-96650000I-250000J0D01*
G01*
X184288000Y-96650000D01*
G75*
G02*
X184038000Y-96400000I0J250000D01*
G01*
G37*
G36*
G01*
X138348000Y-103379999D02*
X138348000Y-104680001D01*
G75*
G02*
X138098001Y-104930000I-249999J0D01*
G01*
X137272999Y-104930000D01*
G75*
G02*
X137023000Y-104680001I0J249999D01*
G01*
X137023000Y-103379999D01*
G75*
G02*
X137272999Y-103130000I249999J0D01*
G01*
X138098001Y-103130000D01*
G75*
G02*
X138348000Y-103379999I0J-249999D01*
G01*
G37*
G36*
G01*
X141473000Y-103379999D02*
X141473000Y-104680001D01*
G75*
G02*
X141223001Y-104930000I-249999J0D01*
G01*
X140397999Y-104930000D01*
G75*
G02*
X140148000Y-104680001I0J249999D01*
G01*
X140148000Y-103379999D01*
G75*
G02*
X140397999Y-103130000I249999J0D01*
G01*
X141223001Y-103130000D01*
G75*
G02*
X141473000Y-103379999I0J-249999D01*
G01*
G37*
M02*
