%TF.GenerationSoftware,KiCad,Pcbnew,4.0.2+dfsg1-stable*%
%TF.CreationDate,2019-03-01T14:06:32+01:00*%
%TF.ProjectId,AmigaPCDriveAdapter,416D6967615043447269766541646170,rev?*%
%TF.FileFunction,Legend,Bot*%
%FSLAX46Y46*%
G04 Gerber Fmt 4.6, Leading zero omitted, Abs format (unit mm)*
G04 Created by KiCad (PCBNEW 4.0.2+dfsg1-stable) date Fri 01 Mar 2019 14:06:32 CET*
%MOMM*%
G01*
G04 APERTURE LIST*
%ADD10C,0.100000*%
%ADD11C,0.150000*%
%ADD12C,0.300000*%
G04 APERTURE END LIST*
D10*
D11*
X142844003Y-118680667D02*
X142844003Y-118214000D01*
X142844003Y-117980667D02*
X142810669Y-118014000D01*
X142844003Y-118047333D01*
X142877336Y-118014000D01*
X142844003Y-117980667D01*
X142844003Y-118047333D01*
X143177336Y-118214000D02*
X143177336Y-118680667D01*
X143177336Y-118280667D02*
X143210669Y-118247333D01*
X143277336Y-118214000D01*
X143377336Y-118214000D01*
X143444002Y-118247333D01*
X143477336Y-118314000D01*
X143477336Y-118680667D01*
X144344002Y-118680667D02*
X144344002Y-118214000D01*
X144344002Y-118280667D02*
X144377335Y-118247333D01*
X144444002Y-118214000D01*
X144544002Y-118214000D01*
X144610668Y-118247333D01*
X144644002Y-118314000D01*
X144644002Y-118680667D01*
X144644002Y-118314000D02*
X144677335Y-118247333D01*
X144744002Y-118214000D01*
X144844002Y-118214000D01*
X144910668Y-118247333D01*
X144944002Y-118314000D01*
X144944002Y-118680667D01*
X145544001Y-118647333D02*
X145477335Y-118680667D01*
X145344001Y-118680667D01*
X145277335Y-118647333D01*
X145244001Y-118580667D01*
X145244001Y-118314000D01*
X145277335Y-118247333D01*
X145344001Y-118214000D01*
X145477335Y-118214000D01*
X145544001Y-118247333D01*
X145577335Y-118314000D01*
X145577335Y-118380667D01*
X145244001Y-118447333D01*
X145877335Y-118680667D02*
X145877335Y-118214000D01*
X145877335Y-118280667D02*
X145910668Y-118247333D01*
X145977335Y-118214000D01*
X146077335Y-118214000D01*
X146144001Y-118247333D01*
X146177335Y-118314000D01*
X146177335Y-118680667D01*
X146177335Y-118314000D02*
X146210668Y-118247333D01*
X146277335Y-118214000D01*
X146377335Y-118214000D01*
X146444001Y-118247333D01*
X146477335Y-118314000D01*
X146477335Y-118680667D01*
X146910668Y-118680667D02*
X146844001Y-118647333D01*
X146810668Y-118614000D01*
X146777334Y-118547333D01*
X146777334Y-118347333D01*
X146810668Y-118280667D01*
X146844001Y-118247333D01*
X146910668Y-118214000D01*
X147010668Y-118214000D01*
X147077334Y-118247333D01*
X147110668Y-118280667D01*
X147144001Y-118347333D01*
X147144001Y-118547333D01*
X147110668Y-118614000D01*
X147077334Y-118647333D01*
X147010668Y-118680667D01*
X146910668Y-118680667D01*
X147444001Y-118680667D02*
X147444001Y-118214000D01*
X147444001Y-118347333D02*
X147477334Y-118280667D01*
X147510667Y-118247333D01*
X147577334Y-118214000D01*
X147644001Y-118214000D01*
X147877334Y-118680667D02*
X147877334Y-118214000D01*
X147877334Y-117980667D02*
X147844000Y-118014000D01*
X147877334Y-118047333D01*
X147910667Y-118014000D01*
X147877334Y-117980667D01*
X147877334Y-118047333D01*
X148510667Y-118680667D02*
X148510667Y-118314000D01*
X148477333Y-118247333D01*
X148410667Y-118214000D01*
X148277333Y-118214000D01*
X148210667Y-118247333D01*
X148510667Y-118647333D02*
X148444000Y-118680667D01*
X148277333Y-118680667D01*
X148210667Y-118647333D01*
X148177333Y-118580667D01*
X148177333Y-118514000D01*
X148210667Y-118447333D01*
X148277333Y-118414000D01*
X148444000Y-118414000D01*
X148510667Y-118380667D01*
X148844000Y-118680667D02*
X148844000Y-118214000D01*
X148844000Y-118280667D02*
X148877333Y-118247333D01*
X148944000Y-118214000D01*
X149044000Y-118214000D01*
X149110666Y-118247333D01*
X149144000Y-118314000D01*
X149144000Y-118680667D01*
X149144000Y-118314000D02*
X149177333Y-118247333D01*
X149244000Y-118214000D01*
X149344000Y-118214000D01*
X149410666Y-118247333D01*
X149444000Y-118314000D01*
X149444000Y-118680667D01*
X150277332Y-118480667D02*
X150610666Y-118480667D01*
X150210666Y-118680667D02*
X150443999Y-117980667D01*
X150677332Y-118680667D01*
X150910666Y-118614000D02*
X150943999Y-118647333D01*
X150910666Y-118680667D01*
X150877332Y-118647333D01*
X150910666Y-118614000D01*
X150910666Y-118680667D01*
X151210665Y-118647333D02*
X151310665Y-118680667D01*
X151477332Y-118680667D01*
X151543999Y-118647333D01*
X151577332Y-118614000D01*
X151610665Y-118547333D01*
X151610665Y-118480667D01*
X151577332Y-118414000D01*
X151543999Y-118380667D01*
X151477332Y-118347333D01*
X151343999Y-118314000D01*
X151277332Y-118280667D01*
X151243999Y-118247333D01*
X151210665Y-118180667D01*
X151210665Y-118114000D01*
X151243999Y-118047333D01*
X151277332Y-118014000D01*
X151343999Y-117980667D01*
X151510665Y-117980667D01*
X151610665Y-118014000D01*
X151910666Y-118614000D02*
X151943999Y-118647333D01*
X151910666Y-118680667D01*
X151877332Y-118647333D01*
X151910666Y-118614000D01*
X151910666Y-118680667D01*
X152243999Y-118414000D02*
X152777332Y-118414000D01*
X153477332Y-118014000D02*
X153410666Y-117980667D01*
X153310666Y-117980667D01*
X153210666Y-118014000D01*
X153143999Y-118080667D01*
X153110666Y-118147333D01*
X153077332Y-118280667D01*
X153077332Y-118380667D01*
X153110666Y-118514000D01*
X153143999Y-118580667D01*
X153210666Y-118647333D01*
X153310666Y-118680667D01*
X153377332Y-118680667D01*
X153477332Y-118647333D01*
X153510666Y-118614000D01*
X153510666Y-118380667D01*
X153377332Y-118380667D01*
X153810666Y-118614000D02*
X153843999Y-118647333D01*
X153810666Y-118680667D01*
X153777332Y-118647333D01*
X153810666Y-118614000D01*
X153810666Y-118680667D01*
X154143999Y-118680667D02*
X154143999Y-117980667D01*
X154310665Y-117980667D01*
X154410665Y-118014000D01*
X154477332Y-118080667D01*
X154510665Y-118147333D01*
X154543999Y-118280667D01*
X154543999Y-118380667D01*
X154510665Y-118514000D01*
X154477332Y-118580667D01*
X154410665Y-118647333D01*
X154310665Y-118680667D01*
X154143999Y-118680667D01*
X154843999Y-118614000D02*
X154877332Y-118647333D01*
X154843999Y-118680667D01*
X154810665Y-118647333D01*
X154843999Y-118614000D01*
X154843999Y-118680667D01*
D12*
X194112571Y-95190571D02*
X194398285Y-95190571D01*
X194541143Y-95262000D01*
X194684000Y-95404857D01*
X194755428Y-95690571D01*
X194755428Y-96190571D01*
X194684000Y-96476286D01*
X194541143Y-96619143D01*
X194398285Y-96690571D01*
X194112571Y-96690571D01*
X193969714Y-96619143D01*
X193826857Y-96476286D01*
X193755428Y-96190571D01*
X193755428Y-95690571D01*
X193826857Y-95404857D01*
X193969714Y-95262000D01*
X194112571Y-95190571D01*
X195326857Y-96619143D02*
X195541143Y-96690571D01*
X195898286Y-96690571D01*
X196041143Y-96619143D01*
X196112572Y-96547714D01*
X196184000Y-96404857D01*
X196184000Y-96262000D01*
X196112572Y-96119143D01*
X196041143Y-96047714D01*
X195898286Y-95976286D01*
X195612572Y-95904857D01*
X195469714Y-95833429D01*
X195398286Y-95762000D01*
X195326857Y-95619143D01*
X195326857Y-95476286D01*
X195398286Y-95333429D01*
X195469714Y-95262000D01*
X195612572Y-95190571D01*
X195969714Y-95190571D01*
X196184000Y-95262000D01*
X196826857Y-96690571D02*
X196826857Y-95190571D01*
X196826857Y-95904857D02*
X197684000Y-95904857D01*
X197684000Y-96690571D02*
X197684000Y-95190571D01*
X198255429Y-95190571D02*
X198612572Y-96690571D01*
X198898286Y-95619143D01*
X199184000Y-96690571D01*
X199541143Y-95190571D01*
X202041143Y-95262000D02*
X201898286Y-95190571D01*
X201684000Y-95190571D01*
X201469715Y-95262000D01*
X201326857Y-95404857D01*
X201255429Y-95547714D01*
X201184000Y-95833429D01*
X201184000Y-96047714D01*
X201255429Y-96333429D01*
X201326857Y-96476286D01*
X201469715Y-96619143D01*
X201684000Y-96690571D01*
X201826857Y-96690571D01*
X202041143Y-96619143D01*
X202112572Y-96547714D01*
X202112572Y-96047714D01*
X201826857Y-96047714D01*
X202755429Y-96690571D02*
X202755429Y-95190571D01*
X203612572Y-96690571D01*
X203612572Y-95190571D01*
X204326858Y-95190571D02*
X204326858Y-96404857D01*
X204398286Y-96547714D01*
X204469715Y-96619143D01*
X204612572Y-96690571D01*
X204898286Y-96690571D01*
X205041144Y-96619143D01*
X205112572Y-96547714D01*
X205184001Y-96404857D01*
X205184001Y-95190571D01*
X207826858Y-95262000D02*
X207684001Y-95190571D01*
X207469715Y-95190571D01*
X207255430Y-95262000D01*
X207112572Y-95404857D01*
X207041144Y-95547714D01*
X206969715Y-95833429D01*
X206969715Y-96047714D01*
X207041144Y-96333429D01*
X207112572Y-96476286D01*
X207255430Y-96619143D01*
X207469715Y-96690571D01*
X207612572Y-96690571D01*
X207826858Y-96619143D01*
X207898287Y-96547714D01*
X207898287Y-96047714D01*
X207612572Y-96047714D01*
X208541144Y-96690571D02*
X208541144Y-95190571D01*
X209112572Y-95190571D01*
X209255430Y-95262000D01*
X209326858Y-95333429D01*
X209398287Y-95476286D01*
X209398287Y-95690571D01*
X209326858Y-95833429D01*
X209255430Y-95904857D01*
X209112572Y-95976286D01*
X208541144Y-95976286D01*
X210755430Y-96690571D02*
X210041144Y-96690571D01*
X210041144Y-95190571D01*
D11*
X222250000Y-97790000D02*
X179070000Y-97790000D01*
X181610000Y-102870000D02*
X222250000Y-102870000D01*
X222250000Y-97790000D02*
X222250000Y-102870000D01*
X179070000Y-97790000D02*
X179070000Y-100330000D01*
X180340000Y-103150000D02*
X178790000Y-103150000D01*
X179070000Y-100330000D02*
X181610000Y-100330000D01*
X181610000Y-100330000D02*
X181610000Y-102870000D01*
X178790000Y-103150000D02*
X178790000Y-101600000D01*
X186062381Y-104227381D02*
X185490952Y-104227381D01*
X185776667Y-105227381D02*
X185776667Y-104227381D01*
X184967143Y-104227381D02*
X184776666Y-104227381D01*
X184681428Y-104275000D01*
X184586190Y-104370238D01*
X184538571Y-104560714D01*
X184538571Y-104894048D01*
X184586190Y-105084524D01*
X184681428Y-105179762D01*
X184776666Y-105227381D01*
X184967143Y-105227381D01*
X185062381Y-105179762D01*
X185157619Y-105084524D01*
X185205238Y-104894048D01*
X185205238Y-104560714D01*
X185157619Y-104370238D01*
X185062381Y-104275000D01*
X184967143Y-104227381D01*
X184348095Y-105322619D02*
X183586190Y-105322619D01*
X183014761Y-104703571D02*
X183348095Y-104703571D01*
X183348095Y-105227381D02*
X183348095Y-104227381D01*
X182871904Y-104227381D01*
X182014761Y-105227381D02*
X182490952Y-105227381D01*
X182490952Y-104227381D01*
X181490952Y-104227381D02*
X181300475Y-104227381D01*
X181205237Y-104275000D01*
X181109999Y-104370238D01*
X181062380Y-104560714D01*
X181062380Y-104894048D01*
X181109999Y-105084524D01*
X181205237Y-105179762D01*
X181300475Y-105227381D01*
X181490952Y-105227381D01*
X181586190Y-105179762D01*
X181681428Y-105084524D01*
X181729047Y-104894048D01*
X181729047Y-104560714D01*
X181681428Y-104370238D01*
X181586190Y-104275000D01*
X181490952Y-104227381D01*
X180633809Y-105227381D02*
X180633809Y-104227381D01*
X180252856Y-104227381D01*
X180157618Y-104275000D01*
X180109999Y-104322619D01*
X180062380Y-104417857D01*
X180062380Y-104560714D01*
X180109999Y-104655952D01*
X180157618Y-104703571D01*
X180252856Y-104751190D01*
X180633809Y-104751190D01*
X179633809Y-105227381D02*
X179633809Y-104227381D01*
X179252856Y-104227381D01*
X179157618Y-104275000D01*
X179109999Y-104322619D01*
X179062380Y-104417857D01*
X179062380Y-104560714D01*
X179109999Y-104655952D01*
X179157618Y-104703571D01*
X179252856Y-104751190D01*
X179633809Y-104751190D01*
X178443333Y-104751190D02*
X178443333Y-105227381D01*
X178776666Y-104227381D02*
X178443333Y-104751190D01*
X178109999Y-104227381D01*
X177252856Y-105227381D02*
X177824285Y-105227381D01*
X177538571Y-105227381D02*
X177538571Y-104227381D01*
X177633809Y-104370238D01*
X177729047Y-104465476D01*
X177824285Y-104513095D01*
M02*
