%TF.GenerationSoftware,KiCad,Pcbnew,5.0.2+dfsg1-1*%
%TF.CreationDate,2021-01-23T14:19:40+01:00*%
%TF.ProjectId,AmigaPCDriveAdapter,416d6967-6150-4434-9472-697665416461,2.0*%
%TF.SameCoordinates,Original*%
%TF.FileFunction,Copper,L2,Bot*%
%TF.FilePolarity,Positive*%
%FSLAX46Y46*%
G04 Gerber Fmt 4.6, Leading zero omitted, Abs format (unit mm)*
G04 Created by KiCad (PCBNEW 5.0.2+dfsg1-1) date Sat 23 Jan 2021 02:19:40 PM CET*
%MOMM*%
%LPD*%
G01*
G04 APERTURE LIST*
%ADD10R,1.600000X1.600000*%
%ADD11O,1.600000X1.600000*%
%ADD12C,0.100000*%
%ADD13C,1.425000*%
%ADD14O,1.700000X1.700000*%
%ADD15R,1.700000X1.700000*%
%ADD16C,1.520000*%
%ADD17R,1.520000X1.520000*%
%ADD18C,0.600000*%
%ADD19C,0.250000*%
%ADD20C,0.254000*%
G04 APERTURE END LIST*
D10*
X157480000Y-114300000D03*
D11*
X142240000Y-121920000D03*
X154940000Y-114300000D03*
X144780000Y-121920000D03*
X152400000Y-114300000D03*
X147320000Y-121920000D03*
X149860000Y-114300000D03*
X149860000Y-121920000D03*
X147320000Y-114300000D03*
X152400000Y-121920000D03*
X144780000Y-114300000D03*
X154940000Y-121920000D03*
X142240000Y-114300000D03*
X157480000Y-121920000D03*
D12*
G36*
X163247504Y-112156204D02*
X163271773Y-112159804D01*
X163295571Y-112165765D01*
X163318671Y-112174030D01*
X163340849Y-112184520D01*
X163361893Y-112197133D01*
X163381598Y-112211747D01*
X163399777Y-112228223D01*
X163416253Y-112246402D01*
X163430867Y-112266107D01*
X163443480Y-112287151D01*
X163453970Y-112309329D01*
X163462235Y-112332429D01*
X163468196Y-112356227D01*
X163471796Y-112380496D01*
X163473000Y-112405000D01*
X163473000Y-113655000D01*
X163471796Y-113679504D01*
X163468196Y-113703773D01*
X163462235Y-113727571D01*
X163453970Y-113750671D01*
X163443480Y-113772849D01*
X163430867Y-113793893D01*
X163416253Y-113813598D01*
X163399777Y-113831777D01*
X163381598Y-113848253D01*
X163361893Y-113862867D01*
X163340849Y-113875480D01*
X163318671Y-113885970D01*
X163295571Y-113894235D01*
X163271773Y-113900196D01*
X163247504Y-113903796D01*
X163223000Y-113905000D01*
X162298000Y-113905000D01*
X162273496Y-113903796D01*
X162249227Y-113900196D01*
X162225429Y-113894235D01*
X162202329Y-113885970D01*
X162180151Y-113875480D01*
X162159107Y-113862867D01*
X162139402Y-113848253D01*
X162121223Y-113831777D01*
X162104747Y-113813598D01*
X162090133Y-113793893D01*
X162077520Y-113772849D01*
X162067030Y-113750671D01*
X162058765Y-113727571D01*
X162052804Y-113703773D01*
X162049204Y-113679504D01*
X162048000Y-113655000D01*
X162048000Y-112405000D01*
X162049204Y-112380496D01*
X162052804Y-112356227D01*
X162058765Y-112332429D01*
X162067030Y-112309329D01*
X162077520Y-112287151D01*
X162090133Y-112266107D01*
X162104747Y-112246402D01*
X162121223Y-112228223D01*
X162139402Y-112211747D01*
X162159107Y-112197133D01*
X162180151Y-112184520D01*
X162202329Y-112174030D01*
X162225429Y-112165765D01*
X162249227Y-112159804D01*
X162273496Y-112156204D01*
X162298000Y-112155000D01*
X163223000Y-112155000D01*
X163247504Y-112156204D01*
X163247504Y-112156204D01*
G37*
D13*
X162760500Y-113030000D03*
D12*
G36*
X166222504Y-112156204D02*
X166246773Y-112159804D01*
X166270571Y-112165765D01*
X166293671Y-112174030D01*
X166315849Y-112184520D01*
X166336893Y-112197133D01*
X166356598Y-112211747D01*
X166374777Y-112228223D01*
X166391253Y-112246402D01*
X166405867Y-112266107D01*
X166418480Y-112287151D01*
X166428970Y-112309329D01*
X166437235Y-112332429D01*
X166443196Y-112356227D01*
X166446796Y-112380496D01*
X166448000Y-112405000D01*
X166448000Y-113655000D01*
X166446796Y-113679504D01*
X166443196Y-113703773D01*
X166437235Y-113727571D01*
X166428970Y-113750671D01*
X166418480Y-113772849D01*
X166405867Y-113793893D01*
X166391253Y-113813598D01*
X166374777Y-113831777D01*
X166356598Y-113848253D01*
X166336893Y-113862867D01*
X166315849Y-113875480D01*
X166293671Y-113885970D01*
X166270571Y-113894235D01*
X166246773Y-113900196D01*
X166222504Y-113903796D01*
X166198000Y-113905000D01*
X165273000Y-113905000D01*
X165248496Y-113903796D01*
X165224227Y-113900196D01*
X165200429Y-113894235D01*
X165177329Y-113885970D01*
X165155151Y-113875480D01*
X165134107Y-113862867D01*
X165114402Y-113848253D01*
X165096223Y-113831777D01*
X165079747Y-113813598D01*
X165065133Y-113793893D01*
X165052520Y-113772849D01*
X165042030Y-113750671D01*
X165033765Y-113727571D01*
X165027804Y-113703773D01*
X165024204Y-113679504D01*
X165023000Y-113655000D01*
X165023000Y-112405000D01*
X165024204Y-112380496D01*
X165027804Y-112356227D01*
X165033765Y-112332429D01*
X165042030Y-112309329D01*
X165052520Y-112287151D01*
X165065133Y-112266107D01*
X165079747Y-112246402D01*
X165096223Y-112228223D01*
X165114402Y-112211747D01*
X165134107Y-112197133D01*
X165155151Y-112184520D01*
X165177329Y-112174030D01*
X165200429Y-112165765D01*
X165224227Y-112159804D01*
X165248496Y-112156204D01*
X165273000Y-112155000D01*
X166198000Y-112155000D01*
X166222504Y-112156204D01*
X166222504Y-112156204D01*
G37*
D13*
X165735500Y-113030000D03*
D14*
X160020000Y-109220000D03*
X162560000Y-109220000D03*
X165100000Y-109220000D03*
D15*
X167640000Y-109220000D03*
D14*
X137160000Y-114300000D03*
X137160000Y-116840000D03*
X137160000Y-119380000D03*
D15*
X137160000Y-121920000D03*
D12*
G36*
X213212504Y-103901204D02*
X213236773Y-103904804D01*
X213260571Y-103910765D01*
X213283671Y-103919030D01*
X213305849Y-103929520D01*
X213326893Y-103942133D01*
X213346598Y-103956747D01*
X213364777Y-103973223D01*
X213381253Y-103991402D01*
X213395867Y-104011107D01*
X213408480Y-104032151D01*
X213418970Y-104054329D01*
X213427235Y-104077429D01*
X213433196Y-104101227D01*
X213436796Y-104125496D01*
X213438000Y-104150000D01*
X213438000Y-105400000D01*
X213436796Y-105424504D01*
X213433196Y-105448773D01*
X213427235Y-105472571D01*
X213418970Y-105495671D01*
X213408480Y-105517849D01*
X213395867Y-105538893D01*
X213381253Y-105558598D01*
X213364777Y-105576777D01*
X213346598Y-105593253D01*
X213326893Y-105607867D01*
X213305849Y-105620480D01*
X213283671Y-105630970D01*
X213260571Y-105639235D01*
X213236773Y-105645196D01*
X213212504Y-105648796D01*
X213188000Y-105650000D01*
X212263000Y-105650000D01*
X212238496Y-105648796D01*
X212214227Y-105645196D01*
X212190429Y-105639235D01*
X212167329Y-105630970D01*
X212145151Y-105620480D01*
X212124107Y-105607867D01*
X212104402Y-105593253D01*
X212086223Y-105576777D01*
X212069747Y-105558598D01*
X212055133Y-105538893D01*
X212042520Y-105517849D01*
X212032030Y-105495671D01*
X212023765Y-105472571D01*
X212017804Y-105448773D01*
X212014204Y-105424504D01*
X212013000Y-105400000D01*
X212013000Y-104150000D01*
X212014204Y-104125496D01*
X212017804Y-104101227D01*
X212023765Y-104077429D01*
X212032030Y-104054329D01*
X212042520Y-104032151D01*
X212055133Y-104011107D01*
X212069747Y-103991402D01*
X212086223Y-103973223D01*
X212104402Y-103956747D01*
X212124107Y-103942133D01*
X212145151Y-103929520D01*
X212167329Y-103919030D01*
X212190429Y-103910765D01*
X212214227Y-103904804D01*
X212238496Y-103901204D01*
X212263000Y-103900000D01*
X213188000Y-103900000D01*
X213212504Y-103901204D01*
X213212504Y-103901204D01*
G37*
D13*
X212725500Y-104775000D03*
D12*
G36*
X210237504Y-103901204D02*
X210261773Y-103904804D01*
X210285571Y-103910765D01*
X210308671Y-103919030D01*
X210330849Y-103929520D01*
X210351893Y-103942133D01*
X210371598Y-103956747D01*
X210389777Y-103973223D01*
X210406253Y-103991402D01*
X210420867Y-104011107D01*
X210433480Y-104032151D01*
X210443970Y-104054329D01*
X210452235Y-104077429D01*
X210458196Y-104101227D01*
X210461796Y-104125496D01*
X210463000Y-104150000D01*
X210463000Y-105400000D01*
X210461796Y-105424504D01*
X210458196Y-105448773D01*
X210452235Y-105472571D01*
X210443970Y-105495671D01*
X210433480Y-105517849D01*
X210420867Y-105538893D01*
X210406253Y-105558598D01*
X210389777Y-105576777D01*
X210371598Y-105593253D01*
X210351893Y-105607867D01*
X210330849Y-105620480D01*
X210308671Y-105630970D01*
X210285571Y-105639235D01*
X210261773Y-105645196D01*
X210237504Y-105648796D01*
X210213000Y-105650000D01*
X209288000Y-105650000D01*
X209263496Y-105648796D01*
X209239227Y-105645196D01*
X209215429Y-105639235D01*
X209192329Y-105630970D01*
X209170151Y-105620480D01*
X209149107Y-105607867D01*
X209129402Y-105593253D01*
X209111223Y-105576777D01*
X209094747Y-105558598D01*
X209080133Y-105538893D01*
X209067520Y-105517849D01*
X209057030Y-105495671D01*
X209048765Y-105472571D01*
X209042804Y-105448773D01*
X209039204Y-105424504D01*
X209038000Y-105400000D01*
X209038000Y-104150000D01*
X209039204Y-104125496D01*
X209042804Y-104101227D01*
X209048765Y-104077429D01*
X209057030Y-104054329D01*
X209067520Y-104032151D01*
X209080133Y-104011107D01*
X209094747Y-103991402D01*
X209111223Y-103973223D01*
X209129402Y-103956747D01*
X209149107Y-103942133D01*
X209170151Y-103929520D01*
X209192329Y-103919030D01*
X209215429Y-103910765D01*
X209239227Y-103904804D01*
X209263496Y-103901204D01*
X209288000Y-103900000D01*
X210213000Y-103900000D01*
X210237504Y-103901204D01*
X210237504Y-103901204D01*
G37*
D13*
X209750500Y-104775000D03*
D12*
G36*
X213012504Y-108981204D02*
X213036773Y-108984804D01*
X213060571Y-108990765D01*
X213083671Y-108999030D01*
X213105849Y-109009520D01*
X213126893Y-109022133D01*
X213146598Y-109036747D01*
X213164777Y-109053223D01*
X213181253Y-109071402D01*
X213195867Y-109091107D01*
X213208480Y-109112151D01*
X213218970Y-109134329D01*
X213227235Y-109157429D01*
X213233196Y-109181227D01*
X213236796Y-109205496D01*
X213238000Y-109230000D01*
X213238000Y-110480000D01*
X213236796Y-110504504D01*
X213233196Y-110528773D01*
X213227235Y-110552571D01*
X213218970Y-110575671D01*
X213208480Y-110597849D01*
X213195867Y-110618893D01*
X213181253Y-110638598D01*
X213164777Y-110656777D01*
X213146598Y-110673253D01*
X213126893Y-110687867D01*
X213105849Y-110700480D01*
X213083671Y-110710970D01*
X213060571Y-110719235D01*
X213036773Y-110725196D01*
X213012504Y-110728796D01*
X212988000Y-110730000D01*
X212063000Y-110730000D01*
X212038496Y-110728796D01*
X212014227Y-110725196D01*
X211990429Y-110719235D01*
X211967329Y-110710970D01*
X211945151Y-110700480D01*
X211924107Y-110687867D01*
X211904402Y-110673253D01*
X211886223Y-110656777D01*
X211869747Y-110638598D01*
X211855133Y-110618893D01*
X211842520Y-110597849D01*
X211832030Y-110575671D01*
X211823765Y-110552571D01*
X211817804Y-110528773D01*
X211814204Y-110504504D01*
X211813000Y-110480000D01*
X211813000Y-109230000D01*
X211814204Y-109205496D01*
X211817804Y-109181227D01*
X211823765Y-109157429D01*
X211832030Y-109134329D01*
X211842520Y-109112151D01*
X211855133Y-109091107D01*
X211869747Y-109071402D01*
X211886223Y-109053223D01*
X211904402Y-109036747D01*
X211924107Y-109022133D01*
X211945151Y-109009520D01*
X211967329Y-108999030D01*
X211990429Y-108990765D01*
X212014227Y-108984804D01*
X212038496Y-108981204D01*
X212063000Y-108980000D01*
X212988000Y-108980000D01*
X213012504Y-108981204D01*
X213012504Y-108981204D01*
G37*
D13*
X212525500Y-109855000D03*
D12*
G36*
X210037504Y-108981204D02*
X210061773Y-108984804D01*
X210085571Y-108990765D01*
X210108671Y-108999030D01*
X210130849Y-109009520D01*
X210151893Y-109022133D01*
X210171598Y-109036747D01*
X210189777Y-109053223D01*
X210206253Y-109071402D01*
X210220867Y-109091107D01*
X210233480Y-109112151D01*
X210243970Y-109134329D01*
X210252235Y-109157429D01*
X210258196Y-109181227D01*
X210261796Y-109205496D01*
X210263000Y-109230000D01*
X210263000Y-110480000D01*
X210261796Y-110504504D01*
X210258196Y-110528773D01*
X210252235Y-110552571D01*
X210243970Y-110575671D01*
X210233480Y-110597849D01*
X210220867Y-110618893D01*
X210206253Y-110638598D01*
X210189777Y-110656777D01*
X210171598Y-110673253D01*
X210151893Y-110687867D01*
X210130849Y-110700480D01*
X210108671Y-110710970D01*
X210085571Y-110719235D01*
X210061773Y-110725196D01*
X210037504Y-110728796D01*
X210013000Y-110730000D01*
X209088000Y-110730000D01*
X209063496Y-110728796D01*
X209039227Y-110725196D01*
X209015429Y-110719235D01*
X208992329Y-110710970D01*
X208970151Y-110700480D01*
X208949107Y-110687867D01*
X208929402Y-110673253D01*
X208911223Y-110656777D01*
X208894747Y-110638598D01*
X208880133Y-110618893D01*
X208867520Y-110597849D01*
X208857030Y-110575671D01*
X208848765Y-110552571D01*
X208842804Y-110528773D01*
X208839204Y-110504504D01*
X208838000Y-110480000D01*
X208838000Y-109230000D01*
X208839204Y-109205496D01*
X208842804Y-109181227D01*
X208848765Y-109157429D01*
X208857030Y-109134329D01*
X208867520Y-109112151D01*
X208880133Y-109091107D01*
X208894747Y-109071402D01*
X208911223Y-109053223D01*
X208929402Y-109036747D01*
X208949107Y-109022133D01*
X208970151Y-109009520D01*
X208992329Y-108999030D01*
X209015429Y-108990765D01*
X209039227Y-108984804D01*
X209063496Y-108981204D01*
X209088000Y-108980000D01*
X210013000Y-108980000D01*
X210037504Y-108981204D01*
X210037504Y-108981204D01*
G37*
D13*
X209550500Y-109855000D03*
D12*
G36*
X157766504Y-117236204D02*
X157790773Y-117239804D01*
X157814571Y-117245765D01*
X157837671Y-117254030D01*
X157859849Y-117264520D01*
X157880893Y-117277133D01*
X157900598Y-117291747D01*
X157918777Y-117308223D01*
X157935253Y-117326402D01*
X157949867Y-117346107D01*
X157962480Y-117367151D01*
X157972970Y-117389329D01*
X157981235Y-117412429D01*
X157987196Y-117436227D01*
X157990796Y-117460496D01*
X157992000Y-117485000D01*
X157992000Y-118735000D01*
X157990796Y-118759504D01*
X157987196Y-118783773D01*
X157981235Y-118807571D01*
X157972970Y-118830671D01*
X157962480Y-118852849D01*
X157949867Y-118873893D01*
X157935253Y-118893598D01*
X157918777Y-118911777D01*
X157900598Y-118928253D01*
X157880893Y-118942867D01*
X157859849Y-118955480D01*
X157837671Y-118965970D01*
X157814571Y-118974235D01*
X157790773Y-118980196D01*
X157766504Y-118983796D01*
X157742000Y-118985000D01*
X156817000Y-118985000D01*
X156792496Y-118983796D01*
X156768227Y-118980196D01*
X156744429Y-118974235D01*
X156721329Y-118965970D01*
X156699151Y-118955480D01*
X156678107Y-118942867D01*
X156658402Y-118928253D01*
X156640223Y-118911777D01*
X156623747Y-118893598D01*
X156609133Y-118873893D01*
X156596520Y-118852849D01*
X156586030Y-118830671D01*
X156577765Y-118807571D01*
X156571804Y-118783773D01*
X156568204Y-118759504D01*
X156567000Y-118735000D01*
X156567000Y-117485000D01*
X156568204Y-117460496D01*
X156571804Y-117436227D01*
X156577765Y-117412429D01*
X156586030Y-117389329D01*
X156596520Y-117367151D01*
X156609133Y-117346107D01*
X156623747Y-117326402D01*
X156640223Y-117308223D01*
X156658402Y-117291747D01*
X156678107Y-117277133D01*
X156699151Y-117264520D01*
X156721329Y-117254030D01*
X156744429Y-117245765D01*
X156768227Y-117239804D01*
X156792496Y-117236204D01*
X156817000Y-117235000D01*
X157742000Y-117235000D01*
X157766504Y-117236204D01*
X157766504Y-117236204D01*
G37*
D13*
X157279500Y-118110000D03*
D12*
G36*
X154791504Y-117236204D02*
X154815773Y-117239804D01*
X154839571Y-117245765D01*
X154862671Y-117254030D01*
X154884849Y-117264520D01*
X154905893Y-117277133D01*
X154925598Y-117291747D01*
X154943777Y-117308223D01*
X154960253Y-117326402D01*
X154974867Y-117346107D01*
X154987480Y-117367151D01*
X154997970Y-117389329D01*
X155006235Y-117412429D01*
X155012196Y-117436227D01*
X155015796Y-117460496D01*
X155017000Y-117485000D01*
X155017000Y-118735000D01*
X155015796Y-118759504D01*
X155012196Y-118783773D01*
X155006235Y-118807571D01*
X154997970Y-118830671D01*
X154987480Y-118852849D01*
X154974867Y-118873893D01*
X154960253Y-118893598D01*
X154943777Y-118911777D01*
X154925598Y-118928253D01*
X154905893Y-118942867D01*
X154884849Y-118955480D01*
X154862671Y-118965970D01*
X154839571Y-118974235D01*
X154815773Y-118980196D01*
X154791504Y-118983796D01*
X154767000Y-118985000D01*
X153842000Y-118985000D01*
X153817496Y-118983796D01*
X153793227Y-118980196D01*
X153769429Y-118974235D01*
X153746329Y-118965970D01*
X153724151Y-118955480D01*
X153703107Y-118942867D01*
X153683402Y-118928253D01*
X153665223Y-118911777D01*
X153648747Y-118893598D01*
X153634133Y-118873893D01*
X153621520Y-118852849D01*
X153611030Y-118830671D01*
X153602765Y-118807571D01*
X153596804Y-118783773D01*
X153593204Y-118759504D01*
X153592000Y-118735000D01*
X153592000Y-117485000D01*
X153593204Y-117460496D01*
X153596804Y-117436227D01*
X153602765Y-117412429D01*
X153611030Y-117389329D01*
X153621520Y-117367151D01*
X153634133Y-117346107D01*
X153648747Y-117326402D01*
X153665223Y-117308223D01*
X153683402Y-117291747D01*
X153703107Y-117277133D01*
X153724151Y-117264520D01*
X153746329Y-117254030D01*
X153769429Y-117245765D01*
X153793227Y-117239804D01*
X153817496Y-117236204D01*
X153842000Y-117235000D01*
X154767000Y-117235000D01*
X154791504Y-117236204D01*
X154791504Y-117236204D01*
G37*
D13*
X154304500Y-118110000D03*
D12*
G36*
X144631504Y-117236204D02*
X144655773Y-117239804D01*
X144679571Y-117245765D01*
X144702671Y-117254030D01*
X144724849Y-117264520D01*
X144745893Y-117277133D01*
X144765598Y-117291747D01*
X144783777Y-117308223D01*
X144800253Y-117326402D01*
X144814867Y-117346107D01*
X144827480Y-117367151D01*
X144837970Y-117389329D01*
X144846235Y-117412429D01*
X144852196Y-117436227D01*
X144855796Y-117460496D01*
X144857000Y-117485000D01*
X144857000Y-118735000D01*
X144855796Y-118759504D01*
X144852196Y-118783773D01*
X144846235Y-118807571D01*
X144837970Y-118830671D01*
X144827480Y-118852849D01*
X144814867Y-118873893D01*
X144800253Y-118893598D01*
X144783777Y-118911777D01*
X144765598Y-118928253D01*
X144745893Y-118942867D01*
X144724849Y-118955480D01*
X144702671Y-118965970D01*
X144679571Y-118974235D01*
X144655773Y-118980196D01*
X144631504Y-118983796D01*
X144607000Y-118985000D01*
X143682000Y-118985000D01*
X143657496Y-118983796D01*
X143633227Y-118980196D01*
X143609429Y-118974235D01*
X143586329Y-118965970D01*
X143564151Y-118955480D01*
X143543107Y-118942867D01*
X143523402Y-118928253D01*
X143505223Y-118911777D01*
X143488747Y-118893598D01*
X143474133Y-118873893D01*
X143461520Y-118852849D01*
X143451030Y-118830671D01*
X143442765Y-118807571D01*
X143436804Y-118783773D01*
X143433204Y-118759504D01*
X143432000Y-118735000D01*
X143432000Y-117485000D01*
X143433204Y-117460496D01*
X143436804Y-117436227D01*
X143442765Y-117412429D01*
X143451030Y-117389329D01*
X143461520Y-117367151D01*
X143474133Y-117346107D01*
X143488747Y-117326402D01*
X143505223Y-117308223D01*
X143523402Y-117291747D01*
X143543107Y-117277133D01*
X143564151Y-117264520D01*
X143586329Y-117254030D01*
X143609429Y-117245765D01*
X143633227Y-117239804D01*
X143657496Y-117236204D01*
X143682000Y-117235000D01*
X144607000Y-117235000D01*
X144631504Y-117236204D01*
X144631504Y-117236204D01*
G37*
D13*
X144144500Y-118110000D03*
D12*
G36*
X147606504Y-117236204D02*
X147630773Y-117239804D01*
X147654571Y-117245765D01*
X147677671Y-117254030D01*
X147699849Y-117264520D01*
X147720893Y-117277133D01*
X147740598Y-117291747D01*
X147758777Y-117308223D01*
X147775253Y-117326402D01*
X147789867Y-117346107D01*
X147802480Y-117367151D01*
X147812970Y-117389329D01*
X147821235Y-117412429D01*
X147827196Y-117436227D01*
X147830796Y-117460496D01*
X147832000Y-117485000D01*
X147832000Y-118735000D01*
X147830796Y-118759504D01*
X147827196Y-118783773D01*
X147821235Y-118807571D01*
X147812970Y-118830671D01*
X147802480Y-118852849D01*
X147789867Y-118873893D01*
X147775253Y-118893598D01*
X147758777Y-118911777D01*
X147740598Y-118928253D01*
X147720893Y-118942867D01*
X147699849Y-118955480D01*
X147677671Y-118965970D01*
X147654571Y-118974235D01*
X147630773Y-118980196D01*
X147606504Y-118983796D01*
X147582000Y-118985000D01*
X146657000Y-118985000D01*
X146632496Y-118983796D01*
X146608227Y-118980196D01*
X146584429Y-118974235D01*
X146561329Y-118965970D01*
X146539151Y-118955480D01*
X146518107Y-118942867D01*
X146498402Y-118928253D01*
X146480223Y-118911777D01*
X146463747Y-118893598D01*
X146449133Y-118873893D01*
X146436520Y-118852849D01*
X146426030Y-118830671D01*
X146417765Y-118807571D01*
X146411804Y-118783773D01*
X146408204Y-118759504D01*
X146407000Y-118735000D01*
X146407000Y-117485000D01*
X146408204Y-117460496D01*
X146411804Y-117436227D01*
X146417765Y-117412429D01*
X146426030Y-117389329D01*
X146436520Y-117367151D01*
X146449133Y-117346107D01*
X146463747Y-117326402D01*
X146480223Y-117308223D01*
X146498402Y-117291747D01*
X146518107Y-117277133D01*
X146539151Y-117264520D01*
X146561329Y-117254030D01*
X146584429Y-117245765D01*
X146608227Y-117239804D01*
X146632496Y-117236204D01*
X146657000Y-117235000D01*
X147582000Y-117235000D01*
X147606504Y-117236204D01*
X147606504Y-117236204D01*
G37*
D13*
X147119500Y-118110000D03*
D16*
X213360000Y-116840000D03*
X213360000Y-119380000D03*
X210820000Y-116840000D03*
X210820000Y-119380000D03*
X208280000Y-116840000D03*
X208280000Y-119380000D03*
X205740000Y-116840000D03*
X205740000Y-119380000D03*
X203200000Y-116840000D03*
X203200000Y-119380000D03*
X200660000Y-116840000D03*
X200660000Y-119380000D03*
X198120000Y-116840000D03*
X198120000Y-119380000D03*
X195580000Y-116840000D03*
X195580000Y-119380000D03*
X193040000Y-116840000D03*
X193040000Y-119380000D03*
X190500000Y-116840000D03*
X190500000Y-119380000D03*
X187960000Y-116840000D03*
X187960000Y-119380000D03*
X185420000Y-116840000D03*
X185420000Y-119380000D03*
X182880000Y-116840000D03*
X182880000Y-119380000D03*
X180340000Y-116840000D03*
X180340000Y-119380000D03*
X177800000Y-116840000D03*
X177800000Y-119380000D03*
X175260000Y-116840000D03*
X175260000Y-119380000D03*
X172720000Y-116840000D03*
D17*
X172720000Y-119380000D03*
D15*
X180340000Y-99060000D03*
D14*
X180340000Y-96520000D03*
X182880000Y-99060000D03*
X182880000Y-96520000D03*
X185420000Y-99060000D03*
X185420000Y-96520000D03*
X187960000Y-99060000D03*
X187960000Y-96520000D03*
X190500000Y-99060000D03*
X190500000Y-96520000D03*
X193040000Y-99060000D03*
X193040000Y-96520000D03*
X195580000Y-99060000D03*
X195580000Y-96520000D03*
X198120000Y-99060000D03*
X198120000Y-96520000D03*
X200660000Y-99060000D03*
X200660000Y-96520000D03*
X203200000Y-99060000D03*
X203200000Y-96520000D03*
X205740000Y-99060000D03*
X205740000Y-96520000D03*
X208280000Y-99060000D03*
X208280000Y-96520000D03*
X210820000Y-99060000D03*
X210820000Y-96520000D03*
X213360000Y-99060000D03*
X213360000Y-96520000D03*
X215900000Y-99060000D03*
X215900000Y-96520000D03*
X218440000Y-99060000D03*
X218440000Y-96520000D03*
X220980000Y-99060000D03*
X220980000Y-96520000D03*
D18*
X203471500Y-111409500D03*
X209260600Y-111770200D03*
D19*
X171634400Y-108044700D02*
X166642500Y-108044700D01*
X166642500Y-108044700D02*
X166275300Y-108411900D01*
X166275300Y-108411900D02*
X166275300Y-109220000D01*
X180340000Y-100235300D02*
X172530600Y-108044700D01*
X172530600Y-108044700D02*
X171634400Y-108044700D01*
X172720000Y-118294700D02*
X172584300Y-118294700D01*
X172584300Y-118294700D02*
X171634400Y-117344800D01*
X171634400Y-117344800D02*
X171634400Y-108044700D01*
X172720000Y-119380000D02*
X172720000Y-118294700D01*
X165100000Y-109220000D02*
X166275300Y-109220000D01*
X180340000Y-99060000D02*
X180340000Y-100235300D01*
X162560000Y-112829500D02*
X144554500Y-112829500D01*
X144554500Y-112829500D02*
X143365300Y-114018700D01*
X143365300Y-114018700D02*
X143365300Y-114300000D01*
X162760500Y-113030000D02*
X162560000Y-112829500D01*
X162560000Y-110395300D02*
X162560000Y-112829500D01*
X142240000Y-114300000D02*
X143365300Y-114300000D01*
X137160000Y-116840000D02*
X138574700Y-116840000D01*
X138574700Y-116840000D02*
X141114700Y-114300000D01*
X142240000Y-114300000D02*
X141114700Y-114300000D01*
X137160000Y-119380000D02*
X137160000Y-116840000D01*
X162560000Y-109220000D02*
X162560000Y-110395300D01*
X220980000Y-96520000D02*
X220980000Y-97695300D01*
X172720000Y-116840000D02*
X174174600Y-118294600D01*
X174174600Y-118294600D02*
X175776800Y-118294600D01*
X175776800Y-118294600D02*
X176530000Y-119047800D01*
X176530000Y-119047800D02*
X176530000Y-119668100D01*
X176530000Y-119668100D02*
X177341200Y-120479300D01*
X177341200Y-120479300D02*
X211266900Y-120479300D01*
X211266900Y-120479300D02*
X211930700Y-119815500D01*
X211930700Y-119815500D02*
X211930700Y-116734400D01*
X211930700Y-116734400D02*
X219804700Y-108860400D01*
X219804700Y-108860400D02*
X219804700Y-98503200D01*
X219804700Y-98503200D02*
X220612600Y-97695300D01*
X220612600Y-97695300D02*
X220980000Y-97695300D01*
X187960000Y-96520000D02*
X187960000Y-97695300D01*
X180340000Y-116840000D02*
X180340000Y-107729200D01*
X180340000Y-107729200D02*
X186784700Y-101284500D01*
X186784700Y-101284500D02*
X186784700Y-98503200D01*
X186784700Y-98503200D02*
X187592600Y-97695300D01*
X187592600Y-97695300D02*
X187960000Y-97695300D01*
X182880000Y-116840000D02*
X182880000Y-109734100D01*
X182880000Y-109734100D02*
X191864700Y-100749400D01*
X191864700Y-100749400D02*
X191864700Y-98503200D01*
X191864700Y-98503200D02*
X192672600Y-97695300D01*
X192672600Y-97695300D02*
X193040000Y-97695300D01*
X193040000Y-96520000D02*
X193040000Y-97695300D01*
X210820000Y-97695300D02*
X210452600Y-97695300D01*
X210452600Y-97695300D02*
X209644700Y-98503200D01*
X209644700Y-98503200D02*
X209644700Y-99420700D01*
X209644700Y-99420700D02*
X203471500Y-105593900D01*
X203471500Y-105593900D02*
X203471500Y-111409500D01*
X203471500Y-111409500D02*
X203200000Y-111681000D01*
X203200000Y-111681000D02*
X203200000Y-116840000D01*
X210820000Y-96520000D02*
X210820000Y-97695300D01*
X205740000Y-116840000D02*
X210789400Y-111790600D01*
X210789400Y-111790600D02*
X210789400Y-106711100D01*
X210789400Y-106711100D02*
X212725500Y-104775000D01*
X213360000Y-96520000D02*
X213360000Y-97695300D01*
X213360000Y-97695300D02*
X212992700Y-97695300D01*
X212992700Y-97695300D02*
X212169400Y-98518600D01*
X212169400Y-98518600D02*
X212169400Y-104218900D01*
X212169400Y-104218900D02*
X212725500Y-104775000D01*
X212525500Y-109855000D02*
X212525500Y-112594500D01*
X212525500Y-112594500D02*
X208280000Y-116840000D01*
X215900000Y-97695300D02*
X215532600Y-97695300D01*
X215532600Y-97695300D02*
X214724700Y-98503200D01*
X214724700Y-98503200D02*
X214724700Y-107655800D01*
X214724700Y-107655800D02*
X212525500Y-109855000D01*
X215900000Y-96520000D02*
X215900000Y-97695300D01*
X209550500Y-109855000D02*
X209550500Y-104975000D01*
X209550500Y-104975000D02*
X209750500Y-104775000D01*
X209260600Y-111770200D02*
X209260600Y-110144900D01*
X209260600Y-110144900D02*
X209550500Y-109855000D01*
X165735500Y-113030000D02*
X165735500Y-112299800D01*
X165735500Y-112299800D02*
X167640000Y-110395300D01*
X157279500Y-118110000D02*
X160655500Y-118110000D01*
X160655500Y-118110000D02*
X165735500Y-113030000D01*
X167640000Y-109220000D02*
X167640000Y-110395300D01*
X156065100Y-119324400D02*
X157480000Y-120739300D01*
X157480000Y-120739300D02*
X157480000Y-121920000D01*
X156065100Y-119324400D02*
X157279500Y-118110000D01*
X144144500Y-119324400D02*
X156065100Y-119324400D01*
X138335300Y-121920000D02*
X140930900Y-119324400D01*
X140930900Y-119324400D02*
X144144500Y-119324400D01*
X144144500Y-119324400D02*
X144144500Y-118110000D01*
X137160000Y-121920000D02*
X138335300Y-121920000D01*
X160020000Y-109220000D02*
X160020000Y-110395300D01*
X137160000Y-114300000D02*
X138335300Y-114300000D01*
X138335300Y-114300000D02*
X140256200Y-112379100D01*
X140256200Y-112379100D02*
X158036200Y-112379100D01*
X158036200Y-112379100D02*
X160020000Y-110395300D01*
X152400000Y-115425300D02*
X152400000Y-114300000D01*
X154304500Y-118110000D02*
X152400000Y-116205500D01*
X152400000Y-116205500D02*
X152400000Y-115425300D01*
X152400000Y-115425300D02*
X149289200Y-115425300D01*
X149289200Y-115425300D02*
X148445300Y-114581400D01*
X148445300Y-114581400D02*
X148445300Y-114300000D01*
X147320000Y-114300000D02*
X148445300Y-114300000D01*
X144780000Y-114300000D02*
X144780000Y-115425300D01*
X147119500Y-118110000D02*
X147119500Y-117764800D01*
X147119500Y-117764800D02*
X144780000Y-115425300D01*
X182880000Y-96520000D02*
X182880000Y-97695300D01*
X182880000Y-97695300D02*
X182512600Y-97695300D01*
X182512600Y-97695300D02*
X181704700Y-98503200D01*
X181704700Y-98503200D02*
X181704700Y-101727400D01*
X181704700Y-101727400D02*
X175260000Y-108172100D01*
X175260000Y-108172100D02*
X175260000Y-116840000D01*
X177800000Y-116840000D02*
X177800000Y-106848900D01*
X177800000Y-106848900D02*
X184244700Y-100404200D01*
X184244700Y-100404200D02*
X184244700Y-98503200D01*
X184244700Y-98503200D02*
X185052600Y-97695300D01*
X185052600Y-97695300D02*
X185420000Y-97695300D01*
X185420000Y-96520000D02*
X185420000Y-97695300D01*
X185420000Y-116840000D02*
X184326600Y-117933400D01*
X184326600Y-117933400D02*
X182371300Y-117933400D01*
X182371300Y-117933400D02*
X181794600Y-117356700D01*
X181794600Y-117356700D02*
X181794600Y-110182600D01*
X181794600Y-110182600D02*
X189324700Y-102652500D01*
X189324700Y-102652500D02*
X189324700Y-98503200D01*
X189324700Y-98503200D02*
X190132600Y-97695300D01*
X190132600Y-97695300D02*
X190500000Y-97695300D01*
X190500000Y-96520000D02*
X190500000Y-97695300D01*
X195580000Y-96520000D02*
X195580000Y-97695300D01*
X195580000Y-97695300D02*
X195212600Y-97695300D01*
X195212600Y-97695300D02*
X194404700Y-98503200D01*
X194404700Y-98503200D02*
X194404700Y-99404800D01*
X194404700Y-99404800D02*
X187960000Y-105849500D01*
X187960000Y-105849500D02*
X187960000Y-116840000D01*
X198120000Y-96520000D02*
X198120000Y-97695300D01*
X198120000Y-97695300D02*
X197752600Y-97695300D01*
X197752600Y-97695300D02*
X196944700Y-98503200D01*
X196944700Y-98503200D02*
X196944700Y-99404900D01*
X196944700Y-99404900D02*
X190500000Y-105849600D01*
X190500000Y-105849600D02*
X190500000Y-116840000D01*
X200660000Y-96520000D02*
X200660000Y-97695300D01*
X200660000Y-97695300D02*
X200292600Y-97695300D01*
X200292600Y-97695300D02*
X199484700Y-98503200D01*
X199484700Y-98503200D02*
X199484700Y-99405000D01*
X199484700Y-99405000D02*
X193040000Y-105849700D01*
X193040000Y-105849700D02*
X193040000Y-116840000D01*
X203200000Y-96520000D02*
X203200000Y-97695300D01*
X203200000Y-97695300D02*
X202832600Y-97695300D01*
X202832600Y-97695300D02*
X202024700Y-98503200D01*
X202024700Y-98503200D02*
X202024700Y-99405500D01*
X202024700Y-99405500D02*
X195580000Y-105850200D01*
X195580000Y-105850200D02*
X195580000Y-116840000D01*
X205740000Y-96520000D02*
X205740000Y-97695300D01*
X205740000Y-97695300D02*
X205372600Y-97695300D01*
X205372600Y-97695300D02*
X204564700Y-98503200D01*
X204564700Y-98503200D02*
X204564700Y-99407200D01*
X204564700Y-99407200D02*
X198120000Y-105851900D01*
X198120000Y-105851900D02*
X198120000Y-116840000D01*
X208280000Y-96520000D02*
X208280000Y-97695300D01*
X208280000Y-97695300D02*
X207912600Y-97695300D01*
X207912600Y-97695300D02*
X207104700Y-98503200D01*
X207104700Y-98503200D02*
X207104700Y-99414400D01*
X207104700Y-99414400D02*
X200660000Y-105859100D01*
X200660000Y-105859100D02*
X200660000Y-116840000D01*
X218440000Y-97695300D02*
X218072600Y-97695300D01*
X218072600Y-97695300D02*
X217264700Y-98503200D01*
X217264700Y-98503200D02*
X217264700Y-110395300D01*
X217264700Y-110395300D02*
X210820000Y-116840000D01*
X218440000Y-96520000D02*
X218440000Y-97695300D01*
D20*
G36*
X225373000Y-123775000D02*
X127685000Y-123775000D01*
X127685000Y-117196890D01*
X135718524Y-117196890D01*
X135888355Y-117606924D01*
X136278642Y-118035183D01*
X136437954Y-118110000D01*
X136278642Y-118184817D01*
X135888355Y-118613076D01*
X135718524Y-119023110D01*
X135839845Y-119253000D01*
X137033000Y-119253000D01*
X137033000Y-116967000D01*
X137287000Y-116967000D01*
X137287000Y-119253000D01*
X138480155Y-119253000D01*
X138601476Y-119023110D01*
X138431645Y-118613076D01*
X138041358Y-118184817D01*
X137882046Y-118110000D01*
X138041358Y-118035183D01*
X138431645Y-117606924D01*
X138601476Y-117196890D01*
X138480155Y-116967000D01*
X137287000Y-116967000D01*
X137033000Y-116967000D01*
X135839845Y-116967000D01*
X135718524Y-117196890D01*
X127685000Y-117196890D01*
X127685000Y-112445000D01*
X139115498Y-112445000D01*
X138270879Y-113289620D01*
X138230625Y-113229375D01*
X137739418Y-112901161D01*
X137306256Y-112815000D01*
X137013744Y-112815000D01*
X136580582Y-112901161D01*
X136089375Y-113229375D01*
X135761161Y-113720582D01*
X135645908Y-114300000D01*
X135761161Y-114879418D01*
X136089375Y-115370625D01*
X136408478Y-115583843D01*
X136278642Y-115644817D01*
X135888355Y-116073076D01*
X135718524Y-116483110D01*
X135839845Y-116713000D01*
X137033000Y-116713000D01*
X137033000Y-116693000D01*
X137287000Y-116693000D01*
X137287000Y-116713000D01*
X138480155Y-116713000D01*
X138601476Y-116483110D01*
X138431645Y-116073076D01*
X138041358Y-115644817D01*
X137911522Y-115583843D01*
X138230625Y-115370625D01*
X138442474Y-115053571D01*
X138631837Y-115015904D01*
X138883229Y-114847929D01*
X138925631Y-114784470D01*
X139061060Y-114649041D01*
X140848086Y-114649041D01*
X141087611Y-115155134D01*
X141502577Y-115531041D01*
X141890961Y-115691904D01*
X142113000Y-115569915D01*
X142113000Y-114427000D01*
X140969371Y-114427000D01*
X140848086Y-114649041D01*
X139061060Y-114649041D01*
X140571002Y-113139100D01*
X141425148Y-113139100D01*
X141087611Y-113444866D01*
X140848086Y-113950959D01*
X140969371Y-114173000D01*
X142113000Y-114173000D01*
X142113000Y-114153000D01*
X142367000Y-114153000D01*
X142367000Y-114173000D01*
X142387000Y-114173000D01*
X142387000Y-114427000D01*
X142367000Y-114427000D01*
X142367000Y-115569915D01*
X142589039Y-115691904D01*
X142977423Y-115531041D01*
X143392389Y-115155134D01*
X143489053Y-114950892D01*
X143745423Y-115334577D01*
X144024106Y-115520787D01*
X144064097Y-115721837D01*
X144189131Y-115908963D01*
X144232072Y-115973229D01*
X144295528Y-116015629D01*
X144932132Y-116652233D01*
X144607000Y-116587560D01*
X143682000Y-116587560D01*
X143338565Y-116655874D01*
X143047414Y-116850414D01*
X142852874Y-117141565D01*
X142784560Y-117485000D01*
X142784560Y-118564400D01*
X141005748Y-118564400D01*
X140930900Y-118549512D01*
X140856052Y-118564400D01*
X140856048Y-118564400D01*
X140682505Y-118598920D01*
X140634362Y-118608496D01*
X140560381Y-118657929D01*
X140382971Y-118776471D01*
X140340571Y-118839927D01*
X138508063Y-120672435D01*
X138467809Y-120612191D01*
X138257765Y-120471843D01*
X138154292Y-120451261D01*
X138431645Y-120146924D01*
X138601476Y-119736890D01*
X138480155Y-119507000D01*
X137287000Y-119507000D01*
X137287000Y-119527000D01*
X137033000Y-119527000D01*
X137033000Y-119507000D01*
X135839845Y-119507000D01*
X135718524Y-119736890D01*
X135888355Y-120146924D01*
X136165708Y-120451261D01*
X136062235Y-120471843D01*
X135852191Y-120612191D01*
X135711843Y-120822235D01*
X135662560Y-121070000D01*
X135662560Y-122770000D01*
X135711843Y-123017765D01*
X135852191Y-123227809D01*
X136062235Y-123368157D01*
X136310000Y-123417440D01*
X138010000Y-123417440D01*
X138257765Y-123368157D01*
X138467809Y-123227809D01*
X138608157Y-123017765D01*
X138657440Y-122770000D01*
X138657440Y-122618797D01*
X138883229Y-122467929D01*
X138925631Y-122404470D01*
X141245702Y-120084400D01*
X144069648Y-120084400D01*
X144144500Y-120099289D01*
X144219352Y-120084400D01*
X155750299Y-120084400D01*
X156508904Y-120843006D01*
X156445423Y-120885423D01*
X156210000Y-121237758D01*
X155974577Y-120885423D01*
X155499909Y-120568260D01*
X155081333Y-120485000D01*
X154798667Y-120485000D01*
X154380091Y-120568260D01*
X153905423Y-120885423D01*
X153670000Y-121237758D01*
X153434577Y-120885423D01*
X152959909Y-120568260D01*
X152541333Y-120485000D01*
X152258667Y-120485000D01*
X151840091Y-120568260D01*
X151365423Y-120885423D01*
X151130000Y-121237758D01*
X150894577Y-120885423D01*
X150419909Y-120568260D01*
X150001333Y-120485000D01*
X149718667Y-120485000D01*
X149300091Y-120568260D01*
X148825423Y-120885423D01*
X148590000Y-121237758D01*
X148354577Y-120885423D01*
X147879909Y-120568260D01*
X147461333Y-120485000D01*
X147178667Y-120485000D01*
X146760091Y-120568260D01*
X146285423Y-120885423D01*
X146050000Y-121237758D01*
X145814577Y-120885423D01*
X145339909Y-120568260D01*
X144921333Y-120485000D01*
X144638667Y-120485000D01*
X144220091Y-120568260D01*
X143745423Y-120885423D01*
X143510000Y-121237758D01*
X143274577Y-120885423D01*
X142799909Y-120568260D01*
X142381333Y-120485000D01*
X142098667Y-120485000D01*
X141680091Y-120568260D01*
X141205423Y-120885423D01*
X140888260Y-121360091D01*
X140776887Y-121920000D01*
X140888260Y-122479909D01*
X141205423Y-122954577D01*
X141680091Y-123271740D01*
X142098667Y-123355000D01*
X142381333Y-123355000D01*
X142799909Y-123271740D01*
X143274577Y-122954577D01*
X143510000Y-122602242D01*
X143745423Y-122954577D01*
X144220091Y-123271740D01*
X144638667Y-123355000D01*
X144921333Y-123355000D01*
X145339909Y-123271740D01*
X145814577Y-122954577D01*
X146050000Y-122602242D01*
X146285423Y-122954577D01*
X146760091Y-123271740D01*
X147178667Y-123355000D01*
X147461333Y-123355000D01*
X147879909Y-123271740D01*
X148354577Y-122954577D01*
X148590000Y-122602242D01*
X148825423Y-122954577D01*
X149300091Y-123271740D01*
X149718667Y-123355000D01*
X150001333Y-123355000D01*
X150419909Y-123271740D01*
X150894577Y-122954577D01*
X151130000Y-122602242D01*
X151365423Y-122954577D01*
X151840091Y-123271740D01*
X152258667Y-123355000D01*
X152541333Y-123355000D01*
X152959909Y-123271740D01*
X153434577Y-122954577D01*
X153670000Y-122602242D01*
X153905423Y-122954577D01*
X154380091Y-123271740D01*
X154798667Y-123355000D01*
X155081333Y-123355000D01*
X155499909Y-123271740D01*
X155974577Y-122954577D01*
X156210000Y-122602242D01*
X156445423Y-122954577D01*
X156920091Y-123271740D01*
X157338667Y-123355000D01*
X157621333Y-123355000D01*
X158039909Y-123271740D01*
X158514577Y-122954577D01*
X158831740Y-122479909D01*
X158943113Y-121920000D01*
X158831740Y-121360091D01*
X158514577Y-120885423D01*
X158248604Y-120707705D01*
X158240000Y-120664452D01*
X158240000Y-120664448D01*
X158205480Y-120490905D01*
X158195904Y-120442762D01*
X158070329Y-120254827D01*
X158027929Y-120191371D01*
X157964473Y-120148971D01*
X157481252Y-119665750D01*
X171325000Y-119665750D01*
X171325000Y-120266310D01*
X171421673Y-120499699D01*
X171600302Y-120678327D01*
X171833691Y-120775000D01*
X172434250Y-120775000D01*
X172593000Y-120616250D01*
X172593000Y-119507000D01*
X171483750Y-119507000D01*
X171325000Y-119665750D01*
X157481252Y-119665750D01*
X157447942Y-119632440D01*
X157742000Y-119632440D01*
X158085435Y-119564126D01*
X158376586Y-119369586D01*
X158571126Y-119078435D01*
X158612587Y-118870000D01*
X160580653Y-118870000D01*
X160655500Y-118884888D01*
X160730347Y-118870000D01*
X160730352Y-118870000D01*
X160952037Y-118825904D01*
X161203429Y-118657929D01*
X161245831Y-118594470D01*
X163277784Y-116562517D01*
X171325000Y-116562517D01*
X171325000Y-117117483D01*
X171537376Y-117630204D01*
X171892172Y-117985000D01*
X171833691Y-117985000D01*
X171600302Y-118081673D01*
X171421673Y-118260301D01*
X171325000Y-118493690D01*
X171325000Y-119094250D01*
X171483750Y-119253000D01*
X172593000Y-119253000D01*
X172593000Y-119233000D01*
X172847000Y-119233000D01*
X172847000Y-119253000D01*
X172867000Y-119253000D01*
X172867000Y-119507000D01*
X172847000Y-119507000D01*
X172847000Y-120616250D01*
X173005750Y-120775000D01*
X173606309Y-120775000D01*
X173839698Y-120678327D01*
X174018327Y-120499699D01*
X174115000Y-120266310D01*
X174115000Y-120131607D01*
X174281236Y-120179159D01*
X175080395Y-119380000D01*
X175066253Y-119365858D01*
X175245858Y-119186253D01*
X175260000Y-119200395D01*
X175274143Y-119186253D01*
X175453748Y-119365858D01*
X175439605Y-119380000D01*
X175453748Y-119394143D01*
X175274143Y-119573748D01*
X175260000Y-119559605D01*
X174460841Y-120358764D01*
X174530059Y-120600742D01*
X175052780Y-120787155D01*
X175607049Y-120759341D01*
X175989941Y-120600742D01*
X176059158Y-120358766D01*
X176174176Y-120473784D01*
X176217529Y-120430431D01*
X176750871Y-120963773D01*
X176793271Y-121027229D01*
X177044663Y-121195204D01*
X177266348Y-121239300D01*
X177266352Y-121239300D01*
X177341199Y-121254188D01*
X177416046Y-121239300D01*
X211192053Y-121239300D01*
X211266900Y-121254188D01*
X211341747Y-121239300D01*
X211341752Y-121239300D01*
X211563437Y-121195204D01*
X211814829Y-121027229D01*
X211857231Y-120963770D01*
X212396521Y-120424481D01*
X212445824Y-120473784D01*
X212560842Y-120358766D01*
X212630059Y-120600742D01*
X213152780Y-120787155D01*
X213707049Y-120759341D01*
X214089941Y-120600742D01*
X214159159Y-120358764D01*
X213360000Y-119559605D01*
X213345858Y-119573748D01*
X213166253Y-119394143D01*
X213180395Y-119380000D01*
X213539605Y-119380000D01*
X214338764Y-120179159D01*
X214580742Y-120109941D01*
X214767155Y-119587220D01*
X214739341Y-119032951D01*
X214580742Y-118650059D01*
X214338764Y-118580841D01*
X213539605Y-119380000D01*
X213180395Y-119380000D01*
X213166253Y-119365858D01*
X213345858Y-119186253D01*
X213360000Y-119200395D01*
X214159159Y-118401236D01*
X214089941Y-118159258D01*
X213945069Y-118107594D01*
X214150204Y-118022624D01*
X214542624Y-117630204D01*
X214755000Y-117117483D01*
X214755000Y-116562517D01*
X214542624Y-116049796D01*
X214150204Y-115657376D01*
X214102348Y-115637553D01*
X220289173Y-109450729D01*
X220352629Y-109408329D01*
X220520604Y-109156937D01*
X220564700Y-108935252D01*
X220564700Y-108935248D01*
X220579588Y-108860400D01*
X220564700Y-108785552D01*
X220564700Y-100477283D01*
X220623110Y-100501476D01*
X220853000Y-100380155D01*
X220853000Y-99187000D01*
X221107000Y-99187000D01*
X221107000Y-100380155D01*
X221336890Y-100501476D01*
X221746924Y-100331645D01*
X222175183Y-99941358D01*
X222421486Y-99416892D01*
X222300819Y-99187000D01*
X221107000Y-99187000D01*
X220853000Y-99187000D01*
X220833000Y-99187000D01*
X220833000Y-98933000D01*
X220853000Y-98933000D01*
X220853000Y-98913000D01*
X221107000Y-98913000D01*
X221107000Y-98933000D01*
X222300819Y-98933000D01*
X222421486Y-98703108D01*
X222175183Y-98178642D01*
X221750214Y-97791353D01*
X222050625Y-97590625D01*
X222378839Y-97099418D01*
X222494092Y-96520000D01*
X222378839Y-95940582D01*
X222050625Y-95449375D01*
X221559418Y-95121161D01*
X221126256Y-95035000D01*
X220833744Y-95035000D01*
X220400582Y-95121161D01*
X219909375Y-95449375D01*
X219710000Y-95747761D01*
X219510625Y-95449375D01*
X219019418Y-95121161D01*
X218586256Y-95035000D01*
X218293744Y-95035000D01*
X217860582Y-95121161D01*
X217369375Y-95449375D01*
X217170000Y-95747761D01*
X216970625Y-95449375D01*
X216479418Y-95121161D01*
X216046256Y-95035000D01*
X215753744Y-95035000D01*
X215320582Y-95121161D01*
X214829375Y-95449375D01*
X214630000Y-95747761D01*
X214430625Y-95449375D01*
X213939418Y-95121161D01*
X213506256Y-95035000D01*
X213213744Y-95035000D01*
X212780582Y-95121161D01*
X212289375Y-95449375D01*
X212090000Y-95747761D01*
X211890625Y-95449375D01*
X211399418Y-95121161D01*
X210966256Y-95035000D01*
X210673744Y-95035000D01*
X210240582Y-95121161D01*
X209749375Y-95449375D01*
X209550000Y-95747761D01*
X209350625Y-95449375D01*
X208859418Y-95121161D01*
X208426256Y-95035000D01*
X208133744Y-95035000D01*
X207700582Y-95121161D01*
X207209375Y-95449375D01*
X207010000Y-95747761D01*
X206810625Y-95449375D01*
X206319418Y-95121161D01*
X205886256Y-95035000D01*
X205593744Y-95035000D01*
X205160582Y-95121161D01*
X204669375Y-95449375D01*
X204470000Y-95747761D01*
X204270625Y-95449375D01*
X203779418Y-95121161D01*
X203346256Y-95035000D01*
X203053744Y-95035000D01*
X202620582Y-95121161D01*
X202129375Y-95449375D01*
X201930000Y-95747761D01*
X201730625Y-95449375D01*
X201239418Y-95121161D01*
X200806256Y-95035000D01*
X200513744Y-95035000D01*
X200080582Y-95121161D01*
X199589375Y-95449375D01*
X199390000Y-95747761D01*
X199190625Y-95449375D01*
X198699418Y-95121161D01*
X198266256Y-95035000D01*
X197973744Y-95035000D01*
X197540582Y-95121161D01*
X197049375Y-95449375D01*
X196850000Y-95747761D01*
X196650625Y-95449375D01*
X196159418Y-95121161D01*
X195726256Y-95035000D01*
X195433744Y-95035000D01*
X195000582Y-95121161D01*
X194509375Y-95449375D01*
X194310000Y-95747761D01*
X194110625Y-95449375D01*
X193619418Y-95121161D01*
X193186256Y-95035000D01*
X192893744Y-95035000D01*
X192460582Y-95121161D01*
X191969375Y-95449375D01*
X191770000Y-95747761D01*
X191570625Y-95449375D01*
X191079418Y-95121161D01*
X190646256Y-95035000D01*
X190353744Y-95035000D01*
X189920582Y-95121161D01*
X189429375Y-95449375D01*
X189230000Y-95747761D01*
X189030625Y-95449375D01*
X188539418Y-95121161D01*
X188106256Y-95035000D01*
X187813744Y-95035000D01*
X187380582Y-95121161D01*
X186889375Y-95449375D01*
X186690000Y-95747761D01*
X186490625Y-95449375D01*
X185999418Y-95121161D01*
X185566256Y-95035000D01*
X185273744Y-95035000D01*
X184840582Y-95121161D01*
X184349375Y-95449375D01*
X184150000Y-95747761D01*
X183950625Y-95449375D01*
X183459418Y-95121161D01*
X183026256Y-95035000D01*
X182733744Y-95035000D01*
X182300582Y-95121161D01*
X181809375Y-95449375D01*
X181610000Y-95747761D01*
X181410625Y-95449375D01*
X180919418Y-95121161D01*
X180486256Y-95035000D01*
X180193744Y-95035000D01*
X179760582Y-95121161D01*
X179269375Y-95449375D01*
X178941161Y-95940582D01*
X178825908Y-96520000D01*
X178941161Y-97099418D01*
X179269375Y-97590625D01*
X179291032Y-97605096D01*
X179130301Y-97671673D01*
X178951673Y-97850302D01*
X178855000Y-98083691D01*
X178855000Y-98774250D01*
X179013750Y-98933000D01*
X180213000Y-98933000D01*
X180213000Y-98913000D01*
X180467000Y-98913000D01*
X180467000Y-98933000D01*
X180487000Y-98933000D01*
X180487000Y-99187000D01*
X180467000Y-99187000D01*
X180467000Y-100386250D01*
X180625750Y-100545000D01*
X180944701Y-100545000D01*
X180944701Y-101412597D01*
X174775530Y-107581769D01*
X174712071Y-107624171D01*
X174544096Y-107875564D01*
X174500000Y-108097249D01*
X174500000Y-108097253D01*
X174485112Y-108172100D01*
X174500000Y-108246947D01*
X174500001Y-115644865D01*
X174469796Y-115657376D01*
X174077376Y-116049796D01*
X173990000Y-116260740D01*
X173902624Y-116049796D01*
X173510204Y-115657376D01*
X172997483Y-115445000D01*
X172442517Y-115445000D01*
X171929796Y-115657376D01*
X171537376Y-116049796D01*
X171325000Y-116562517D01*
X163277784Y-116562517D01*
X165287862Y-114552440D01*
X166198000Y-114552440D01*
X166541435Y-114484126D01*
X166832586Y-114289586D01*
X167027126Y-113998435D01*
X167095440Y-113655000D01*
X167095440Y-112405000D01*
X167030678Y-112079423D01*
X168124473Y-110985629D01*
X168187929Y-110943229D01*
X168301720Y-110772929D01*
X168338797Y-110717440D01*
X168490000Y-110717440D01*
X168737765Y-110668157D01*
X168947809Y-110527809D01*
X169088157Y-110317765D01*
X169137440Y-110070000D01*
X169137440Y-108370000D01*
X169088157Y-108122235D01*
X168947809Y-107912191D01*
X168737765Y-107771843D01*
X168490000Y-107722560D01*
X166790000Y-107722560D01*
X166542235Y-107771843D01*
X166332191Y-107912191D01*
X166191843Y-108122235D01*
X166171261Y-108225708D01*
X165866924Y-107948355D01*
X165456890Y-107778524D01*
X165227000Y-107899845D01*
X165227000Y-109093000D01*
X165247000Y-109093000D01*
X165247000Y-109347000D01*
X165227000Y-109347000D01*
X165227000Y-110540155D01*
X165456890Y-110661476D01*
X165866924Y-110491645D01*
X166171261Y-110214292D01*
X166191843Y-110317765D01*
X166332191Y-110527809D01*
X166392435Y-110568063D01*
X165452939Y-111507560D01*
X165273000Y-111507560D01*
X164929565Y-111575874D01*
X164638414Y-111770414D01*
X164443874Y-112061565D01*
X164375560Y-112405000D01*
X164375560Y-113315138D01*
X164108000Y-113582698D01*
X164108000Y-113315750D01*
X163949250Y-113157000D01*
X162887500Y-113157000D01*
X162887500Y-114381250D01*
X163046250Y-114540000D01*
X163150698Y-114540000D01*
X160340699Y-117350000D01*
X158612587Y-117350000D01*
X158571126Y-117141565D01*
X158376586Y-116850414D01*
X158085435Y-116655874D01*
X157742000Y-116587560D01*
X156817000Y-116587560D01*
X156473565Y-116655874D01*
X156182414Y-116850414D01*
X155987874Y-117141565D01*
X155919560Y-117485000D01*
X155919560Y-118395139D01*
X155750299Y-118564400D01*
X155664440Y-118564400D01*
X155664440Y-117485000D01*
X155596126Y-117141565D01*
X155401586Y-116850414D01*
X155110435Y-116655874D01*
X154767000Y-116587560D01*
X153856861Y-116587560D01*
X153160000Y-115890699D01*
X153160000Y-115518043D01*
X153434577Y-115334577D01*
X153670000Y-114982242D01*
X153905423Y-115334577D01*
X154380091Y-115651740D01*
X154798667Y-115735000D01*
X155081333Y-115735000D01*
X155499909Y-115651740D01*
X155974577Y-115334577D01*
X156055215Y-115213894D01*
X156081843Y-115347765D01*
X156222191Y-115557809D01*
X156432235Y-115698157D01*
X156680000Y-115747440D01*
X158280000Y-115747440D01*
X158527765Y-115698157D01*
X158737809Y-115557809D01*
X158878157Y-115347765D01*
X158927440Y-115100000D01*
X158927440Y-113500000D01*
X158890791Y-113315750D01*
X161413000Y-113315750D01*
X161413000Y-114031310D01*
X161509673Y-114264699D01*
X161688302Y-114443327D01*
X161921691Y-114540000D01*
X162474750Y-114540000D01*
X162633500Y-114381250D01*
X162633500Y-113157000D01*
X161571750Y-113157000D01*
X161413000Y-113315750D01*
X158890791Y-113315750D01*
X158878157Y-113252235D01*
X158737809Y-113042191D01*
X158574794Y-112933267D01*
X158584129Y-112927029D01*
X158626531Y-112863570D01*
X159461411Y-112028690D01*
X161413000Y-112028690D01*
X161413000Y-112744250D01*
X161571750Y-112903000D01*
X162633500Y-112903000D01*
X162633500Y-111678750D01*
X162887500Y-111678750D01*
X162887500Y-112903000D01*
X163949250Y-112903000D01*
X164108000Y-112744250D01*
X164108000Y-112028690D01*
X164011327Y-111795301D01*
X163832698Y-111616673D01*
X163599309Y-111520000D01*
X163046250Y-111520000D01*
X162887500Y-111678750D01*
X162633500Y-111678750D01*
X162474750Y-111520000D01*
X161921691Y-111520000D01*
X161688302Y-111616673D01*
X161509673Y-111795301D01*
X161413000Y-112028690D01*
X159461411Y-112028690D01*
X160504473Y-110985629D01*
X160567929Y-110943229D01*
X160735904Y-110691837D01*
X160773571Y-110502474D01*
X161090625Y-110290625D01*
X161303843Y-109971522D01*
X161364817Y-110101358D01*
X161793076Y-110491645D01*
X162203110Y-110661476D01*
X162433000Y-110540155D01*
X162433000Y-109347000D01*
X162687000Y-109347000D01*
X162687000Y-110540155D01*
X162916890Y-110661476D01*
X163326924Y-110491645D01*
X163755183Y-110101358D01*
X163830000Y-109942046D01*
X163904817Y-110101358D01*
X164333076Y-110491645D01*
X164743110Y-110661476D01*
X164973000Y-110540155D01*
X164973000Y-109347000D01*
X162687000Y-109347000D01*
X162433000Y-109347000D01*
X162413000Y-109347000D01*
X162413000Y-109093000D01*
X162433000Y-109093000D01*
X162433000Y-107899845D01*
X162687000Y-107899845D01*
X162687000Y-109093000D01*
X164973000Y-109093000D01*
X164973000Y-107899845D01*
X164743110Y-107778524D01*
X164333076Y-107948355D01*
X163904817Y-108338642D01*
X163830000Y-108497954D01*
X163755183Y-108338642D01*
X163326924Y-107948355D01*
X162916890Y-107778524D01*
X162687000Y-107899845D01*
X162433000Y-107899845D01*
X162203110Y-107778524D01*
X161793076Y-107948355D01*
X161364817Y-108338642D01*
X161303843Y-108468478D01*
X161090625Y-108149375D01*
X160599418Y-107821161D01*
X160166256Y-107735000D01*
X159873744Y-107735000D01*
X159440582Y-107821161D01*
X158949375Y-108149375D01*
X158621161Y-108640582D01*
X158505908Y-109220000D01*
X158621161Y-109799418D01*
X158949375Y-110290625D01*
X159009619Y-110330879D01*
X158165000Y-111175499D01*
X158165000Y-107014606D01*
X160354606Y-104825000D01*
X175192539Y-104825000D01*
X175260000Y-104838419D01*
X175357571Y-104819011D01*
X175527273Y-104785255D01*
X175753857Y-104633857D01*
X175905255Y-104407273D01*
X175934729Y-104259096D01*
X175945000Y-104207462D01*
X175958419Y-104140000D01*
X175945000Y-104072538D01*
X175945000Y-99345750D01*
X178855000Y-99345750D01*
X178855000Y-100036309D01*
X178951673Y-100269698D01*
X179130301Y-100448327D01*
X179363690Y-100545000D01*
X180054250Y-100545000D01*
X180213000Y-100386250D01*
X180213000Y-99187000D01*
X179013750Y-99187000D01*
X178855000Y-99345750D01*
X175945000Y-99345750D01*
X175945000Y-96803735D01*
X178083736Y-94665000D01*
X225373000Y-94665000D01*
X225373000Y-123775000D01*
X225373000Y-123775000D01*
G37*
X225373000Y-123775000D02*
X127685000Y-123775000D01*
X127685000Y-117196890D01*
X135718524Y-117196890D01*
X135888355Y-117606924D01*
X136278642Y-118035183D01*
X136437954Y-118110000D01*
X136278642Y-118184817D01*
X135888355Y-118613076D01*
X135718524Y-119023110D01*
X135839845Y-119253000D01*
X137033000Y-119253000D01*
X137033000Y-116967000D01*
X137287000Y-116967000D01*
X137287000Y-119253000D01*
X138480155Y-119253000D01*
X138601476Y-119023110D01*
X138431645Y-118613076D01*
X138041358Y-118184817D01*
X137882046Y-118110000D01*
X138041358Y-118035183D01*
X138431645Y-117606924D01*
X138601476Y-117196890D01*
X138480155Y-116967000D01*
X137287000Y-116967000D01*
X137033000Y-116967000D01*
X135839845Y-116967000D01*
X135718524Y-117196890D01*
X127685000Y-117196890D01*
X127685000Y-112445000D01*
X139115498Y-112445000D01*
X138270879Y-113289620D01*
X138230625Y-113229375D01*
X137739418Y-112901161D01*
X137306256Y-112815000D01*
X137013744Y-112815000D01*
X136580582Y-112901161D01*
X136089375Y-113229375D01*
X135761161Y-113720582D01*
X135645908Y-114300000D01*
X135761161Y-114879418D01*
X136089375Y-115370625D01*
X136408478Y-115583843D01*
X136278642Y-115644817D01*
X135888355Y-116073076D01*
X135718524Y-116483110D01*
X135839845Y-116713000D01*
X137033000Y-116713000D01*
X137033000Y-116693000D01*
X137287000Y-116693000D01*
X137287000Y-116713000D01*
X138480155Y-116713000D01*
X138601476Y-116483110D01*
X138431645Y-116073076D01*
X138041358Y-115644817D01*
X137911522Y-115583843D01*
X138230625Y-115370625D01*
X138442474Y-115053571D01*
X138631837Y-115015904D01*
X138883229Y-114847929D01*
X138925631Y-114784470D01*
X139061060Y-114649041D01*
X140848086Y-114649041D01*
X141087611Y-115155134D01*
X141502577Y-115531041D01*
X141890961Y-115691904D01*
X142113000Y-115569915D01*
X142113000Y-114427000D01*
X140969371Y-114427000D01*
X140848086Y-114649041D01*
X139061060Y-114649041D01*
X140571002Y-113139100D01*
X141425148Y-113139100D01*
X141087611Y-113444866D01*
X140848086Y-113950959D01*
X140969371Y-114173000D01*
X142113000Y-114173000D01*
X142113000Y-114153000D01*
X142367000Y-114153000D01*
X142367000Y-114173000D01*
X142387000Y-114173000D01*
X142387000Y-114427000D01*
X142367000Y-114427000D01*
X142367000Y-115569915D01*
X142589039Y-115691904D01*
X142977423Y-115531041D01*
X143392389Y-115155134D01*
X143489053Y-114950892D01*
X143745423Y-115334577D01*
X144024106Y-115520787D01*
X144064097Y-115721837D01*
X144189131Y-115908963D01*
X144232072Y-115973229D01*
X144295528Y-116015629D01*
X144932132Y-116652233D01*
X144607000Y-116587560D01*
X143682000Y-116587560D01*
X143338565Y-116655874D01*
X143047414Y-116850414D01*
X142852874Y-117141565D01*
X142784560Y-117485000D01*
X142784560Y-118564400D01*
X141005748Y-118564400D01*
X140930900Y-118549512D01*
X140856052Y-118564400D01*
X140856048Y-118564400D01*
X140682505Y-118598920D01*
X140634362Y-118608496D01*
X140560381Y-118657929D01*
X140382971Y-118776471D01*
X140340571Y-118839927D01*
X138508063Y-120672435D01*
X138467809Y-120612191D01*
X138257765Y-120471843D01*
X138154292Y-120451261D01*
X138431645Y-120146924D01*
X138601476Y-119736890D01*
X138480155Y-119507000D01*
X137287000Y-119507000D01*
X137287000Y-119527000D01*
X137033000Y-119527000D01*
X137033000Y-119507000D01*
X135839845Y-119507000D01*
X135718524Y-119736890D01*
X135888355Y-120146924D01*
X136165708Y-120451261D01*
X136062235Y-120471843D01*
X135852191Y-120612191D01*
X135711843Y-120822235D01*
X135662560Y-121070000D01*
X135662560Y-122770000D01*
X135711843Y-123017765D01*
X135852191Y-123227809D01*
X136062235Y-123368157D01*
X136310000Y-123417440D01*
X138010000Y-123417440D01*
X138257765Y-123368157D01*
X138467809Y-123227809D01*
X138608157Y-123017765D01*
X138657440Y-122770000D01*
X138657440Y-122618797D01*
X138883229Y-122467929D01*
X138925631Y-122404470D01*
X141245702Y-120084400D01*
X144069648Y-120084400D01*
X144144500Y-120099289D01*
X144219352Y-120084400D01*
X155750299Y-120084400D01*
X156508904Y-120843006D01*
X156445423Y-120885423D01*
X156210000Y-121237758D01*
X155974577Y-120885423D01*
X155499909Y-120568260D01*
X155081333Y-120485000D01*
X154798667Y-120485000D01*
X154380091Y-120568260D01*
X153905423Y-120885423D01*
X153670000Y-121237758D01*
X153434577Y-120885423D01*
X152959909Y-120568260D01*
X152541333Y-120485000D01*
X152258667Y-120485000D01*
X151840091Y-120568260D01*
X151365423Y-120885423D01*
X151130000Y-121237758D01*
X150894577Y-120885423D01*
X150419909Y-120568260D01*
X150001333Y-120485000D01*
X149718667Y-120485000D01*
X149300091Y-120568260D01*
X148825423Y-120885423D01*
X148590000Y-121237758D01*
X148354577Y-120885423D01*
X147879909Y-120568260D01*
X147461333Y-120485000D01*
X147178667Y-120485000D01*
X146760091Y-120568260D01*
X146285423Y-120885423D01*
X146050000Y-121237758D01*
X145814577Y-120885423D01*
X145339909Y-120568260D01*
X144921333Y-120485000D01*
X144638667Y-120485000D01*
X144220091Y-120568260D01*
X143745423Y-120885423D01*
X143510000Y-121237758D01*
X143274577Y-120885423D01*
X142799909Y-120568260D01*
X142381333Y-120485000D01*
X142098667Y-120485000D01*
X141680091Y-120568260D01*
X141205423Y-120885423D01*
X140888260Y-121360091D01*
X140776887Y-121920000D01*
X140888260Y-122479909D01*
X141205423Y-122954577D01*
X141680091Y-123271740D01*
X142098667Y-123355000D01*
X142381333Y-123355000D01*
X142799909Y-123271740D01*
X143274577Y-122954577D01*
X143510000Y-122602242D01*
X143745423Y-122954577D01*
X144220091Y-123271740D01*
X144638667Y-123355000D01*
X144921333Y-123355000D01*
X145339909Y-123271740D01*
X145814577Y-122954577D01*
X146050000Y-122602242D01*
X146285423Y-122954577D01*
X146760091Y-123271740D01*
X147178667Y-123355000D01*
X147461333Y-123355000D01*
X147879909Y-123271740D01*
X148354577Y-122954577D01*
X148590000Y-122602242D01*
X148825423Y-122954577D01*
X149300091Y-123271740D01*
X149718667Y-123355000D01*
X150001333Y-123355000D01*
X150419909Y-123271740D01*
X150894577Y-122954577D01*
X151130000Y-122602242D01*
X151365423Y-122954577D01*
X151840091Y-123271740D01*
X152258667Y-123355000D01*
X152541333Y-123355000D01*
X152959909Y-123271740D01*
X153434577Y-122954577D01*
X153670000Y-122602242D01*
X153905423Y-122954577D01*
X154380091Y-123271740D01*
X154798667Y-123355000D01*
X155081333Y-123355000D01*
X155499909Y-123271740D01*
X155974577Y-122954577D01*
X156210000Y-122602242D01*
X156445423Y-122954577D01*
X156920091Y-123271740D01*
X157338667Y-123355000D01*
X157621333Y-123355000D01*
X158039909Y-123271740D01*
X158514577Y-122954577D01*
X158831740Y-122479909D01*
X158943113Y-121920000D01*
X158831740Y-121360091D01*
X158514577Y-120885423D01*
X158248604Y-120707705D01*
X158240000Y-120664452D01*
X158240000Y-120664448D01*
X158205480Y-120490905D01*
X158195904Y-120442762D01*
X158070329Y-120254827D01*
X158027929Y-120191371D01*
X157964473Y-120148971D01*
X157481252Y-119665750D01*
X171325000Y-119665750D01*
X171325000Y-120266310D01*
X171421673Y-120499699D01*
X171600302Y-120678327D01*
X171833691Y-120775000D01*
X172434250Y-120775000D01*
X172593000Y-120616250D01*
X172593000Y-119507000D01*
X171483750Y-119507000D01*
X171325000Y-119665750D01*
X157481252Y-119665750D01*
X157447942Y-119632440D01*
X157742000Y-119632440D01*
X158085435Y-119564126D01*
X158376586Y-119369586D01*
X158571126Y-119078435D01*
X158612587Y-118870000D01*
X160580653Y-118870000D01*
X160655500Y-118884888D01*
X160730347Y-118870000D01*
X160730352Y-118870000D01*
X160952037Y-118825904D01*
X161203429Y-118657929D01*
X161245831Y-118594470D01*
X163277784Y-116562517D01*
X171325000Y-116562517D01*
X171325000Y-117117483D01*
X171537376Y-117630204D01*
X171892172Y-117985000D01*
X171833691Y-117985000D01*
X171600302Y-118081673D01*
X171421673Y-118260301D01*
X171325000Y-118493690D01*
X171325000Y-119094250D01*
X171483750Y-119253000D01*
X172593000Y-119253000D01*
X172593000Y-119233000D01*
X172847000Y-119233000D01*
X172847000Y-119253000D01*
X172867000Y-119253000D01*
X172867000Y-119507000D01*
X172847000Y-119507000D01*
X172847000Y-120616250D01*
X173005750Y-120775000D01*
X173606309Y-120775000D01*
X173839698Y-120678327D01*
X174018327Y-120499699D01*
X174115000Y-120266310D01*
X174115000Y-120131607D01*
X174281236Y-120179159D01*
X175080395Y-119380000D01*
X175066253Y-119365858D01*
X175245858Y-119186253D01*
X175260000Y-119200395D01*
X175274143Y-119186253D01*
X175453748Y-119365858D01*
X175439605Y-119380000D01*
X175453748Y-119394143D01*
X175274143Y-119573748D01*
X175260000Y-119559605D01*
X174460841Y-120358764D01*
X174530059Y-120600742D01*
X175052780Y-120787155D01*
X175607049Y-120759341D01*
X175989941Y-120600742D01*
X176059158Y-120358766D01*
X176174176Y-120473784D01*
X176217529Y-120430431D01*
X176750871Y-120963773D01*
X176793271Y-121027229D01*
X177044663Y-121195204D01*
X177266348Y-121239300D01*
X177266352Y-121239300D01*
X177341199Y-121254188D01*
X177416046Y-121239300D01*
X211192053Y-121239300D01*
X211266900Y-121254188D01*
X211341747Y-121239300D01*
X211341752Y-121239300D01*
X211563437Y-121195204D01*
X211814829Y-121027229D01*
X211857231Y-120963770D01*
X212396521Y-120424481D01*
X212445824Y-120473784D01*
X212560842Y-120358766D01*
X212630059Y-120600742D01*
X213152780Y-120787155D01*
X213707049Y-120759341D01*
X214089941Y-120600742D01*
X214159159Y-120358764D01*
X213360000Y-119559605D01*
X213345858Y-119573748D01*
X213166253Y-119394143D01*
X213180395Y-119380000D01*
X213539605Y-119380000D01*
X214338764Y-120179159D01*
X214580742Y-120109941D01*
X214767155Y-119587220D01*
X214739341Y-119032951D01*
X214580742Y-118650059D01*
X214338764Y-118580841D01*
X213539605Y-119380000D01*
X213180395Y-119380000D01*
X213166253Y-119365858D01*
X213345858Y-119186253D01*
X213360000Y-119200395D01*
X214159159Y-118401236D01*
X214089941Y-118159258D01*
X213945069Y-118107594D01*
X214150204Y-118022624D01*
X214542624Y-117630204D01*
X214755000Y-117117483D01*
X214755000Y-116562517D01*
X214542624Y-116049796D01*
X214150204Y-115657376D01*
X214102348Y-115637553D01*
X220289173Y-109450729D01*
X220352629Y-109408329D01*
X220520604Y-109156937D01*
X220564700Y-108935252D01*
X220564700Y-108935248D01*
X220579588Y-108860400D01*
X220564700Y-108785552D01*
X220564700Y-100477283D01*
X220623110Y-100501476D01*
X220853000Y-100380155D01*
X220853000Y-99187000D01*
X221107000Y-99187000D01*
X221107000Y-100380155D01*
X221336890Y-100501476D01*
X221746924Y-100331645D01*
X222175183Y-99941358D01*
X222421486Y-99416892D01*
X222300819Y-99187000D01*
X221107000Y-99187000D01*
X220853000Y-99187000D01*
X220833000Y-99187000D01*
X220833000Y-98933000D01*
X220853000Y-98933000D01*
X220853000Y-98913000D01*
X221107000Y-98913000D01*
X221107000Y-98933000D01*
X222300819Y-98933000D01*
X222421486Y-98703108D01*
X222175183Y-98178642D01*
X221750214Y-97791353D01*
X222050625Y-97590625D01*
X222378839Y-97099418D01*
X222494092Y-96520000D01*
X222378839Y-95940582D01*
X222050625Y-95449375D01*
X221559418Y-95121161D01*
X221126256Y-95035000D01*
X220833744Y-95035000D01*
X220400582Y-95121161D01*
X219909375Y-95449375D01*
X219710000Y-95747761D01*
X219510625Y-95449375D01*
X219019418Y-95121161D01*
X218586256Y-95035000D01*
X218293744Y-95035000D01*
X217860582Y-95121161D01*
X217369375Y-95449375D01*
X217170000Y-95747761D01*
X216970625Y-95449375D01*
X216479418Y-95121161D01*
X216046256Y-95035000D01*
X215753744Y-95035000D01*
X215320582Y-95121161D01*
X214829375Y-95449375D01*
X214630000Y-95747761D01*
X214430625Y-95449375D01*
X213939418Y-95121161D01*
X213506256Y-95035000D01*
X213213744Y-95035000D01*
X212780582Y-95121161D01*
X212289375Y-95449375D01*
X212090000Y-95747761D01*
X211890625Y-95449375D01*
X211399418Y-95121161D01*
X210966256Y-95035000D01*
X210673744Y-95035000D01*
X210240582Y-95121161D01*
X209749375Y-95449375D01*
X209550000Y-95747761D01*
X209350625Y-95449375D01*
X208859418Y-95121161D01*
X208426256Y-95035000D01*
X208133744Y-95035000D01*
X207700582Y-95121161D01*
X207209375Y-95449375D01*
X207010000Y-95747761D01*
X206810625Y-95449375D01*
X206319418Y-95121161D01*
X205886256Y-95035000D01*
X205593744Y-95035000D01*
X205160582Y-95121161D01*
X204669375Y-95449375D01*
X204470000Y-95747761D01*
X204270625Y-95449375D01*
X203779418Y-95121161D01*
X203346256Y-95035000D01*
X203053744Y-95035000D01*
X202620582Y-95121161D01*
X202129375Y-95449375D01*
X201930000Y-95747761D01*
X201730625Y-95449375D01*
X201239418Y-95121161D01*
X200806256Y-95035000D01*
X200513744Y-95035000D01*
X200080582Y-95121161D01*
X199589375Y-95449375D01*
X199390000Y-95747761D01*
X199190625Y-95449375D01*
X198699418Y-95121161D01*
X198266256Y-95035000D01*
X197973744Y-95035000D01*
X197540582Y-95121161D01*
X197049375Y-95449375D01*
X196850000Y-95747761D01*
X196650625Y-95449375D01*
X196159418Y-95121161D01*
X195726256Y-95035000D01*
X195433744Y-95035000D01*
X195000582Y-95121161D01*
X194509375Y-95449375D01*
X194310000Y-95747761D01*
X194110625Y-95449375D01*
X193619418Y-95121161D01*
X193186256Y-95035000D01*
X192893744Y-95035000D01*
X192460582Y-95121161D01*
X191969375Y-95449375D01*
X191770000Y-95747761D01*
X191570625Y-95449375D01*
X191079418Y-95121161D01*
X190646256Y-95035000D01*
X190353744Y-95035000D01*
X189920582Y-95121161D01*
X189429375Y-95449375D01*
X189230000Y-95747761D01*
X189030625Y-95449375D01*
X188539418Y-95121161D01*
X188106256Y-95035000D01*
X187813744Y-95035000D01*
X187380582Y-95121161D01*
X186889375Y-95449375D01*
X186690000Y-95747761D01*
X186490625Y-95449375D01*
X185999418Y-95121161D01*
X185566256Y-95035000D01*
X185273744Y-95035000D01*
X184840582Y-95121161D01*
X184349375Y-95449375D01*
X184150000Y-95747761D01*
X183950625Y-95449375D01*
X183459418Y-95121161D01*
X183026256Y-95035000D01*
X182733744Y-95035000D01*
X182300582Y-95121161D01*
X181809375Y-95449375D01*
X181610000Y-95747761D01*
X181410625Y-95449375D01*
X180919418Y-95121161D01*
X180486256Y-95035000D01*
X180193744Y-95035000D01*
X179760582Y-95121161D01*
X179269375Y-95449375D01*
X178941161Y-95940582D01*
X178825908Y-96520000D01*
X178941161Y-97099418D01*
X179269375Y-97590625D01*
X179291032Y-97605096D01*
X179130301Y-97671673D01*
X178951673Y-97850302D01*
X178855000Y-98083691D01*
X178855000Y-98774250D01*
X179013750Y-98933000D01*
X180213000Y-98933000D01*
X180213000Y-98913000D01*
X180467000Y-98913000D01*
X180467000Y-98933000D01*
X180487000Y-98933000D01*
X180487000Y-99187000D01*
X180467000Y-99187000D01*
X180467000Y-100386250D01*
X180625750Y-100545000D01*
X180944701Y-100545000D01*
X180944701Y-101412597D01*
X174775530Y-107581769D01*
X174712071Y-107624171D01*
X174544096Y-107875564D01*
X174500000Y-108097249D01*
X174500000Y-108097253D01*
X174485112Y-108172100D01*
X174500000Y-108246947D01*
X174500001Y-115644865D01*
X174469796Y-115657376D01*
X174077376Y-116049796D01*
X173990000Y-116260740D01*
X173902624Y-116049796D01*
X173510204Y-115657376D01*
X172997483Y-115445000D01*
X172442517Y-115445000D01*
X171929796Y-115657376D01*
X171537376Y-116049796D01*
X171325000Y-116562517D01*
X163277784Y-116562517D01*
X165287862Y-114552440D01*
X166198000Y-114552440D01*
X166541435Y-114484126D01*
X166832586Y-114289586D01*
X167027126Y-113998435D01*
X167095440Y-113655000D01*
X167095440Y-112405000D01*
X167030678Y-112079423D01*
X168124473Y-110985629D01*
X168187929Y-110943229D01*
X168301720Y-110772929D01*
X168338797Y-110717440D01*
X168490000Y-110717440D01*
X168737765Y-110668157D01*
X168947809Y-110527809D01*
X169088157Y-110317765D01*
X169137440Y-110070000D01*
X169137440Y-108370000D01*
X169088157Y-108122235D01*
X168947809Y-107912191D01*
X168737765Y-107771843D01*
X168490000Y-107722560D01*
X166790000Y-107722560D01*
X166542235Y-107771843D01*
X166332191Y-107912191D01*
X166191843Y-108122235D01*
X166171261Y-108225708D01*
X165866924Y-107948355D01*
X165456890Y-107778524D01*
X165227000Y-107899845D01*
X165227000Y-109093000D01*
X165247000Y-109093000D01*
X165247000Y-109347000D01*
X165227000Y-109347000D01*
X165227000Y-110540155D01*
X165456890Y-110661476D01*
X165866924Y-110491645D01*
X166171261Y-110214292D01*
X166191843Y-110317765D01*
X166332191Y-110527809D01*
X166392435Y-110568063D01*
X165452939Y-111507560D01*
X165273000Y-111507560D01*
X164929565Y-111575874D01*
X164638414Y-111770414D01*
X164443874Y-112061565D01*
X164375560Y-112405000D01*
X164375560Y-113315138D01*
X164108000Y-113582698D01*
X164108000Y-113315750D01*
X163949250Y-113157000D01*
X162887500Y-113157000D01*
X162887500Y-114381250D01*
X163046250Y-114540000D01*
X163150698Y-114540000D01*
X160340699Y-117350000D01*
X158612587Y-117350000D01*
X158571126Y-117141565D01*
X158376586Y-116850414D01*
X158085435Y-116655874D01*
X157742000Y-116587560D01*
X156817000Y-116587560D01*
X156473565Y-116655874D01*
X156182414Y-116850414D01*
X155987874Y-117141565D01*
X155919560Y-117485000D01*
X155919560Y-118395139D01*
X155750299Y-118564400D01*
X155664440Y-118564400D01*
X155664440Y-117485000D01*
X155596126Y-117141565D01*
X155401586Y-116850414D01*
X155110435Y-116655874D01*
X154767000Y-116587560D01*
X153856861Y-116587560D01*
X153160000Y-115890699D01*
X153160000Y-115518043D01*
X153434577Y-115334577D01*
X153670000Y-114982242D01*
X153905423Y-115334577D01*
X154380091Y-115651740D01*
X154798667Y-115735000D01*
X155081333Y-115735000D01*
X155499909Y-115651740D01*
X155974577Y-115334577D01*
X156055215Y-115213894D01*
X156081843Y-115347765D01*
X156222191Y-115557809D01*
X156432235Y-115698157D01*
X156680000Y-115747440D01*
X158280000Y-115747440D01*
X158527765Y-115698157D01*
X158737809Y-115557809D01*
X158878157Y-115347765D01*
X158927440Y-115100000D01*
X158927440Y-113500000D01*
X158890791Y-113315750D01*
X161413000Y-113315750D01*
X161413000Y-114031310D01*
X161509673Y-114264699D01*
X161688302Y-114443327D01*
X161921691Y-114540000D01*
X162474750Y-114540000D01*
X162633500Y-114381250D01*
X162633500Y-113157000D01*
X161571750Y-113157000D01*
X161413000Y-113315750D01*
X158890791Y-113315750D01*
X158878157Y-113252235D01*
X158737809Y-113042191D01*
X158574794Y-112933267D01*
X158584129Y-112927029D01*
X158626531Y-112863570D01*
X159461411Y-112028690D01*
X161413000Y-112028690D01*
X161413000Y-112744250D01*
X161571750Y-112903000D01*
X162633500Y-112903000D01*
X162633500Y-111678750D01*
X162887500Y-111678750D01*
X162887500Y-112903000D01*
X163949250Y-112903000D01*
X164108000Y-112744250D01*
X164108000Y-112028690D01*
X164011327Y-111795301D01*
X163832698Y-111616673D01*
X163599309Y-111520000D01*
X163046250Y-111520000D01*
X162887500Y-111678750D01*
X162633500Y-111678750D01*
X162474750Y-111520000D01*
X161921691Y-111520000D01*
X161688302Y-111616673D01*
X161509673Y-111795301D01*
X161413000Y-112028690D01*
X159461411Y-112028690D01*
X160504473Y-110985629D01*
X160567929Y-110943229D01*
X160735904Y-110691837D01*
X160773571Y-110502474D01*
X161090625Y-110290625D01*
X161303843Y-109971522D01*
X161364817Y-110101358D01*
X161793076Y-110491645D01*
X162203110Y-110661476D01*
X162433000Y-110540155D01*
X162433000Y-109347000D01*
X162687000Y-109347000D01*
X162687000Y-110540155D01*
X162916890Y-110661476D01*
X163326924Y-110491645D01*
X163755183Y-110101358D01*
X163830000Y-109942046D01*
X163904817Y-110101358D01*
X164333076Y-110491645D01*
X164743110Y-110661476D01*
X164973000Y-110540155D01*
X164973000Y-109347000D01*
X162687000Y-109347000D01*
X162433000Y-109347000D01*
X162413000Y-109347000D01*
X162413000Y-109093000D01*
X162433000Y-109093000D01*
X162433000Y-107899845D01*
X162687000Y-107899845D01*
X162687000Y-109093000D01*
X164973000Y-109093000D01*
X164973000Y-107899845D01*
X164743110Y-107778524D01*
X164333076Y-107948355D01*
X163904817Y-108338642D01*
X163830000Y-108497954D01*
X163755183Y-108338642D01*
X163326924Y-107948355D01*
X162916890Y-107778524D01*
X162687000Y-107899845D01*
X162433000Y-107899845D01*
X162203110Y-107778524D01*
X161793076Y-107948355D01*
X161364817Y-108338642D01*
X161303843Y-108468478D01*
X161090625Y-108149375D01*
X160599418Y-107821161D01*
X160166256Y-107735000D01*
X159873744Y-107735000D01*
X159440582Y-107821161D01*
X158949375Y-108149375D01*
X158621161Y-108640582D01*
X158505908Y-109220000D01*
X158621161Y-109799418D01*
X158949375Y-110290625D01*
X159009619Y-110330879D01*
X158165000Y-111175499D01*
X158165000Y-107014606D01*
X160354606Y-104825000D01*
X175192539Y-104825000D01*
X175260000Y-104838419D01*
X175357571Y-104819011D01*
X175527273Y-104785255D01*
X175753857Y-104633857D01*
X175905255Y-104407273D01*
X175934729Y-104259096D01*
X175945000Y-104207462D01*
X175958419Y-104140000D01*
X175945000Y-104072538D01*
X175945000Y-99345750D01*
X178855000Y-99345750D01*
X178855000Y-100036309D01*
X178951673Y-100269698D01*
X179130301Y-100448327D01*
X179363690Y-100545000D01*
X180054250Y-100545000D01*
X180213000Y-100386250D01*
X180213000Y-99187000D01*
X179013750Y-99187000D01*
X178855000Y-99345750D01*
X175945000Y-99345750D01*
X175945000Y-96803735D01*
X178083736Y-94665000D01*
X225373000Y-94665000D01*
X225373000Y-123775000D01*
G36*
X209637376Y-117630204D02*
X210029796Y-118022624D01*
X210224859Y-118103422D01*
X210090059Y-118159258D01*
X210020841Y-118401236D01*
X210820000Y-119200395D01*
X210834143Y-119186253D01*
X211013748Y-119365858D01*
X210999605Y-119380000D01*
X211013748Y-119394143D01*
X210834143Y-119573748D01*
X210820000Y-119559605D01*
X210805858Y-119573748D01*
X210626253Y-119394143D01*
X210640395Y-119380000D01*
X209841236Y-118580841D01*
X209599258Y-118650059D01*
X209553680Y-118777863D01*
X209500742Y-118650059D01*
X209258764Y-118580841D01*
X208459605Y-119380000D01*
X208473748Y-119394143D01*
X208294143Y-119573748D01*
X208280000Y-119559605D01*
X208265858Y-119573748D01*
X208086253Y-119394143D01*
X208100395Y-119380000D01*
X207301236Y-118580841D01*
X207059258Y-118650059D01*
X207013680Y-118777863D01*
X206960742Y-118650059D01*
X206718764Y-118580841D01*
X205919605Y-119380000D01*
X205933748Y-119394143D01*
X205754143Y-119573748D01*
X205740000Y-119559605D01*
X205725858Y-119573748D01*
X205546253Y-119394143D01*
X205560395Y-119380000D01*
X204761236Y-118580841D01*
X204519258Y-118650059D01*
X204473680Y-118777863D01*
X204420742Y-118650059D01*
X204178764Y-118580841D01*
X203379605Y-119380000D01*
X203393748Y-119394143D01*
X203214143Y-119573748D01*
X203200000Y-119559605D01*
X203185858Y-119573748D01*
X203006253Y-119394143D01*
X203020395Y-119380000D01*
X202221236Y-118580841D01*
X201979258Y-118650059D01*
X201933680Y-118777863D01*
X201880742Y-118650059D01*
X201638764Y-118580841D01*
X200839605Y-119380000D01*
X200853748Y-119394143D01*
X200674143Y-119573748D01*
X200660000Y-119559605D01*
X200645858Y-119573748D01*
X200466253Y-119394143D01*
X200480395Y-119380000D01*
X199681236Y-118580841D01*
X199439258Y-118650059D01*
X199393680Y-118777863D01*
X199340742Y-118650059D01*
X199098764Y-118580841D01*
X198299605Y-119380000D01*
X198313748Y-119394143D01*
X198134143Y-119573748D01*
X198120000Y-119559605D01*
X198105858Y-119573748D01*
X197926253Y-119394143D01*
X197940395Y-119380000D01*
X197141236Y-118580841D01*
X196899258Y-118650059D01*
X196853680Y-118777863D01*
X196800742Y-118650059D01*
X196558764Y-118580841D01*
X195759605Y-119380000D01*
X195773748Y-119394143D01*
X195594143Y-119573748D01*
X195580000Y-119559605D01*
X195565858Y-119573748D01*
X195386253Y-119394143D01*
X195400395Y-119380000D01*
X194601236Y-118580841D01*
X194359258Y-118650059D01*
X194313680Y-118777863D01*
X194260742Y-118650059D01*
X194018764Y-118580841D01*
X193219605Y-119380000D01*
X193233748Y-119394143D01*
X193054143Y-119573748D01*
X193040000Y-119559605D01*
X193025858Y-119573748D01*
X192846253Y-119394143D01*
X192860395Y-119380000D01*
X192061236Y-118580841D01*
X191819258Y-118650059D01*
X191773680Y-118777863D01*
X191720742Y-118650059D01*
X191478764Y-118580841D01*
X190679605Y-119380000D01*
X190693748Y-119394143D01*
X190514143Y-119573748D01*
X190500000Y-119559605D01*
X190485858Y-119573748D01*
X190306253Y-119394143D01*
X190320395Y-119380000D01*
X189521236Y-118580841D01*
X189279258Y-118650059D01*
X189233680Y-118777863D01*
X189180742Y-118650059D01*
X188938764Y-118580841D01*
X188139605Y-119380000D01*
X188153748Y-119394143D01*
X187974143Y-119573748D01*
X187960000Y-119559605D01*
X187945858Y-119573748D01*
X187766253Y-119394143D01*
X187780395Y-119380000D01*
X186981236Y-118580841D01*
X186739258Y-118650059D01*
X186693680Y-118777863D01*
X186640742Y-118650059D01*
X186398764Y-118580841D01*
X185599605Y-119380000D01*
X185613748Y-119394143D01*
X185434143Y-119573748D01*
X185420000Y-119559605D01*
X185405858Y-119573748D01*
X185226253Y-119394143D01*
X185240395Y-119380000D01*
X185226253Y-119365858D01*
X185405858Y-119186253D01*
X185420000Y-119200395D01*
X186219159Y-118401236D01*
X186149941Y-118159258D01*
X186005069Y-118107594D01*
X186210204Y-118022624D01*
X186602624Y-117630204D01*
X186690000Y-117419260D01*
X186777376Y-117630204D01*
X187169796Y-118022624D01*
X187364859Y-118103422D01*
X187230059Y-118159258D01*
X187160841Y-118401236D01*
X187960000Y-119200395D01*
X188759159Y-118401236D01*
X188689941Y-118159258D01*
X188545069Y-118107594D01*
X188750204Y-118022624D01*
X189142624Y-117630204D01*
X189230000Y-117419260D01*
X189317376Y-117630204D01*
X189709796Y-118022624D01*
X189904859Y-118103422D01*
X189770059Y-118159258D01*
X189700841Y-118401236D01*
X190500000Y-119200395D01*
X191299159Y-118401236D01*
X191229941Y-118159258D01*
X191085069Y-118107594D01*
X191290204Y-118022624D01*
X191682624Y-117630204D01*
X191770000Y-117419260D01*
X191857376Y-117630204D01*
X192249796Y-118022624D01*
X192444859Y-118103422D01*
X192310059Y-118159258D01*
X192240841Y-118401236D01*
X193040000Y-119200395D01*
X193839159Y-118401236D01*
X193769941Y-118159258D01*
X193625069Y-118107594D01*
X193830204Y-118022624D01*
X194222624Y-117630204D01*
X194310000Y-117419260D01*
X194397376Y-117630204D01*
X194789796Y-118022624D01*
X194984859Y-118103422D01*
X194850059Y-118159258D01*
X194780841Y-118401236D01*
X195580000Y-119200395D01*
X196379159Y-118401236D01*
X196309941Y-118159258D01*
X196165069Y-118107594D01*
X196370204Y-118022624D01*
X196762624Y-117630204D01*
X196850000Y-117419260D01*
X196937376Y-117630204D01*
X197329796Y-118022624D01*
X197524859Y-118103422D01*
X197390059Y-118159258D01*
X197320841Y-118401236D01*
X198120000Y-119200395D01*
X198919159Y-118401236D01*
X198849941Y-118159258D01*
X198705069Y-118107594D01*
X198910204Y-118022624D01*
X199302624Y-117630204D01*
X199390000Y-117419260D01*
X199477376Y-117630204D01*
X199869796Y-118022624D01*
X200064859Y-118103422D01*
X199930059Y-118159258D01*
X199860841Y-118401236D01*
X200660000Y-119200395D01*
X201459159Y-118401236D01*
X201389941Y-118159258D01*
X201245069Y-118107594D01*
X201450204Y-118022624D01*
X201842624Y-117630204D01*
X201930000Y-117419260D01*
X202017376Y-117630204D01*
X202409796Y-118022624D01*
X202604859Y-118103422D01*
X202470059Y-118159258D01*
X202400841Y-118401236D01*
X203200000Y-119200395D01*
X203999159Y-118401236D01*
X203929941Y-118159258D01*
X203785069Y-118107594D01*
X203990204Y-118022624D01*
X204382624Y-117630204D01*
X204470000Y-117419260D01*
X204557376Y-117630204D01*
X204949796Y-118022624D01*
X205144859Y-118103422D01*
X205010059Y-118159258D01*
X204940841Y-118401236D01*
X205740000Y-119200395D01*
X206539159Y-118401236D01*
X206469941Y-118159258D01*
X206325069Y-118107594D01*
X206530204Y-118022624D01*
X206922624Y-117630204D01*
X207010000Y-117419260D01*
X207097376Y-117630204D01*
X207489796Y-118022624D01*
X207684859Y-118103422D01*
X207550059Y-118159258D01*
X207480841Y-118401236D01*
X208280000Y-119200395D01*
X209079159Y-118401236D01*
X209009941Y-118159258D01*
X208865069Y-118107594D01*
X209070204Y-118022624D01*
X209462624Y-117630204D01*
X209550000Y-117419260D01*
X209637376Y-117630204D01*
X209637376Y-117630204D01*
G37*
X209637376Y-117630204D02*
X210029796Y-118022624D01*
X210224859Y-118103422D01*
X210090059Y-118159258D01*
X210020841Y-118401236D01*
X210820000Y-119200395D01*
X210834143Y-119186253D01*
X211013748Y-119365858D01*
X210999605Y-119380000D01*
X211013748Y-119394143D01*
X210834143Y-119573748D01*
X210820000Y-119559605D01*
X210805858Y-119573748D01*
X210626253Y-119394143D01*
X210640395Y-119380000D01*
X209841236Y-118580841D01*
X209599258Y-118650059D01*
X209553680Y-118777863D01*
X209500742Y-118650059D01*
X209258764Y-118580841D01*
X208459605Y-119380000D01*
X208473748Y-119394143D01*
X208294143Y-119573748D01*
X208280000Y-119559605D01*
X208265858Y-119573748D01*
X208086253Y-119394143D01*
X208100395Y-119380000D01*
X207301236Y-118580841D01*
X207059258Y-118650059D01*
X207013680Y-118777863D01*
X206960742Y-118650059D01*
X206718764Y-118580841D01*
X205919605Y-119380000D01*
X205933748Y-119394143D01*
X205754143Y-119573748D01*
X205740000Y-119559605D01*
X205725858Y-119573748D01*
X205546253Y-119394143D01*
X205560395Y-119380000D01*
X204761236Y-118580841D01*
X204519258Y-118650059D01*
X204473680Y-118777863D01*
X204420742Y-118650059D01*
X204178764Y-118580841D01*
X203379605Y-119380000D01*
X203393748Y-119394143D01*
X203214143Y-119573748D01*
X203200000Y-119559605D01*
X203185858Y-119573748D01*
X203006253Y-119394143D01*
X203020395Y-119380000D01*
X202221236Y-118580841D01*
X201979258Y-118650059D01*
X201933680Y-118777863D01*
X201880742Y-118650059D01*
X201638764Y-118580841D01*
X200839605Y-119380000D01*
X200853748Y-119394143D01*
X200674143Y-119573748D01*
X200660000Y-119559605D01*
X200645858Y-119573748D01*
X200466253Y-119394143D01*
X200480395Y-119380000D01*
X199681236Y-118580841D01*
X199439258Y-118650059D01*
X199393680Y-118777863D01*
X199340742Y-118650059D01*
X199098764Y-118580841D01*
X198299605Y-119380000D01*
X198313748Y-119394143D01*
X198134143Y-119573748D01*
X198120000Y-119559605D01*
X198105858Y-119573748D01*
X197926253Y-119394143D01*
X197940395Y-119380000D01*
X197141236Y-118580841D01*
X196899258Y-118650059D01*
X196853680Y-118777863D01*
X196800742Y-118650059D01*
X196558764Y-118580841D01*
X195759605Y-119380000D01*
X195773748Y-119394143D01*
X195594143Y-119573748D01*
X195580000Y-119559605D01*
X195565858Y-119573748D01*
X195386253Y-119394143D01*
X195400395Y-119380000D01*
X194601236Y-118580841D01*
X194359258Y-118650059D01*
X194313680Y-118777863D01*
X194260742Y-118650059D01*
X194018764Y-118580841D01*
X193219605Y-119380000D01*
X193233748Y-119394143D01*
X193054143Y-119573748D01*
X193040000Y-119559605D01*
X193025858Y-119573748D01*
X192846253Y-119394143D01*
X192860395Y-119380000D01*
X192061236Y-118580841D01*
X191819258Y-118650059D01*
X191773680Y-118777863D01*
X191720742Y-118650059D01*
X191478764Y-118580841D01*
X190679605Y-119380000D01*
X190693748Y-119394143D01*
X190514143Y-119573748D01*
X190500000Y-119559605D01*
X190485858Y-119573748D01*
X190306253Y-119394143D01*
X190320395Y-119380000D01*
X189521236Y-118580841D01*
X189279258Y-118650059D01*
X189233680Y-118777863D01*
X189180742Y-118650059D01*
X188938764Y-118580841D01*
X188139605Y-119380000D01*
X188153748Y-119394143D01*
X187974143Y-119573748D01*
X187960000Y-119559605D01*
X187945858Y-119573748D01*
X187766253Y-119394143D01*
X187780395Y-119380000D01*
X186981236Y-118580841D01*
X186739258Y-118650059D01*
X186693680Y-118777863D01*
X186640742Y-118650059D01*
X186398764Y-118580841D01*
X185599605Y-119380000D01*
X185613748Y-119394143D01*
X185434143Y-119573748D01*
X185420000Y-119559605D01*
X185405858Y-119573748D01*
X185226253Y-119394143D01*
X185240395Y-119380000D01*
X185226253Y-119365858D01*
X185405858Y-119186253D01*
X185420000Y-119200395D01*
X186219159Y-118401236D01*
X186149941Y-118159258D01*
X186005069Y-118107594D01*
X186210204Y-118022624D01*
X186602624Y-117630204D01*
X186690000Y-117419260D01*
X186777376Y-117630204D01*
X187169796Y-118022624D01*
X187364859Y-118103422D01*
X187230059Y-118159258D01*
X187160841Y-118401236D01*
X187960000Y-119200395D01*
X188759159Y-118401236D01*
X188689941Y-118159258D01*
X188545069Y-118107594D01*
X188750204Y-118022624D01*
X189142624Y-117630204D01*
X189230000Y-117419260D01*
X189317376Y-117630204D01*
X189709796Y-118022624D01*
X189904859Y-118103422D01*
X189770059Y-118159258D01*
X189700841Y-118401236D01*
X190500000Y-119200395D01*
X191299159Y-118401236D01*
X191229941Y-118159258D01*
X191085069Y-118107594D01*
X191290204Y-118022624D01*
X191682624Y-117630204D01*
X191770000Y-117419260D01*
X191857376Y-117630204D01*
X192249796Y-118022624D01*
X192444859Y-118103422D01*
X192310059Y-118159258D01*
X192240841Y-118401236D01*
X193040000Y-119200395D01*
X193839159Y-118401236D01*
X193769941Y-118159258D01*
X193625069Y-118107594D01*
X193830204Y-118022624D01*
X194222624Y-117630204D01*
X194310000Y-117419260D01*
X194397376Y-117630204D01*
X194789796Y-118022624D01*
X194984859Y-118103422D01*
X194850059Y-118159258D01*
X194780841Y-118401236D01*
X195580000Y-119200395D01*
X196379159Y-118401236D01*
X196309941Y-118159258D01*
X196165069Y-118107594D01*
X196370204Y-118022624D01*
X196762624Y-117630204D01*
X196850000Y-117419260D01*
X196937376Y-117630204D01*
X197329796Y-118022624D01*
X197524859Y-118103422D01*
X197390059Y-118159258D01*
X197320841Y-118401236D01*
X198120000Y-119200395D01*
X198919159Y-118401236D01*
X198849941Y-118159258D01*
X198705069Y-118107594D01*
X198910204Y-118022624D01*
X199302624Y-117630204D01*
X199390000Y-117419260D01*
X199477376Y-117630204D01*
X199869796Y-118022624D01*
X200064859Y-118103422D01*
X199930059Y-118159258D01*
X199860841Y-118401236D01*
X200660000Y-119200395D01*
X201459159Y-118401236D01*
X201389941Y-118159258D01*
X201245069Y-118107594D01*
X201450204Y-118022624D01*
X201842624Y-117630204D01*
X201930000Y-117419260D01*
X202017376Y-117630204D01*
X202409796Y-118022624D01*
X202604859Y-118103422D01*
X202470059Y-118159258D01*
X202400841Y-118401236D01*
X203200000Y-119200395D01*
X203999159Y-118401236D01*
X203929941Y-118159258D01*
X203785069Y-118107594D01*
X203990204Y-118022624D01*
X204382624Y-117630204D01*
X204470000Y-117419260D01*
X204557376Y-117630204D01*
X204949796Y-118022624D01*
X205144859Y-118103422D01*
X205010059Y-118159258D01*
X204940841Y-118401236D01*
X205740000Y-119200395D01*
X206539159Y-118401236D01*
X206469941Y-118159258D01*
X206325069Y-118107594D01*
X206530204Y-118022624D01*
X206922624Y-117630204D01*
X207010000Y-117419260D01*
X207097376Y-117630204D01*
X207489796Y-118022624D01*
X207684859Y-118103422D01*
X207550059Y-118159258D01*
X207480841Y-118401236D01*
X208280000Y-119200395D01*
X209079159Y-118401236D01*
X209009941Y-118159258D01*
X208865069Y-118107594D01*
X209070204Y-118022624D01*
X209462624Y-117630204D01*
X209550000Y-117419260D01*
X209637376Y-117630204D01*
G36*
X179157376Y-117630204D02*
X179549796Y-118022624D01*
X179744859Y-118103422D01*
X179610059Y-118159258D01*
X179540841Y-118401236D01*
X180340000Y-119200395D01*
X181139159Y-118401236D01*
X181069941Y-118159258D01*
X180925069Y-118107594D01*
X181130204Y-118022624D01*
X181247587Y-117905241D01*
X181310130Y-117947031D01*
X181780971Y-118417873D01*
X181802278Y-118449762D01*
X181786216Y-118465824D01*
X181901234Y-118580842D01*
X181659258Y-118650059D01*
X181613680Y-118777863D01*
X181560742Y-118650059D01*
X181318764Y-118580841D01*
X180519605Y-119380000D01*
X180533748Y-119394143D01*
X180354143Y-119573748D01*
X180340000Y-119559605D01*
X180325858Y-119573748D01*
X180146253Y-119394143D01*
X180160395Y-119380000D01*
X179361236Y-118580841D01*
X179119258Y-118650059D01*
X179073680Y-118777863D01*
X179020742Y-118650059D01*
X178778764Y-118580841D01*
X177979605Y-119380000D01*
X177993748Y-119394143D01*
X177814143Y-119573748D01*
X177800000Y-119559605D01*
X177785858Y-119573748D01*
X177606253Y-119394143D01*
X177620395Y-119380000D01*
X177606253Y-119365858D01*
X177785858Y-119186253D01*
X177800000Y-119200395D01*
X178599159Y-118401236D01*
X178529941Y-118159258D01*
X178385069Y-118107594D01*
X178590204Y-118022624D01*
X178982624Y-117630204D01*
X179070000Y-117419260D01*
X179157376Y-117630204D01*
X179157376Y-117630204D01*
G37*
X179157376Y-117630204D02*
X179549796Y-118022624D01*
X179744859Y-118103422D01*
X179610059Y-118159258D01*
X179540841Y-118401236D01*
X180340000Y-119200395D01*
X181139159Y-118401236D01*
X181069941Y-118159258D01*
X180925069Y-118107594D01*
X181130204Y-118022624D01*
X181247587Y-117905241D01*
X181310130Y-117947031D01*
X181780971Y-118417873D01*
X181802278Y-118449762D01*
X181786216Y-118465824D01*
X181901234Y-118580842D01*
X181659258Y-118650059D01*
X181613680Y-118777863D01*
X181560742Y-118650059D01*
X181318764Y-118580841D01*
X180519605Y-119380000D01*
X180533748Y-119394143D01*
X180354143Y-119573748D01*
X180340000Y-119559605D01*
X180325858Y-119573748D01*
X180146253Y-119394143D01*
X180160395Y-119380000D01*
X179361236Y-118580841D01*
X179119258Y-118650059D01*
X179073680Y-118777863D01*
X179020742Y-118650059D01*
X178778764Y-118580841D01*
X177979605Y-119380000D01*
X177993748Y-119394143D01*
X177814143Y-119573748D01*
X177800000Y-119559605D01*
X177785858Y-119573748D01*
X177606253Y-119394143D01*
X177620395Y-119380000D01*
X177606253Y-119365858D01*
X177785858Y-119186253D01*
X177800000Y-119200395D01*
X178599159Y-118401236D01*
X178529941Y-118159258D01*
X178385069Y-118107594D01*
X178590204Y-118022624D01*
X178982624Y-117630204D01*
X179070000Y-117419260D01*
X179157376Y-117630204D01*
G36*
X183073748Y-119365858D02*
X183059605Y-119380000D01*
X183073748Y-119394143D01*
X182894143Y-119573748D01*
X182880000Y-119559605D01*
X182865858Y-119573748D01*
X182686253Y-119394143D01*
X182700395Y-119380000D01*
X182686253Y-119365858D01*
X182865858Y-119186253D01*
X182880000Y-119200395D01*
X182894143Y-119186253D01*
X183073748Y-119365858D01*
X183073748Y-119365858D01*
G37*
X183073748Y-119365858D02*
X183059605Y-119380000D01*
X183073748Y-119394143D01*
X182894143Y-119573748D01*
X182880000Y-119559605D01*
X182865858Y-119573748D01*
X182686253Y-119394143D01*
X182700395Y-119380000D01*
X182686253Y-119365858D01*
X182865858Y-119186253D01*
X182880000Y-119200395D01*
X182894143Y-119186253D01*
X183073748Y-119365858D01*
G36*
X185547000Y-98933000D02*
X185567000Y-98933000D01*
X185567000Y-99187000D01*
X185547000Y-99187000D01*
X185547000Y-100380155D01*
X185776890Y-100501476D01*
X186024700Y-100398836D01*
X186024700Y-100969698D01*
X179855528Y-107138871D01*
X179792072Y-107181271D01*
X179749672Y-107244727D01*
X179749671Y-107244728D01*
X179624097Y-107432663D01*
X179565112Y-107729200D01*
X179580001Y-107804052D01*
X179580000Y-115644865D01*
X179549796Y-115657376D01*
X179157376Y-116049796D01*
X179070000Y-116260740D01*
X178982624Y-116049796D01*
X178590204Y-115657376D01*
X178560000Y-115644865D01*
X178560000Y-107163701D01*
X184729173Y-100994529D01*
X184792629Y-100952129D01*
X184960604Y-100700737D01*
X185004700Y-100479052D01*
X185004700Y-100479048D01*
X185005024Y-100477418D01*
X185063110Y-100501476D01*
X185293000Y-100380155D01*
X185293000Y-99187000D01*
X185273000Y-99187000D01*
X185273000Y-98933000D01*
X185293000Y-98933000D01*
X185293000Y-98913000D01*
X185547000Y-98913000D01*
X185547000Y-98933000D01*
X185547000Y-98933000D01*
G37*
X185547000Y-98933000D02*
X185567000Y-98933000D01*
X185567000Y-99187000D01*
X185547000Y-99187000D01*
X185547000Y-100380155D01*
X185776890Y-100501476D01*
X186024700Y-100398836D01*
X186024700Y-100969698D01*
X179855528Y-107138871D01*
X179792072Y-107181271D01*
X179749672Y-107244727D01*
X179749671Y-107244728D01*
X179624097Y-107432663D01*
X179565112Y-107729200D01*
X179580001Y-107804052D01*
X179580000Y-115644865D01*
X179549796Y-115657376D01*
X179157376Y-116049796D01*
X179070000Y-116260740D01*
X178982624Y-116049796D01*
X178590204Y-115657376D01*
X178560000Y-115644865D01*
X178560000Y-107163701D01*
X184729173Y-100994529D01*
X184792629Y-100952129D01*
X184960604Y-100700737D01*
X185004700Y-100479052D01*
X185004700Y-100479048D01*
X185005024Y-100477418D01*
X185063110Y-100501476D01*
X185293000Y-100380155D01*
X185293000Y-99187000D01*
X185273000Y-99187000D01*
X185273000Y-98933000D01*
X185293000Y-98933000D01*
X185293000Y-98913000D01*
X185547000Y-98913000D01*
X185547000Y-98933000D01*
G36*
X210947000Y-98933000D02*
X210967000Y-98933000D01*
X210967000Y-99187000D01*
X210947000Y-99187000D01*
X210947000Y-100380155D01*
X211176890Y-100501476D01*
X211409400Y-100405173D01*
X211409401Y-103929598D01*
X211365560Y-104150000D01*
X211365560Y-105060138D01*
X211110440Y-105315259D01*
X211110440Y-104150000D01*
X211042126Y-103806565D01*
X210847586Y-103515414D01*
X210556435Y-103320874D01*
X210213000Y-103252560D01*
X209288000Y-103252560D01*
X208944565Y-103320874D01*
X208653414Y-103515414D01*
X208458874Y-103806565D01*
X208390560Y-104150000D01*
X208390560Y-105400000D01*
X208458874Y-105743435D01*
X208653414Y-106034586D01*
X208790501Y-106126184D01*
X208790500Y-108391737D01*
X208744565Y-108400874D01*
X208453414Y-108595414D01*
X208258874Y-108886565D01*
X208190560Y-109230000D01*
X208190560Y-110480000D01*
X208258874Y-110823435D01*
X208453414Y-111114586D01*
X208500600Y-111146115D01*
X208500600Y-111207910D01*
X208467945Y-111240565D01*
X208325600Y-111584217D01*
X208325600Y-111956183D01*
X208467945Y-112299835D01*
X208730965Y-112562855D01*
X208880432Y-112624766D01*
X206047688Y-115457511D01*
X206017483Y-115445000D01*
X205462517Y-115445000D01*
X204949796Y-115657376D01*
X204557376Y-116049796D01*
X204470000Y-116260740D01*
X204382624Y-116049796D01*
X203990204Y-115657376D01*
X203960000Y-115644865D01*
X203960000Y-112219194D01*
X204001135Y-112202155D01*
X204264155Y-111939135D01*
X204406500Y-111595483D01*
X204406500Y-111223517D01*
X204264155Y-110879865D01*
X204231500Y-110847210D01*
X204231500Y-105908701D01*
X209925145Y-100215057D01*
X210053076Y-100331645D01*
X210463110Y-100501476D01*
X210693000Y-100380155D01*
X210693000Y-99187000D01*
X210673000Y-99187000D01*
X210673000Y-98933000D01*
X210693000Y-98933000D01*
X210693000Y-98913000D01*
X210947000Y-98913000D01*
X210947000Y-98933000D01*
X210947000Y-98933000D01*
G37*
X210947000Y-98933000D02*
X210967000Y-98933000D01*
X210967000Y-99187000D01*
X210947000Y-99187000D01*
X210947000Y-100380155D01*
X211176890Y-100501476D01*
X211409400Y-100405173D01*
X211409401Y-103929598D01*
X211365560Y-104150000D01*
X211365560Y-105060138D01*
X211110440Y-105315259D01*
X211110440Y-104150000D01*
X211042126Y-103806565D01*
X210847586Y-103515414D01*
X210556435Y-103320874D01*
X210213000Y-103252560D01*
X209288000Y-103252560D01*
X208944565Y-103320874D01*
X208653414Y-103515414D01*
X208458874Y-103806565D01*
X208390560Y-104150000D01*
X208390560Y-105400000D01*
X208458874Y-105743435D01*
X208653414Y-106034586D01*
X208790501Y-106126184D01*
X208790500Y-108391737D01*
X208744565Y-108400874D01*
X208453414Y-108595414D01*
X208258874Y-108886565D01*
X208190560Y-109230000D01*
X208190560Y-110480000D01*
X208258874Y-110823435D01*
X208453414Y-111114586D01*
X208500600Y-111146115D01*
X208500600Y-111207910D01*
X208467945Y-111240565D01*
X208325600Y-111584217D01*
X208325600Y-111956183D01*
X208467945Y-112299835D01*
X208730965Y-112562855D01*
X208880432Y-112624766D01*
X206047688Y-115457511D01*
X206017483Y-115445000D01*
X205462517Y-115445000D01*
X204949796Y-115657376D01*
X204557376Y-116049796D01*
X204470000Y-116260740D01*
X204382624Y-116049796D01*
X203990204Y-115657376D01*
X203960000Y-115644865D01*
X203960000Y-112219194D01*
X204001135Y-112202155D01*
X204264155Y-111939135D01*
X204406500Y-111595483D01*
X204406500Y-111223517D01*
X204264155Y-110879865D01*
X204231500Y-110847210D01*
X204231500Y-105908701D01*
X209925145Y-100215057D01*
X210053076Y-100331645D01*
X210463110Y-100501476D01*
X210693000Y-100380155D01*
X210693000Y-99187000D01*
X210673000Y-99187000D01*
X210673000Y-98933000D01*
X210693000Y-98933000D01*
X210693000Y-98913000D01*
X210947000Y-98913000D01*
X210947000Y-98933000D01*
G36*
X216027000Y-98933000D02*
X216047000Y-98933000D01*
X216047000Y-99187000D01*
X216027000Y-99187000D01*
X216027000Y-100380155D01*
X216256890Y-100501476D01*
X216504700Y-100398836D01*
X216504701Y-110080497D01*
X211127688Y-115457511D01*
X211097483Y-115445000D01*
X210749801Y-115445000D01*
X213009973Y-113184829D01*
X213073429Y-113142429D01*
X213234184Y-112901843D01*
X213241404Y-112891038D01*
X213256529Y-112815000D01*
X213285500Y-112669352D01*
X213285500Y-112669348D01*
X213300388Y-112594500D01*
X213285500Y-112519652D01*
X213285500Y-111318263D01*
X213331435Y-111309126D01*
X213622586Y-111114586D01*
X213817126Y-110823435D01*
X213885440Y-110480000D01*
X213885440Y-109569862D01*
X215209176Y-108246127D01*
X215272629Y-108203729D01*
X215315027Y-108140276D01*
X215315029Y-108140274D01*
X215440603Y-107952338D01*
X215440604Y-107952337D01*
X215484700Y-107730652D01*
X215484700Y-107730648D01*
X215499588Y-107655801D01*
X215484700Y-107580954D01*
X215484700Y-100477283D01*
X215543110Y-100501476D01*
X215773000Y-100380155D01*
X215773000Y-99187000D01*
X215753000Y-99187000D01*
X215753000Y-98933000D01*
X215773000Y-98933000D01*
X215773000Y-98913000D01*
X216027000Y-98913000D01*
X216027000Y-98933000D01*
X216027000Y-98933000D01*
G37*
X216027000Y-98933000D02*
X216047000Y-98933000D01*
X216047000Y-99187000D01*
X216027000Y-99187000D01*
X216027000Y-100380155D01*
X216256890Y-100501476D01*
X216504700Y-100398836D01*
X216504701Y-110080497D01*
X211127688Y-115457511D01*
X211097483Y-115445000D01*
X210749801Y-115445000D01*
X213009973Y-113184829D01*
X213073429Y-113142429D01*
X213234184Y-112901843D01*
X213241404Y-112891038D01*
X213256529Y-112815000D01*
X213285500Y-112669352D01*
X213285500Y-112669348D01*
X213300388Y-112594500D01*
X213285500Y-112519652D01*
X213285500Y-111318263D01*
X213331435Y-111309126D01*
X213622586Y-111114586D01*
X213817126Y-110823435D01*
X213885440Y-110480000D01*
X213885440Y-109569862D01*
X215209176Y-108246127D01*
X215272629Y-108203729D01*
X215315027Y-108140276D01*
X215315029Y-108140274D01*
X215440603Y-107952338D01*
X215440604Y-107952337D01*
X215484700Y-107730652D01*
X215484700Y-107730648D01*
X215499588Y-107655801D01*
X215484700Y-107580954D01*
X215484700Y-100477283D01*
X215543110Y-100501476D01*
X215773000Y-100380155D01*
X215773000Y-99187000D01*
X215753000Y-99187000D01*
X215753000Y-98933000D01*
X215773000Y-98933000D01*
X215773000Y-98913000D01*
X216027000Y-98913000D01*
X216027000Y-98933000D01*
G36*
X188087000Y-98933000D02*
X188107000Y-98933000D01*
X188107000Y-99187000D01*
X188087000Y-99187000D01*
X188087000Y-100380155D01*
X188316890Y-100501476D01*
X188564701Y-100398836D01*
X188564700Y-102337698D01*
X181310128Y-109592271D01*
X181246672Y-109634671D01*
X181204272Y-109698127D01*
X181204271Y-109698128D01*
X181100000Y-109854181D01*
X181100000Y-108044001D01*
X187269173Y-101874829D01*
X187332629Y-101832429D01*
X187500604Y-101581037D01*
X187544700Y-101359352D01*
X187544700Y-101359348D01*
X187559588Y-101284501D01*
X187544700Y-101209654D01*
X187544700Y-100477283D01*
X187603110Y-100501476D01*
X187833000Y-100380155D01*
X187833000Y-99187000D01*
X187813000Y-99187000D01*
X187813000Y-98933000D01*
X187833000Y-98933000D01*
X187833000Y-98913000D01*
X188087000Y-98913000D01*
X188087000Y-98933000D01*
X188087000Y-98933000D01*
G37*
X188087000Y-98933000D02*
X188107000Y-98933000D01*
X188107000Y-99187000D01*
X188087000Y-99187000D01*
X188087000Y-100380155D01*
X188316890Y-100501476D01*
X188564701Y-100398836D01*
X188564700Y-102337698D01*
X181310128Y-109592271D01*
X181246672Y-109634671D01*
X181204272Y-109698127D01*
X181204271Y-109698128D01*
X181100000Y-109854181D01*
X181100000Y-108044001D01*
X187269173Y-101874829D01*
X187332629Y-101832429D01*
X187500604Y-101581037D01*
X187544700Y-101359352D01*
X187544700Y-101359348D01*
X187559588Y-101284501D01*
X187544700Y-101209654D01*
X187544700Y-100477283D01*
X187603110Y-100501476D01*
X187833000Y-100380155D01*
X187833000Y-99187000D01*
X187813000Y-99187000D01*
X187813000Y-98933000D01*
X187833000Y-98933000D01*
X187833000Y-98913000D01*
X188087000Y-98913000D01*
X188087000Y-98933000D01*
G36*
X218567000Y-98933000D02*
X218587000Y-98933000D01*
X218587000Y-99187000D01*
X218567000Y-99187000D01*
X218567000Y-100380155D01*
X218796890Y-100501476D01*
X219044701Y-100398836D01*
X219044700Y-108545598D01*
X218024700Y-109565598D01*
X218024700Y-100477283D01*
X218083110Y-100501476D01*
X218313000Y-100380155D01*
X218313000Y-99187000D01*
X218293000Y-99187000D01*
X218293000Y-98933000D01*
X218313000Y-98933000D01*
X218313000Y-98913000D01*
X218567000Y-98913000D01*
X218567000Y-98933000D01*
X218567000Y-98933000D01*
G37*
X218567000Y-98933000D02*
X218587000Y-98933000D01*
X218587000Y-99187000D01*
X218567000Y-99187000D01*
X218567000Y-100380155D01*
X218796890Y-100501476D01*
X219044701Y-100398836D01*
X219044700Y-108545598D01*
X218024700Y-109565598D01*
X218024700Y-100477283D01*
X218083110Y-100501476D01*
X218313000Y-100380155D01*
X218313000Y-99187000D01*
X218293000Y-99187000D01*
X218293000Y-98933000D01*
X218313000Y-98933000D01*
X218313000Y-98913000D01*
X218567000Y-98913000D01*
X218567000Y-98933000D01*
G36*
X213487000Y-98933000D02*
X213507000Y-98933000D01*
X213507000Y-99187000D01*
X213487000Y-99187000D01*
X213487000Y-100380155D01*
X213716890Y-100501476D01*
X213964700Y-100398836D01*
X213964701Y-103728104D01*
X213822586Y-103515414D01*
X213531435Y-103320874D01*
X213188000Y-103252560D01*
X212929400Y-103252560D01*
X212929400Y-100470946D01*
X213003110Y-100501476D01*
X213233000Y-100380155D01*
X213233000Y-99187000D01*
X213213000Y-99187000D01*
X213213000Y-98933000D01*
X213233000Y-98933000D01*
X213233000Y-98913000D01*
X213487000Y-98913000D01*
X213487000Y-98933000D01*
X213487000Y-98933000D01*
G37*
X213487000Y-98933000D02*
X213507000Y-98933000D01*
X213507000Y-99187000D01*
X213487000Y-99187000D01*
X213487000Y-100380155D01*
X213716890Y-100501476D01*
X213964700Y-100398836D01*
X213964701Y-103728104D01*
X213822586Y-103515414D01*
X213531435Y-103320874D01*
X213188000Y-103252560D01*
X212929400Y-103252560D01*
X212929400Y-100470946D01*
X213003110Y-100501476D01*
X213233000Y-100380155D01*
X213233000Y-99187000D01*
X213213000Y-99187000D01*
X213213000Y-98933000D01*
X213233000Y-98933000D01*
X213233000Y-98913000D01*
X213487000Y-98913000D01*
X213487000Y-98933000D01*
G36*
X190627000Y-98933000D02*
X190647000Y-98933000D01*
X190647000Y-99187000D01*
X190627000Y-99187000D01*
X190627000Y-100380155D01*
X190856890Y-100501476D01*
X191104700Y-100398836D01*
X191104700Y-100434598D01*
X190084700Y-101454598D01*
X190084700Y-100477283D01*
X190143110Y-100501476D01*
X190373000Y-100380155D01*
X190373000Y-99187000D01*
X190353000Y-99187000D01*
X190353000Y-98933000D01*
X190373000Y-98933000D01*
X190373000Y-98913000D01*
X190627000Y-98913000D01*
X190627000Y-98933000D01*
X190627000Y-98933000D01*
G37*
X190627000Y-98933000D02*
X190647000Y-98933000D01*
X190647000Y-99187000D01*
X190627000Y-99187000D01*
X190627000Y-100380155D01*
X190856890Y-100501476D01*
X191104700Y-100398836D01*
X191104700Y-100434598D01*
X190084700Y-101454598D01*
X190084700Y-100477283D01*
X190143110Y-100501476D01*
X190373000Y-100380155D01*
X190373000Y-99187000D01*
X190353000Y-99187000D01*
X190353000Y-98933000D01*
X190373000Y-98933000D01*
X190373000Y-98913000D01*
X190627000Y-98913000D01*
X190627000Y-98933000D01*
G36*
X183007000Y-98933000D02*
X183027000Y-98933000D01*
X183027000Y-99187000D01*
X183007000Y-99187000D01*
X183007000Y-100380155D01*
X183129366Y-100444732D01*
X182464700Y-101109398D01*
X182464700Y-100477283D01*
X182523110Y-100501476D01*
X182753000Y-100380155D01*
X182753000Y-99187000D01*
X182733000Y-99187000D01*
X182733000Y-98933000D01*
X182753000Y-98933000D01*
X182753000Y-98913000D01*
X183007000Y-98913000D01*
X183007000Y-98933000D01*
X183007000Y-98933000D01*
G37*
X183007000Y-98933000D02*
X183027000Y-98933000D01*
X183027000Y-99187000D01*
X183007000Y-99187000D01*
X183007000Y-100380155D01*
X183129366Y-100444732D01*
X182464700Y-101109398D01*
X182464700Y-100477283D01*
X182523110Y-100501476D01*
X182753000Y-100380155D01*
X182753000Y-99187000D01*
X182733000Y-99187000D01*
X182733000Y-98933000D01*
X182753000Y-98933000D01*
X182753000Y-98913000D01*
X183007000Y-98913000D01*
X183007000Y-98933000D01*
G36*
X208407000Y-98933000D02*
X208427000Y-98933000D01*
X208427000Y-99187000D01*
X208407000Y-99187000D01*
X208407000Y-99207000D01*
X208153000Y-99207000D01*
X208153000Y-99187000D01*
X208133000Y-99187000D01*
X208133000Y-98933000D01*
X208153000Y-98933000D01*
X208153000Y-98913000D01*
X208407000Y-98913000D01*
X208407000Y-98933000D01*
X208407000Y-98933000D01*
G37*
X208407000Y-98933000D02*
X208427000Y-98933000D01*
X208427000Y-99187000D01*
X208407000Y-99187000D01*
X208407000Y-99207000D01*
X208153000Y-99207000D01*
X208153000Y-99187000D01*
X208133000Y-99187000D01*
X208133000Y-98933000D01*
X208153000Y-98933000D01*
X208153000Y-98913000D01*
X208407000Y-98913000D01*
X208407000Y-98933000D01*
G36*
X205867000Y-98933000D02*
X205887000Y-98933000D01*
X205887000Y-99187000D01*
X205867000Y-99187000D01*
X205867000Y-99207000D01*
X205613000Y-99207000D01*
X205613000Y-99187000D01*
X205593000Y-99187000D01*
X205593000Y-98933000D01*
X205613000Y-98933000D01*
X205613000Y-98913000D01*
X205867000Y-98913000D01*
X205867000Y-98933000D01*
X205867000Y-98933000D01*
G37*
X205867000Y-98933000D02*
X205887000Y-98933000D01*
X205887000Y-99187000D01*
X205867000Y-99187000D01*
X205867000Y-99207000D01*
X205613000Y-99207000D01*
X205613000Y-99187000D01*
X205593000Y-99187000D01*
X205593000Y-98933000D01*
X205613000Y-98933000D01*
X205613000Y-98913000D01*
X205867000Y-98913000D01*
X205867000Y-98933000D01*
G36*
X200787000Y-98933000D02*
X200807000Y-98933000D01*
X200807000Y-99187000D01*
X200787000Y-99187000D01*
X200787000Y-99207000D01*
X200533000Y-99207000D01*
X200533000Y-99187000D01*
X200513000Y-99187000D01*
X200513000Y-98933000D01*
X200533000Y-98933000D01*
X200533000Y-98913000D01*
X200787000Y-98913000D01*
X200787000Y-98933000D01*
X200787000Y-98933000D01*
G37*
X200787000Y-98933000D02*
X200807000Y-98933000D01*
X200807000Y-99187000D01*
X200787000Y-99187000D01*
X200787000Y-99207000D01*
X200533000Y-99207000D01*
X200533000Y-99187000D01*
X200513000Y-99187000D01*
X200513000Y-98933000D01*
X200533000Y-98933000D01*
X200533000Y-98913000D01*
X200787000Y-98913000D01*
X200787000Y-98933000D01*
G36*
X198247000Y-98933000D02*
X198267000Y-98933000D01*
X198267000Y-99187000D01*
X198247000Y-99187000D01*
X198247000Y-99207000D01*
X197993000Y-99207000D01*
X197993000Y-99187000D01*
X197973000Y-99187000D01*
X197973000Y-98933000D01*
X197993000Y-98933000D01*
X197993000Y-98913000D01*
X198247000Y-98913000D01*
X198247000Y-98933000D01*
X198247000Y-98933000D01*
G37*
X198247000Y-98933000D02*
X198267000Y-98933000D01*
X198267000Y-99187000D01*
X198247000Y-99187000D01*
X198247000Y-99207000D01*
X197993000Y-99207000D01*
X197993000Y-99187000D01*
X197973000Y-99187000D01*
X197973000Y-98933000D01*
X197993000Y-98933000D01*
X197993000Y-98913000D01*
X198247000Y-98913000D01*
X198247000Y-98933000D01*
G36*
X195707000Y-98933000D02*
X195727000Y-98933000D01*
X195727000Y-99187000D01*
X195707000Y-99187000D01*
X195707000Y-99207000D01*
X195453000Y-99207000D01*
X195453000Y-99187000D01*
X195433000Y-99187000D01*
X195433000Y-98933000D01*
X195453000Y-98933000D01*
X195453000Y-98913000D01*
X195707000Y-98913000D01*
X195707000Y-98933000D01*
X195707000Y-98933000D01*
G37*
X195707000Y-98933000D02*
X195727000Y-98933000D01*
X195727000Y-99187000D01*
X195707000Y-99187000D01*
X195707000Y-99207000D01*
X195453000Y-99207000D01*
X195453000Y-99187000D01*
X195433000Y-99187000D01*
X195433000Y-98933000D01*
X195453000Y-98933000D01*
X195453000Y-98913000D01*
X195707000Y-98913000D01*
X195707000Y-98933000D01*
G36*
X193167000Y-98933000D02*
X193187000Y-98933000D01*
X193187000Y-99187000D01*
X193167000Y-99187000D01*
X193167000Y-99207000D01*
X192913000Y-99207000D01*
X192913000Y-99187000D01*
X192893000Y-99187000D01*
X192893000Y-98933000D01*
X192913000Y-98933000D01*
X192913000Y-98913000D01*
X193167000Y-98913000D01*
X193167000Y-98933000D01*
X193167000Y-98933000D01*
G37*
X193167000Y-98933000D02*
X193187000Y-98933000D01*
X193187000Y-99187000D01*
X193167000Y-99187000D01*
X193167000Y-99207000D01*
X192913000Y-99207000D01*
X192913000Y-99187000D01*
X192893000Y-99187000D01*
X192893000Y-98933000D01*
X192913000Y-98933000D01*
X192913000Y-98913000D01*
X193167000Y-98913000D01*
X193167000Y-98933000D01*
G36*
X203327000Y-98933000D02*
X203347000Y-98933000D01*
X203347000Y-99187000D01*
X203327000Y-99187000D01*
X203327000Y-99207000D01*
X203073000Y-99207000D01*
X203073000Y-99187000D01*
X203053000Y-99187000D01*
X203053000Y-98933000D01*
X203073000Y-98933000D01*
X203073000Y-98913000D01*
X203327000Y-98913000D01*
X203327000Y-98933000D01*
X203327000Y-98933000D01*
G37*
X203327000Y-98933000D02*
X203347000Y-98933000D01*
X203347000Y-99187000D01*
X203327000Y-99187000D01*
X203327000Y-99207000D01*
X203073000Y-99207000D01*
X203073000Y-99187000D01*
X203053000Y-99187000D01*
X203053000Y-98933000D01*
X203073000Y-98933000D01*
X203073000Y-98913000D01*
X203327000Y-98913000D01*
X203327000Y-98933000D01*
M02*
