%TF.GenerationSoftware,KiCad,Pcbnew,5.1.9+dfsg1-1*%
%TF.CreationDate,2022-04-01T11:17:58+02:00*%
%TF.ProjectId,AmigaPCDriveAdapter,416d6967-6150-4434-9472-697665416461,2.0*%
%TF.SameCoordinates,Original*%
%TF.FileFunction,Soldermask,Bot*%
%TF.FilePolarity,Negative*%
%FSLAX46Y46*%
G04 Gerber Fmt 4.6, Leading zero omitted, Abs format (unit mm)*
G04 Created by KiCad (PCBNEW 5.1.9+dfsg1-1) date 2022-04-01 11:17:58*
%MOMM*%
%LPD*%
G01*
G04 APERTURE LIST*
%ADD10O,1.600000X1.600000*%
%ADD11R,1.600000X1.600000*%
%ADD12O,1.700000X1.700000*%
%ADD13R,1.700000X1.700000*%
%ADD14C,1.520000*%
%ADD15R,1.520000X1.520000*%
%ADD16C,0.600000*%
G04 APERTURE END LIST*
G36*
G01*
X119732000Y-108485000D02*
X119732000Y-109735000D01*
G75*
G02*
X119482000Y-109985000I-250000J0D01*
G01*
X118682000Y-109985000D01*
G75*
G02*
X118432000Y-109735000I0J250000D01*
G01*
X118432000Y-108485000D01*
G75*
G02*
X118682000Y-108235000I250000J0D01*
G01*
X119482000Y-108235000D01*
G75*
G02*
X119732000Y-108485000I0J-250000D01*
G01*
G37*
G36*
G01*
X122832000Y-108485000D02*
X122832000Y-109735000D01*
G75*
G02*
X122582000Y-109985000I-250000J0D01*
G01*
X121782000Y-109985000D01*
G75*
G02*
X121532000Y-109735000I0J250000D01*
G01*
X121532000Y-108485000D01*
G75*
G02*
X121782000Y-108235000I250000J0D01*
G01*
X122582000Y-108235000D01*
G75*
G02*
X122832000Y-108485000I0J-250000D01*
G01*
G37*
G36*
G01*
X131692000Y-109735000D02*
X131692000Y-108485000D01*
G75*
G02*
X131942000Y-108235000I250000J0D01*
G01*
X132742000Y-108235000D01*
G75*
G02*
X132992000Y-108485000I0J-250000D01*
G01*
X132992000Y-109735000D01*
G75*
G02*
X132742000Y-109985000I-250000J0D01*
G01*
X131942000Y-109985000D01*
G75*
G02*
X131692000Y-109735000I0J250000D01*
G01*
G37*
G36*
G01*
X128592000Y-109735000D02*
X128592000Y-108485000D01*
G75*
G02*
X128842000Y-108235000I250000J0D01*
G01*
X129642000Y-108235000D01*
G75*
G02*
X129892000Y-108485000I0J-250000D01*
G01*
X129892000Y-109735000D01*
G75*
G02*
X129642000Y-109985000I-250000J0D01*
G01*
X128842000Y-109985000D01*
G75*
G02*
X128592000Y-109735000I0J250000D01*
G01*
G37*
G36*
G01*
X186938000Y-101480000D02*
X186938000Y-100230000D01*
G75*
G02*
X187188000Y-99980000I250000J0D01*
G01*
X187988000Y-99980000D01*
G75*
G02*
X188238000Y-100230000I0J-250000D01*
G01*
X188238000Y-101480000D01*
G75*
G02*
X187988000Y-101730000I-250000J0D01*
G01*
X187188000Y-101730000D01*
G75*
G02*
X186938000Y-101480000I0J250000D01*
G01*
G37*
G36*
G01*
X183838000Y-101480000D02*
X183838000Y-100230000D01*
G75*
G02*
X184088000Y-99980000I250000J0D01*
G01*
X184888000Y-99980000D01*
G75*
G02*
X185138000Y-100230000I0J-250000D01*
G01*
X185138000Y-101480000D01*
G75*
G02*
X184888000Y-101730000I-250000J0D01*
G01*
X184088000Y-101730000D01*
G75*
G02*
X183838000Y-101480000I0J250000D01*
G01*
G37*
G36*
G01*
X187138000Y-96400000D02*
X187138000Y-95150000D01*
G75*
G02*
X187388000Y-94900000I250000J0D01*
G01*
X188188000Y-94900000D01*
G75*
G02*
X188438000Y-95150000I0J-250000D01*
G01*
X188438000Y-96400000D01*
G75*
G02*
X188188000Y-96650000I-250000J0D01*
G01*
X187388000Y-96650000D01*
G75*
G02*
X187138000Y-96400000I0J250000D01*
G01*
G37*
G36*
G01*
X184038000Y-96400000D02*
X184038000Y-95150000D01*
G75*
G02*
X184288000Y-94900000I250000J0D01*
G01*
X185088000Y-94900000D01*
G75*
G02*
X185338000Y-95150000I0J-250000D01*
G01*
X185338000Y-96400000D01*
G75*
G02*
X185088000Y-96650000I-250000J0D01*
G01*
X184288000Y-96650000D01*
G75*
G02*
X184038000Y-96400000I0J250000D01*
G01*
G37*
G36*
G01*
X138348000Y-103379999D02*
X138348000Y-104680001D01*
G75*
G02*
X138098001Y-104930000I-249999J0D01*
G01*
X137272999Y-104930000D01*
G75*
G02*
X137023000Y-104680001I0J249999D01*
G01*
X137023000Y-103379999D01*
G75*
G02*
X137272999Y-103130000I249999J0D01*
G01*
X138098001Y-103130000D01*
G75*
G02*
X138348000Y-103379999I0J-249999D01*
G01*
G37*
G36*
G01*
X141473000Y-103379999D02*
X141473000Y-104680001D01*
G75*
G02*
X141223001Y-104930000I-249999J0D01*
G01*
X140397999Y-104930000D01*
G75*
G02*
X140148000Y-104680001I0J249999D01*
G01*
X140148000Y-103379999D01*
G75*
G02*
X140397999Y-103130000I249999J0D01*
G01*
X141223001Y-103130000D01*
G75*
G02*
X141473000Y-103379999I0J-249999D01*
G01*
G37*
D10*
X132480000Y-112920000D03*
X117240000Y-105300000D03*
X129940000Y-112920000D03*
X119780000Y-105300000D03*
X127400000Y-112920000D03*
X122320000Y-105300000D03*
X124860000Y-112920000D03*
X124860000Y-105300000D03*
X122320000Y-112920000D03*
X127400000Y-105300000D03*
X119780000Y-112920000D03*
X129940000Y-105300000D03*
X117240000Y-112920000D03*
D11*
X132480000Y-105300000D03*
D12*
X135020000Y-100220000D03*
X137560000Y-100220000D03*
X140100000Y-100220000D03*
D13*
X142640000Y-100220000D03*
D12*
X112160000Y-105300000D03*
X112160000Y-107840000D03*
X112160000Y-110380000D03*
D13*
X112160000Y-112920000D03*
D14*
X188360000Y-107840000D03*
X188360000Y-110380000D03*
X185820000Y-107840000D03*
X185820000Y-110380000D03*
X183280000Y-107840000D03*
X183280000Y-110380000D03*
X180740000Y-107840000D03*
X180740000Y-110380000D03*
X178200000Y-107840000D03*
X178200000Y-110380000D03*
X175660000Y-107840000D03*
X175660000Y-110380000D03*
X173120000Y-107840000D03*
X173120000Y-110380000D03*
X170580000Y-107840000D03*
X170580000Y-110380000D03*
X168040000Y-107840000D03*
X168040000Y-110380000D03*
X165500000Y-107840000D03*
X165500000Y-110380000D03*
X162960000Y-107840000D03*
X162960000Y-110380000D03*
X160420000Y-107840000D03*
X160420000Y-110380000D03*
X157880000Y-107840000D03*
X157880000Y-110380000D03*
X155340000Y-107840000D03*
X155340000Y-110380000D03*
X152800000Y-107840000D03*
X152800000Y-110380000D03*
X150260000Y-107840000D03*
X150260000Y-110380000D03*
X147720000Y-107840000D03*
D15*
X147720000Y-110380000D03*
D12*
X195980000Y-87520000D03*
X195980000Y-90060000D03*
X193440000Y-87520000D03*
X193440000Y-90060000D03*
X190900000Y-87520000D03*
X190900000Y-90060000D03*
X188360000Y-87520000D03*
X188360000Y-90060000D03*
X185820000Y-87520000D03*
X185820000Y-90060000D03*
X183280000Y-87520000D03*
X183280000Y-90060000D03*
X180740000Y-87520000D03*
X180740000Y-90060000D03*
X178200000Y-87520000D03*
X178200000Y-90060000D03*
X175660000Y-87520000D03*
X175660000Y-90060000D03*
X173120000Y-87520000D03*
X173120000Y-90060000D03*
X170580000Y-87520000D03*
X170580000Y-90060000D03*
X168040000Y-87520000D03*
X168040000Y-90060000D03*
X165500000Y-87520000D03*
X165500000Y-90060000D03*
X162960000Y-87520000D03*
X162960000Y-90060000D03*
X160420000Y-87520000D03*
X160420000Y-90060000D03*
X157880000Y-87520000D03*
X157880000Y-90060000D03*
X155340000Y-87520000D03*
D13*
X155340000Y-90060000D03*
D16*
X178471500Y-102409500D03*
X184260600Y-102770200D03*
M02*
