M48
;DRILL file {KiCad 4.0.2+dfsg1-stable} date lun 17 giu 2019 11:45:15 CEST
;FORMAT={-:-/ absolute / inch / decimal}
FMAT,2
INCH,TZ
T1C0.016
T2C0.031
T3C0.036
T4C0.040
%
G90
G05
M72
T1
X7.0215Y-3.8813
X7.1034Y-4.394
X7.3365Y-4.0807
X7.5688Y-4.4082
X7.5989Y-4.1105
X8.2531Y-4.3
X8.3468Y-4.2389
X8.3655Y-4.3937
X8.4096Y-4.1756
T2
X6.Y-4.5
X6.Y-4.8
X6.1Y-4.5
X6.1Y-4.8
X6.2Y-4.5
X6.2Y-4.8
X6.3Y-4.5
X6.3Y-4.8
X6.4Y-4.5
X6.4Y-4.8
X6.5Y-4.5
X6.5Y-4.8
X6.6Y-4.5
X6.6Y-4.8
T3
X7.Y-4.6
X7.Y-4.7
X7.1Y-4.6
X7.1Y-4.7
X7.2Y-4.6
X7.2Y-4.7
X7.3Y-4.6
X7.3Y-4.7
X7.4Y-4.6
X7.4Y-4.7
X7.5Y-4.6
X7.5Y-4.7
X7.6Y-4.6
X7.6Y-4.7
X7.7Y-4.6
X7.7Y-4.7
X7.8Y-4.6
X7.8Y-4.7
X7.9Y-4.6
X7.9Y-4.7
X8.Y-4.6
X8.Y-4.7
X8.1Y-4.6
X8.1Y-4.7
X8.2Y-4.6
X8.2Y-4.7
X8.3Y-4.6
X8.3Y-4.7
X8.4Y-4.6
X8.4Y-4.7
X8.5Y-4.6
X8.5Y-4.7
X8.6Y-4.6
X8.6Y-4.7
T4
X5.4Y-4.5
X5.4Y-4.6
X5.4Y-4.7
X5.4Y-4.8
X6.3Y-4.3
X6.4Y-4.3
X6.5Y-4.3
X6.6Y-4.3
X7.1Y-3.9
X7.1Y-4.
X7.2Y-3.9
X7.2Y-4.
X7.3Y-3.9
X7.3Y-4.
X7.4Y-3.9
X7.4Y-4.
X7.5Y-3.9
X7.5Y-4.
X7.6Y-3.9
X7.6Y-4.
X7.7Y-3.9
X7.7Y-4.
X7.8Y-3.9
X7.8Y-4.
X7.9Y-3.9
X7.9Y-4.
X8.Y-3.9
X8.Y-4.
X8.1Y-3.9
X8.1Y-4.
X8.2Y-3.9
X8.2Y-4.
X8.3Y-3.9
X8.3Y-4.
X8.4Y-3.9
X8.4Y-4.
X8.5Y-3.9
X8.5Y-4.
X8.6Y-3.9
X8.6Y-4.
X8.7Y-3.9
X8.7Y-4.
T0
M30
