%TF.GenerationSoftware,KiCad,Pcbnew,5.1.9+dfsg1-1*%
%TF.CreationDate,2022-04-01T11:17:58+02:00*%
%TF.ProjectId,AmigaPCDriveAdapter,416d6967-6150-4434-9472-697665416461,2.0*%
%TF.SameCoordinates,Original*%
%TF.FileFunction,Legend,Bot*%
%TF.FilePolarity,Positive*%
%FSLAX46Y46*%
G04 Gerber Fmt 4.6, Leading zero omitted, Abs format (unit mm)*
G04 Created by KiCad (PCBNEW 5.1.9+dfsg1-1) date 2022-04-01 11:17:58*
%MOMM*%
%LPD*%
G01*
G04 APERTURE LIST*
%ADD10C,0.300000*%
%ADD11C,0.120000*%
%ADD12C,0.150000*%
G04 APERTURE END LIST*
D10*
X199833571Y-86220000D02*
X198833571Y-86220000D01*
X198333571Y-86220000D02*
X198405000Y-86148571D01*
X198476428Y-86220000D01*
X198405000Y-86291428D01*
X198333571Y-86220000D01*
X198476428Y-86220000D01*
X198833571Y-86934285D02*
X199833571Y-86934285D01*
X198976428Y-86934285D02*
X198905000Y-87005714D01*
X198833571Y-87148571D01*
X198833571Y-87362857D01*
X198905000Y-87505714D01*
X199047857Y-87577142D01*
X199833571Y-87577142D01*
X199833571Y-89434285D02*
X198833571Y-89434285D01*
X198976428Y-89434285D02*
X198905000Y-89505714D01*
X198833571Y-89648571D01*
X198833571Y-89862857D01*
X198905000Y-90005714D01*
X199047857Y-90077142D01*
X199833571Y-90077142D01*
X199047857Y-90077142D02*
X198905000Y-90148571D01*
X198833571Y-90291428D01*
X198833571Y-90505714D01*
X198905000Y-90648571D01*
X199047857Y-90720000D01*
X199833571Y-90720000D01*
X199762142Y-92005714D02*
X199833571Y-91862857D01*
X199833571Y-91577142D01*
X199762142Y-91434285D01*
X199619285Y-91362857D01*
X199047857Y-91362857D01*
X198905000Y-91434285D01*
X198833571Y-91577142D01*
X198833571Y-91862857D01*
X198905000Y-92005714D01*
X199047857Y-92077142D01*
X199190714Y-92077142D01*
X199333571Y-91362857D01*
X199833571Y-92720000D02*
X198833571Y-92720000D01*
X198976428Y-92720000D02*
X198905000Y-92791428D01*
X198833571Y-92934285D01*
X198833571Y-93148571D01*
X198905000Y-93291428D01*
X199047857Y-93362857D01*
X199833571Y-93362857D01*
X199047857Y-93362857D02*
X198905000Y-93434285D01*
X198833571Y-93577142D01*
X198833571Y-93791428D01*
X198905000Y-93934285D01*
X199047857Y-94005714D01*
X199833571Y-94005714D01*
X199833571Y-94934285D02*
X199762142Y-94791428D01*
X199690714Y-94720000D01*
X199547857Y-94648571D01*
X199119285Y-94648571D01*
X198976428Y-94720000D01*
X198905000Y-94791428D01*
X198833571Y-94934285D01*
X198833571Y-95148571D01*
X198905000Y-95291428D01*
X198976428Y-95362857D01*
X199119285Y-95434285D01*
X199547857Y-95434285D01*
X199690714Y-95362857D01*
X199762142Y-95291428D01*
X199833571Y-95148571D01*
X199833571Y-94934285D01*
X199833571Y-96077142D02*
X198833571Y-96077142D01*
X199119285Y-96077142D02*
X198976428Y-96148571D01*
X198905000Y-96220000D01*
X198833571Y-96362857D01*
X198833571Y-96505714D01*
X199833571Y-97005714D02*
X198833571Y-97005714D01*
X198333571Y-97005714D02*
X198405000Y-96934285D01*
X198476428Y-97005714D01*
X198405000Y-97077142D01*
X198333571Y-97005714D01*
X198476428Y-97005714D01*
X199833571Y-98362857D02*
X199047857Y-98362857D01*
X198905000Y-98291428D01*
X198833571Y-98148571D01*
X198833571Y-97862857D01*
X198905000Y-97720000D01*
X199762142Y-98362857D02*
X199833571Y-98220000D01*
X199833571Y-97862857D01*
X199762142Y-97720000D01*
X199619285Y-97648571D01*
X199476428Y-97648571D01*
X199333571Y-97720000D01*
X199262142Y-97862857D01*
X199262142Y-98220000D01*
X199190714Y-98362857D01*
X199833571Y-99077142D02*
X198833571Y-99077142D01*
X198976428Y-99077142D02*
X198905000Y-99148571D01*
X198833571Y-99291428D01*
X198833571Y-99505714D01*
X198905000Y-99648571D01*
X199047857Y-99720000D01*
X199833571Y-99720000D01*
X199047857Y-99720000D02*
X198905000Y-99791428D01*
X198833571Y-99934285D01*
X198833571Y-100148571D01*
X198905000Y-100291428D01*
X199047857Y-100362857D01*
X199833571Y-100362857D01*
X199405000Y-102148571D02*
X199405000Y-102862857D01*
X199833571Y-102005714D02*
X198333571Y-102505714D01*
X199833571Y-103005714D01*
X199690714Y-103505714D02*
X199762142Y-103577142D01*
X199833571Y-103505714D01*
X199762142Y-103434285D01*
X199690714Y-103505714D01*
X199833571Y-103505714D01*
X199762142Y-104148571D02*
X199833571Y-104362857D01*
X199833571Y-104720000D01*
X199762142Y-104862857D01*
X199690714Y-104934285D01*
X199547857Y-105005714D01*
X199405000Y-105005714D01*
X199262142Y-104934285D01*
X199190714Y-104862857D01*
X199119285Y-104720000D01*
X199047857Y-104434285D01*
X198976428Y-104291428D01*
X198905000Y-104220000D01*
X198762142Y-104148571D01*
X198619285Y-104148571D01*
X198476428Y-104220000D01*
X198405000Y-104291428D01*
X198333571Y-104434285D01*
X198333571Y-104791428D01*
X198405000Y-105005714D01*
X199690714Y-105648571D02*
X199762142Y-105720000D01*
X199833571Y-105648571D01*
X199762142Y-105577142D01*
X199690714Y-105648571D01*
X199833571Y-105648571D01*
X199262142Y-107505714D02*
X199262142Y-108648571D01*
X198405000Y-111291428D02*
X198333571Y-111148571D01*
X198333571Y-110934285D01*
X198405000Y-110720000D01*
X198547857Y-110577142D01*
X198690714Y-110505714D01*
X198976428Y-110434285D01*
X199190714Y-110434285D01*
X199476428Y-110505714D01*
X199619285Y-110577142D01*
X199762142Y-110720000D01*
X199833571Y-110934285D01*
X199833571Y-111077142D01*
X199762142Y-111291428D01*
X199690714Y-111362857D01*
X199190714Y-111362857D01*
X199190714Y-111077142D01*
X199690714Y-112005714D02*
X199762142Y-112077142D01*
X199833571Y-112005714D01*
X199762142Y-111934285D01*
X199690714Y-112005714D01*
X199833571Y-112005714D01*
X199833571Y-112720000D02*
X198333571Y-112720000D01*
X198333571Y-113077142D01*
X198405000Y-113291428D01*
X198547857Y-113434285D01*
X198690714Y-113505714D01*
X198976428Y-113577142D01*
X199190714Y-113577142D01*
X199476428Y-113505714D01*
X199619285Y-113434285D01*
X199762142Y-113291428D01*
X199833571Y-113077142D01*
X199833571Y-112720000D01*
X199690714Y-114220000D02*
X199762142Y-114291428D01*
X199833571Y-114220000D01*
X199762142Y-114148571D01*
X199690714Y-114220000D01*
X199833571Y-114220000D01*
X183096428Y-93048571D02*
X182810714Y-93048571D01*
X182667857Y-93120000D01*
X182525000Y-93262857D01*
X182453571Y-93548571D01*
X182453571Y-94048571D01*
X182525000Y-94334285D01*
X182667857Y-94477142D01*
X182810714Y-94548571D01*
X183096428Y-94548571D01*
X183239285Y-94477142D01*
X183382142Y-94334285D01*
X183453571Y-94048571D01*
X183453571Y-93548571D01*
X183382142Y-93262857D01*
X183239285Y-93120000D01*
X183096428Y-93048571D01*
X181882142Y-94477142D02*
X181667857Y-94548571D01*
X181310714Y-94548571D01*
X181167857Y-94477142D01*
X181096428Y-94405714D01*
X181025000Y-94262857D01*
X181025000Y-94120000D01*
X181096428Y-93977142D01*
X181167857Y-93905714D01*
X181310714Y-93834285D01*
X181596428Y-93762857D01*
X181739285Y-93691428D01*
X181810714Y-93620000D01*
X181882142Y-93477142D01*
X181882142Y-93334285D01*
X181810714Y-93191428D01*
X181739285Y-93120000D01*
X181596428Y-93048571D01*
X181239285Y-93048571D01*
X181025000Y-93120000D01*
X180382142Y-94548571D02*
X180382142Y-93048571D01*
X180382142Y-93762857D02*
X179525000Y-93762857D01*
X179525000Y-94548571D02*
X179525000Y-93048571D01*
X178953571Y-93048571D02*
X178596428Y-94548571D01*
X178310714Y-93477142D01*
X178025000Y-94548571D01*
X177667857Y-93048571D01*
X175167857Y-93120000D02*
X175310714Y-93048571D01*
X175525000Y-93048571D01*
X175739285Y-93120000D01*
X175882142Y-93262857D01*
X175953571Y-93405714D01*
X176025000Y-93691428D01*
X176025000Y-93905714D01*
X175953571Y-94191428D01*
X175882142Y-94334285D01*
X175739285Y-94477142D01*
X175525000Y-94548571D01*
X175382142Y-94548571D01*
X175167857Y-94477142D01*
X175096428Y-94405714D01*
X175096428Y-93905714D01*
X175382142Y-93905714D01*
X174453571Y-94548571D02*
X174453571Y-93048571D01*
X173596428Y-94548571D01*
X173596428Y-93048571D01*
X172882142Y-93048571D02*
X172882142Y-94262857D01*
X172810714Y-94405714D01*
X172739285Y-94477142D01*
X172596428Y-94548571D01*
X172310714Y-94548571D01*
X172167857Y-94477142D01*
X172096428Y-94405714D01*
X172025000Y-94262857D01*
X172025000Y-93048571D01*
X169382142Y-93120000D02*
X169525000Y-93048571D01*
X169739285Y-93048571D01*
X169953571Y-93120000D01*
X170096428Y-93262857D01*
X170167857Y-93405714D01*
X170239285Y-93691428D01*
X170239285Y-93905714D01*
X170167857Y-94191428D01*
X170096428Y-94334285D01*
X169953571Y-94477142D01*
X169739285Y-94548571D01*
X169596428Y-94548571D01*
X169382142Y-94477142D01*
X169310714Y-94405714D01*
X169310714Y-93905714D01*
X169596428Y-93905714D01*
X168667857Y-94548571D02*
X168667857Y-93048571D01*
X168096428Y-93048571D01*
X167953571Y-93120000D01*
X167882142Y-93191428D01*
X167810714Y-93334285D01*
X167810714Y-93548571D01*
X167882142Y-93691428D01*
X167953571Y-93762857D01*
X168096428Y-93834285D01*
X168667857Y-93834285D01*
X166453571Y-94548571D02*
X167167857Y-94548571D01*
X167167857Y-93048571D01*
D11*
X121359064Y-108200000D02*
X119904936Y-108200000D01*
X121359064Y-110020000D02*
X119904936Y-110020000D01*
X130064936Y-110020000D02*
X131519064Y-110020000D01*
X130064936Y-108200000D02*
X131519064Y-108200000D01*
X185310936Y-101765000D02*
X186765064Y-101765000D01*
X185310936Y-99945000D02*
X186765064Y-99945000D01*
X185510936Y-96685000D02*
X186965064Y-96685000D01*
X185510936Y-94865000D02*
X186965064Y-94865000D01*
X139959252Y-103120000D02*
X138536748Y-103120000D01*
X139959252Y-104940000D02*
X138536748Y-104940000D01*
X154010000Y-86190000D02*
X154010000Y-88790000D01*
X154010000Y-86190000D02*
X197310000Y-86190000D01*
X197310000Y-86190000D02*
X197310000Y-91390000D01*
X156610000Y-91390000D02*
X197310000Y-91390000D01*
X156610000Y-88790000D02*
X156610000Y-91390000D01*
X154010000Y-88790000D02*
X156610000Y-88790000D01*
X154010000Y-91390000D02*
X155340000Y-91390000D01*
X154010000Y-90060000D02*
X154010000Y-91390000D01*
D12*
X120798666Y-107742380D02*
X121132000Y-107266190D01*
X121370095Y-107742380D02*
X121370095Y-106742380D01*
X120989142Y-106742380D01*
X120893904Y-106790000D01*
X120846285Y-106837619D01*
X120798666Y-106932857D01*
X120798666Y-107075714D01*
X120846285Y-107170952D01*
X120893904Y-107218571D01*
X120989142Y-107266190D01*
X121370095Y-107266190D01*
X120465333Y-106742380D02*
X119798666Y-106742380D01*
X120227238Y-107742380D01*
X130958666Y-111382380D02*
X131292000Y-110906190D01*
X131530095Y-111382380D02*
X131530095Y-110382380D01*
X131149142Y-110382380D01*
X131053904Y-110430000D01*
X131006285Y-110477619D01*
X130958666Y-110572857D01*
X130958666Y-110715714D01*
X131006285Y-110810952D01*
X131053904Y-110858571D01*
X131149142Y-110906190D01*
X131530095Y-110906190D01*
X130053904Y-110382380D02*
X130530095Y-110382380D01*
X130577714Y-110858571D01*
X130530095Y-110810952D01*
X130434857Y-110763333D01*
X130196761Y-110763333D01*
X130101523Y-110810952D01*
X130053904Y-110858571D01*
X130006285Y-110953809D01*
X130006285Y-111191904D01*
X130053904Y-111287142D01*
X130101523Y-111334761D01*
X130196761Y-111382380D01*
X130434857Y-111382380D01*
X130530095Y-111334761D01*
X130577714Y-111287142D01*
X186204666Y-103127380D02*
X186538000Y-102651190D01*
X186776095Y-103127380D02*
X186776095Y-102127380D01*
X186395142Y-102127380D01*
X186299904Y-102175000D01*
X186252285Y-102222619D01*
X186204666Y-102317857D01*
X186204666Y-102460714D01*
X186252285Y-102555952D01*
X186299904Y-102603571D01*
X186395142Y-102651190D01*
X186776095Y-102651190D01*
X185347523Y-102460714D02*
X185347523Y-103127380D01*
X185585619Y-102079761D02*
X185823714Y-102794047D01*
X185204666Y-102794047D01*
X186404666Y-98047380D02*
X186738000Y-97571190D01*
X186976095Y-98047380D02*
X186976095Y-97047380D01*
X186595142Y-97047380D01*
X186499904Y-97095000D01*
X186452285Y-97142619D01*
X186404666Y-97237857D01*
X186404666Y-97380714D01*
X186452285Y-97475952D01*
X186499904Y-97523571D01*
X186595142Y-97571190D01*
X186976095Y-97571190D01*
X186071333Y-97047380D02*
X185452285Y-97047380D01*
X185785619Y-97428333D01*
X185642761Y-97428333D01*
X185547523Y-97475952D01*
X185499904Y-97523571D01*
X185452285Y-97618809D01*
X185452285Y-97856904D01*
X185499904Y-97952142D01*
X185547523Y-97999761D01*
X185642761Y-98047380D01*
X185928476Y-98047380D01*
X186023714Y-97999761D01*
X186071333Y-97952142D01*
X139414666Y-102537142D02*
X139462285Y-102584761D01*
X139605142Y-102632380D01*
X139700380Y-102632380D01*
X139843238Y-102584761D01*
X139938476Y-102489523D01*
X139986095Y-102394285D01*
X140033714Y-102203809D01*
X140033714Y-102060952D01*
X139986095Y-101870476D01*
X139938476Y-101775238D01*
X139843238Y-101680000D01*
X139700380Y-101632380D01*
X139605142Y-101632380D01*
X139462285Y-101680000D01*
X139414666Y-101727619D01*
X139081333Y-101632380D02*
X138462285Y-101632380D01*
X138795619Y-102013333D01*
X138652761Y-102013333D01*
X138557523Y-102060952D01*
X138509904Y-102108571D01*
X138462285Y-102203809D01*
X138462285Y-102441904D01*
X138509904Y-102537142D01*
X138557523Y-102584761D01*
X138652761Y-102632380D01*
X138938476Y-102632380D01*
X139033714Y-102584761D01*
X139081333Y-102537142D01*
X162332380Y-92052380D02*
X161760952Y-92052380D01*
X162046666Y-93052380D02*
X162046666Y-92052380D01*
X161237142Y-92052380D02*
X161046666Y-92052380D01*
X160951428Y-92100000D01*
X160856190Y-92195238D01*
X160808571Y-92385714D01*
X160808571Y-92719047D01*
X160856190Y-92909523D01*
X160951428Y-93004761D01*
X161046666Y-93052380D01*
X161237142Y-93052380D01*
X161332380Y-93004761D01*
X161427619Y-92909523D01*
X161475238Y-92719047D01*
X161475238Y-92385714D01*
X161427619Y-92195238D01*
X161332380Y-92100000D01*
X161237142Y-92052380D01*
X160618095Y-93147619D02*
X159856190Y-93147619D01*
X159284761Y-92528571D02*
X159618095Y-92528571D01*
X159618095Y-93052380D02*
X159618095Y-92052380D01*
X159141904Y-92052380D01*
X158284761Y-93052380D02*
X158760952Y-93052380D01*
X158760952Y-92052380D01*
X157760952Y-92052380D02*
X157570476Y-92052380D01*
X157475238Y-92100000D01*
X157380000Y-92195238D01*
X157332380Y-92385714D01*
X157332380Y-92719047D01*
X157380000Y-92909523D01*
X157475238Y-93004761D01*
X157570476Y-93052380D01*
X157760952Y-93052380D01*
X157856190Y-93004761D01*
X157951428Y-92909523D01*
X157999047Y-92719047D01*
X157999047Y-92385714D01*
X157951428Y-92195238D01*
X157856190Y-92100000D01*
X157760952Y-92052380D01*
X156903809Y-93052380D02*
X156903809Y-92052380D01*
X156522857Y-92052380D01*
X156427619Y-92100000D01*
X156380000Y-92147619D01*
X156332380Y-92242857D01*
X156332380Y-92385714D01*
X156380000Y-92480952D01*
X156427619Y-92528571D01*
X156522857Y-92576190D01*
X156903809Y-92576190D01*
X155903809Y-93052380D02*
X155903809Y-92052380D01*
X155522857Y-92052380D01*
X155427619Y-92100000D01*
X155380000Y-92147619D01*
X155332380Y-92242857D01*
X155332380Y-92385714D01*
X155380000Y-92480952D01*
X155427619Y-92528571D01*
X155522857Y-92576190D01*
X155903809Y-92576190D01*
X154713333Y-92576190D02*
X154713333Y-93052380D01*
X155046666Y-92052380D02*
X154713333Y-92576190D01*
X154380000Y-92052380D01*
X153522857Y-93052380D02*
X154094285Y-93052380D01*
X153808571Y-93052380D02*
X153808571Y-92052380D01*
X153903809Y-92195238D01*
X153999047Y-92290476D01*
X154094285Y-92338095D01*
M02*
