%TF.GenerationSoftware,KiCad,Pcbnew,5.0.2+dfsg1-1*%
%TF.CreationDate,2021-01-23T15:55:11+01:00*%
%TF.ProjectId,AmigaPCDriveAdapter,416d6967-6150-4434-9472-697665416461,2.0*%
%TF.SameCoordinates,Original*%
%TF.FileFunction,Legend,Bot*%
%TF.FilePolarity,Positive*%
%FSLAX46Y46*%
G04 Gerber Fmt 4.6, Leading zero omitted, Abs format (unit mm)*
G04 Created by KiCad (PCBNEW 5.0.2+dfsg1-1) date Sat 23 Jan 2021 03:55:11 PM CET*
%MOMM*%
%LPD*%
G01*
G04 APERTURE LIST*
%ADD10C,0.300000*%
%ADD11C,0.120000*%
%ADD12C,0.150000*%
G04 APERTURE END LIST*
D10*
X224833571Y-95220000D02*
X223833571Y-95220000D01*
X223333571Y-95220000D02*
X223405000Y-95148571D01*
X223476428Y-95220000D01*
X223405000Y-95291428D01*
X223333571Y-95220000D01*
X223476428Y-95220000D01*
X223833571Y-95934285D02*
X224833571Y-95934285D01*
X223976428Y-95934285D02*
X223905000Y-96005714D01*
X223833571Y-96148571D01*
X223833571Y-96362857D01*
X223905000Y-96505714D01*
X224047857Y-96577142D01*
X224833571Y-96577142D01*
X224833571Y-98434285D02*
X223833571Y-98434285D01*
X223976428Y-98434285D02*
X223905000Y-98505714D01*
X223833571Y-98648571D01*
X223833571Y-98862857D01*
X223905000Y-99005714D01*
X224047857Y-99077142D01*
X224833571Y-99077142D01*
X224047857Y-99077142D02*
X223905000Y-99148571D01*
X223833571Y-99291428D01*
X223833571Y-99505714D01*
X223905000Y-99648571D01*
X224047857Y-99720000D01*
X224833571Y-99720000D01*
X224762142Y-101005714D02*
X224833571Y-100862857D01*
X224833571Y-100577142D01*
X224762142Y-100434285D01*
X224619285Y-100362857D01*
X224047857Y-100362857D01*
X223905000Y-100434285D01*
X223833571Y-100577142D01*
X223833571Y-100862857D01*
X223905000Y-101005714D01*
X224047857Y-101077142D01*
X224190714Y-101077142D01*
X224333571Y-100362857D01*
X224833571Y-101720000D02*
X223833571Y-101720000D01*
X223976428Y-101720000D02*
X223905000Y-101791428D01*
X223833571Y-101934285D01*
X223833571Y-102148571D01*
X223905000Y-102291428D01*
X224047857Y-102362857D01*
X224833571Y-102362857D01*
X224047857Y-102362857D02*
X223905000Y-102434285D01*
X223833571Y-102577142D01*
X223833571Y-102791428D01*
X223905000Y-102934285D01*
X224047857Y-103005714D01*
X224833571Y-103005714D01*
X224833571Y-103934285D02*
X224762142Y-103791428D01*
X224690714Y-103720000D01*
X224547857Y-103648571D01*
X224119285Y-103648571D01*
X223976428Y-103720000D01*
X223905000Y-103791428D01*
X223833571Y-103934285D01*
X223833571Y-104148571D01*
X223905000Y-104291428D01*
X223976428Y-104362857D01*
X224119285Y-104434285D01*
X224547857Y-104434285D01*
X224690714Y-104362857D01*
X224762142Y-104291428D01*
X224833571Y-104148571D01*
X224833571Y-103934285D01*
X224833571Y-105077142D02*
X223833571Y-105077142D01*
X224119285Y-105077142D02*
X223976428Y-105148571D01*
X223905000Y-105220000D01*
X223833571Y-105362857D01*
X223833571Y-105505714D01*
X224833571Y-106005714D02*
X223833571Y-106005714D01*
X223333571Y-106005714D02*
X223405000Y-105934285D01*
X223476428Y-106005714D01*
X223405000Y-106077142D01*
X223333571Y-106005714D01*
X223476428Y-106005714D01*
X224833571Y-107362857D02*
X224047857Y-107362857D01*
X223905000Y-107291428D01*
X223833571Y-107148571D01*
X223833571Y-106862857D01*
X223905000Y-106720000D01*
X224762142Y-107362857D02*
X224833571Y-107220000D01*
X224833571Y-106862857D01*
X224762142Y-106720000D01*
X224619285Y-106648571D01*
X224476428Y-106648571D01*
X224333571Y-106720000D01*
X224262142Y-106862857D01*
X224262142Y-107220000D01*
X224190714Y-107362857D01*
X224833571Y-108077142D02*
X223833571Y-108077142D01*
X223976428Y-108077142D02*
X223905000Y-108148571D01*
X223833571Y-108291428D01*
X223833571Y-108505714D01*
X223905000Y-108648571D01*
X224047857Y-108720000D01*
X224833571Y-108720000D01*
X224047857Y-108720000D02*
X223905000Y-108791428D01*
X223833571Y-108934285D01*
X223833571Y-109148571D01*
X223905000Y-109291428D01*
X224047857Y-109362857D01*
X224833571Y-109362857D01*
X224405000Y-111148571D02*
X224405000Y-111862857D01*
X224833571Y-111005714D02*
X223333571Y-111505714D01*
X224833571Y-112005714D01*
X224690714Y-112505714D02*
X224762142Y-112577142D01*
X224833571Y-112505714D01*
X224762142Y-112434285D01*
X224690714Y-112505714D01*
X224833571Y-112505714D01*
X224762142Y-113148571D02*
X224833571Y-113362857D01*
X224833571Y-113720000D01*
X224762142Y-113862857D01*
X224690714Y-113934285D01*
X224547857Y-114005714D01*
X224405000Y-114005714D01*
X224262142Y-113934285D01*
X224190714Y-113862857D01*
X224119285Y-113720000D01*
X224047857Y-113434285D01*
X223976428Y-113291428D01*
X223905000Y-113220000D01*
X223762142Y-113148571D01*
X223619285Y-113148571D01*
X223476428Y-113220000D01*
X223405000Y-113291428D01*
X223333571Y-113434285D01*
X223333571Y-113791428D01*
X223405000Y-114005714D01*
X224690714Y-114648571D02*
X224762142Y-114720000D01*
X224833571Y-114648571D01*
X224762142Y-114577142D01*
X224690714Y-114648571D01*
X224833571Y-114648571D01*
X224262142Y-116505714D02*
X224262142Y-117648571D01*
X223405000Y-120291428D02*
X223333571Y-120148571D01*
X223333571Y-119934285D01*
X223405000Y-119720000D01*
X223547857Y-119577142D01*
X223690714Y-119505714D01*
X223976428Y-119434285D01*
X224190714Y-119434285D01*
X224476428Y-119505714D01*
X224619285Y-119577142D01*
X224762142Y-119720000D01*
X224833571Y-119934285D01*
X224833571Y-120077142D01*
X224762142Y-120291428D01*
X224690714Y-120362857D01*
X224190714Y-120362857D01*
X224190714Y-120077142D01*
X224690714Y-121005714D02*
X224762142Y-121077142D01*
X224833571Y-121005714D01*
X224762142Y-120934285D01*
X224690714Y-121005714D01*
X224833571Y-121005714D01*
X224833571Y-121720000D02*
X223333571Y-121720000D01*
X223333571Y-122077142D01*
X223405000Y-122291428D01*
X223547857Y-122434285D01*
X223690714Y-122505714D01*
X223976428Y-122577142D01*
X224190714Y-122577142D01*
X224476428Y-122505714D01*
X224619285Y-122434285D01*
X224762142Y-122291428D01*
X224833571Y-122077142D01*
X224833571Y-121720000D01*
X224690714Y-123220000D02*
X224762142Y-123291428D01*
X224833571Y-123220000D01*
X224762142Y-123148571D01*
X224690714Y-123220000D01*
X224833571Y-123220000D01*
X208096428Y-102048571D02*
X207810714Y-102048571D01*
X207667857Y-102120000D01*
X207525000Y-102262857D01*
X207453571Y-102548571D01*
X207453571Y-103048571D01*
X207525000Y-103334285D01*
X207667857Y-103477142D01*
X207810714Y-103548571D01*
X208096428Y-103548571D01*
X208239285Y-103477142D01*
X208382142Y-103334285D01*
X208453571Y-103048571D01*
X208453571Y-102548571D01*
X208382142Y-102262857D01*
X208239285Y-102120000D01*
X208096428Y-102048571D01*
X206882142Y-103477142D02*
X206667857Y-103548571D01*
X206310714Y-103548571D01*
X206167857Y-103477142D01*
X206096428Y-103405714D01*
X206025000Y-103262857D01*
X206025000Y-103120000D01*
X206096428Y-102977142D01*
X206167857Y-102905714D01*
X206310714Y-102834285D01*
X206596428Y-102762857D01*
X206739285Y-102691428D01*
X206810714Y-102620000D01*
X206882142Y-102477142D01*
X206882142Y-102334285D01*
X206810714Y-102191428D01*
X206739285Y-102120000D01*
X206596428Y-102048571D01*
X206239285Y-102048571D01*
X206025000Y-102120000D01*
X205382142Y-103548571D02*
X205382142Y-102048571D01*
X205382142Y-102762857D02*
X204525000Y-102762857D01*
X204525000Y-103548571D02*
X204525000Y-102048571D01*
X203953571Y-102048571D02*
X203596428Y-103548571D01*
X203310714Y-102477142D01*
X203025000Y-103548571D01*
X202667857Y-102048571D01*
X200167857Y-102120000D02*
X200310714Y-102048571D01*
X200525000Y-102048571D01*
X200739285Y-102120000D01*
X200882142Y-102262857D01*
X200953571Y-102405714D01*
X201025000Y-102691428D01*
X201025000Y-102905714D01*
X200953571Y-103191428D01*
X200882142Y-103334285D01*
X200739285Y-103477142D01*
X200525000Y-103548571D01*
X200382142Y-103548571D01*
X200167857Y-103477142D01*
X200096428Y-103405714D01*
X200096428Y-102905714D01*
X200382142Y-102905714D01*
X199453571Y-103548571D02*
X199453571Y-102048571D01*
X198596428Y-103548571D01*
X198596428Y-102048571D01*
X197882142Y-102048571D02*
X197882142Y-103262857D01*
X197810714Y-103405714D01*
X197739285Y-103477142D01*
X197596428Y-103548571D01*
X197310714Y-103548571D01*
X197167857Y-103477142D01*
X197096428Y-103405714D01*
X197025000Y-103262857D01*
X197025000Y-102048571D01*
X194382142Y-102120000D02*
X194525000Y-102048571D01*
X194739285Y-102048571D01*
X194953571Y-102120000D01*
X195096428Y-102262857D01*
X195167857Y-102405714D01*
X195239285Y-102691428D01*
X195239285Y-102905714D01*
X195167857Y-103191428D01*
X195096428Y-103334285D01*
X194953571Y-103477142D01*
X194739285Y-103548571D01*
X194596428Y-103548571D01*
X194382142Y-103477142D01*
X194310714Y-103405714D01*
X194310714Y-102905714D01*
X194596428Y-102905714D01*
X193667857Y-103548571D02*
X193667857Y-102048571D01*
X193096428Y-102048571D01*
X192953571Y-102120000D01*
X192882142Y-102191428D01*
X192810714Y-102334285D01*
X192810714Y-102548571D01*
X192882142Y-102691428D01*
X192953571Y-102762857D01*
X193096428Y-102834285D01*
X193667857Y-102834285D01*
X191453571Y-103548571D02*
X192167857Y-103548571D01*
X192167857Y-102048571D01*
D11*
X164850064Y-113940000D02*
X163645936Y-113940000D01*
X164850064Y-112120000D02*
X163645936Y-112120000D01*
X210635936Y-103865000D02*
X211840064Y-103865000D01*
X210635936Y-105685000D02*
X211840064Y-105685000D01*
X210435936Y-108945000D02*
X211640064Y-108945000D01*
X210435936Y-110765000D02*
X211640064Y-110765000D01*
X155189936Y-117200000D02*
X156394064Y-117200000D01*
X155189936Y-119020000D02*
X156394064Y-119020000D01*
X146234064Y-119020000D02*
X145029936Y-119020000D01*
X146234064Y-117200000D02*
X145029936Y-117200000D01*
X179010000Y-95190000D02*
X179010000Y-97790000D01*
X179010000Y-95190000D02*
X222310000Y-95190000D01*
X222310000Y-95190000D02*
X222310000Y-100390000D01*
X181610000Y-100390000D02*
X222310000Y-100390000D01*
X181610000Y-97790000D02*
X181610000Y-100390000D01*
X179010000Y-97790000D02*
X181610000Y-97790000D01*
X179010000Y-100390000D02*
X180340000Y-100390000D01*
X179010000Y-99060000D02*
X179010000Y-100390000D01*
D12*
X164414666Y-111567142D02*
X164462285Y-111614761D01*
X164605142Y-111662380D01*
X164700380Y-111662380D01*
X164843238Y-111614761D01*
X164938476Y-111519523D01*
X164986095Y-111424285D01*
X165033714Y-111233809D01*
X165033714Y-111090952D01*
X164986095Y-110900476D01*
X164938476Y-110805238D01*
X164843238Y-110710000D01*
X164700380Y-110662380D01*
X164605142Y-110662380D01*
X164462285Y-110710000D01*
X164414666Y-110757619D01*
X164081333Y-110662380D02*
X163462285Y-110662380D01*
X163795619Y-111043333D01*
X163652761Y-111043333D01*
X163557523Y-111090952D01*
X163509904Y-111138571D01*
X163462285Y-111233809D01*
X163462285Y-111471904D01*
X163509904Y-111567142D01*
X163557523Y-111614761D01*
X163652761Y-111662380D01*
X163938476Y-111662380D01*
X164033714Y-111614761D01*
X164081333Y-111567142D01*
X211404666Y-107047380D02*
X211738000Y-106571190D01*
X211976095Y-107047380D02*
X211976095Y-106047380D01*
X211595142Y-106047380D01*
X211499904Y-106095000D01*
X211452285Y-106142619D01*
X211404666Y-106237857D01*
X211404666Y-106380714D01*
X211452285Y-106475952D01*
X211499904Y-106523571D01*
X211595142Y-106571190D01*
X211976095Y-106571190D01*
X211071333Y-106047380D02*
X210452285Y-106047380D01*
X210785619Y-106428333D01*
X210642761Y-106428333D01*
X210547523Y-106475952D01*
X210499904Y-106523571D01*
X210452285Y-106618809D01*
X210452285Y-106856904D01*
X210499904Y-106952142D01*
X210547523Y-106999761D01*
X210642761Y-107047380D01*
X210928476Y-107047380D01*
X211023714Y-106999761D01*
X211071333Y-106952142D01*
X211204666Y-112127380D02*
X211538000Y-111651190D01*
X211776095Y-112127380D02*
X211776095Y-111127380D01*
X211395142Y-111127380D01*
X211299904Y-111175000D01*
X211252285Y-111222619D01*
X211204666Y-111317857D01*
X211204666Y-111460714D01*
X211252285Y-111555952D01*
X211299904Y-111603571D01*
X211395142Y-111651190D01*
X211776095Y-111651190D01*
X210347523Y-111460714D02*
X210347523Y-112127380D01*
X210585619Y-111079761D02*
X210823714Y-111794047D01*
X210204666Y-111794047D01*
X155958666Y-120382380D02*
X156292000Y-119906190D01*
X156530095Y-120382380D02*
X156530095Y-119382380D01*
X156149142Y-119382380D01*
X156053904Y-119430000D01*
X156006285Y-119477619D01*
X155958666Y-119572857D01*
X155958666Y-119715714D01*
X156006285Y-119810952D01*
X156053904Y-119858571D01*
X156149142Y-119906190D01*
X156530095Y-119906190D01*
X155053904Y-119382380D02*
X155530095Y-119382380D01*
X155577714Y-119858571D01*
X155530095Y-119810952D01*
X155434857Y-119763333D01*
X155196761Y-119763333D01*
X155101523Y-119810952D01*
X155053904Y-119858571D01*
X155006285Y-119953809D01*
X155006285Y-120191904D01*
X155053904Y-120287142D01*
X155101523Y-120334761D01*
X155196761Y-120382380D01*
X155434857Y-120382380D01*
X155530095Y-120334761D01*
X155577714Y-120287142D01*
X145798666Y-116742380D02*
X146132000Y-116266190D01*
X146370095Y-116742380D02*
X146370095Y-115742380D01*
X145989142Y-115742380D01*
X145893904Y-115790000D01*
X145846285Y-115837619D01*
X145798666Y-115932857D01*
X145798666Y-116075714D01*
X145846285Y-116170952D01*
X145893904Y-116218571D01*
X145989142Y-116266190D01*
X146370095Y-116266190D01*
X145465333Y-115742380D02*
X144798666Y-115742380D01*
X145227238Y-116742380D01*
X187332380Y-101052380D02*
X186760952Y-101052380D01*
X187046666Y-102052380D02*
X187046666Y-101052380D01*
X186237142Y-101052380D02*
X186046666Y-101052380D01*
X185951428Y-101100000D01*
X185856190Y-101195238D01*
X185808571Y-101385714D01*
X185808571Y-101719047D01*
X185856190Y-101909523D01*
X185951428Y-102004761D01*
X186046666Y-102052380D01*
X186237142Y-102052380D01*
X186332380Y-102004761D01*
X186427619Y-101909523D01*
X186475238Y-101719047D01*
X186475238Y-101385714D01*
X186427619Y-101195238D01*
X186332380Y-101100000D01*
X186237142Y-101052380D01*
X185618095Y-102147619D02*
X184856190Y-102147619D01*
X184284761Y-101528571D02*
X184618095Y-101528571D01*
X184618095Y-102052380D02*
X184618095Y-101052380D01*
X184141904Y-101052380D01*
X183284761Y-102052380D02*
X183760952Y-102052380D01*
X183760952Y-101052380D01*
X182760952Y-101052380D02*
X182570476Y-101052380D01*
X182475238Y-101100000D01*
X182380000Y-101195238D01*
X182332380Y-101385714D01*
X182332380Y-101719047D01*
X182380000Y-101909523D01*
X182475238Y-102004761D01*
X182570476Y-102052380D01*
X182760952Y-102052380D01*
X182856190Y-102004761D01*
X182951428Y-101909523D01*
X182999047Y-101719047D01*
X182999047Y-101385714D01*
X182951428Y-101195238D01*
X182856190Y-101100000D01*
X182760952Y-101052380D01*
X181903809Y-102052380D02*
X181903809Y-101052380D01*
X181522857Y-101052380D01*
X181427619Y-101100000D01*
X181380000Y-101147619D01*
X181332380Y-101242857D01*
X181332380Y-101385714D01*
X181380000Y-101480952D01*
X181427619Y-101528571D01*
X181522857Y-101576190D01*
X181903809Y-101576190D01*
X180903809Y-102052380D02*
X180903809Y-101052380D01*
X180522857Y-101052380D01*
X180427619Y-101100000D01*
X180380000Y-101147619D01*
X180332380Y-101242857D01*
X180332380Y-101385714D01*
X180380000Y-101480952D01*
X180427619Y-101528571D01*
X180522857Y-101576190D01*
X180903809Y-101576190D01*
X179713333Y-101576190D02*
X179713333Y-102052380D01*
X180046666Y-101052380D02*
X179713333Y-101576190D01*
X179380000Y-101052380D01*
X178522857Y-102052380D02*
X179094285Y-102052380D01*
X178808571Y-102052380D02*
X178808571Y-101052380D01*
X178903809Y-101195238D01*
X178999047Y-101290476D01*
X179094285Y-101338095D01*
M02*
