M48
; DRILL file {KiCad 5.1.9+dfsg1-1} date Fri Apr  1 11:17:56 2022
; FORMAT={-:-/ absolute / metric / decimal}
; #@! TF.CreationDate,2022-04-01T11:17:56+02:00
; #@! TF.GenerationSoftware,Kicad,Pcbnew,5.1.9+dfsg1-1
; #@! TF.FileFunction,Plated,1,2,PTH
FMAT,2
METRIC
T1C0.400
T2C0.800
T3C0.910
T4C1.000
%
G90
G05
T1
X178.471Y-102.409
X184.261Y-102.77
T2
X117.24Y-105.3
X117.24Y-112.92
X119.78Y-105.3
X119.78Y-112.92
X122.32Y-105.3
X122.32Y-112.92
X124.86Y-105.3
X124.86Y-112.92
X127.4Y-105.3
X127.4Y-112.92
X129.94Y-105.3
X129.94Y-112.92
X132.48Y-105.3
X132.48Y-112.92
T3
X147.72Y-107.84
X147.72Y-110.38
X150.26Y-107.84
X150.26Y-110.38
X152.8Y-107.84
X152.8Y-110.38
X155.34Y-107.84
X155.34Y-110.38
X157.88Y-107.84
X157.88Y-110.38
X160.42Y-107.84
X160.42Y-110.38
X162.96Y-107.84
X162.96Y-110.38
X165.5Y-107.84
X165.5Y-110.38
X168.04Y-107.84
X168.04Y-110.38
X170.58Y-107.84
X170.58Y-110.38
X173.12Y-107.84
X173.12Y-110.38
X175.66Y-107.84
X175.66Y-110.38
X178.2Y-107.84
X178.2Y-110.38
X180.74Y-107.84
X180.74Y-110.38
X183.28Y-107.84
X183.28Y-110.38
X185.82Y-107.84
X185.82Y-110.38
X188.36Y-107.84
X188.36Y-110.38
T4
X112.16Y-105.3
X112.16Y-107.84
X112.16Y-110.38
X112.16Y-112.92
X135.02Y-100.22
X137.56Y-100.22
X140.1Y-100.22
X142.64Y-100.22
X155.34Y-87.52
X155.34Y-90.06
X157.88Y-87.52
X157.88Y-90.06
X160.42Y-87.52
X160.42Y-90.06
X162.96Y-87.52
X162.96Y-90.06
X165.5Y-87.52
X165.5Y-90.06
X168.04Y-87.52
X168.04Y-90.06
X170.58Y-87.52
X170.58Y-90.06
X173.12Y-87.52
X173.12Y-90.06
X175.66Y-87.52
X175.66Y-90.06
X178.2Y-87.52
X178.2Y-90.06
X180.74Y-87.52
X180.74Y-90.06
X183.28Y-87.52
X183.28Y-90.06
X185.82Y-87.52
X185.82Y-90.06
X188.36Y-87.52
X188.36Y-90.06
X190.9Y-87.52
X190.9Y-90.06
X193.44Y-87.52
X193.44Y-90.06
X195.98Y-87.52
X195.98Y-90.06
T0
M30
