%TF.GenerationSoftware,KiCad,Pcbnew,5.0.2+dfsg1-1*%
%TF.CreationDate,2021-01-23T14:19:40+01:00*%
%TF.ProjectId,AmigaPCDriveAdapter,416d6967-6150-4434-9472-697665416461,2.0*%
%TF.SameCoordinates,Original*%
%TF.FileFunction,Soldermask,Top*%
%TF.FilePolarity,Negative*%
%FSLAX46Y46*%
G04 Gerber Fmt 4.6, Leading zero omitted, Abs format (unit mm)*
G04 Created by KiCad (PCBNEW 5.0.2+dfsg1-1) date Sat 23 Jan 2021 02:19:40 PM CET*
%MOMM*%
%LPD*%
G01*
G04 APERTURE LIST*
%ADD10C,0.100000*%
G04 APERTURE END LIST*
D10*
G36*
X138010000Y-122770000D02*
X136310000Y-122770000D01*
X136310000Y-121070000D01*
X138010000Y-121070000D01*
X138010000Y-122770000D01*
X138010000Y-122770000D01*
G37*
G36*
X157597649Y-121127717D02*
X157636827Y-121131576D01*
X157712227Y-121154448D01*
X157787629Y-121177321D01*
X157926608Y-121251608D01*
X158048422Y-121351578D01*
X158148392Y-121473392D01*
X158222679Y-121612371D01*
X158268424Y-121763174D01*
X158283870Y-121920000D01*
X158268424Y-122076826D01*
X158222679Y-122227629D01*
X158148392Y-122366608D01*
X158048422Y-122488422D01*
X157926608Y-122588392D01*
X157787629Y-122662679D01*
X157712228Y-122685551D01*
X157636827Y-122708424D01*
X157597649Y-122712283D01*
X157519295Y-122720000D01*
X157440705Y-122720000D01*
X157362351Y-122712283D01*
X157323173Y-122708424D01*
X157247772Y-122685551D01*
X157172371Y-122662679D01*
X157033392Y-122588392D01*
X156911578Y-122488422D01*
X156811608Y-122366608D01*
X156737321Y-122227629D01*
X156691576Y-122076826D01*
X156676130Y-121920000D01*
X156691576Y-121763174D01*
X156737321Y-121612371D01*
X156811608Y-121473392D01*
X156911578Y-121351578D01*
X157033392Y-121251608D01*
X157172371Y-121177321D01*
X157247772Y-121154449D01*
X157323173Y-121131576D01*
X157362351Y-121127717D01*
X157440705Y-121120000D01*
X157519295Y-121120000D01*
X157597649Y-121127717D01*
X157597649Y-121127717D01*
G37*
G36*
X142357649Y-121127717D02*
X142396827Y-121131576D01*
X142472227Y-121154448D01*
X142547629Y-121177321D01*
X142686608Y-121251608D01*
X142808422Y-121351578D01*
X142908392Y-121473392D01*
X142982679Y-121612371D01*
X143028424Y-121763174D01*
X143043870Y-121920000D01*
X143028424Y-122076826D01*
X142982679Y-122227629D01*
X142908392Y-122366608D01*
X142808422Y-122488422D01*
X142686608Y-122588392D01*
X142547629Y-122662679D01*
X142472228Y-122685551D01*
X142396827Y-122708424D01*
X142357649Y-122712283D01*
X142279295Y-122720000D01*
X142200705Y-122720000D01*
X142122351Y-122712283D01*
X142083173Y-122708424D01*
X142007772Y-122685551D01*
X141932371Y-122662679D01*
X141793392Y-122588392D01*
X141671578Y-122488422D01*
X141571608Y-122366608D01*
X141497321Y-122227629D01*
X141451576Y-122076826D01*
X141436130Y-121920000D01*
X141451576Y-121763174D01*
X141497321Y-121612371D01*
X141571608Y-121473392D01*
X141671578Y-121351578D01*
X141793392Y-121251608D01*
X141932371Y-121177321D01*
X142007772Y-121154449D01*
X142083173Y-121131576D01*
X142122351Y-121127717D01*
X142200705Y-121120000D01*
X142279295Y-121120000D01*
X142357649Y-121127717D01*
X142357649Y-121127717D01*
G37*
G36*
X144897649Y-121127717D02*
X144936827Y-121131576D01*
X145012227Y-121154448D01*
X145087629Y-121177321D01*
X145226608Y-121251608D01*
X145348422Y-121351578D01*
X145448392Y-121473392D01*
X145522679Y-121612371D01*
X145568424Y-121763174D01*
X145583870Y-121920000D01*
X145568424Y-122076826D01*
X145522679Y-122227629D01*
X145448392Y-122366608D01*
X145348422Y-122488422D01*
X145226608Y-122588392D01*
X145087629Y-122662679D01*
X145012228Y-122685551D01*
X144936827Y-122708424D01*
X144897649Y-122712283D01*
X144819295Y-122720000D01*
X144740705Y-122720000D01*
X144662351Y-122712283D01*
X144623173Y-122708424D01*
X144547772Y-122685551D01*
X144472371Y-122662679D01*
X144333392Y-122588392D01*
X144211578Y-122488422D01*
X144111608Y-122366608D01*
X144037321Y-122227629D01*
X143991576Y-122076826D01*
X143976130Y-121920000D01*
X143991576Y-121763174D01*
X144037321Y-121612371D01*
X144111608Y-121473392D01*
X144211578Y-121351578D01*
X144333392Y-121251608D01*
X144472371Y-121177321D01*
X144547772Y-121154449D01*
X144623173Y-121131576D01*
X144662351Y-121127717D01*
X144740705Y-121120000D01*
X144819295Y-121120000D01*
X144897649Y-121127717D01*
X144897649Y-121127717D01*
G37*
G36*
X147437649Y-121127717D02*
X147476827Y-121131576D01*
X147552227Y-121154448D01*
X147627629Y-121177321D01*
X147766608Y-121251608D01*
X147888422Y-121351578D01*
X147988392Y-121473392D01*
X148062679Y-121612371D01*
X148108424Y-121763174D01*
X148123870Y-121920000D01*
X148108424Y-122076826D01*
X148062679Y-122227629D01*
X147988392Y-122366608D01*
X147888422Y-122488422D01*
X147766608Y-122588392D01*
X147627629Y-122662679D01*
X147552228Y-122685551D01*
X147476827Y-122708424D01*
X147437649Y-122712283D01*
X147359295Y-122720000D01*
X147280705Y-122720000D01*
X147202351Y-122712283D01*
X147163173Y-122708424D01*
X147087772Y-122685551D01*
X147012371Y-122662679D01*
X146873392Y-122588392D01*
X146751578Y-122488422D01*
X146651608Y-122366608D01*
X146577321Y-122227629D01*
X146531576Y-122076826D01*
X146516130Y-121920000D01*
X146531576Y-121763174D01*
X146577321Y-121612371D01*
X146651608Y-121473392D01*
X146751578Y-121351578D01*
X146873392Y-121251608D01*
X147012371Y-121177321D01*
X147087772Y-121154449D01*
X147163173Y-121131576D01*
X147202351Y-121127717D01*
X147280705Y-121120000D01*
X147359295Y-121120000D01*
X147437649Y-121127717D01*
X147437649Y-121127717D01*
G37*
G36*
X149977649Y-121127717D02*
X150016827Y-121131576D01*
X150092227Y-121154448D01*
X150167629Y-121177321D01*
X150306608Y-121251608D01*
X150428422Y-121351578D01*
X150528392Y-121473392D01*
X150602679Y-121612371D01*
X150648424Y-121763174D01*
X150663870Y-121920000D01*
X150648424Y-122076826D01*
X150602679Y-122227629D01*
X150528392Y-122366608D01*
X150428422Y-122488422D01*
X150306608Y-122588392D01*
X150167629Y-122662679D01*
X150092228Y-122685551D01*
X150016827Y-122708424D01*
X149977649Y-122712283D01*
X149899295Y-122720000D01*
X149820705Y-122720000D01*
X149742351Y-122712283D01*
X149703173Y-122708424D01*
X149627772Y-122685551D01*
X149552371Y-122662679D01*
X149413392Y-122588392D01*
X149291578Y-122488422D01*
X149191608Y-122366608D01*
X149117321Y-122227629D01*
X149071576Y-122076826D01*
X149056130Y-121920000D01*
X149071576Y-121763174D01*
X149117321Y-121612371D01*
X149191608Y-121473392D01*
X149291578Y-121351578D01*
X149413392Y-121251608D01*
X149552371Y-121177321D01*
X149627772Y-121154449D01*
X149703173Y-121131576D01*
X149742351Y-121127717D01*
X149820705Y-121120000D01*
X149899295Y-121120000D01*
X149977649Y-121127717D01*
X149977649Y-121127717D01*
G37*
G36*
X152517649Y-121127717D02*
X152556827Y-121131576D01*
X152632227Y-121154448D01*
X152707629Y-121177321D01*
X152846608Y-121251608D01*
X152968422Y-121351578D01*
X153068392Y-121473392D01*
X153142679Y-121612371D01*
X153188424Y-121763174D01*
X153203870Y-121920000D01*
X153188424Y-122076826D01*
X153142679Y-122227629D01*
X153068392Y-122366608D01*
X152968422Y-122488422D01*
X152846608Y-122588392D01*
X152707629Y-122662679D01*
X152632228Y-122685551D01*
X152556827Y-122708424D01*
X152517649Y-122712283D01*
X152439295Y-122720000D01*
X152360705Y-122720000D01*
X152282351Y-122712283D01*
X152243173Y-122708424D01*
X152167772Y-122685551D01*
X152092371Y-122662679D01*
X151953392Y-122588392D01*
X151831578Y-122488422D01*
X151731608Y-122366608D01*
X151657321Y-122227629D01*
X151611576Y-122076826D01*
X151596130Y-121920000D01*
X151611576Y-121763174D01*
X151657321Y-121612371D01*
X151731608Y-121473392D01*
X151831578Y-121351578D01*
X151953392Y-121251608D01*
X152092371Y-121177321D01*
X152167772Y-121154449D01*
X152243173Y-121131576D01*
X152282351Y-121127717D01*
X152360705Y-121120000D01*
X152439295Y-121120000D01*
X152517649Y-121127717D01*
X152517649Y-121127717D01*
G37*
G36*
X155057649Y-121127717D02*
X155096827Y-121131576D01*
X155172227Y-121154448D01*
X155247629Y-121177321D01*
X155386608Y-121251608D01*
X155508422Y-121351578D01*
X155608392Y-121473392D01*
X155682679Y-121612371D01*
X155728424Y-121763174D01*
X155743870Y-121920000D01*
X155728424Y-122076826D01*
X155682679Y-122227629D01*
X155608392Y-122366608D01*
X155508422Y-122488422D01*
X155386608Y-122588392D01*
X155247629Y-122662679D01*
X155172228Y-122685551D01*
X155096827Y-122708424D01*
X155057649Y-122712283D01*
X154979295Y-122720000D01*
X154900705Y-122720000D01*
X154822351Y-122712283D01*
X154783173Y-122708424D01*
X154707772Y-122685551D01*
X154632371Y-122662679D01*
X154493392Y-122588392D01*
X154371578Y-122488422D01*
X154271608Y-122366608D01*
X154197321Y-122227629D01*
X154151576Y-122076826D01*
X154136130Y-121920000D01*
X154151576Y-121763174D01*
X154197321Y-121612371D01*
X154271608Y-121473392D01*
X154371578Y-121351578D01*
X154493392Y-121251608D01*
X154632371Y-121177321D01*
X154707772Y-121154449D01*
X154783173Y-121131576D01*
X154822351Y-121127717D01*
X154900705Y-121120000D01*
X154979295Y-121120000D01*
X155057649Y-121127717D01*
X155057649Y-121127717D01*
G37*
G36*
X137326630Y-118542299D02*
X137486855Y-118590903D01*
X137634520Y-118669831D01*
X137763949Y-118776051D01*
X137870169Y-118905480D01*
X137949097Y-119053145D01*
X137997701Y-119213370D01*
X138014112Y-119380000D01*
X137997701Y-119546630D01*
X137949097Y-119706855D01*
X137870169Y-119854520D01*
X137763949Y-119983949D01*
X137634520Y-120090169D01*
X137486855Y-120169097D01*
X137326630Y-120217701D01*
X137201752Y-120230000D01*
X137118248Y-120230000D01*
X136993370Y-120217701D01*
X136833145Y-120169097D01*
X136685480Y-120090169D01*
X136556051Y-119983949D01*
X136449831Y-119854520D01*
X136370903Y-119706855D01*
X136322299Y-119546630D01*
X136305888Y-119380000D01*
X136322299Y-119213370D01*
X136370903Y-119053145D01*
X136449831Y-118905480D01*
X136556051Y-118776051D01*
X136685480Y-118669831D01*
X136833145Y-118590903D01*
X136993370Y-118542299D01*
X137118248Y-118530000D01*
X137201752Y-118530000D01*
X137326630Y-118542299D01*
X137326630Y-118542299D01*
G37*
G36*
X208501683Y-118649206D02*
X208639992Y-118706495D01*
X208639995Y-118706497D01*
X208744090Y-118776051D01*
X208764476Y-118789673D01*
X208870327Y-118895524D01*
X208870329Y-118895527D01*
X208870330Y-118895528D01*
X208876980Y-118905481D01*
X208953505Y-119020008D01*
X209010794Y-119158317D01*
X209040000Y-119305145D01*
X209040000Y-119454855D01*
X209010794Y-119601683D01*
X208953505Y-119739992D01*
X208953503Y-119739995D01*
X208876980Y-119854520D01*
X208870327Y-119864476D01*
X208764476Y-119970327D01*
X208764473Y-119970329D01*
X208764472Y-119970330D01*
X208639995Y-120053503D01*
X208639992Y-120053505D01*
X208501683Y-120110794D01*
X208354855Y-120140000D01*
X208205145Y-120140000D01*
X208058317Y-120110794D01*
X207920008Y-120053505D01*
X207920005Y-120053503D01*
X207795528Y-119970330D01*
X207795527Y-119970329D01*
X207795524Y-119970327D01*
X207689673Y-119864476D01*
X207683021Y-119854520D01*
X207606497Y-119739995D01*
X207606495Y-119739992D01*
X207549206Y-119601683D01*
X207520000Y-119454855D01*
X207520000Y-119305145D01*
X207549206Y-119158317D01*
X207606495Y-119020008D01*
X207683020Y-118905481D01*
X207689670Y-118895528D01*
X207689671Y-118895527D01*
X207689673Y-118895524D01*
X207795524Y-118789673D01*
X207815911Y-118776051D01*
X207920005Y-118706497D01*
X207920008Y-118706495D01*
X208058317Y-118649206D01*
X208205145Y-118620000D01*
X208354855Y-118620000D01*
X208501683Y-118649206D01*
X208501683Y-118649206D01*
G37*
G36*
X211041683Y-118649206D02*
X211179992Y-118706495D01*
X211179995Y-118706497D01*
X211284090Y-118776051D01*
X211304476Y-118789673D01*
X211410327Y-118895524D01*
X211410329Y-118895527D01*
X211410330Y-118895528D01*
X211416980Y-118905481D01*
X211493505Y-119020008D01*
X211550794Y-119158317D01*
X211580000Y-119305145D01*
X211580000Y-119454855D01*
X211550794Y-119601683D01*
X211493505Y-119739992D01*
X211493503Y-119739995D01*
X211416980Y-119854520D01*
X211410327Y-119864476D01*
X211304476Y-119970327D01*
X211304473Y-119970329D01*
X211304472Y-119970330D01*
X211179995Y-120053503D01*
X211179992Y-120053505D01*
X211041683Y-120110794D01*
X210894855Y-120140000D01*
X210745145Y-120140000D01*
X210598317Y-120110794D01*
X210460008Y-120053505D01*
X210460005Y-120053503D01*
X210335528Y-119970330D01*
X210335527Y-119970329D01*
X210335524Y-119970327D01*
X210229673Y-119864476D01*
X210223021Y-119854520D01*
X210146497Y-119739995D01*
X210146495Y-119739992D01*
X210089206Y-119601683D01*
X210060000Y-119454855D01*
X210060000Y-119305145D01*
X210089206Y-119158317D01*
X210146495Y-119020008D01*
X210223020Y-118905481D01*
X210229670Y-118895528D01*
X210229671Y-118895527D01*
X210229673Y-118895524D01*
X210335524Y-118789673D01*
X210355911Y-118776051D01*
X210460005Y-118706497D01*
X210460008Y-118706495D01*
X210598317Y-118649206D01*
X210745145Y-118620000D01*
X210894855Y-118620000D01*
X211041683Y-118649206D01*
X211041683Y-118649206D01*
G37*
G36*
X205961683Y-118649206D02*
X206099992Y-118706495D01*
X206099995Y-118706497D01*
X206204090Y-118776051D01*
X206224476Y-118789673D01*
X206330327Y-118895524D01*
X206330329Y-118895527D01*
X206330330Y-118895528D01*
X206336980Y-118905481D01*
X206413505Y-119020008D01*
X206470794Y-119158317D01*
X206500000Y-119305145D01*
X206500000Y-119454855D01*
X206470794Y-119601683D01*
X206413505Y-119739992D01*
X206413503Y-119739995D01*
X206336980Y-119854520D01*
X206330327Y-119864476D01*
X206224476Y-119970327D01*
X206224473Y-119970329D01*
X206224472Y-119970330D01*
X206099995Y-120053503D01*
X206099992Y-120053505D01*
X205961683Y-120110794D01*
X205814855Y-120140000D01*
X205665145Y-120140000D01*
X205518317Y-120110794D01*
X205380008Y-120053505D01*
X205380005Y-120053503D01*
X205255528Y-119970330D01*
X205255527Y-119970329D01*
X205255524Y-119970327D01*
X205149673Y-119864476D01*
X205143021Y-119854520D01*
X205066497Y-119739995D01*
X205066495Y-119739992D01*
X205009206Y-119601683D01*
X204980000Y-119454855D01*
X204980000Y-119305145D01*
X205009206Y-119158317D01*
X205066495Y-119020008D01*
X205143020Y-118905481D01*
X205149670Y-118895528D01*
X205149671Y-118895527D01*
X205149673Y-118895524D01*
X205255524Y-118789673D01*
X205275911Y-118776051D01*
X205380005Y-118706497D01*
X205380008Y-118706495D01*
X205518317Y-118649206D01*
X205665145Y-118620000D01*
X205814855Y-118620000D01*
X205961683Y-118649206D01*
X205961683Y-118649206D01*
G37*
G36*
X203421683Y-118649206D02*
X203559992Y-118706495D01*
X203559995Y-118706497D01*
X203664090Y-118776051D01*
X203684476Y-118789673D01*
X203790327Y-118895524D01*
X203790329Y-118895527D01*
X203790330Y-118895528D01*
X203796980Y-118905481D01*
X203873505Y-119020008D01*
X203930794Y-119158317D01*
X203960000Y-119305145D01*
X203960000Y-119454855D01*
X203930794Y-119601683D01*
X203873505Y-119739992D01*
X203873503Y-119739995D01*
X203796980Y-119854520D01*
X203790327Y-119864476D01*
X203684476Y-119970327D01*
X203684473Y-119970329D01*
X203684472Y-119970330D01*
X203559995Y-120053503D01*
X203559992Y-120053505D01*
X203421683Y-120110794D01*
X203274855Y-120140000D01*
X203125145Y-120140000D01*
X202978317Y-120110794D01*
X202840008Y-120053505D01*
X202840005Y-120053503D01*
X202715528Y-119970330D01*
X202715527Y-119970329D01*
X202715524Y-119970327D01*
X202609673Y-119864476D01*
X202603021Y-119854520D01*
X202526497Y-119739995D01*
X202526495Y-119739992D01*
X202469206Y-119601683D01*
X202440000Y-119454855D01*
X202440000Y-119305145D01*
X202469206Y-119158317D01*
X202526495Y-119020008D01*
X202603020Y-118905481D01*
X202609670Y-118895528D01*
X202609671Y-118895527D01*
X202609673Y-118895524D01*
X202715524Y-118789673D01*
X202735911Y-118776051D01*
X202840005Y-118706497D01*
X202840008Y-118706495D01*
X202978317Y-118649206D01*
X203125145Y-118620000D01*
X203274855Y-118620000D01*
X203421683Y-118649206D01*
X203421683Y-118649206D01*
G37*
G36*
X200881683Y-118649206D02*
X201019992Y-118706495D01*
X201019995Y-118706497D01*
X201124090Y-118776051D01*
X201144476Y-118789673D01*
X201250327Y-118895524D01*
X201250329Y-118895527D01*
X201250330Y-118895528D01*
X201256980Y-118905481D01*
X201333505Y-119020008D01*
X201390794Y-119158317D01*
X201420000Y-119305145D01*
X201420000Y-119454855D01*
X201390794Y-119601683D01*
X201333505Y-119739992D01*
X201333503Y-119739995D01*
X201256980Y-119854520D01*
X201250327Y-119864476D01*
X201144476Y-119970327D01*
X201144473Y-119970329D01*
X201144472Y-119970330D01*
X201019995Y-120053503D01*
X201019992Y-120053505D01*
X200881683Y-120110794D01*
X200734855Y-120140000D01*
X200585145Y-120140000D01*
X200438317Y-120110794D01*
X200300008Y-120053505D01*
X200300005Y-120053503D01*
X200175528Y-119970330D01*
X200175527Y-119970329D01*
X200175524Y-119970327D01*
X200069673Y-119864476D01*
X200063021Y-119854520D01*
X199986497Y-119739995D01*
X199986495Y-119739992D01*
X199929206Y-119601683D01*
X199900000Y-119454855D01*
X199900000Y-119305145D01*
X199929206Y-119158317D01*
X199986495Y-119020008D01*
X200063020Y-118905481D01*
X200069670Y-118895528D01*
X200069671Y-118895527D01*
X200069673Y-118895524D01*
X200175524Y-118789673D01*
X200195911Y-118776051D01*
X200300005Y-118706497D01*
X200300008Y-118706495D01*
X200438317Y-118649206D01*
X200585145Y-118620000D01*
X200734855Y-118620000D01*
X200881683Y-118649206D01*
X200881683Y-118649206D01*
G37*
G36*
X198341683Y-118649206D02*
X198479992Y-118706495D01*
X198479995Y-118706497D01*
X198584090Y-118776051D01*
X198604476Y-118789673D01*
X198710327Y-118895524D01*
X198710329Y-118895527D01*
X198710330Y-118895528D01*
X198716980Y-118905481D01*
X198793505Y-119020008D01*
X198850794Y-119158317D01*
X198880000Y-119305145D01*
X198880000Y-119454855D01*
X198850794Y-119601683D01*
X198793505Y-119739992D01*
X198793503Y-119739995D01*
X198716980Y-119854520D01*
X198710327Y-119864476D01*
X198604476Y-119970327D01*
X198604473Y-119970329D01*
X198604472Y-119970330D01*
X198479995Y-120053503D01*
X198479992Y-120053505D01*
X198341683Y-120110794D01*
X198194855Y-120140000D01*
X198045145Y-120140000D01*
X197898317Y-120110794D01*
X197760008Y-120053505D01*
X197760005Y-120053503D01*
X197635528Y-119970330D01*
X197635527Y-119970329D01*
X197635524Y-119970327D01*
X197529673Y-119864476D01*
X197523021Y-119854520D01*
X197446497Y-119739995D01*
X197446495Y-119739992D01*
X197389206Y-119601683D01*
X197360000Y-119454855D01*
X197360000Y-119305145D01*
X197389206Y-119158317D01*
X197446495Y-119020008D01*
X197523020Y-118905481D01*
X197529670Y-118895528D01*
X197529671Y-118895527D01*
X197529673Y-118895524D01*
X197635524Y-118789673D01*
X197655911Y-118776051D01*
X197760005Y-118706497D01*
X197760008Y-118706495D01*
X197898317Y-118649206D01*
X198045145Y-118620000D01*
X198194855Y-118620000D01*
X198341683Y-118649206D01*
X198341683Y-118649206D01*
G37*
G36*
X195801683Y-118649206D02*
X195939992Y-118706495D01*
X195939995Y-118706497D01*
X196044090Y-118776051D01*
X196064476Y-118789673D01*
X196170327Y-118895524D01*
X196170329Y-118895527D01*
X196170330Y-118895528D01*
X196176980Y-118905481D01*
X196253505Y-119020008D01*
X196310794Y-119158317D01*
X196340000Y-119305145D01*
X196340000Y-119454855D01*
X196310794Y-119601683D01*
X196253505Y-119739992D01*
X196253503Y-119739995D01*
X196176980Y-119854520D01*
X196170327Y-119864476D01*
X196064476Y-119970327D01*
X196064473Y-119970329D01*
X196064472Y-119970330D01*
X195939995Y-120053503D01*
X195939992Y-120053505D01*
X195801683Y-120110794D01*
X195654855Y-120140000D01*
X195505145Y-120140000D01*
X195358317Y-120110794D01*
X195220008Y-120053505D01*
X195220005Y-120053503D01*
X195095528Y-119970330D01*
X195095527Y-119970329D01*
X195095524Y-119970327D01*
X194989673Y-119864476D01*
X194983021Y-119854520D01*
X194906497Y-119739995D01*
X194906495Y-119739992D01*
X194849206Y-119601683D01*
X194820000Y-119454855D01*
X194820000Y-119305145D01*
X194849206Y-119158317D01*
X194906495Y-119020008D01*
X194983020Y-118905481D01*
X194989670Y-118895528D01*
X194989671Y-118895527D01*
X194989673Y-118895524D01*
X195095524Y-118789673D01*
X195115911Y-118776051D01*
X195220005Y-118706497D01*
X195220008Y-118706495D01*
X195358317Y-118649206D01*
X195505145Y-118620000D01*
X195654855Y-118620000D01*
X195801683Y-118649206D01*
X195801683Y-118649206D01*
G37*
G36*
X193261683Y-118649206D02*
X193399992Y-118706495D01*
X193399995Y-118706497D01*
X193504090Y-118776051D01*
X193524476Y-118789673D01*
X193630327Y-118895524D01*
X193630329Y-118895527D01*
X193630330Y-118895528D01*
X193636980Y-118905481D01*
X193713505Y-119020008D01*
X193770794Y-119158317D01*
X193800000Y-119305145D01*
X193800000Y-119454855D01*
X193770794Y-119601683D01*
X193713505Y-119739992D01*
X193713503Y-119739995D01*
X193636980Y-119854520D01*
X193630327Y-119864476D01*
X193524476Y-119970327D01*
X193524473Y-119970329D01*
X193524472Y-119970330D01*
X193399995Y-120053503D01*
X193399992Y-120053505D01*
X193261683Y-120110794D01*
X193114855Y-120140000D01*
X192965145Y-120140000D01*
X192818317Y-120110794D01*
X192680008Y-120053505D01*
X192680005Y-120053503D01*
X192555528Y-119970330D01*
X192555527Y-119970329D01*
X192555524Y-119970327D01*
X192449673Y-119864476D01*
X192443021Y-119854520D01*
X192366497Y-119739995D01*
X192366495Y-119739992D01*
X192309206Y-119601683D01*
X192280000Y-119454855D01*
X192280000Y-119305145D01*
X192309206Y-119158317D01*
X192366495Y-119020008D01*
X192443020Y-118905481D01*
X192449670Y-118895528D01*
X192449671Y-118895527D01*
X192449673Y-118895524D01*
X192555524Y-118789673D01*
X192575911Y-118776051D01*
X192680005Y-118706497D01*
X192680008Y-118706495D01*
X192818317Y-118649206D01*
X192965145Y-118620000D01*
X193114855Y-118620000D01*
X193261683Y-118649206D01*
X193261683Y-118649206D01*
G37*
G36*
X173480000Y-120140000D02*
X171960000Y-120140000D01*
X171960000Y-118620000D01*
X173480000Y-118620000D01*
X173480000Y-120140000D01*
X173480000Y-120140000D01*
G37*
G36*
X175481683Y-118649206D02*
X175619992Y-118706495D01*
X175619995Y-118706497D01*
X175724090Y-118776051D01*
X175744476Y-118789673D01*
X175850327Y-118895524D01*
X175850329Y-118895527D01*
X175850330Y-118895528D01*
X175856980Y-118905481D01*
X175933505Y-119020008D01*
X175990794Y-119158317D01*
X176020000Y-119305145D01*
X176020000Y-119454855D01*
X175990794Y-119601683D01*
X175933505Y-119739992D01*
X175933503Y-119739995D01*
X175856980Y-119854520D01*
X175850327Y-119864476D01*
X175744476Y-119970327D01*
X175744473Y-119970329D01*
X175744472Y-119970330D01*
X175619995Y-120053503D01*
X175619992Y-120053505D01*
X175481683Y-120110794D01*
X175334855Y-120140000D01*
X175185145Y-120140000D01*
X175038317Y-120110794D01*
X174900008Y-120053505D01*
X174900005Y-120053503D01*
X174775528Y-119970330D01*
X174775527Y-119970329D01*
X174775524Y-119970327D01*
X174669673Y-119864476D01*
X174663021Y-119854520D01*
X174586497Y-119739995D01*
X174586495Y-119739992D01*
X174529206Y-119601683D01*
X174500000Y-119454855D01*
X174500000Y-119305145D01*
X174529206Y-119158317D01*
X174586495Y-119020008D01*
X174663020Y-118905481D01*
X174669670Y-118895528D01*
X174669671Y-118895527D01*
X174669673Y-118895524D01*
X174775524Y-118789673D01*
X174795911Y-118776051D01*
X174900005Y-118706497D01*
X174900008Y-118706495D01*
X175038317Y-118649206D01*
X175185145Y-118620000D01*
X175334855Y-118620000D01*
X175481683Y-118649206D01*
X175481683Y-118649206D01*
G37*
G36*
X178021683Y-118649206D02*
X178159992Y-118706495D01*
X178159995Y-118706497D01*
X178264090Y-118776051D01*
X178284476Y-118789673D01*
X178390327Y-118895524D01*
X178390329Y-118895527D01*
X178390330Y-118895528D01*
X178396980Y-118905481D01*
X178473505Y-119020008D01*
X178530794Y-119158317D01*
X178560000Y-119305145D01*
X178560000Y-119454855D01*
X178530794Y-119601683D01*
X178473505Y-119739992D01*
X178473503Y-119739995D01*
X178396980Y-119854520D01*
X178390327Y-119864476D01*
X178284476Y-119970327D01*
X178284473Y-119970329D01*
X178284472Y-119970330D01*
X178159995Y-120053503D01*
X178159992Y-120053505D01*
X178021683Y-120110794D01*
X177874855Y-120140000D01*
X177725145Y-120140000D01*
X177578317Y-120110794D01*
X177440008Y-120053505D01*
X177440005Y-120053503D01*
X177315528Y-119970330D01*
X177315527Y-119970329D01*
X177315524Y-119970327D01*
X177209673Y-119864476D01*
X177203021Y-119854520D01*
X177126497Y-119739995D01*
X177126495Y-119739992D01*
X177069206Y-119601683D01*
X177040000Y-119454855D01*
X177040000Y-119305145D01*
X177069206Y-119158317D01*
X177126495Y-119020008D01*
X177203020Y-118905481D01*
X177209670Y-118895528D01*
X177209671Y-118895527D01*
X177209673Y-118895524D01*
X177315524Y-118789673D01*
X177335911Y-118776051D01*
X177440005Y-118706497D01*
X177440008Y-118706495D01*
X177578317Y-118649206D01*
X177725145Y-118620000D01*
X177874855Y-118620000D01*
X178021683Y-118649206D01*
X178021683Y-118649206D01*
G37*
G36*
X180561683Y-118649206D02*
X180699992Y-118706495D01*
X180699995Y-118706497D01*
X180804090Y-118776051D01*
X180824476Y-118789673D01*
X180930327Y-118895524D01*
X180930329Y-118895527D01*
X180930330Y-118895528D01*
X180936980Y-118905481D01*
X181013505Y-119020008D01*
X181070794Y-119158317D01*
X181100000Y-119305145D01*
X181100000Y-119454855D01*
X181070794Y-119601683D01*
X181013505Y-119739992D01*
X181013503Y-119739995D01*
X180936980Y-119854520D01*
X180930327Y-119864476D01*
X180824476Y-119970327D01*
X180824473Y-119970329D01*
X180824472Y-119970330D01*
X180699995Y-120053503D01*
X180699992Y-120053505D01*
X180561683Y-120110794D01*
X180414855Y-120140000D01*
X180265145Y-120140000D01*
X180118317Y-120110794D01*
X179980008Y-120053505D01*
X179980005Y-120053503D01*
X179855528Y-119970330D01*
X179855527Y-119970329D01*
X179855524Y-119970327D01*
X179749673Y-119864476D01*
X179743021Y-119854520D01*
X179666497Y-119739995D01*
X179666495Y-119739992D01*
X179609206Y-119601683D01*
X179580000Y-119454855D01*
X179580000Y-119305145D01*
X179609206Y-119158317D01*
X179666495Y-119020008D01*
X179743020Y-118905481D01*
X179749670Y-118895528D01*
X179749671Y-118895527D01*
X179749673Y-118895524D01*
X179855524Y-118789673D01*
X179875911Y-118776051D01*
X179980005Y-118706497D01*
X179980008Y-118706495D01*
X180118317Y-118649206D01*
X180265145Y-118620000D01*
X180414855Y-118620000D01*
X180561683Y-118649206D01*
X180561683Y-118649206D01*
G37*
G36*
X183101683Y-118649206D02*
X183239992Y-118706495D01*
X183239995Y-118706497D01*
X183344090Y-118776051D01*
X183364476Y-118789673D01*
X183470327Y-118895524D01*
X183470329Y-118895527D01*
X183470330Y-118895528D01*
X183476980Y-118905481D01*
X183553505Y-119020008D01*
X183610794Y-119158317D01*
X183640000Y-119305145D01*
X183640000Y-119454855D01*
X183610794Y-119601683D01*
X183553505Y-119739992D01*
X183553503Y-119739995D01*
X183476980Y-119854520D01*
X183470327Y-119864476D01*
X183364476Y-119970327D01*
X183364473Y-119970329D01*
X183364472Y-119970330D01*
X183239995Y-120053503D01*
X183239992Y-120053505D01*
X183101683Y-120110794D01*
X182954855Y-120140000D01*
X182805145Y-120140000D01*
X182658317Y-120110794D01*
X182520008Y-120053505D01*
X182520005Y-120053503D01*
X182395528Y-119970330D01*
X182395527Y-119970329D01*
X182395524Y-119970327D01*
X182289673Y-119864476D01*
X182283021Y-119854520D01*
X182206497Y-119739995D01*
X182206495Y-119739992D01*
X182149206Y-119601683D01*
X182120000Y-119454855D01*
X182120000Y-119305145D01*
X182149206Y-119158317D01*
X182206495Y-119020008D01*
X182283020Y-118905481D01*
X182289670Y-118895528D01*
X182289671Y-118895527D01*
X182289673Y-118895524D01*
X182395524Y-118789673D01*
X182415911Y-118776051D01*
X182520005Y-118706497D01*
X182520008Y-118706495D01*
X182658317Y-118649206D01*
X182805145Y-118620000D01*
X182954855Y-118620000D01*
X183101683Y-118649206D01*
X183101683Y-118649206D01*
G37*
G36*
X185641683Y-118649206D02*
X185779992Y-118706495D01*
X185779995Y-118706497D01*
X185884090Y-118776051D01*
X185904476Y-118789673D01*
X186010327Y-118895524D01*
X186010329Y-118895527D01*
X186010330Y-118895528D01*
X186016980Y-118905481D01*
X186093505Y-119020008D01*
X186150794Y-119158317D01*
X186180000Y-119305145D01*
X186180000Y-119454855D01*
X186150794Y-119601683D01*
X186093505Y-119739992D01*
X186093503Y-119739995D01*
X186016980Y-119854520D01*
X186010327Y-119864476D01*
X185904476Y-119970327D01*
X185904473Y-119970329D01*
X185904472Y-119970330D01*
X185779995Y-120053503D01*
X185779992Y-120053505D01*
X185641683Y-120110794D01*
X185494855Y-120140000D01*
X185345145Y-120140000D01*
X185198317Y-120110794D01*
X185060008Y-120053505D01*
X185060005Y-120053503D01*
X184935528Y-119970330D01*
X184935527Y-119970329D01*
X184935524Y-119970327D01*
X184829673Y-119864476D01*
X184823021Y-119854520D01*
X184746497Y-119739995D01*
X184746495Y-119739992D01*
X184689206Y-119601683D01*
X184660000Y-119454855D01*
X184660000Y-119305145D01*
X184689206Y-119158317D01*
X184746495Y-119020008D01*
X184823020Y-118905481D01*
X184829670Y-118895528D01*
X184829671Y-118895527D01*
X184829673Y-118895524D01*
X184935524Y-118789673D01*
X184955911Y-118776051D01*
X185060005Y-118706497D01*
X185060008Y-118706495D01*
X185198317Y-118649206D01*
X185345145Y-118620000D01*
X185494855Y-118620000D01*
X185641683Y-118649206D01*
X185641683Y-118649206D01*
G37*
G36*
X188181683Y-118649206D02*
X188319992Y-118706495D01*
X188319995Y-118706497D01*
X188424090Y-118776051D01*
X188444476Y-118789673D01*
X188550327Y-118895524D01*
X188550329Y-118895527D01*
X188550330Y-118895528D01*
X188556980Y-118905481D01*
X188633505Y-119020008D01*
X188690794Y-119158317D01*
X188720000Y-119305145D01*
X188720000Y-119454855D01*
X188690794Y-119601683D01*
X188633505Y-119739992D01*
X188633503Y-119739995D01*
X188556980Y-119854520D01*
X188550327Y-119864476D01*
X188444476Y-119970327D01*
X188444473Y-119970329D01*
X188444472Y-119970330D01*
X188319995Y-120053503D01*
X188319992Y-120053505D01*
X188181683Y-120110794D01*
X188034855Y-120140000D01*
X187885145Y-120140000D01*
X187738317Y-120110794D01*
X187600008Y-120053505D01*
X187600005Y-120053503D01*
X187475528Y-119970330D01*
X187475527Y-119970329D01*
X187475524Y-119970327D01*
X187369673Y-119864476D01*
X187363021Y-119854520D01*
X187286497Y-119739995D01*
X187286495Y-119739992D01*
X187229206Y-119601683D01*
X187200000Y-119454855D01*
X187200000Y-119305145D01*
X187229206Y-119158317D01*
X187286495Y-119020008D01*
X187363020Y-118905481D01*
X187369670Y-118895528D01*
X187369671Y-118895527D01*
X187369673Y-118895524D01*
X187475524Y-118789673D01*
X187495911Y-118776051D01*
X187600005Y-118706497D01*
X187600008Y-118706495D01*
X187738317Y-118649206D01*
X187885145Y-118620000D01*
X188034855Y-118620000D01*
X188181683Y-118649206D01*
X188181683Y-118649206D01*
G37*
G36*
X213581683Y-118649206D02*
X213719992Y-118706495D01*
X213719995Y-118706497D01*
X213824090Y-118776051D01*
X213844476Y-118789673D01*
X213950327Y-118895524D01*
X213950329Y-118895527D01*
X213950330Y-118895528D01*
X213956980Y-118905481D01*
X214033505Y-119020008D01*
X214090794Y-119158317D01*
X214120000Y-119305145D01*
X214120000Y-119454855D01*
X214090794Y-119601683D01*
X214033505Y-119739992D01*
X214033503Y-119739995D01*
X213956980Y-119854520D01*
X213950327Y-119864476D01*
X213844476Y-119970327D01*
X213844473Y-119970329D01*
X213844472Y-119970330D01*
X213719995Y-120053503D01*
X213719992Y-120053505D01*
X213581683Y-120110794D01*
X213434855Y-120140000D01*
X213285145Y-120140000D01*
X213138317Y-120110794D01*
X213000008Y-120053505D01*
X213000005Y-120053503D01*
X212875528Y-119970330D01*
X212875527Y-119970329D01*
X212875524Y-119970327D01*
X212769673Y-119864476D01*
X212763021Y-119854520D01*
X212686497Y-119739995D01*
X212686495Y-119739992D01*
X212629206Y-119601683D01*
X212600000Y-119454855D01*
X212600000Y-119305145D01*
X212629206Y-119158317D01*
X212686495Y-119020008D01*
X212763020Y-118905481D01*
X212769670Y-118895528D01*
X212769671Y-118895527D01*
X212769673Y-118895524D01*
X212875524Y-118789673D01*
X212895911Y-118776051D01*
X213000005Y-118706497D01*
X213000008Y-118706495D01*
X213138317Y-118649206D01*
X213285145Y-118620000D01*
X213434855Y-118620000D01*
X213581683Y-118649206D01*
X213581683Y-118649206D01*
G37*
G36*
X190721683Y-118649206D02*
X190859992Y-118706495D01*
X190859995Y-118706497D01*
X190964090Y-118776051D01*
X190984476Y-118789673D01*
X191090327Y-118895524D01*
X191090329Y-118895527D01*
X191090330Y-118895528D01*
X191096980Y-118905481D01*
X191173505Y-119020008D01*
X191230794Y-119158317D01*
X191260000Y-119305145D01*
X191260000Y-119454855D01*
X191230794Y-119601683D01*
X191173505Y-119739992D01*
X191173503Y-119739995D01*
X191096980Y-119854520D01*
X191090327Y-119864476D01*
X190984476Y-119970327D01*
X190984473Y-119970329D01*
X190984472Y-119970330D01*
X190859995Y-120053503D01*
X190859992Y-120053505D01*
X190721683Y-120110794D01*
X190574855Y-120140000D01*
X190425145Y-120140000D01*
X190278317Y-120110794D01*
X190140008Y-120053505D01*
X190140005Y-120053503D01*
X190015528Y-119970330D01*
X190015527Y-119970329D01*
X190015524Y-119970327D01*
X189909673Y-119864476D01*
X189903021Y-119854520D01*
X189826497Y-119739995D01*
X189826495Y-119739992D01*
X189769206Y-119601683D01*
X189740000Y-119454855D01*
X189740000Y-119305145D01*
X189769206Y-119158317D01*
X189826495Y-119020008D01*
X189903020Y-118905481D01*
X189909670Y-118895528D01*
X189909671Y-118895527D01*
X189909673Y-118895524D01*
X190015524Y-118789673D01*
X190035911Y-118776051D01*
X190140005Y-118706497D01*
X190140008Y-118706495D01*
X190278317Y-118649206D01*
X190425145Y-118620000D01*
X190574855Y-118620000D01*
X190721683Y-118649206D01*
X190721683Y-118649206D01*
G37*
G36*
X137326630Y-116002299D02*
X137486855Y-116050903D01*
X137634520Y-116129831D01*
X137763949Y-116236051D01*
X137870169Y-116365480D01*
X137949097Y-116513145D01*
X137997701Y-116673370D01*
X138014112Y-116840000D01*
X137997701Y-117006630D01*
X137949097Y-117166855D01*
X137870169Y-117314520D01*
X137763949Y-117443949D01*
X137634520Y-117550169D01*
X137486855Y-117629097D01*
X137326630Y-117677701D01*
X137201752Y-117690000D01*
X137118248Y-117690000D01*
X136993370Y-117677701D01*
X136833145Y-117629097D01*
X136685480Y-117550169D01*
X136556051Y-117443949D01*
X136449831Y-117314520D01*
X136370903Y-117166855D01*
X136322299Y-117006630D01*
X136305888Y-116840000D01*
X136322299Y-116673370D01*
X136370903Y-116513145D01*
X136449831Y-116365480D01*
X136556051Y-116236051D01*
X136685480Y-116129831D01*
X136833145Y-116050903D01*
X136993370Y-116002299D01*
X137118248Y-115990000D01*
X137201752Y-115990000D01*
X137326630Y-116002299D01*
X137326630Y-116002299D01*
G37*
G36*
X205961683Y-116109206D02*
X206099992Y-116166495D01*
X206099995Y-116166497D01*
X206204090Y-116236051D01*
X206224476Y-116249673D01*
X206330327Y-116355524D01*
X206330329Y-116355527D01*
X206330330Y-116355528D01*
X206336980Y-116365481D01*
X206413505Y-116480008D01*
X206470794Y-116618317D01*
X206500000Y-116765145D01*
X206500000Y-116914855D01*
X206470794Y-117061683D01*
X206413505Y-117199992D01*
X206413503Y-117199995D01*
X206336980Y-117314520D01*
X206330327Y-117324476D01*
X206224476Y-117430327D01*
X206224473Y-117430329D01*
X206224472Y-117430330D01*
X206099995Y-117513503D01*
X206099992Y-117513505D01*
X205961683Y-117570794D01*
X205814855Y-117600000D01*
X205665145Y-117600000D01*
X205518317Y-117570794D01*
X205380008Y-117513505D01*
X205380005Y-117513503D01*
X205255528Y-117430330D01*
X205255527Y-117430329D01*
X205255524Y-117430327D01*
X205149673Y-117324476D01*
X205143021Y-117314520D01*
X205066497Y-117199995D01*
X205066495Y-117199992D01*
X205009206Y-117061683D01*
X204980000Y-116914855D01*
X204980000Y-116765145D01*
X205009206Y-116618317D01*
X205066495Y-116480008D01*
X205143020Y-116365481D01*
X205149670Y-116355528D01*
X205149671Y-116355527D01*
X205149673Y-116355524D01*
X205255524Y-116249673D01*
X205275911Y-116236051D01*
X205380005Y-116166497D01*
X205380008Y-116166495D01*
X205518317Y-116109206D01*
X205665145Y-116080000D01*
X205814855Y-116080000D01*
X205961683Y-116109206D01*
X205961683Y-116109206D01*
G37*
G36*
X208501683Y-116109206D02*
X208639992Y-116166495D01*
X208639995Y-116166497D01*
X208744090Y-116236051D01*
X208764476Y-116249673D01*
X208870327Y-116355524D01*
X208870329Y-116355527D01*
X208870330Y-116355528D01*
X208876980Y-116365481D01*
X208953505Y-116480008D01*
X209010794Y-116618317D01*
X209040000Y-116765145D01*
X209040000Y-116914855D01*
X209010794Y-117061683D01*
X208953505Y-117199992D01*
X208953503Y-117199995D01*
X208876980Y-117314520D01*
X208870327Y-117324476D01*
X208764476Y-117430327D01*
X208764473Y-117430329D01*
X208764472Y-117430330D01*
X208639995Y-117513503D01*
X208639992Y-117513505D01*
X208501683Y-117570794D01*
X208354855Y-117600000D01*
X208205145Y-117600000D01*
X208058317Y-117570794D01*
X207920008Y-117513505D01*
X207920005Y-117513503D01*
X207795528Y-117430330D01*
X207795527Y-117430329D01*
X207795524Y-117430327D01*
X207689673Y-117324476D01*
X207683021Y-117314520D01*
X207606497Y-117199995D01*
X207606495Y-117199992D01*
X207549206Y-117061683D01*
X207520000Y-116914855D01*
X207520000Y-116765145D01*
X207549206Y-116618317D01*
X207606495Y-116480008D01*
X207683020Y-116365481D01*
X207689670Y-116355528D01*
X207689671Y-116355527D01*
X207689673Y-116355524D01*
X207795524Y-116249673D01*
X207815911Y-116236051D01*
X207920005Y-116166497D01*
X207920008Y-116166495D01*
X208058317Y-116109206D01*
X208205145Y-116080000D01*
X208354855Y-116080000D01*
X208501683Y-116109206D01*
X208501683Y-116109206D01*
G37*
G36*
X178021683Y-116109206D02*
X178159992Y-116166495D01*
X178159995Y-116166497D01*
X178264090Y-116236051D01*
X178284476Y-116249673D01*
X178390327Y-116355524D01*
X178390329Y-116355527D01*
X178390330Y-116355528D01*
X178396980Y-116365481D01*
X178473505Y-116480008D01*
X178530794Y-116618317D01*
X178560000Y-116765145D01*
X178560000Y-116914855D01*
X178530794Y-117061683D01*
X178473505Y-117199992D01*
X178473503Y-117199995D01*
X178396980Y-117314520D01*
X178390327Y-117324476D01*
X178284476Y-117430327D01*
X178284473Y-117430329D01*
X178284472Y-117430330D01*
X178159995Y-117513503D01*
X178159992Y-117513505D01*
X178021683Y-117570794D01*
X177874855Y-117600000D01*
X177725145Y-117600000D01*
X177578317Y-117570794D01*
X177440008Y-117513505D01*
X177440005Y-117513503D01*
X177315528Y-117430330D01*
X177315527Y-117430329D01*
X177315524Y-117430327D01*
X177209673Y-117324476D01*
X177203021Y-117314520D01*
X177126497Y-117199995D01*
X177126495Y-117199992D01*
X177069206Y-117061683D01*
X177040000Y-116914855D01*
X177040000Y-116765145D01*
X177069206Y-116618317D01*
X177126495Y-116480008D01*
X177203020Y-116365481D01*
X177209670Y-116355528D01*
X177209671Y-116355527D01*
X177209673Y-116355524D01*
X177315524Y-116249673D01*
X177335911Y-116236051D01*
X177440005Y-116166497D01*
X177440008Y-116166495D01*
X177578317Y-116109206D01*
X177725145Y-116080000D01*
X177874855Y-116080000D01*
X178021683Y-116109206D01*
X178021683Y-116109206D01*
G37*
G36*
X175481683Y-116109206D02*
X175619992Y-116166495D01*
X175619995Y-116166497D01*
X175724090Y-116236051D01*
X175744476Y-116249673D01*
X175850327Y-116355524D01*
X175850329Y-116355527D01*
X175850330Y-116355528D01*
X175856980Y-116365481D01*
X175933505Y-116480008D01*
X175990794Y-116618317D01*
X176020000Y-116765145D01*
X176020000Y-116914855D01*
X175990794Y-117061683D01*
X175933505Y-117199992D01*
X175933503Y-117199995D01*
X175856980Y-117314520D01*
X175850327Y-117324476D01*
X175744476Y-117430327D01*
X175744473Y-117430329D01*
X175744472Y-117430330D01*
X175619995Y-117513503D01*
X175619992Y-117513505D01*
X175481683Y-117570794D01*
X175334855Y-117600000D01*
X175185145Y-117600000D01*
X175038317Y-117570794D01*
X174900008Y-117513505D01*
X174900005Y-117513503D01*
X174775528Y-117430330D01*
X174775527Y-117430329D01*
X174775524Y-117430327D01*
X174669673Y-117324476D01*
X174663021Y-117314520D01*
X174586497Y-117199995D01*
X174586495Y-117199992D01*
X174529206Y-117061683D01*
X174500000Y-116914855D01*
X174500000Y-116765145D01*
X174529206Y-116618317D01*
X174586495Y-116480008D01*
X174663020Y-116365481D01*
X174669670Y-116355528D01*
X174669671Y-116355527D01*
X174669673Y-116355524D01*
X174775524Y-116249673D01*
X174795911Y-116236051D01*
X174900005Y-116166497D01*
X174900008Y-116166495D01*
X175038317Y-116109206D01*
X175185145Y-116080000D01*
X175334855Y-116080000D01*
X175481683Y-116109206D01*
X175481683Y-116109206D01*
G37*
G36*
X172941683Y-116109206D02*
X173079992Y-116166495D01*
X173079995Y-116166497D01*
X173184090Y-116236051D01*
X173204476Y-116249673D01*
X173310327Y-116355524D01*
X173310329Y-116355527D01*
X173310330Y-116355528D01*
X173316980Y-116365481D01*
X173393505Y-116480008D01*
X173450794Y-116618317D01*
X173480000Y-116765145D01*
X173480000Y-116914855D01*
X173450794Y-117061683D01*
X173393505Y-117199992D01*
X173393503Y-117199995D01*
X173316980Y-117314520D01*
X173310327Y-117324476D01*
X173204476Y-117430327D01*
X173204473Y-117430329D01*
X173204472Y-117430330D01*
X173079995Y-117513503D01*
X173079992Y-117513505D01*
X172941683Y-117570794D01*
X172794855Y-117600000D01*
X172645145Y-117600000D01*
X172498317Y-117570794D01*
X172360008Y-117513505D01*
X172360005Y-117513503D01*
X172235528Y-117430330D01*
X172235527Y-117430329D01*
X172235524Y-117430327D01*
X172129673Y-117324476D01*
X172123021Y-117314520D01*
X172046497Y-117199995D01*
X172046495Y-117199992D01*
X171989206Y-117061683D01*
X171960000Y-116914855D01*
X171960000Y-116765145D01*
X171989206Y-116618317D01*
X172046495Y-116480008D01*
X172123020Y-116365481D01*
X172129670Y-116355528D01*
X172129671Y-116355527D01*
X172129673Y-116355524D01*
X172235524Y-116249673D01*
X172255911Y-116236051D01*
X172360005Y-116166497D01*
X172360008Y-116166495D01*
X172498317Y-116109206D01*
X172645145Y-116080000D01*
X172794855Y-116080000D01*
X172941683Y-116109206D01*
X172941683Y-116109206D01*
G37*
G36*
X180561683Y-116109206D02*
X180699992Y-116166495D01*
X180699995Y-116166497D01*
X180804090Y-116236051D01*
X180824476Y-116249673D01*
X180930327Y-116355524D01*
X180930329Y-116355527D01*
X180930330Y-116355528D01*
X180936980Y-116365481D01*
X181013505Y-116480008D01*
X181070794Y-116618317D01*
X181100000Y-116765145D01*
X181100000Y-116914855D01*
X181070794Y-117061683D01*
X181013505Y-117199992D01*
X181013503Y-117199995D01*
X180936980Y-117314520D01*
X180930327Y-117324476D01*
X180824476Y-117430327D01*
X180824473Y-117430329D01*
X180824472Y-117430330D01*
X180699995Y-117513503D01*
X180699992Y-117513505D01*
X180561683Y-117570794D01*
X180414855Y-117600000D01*
X180265145Y-117600000D01*
X180118317Y-117570794D01*
X179980008Y-117513505D01*
X179980005Y-117513503D01*
X179855528Y-117430330D01*
X179855527Y-117430329D01*
X179855524Y-117430327D01*
X179749673Y-117324476D01*
X179743021Y-117314520D01*
X179666497Y-117199995D01*
X179666495Y-117199992D01*
X179609206Y-117061683D01*
X179580000Y-116914855D01*
X179580000Y-116765145D01*
X179609206Y-116618317D01*
X179666495Y-116480008D01*
X179743020Y-116365481D01*
X179749670Y-116355528D01*
X179749671Y-116355527D01*
X179749673Y-116355524D01*
X179855524Y-116249673D01*
X179875911Y-116236051D01*
X179980005Y-116166497D01*
X179980008Y-116166495D01*
X180118317Y-116109206D01*
X180265145Y-116080000D01*
X180414855Y-116080000D01*
X180561683Y-116109206D01*
X180561683Y-116109206D01*
G37*
G36*
X183101683Y-116109206D02*
X183239992Y-116166495D01*
X183239995Y-116166497D01*
X183344090Y-116236051D01*
X183364476Y-116249673D01*
X183470327Y-116355524D01*
X183470329Y-116355527D01*
X183470330Y-116355528D01*
X183476980Y-116365481D01*
X183553505Y-116480008D01*
X183610794Y-116618317D01*
X183640000Y-116765145D01*
X183640000Y-116914855D01*
X183610794Y-117061683D01*
X183553505Y-117199992D01*
X183553503Y-117199995D01*
X183476980Y-117314520D01*
X183470327Y-117324476D01*
X183364476Y-117430327D01*
X183364473Y-117430329D01*
X183364472Y-117430330D01*
X183239995Y-117513503D01*
X183239992Y-117513505D01*
X183101683Y-117570794D01*
X182954855Y-117600000D01*
X182805145Y-117600000D01*
X182658317Y-117570794D01*
X182520008Y-117513505D01*
X182520005Y-117513503D01*
X182395528Y-117430330D01*
X182395527Y-117430329D01*
X182395524Y-117430327D01*
X182289673Y-117324476D01*
X182283021Y-117314520D01*
X182206497Y-117199995D01*
X182206495Y-117199992D01*
X182149206Y-117061683D01*
X182120000Y-116914855D01*
X182120000Y-116765145D01*
X182149206Y-116618317D01*
X182206495Y-116480008D01*
X182283020Y-116365481D01*
X182289670Y-116355528D01*
X182289671Y-116355527D01*
X182289673Y-116355524D01*
X182395524Y-116249673D01*
X182415911Y-116236051D01*
X182520005Y-116166497D01*
X182520008Y-116166495D01*
X182658317Y-116109206D01*
X182805145Y-116080000D01*
X182954855Y-116080000D01*
X183101683Y-116109206D01*
X183101683Y-116109206D01*
G37*
G36*
X188181683Y-116109206D02*
X188319992Y-116166495D01*
X188319995Y-116166497D01*
X188424090Y-116236051D01*
X188444476Y-116249673D01*
X188550327Y-116355524D01*
X188550329Y-116355527D01*
X188550330Y-116355528D01*
X188556980Y-116365481D01*
X188633505Y-116480008D01*
X188690794Y-116618317D01*
X188720000Y-116765145D01*
X188720000Y-116914855D01*
X188690794Y-117061683D01*
X188633505Y-117199992D01*
X188633503Y-117199995D01*
X188556980Y-117314520D01*
X188550327Y-117324476D01*
X188444476Y-117430327D01*
X188444473Y-117430329D01*
X188444472Y-117430330D01*
X188319995Y-117513503D01*
X188319992Y-117513505D01*
X188181683Y-117570794D01*
X188034855Y-117600000D01*
X187885145Y-117600000D01*
X187738317Y-117570794D01*
X187600008Y-117513505D01*
X187600005Y-117513503D01*
X187475528Y-117430330D01*
X187475527Y-117430329D01*
X187475524Y-117430327D01*
X187369673Y-117324476D01*
X187363021Y-117314520D01*
X187286497Y-117199995D01*
X187286495Y-117199992D01*
X187229206Y-117061683D01*
X187200000Y-116914855D01*
X187200000Y-116765145D01*
X187229206Y-116618317D01*
X187286495Y-116480008D01*
X187363020Y-116365481D01*
X187369670Y-116355528D01*
X187369671Y-116355527D01*
X187369673Y-116355524D01*
X187475524Y-116249673D01*
X187495911Y-116236051D01*
X187600005Y-116166497D01*
X187600008Y-116166495D01*
X187738317Y-116109206D01*
X187885145Y-116080000D01*
X188034855Y-116080000D01*
X188181683Y-116109206D01*
X188181683Y-116109206D01*
G37*
G36*
X213581683Y-116109206D02*
X213719992Y-116166495D01*
X213719995Y-116166497D01*
X213824090Y-116236051D01*
X213844476Y-116249673D01*
X213950327Y-116355524D01*
X213950329Y-116355527D01*
X213950330Y-116355528D01*
X213956980Y-116365481D01*
X214033505Y-116480008D01*
X214090794Y-116618317D01*
X214120000Y-116765145D01*
X214120000Y-116914855D01*
X214090794Y-117061683D01*
X214033505Y-117199992D01*
X214033503Y-117199995D01*
X213956980Y-117314520D01*
X213950327Y-117324476D01*
X213844476Y-117430327D01*
X213844473Y-117430329D01*
X213844472Y-117430330D01*
X213719995Y-117513503D01*
X213719992Y-117513505D01*
X213581683Y-117570794D01*
X213434855Y-117600000D01*
X213285145Y-117600000D01*
X213138317Y-117570794D01*
X213000008Y-117513505D01*
X213000005Y-117513503D01*
X212875528Y-117430330D01*
X212875527Y-117430329D01*
X212875524Y-117430327D01*
X212769673Y-117324476D01*
X212763021Y-117314520D01*
X212686497Y-117199995D01*
X212686495Y-117199992D01*
X212629206Y-117061683D01*
X212600000Y-116914855D01*
X212600000Y-116765145D01*
X212629206Y-116618317D01*
X212686495Y-116480008D01*
X212763020Y-116365481D01*
X212769670Y-116355528D01*
X212769671Y-116355527D01*
X212769673Y-116355524D01*
X212875524Y-116249673D01*
X212895911Y-116236051D01*
X213000005Y-116166497D01*
X213000008Y-116166495D01*
X213138317Y-116109206D01*
X213285145Y-116080000D01*
X213434855Y-116080000D01*
X213581683Y-116109206D01*
X213581683Y-116109206D01*
G37*
G36*
X200881683Y-116109206D02*
X201019992Y-116166495D01*
X201019995Y-116166497D01*
X201124090Y-116236051D01*
X201144476Y-116249673D01*
X201250327Y-116355524D01*
X201250329Y-116355527D01*
X201250330Y-116355528D01*
X201256980Y-116365481D01*
X201333505Y-116480008D01*
X201390794Y-116618317D01*
X201420000Y-116765145D01*
X201420000Y-116914855D01*
X201390794Y-117061683D01*
X201333505Y-117199992D01*
X201333503Y-117199995D01*
X201256980Y-117314520D01*
X201250327Y-117324476D01*
X201144476Y-117430327D01*
X201144473Y-117430329D01*
X201144472Y-117430330D01*
X201019995Y-117513503D01*
X201019992Y-117513505D01*
X200881683Y-117570794D01*
X200734855Y-117600000D01*
X200585145Y-117600000D01*
X200438317Y-117570794D01*
X200300008Y-117513505D01*
X200300005Y-117513503D01*
X200175528Y-117430330D01*
X200175527Y-117430329D01*
X200175524Y-117430327D01*
X200069673Y-117324476D01*
X200063021Y-117314520D01*
X199986497Y-117199995D01*
X199986495Y-117199992D01*
X199929206Y-117061683D01*
X199900000Y-116914855D01*
X199900000Y-116765145D01*
X199929206Y-116618317D01*
X199986495Y-116480008D01*
X200063020Y-116365481D01*
X200069670Y-116355528D01*
X200069671Y-116355527D01*
X200069673Y-116355524D01*
X200175524Y-116249673D01*
X200195911Y-116236051D01*
X200300005Y-116166497D01*
X200300008Y-116166495D01*
X200438317Y-116109206D01*
X200585145Y-116080000D01*
X200734855Y-116080000D01*
X200881683Y-116109206D01*
X200881683Y-116109206D01*
G37*
G36*
X198341683Y-116109206D02*
X198479992Y-116166495D01*
X198479995Y-116166497D01*
X198584090Y-116236051D01*
X198604476Y-116249673D01*
X198710327Y-116355524D01*
X198710329Y-116355527D01*
X198710330Y-116355528D01*
X198716980Y-116365481D01*
X198793505Y-116480008D01*
X198850794Y-116618317D01*
X198880000Y-116765145D01*
X198880000Y-116914855D01*
X198850794Y-117061683D01*
X198793505Y-117199992D01*
X198793503Y-117199995D01*
X198716980Y-117314520D01*
X198710327Y-117324476D01*
X198604476Y-117430327D01*
X198604473Y-117430329D01*
X198604472Y-117430330D01*
X198479995Y-117513503D01*
X198479992Y-117513505D01*
X198341683Y-117570794D01*
X198194855Y-117600000D01*
X198045145Y-117600000D01*
X197898317Y-117570794D01*
X197760008Y-117513505D01*
X197760005Y-117513503D01*
X197635528Y-117430330D01*
X197635527Y-117430329D01*
X197635524Y-117430327D01*
X197529673Y-117324476D01*
X197523021Y-117314520D01*
X197446497Y-117199995D01*
X197446495Y-117199992D01*
X197389206Y-117061683D01*
X197360000Y-116914855D01*
X197360000Y-116765145D01*
X197389206Y-116618317D01*
X197446495Y-116480008D01*
X197523020Y-116365481D01*
X197529670Y-116355528D01*
X197529671Y-116355527D01*
X197529673Y-116355524D01*
X197635524Y-116249673D01*
X197655911Y-116236051D01*
X197760005Y-116166497D01*
X197760008Y-116166495D01*
X197898317Y-116109206D01*
X198045145Y-116080000D01*
X198194855Y-116080000D01*
X198341683Y-116109206D01*
X198341683Y-116109206D01*
G37*
G36*
X185641683Y-116109206D02*
X185779992Y-116166495D01*
X185779995Y-116166497D01*
X185884090Y-116236051D01*
X185904476Y-116249673D01*
X186010327Y-116355524D01*
X186010329Y-116355527D01*
X186010330Y-116355528D01*
X186016980Y-116365481D01*
X186093505Y-116480008D01*
X186150794Y-116618317D01*
X186180000Y-116765145D01*
X186180000Y-116914855D01*
X186150794Y-117061683D01*
X186093505Y-117199992D01*
X186093503Y-117199995D01*
X186016980Y-117314520D01*
X186010327Y-117324476D01*
X185904476Y-117430327D01*
X185904473Y-117430329D01*
X185904472Y-117430330D01*
X185779995Y-117513503D01*
X185779992Y-117513505D01*
X185641683Y-117570794D01*
X185494855Y-117600000D01*
X185345145Y-117600000D01*
X185198317Y-117570794D01*
X185060008Y-117513505D01*
X185060005Y-117513503D01*
X184935528Y-117430330D01*
X184935527Y-117430329D01*
X184935524Y-117430327D01*
X184829673Y-117324476D01*
X184823021Y-117314520D01*
X184746497Y-117199995D01*
X184746495Y-117199992D01*
X184689206Y-117061683D01*
X184660000Y-116914855D01*
X184660000Y-116765145D01*
X184689206Y-116618317D01*
X184746495Y-116480008D01*
X184823020Y-116365481D01*
X184829670Y-116355528D01*
X184829671Y-116355527D01*
X184829673Y-116355524D01*
X184935524Y-116249673D01*
X184955911Y-116236051D01*
X185060005Y-116166497D01*
X185060008Y-116166495D01*
X185198317Y-116109206D01*
X185345145Y-116080000D01*
X185494855Y-116080000D01*
X185641683Y-116109206D01*
X185641683Y-116109206D01*
G37*
G36*
X195801683Y-116109206D02*
X195939992Y-116166495D01*
X195939995Y-116166497D01*
X196044090Y-116236051D01*
X196064476Y-116249673D01*
X196170327Y-116355524D01*
X196170329Y-116355527D01*
X196170330Y-116355528D01*
X196176980Y-116365481D01*
X196253505Y-116480008D01*
X196310794Y-116618317D01*
X196340000Y-116765145D01*
X196340000Y-116914855D01*
X196310794Y-117061683D01*
X196253505Y-117199992D01*
X196253503Y-117199995D01*
X196176980Y-117314520D01*
X196170327Y-117324476D01*
X196064476Y-117430327D01*
X196064473Y-117430329D01*
X196064472Y-117430330D01*
X195939995Y-117513503D01*
X195939992Y-117513505D01*
X195801683Y-117570794D01*
X195654855Y-117600000D01*
X195505145Y-117600000D01*
X195358317Y-117570794D01*
X195220008Y-117513505D01*
X195220005Y-117513503D01*
X195095528Y-117430330D01*
X195095527Y-117430329D01*
X195095524Y-117430327D01*
X194989673Y-117324476D01*
X194983021Y-117314520D01*
X194906497Y-117199995D01*
X194906495Y-117199992D01*
X194849206Y-117061683D01*
X194820000Y-116914855D01*
X194820000Y-116765145D01*
X194849206Y-116618317D01*
X194906495Y-116480008D01*
X194983020Y-116365481D01*
X194989670Y-116355528D01*
X194989671Y-116355527D01*
X194989673Y-116355524D01*
X195095524Y-116249673D01*
X195115911Y-116236051D01*
X195220005Y-116166497D01*
X195220008Y-116166495D01*
X195358317Y-116109206D01*
X195505145Y-116080000D01*
X195654855Y-116080000D01*
X195801683Y-116109206D01*
X195801683Y-116109206D01*
G37*
G36*
X193261683Y-116109206D02*
X193399992Y-116166495D01*
X193399995Y-116166497D01*
X193504090Y-116236051D01*
X193524476Y-116249673D01*
X193630327Y-116355524D01*
X193630329Y-116355527D01*
X193630330Y-116355528D01*
X193636980Y-116365481D01*
X193713505Y-116480008D01*
X193770794Y-116618317D01*
X193800000Y-116765145D01*
X193800000Y-116914855D01*
X193770794Y-117061683D01*
X193713505Y-117199992D01*
X193713503Y-117199995D01*
X193636980Y-117314520D01*
X193630327Y-117324476D01*
X193524476Y-117430327D01*
X193524473Y-117430329D01*
X193524472Y-117430330D01*
X193399995Y-117513503D01*
X193399992Y-117513505D01*
X193261683Y-117570794D01*
X193114855Y-117600000D01*
X192965145Y-117600000D01*
X192818317Y-117570794D01*
X192680008Y-117513505D01*
X192680005Y-117513503D01*
X192555528Y-117430330D01*
X192555527Y-117430329D01*
X192555524Y-117430327D01*
X192449673Y-117324476D01*
X192443021Y-117314520D01*
X192366497Y-117199995D01*
X192366495Y-117199992D01*
X192309206Y-117061683D01*
X192280000Y-116914855D01*
X192280000Y-116765145D01*
X192309206Y-116618317D01*
X192366495Y-116480008D01*
X192443020Y-116365481D01*
X192449670Y-116355528D01*
X192449671Y-116355527D01*
X192449673Y-116355524D01*
X192555524Y-116249673D01*
X192575911Y-116236051D01*
X192680005Y-116166497D01*
X192680008Y-116166495D01*
X192818317Y-116109206D01*
X192965145Y-116080000D01*
X193114855Y-116080000D01*
X193261683Y-116109206D01*
X193261683Y-116109206D01*
G37*
G36*
X211041683Y-116109206D02*
X211179992Y-116166495D01*
X211179995Y-116166497D01*
X211284090Y-116236051D01*
X211304476Y-116249673D01*
X211410327Y-116355524D01*
X211410329Y-116355527D01*
X211410330Y-116355528D01*
X211416980Y-116365481D01*
X211493505Y-116480008D01*
X211550794Y-116618317D01*
X211580000Y-116765145D01*
X211580000Y-116914855D01*
X211550794Y-117061683D01*
X211493505Y-117199992D01*
X211493503Y-117199995D01*
X211416980Y-117314520D01*
X211410327Y-117324476D01*
X211304476Y-117430327D01*
X211304473Y-117430329D01*
X211304472Y-117430330D01*
X211179995Y-117513503D01*
X211179992Y-117513505D01*
X211041683Y-117570794D01*
X210894855Y-117600000D01*
X210745145Y-117600000D01*
X210598317Y-117570794D01*
X210460008Y-117513505D01*
X210460005Y-117513503D01*
X210335528Y-117430330D01*
X210335527Y-117430329D01*
X210335524Y-117430327D01*
X210229673Y-117324476D01*
X210223021Y-117314520D01*
X210146497Y-117199995D01*
X210146495Y-117199992D01*
X210089206Y-117061683D01*
X210060000Y-116914855D01*
X210060000Y-116765145D01*
X210089206Y-116618317D01*
X210146495Y-116480008D01*
X210223020Y-116365481D01*
X210229670Y-116355528D01*
X210229671Y-116355527D01*
X210229673Y-116355524D01*
X210335524Y-116249673D01*
X210355911Y-116236051D01*
X210460005Y-116166497D01*
X210460008Y-116166495D01*
X210598317Y-116109206D01*
X210745145Y-116080000D01*
X210894855Y-116080000D01*
X211041683Y-116109206D01*
X211041683Y-116109206D01*
G37*
G36*
X190721683Y-116109206D02*
X190859992Y-116166495D01*
X190859995Y-116166497D01*
X190964090Y-116236051D01*
X190984476Y-116249673D01*
X191090327Y-116355524D01*
X191090329Y-116355527D01*
X191090330Y-116355528D01*
X191096980Y-116365481D01*
X191173505Y-116480008D01*
X191230794Y-116618317D01*
X191260000Y-116765145D01*
X191260000Y-116914855D01*
X191230794Y-117061683D01*
X191173505Y-117199992D01*
X191173503Y-117199995D01*
X191096980Y-117314520D01*
X191090327Y-117324476D01*
X190984476Y-117430327D01*
X190984473Y-117430329D01*
X190984472Y-117430330D01*
X190859995Y-117513503D01*
X190859992Y-117513505D01*
X190721683Y-117570794D01*
X190574855Y-117600000D01*
X190425145Y-117600000D01*
X190278317Y-117570794D01*
X190140008Y-117513505D01*
X190140005Y-117513503D01*
X190015528Y-117430330D01*
X190015527Y-117430329D01*
X190015524Y-117430327D01*
X189909673Y-117324476D01*
X189903021Y-117314520D01*
X189826497Y-117199995D01*
X189826495Y-117199992D01*
X189769206Y-117061683D01*
X189740000Y-116914855D01*
X189740000Y-116765145D01*
X189769206Y-116618317D01*
X189826495Y-116480008D01*
X189903020Y-116365481D01*
X189909670Y-116355528D01*
X189909671Y-116355527D01*
X189909673Y-116355524D01*
X190015524Y-116249673D01*
X190035911Y-116236051D01*
X190140005Y-116166497D01*
X190140008Y-116166495D01*
X190278317Y-116109206D01*
X190425145Y-116080000D01*
X190574855Y-116080000D01*
X190721683Y-116109206D01*
X190721683Y-116109206D01*
G37*
G36*
X203421683Y-116109206D02*
X203559992Y-116166495D01*
X203559995Y-116166497D01*
X203664090Y-116236051D01*
X203684476Y-116249673D01*
X203790327Y-116355524D01*
X203790329Y-116355527D01*
X203790330Y-116355528D01*
X203796980Y-116365481D01*
X203873505Y-116480008D01*
X203930794Y-116618317D01*
X203960000Y-116765145D01*
X203960000Y-116914855D01*
X203930794Y-117061683D01*
X203873505Y-117199992D01*
X203873503Y-117199995D01*
X203796980Y-117314520D01*
X203790327Y-117324476D01*
X203684476Y-117430327D01*
X203684473Y-117430329D01*
X203684472Y-117430330D01*
X203559995Y-117513503D01*
X203559992Y-117513505D01*
X203421683Y-117570794D01*
X203274855Y-117600000D01*
X203125145Y-117600000D01*
X202978317Y-117570794D01*
X202840008Y-117513505D01*
X202840005Y-117513503D01*
X202715528Y-117430330D01*
X202715527Y-117430329D01*
X202715524Y-117430327D01*
X202609673Y-117324476D01*
X202603021Y-117314520D01*
X202526497Y-117199995D01*
X202526495Y-117199992D01*
X202469206Y-117061683D01*
X202440000Y-116914855D01*
X202440000Y-116765145D01*
X202469206Y-116618317D01*
X202526495Y-116480008D01*
X202603020Y-116365481D01*
X202609670Y-116355528D01*
X202609671Y-116355527D01*
X202609673Y-116355524D01*
X202715524Y-116249673D01*
X202735911Y-116236051D01*
X202840005Y-116166497D01*
X202840008Y-116166495D01*
X202978317Y-116109206D01*
X203125145Y-116080000D01*
X203274855Y-116080000D01*
X203421683Y-116109206D01*
X203421683Y-116109206D01*
G37*
G36*
X137326630Y-113462299D02*
X137486855Y-113510903D01*
X137634520Y-113589831D01*
X137763949Y-113696051D01*
X137870169Y-113825480D01*
X137949097Y-113973145D01*
X137997701Y-114133370D01*
X138014112Y-114300000D01*
X137997701Y-114466630D01*
X137949097Y-114626855D01*
X137870169Y-114774520D01*
X137763949Y-114903949D01*
X137634520Y-115010169D01*
X137486855Y-115089097D01*
X137326630Y-115137701D01*
X137201752Y-115150000D01*
X137118248Y-115150000D01*
X136993370Y-115137701D01*
X136833145Y-115089097D01*
X136685480Y-115010169D01*
X136556051Y-114903949D01*
X136449831Y-114774520D01*
X136370903Y-114626855D01*
X136322299Y-114466630D01*
X136305888Y-114300000D01*
X136322299Y-114133370D01*
X136370903Y-113973145D01*
X136449831Y-113825480D01*
X136556051Y-113696051D01*
X136685480Y-113589831D01*
X136833145Y-113510903D01*
X136993370Y-113462299D01*
X137118248Y-113450000D01*
X137201752Y-113450000D01*
X137326630Y-113462299D01*
X137326630Y-113462299D01*
G37*
G36*
X149977649Y-113507717D02*
X150016827Y-113511576D01*
X150092227Y-113534448D01*
X150167629Y-113557321D01*
X150306608Y-113631608D01*
X150428422Y-113731578D01*
X150528392Y-113853392D01*
X150602679Y-113992371D01*
X150602679Y-113992372D01*
X150648424Y-114143173D01*
X150663870Y-114300000D01*
X150648424Y-114456827D01*
X150645450Y-114466630D01*
X150602679Y-114607629D01*
X150528392Y-114746608D01*
X150428422Y-114868422D01*
X150306608Y-114968392D01*
X150167629Y-115042679D01*
X150092228Y-115065551D01*
X150016827Y-115088424D01*
X149977649Y-115092283D01*
X149899295Y-115100000D01*
X149820705Y-115100000D01*
X149742351Y-115092283D01*
X149703173Y-115088424D01*
X149627772Y-115065551D01*
X149552371Y-115042679D01*
X149413392Y-114968392D01*
X149291578Y-114868422D01*
X149191608Y-114746608D01*
X149117321Y-114607629D01*
X149074550Y-114466630D01*
X149071576Y-114456827D01*
X149056130Y-114300000D01*
X149071576Y-114143173D01*
X149117321Y-113992372D01*
X149117321Y-113992371D01*
X149191608Y-113853392D01*
X149291578Y-113731578D01*
X149413392Y-113631608D01*
X149552371Y-113557321D01*
X149627773Y-113534448D01*
X149703173Y-113511576D01*
X149742351Y-113507717D01*
X149820705Y-113500000D01*
X149899295Y-113500000D01*
X149977649Y-113507717D01*
X149977649Y-113507717D01*
G37*
G36*
X142357649Y-113507717D02*
X142396827Y-113511576D01*
X142472227Y-113534448D01*
X142547629Y-113557321D01*
X142686608Y-113631608D01*
X142808422Y-113731578D01*
X142908392Y-113853392D01*
X142982679Y-113992371D01*
X142982679Y-113992372D01*
X143028424Y-114143173D01*
X143043870Y-114300000D01*
X143028424Y-114456827D01*
X143025450Y-114466630D01*
X142982679Y-114607629D01*
X142908392Y-114746608D01*
X142808422Y-114868422D01*
X142686608Y-114968392D01*
X142547629Y-115042679D01*
X142472228Y-115065551D01*
X142396827Y-115088424D01*
X142357649Y-115092283D01*
X142279295Y-115100000D01*
X142200705Y-115100000D01*
X142122351Y-115092283D01*
X142083173Y-115088424D01*
X142007772Y-115065551D01*
X141932371Y-115042679D01*
X141793392Y-114968392D01*
X141671578Y-114868422D01*
X141571608Y-114746608D01*
X141497321Y-114607629D01*
X141454550Y-114466630D01*
X141451576Y-114456827D01*
X141436130Y-114300000D01*
X141451576Y-114143173D01*
X141497321Y-113992372D01*
X141497321Y-113992371D01*
X141571608Y-113853392D01*
X141671578Y-113731578D01*
X141793392Y-113631608D01*
X141932371Y-113557321D01*
X142007773Y-113534448D01*
X142083173Y-113511576D01*
X142122351Y-113507717D01*
X142200705Y-113500000D01*
X142279295Y-113500000D01*
X142357649Y-113507717D01*
X142357649Y-113507717D01*
G37*
G36*
X144897649Y-113507717D02*
X144936827Y-113511576D01*
X145012227Y-113534448D01*
X145087629Y-113557321D01*
X145226608Y-113631608D01*
X145348422Y-113731578D01*
X145448392Y-113853392D01*
X145522679Y-113992371D01*
X145522679Y-113992372D01*
X145568424Y-114143173D01*
X145583870Y-114300000D01*
X145568424Y-114456827D01*
X145565450Y-114466630D01*
X145522679Y-114607629D01*
X145448392Y-114746608D01*
X145348422Y-114868422D01*
X145226608Y-114968392D01*
X145087629Y-115042679D01*
X145012228Y-115065551D01*
X144936827Y-115088424D01*
X144897649Y-115092283D01*
X144819295Y-115100000D01*
X144740705Y-115100000D01*
X144662351Y-115092283D01*
X144623173Y-115088424D01*
X144547772Y-115065551D01*
X144472371Y-115042679D01*
X144333392Y-114968392D01*
X144211578Y-114868422D01*
X144111608Y-114746608D01*
X144037321Y-114607629D01*
X143994550Y-114466630D01*
X143991576Y-114456827D01*
X143976130Y-114300000D01*
X143991576Y-114143173D01*
X144037321Y-113992372D01*
X144037321Y-113992371D01*
X144111608Y-113853392D01*
X144211578Y-113731578D01*
X144333392Y-113631608D01*
X144472371Y-113557321D01*
X144547773Y-113534448D01*
X144623173Y-113511576D01*
X144662351Y-113507717D01*
X144740705Y-113500000D01*
X144819295Y-113500000D01*
X144897649Y-113507717D01*
X144897649Y-113507717D01*
G37*
G36*
X147437649Y-113507717D02*
X147476827Y-113511576D01*
X147552227Y-113534448D01*
X147627629Y-113557321D01*
X147766608Y-113631608D01*
X147888422Y-113731578D01*
X147988392Y-113853392D01*
X148062679Y-113992371D01*
X148062679Y-113992372D01*
X148108424Y-114143173D01*
X148123870Y-114300000D01*
X148108424Y-114456827D01*
X148105450Y-114466630D01*
X148062679Y-114607629D01*
X147988392Y-114746608D01*
X147888422Y-114868422D01*
X147766608Y-114968392D01*
X147627629Y-115042679D01*
X147552228Y-115065551D01*
X147476827Y-115088424D01*
X147437649Y-115092283D01*
X147359295Y-115100000D01*
X147280705Y-115100000D01*
X147202351Y-115092283D01*
X147163173Y-115088424D01*
X147087772Y-115065551D01*
X147012371Y-115042679D01*
X146873392Y-114968392D01*
X146751578Y-114868422D01*
X146651608Y-114746608D01*
X146577321Y-114607629D01*
X146534550Y-114466630D01*
X146531576Y-114456827D01*
X146516130Y-114300000D01*
X146531576Y-114143173D01*
X146577321Y-113992372D01*
X146577321Y-113992371D01*
X146651608Y-113853392D01*
X146751578Y-113731578D01*
X146873392Y-113631608D01*
X147012371Y-113557321D01*
X147087773Y-113534448D01*
X147163173Y-113511576D01*
X147202351Y-113507717D01*
X147280705Y-113500000D01*
X147359295Y-113500000D01*
X147437649Y-113507717D01*
X147437649Y-113507717D01*
G37*
G36*
X158280000Y-115100000D02*
X156680000Y-115100000D01*
X156680000Y-113500000D01*
X158280000Y-113500000D01*
X158280000Y-115100000D01*
X158280000Y-115100000D01*
G37*
G36*
X155057649Y-113507717D02*
X155096827Y-113511576D01*
X155172227Y-113534448D01*
X155247629Y-113557321D01*
X155386608Y-113631608D01*
X155508422Y-113731578D01*
X155608392Y-113853392D01*
X155682679Y-113992371D01*
X155682679Y-113992372D01*
X155728424Y-114143173D01*
X155743870Y-114300000D01*
X155728424Y-114456827D01*
X155725450Y-114466630D01*
X155682679Y-114607629D01*
X155608392Y-114746608D01*
X155508422Y-114868422D01*
X155386608Y-114968392D01*
X155247629Y-115042679D01*
X155172228Y-115065551D01*
X155096827Y-115088424D01*
X155057649Y-115092283D01*
X154979295Y-115100000D01*
X154900705Y-115100000D01*
X154822351Y-115092283D01*
X154783173Y-115088424D01*
X154707772Y-115065551D01*
X154632371Y-115042679D01*
X154493392Y-114968392D01*
X154371578Y-114868422D01*
X154271608Y-114746608D01*
X154197321Y-114607629D01*
X154154550Y-114466630D01*
X154151576Y-114456827D01*
X154136130Y-114300000D01*
X154151576Y-114143173D01*
X154197321Y-113992372D01*
X154197321Y-113992371D01*
X154271608Y-113853392D01*
X154371578Y-113731578D01*
X154493392Y-113631608D01*
X154632371Y-113557321D01*
X154707773Y-113534448D01*
X154783173Y-113511576D01*
X154822351Y-113507717D01*
X154900705Y-113500000D01*
X154979295Y-113500000D01*
X155057649Y-113507717D01*
X155057649Y-113507717D01*
G37*
G36*
X152517649Y-113507717D02*
X152556827Y-113511576D01*
X152632227Y-113534448D01*
X152707629Y-113557321D01*
X152846608Y-113631608D01*
X152968422Y-113731578D01*
X153068392Y-113853392D01*
X153142679Y-113992371D01*
X153142679Y-113992372D01*
X153188424Y-114143173D01*
X153203870Y-114300000D01*
X153188424Y-114456827D01*
X153185450Y-114466630D01*
X153142679Y-114607629D01*
X153068392Y-114746608D01*
X152968422Y-114868422D01*
X152846608Y-114968392D01*
X152707629Y-115042679D01*
X152632228Y-115065551D01*
X152556827Y-115088424D01*
X152517649Y-115092283D01*
X152439295Y-115100000D01*
X152360705Y-115100000D01*
X152282351Y-115092283D01*
X152243173Y-115088424D01*
X152167772Y-115065551D01*
X152092371Y-115042679D01*
X151953392Y-114968392D01*
X151831578Y-114868422D01*
X151731608Y-114746608D01*
X151657321Y-114607629D01*
X151614550Y-114466630D01*
X151611576Y-114456827D01*
X151596130Y-114300000D01*
X151611576Y-114143173D01*
X151657321Y-113992372D01*
X151657321Y-113992371D01*
X151731608Y-113853392D01*
X151831578Y-113731578D01*
X151953392Y-113631608D01*
X152092371Y-113557321D01*
X152167773Y-113534448D01*
X152243173Y-113511576D01*
X152282351Y-113507717D01*
X152360705Y-113500000D01*
X152439295Y-113500000D01*
X152517649Y-113507717D01*
X152517649Y-113507717D01*
G37*
G36*
X209348107Y-111481728D02*
X209402703Y-111504343D01*
X209451839Y-111537174D01*
X209493626Y-111578961D01*
X209526457Y-111628097D01*
X209549072Y-111682693D01*
X209560600Y-111740653D01*
X209560600Y-111799747D01*
X209549072Y-111857707D01*
X209526457Y-111912303D01*
X209493626Y-111961439D01*
X209451839Y-112003226D01*
X209402703Y-112036057D01*
X209348107Y-112058672D01*
X209290147Y-112070200D01*
X209231053Y-112070200D01*
X209173093Y-112058672D01*
X209118497Y-112036057D01*
X209069361Y-112003226D01*
X209027574Y-111961439D01*
X208994743Y-111912303D01*
X208972128Y-111857707D01*
X208960600Y-111799747D01*
X208960600Y-111740653D01*
X208972128Y-111682693D01*
X208994743Y-111628097D01*
X209027574Y-111578961D01*
X209069361Y-111537174D01*
X209118497Y-111504343D01*
X209173093Y-111481728D01*
X209231053Y-111470200D01*
X209290147Y-111470200D01*
X209348107Y-111481728D01*
X209348107Y-111481728D01*
G37*
G36*
X202288964Y-110253837D02*
X202320528Y-110263412D01*
X202349617Y-110278960D01*
X202375114Y-110299886D01*
X202396040Y-110325383D01*
X202411588Y-110354472D01*
X202421163Y-110386036D01*
X202425000Y-110424998D01*
X202425000Y-111825002D01*
X202421163Y-111863964D01*
X202411588Y-111895528D01*
X202396040Y-111924617D01*
X202375114Y-111950114D01*
X202349617Y-111971040D01*
X202320528Y-111986588D01*
X202288964Y-111996163D01*
X202250002Y-112000000D01*
X201174998Y-112000000D01*
X201136036Y-111996163D01*
X201104472Y-111986588D01*
X201075383Y-111971040D01*
X201049886Y-111950114D01*
X201028960Y-111924617D01*
X201013412Y-111895528D01*
X201003837Y-111863964D01*
X201000000Y-111825002D01*
X201000000Y-110424998D01*
X201003837Y-110386036D01*
X201013412Y-110354472D01*
X201028960Y-110325383D01*
X201049886Y-110299886D01*
X201075383Y-110278960D01*
X201104472Y-110263412D01*
X201136036Y-110253837D01*
X201174998Y-110250000D01*
X202250002Y-110250000D01*
X202288964Y-110253837D01*
X202288964Y-110253837D01*
G37*
G36*
X220286964Y-110253837D02*
X220318528Y-110263412D01*
X220347617Y-110278960D01*
X220373114Y-110299886D01*
X220394040Y-110325383D01*
X220409588Y-110354472D01*
X220419163Y-110386036D01*
X220423000Y-110424998D01*
X220423000Y-111825002D01*
X220419163Y-111863964D01*
X220409588Y-111895528D01*
X220394040Y-111924617D01*
X220373114Y-111950114D01*
X220347617Y-111971040D01*
X220318528Y-111986588D01*
X220286964Y-111996163D01*
X220248002Y-112000000D01*
X219172998Y-112000000D01*
X219134036Y-111996163D01*
X219102472Y-111986588D01*
X219073383Y-111971040D01*
X219047886Y-111950114D01*
X219026960Y-111924617D01*
X219011412Y-111895528D01*
X219001837Y-111863964D01*
X218998000Y-111825002D01*
X218998000Y-110424998D01*
X219001837Y-110386036D01*
X219011412Y-110354472D01*
X219026960Y-110325383D01*
X219047886Y-110299886D01*
X219073383Y-110278960D01*
X219102472Y-110263412D01*
X219134036Y-110253837D01*
X219172998Y-110250000D01*
X220248002Y-110250000D01*
X220286964Y-110253837D01*
X220286964Y-110253837D01*
G37*
G36*
X205263964Y-110253837D02*
X205295528Y-110263412D01*
X205324617Y-110278960D01*
X205350114Y-110299886D01*
X205371040Y-110325383D01*
X205386588Y-110354472D01*
X205396163Y-110386036D01*
X205400000Y-110424998D01*
X205400000Y-111825002D01*
X205396163Y-111863964D01*
X205386588Y-111895528D01*
X205371040Y-111924617D01*
X205350114Y-111950114D01*
X205324617Y-111971040D01*
X205295528Y-111986588D01*
X205263964Y-111996163D01*
X205225002Y-112000000D01*
X204149998Y-112000000D01*
X204111036Y-111996163D01*
X204079472Y-111986588D01*
X204050383Y-111971040D01*
X204024886Y-111950114D01*
X204003960Y-111924617D01*
X203988412Y-111895528D01*
X203978837Y-111863964D01*
X203975000Y-111825002D01*
X203975000Y-111606298D01*
X203972598Y-111581912D01*
X203965485Y-111558463D01*
X203953934Y-111536852D01*
X203938388Y-111517910D01*
X203919446Y-111502364D01*
X203897835Y-111490813D01*
X203874386Y-111483700D01*
X203850000Y-111481298D01*
X203825614Y-111483700D01*
X203802165Y-111490813D01*
X203780554Y-111502364D01*
X203761612Y-111517910D01*
X203746066Y-111536852D01*
X203741479Y-111545434D01*
X203737357Y-111551603D01*
X203704526Y-111600739D01*
X203662739Y-111642526D01*
X203613603Y-111675357D01*
X203559007Y-111697972D01*
X203501047Y-111709500D01*
X203441953Y-111709500D01*
X203383993Y-111697972D01*
X203329397Y-111675357D01*
X203280261Y-111642526D01*
X203238474Y-111600739D01*
X203205643Y-111551603D01*
X203183028Y-111497007D01*
X203171500Y-111439047D01*
X203171500Y-111379953D01*
X203183028Y-111321993D01*
X203205643Y-111267397D01*
X203238474Y-111218261D01*
X203280261Y-111176474D01*
X203329397Y-111143643D01*
X203383993Y-111121028D01*
X203441953Y-111109500D01*
X203501047Y-111109500D01*
X203559007Y-111121028D01*
X203613603Y-111143643D01*
X203662739Y-111176474D01*
X203704526Y-111218261D01*
X203737357Y-111267397D01*
X203737358Y-111267399D01*
X203741477Y-111273564D01*
X203746064Y-111282145D01*
X203761609Y-111301087D01*
X203780550Y-111316633D01*
X203802161Y-111328185D01*
X203825610Y-111335299D01*
X203849996Y-111337702D01*
X203874382Y-111335301D01*
X203897832Y-111328189D01*
X203919443Y-111316638D01*
X203938385Y-111301093D01*
X203953931Y-111282152D01*
X203965483Y-111260541D01*
X203972597Y-111237092D01*
X203975000Y-111212702D01*
X203975000Y-110424998D01*
X203978837Y-110386036D01*
X203988412Y-110354472D01*
X204003960Y-110325383D01*
X204024886Y-110299886D01*
X204050383Y-110278960D01*
X204079472Y-110263412D01*
X204111036Y-110253837D01*
X204149998Y-110250000D01*
X205225002Y-110250000D01*
X205263964Y-110253837D01*
X205263964Y-110253837D01*
G37*
G36*
X223261964Y-110253837D02*
X223293528Y-110263412D01*
X223322617Y-110278960D01*
X223348114Y-110299886D01*
X223369040Y-110325383D01*
X223384588Y-110354472D01*
X223394163Y-110386036D01*
X223398000Y-110424998D01*
X223398000Y-111825002D01*
X223394163Y-111863964D01*
X223384588Y-111895528D01*
X223369040Y-111924617D01*
X223348114Y-111950114D01*
X223322617Y-111971040D01*
X223293528Y-111986588D01*
X223261964Y-111996163D01*
X223223002Y-112000000D01*
X222147998Y-112000000D01*
X222109036Y-111996163D01*
X222077472Y-111986588D01*
X222048383Y-111971040D01*
X222022886Y-111950114D01*
X222001960Y-111924617D01*
X221986412Y-111895528D01*
X221976837Y-111863964D01*
X221973000Y-111825002D01*
X221973000Y-110424998D01*
X221976837Y-110386036D01*
X221986412Y-110354472D01*
X222001960Y-110325383D01*
X222022886Y-110299886D01*
X222048383Y-110278960D01*
X222077472Y-110263412D01*
X222109036Y-110253837D01*
X222147998Y-110250000D01*
X223223002Y-110250000D01*
X223261964Y-110253837D01*
X223261964Y-110253837D01*
G37*
G36*
X172860964Y-108348837D02*
X172892528Y-108358412D01*
X172921617Y-108373960D01*
X172947114Y-108394886D01*
X172968040Y-108420383D01*
X172983588Y-108449472D01*
X172993163Y-108481036D01*
X172997000Y-108519998D01*
X172997000Y-109920002D01*
X172993163Y-109958964D01*
X172983588Y-109990528D01*
X172968040Y-110019617D01*
X172947114Y-110045114D01*
X172921617Y-110066040D01*
X172892528Y-110081588D01*
X172860964Y-110091163D01*
X172822002Y-110095000D01*
X171746998Y-110095000D01*
X171708036Y-110091163D01*
X171676472Y-110081588D01*
X171647383Y-110066040D01*
X171621886Y-110045114D01*
X171600960Y-110019617D01*
X171585412Y-109990528D01*
X171575837Y-109958964D01*
X171572000Y-109920002D01*
X171572000Y-108519998D01*
X171575837Y-108481036D01*
X171585412Y-108449472D01*
X171600960Y-108420383D01*
X171621886Y-108394886D01*
X171647383Y-108373960D01*
X171676472Y-108358412D01*
X171708036Y-108348837D01*
X171746998Y-108345000D01*
X172822002Y-108345000D01*
X172860964Y-108348837D01*
X172860964Y-108348837D01*
G37*
G36*
X178158964Y-108348837D02*
X178190528Y-108358412D01*
X178219617Y-108373960D01*
X178245114Y-108394886D01*
X178266040Y-108420383D01*
X178281588Y-108449472D01*
X178291163Y-108481036D01*
X178295000Y-108519998D01*
X178295000Y-109920002D01*
X178291163Y-109958964D01*
X178281588Y-109990528D01*
X178266040Y-110019617D01*
X178245114Y-110045114D01*
X178219617Y-110066040D01*
X178190528Y-110081588D01*
X178158964Y-110091163D01*
X178120002Y-110095000D01*
X177044998Y-110095000D01*
X177006036Y-110091163D01*
X176974472Y-110081588D01*
X176945383Y-110066040D01*
X176919886Y-110045114D01*
X176898960Y-110019617D01*
X176883412Y-109990528D01*
X176873837Y-109958964D01*
X176870000Y-109920002D01*
X176870000Y-108519998D01*
X176873837Y-108481036D01*
X176883412Y-108449472D01*
X176898960Y-108420383D01*
X176919886Y-108394886D01*
X176945383Y-108373960D01*
X176974472Y-108358412D01*
X177006036Y-108348837D01*
X177044998Y-108345000D01*
X178120002Y-108345000D01*
X178158964Y-108348837D01*
X178158964Y-108348837D01*
G37*
G36*
X181133964Y-108348837D02*
X181165528Y-108358412D01*
X181194617Y-108373960D01*
X181220114Y-108394886D01*
X181241040Y-108420383D01*
X181256588Y-108449472D01*
X181266163Y-108481036D01*
X181270000Y-108519998D01*
X181270000Y-109920002D01*
X181266163Y-109958964D01*
X181256588Y-109990528D01*
X181241040Y-110019617D01*
X181220114Y-110045114D01*
X181194617Y-110066040D01*
X181165528Y-110081588D01*
X181133964Y-110091163D01*
X181095002Y-110095000D01*
X180019998Y-110095000D01*
X179981036Y-110091163D01*
X179949472Y-110081588D01*
X179920383Y-110066040D01*
X179894886Y-110045114D01*
X179873960Y-110019617D01*
X179858412Y-109990528D01*
X179848837Y-109958964D01*
X179845000Y-109920002D01*
X179845000Y-108519998D01*
X179848837Y-108481036D01*
X179858412Y-108449472D01*
X179873960Y-108420383D01*
X179894886Y-108394886D01*
X179920383Y-108373960D01*
X179949472Y-108358412D01*
X179981036Y-108348837D01*
X180019998Y-108345000D01*
X181095002Y-108345000D01*
X181133964Y-108348837D01*
X181133964Y-108348837D01*
G37*
G36*
X175835964Y-108348837D02*
X175867528Y-108358412D01*
X175896617Y-108373960D01*
X175922114Y-108394886D01*
X175943040Y-108420383D01*
X175958588Y-108449472D01*
X175968163Y-108481036D01*
X175972000Y-108519998D01*
X175972000Y-109920002D01*
X175968163Y-109958964D01*
X175958588Y-109990528D01*
X175943040Y-110019617D01*
X175922114Y-110045114D01*
X175896617Y-110066040D01*
X175867528Y-110081588D01*
X175835964Y-110091163D01*
X175797002Y-110095000D01*
X174721998Y-110095000D01*
X174683036Y-110091163D01*
X174651472Y-110081588D01*
X174622383Y-110066040D01*
X174596886Y-110045114D01*
X174575960Y-110019617D01*
X174560412Y-109990528D01*
X174550837Y-109958964D01*
X174547000Y-109920002D01*
X174547000Y-108519998D01*
X174550837Y-108481036D01*
X174560412Y-108449472D01*
X174575960Y-108420383D01*
X174596886Y-108394886D01*
X174622383Y-108373960D01*
X174651472Y-108358412D01*
X174683036Y-108348837D01*
X174721998Y-108345000D01*
X175797002Y-108345000D01*
X175835964Y-108348837D01*
X175835964Y-108348837D01*
G37*
G36*
X165266630Y-108382299D02*
X165426855Y-108430903D01*
X165574520Y-108509831D01*
X165703949Y-108616051D01*
X165810169Y-108745480D01*
X165889097Y-108893145D01*
X165937701Y-109053370D01*
X165954112Y-109220000D01*
X165937701Y-109386630D01*
X165889097Y-109546855D01*
X165810169Y-109694520D01*
X165703949Y-109823949D01*
X165574520Y-109930169D01*
X165426855Y-110009097D01*
X165266630Y-110057701D01*
X165141752Y-110070000D01*
X165058248Y-110070000D01*
X164933370Y-110057701D01*
X164773145Y-110009097D01*
X164625480Y-109930169D01*
X164496051Y-109823949D01*
X164389831Y-109694520D01*
X164310903Y-109546855D01*
X164262299Y-109386630D01*
X164245888Y-109220000D01*
X164262299Y-109053370D01*
X164310903Y-108893145D01*
X164389831Y-108745480D01*
X164496051Y-108616051D01*
X164625480Y-108509831D01*
X164773145Y-108430903D01*
X164933370Y-108382299D01*
X165058248Y-108370000D01*
X165141752Y-108370000D01*
X165266630Y-108382299D01*
X165266630Y-108382299D01*
G37*
G36*
X162726630Y-108382299D02*
X162886855Y-108430903D01*
X163034520Y-108509831D01*
X163163949Y-108616051D01*
X163270169Y-108745480D01*
X163349097Y-108893145D01*
X163397701Y-109053370D01*
X163414112Y-109220000D01*
X163397701Y-109386630D01*
X163349097Y-109546855D01*
X163270169Y-109694520D01*
X163163949Y-109823949D01*
X163034520Y-109930169D01*
X162886855Y-110009097D01*
X162726630Y-110057701D01*
X162601752Y-110070000D01*
X162518248Y-110070000D01*
X162393370Y-110057701D01*
X162233145Y-110009097D01*
X162085480Y-109930169D01*
X161956051Y-109823949D01*
X161849831Y-109694520D01*
X161770903Y-109546855D01*
X161722299Y-109386630D01*
X161705888Y-109220000D01*
X161722299Y-109053370D01*
X161770903Y-108893145D01*
X161849831Y-108745480D01*
X161956051Y-108616051D01*
X162085480Y-108509831D01*
X162233145Y-108430903D01*
X162393370Y-108382299D01*
X162518248Y-108370000D01*
X162601752Y-108370000D01*
X162726630Y-108382299D01*
X162726630Y-108382299D01*
G37*
G36*
X160186630Y-108382299D02*
X160346855Y-108430903D01*
X160494520Y-108509831D01*
X160623949Y-108616051D01*
X160730169Y-108745480D01*
X160809097Y-108893145D01*
X160857701Y-109053370D01*
X160874112Y-109220000D01*
X160857701Y-109386630D01*
X160809097Y-109546855D01*
X160730169Y-109694520D01*
X160623949Y-109823949D01*
X160494520Y-109930169D01*
X160346855Y-110009097D01*
X160186630Y-110057701D01*
X160061752Y-110070000D01*
X159978248Y-110070000D01*
X159853370Y-110057701D01*
X159693145Y-110009097D01*
X159545480Y-109930169D01*
X159416051Y-109823949D01*
X159309831Y-109694520D01*
X159230903Y-109546855D01*
X159182299Y-109386630D01*
X159165888Y-109220000D01*
X159182299Y-109053370D01*
X159230903Y-108893145D01*
X159309831Y-108745480D01*
X159416051Y-108616051D01*
X159545480Y-108509831D01*
X159693145Y-108430903D01*
X159853370Y-108382299D01*
X159978248Y-108370000D01*
X160061752Y-108370000D01*
X160186630Y-108382299D01*
X160186630Y-108382299D01*
G37*
G36*
X168490000Y-110070000D02*
X166790000Y-110070000D01*
X166790000Y-108370000D01*
X168490000Y-108370000D01*
X168490000Y-110070000D01*
X168490000Y-110070000D01*
G37*
G36*
X163677002Y-105373884D02*
X163709023Y-105383598D01*
X163738535Y-105399372D01*
X163764401Y-105420599D01*
X163785628Y-105446465D01*
X163801402Y-105475977D01*
X163811116Y-105507998D01*
X163815000Y-105547436D01*
X163815000Y-106542564D01*
X163811116Y-106582002D01*
X163801402Y-106614023D01*
X163785628Y-106643535D01*
X163764401Y-106669401D01*
X163738535Y-106690628D01*
X163709023Y-106706402D01*
X163677002Y-106716116D01*
X163637564Y-106720000D01*
X162592436Y-106720000D01*
X162552998Y-106716116D01*
X162520977Y-106706402D01*
X162491465Y-106690628D01*
X162465599Y-106669401D01*
X162444372Y-106643535D01*
X162428598Y-106614023D01*
X162418884Y-106582002D01*
X162415000Y-106542564D01*
X162415000Y-105547436D01*
X162418884Y-105507998D01*
X162428598Y-105475977D01*
X162444372Y-105446465D01*
X162465599Y-105420599D01*
X162491465Y-105399372D01*
X162520977Y-105383598D01*
X162552998Y-105373884D01*
X162592436Y-105370000D01*
X163637564Y-105370000D01*
X163677002Y-105373884D01*
X163677002Y-105373884D01*
G37*
G36*
X166377002Y-105373884D02*
X166409023Y-105383598D01*
X166438535Y-105399372D01*
X166464401Y-105420599D01*
X166485628Y-105446465D01*
X166501402Y-105475977D01*
X166511116Y-105507998D01*
X166515000Y-105547436D01*
X166515000Y-106542564D01*
X166511116Y-106582002D01*
X166501402Y-106614023D01*
X166485628Y-106643535D01*
X166464401Y-106669401D01*
X166438535Y-106690628D01*
X166409023Y-106706402D01*
X166377002Y-106716116D01*
X166337564Y-106720000D01*
X165292436Y-106720000D01*
X165252998Y-106716116D01*
X165220977Y-106706402D01*
X165191465Y-106690628D01*
X165165599Y-106669401D01*
X165144372Y-106643535D01*
X165128598Y-106614023D01*
X165118884Y-106582002D01*
X165115000Y-106542564D01*
X165115000Y-105547436D01*
X165118884Y-105507998D01*
X165128598Y-105475977D01*
X165144372Y-105446465D01*
X165165599Y-105420599D01*
X165191465Y-105399372D01*
X165220977Y-105383598D01*
X165252998Y-105373884D01*
X165292436Y-105370000D01*
X166337564Y-105370000D01*
X166377002Y-105373884D01*
X166377002Y-105373884D01*
G37*
G36*
X184508964Y-103903837D02*
X184540528Y-103913412D01*
X184569617Y-103928960D01*
X184595114Y-103949886D01*
X184616040Y-103975383D01*
X184631588Y-104004472D01*
X184641163Y-104036036D01*
X184645000Y-104074998D01*
X184645000Y-105475002D01*
X184641163Y-105513964D01*
X184631588Y-105545528D01*
X184616040Y-105574617D01*
X184595114Y-105600114D01*
X184569617Y-105621040D01*
X184540528Y-105636588D01*
X184508964Y-105646163D01*
X184470002Y-105650000D01*
X183394998Y-105650000D01*
X183356036Y-105646163D01*
X183324472Y-105636588D01*
X183295383Y-105621040D01*
X183269886Y-105600114D01*
X183248960Y-105574617D01*
X183233412Y-105545528D01*
X183223837Y-105513964D01*
X183220000Y-105475002D01*
X183220000Y-104074998D01*
X183223837Y-104036036D01*
X183233412Y-104004472D01*
X183248960Y-103975383D01*
X183269886Y-103949886D01*
X183295383Y-103928960D01*
X183324472Y-103913412D01*
X183356036Y-103903837D01*
X183394998Y-103900000D01*
X184470002Y-103900000D01*
X184508964Y-103903837D01*
X184508964Y-103903837D01*
G37*
G36*
X187483964Y-103903837D02*
X187515528Y-103913412D01*
X187544617Y-103928960D01*
X187570114Y-103949886D01*
X187591040Y-103975383D01*
X187606588Y-104004472D01*
X187616163Y-104036036D01*
X187620000Y-104074998D01*
X187620000Y-105475002D01*
X187616163Y-105513964D01*
X187606588Y-105545528D01*
X187591040Y-105574617D01*
X187570114Y-105600114D01*
X187544617Y-105621040D01*
X187515528Y-105636588D01*
X187483964Y-105646163D01*
X187445002Y-105650000D01*
X186369998Y-105650000D01*
X186331036Y-105646163D01*
X186299472Y-105636588D01*
X186270383Y-105621040D01*
X186244886Y-105600114D01*
X186223960Y-105574617D01*
X186208412Y-105545528D01*
X186198837Y-105513964D01*
X186195000Y-105475002D01*
X186195000Y-104074998D01*
X186198837Y-104036036D01*
X186208412Y-104004472D01*
X186223960Y-103975383D01*
X186244886Y-103949886D01*
X186270383Y-103928960D01*
X186299472Y-103913412D01*
X186331036Y-103903837D01*
X186369998Y-103900000D01*
X187445002Y-103900000D01*
X187483964Y-103903837D01*
X187483964Y-103903837D01*
G37*
G36*
X180715964Y-102633837D02*
X180747528Y-102643412D01*
X180776617Y-102658960D01*
X180802114Y-102679886D01*
X180823040Y-102705383D01*
X180838588Y-102734472D01*
X180848163Y-102766036D01*
X180852000Y-102804998D01*
X180852000Y-104205002D01*
X180848163Y-104243964D01*
X180838588Y-104275528D01*
X180823040Y-104304617D01*
X180802114Y-104330114D01*
X180776617Y-104351040D01*
X180747528Y-104366588D01*
X180715964Y-104376163D01*
X180677002Y-104380000D01*
X179601998Y-104380000D01*
X179563036Y-104376163D01*
X179531472Y-104366588D01*
X179502383Y-104351040D01*
X179476886Y-104330114D01*
X179455960Y-104304617D01*
X179440412Y-104275528D01*
X179430837Y-104243964D01*
X179427000Y-104205002D01*
X179427000Y-102804998D01*
X179430837Y-102766036D01*
X179440412Y-102734472D01*
X179455960Y-102705383D01*
X179476886Y-102679886D01*
X179502383Y-102658960D01*
X179531472Y-102643412D01*
X179563036Y-102633837D01*
X179601998Y-102630000D01*
X180677002Y-102630000D01*
X180715964Y-102633837D01*
X180715964Y-102633837D01*
G37*
G36*
X177740964Y-102633837D02*
X177772528Y-102643412D01*
X177801617Y-102658960D01*
X177827114Y-102679886D01*
X177848040Y-102705383D01*
X177863588Y-102734472D01*
X177873163Y-102766036D01*
X177877000Y-102804998D01*
X177877000Y-104205002D01*
X177873163Y-104243964D01*
X177863588Y-104275528D01*
X177848040Y-104304617D01*
X177827114Y-104330114D01*
X177801617Y-104351040D01*
X177772528Y-104366588D01*
X177740964Y-104376163D01*
X177702002Y-104380000D01*
X176626998Y-104380000D01*
X176588036Y-104376163D01*
X176556472Y-104366588D01*
X176527383Y-104351040D01*
X176501886Y-104330114D01*
X176480960Y-104304617D01*
X176465412Y-104275528D01*
X176455837Y-104243964D01*
X176452000Y-104205002D01*
X176452000Y-102804998D01*
X176455837Y-102766036D01*
X176465412Y-102734472D01*
X176480960Y-102705383D01*
X176501886Y-102679886D01*
X176527383Y-102658960D01*
X176556472Y-102643412D01*
X176588036Y-102633837D01*
X176626998Y-102630000D01*
X177702002Y-102630000D01*
X177740964Y-102633837D01*
X177740964Y-102633837D01*
G37*
G36*
X177702002Y-99078884D02*
X177734023Y-99088598D01*
X177763535Y-99104372D01*
X177789401Y-99125599D01*
X177810628Y-99151465D01*
X177826402Y-99180977D01*
X177836116Y-99212998D01*
X177840000Y-99252436D01*
X177840000Y-100297564D01*
X177836116Y-100337002D01*
X177826402Y-100369023D01*
X177810628Y-100398535D01*
X177789401Y-100424401D01*
X177763535Y-100445628D01*
X177734023Y-100461402D01*
X177702002Y-100471116D01*
X177662564Y-100475000D01*
X176667436Y-100475000D01*
X176627998Y-100471116D01*
X176595977Y-100461402D01*
X176566465Y-100445628D01*
X176540599Y-100424401D01*
X176519372Y-100398535D01*
X176503598Y-100369023D01*
X176493884Y-100337002D01*
X176490000Y-100297564D01*
X176490000Y-99252436D01*
X176493884Y-99212998D01*
X176503598Y-99180977D01*
X176519372Y-99151465D01*
X176540599Y-99125599D01*
X176566465Y-99104372D01*
X176595977Y-99088598D01*
X176627998Y-99078884D01*
X176667436Y-99075000D01*
X177662564Y-99075000D01*
X177702002Y-99078884D01*
X177702002Y-99078884D01*
G37*
G36*
X198286630Y-98222299D02*
X198446855Y-98270903D01*
X198594520Y-98349831D01*
X198723949Y-98456051D01*
X198830169Y-98585480D01*
X198909097Y-98733145D01*
X198957701Y-98893370D01*
X198974112Y-99060000D01*
X198957701Y-99226630D01*
X198909097Y-99386855D01*
X198830169Y-99534520D01*
X198723949Y-99663949D01*
X198594520Y-99770169D01*
X198446855Y-99849097D01*
X198286630Y-99897701D01*
X198161752Y-99910000D01*
X198078248Y-99910000D01*
X197953370Y-99897701D01*
X197793145Y-99849097D01*
X197645480Y-99770169D01*
X197516051Y-99663949D01*
X197409831Y-99534520D01*
X197330903Y-99386855D01*
X197282299Y-99226630D01*
X197265888Y-99060000D01*
X197282299Y-98893370D01*
X197330903Y-98733145D01*
X197409831Y-98585480D01*
X197516051Y-98456051D01*
X197645480Y-98349831D01*
X197793145Y-98270903D01*
X197953370Y-98222299D01*
X198078248Y-98210000D01*
X198161752Y-98210000D01*
X198286630Y-98222299D01*
X198286630Y-98222299D01*
G37*
G36*
X195746630Y-98222299D02*
X195906855Y-98270903D01*
X196054520Y-98349831D01*
X196183949Y-98456051D01*
X196290169Y-98585480D01*
X196369097Y-98733145D01*
X196417701Y-98893370D01*
X196434112Y-99060000D01*
X196417701Y-99226630D01*
X196369097Y-99386855D01*
X196290169Y-99534520D01*
X196183949Y-99663949D01*
X196054520Y-99770169D01*
X195906855Y-99849097D01*
X195746630Y-99897701D01*
X195621752Y-99910000D01*
X195538248Y-99910000D01*
X195413370Y-99897701D01*
X195253145Y-99849097D01*
X195105480Y-99770169D01*
X194976051Y-99663949D01*
X194869831Y-99534520D01*
X194790903Y-99386855D01*
X194742299Y-99226630D01*
X194725888Y-99060000D01*
X194742299Y-98893370D01*
X194790903Y-98733145D01*
X194869831Y-98585480D01*
X194976051Y-98456051D01*
X195105480Y-98349831D01*
X195253145Y-98270903D01*
X195413370Y-98222299D01*
X195538248Y-98210000D01*
X195621752Y-98210000D01*
X195746630Y-98222299D01*
X195746630Y-98222299D01*
G37*
G36*
X193206630Y-98222299D02*
X193366855Y-98270903D01*
X193514520Y-98349831D01*
X193643949Y-98456051D01*
X193750169Y-98585480D01*
X193829097Y-98733145D01*
X193877701Y-98893370D01*
X193894112Y-99060000D01*
X193877701Y-99226630D01*
X193829097Y-99386855D01*
X193750169Y-99534520D01*
X193643949Y-99663949D01*
X193514520Y-99770169D01*
X193366855Y-99849097D01*
X193206630Y-99897701D01*
X193081752Y-99910000D01*
X192998248Y-99910000D01*
X192873370Y-99897701D01*
X192713145Y-99849097D01*
X192565480Y-99770169D01*
X192436051Y-99663949D01*
X192329831Y-99534520D01*
X192250903Y-99386855D01*
X192202299Y-99226630D01*
X192185888Y-99060000D01*
X192202299Y-98893370D01*
X192250903Y-98733145D01*
X192329831Y-98585480D01*
X192436051Y-98456051D01*
X192565480Y-98349831D01*
X192713145Y-98270903D01*
X192873370Y-98222299D01*
X192998248Y-98210000D01*
X193081752Y-98210000D01*
X193206630Y-98222299D01*
X193206630Y-98222299D01*
G37*
G36*
X200826630Y-98222299D02*
X200986855Y-98270903D01*
X201134520Y-98349831D01*
X201263949Y-98456051D01*
X201370169Y-98585480D01*
X201449097Y-98733145D01*
X201497701Y-98893370D01*
X201514112Y-99060000D01*
X201497701Y-99226630D01*
X201449097Y-99386855D01*
X201370169Y-99534520D01*
X201263949Y-99663949D01*
X201134520Y-99770169D01*
X200986855Y-99849097D01*
X200826630Y-99897701D01*
X200701752Y-99910000D01*
X200618248Y-99910000D01*
X200493370Y-99897701D01*
X200333145Y-99849097D01*
X200185480Y-99770169D01*
X200056051Y-99663949D01*
X199949831Y-99534520D01*
X199870903Y-99386855D01*
X199822299Y-99226630D01*
X199805888Y-99060000D01*
X199822299Y-98893370D01*
X199870903Y-98733145D01*
X199949831Y-98585480D01*
X200056051Y-98456051D01*
X200185480Y-98349831D01*
X200333145Y-98270903D01*
X200493370Y-98222299D01*
X200618248Y-98210000D01*
X200701752Y-98210000D01*
X200826630Y-98222299D01*
X200826630Y-98222299D01*
G37*
G36*
X190666630Y-98222299D02*
X190826855Y-98270903D01*
X190974520Y-98349831D01*
X191103949Y-98456051D01*
X191210169Y-98585480D01*
X191289097Y-98733145D01*
X191337701Y-98893370D01*
X191354112Y-99060000D01*
X191337701Y-99226630D01*
X191289097Y-99386855D01*
X191210169Y-99534520D01*
X191103949Y-99663949D01*
X190974520Y-99770169D01*
X190826855Y-99849097D01*
X190666630Y-99897701D01*
X190541752Y-99910000D01*
X190458248Y-99910000D01*
X190333370Y-99897701D01*
X190173145Y-99849097D01*
X190025480Y-99770169D01*
X189896051Y-99663949D01*
X189789831Y-99534520D01*
X189710903Y-99386855D01*
X189662299Y-99226630D01*
X189645888Y-99060000D01*
X189662299Y-98893370D01*
X189710903Y-98733145D01*
X189789831Y-98585480D01*
X189896051Y-98456051D01*
X190025480Y-98349831D01*
X190173145Y-98270903D01*
X190333370Y-98222299D01*
X190458248Y-98210000D01*
X190541752Y-98210000D01*
X190666630Y-98222299D01*
X190666630Y-98222299D01*
G37*
G36*
X188126630Y-98222299D02*
X188286855Y-98270903D01*
X188434520Y-98349831D01*
X188563949Y-98456051D01*
X188670169Y-98585480D01*
X188749097Y-98733145D01*
X188797701Y-98893370D01*
X188814112Y-99060000D01*
X188797701Y-99226630D01*
X188749097Y-99386855D01*
X188670169Y-99534520D01*
X188563949Y-99663949D01*
X188434520Y-99770169D01*
X188286855Y-99849097D01*
X188126630Y-99897701D01*
X188001752Y-99910000D01*
X187918248Y-99910000D01*
X187793370Y-99897701D01*
X187633145Y-99849097D01*
X187485480Y-99770169D01*
X187356051Y-99663949D01*
X187249831Y-99534520D01*
X187170903Y-99386855D01*
X187122299Y-99226630D01*
X187105888Y-99060000D01*
X187122299Y-98893370D01*
X187170903Y-98733145D01*
X187249831Y-98585480D01*
X187356051Y-98456051D01*
X187485480Y-98349831D01*
X187633145Y-98270903D01*
X187793370Y-98222299D01*
X187918248Y-98210000D01*
X188001752Y-98210000D01*
X188126630Y-98222299D01*
X188126630Y-98222299D01*
G37*
G36*
X203366630Y-98222299D02*
X203526855Y-98270903D01*
X203674520Y-98349831D01*
X203803949Y-98456051D01*
X203910169Y-98585480D01*
X203989097Y-98733145D01*
X204037701Y-98893370D01*
X204054112Y-99060000D01*
X204037701Y-99226630D01*
X203989097Y-99386855D01*
X203910169Y-99534520D01*
X203803949Y-99663949D01*
X203674520Y-99770169D01*
X203526855Y-99849097D01*
X203366630Y-99897701D01*
X203241752Y-99910000D01*
X203158248Y-99910000D01*
X203033370Y-99897701D01*
X202873145Y-99849097D01*
X202725480Y-99770169D01*
X202596051Y-99663949D01*
X202489831Y-99534520D01*
X202410903Y-99386855D01*
X202362299Y-99226630D01*
X202345888Y-99060000D01*
X202362299Y-98893370D01*
X202410903Y-98733145D01*
X202489831Y-98585480D01*
X202596051Y-98456051D01*
X202725480Y-98349831D01*
X202873145Y-98270903D01*
X203033370Y-98222299D01*
X203158248Y-98210000D01*
X203241752Y-98210000D01*
X203366630Y-98222299D01*
X203366630Y-98222299D01*
G37*
G36*
X185586630Y-98222299D02*
X185746855Y-98270903D01*
X185894520Y-98349831D01*
X186023949Y-98456051D01*
X186130169Y-98585480D01*
X186209097Y-98733145D01*
X186257701Y-98893370D01*
X186274112Y-99060000D01*
X186257701Y-99226630D01*
X186209097Y-99386855D01*
X186130169Y-99534520D01*
X186023949Y-99663949D01*
X185894520Y-99770169D01*
X185746855Y-99849097D01*
X185586630Y-99897701D01*
X185461752Y-99910000D01*
X185378248Y-99910000D01*
X185253370Y-99897701D01*
X185093145Y-99849097D01*
X184945480Y-99770169D01*
X184816051Y-99663949D01*
X184709831Y-99534520D01*
X184630903Y-99386855D01*
X184582299Y-99226630D01*
X184565888Y-99060000D01*
X184582299Y-98893370D01*
X184630903Y-98733145D01*
X184709831Y-98585480D01*
X184816051Y-98456051D01*
X184945480Y-98349831D01*
X185093145Y-98270903D01*
X185253370Y-98222299D01*
X185378248Y-98210000D01*
X185461752Y-98210000D01*
X185586630Y-98222299D01*
X185586630Y-98222299D01*
G37*
G36*
X221146630Y-98222299D02*
X221306855Y-98270903D01*
X221454520Y-98349831D01*
X221583949Y-98456051D01*
X221690169Y-98585480D01*
X221769097Y-98733145D01*
X221817701Y-98893370D01*
X221834112Y-99060000D01*
X221817701Y-99226630D01*
X221769097Y-99386855D01*
X221690169Y-99534520D01*
X221583949Y-99663949D01*
X221454520Y-99770169D01*
X221306855Y-99849097D01*
X221146630Y-99897701D01*
X221021752Y-99910000D01*
X220938248Y-99910000D01*
X220813370Y-99897701D01*
X220653145Y-99849097D01*
X220505480Y-99770169D01*
X220376051Y-99663949D01*
X220269831Y-99534520D01*
X220190903Y-99386855D01*
X220142299Y-99226630D01*
X220125888Y-99060000D01*
X220142299Y-98893370D01*
X220190903Y-98733145D01*
X220269831Y-98585480D01*
X220376051Y-98456051D01*
X220505480Y-98349831D01*
X220653145Y-98270903D01*
X220813370Y-98222299D01*
X220938248Y-98210000D01*
X221021752Y-98210000D01*
X221146630Y-98222299D01*
X221146630Y-98222299D01*
G37*
G36*
X181190000Y-99910000D02*
X179490000Y-99910000D01*
X179490000Y-98210000D01*
X181190000Y-98210000D01*
X181190000Y-99910000D01*
X181190000Y-99910000D01*
G37*
G36*
X208446630Y-98222299D02*
X208606855Y-98270903D01*
X208754520Y-98349831D01*
X208883949Y-98456051D01*
X208990169Y-98585480D01*
X209069097Y-98733145D01*
X209117701Y-98893370D01*
X209134112Y-99060000D01*
X209117701Y-99226630D01*
X209069097Y-99386855D01*
X208990169Y-99534520D01*
X208883949Y-99663949D01*
X208754520Y-99770169D01*
X208606855Y-99849097D01*
X208446630Y-99897701D01*
X208321752Y-99910000D01*
X208238248Y-99910000D01*
X208113370Y-99897701D01*
X207953145Y-99849097D01*
X207805480Y-99770169D01*
X207676051Y-99663949D01*
X207569831Y-99534520D01*
X207490903Y-99386855D01*
X207442299Y-99226630D01*
X207425888Y-99060000D01*
X207442299Y-98893370D01*
X207490903Y-98733145D01*
X207569831Y-98585480D01*
X207676051Y-98456051D01*
X207805480Y-98349831D01*
X207953145Y-98270903D01*
X208113370Y-98222299D01*
X208238248Y-98210000D01*
X208321752Y-98210000D01*
X208446630Y-98222299D01*
X208446630Y-98222299D01*
G37*
G36*
X210986630Y-98222299D02*
X211146855Y-98270903D01*
X211294520Y-98349831D01*
X211423949Y-98456051D01*
X211530169Y-98585480D01*
X211609097Y-98733145D01*
X211657701Y-98893370D01*
X211674112Y-99060000D01*
X211657701Y-99226630D01*
X211609097Y-99386855D01*
X211530169Y-99534520D01*
X211423949Y-99663949D01*
X211294520Y-99770169D01*
X211146855Y-99849097D01*
X210986630Y-99897701D01*
X210861752Y-99910000D01*
X210778248Y-99910000D01*
X210653370Y-99897701D01*
X210493145Y-99849097D01*
X210345480Y-99770169D01*
X210216051Y-99663949D01*
X210109831Y-99534520D01*
X210030903Y-99386855D01*
X209982299Y-99226630D01*
X209965888Y-99060000D01*
X209982299Y-98893370D01*
X210030903Y-98733145D01*
X210109831Y-98585480D01*
X210216051Y-98456051D01*
X210345480Y-98349831D01*
X210493145Y-98270903D01*
X210653370Y-98222299D01*
X210778248Y-98210000D01*
X210861752Y-98210000D01*
X210986630Y-98222299D01*
X210986630Y-98222299D01*
G37*
G36*
X213526630Y-98222299D02*
X213686855Y-98270903D01*
X213834520Y-98349831D01*
X213963949Y-98456051D01*
X214070169Y-98585480D01*
X214149097Y-98733145D01*
X214197701Y-98893370D01*
X214214112Y-99060000D01*
X214197701Y-99226630D01*
X214149097Y-99386855D01*
X214070169Y-99534520D01*
X213963949Y-99663949D01*
X213834520Y-99770169D01*
X213686855Y-99849097D01*
X213526630Y-99897701D01*
X213401752Y-99910000D01*
X213318248Y-99910000D01*
X213193370Y-99897701D01*
X213033145Y-99849097D01*
X212885480Y-99770169D01*
X212756051Y-99663949D01*
X212649831Y-99534520D01*
X212570903Y-99386855D01*
X212522299Y-99226630D01*
X212505888Y-99060000D01*
X212522299Y-98893370D01*
X212570903Y-98733145D01*
X212649831Y-98585480D01*
X212756051Y-98456051D01*
X212885480Y-98349831D01*
X213033145Y-98270903D01*
X213193370Y-98222299D01*
X213318248Y-98210000D01*
X213401752Y-98210000D01*
X213526630Y-98222299D01*
X213526630Y-98222299D01*
G37*
G36*
X216066630Y-98222299D02*
X216226855Y-98270903D01*
X216374520Y-98349831D01*
X216503949Y-98456051D01*
X216610169Y-98585480D01*
X216689097Y-98733145D01*
X216737701Y-98893370D01*
X216754112Y-99060000D01*
X216737701Y-99226630D01*
X216689097Y-99386855D01*
X216610169Y-99534520D01*
X216503949Y-99663949D01*
X216374520Y-99770169D01*
X216226855Y-99849097D01*
X216066630Y-99897701D01*
X215941752Y-99910000D01*
X215858248Y-99910000D01*
X215733370Y-99897701D01*
X215573145Y-99849097D01*
X215425480Y-99770169D01*
X215296051Y-99663949D01*
X215189831Y-99534520D01*
X215110903Y-99386855D01*
X215062299Y-99226630D01*
X215045888Y-99060000D01*
X215062299Y-98893370D01*
X215110903Y-98733145D01*
X215189831Y-98585480D01*
X215296051Y-98456051D01*
X215425480Y-98349831D01*
X215573145Y-98270903D01*
X215733370Y-98222299D01*
X215858248Y-98210000D01*
X215941752Y-98210000D01*
X216066630Y-98222299D01*
X216066630Y-98222299D01*
G37*
G36*
X218606630Y-98222299D02*
X218766855Y-98270903D01*
X218914520Y-98349831D01*
X219043949Y-98456051D01*
X219150169Y-98585480D01*
X219229097Y-98733145D01*
X219277701Y-98893370D01*
X219294112Y-99060000D01*
X219277701Y-99226630D01*
X219229097Y-99386855D01*
X219150169Y-99534520D01*
X219043949Y-99663949D01*
X218914520Y-99770169D01*
X218766855Y-99849097D01*
X218606630Y-99897701D01*
X218481752Y-99910000D01*
X218398248Y-99910000D01*
X218273370Y-99897701D01*
X218113145Y-99849097D01*
X217965480Y-99770169D01*
X217836051Y-99663949D01*
X217729831Y-99534520D01*
X217650903Y-99386855D01*
X217602299Y-99226630D01*
X217585888Y-99060000D01*
X217602299Y-98893370D01*
X217650903Y-98733145D01*
X217729831Y-98585480D01*
X217836051Y-98456051D01*
X217965480Y-98349831D01*
X218113145Y-98270903D01*
X218273370Y-98222299D01*
X218398248Y-98210000D01*
X218481752Y-98210000D01*
X218606630Y-98222299D01*
X218606630Y-98222299D01*
G37*
G36*
X205906630Y-98222299D02*
X206066855Y-98270903D01*
X206214520Y-98349831D01*
X206343949Y-98456051D01*
X206450169Y-98585480D01*
X206529097Y-98733145D01*
X206577701Y-98893370D01*
X206594112Y-99060000D01*
X206577701Y-99226630D01*
X206529097Y-99386855D01*
X206450169Y-99534520D01*
X206343949Y-99663949D01*
X206214520Y-99770169D01*
X206066855Y-99849097D01*
X205906630Y-99897701D01*
X205781752Y-99910000D01*
X205698248Y-99910000D01*
X205573370Y-99897701D01*
X205413145Y-99849097D01*
X205265480Y-99770169D01*
X205136051Y-99663949D01*
X205029831Y-99534520D01*
X204950903Y-99386855D01*
X204902299Y-99226630D01*
X204885888Y-99060000D01*
X204902299Y-98893370D01*
X204950903Y-98733145D01*
X205029831Y-98585480D01*
X205136051Y-98456051D01*
X205265480Y-98349831D01*
X205413145Y-98270903D01*
X205573370Y-98222299D01*
X205698248Y-98210000D01*
X205781752Y-98210000D01*
X205906630Y-98222299D01*
X205906630Y-98222299D01*
G37*
G36*
X183046630Y-98222299D02*
X183206855Y-98270903D01*
X183354520Y-98349831D01*
X183483949Y-98456051D01*
X183590169Y-98585480D01*
X183669097Y-98733145D01*
X183717701Y-98893370D01*
X183734112Y-99060000D01*
X183717701Y-99226630D01*
X183669097Y-99386855D01*
X183590169Y-99534520D01*
X183483949Y-99663949D01*
X183354520Y-99770169D01*
X183206855Y-99849097D01*
X183046630Y-99897701D01*
X182921752Y-99910000D01*
X182838248Y-99910000D01*
X182713370Y-99897701D01*
X182553145Y-99849097D01*
X182405480Y-99770169D01*
X182276051Y-99663949D01*
X182169831Y-99534520D01*
X182090903Y-99386855D01*
X182042299Y-99226630D01*
X182025888Y-99060000D01*
X182042299Y-98893370D01*
X182090903Y-98733145D01*
X182169831Y-98585480D01*
X182276051Y-98456051D01*
X182405480Y-98349831D01*
X182553145Y-98270903D01*
X182713370Y-98222299D01*
X182838248Y-98210000D01*
X182921752Y-98210000D01*
X183046630Y-98222299D01*
X183046630Y-98222299D01*
G37*
G36*
X177702002Y-96378884D02*
X177734023Y-96388598D01*
X177763535Y-96404372D01*
X177789401Y-96425599D01*
X177810628Y-96451465D01*
X177826402Y-96480977D01*
X177836116Y-96512998D01*
X177840000Y-96552436D01*
X177840000Y-97597564D01*
X177836116Y-97637002D01*
X177826402Y-97669023D01*
X177810628Y-97698535D01*
X177789401Y-97724401D01*
X177763535Y-97745628D01*
X177734023Y-97761402D01*
X177702002Y-97771116D01*
X177662564Y-97775000D01*
X176667436Y-97775000D01*
X176627998Y-97771116D01*
X176595977Y-97761402D01*
X176566465Y-97745628D01*
X176540599Y-97724401D01*
X176519372Y-97698535D01*
X176503598Y-97669023D01*
X176493884Y-97637002D01*
X176490000Y-97597564D01*
X176490000Y-96552436D01*
X176493884Y-96512998D01*
X176503598Y-96480977D01*
X176519372Y-96451465D01*
X176540599Y-96425599D01*
X176566465Y-96404372D01*
X176595977Y-96388598D01*
X176627998Y-96378884D01*
X176667436Y-96375000D01*
X177662564Y-96375000D01*
X177702002Y-96378884D01*
X177702002Y-96378884D01*
G37*
G36*
X180506630Y-95682299D02*
X180666855Y-95730903D01*
X180814520Y-95809831D01*
X180943949Y-95916051D01*
X181050169Y-96045480D01*
X181129097Y-96193145D01*
X181177701Y-96353370D01*
X181194112Y-96520000D01*
X181177701Y-96686630D01*
X181129097Y-96846855D01*
X181050169Y-96994520D01*
X180943949Y-97123949D01*
X180814520Y-97230169D01*
X180666855Y-97309097D01*
X180506630Y-97357701D01*
X180381752Y-97370000D01*
X180298248Y-97370000D01*
X180173370Y-97357701D01*
X180013145Y-97309097D01*
X179865480Y-97230169D01*
X179736051Y-97123949D01*
X179629831Y-96994520D01*
X179550903Y-96846855D01*
X179502299Y-96686630D01*
X179485888Y-96520000D01*
X179502299Y-96353370D01*
X179550903Y-96193145D01*
X179629831Y-96045480D01*
X179736051Y-95916051D01*
X179865480Y-95809831D01*
X180013145Y-95730903D01*
X180173370Y-95682299D01*
X180298248Y-95670000D01*
X180381752Y-95670000D01*
X180506630Y-95682299D01*
X180506630Y-95682299D01*
G37*
G36*
X190666630Y-95682299D02*
X190826855Y-95730903D01*
X190974520Y-95809831D01*
X191103949Y-95916051D01*
X191210169Y-96045480D01*
X191289097Y-96193145D01*
X191337701Y-96353370D01*
X191354112Y-96520000D01*
X191337701Y-96686630D01*
X191289097Y-96846855D01*
X191210169Y-96994520D01*
X191103949Y-97123949D01*
X190974520Y-97230169D01*
X190826855Y-97309097D01*
X190666630Y-97357701D01*
X190541752Y-97370000D01*
X190458248Y-97370000D01*
X190333370Y-97357701D01*
X190173145Y-97309097D01*
X190025480Y-97230169D01*
X189896051Y-97123949D01*
X189789831Y-96994520D01*
X189710903Y-96846855D01*
X189662299Y-96686630D01*
X189645888Y-96520000D01*
X189662299Y-96353370D01*
X189710903Y-96193145D01*
X189789831Y-96045480D01*
X189896051Y-95916051D01*
X190025480Y-95809831D01*
X190173145Y-95730903D01*
X190333370Y-95682299D01*
X190458248Y-95670000D01*
X190541752Y-95670000D01*
X190666630Y-95682299D01*
X190666630Y-95682299D01*
G37*
G36*
X193206630Y-95682299D02*
X193366855Y-95730903D01*
X193514520Y-95809831D01*
X193643949Y-95916051D01*
X193750169Y-96045480D01*
X193829097Y-96193145D01*
X193877701Y-96353370D01*
X193894112Y-96520000D01*
X193877701Y-96686630D01*
X193829097Y-96846855D01*
X193750169Y-96994520D01*
X193643949Y-97123949D01*
X193514520Y-97230169D01*
X193366855Y-97309097D01*
X193206630Y-97357701D01*
X193081752Y-97370000D01*
X192998248Y-97370000D01*
X192873370Y-97357701D01*
X192713145Y-97309097D01*
X192565480Y-97230169D01*
X192436051Y-97123949D01*
X192329831Y-96994520D01*
X192250903Y-96846855D01*
X192202299Y-96686630D01*
X192185888Y-96520000D01*
X192202299Y-96353370D01*
X192250903Y-96193145D01*
X192329831Y-96045480D01*
X192436051Y-95916051D01*
X192565480Y-95809831D01*
X192713145Y-95730903D01*
X192873370Y-95682299D01*
X192998248Y-95670000D01*
X193081752Y-95670000D01*
X193206630Y-95682299D01*
X193206630Y-95682299D01*
G37*
G36*
X195746630Y-95682299D02*
X195906855Y-95730903D01*
X196054520Y-95809831D01*
X196183949Y-95916051D01*
X196290169Y-96045480D01*
X196369097Y-96193145D01*
X196417701Y-96353370D01*
X196434112Y-96520000D01*
X196417701Y-96686630D01*
X196369097Y-96846855D01*
X196290169Y-96994520D01*
X196183949Y-97123949D01*
X196054520Y-97230169D01*
X195906855Y-97309097D01*
X195746630Y-97357701D01*
X195621752Y-97370000D01*
X195538248Y-97370000D01*
X195413370Y-97357701D01*
X195253145Y-97309097D01*
X195105480Y-97230169D01*
X194976051Y-97123949D01*
X194869831Y-96994520D01*
X194790903Y-96846855D01*
X194742299Y-96686630D01*
X194725888Y-96520000D01*
X194742299Y-96353370D01*
X194790903Y-96193145D01*
X194869831Y-96045480D01*
X194976051Y-95916051D01*
X195105480Y-95809831D01*
X195253145Y-95730903D01*
X195413370Y-95682299D01*
X195538248Y-95670000D01*
X195621752Y-95670000D01*
X195746630Y-95682299D01*
X195746630Y-95682299D01*
G37*
G36*
X188126630Y-95682299D02*
X188286855Y-95730903D01*
X188434520Y-95809831D01*
X188563949Y-95916051D01*
X188670169Y-96045480D01*
X188749097Y-96193145D01*
X188797701Y-96353370D01*
X188814112Y-96520000D01*
X188797701Y-96686630D01*
X188749097Y-96846855D01*
X188670169Y-96994520D01*
X188563949Y-97123949D01*
X188434520Y-97230169D01*
X188286855Y-97309097D01*
X188126630Y-97357701D01*
X188001752Y-97370000D01*
X187918248Y-97370000D01*
X187793370Y-97357701D01*
X187633145Y-97309097D01*
X187485480Y-97230169D01*
X187356051Y-97123949D01*
X187249831Y-96994520D01*
X187170903Y-96846855D01*
X187122299Y-96686630D01*
X187105888Y-96520000D01*
X187122299Y-96353370D01*
X187170903Y-96193145D01*
X187249831Y-96045480D01*
X187356051Y-95916051D01*
X187485480Y-95809831D01*
X187633145Y-95730903D01*
X187793370Y-95682299D01*
X187918248Y-95670000D01*
X188001752Y-95670000D01*
X188126630Y-95682299D01*
X188126630Y-95682299D01*
G37*
G36*
X208446630Y-95682299D02*
X208606855Y-95730903D01*
X208754520Y-95809831D01*
X208883949Y-95916051D01*
X208990169Y-96045480D01*
X209069097Y-96193145D01*
X209117701Y-96353370D01*
X209134112Y-96520000D01*
X209117701Y-96686630D01*
X209069097Y-96846855D01*
X208990169Y-96994520D01*
X208883949Y-97123949D01*
X208754520Y-97230169D01*
X208606855Y-97309097D01*
X208446630Y-97357701D01*
X208321752Y-97370000D01*
X208238248Y-97370000D01*
X208113370Y-97357701D01*
X207953145Y-97309097D01*
X207805480Y-97230169D01*
X207676051Y-97123949D01*
X207569831Y-96994520D01*
X207490903Y-96846855D01*
X207442299Y-96686630D01*
X207425888Y-96520000D01*
X207442299Y-96353370D01*
X207490903Y-96193145D01*
X207569831Y-96045480D01*
X207676051Y-95916051D01*
X207805480Y-95809831D01*
X207953145Y-95730903D01*
X208113370Y-95682299D01*
X208238248Y-95670000D01*
X208321752Y-95670000D01*
X208446630Y-95682299D01*
X208446630Y-95682299D01*
G37*
G36*
X210986630Y-95682299D02*
X211146855Y-95730903D01*
X211294520Y-95809831D01*
X211423949Y-95916051D01*
X211530169Y-96045480D01*
X211609097Y-96193145D01*
X211657701Y-96353370D01*
X211674112Y-96520000D01*
X211657701Y-96686630D01*
X211609097Y-96846855D01*
X211530169Y-96994520D01*
X211423949Y-97123949D01*
X211294520Y-97230169D01*
X211146855Y-97309097D01*
X210986630Y-97357701D01*
X210861752Y-97370000D01*
X210778248Y-97370000D01*
X210653370Y-97357701D01*
X210493145Y-97309097D01*
X210345480Y-97230169D01*
X210216051Y-97123949D01*
X210109831Y-96994520D01*
X210030903Y-96846855D01*
X209982299Y-96686630D01*
X209965888Y-96520000D01*
X209982299Y-96353370D01*
X210030903Y-96193145D01*
X210109831Y-96045480D01*
X210216051Y-95916051D01*
X210345480Y-95809831D01*
X210493145Y-95730903D01*
X210653370Y-95682299D01*
X210778248Y-95670000D01*
X210861752Y-95670000D01*
X210986630Y-95682299D01*
X210986630Y-95682299D01*
G37*
G36*
X198286630Y-95682299D02*
X198446855Y-95730903D01*
X198594520Y-95809831D01*
X198723949Y-95916051D01*
X198830169Y-96045480D01*
X198909097Y-96193145D01*
X198957701Y-96353370D01*
X198974112Y-96520000D01*
X198957701Y-96686630D01*
X198909097Y-96846855D01*
X198830169Y-96994520D01*
X198723949Y-97123949D01*
X198594520Y-97230169D01*
X198446855Y-97309097D01*
X198286630Y-97357701D01*
X198161752Y-97370000D01*
X198078248Y-97370000D01*
X197953370Y-97357701D01*
X197793145Y-97309097D01*
X197645480Y-97230169D01*
X197516051Y-97123949D01*
X197409831Y-96994520D01*
X197330903Y-96846855D01*
X197282299Y-96686630D01*
X197265888Y-96520000D01*
X197282299Y-96353370D01*
X197330903Y-96193145D01*
X197409831Y-96045480D01*
X197516051Y-95916051D01*
X197645480Y-95809831D01*
X197793145Y-95730903D01*
X197953370Y-95682299D01*
X198078248Y-95670000D01*
X198161752Y-95670000D01*
X198286630Y-95682299D01*
X198286630Y-95682299D01*
G37*
G36*
X183046630Y-95682299D02*
X183206855Y-95730903D01*
X183354520Y-95809831D01*
X183483949Y-95916051D01*
X183590169Y-96045480D01*
X183669097Y-96193145D01*
X183717701Y-96353370D01*
X183734112Y-96520000D01*
X183717701Y-96686630D01*
X183669097Y-96846855D01*
X183590169Y-96994520D01*
X183483949Y-97123949D01*
X183354520Y-97230169D01*
X183206855Y-97309097D01*
X183046630Y-97357701D01*
X182921752Y-97370000D01*
X182838248Y-97370000D01*
X182713370Y-97357701D01*
X182553145Y-97309097D01*
X182405480Y-97230169D01*
X182276051Y-97123949D01*
X182169831Y-96994520D01*
X182090903Y-96846855D01*
X182042299Y-96686630D01*
X182025888Y-96520000D01*
X182042299Y-96353370D01*
X182090903Y-96193145D01*
X182169831Y-96045480D01*
X182276051Y-95916051D01*
X182405480Y-95809831D01*
X182553145Y-95730903D01*
X182713370Y-95682299D01*
X182838248Y-95670000D01*
X182921752Y-95670000D01*
X183046630Y-95682299D01*
X183046630Y-95682299D01*
G37*
G36*
X221146630Y-95682299D02*
X221306855Y-95730903D01*
X221454520Y-95809831D01*
X221583949Y-95916051D01*
X221690169Y-96045480D01*
X221769097Y-96193145D01*
X221817701Y-96353370D01*
X221834112Y-96520000D01*
X221817701Y-96686630D01*
X221769097Y-96846855D01*
X221690169Y-96994520D01*
X221583949Y-97123949D01*
X221454520Y-97230169D01*
X221306855Y-97309097D01*
X221146630Y-97357701D01*
X221021752Y-97370000D01*
X220938248Y-97370000D01*
X220813370Y-97357701D01*
X220653145Y-97309097D01*
X220505480Y-97230169D01*
X220376051Y-97123949D01*
X220269831Y-96994520D01*
X220190903Y-96846855D01*
X220142299Y-96686630D01*
X220125888Y-96520000D01*
X220142299Y-96353370D01*
X220190903Y-96193145D01*
X220269831Y-96045480D01*
X220376051Y-95916051D01*
X220505480Y-95809831D01*
X220653145Y-95730903D01*
X220813370Y-95682299D01*
X220938248Y-95670000D01*
X221021752Y-95670000D01*
X221146630Y-95682299D01*
X221146630Y-95682299D01*
G37*
G36*
X185586630Y-95682299D02*
X185746855Y-95730903D01*
X185894520Y-95809831D01*
X186023949Y-95916051D01*
X186130169Y-96045480D01*
X186209097Y-96193145D01*
X186257701Y-96353370D01*
X186274112Y-96520000D01*
X186257701Y-96686630D01*
X186209097Y-96846855D01*
X186130169Y-96994520D01*
X186023949Y-97123949D01*
X185894520Y-97230169D01*
X185746855Y-97309097D01*
X185586630Y-97357701D01*
X185461752Y-97370000D01*
X185378248Y-97370000D01*
X185253370Y-97357701D01*
X185093145Y-97309097D01*
X184945480Y-97230169D01*
X184816051Y-97123949D01*
X184709831Y-96994520D01*
X184630903Y-96846855D01*
X184582299Y-96686630D01*
X184565888Y-96520000D01*
X184582299Y-96353370D01*
X184630903Y-96193145D01*
X184709831Y-96045480D01*
X184816051Y-95916051D01*
X184945480Y-95809831D01*
X185093145Y-95730903D01*
X185253370Y-95682299D01*
X185378248Y-95670000D01*
X185461752Y-95670000D01*
X185586630Y-95682299D01*
X185586630Y-95682299D01*
G37*
G36*
X200826630Y-95682299D02*
X200986855Y-95730903D01*
X201134520Y-95809831D01*
X201263949Y-95916051D01*
X201370169Y-96045480D01*
X201449097Y-96193145D01*
X201497701Y-96353370D01*
X201514112Y-96520000D01*
X201497701Y-96686630D01*
X201449097Y-96846855D01*
X201370169Y-96994520D01*
X201263949Y-97123949D01*
X201134520Y-97230169D01*
X200986855Y-97309097D01*
X200826630Y-97357701D01*
X200701752Y-97370000D01*
X200618248Y-97370000D01*
X200493370Y-97357701D01*
X200333145Y-97309097D01*
X200185480Y-97230169D01*
X200056051Y-97123949D01*
X199949831Y-96994520D01*
X199870903Y-96846855D01*
X199822299Y-96686630D01*
X199805888Y-96520000D01*
X199822299Y-96353370D01*
X199870903Y-96193145D01*
X199949831Y-96045480D01*
X200056051Y-95916051D01*
X200185480Y-95809831D01*
X200333145Y-95730903D01*
X200493370Y-95682299D01*
X200618248Y-95670000D01*
X200701752Y-95670000D01*
X200826630Y-95682299D01*
X200826630Y-95682299D01*
G37*
G36*
X218606630Y-95682299D02*
X218766855Y-95730903D01*
X218914520Y-95809831D01*
X219043949Y-95916051D01*
X219150169Y-96045480D01*
X219229097Y-96193145D01*
X219277701Y-96353370D01*
X219294112Y-96520000D01*
X219277701Y-96686630D01*
X219229097Y-96846855D01*
X219150169Y-96994520D01*
X219043949Y-97123949D01*
X218914520Y-97230169D01*
X218766855Y-97309097D01*
X218606630Y-97357701D01*
X218481752Y-97370000D01*
X218398248Y-97370000D01*
X218273370Y-97357701D01*
X218113145Y-97309097D01*
X217965480Y-97230169D01*
X217836051Y-97123949D01*
X217729831Y-96994520D01*
X217650903Y-96846855D01*
X217602299Y-96686630D01*
X217585888Y-96520000D01*
X217602299Y-96353370D01*
X217650903Y-96193145D01*
X217729831Y-96045480D01*
X217836051Y-95916051D01*
X217965480Y-95809831D01*
X218113145Y-95730903D01*
X218273370Y-95682299D01*
X218398248Y-95670000D01*
X218481752Y-95670000D01*
X218606630Y-95682299D01*
X218606630Y-95682299D01*
G37*
G36*
X205906630Y-95682299D02*
X206066855Y-95730903D01*
X206214520Y-95809831D01*
X206343949Y-95916051D01*
X206450169Y-96045480D01*
X206529097Y-96193145D01*
X206577701Y-96353370D01*
X206594112Y-96520000D01*
X206577701Y-96686630D01*
X206529097Y-96846855D01*
X206450169Y-96994520D01*
X206343949Y-97123949D01*
X206214520Y-97230169D01*
X206066855Y-97309097D01*
X205906630Y-97357701D01*
X205781752Y-97370000D01*
X205698248Y-97370000D01*
X205573370Y-97357701D01*
X205413145Y-97309097D01*
X205265480Y-97230169D01*
X205136051Y-97123949D01*
X205029831Y-96994520D01*
X204950903Y-96846855D01*
X204902299Y-96686630D01*
X204885888Y-96520000D01*
X204902299Y-96353370D01*
X204950903Y-96193145D01*
X205029831Y-96045480D01*
X205136051Y-95916051D01*
X205265480Y-95809831D01*
X205413145Y-95730903D01*
X205573370Y-95682299D01*
X205698248Y-95670000D01*
X205781752Y-95670000D01*
X205906630Y-95682299D01*
X205906630Y-95682299D01*
G37*
G36*
X216066630Y-95682299D02*
X216226855Y-95730903D01*
X216374520Y-95809831D01*
X216503949Y-95916051D01*
X216610169Y-96045480D01*
X216689097Y-96193145D01*
X216737701Y-96353370D01*
X216754112Y-96520000D01*
X216737701Y-96686630D01*
X216689097Y-96846855D01*
X216610169Y-96994520D01*
X216503949Y-97123949D01*
X216374520Y-97230169D01*
X216226855Y-97309097D01*
X216066630Y-97357701D01*
X215941752Y-97370000D01*
X215858248Y-97370000D01*
X215733370Y-97357701D01*
X215573145Y-97309097D01*
X215425480Y-97230169D01*
X215296051Y-97123949D01*
X215189831Y-96994520D01*
X215110903Y-96846855D01*
X215062299Y-96686630D01*
X215045888Y-96520000D01*
X215062299Y-96353370D01*
X215110903Y-96193145D01*
X215189831Y-96045480D01*
X215296051Y-95916051D01*
X215425480Y-95809831D01*
X215573145Y-95730903D01*
X215733370Y-95682299D01*
X215858248Y-95670000D01*
X215941752Y-95670000D01*
X216066630Y-95682299D01*
X216066630Y-95682299D01*
G37*
G36*
X203366630Y-95682299D02*
X203526855Y-95730903D01*
X203674520Y-95809831D01*
X203803949Y-95916051D01*
X203910169Y-96045480D01*
X203989097Y-96193145D01*
X204037701Y-96353370D01*
X204054112Y-96520000D01*
X204037701Y-96686630D01*
X203989097Y-96846855D01*
X203910169Y-96994520D01*
X203803949Y-97123949D01*
X203674520Y-97230169D01*
X203526855Y-97309097D01*
X203366630Y-97357701D01*
X203241752Y-97370000D01*
X203158248Y-97370000D01*
X203033370Y-97357701D01*
X202873145Y-97309097D01*
X202725480Y-97230169D01*
X202596051Y-97123949D01*
X202489831Y-96994520D01*
X202410903Y-96846855D01*
X202362299Y-96686630D01*
X202345888Y-96520000D01*
X202362299Y-96353370D01*
X202410903Y-96193145D01*
X202489831Y-96045480D01*
X202596051Y-95916051D01*
X202725480Y-95809831D01*
X202873145Y-95730903D01*
X203033370Y-95682299D01*
X203158248Y-95670000D01*
X203241752Y-95670000D01*
X203366630Y-95682299D01*
X203366630Y-95682299D01*
G37*
G36*
X213526630Y-95682299D02*
X213686855Y-95730903D01*
X213834520Y-95809831D01*
X213963949Y-95916051D01*
X214070169Y-96045480D01*
X214149097Y-96193145D01*
X214197701Y-96353370D01*
X214214112Y-96520000D01*
X214197701Y-96686630D01*
X214149097Y-96846855D01*
X214070169Y-96994520D01*
X213963949Y-97123949D01*
X213834520Y-97230169D01*
X213686855Y-97309097D01*
X213526630Y-97357701D01*
X213401752Y-97370000D01*
X213318248Y-97370000D01*
X213193370Y-97357701D01*
X213033145Y-97309097D01*
X212885480Y-97230169D01*
X212756051Y-97123949D01*
X212649831Y-96994520D01*
X212570903Y-96846855D01*
X212522299Y-96686630D01*
X212505888Y-96520000D01*
X212522299Y-96353370D01*
X212570903Y-96193145D01*
X212649831Y-96045480D01*
X212756051Y-95916051D01*
X212885480Y-95809831D01*
X213033145Y-95730903D01*
X213193370Y-95682299D01*
X213318248Y-95670000D01*
X213401752Y-95670000D01*
X213526630Y-95682299D01*
X213526630Y-95682299D01*
G37*
M02*
