%TF.GenerationSoftware,KiCad,Pcbnew,4.0.2+dfsg1-stable*%
%TF.CreationDate,2019-06-17T11:45:11+02:00*%
%TF.ProjectId,AmigaPCDriveAdapter,416D6967615043447269766541646170,rev?*%
%TF.FileFunction,Other,User*%
%FSLAX46Y46*%
G04 Gerber Fmt 4.6, Leading zero omitted, Abs format (unit mm)*
G04 Created by KiCad (PCBNEW 4.0.2+dfsg1-stable) date lun 17 giu 2019 11:45:11 CEST*
%MOMM*%
G01*
G04 APERTURE LIST*
%ADD10C,0.100000*%
%ADD11C,0.300000*%
G04 APERTURE END LIST*
D10*
D11*
X195231430Y-78473571D02*
X194517144Y-78473571D01*
X194445715Y-79187857D01*
X194517144Y-79116429D01*
X194660001Y-79045000D01*
X195017144Y-79045000D01*
X195160001Y-79116429D01*
X195231430Y-79187857D01*
X195302858Y-79330714D01*
X195302858Y-79687857D01*
X195231430Y-79830714D01*
X195160001Y-79902143D01*
X195017144Y-79973571D01*
X194660001Y-79973571D01*
X194517144Y-79902143D01*
X194445715Y-79830714D01*
X196231429Y-78473571D02*
X196374286Y-78473571D01*
X196517143Y-78545000D01*
X196588572Y-78616429D01*
X196660001Y-78759286D01*
X196731429Y-79045000D01*
X196731429Y-79402143D01*
X196660001Y-79687857D01*
X196588572Y-79830714D01*
X196517143Y-79902143D01*
X196374286Y-79973571D01*
X196231429Y-79973571D01*
X196088572Y-79902143D01*
X196017143Y-79830714D01*
X195945715Y-79687857D01*
X195874286Y-79402143D01*
X195874286Y-79045000D01*
X195945715Y-78759286D01*
X196017143Y-78616429D01*
X196088572Y-78545000D01*
X196231429Y-78473571D01*
X197445714Y-79902143D02*
X197445714Y-79973571D01*
X197374286Y-80116429D01*
X197302857Y-80187857D01*
X198302858Y-79116429D02*
X198160000Y-79045000D01*
X198088572Y-78973571D01*
X198017143Y-78830714D01*
X198017143Y-78759286D01*
X198088572Y-78616429D01*
X198160000Y-78545000D01*
X198302858Y-78473571D01*
X198588572Y-78473571D01*
X198731429Y-78545000D01*
X198802858Y-78616429D01*
X198874286Y-78759286D01*
X198874286Y-78830714D01*
X198802858Y-78973571D01*
X198731429Y-79045000D01*
X198588572Y-79116429D01*
X198302858Y-79116429D01*
X198160000Y-79187857D01*
X198088572Y-79259286D01*
X198017143Y-79402143D01*
X198017143Y-79687857D01*
X198088572Y-79830714D01*
X198160000Y-79902143D01*
X198302858Y-79973571D01*
X198588572Y-79973571D01*
X198731429Y-79902143D01*
X198802858Y-79830714D01*
X198874286Y-79687857D01*
X198874286Y-79402143D01*
X198802858Y-79259286D01*
X198731429Y-79187857D01*
X198588572Y-79116429D01*
X199802857Y-78473571D02*
X199945714Y-78473571D01*
X200088571Y-78545000D01*
X200160000Y-78616429D01*
X200231429Y-78759286D01*
X200302857Y-79045000D01*
X200302857Y-79402143D01*
X200231429Y-79687857D01*
X200160000Y-79830714D01*
X200088571Y-79902143D01*
X199945714Y-79973571D01*
X199802857Y-79973571D01*
X199660000Y-79902143D01*
X199588571Y-79830714D01*
X199517143Y-79687857D01*
X199445714Y-79402143D01*
X199445714Y-79045000D01*
X199517143Y-78759286D01*
X199588571Y-78616429D01*
X199660000Y-78545000D01*
X199802857Y-78473571D01*
X201231428Y-78473571D02*
X201374285Y-78473571D01*
X201517142Y-78545000D01*
X201588571Y-78616429D01*
X201660000Y-78759286D01*
X201731428Y-79045000D01*
X201731428Y-79402143D01*
X201660000Y-79687857D01*
X201588571Y-79830714D01*
X201517142Y-79902143D01*
X201374285Y-79973571D01*
X201231428Y-79973571D01*
X201088571Y-79902143D01*
X201017142Y-79830714D01*
X200945714Y-79687857D01*
X200874285Y-79402143D01*
X200874285Y-79045000D01*
X200945714Y-78759286D01*
X201017142Y-78616429D01*
X201088571Y-78545000D01*
X201231428Y-78473571D01*
X203517142Y-79973571D02*
X203517142Y-78973571D01*
X203517142Y-79116429D02*
X203588570Y-79045000D01*
X203731428Y-78973571D01*
X203945713Y-78973571D01*
X204088570Y-79045000D01*
X204159999Y-79187857D01*
X204159999Y-79973571D01*
X204159999Y-79187857D02*
X204231428Y-79045000D01*
X204374285Y-78973571D01*
X204588570Y-78973571D01*
X204731428Y-79045000D01*
X204802856Y-79187857D01*
X204802856Y-79973571D01*
X205517142Y-79973571D02*
X205517142Y-78973571D01*
X205517142Y-79116429D02*
X205588570Y-79045000D01*
X205731428Y-78973571D01*
X205945713Y-78973571D01*
X206088570Y-79045000D01*
X206159999Y-79187857D01*
X206159999Y-79973571D01*
X206159999Y-79187857D02*
X206231428Y-79045000D01*
X206374285Y-78973571D01*
X206588570Y-78973571D01*
X206731428Y-79045000D01*
X206802856Y-79187857D01*
X206802856Y-79973571D01*
X175260000Y-80645000D02*
X226060000Y-80645000D01*
X175260000Y-93980000D02*
X175260000Y-77945000D01*
X226060000Y-93980000D02*
X226060000Y-77945000D01*
X226060000Y-80645000D02*
X224933496Y-81231421D01*
X226060000Y-80645000D02*
X224933496Y-80058579D01*
X175260000Y-80645000D02*
X176386504Y-81231421D01*
X175260000Y-80645000D02*
X176386504Y-80058579D01*
X116311429Y-102934287D02*
X116311429Y-103862858D01*
X115740000Y-103362858D01*
X115740000Y-103577144D01*
X115668571Y-103720001D01*
X115597143Y-103791430D01*
X115454286Y-103862858D01*
X115097143Y-103862858D01*
X114954286Y-103791430D01*
X114882857Y-103720001D01*
X114811429Y-103577144D01*
X114811429Y-103148572D01*
X114882857Y-103005715D01*
X114954286Y-102934287D01*
X116311429Y-104791429D02*
X116311429Y-104934286D01*
X116240000Y-105077143D01*
X116168571Y-105148572D01*
X116025714Y-105220001D01*
X115740000Y-105291429D01*
X115382857Y-105291429D01*
X115097143Y-105220001D01*
X114954286Y-105148572D01*
X114882857Y-105077143D01*
X114811429Y-104934286D01*
X114811429Y-104791429D01*
X114882857Y-104648572D01*
X114954286Y-104577143D01*
X115097143Y-104505715D01*
X115382857Y-104434286D01*
X115740000Y-104434286D01*
X116025714Y-104505715D01*
X116168571Y-104577143D01*
X116240000Y-104648572D01*
X116311429Y-104791429D01*
X114882857Y-106005714D02*
X114811429Y-106005714D01*
X114668571Y-105934286D01*
X114597143Y-105862857D01*
X115811429Y-107291429D02*
X114811429Y-107291429D01*
X116382857Y-106934286D02*
X115311429Y-106577143D01*
X115311429Y-107505715D01*
X115668571Y-108291429D02*
X115740000Y-108148571D01*
X115811429Y-108077143D01*
X115954286Y-108005714D01*
X116025714Y-108005714D01*
X116168571Y-108077143D01*
X116240000Y-108148571D01*
X116311429Y-108291429D01*
X116311429Y-108577143D01*
X116240000Y-108720000D01*
X116168571Y-108791429D01*
X116025714Y-108862857D01*
X115954286Y-108862857D01*
X115811429Y-108791429D01*
X115740000Y-108720000D01*
X115668571Y-108577143D01*
X115668571Y-108291429D01*
X115597143Y-108148571D01*
X115525714Y-108077143D01*
X115382857Y-108005714D01*
X115097143Y-108005714D01*
X114954286Y-108077143D01*
X114882857Y-108148571D01*
X114811429Y-108291429D01*
X114811429Y-108577143D01*
X114882857Y-108720000D01*
X114954286Y-108791429D01*
X115097143Y-108862857D01*
X115382857Y-108862857D01*
X115525714Y-108791429D01*
X115597143Y-108720000D01*
X115668571Y-108577143D01*
X116311429Y-109791428D02*
X116311429Y-109934285D01*
X116240000Y-110077142D01*
X116168571Y-110148571D01*
X116025714Y-110220000D01*
X115740000Y-110291428D01*
X115382857Y-110291428D01*
X115097143Y-110220000D01*
X114954286Y-110148571D01*
X114882857Y-110077142D01*
X114811429Y-109934285D01*
X114811429Y-109791428D01*
X114882857Y-109648571D01*
X114954286Y-109577142D01*
X115097143Y-109505714D01*
X115382857Y-109434285D01*
X115740000Y-109434285D01*
X116025714Y-109505714D01*
X116168571Y-109577142D01*
X116240000Y-109648571D01*
X116311429Y-109791428D01*
X114811429Y-112077142D02*
X115811429Y-112077142D01*
X115668571Y-112077142D02*
X115740000Y-112148570D01*
X115811429Y-112291428D01*
X115811429Y-112505713D01*
X115740000Y-112648570D01*
X115597143Y-112719999D01*
X114811429Y-112719999D01*
X115597143Y-112719999D02*
X115740000Y-112791428D01*
X115811429Y-112934285D01*
X115811429Y-113148570D01*
X115740000Y-113291428D01*
X115597143Y-113362856D01*
X114811429Y-113362856D01*
X114811429Y-114077142D02*
X115811429Y-114077142D01*
X115668571Y-114077142D02*
X115740000Y-114148570D01*
X115811429Y-114291428D01*
X115811429Y-114505713D01*
X115740000Y-114648570D01*
X115597143Y-114719999D01*
X114811429Y-114719999D01*
X115597143Y-114719999D02*
X115740000Y-114791428D01*
X115811429Y-114934285D01*
X115811429Y-115148570D01*
X115740000Y-115291428D01*
X115597143Y-115362856D01*
X114811429Y-115362856D01*
X116840000Y-93980000D02*
X116840000Y-124460000D01*
X127000000Y-93980000D02*
X114140000Y-93980000D01*
X127000000Y-124460000D02*
X114140000Y-124460000D01*
X116840000Y-124460000D02*
X116253579Y-123333496D01*
X116840000Y-124460000D02*
X117426421Y-123333496D01*
X116840000Y-93980000D02*
X116253579Y-95106504D01*
X116840000Y-93980000D02*
X117426421Y-95106504D01*
X151408572Y-87673571D02*
X151694287Y-87673571D01*
X151837144Y-87602143D01*
X151908572Y-87530714D01*
X152051430Y-87316429D01*
X152122858Y-87030714D01*
X152122858Y-86459286D01*
X152051430Y-86316429D01*
X151980001Y-86245000D01*
X151837144Y-86173571D01*
X151551430Y-86173571D01*
X151408572Y-86245000D01*
X151337144Y-86316429D01*
X151265715Y-86459286D01*
X151265715Y-86816429D01*
X151337144Y-86959286D01*
X151408572Y-87030714D01*
X151551430Y-87102143D01*
X151837144Y-87102143D01*
X151980001Y-87030714D01*
X152051430Y-86959286D01*
X152122858Y-86816429D01*
X152837143Y-87673571D02*
X153122858Y-87673571D01*
X153265715Y-87602143D01*
X153337143Y-87530714D01*
X153480001Y-87316429D01*
X153551429Y-87030714D01*
X153551429Y-86459286D01*
X153480001Y-86316429D01*
X153408572Y-86245000D01*
X153265715Y-86173571D01*
X152980001Y-86173571D01*
X152837143Y-86245000D01*
X152765715Y-86316429D01*
X152694286Y-86459286D01*
X152694286Y-86816429D01*
X152765715Y-86959286D01*
X152837143Y-87030714D01*
X152980001Y-87102143D01*
X153265715Y-87102143D01*
X153408572Y-87030714D01*
X153480001Y-86959286D01*
X153551429Y-86816429D01*
X154265714Y-87602143D02*
X154265714Y-87673571D01*
X154194286Y-87816429D01*
X154122857Y-87887857D01*
X155194286Y-86173571D02*
X155337143Y-86173571D01*
X155480000Y-86245000D01*
X155551429Y-86316429D01*
X155622858Y-86459286D01*
X155694286Y-86745000D01*
X155694286Y-87102143D01*
X155622858Y-87387857D01*
X155551429Y-87530714D01*
X155480000Y-87602143D01*
X155337143Y-87673571D01*
X155194286Y-87673571D01*
X155051429Y-87602143D01*
X154980000Y-87530714D01*
X154908572Y-87387857D01*
X154837143Y-87102143D01*
X154837143Y-86745000D01*
X154908572Y-86459286D01*
X154980000Y-86316429D01*
X155051429Y-86245000D01*
X155194286Y-86173571D01*
X156980000Y-86173571D02*
X156694286Y-86173571D01*
X156551429Y-86245000D01*
X156480000Y-86316429D01*
X156337143Y-86530714D01*
X156265714Y-86816429D01*
X156265714Y-87387857D01*
X156337143Y-87530714D01*
X156408571Y-87602143D01*
X156551429Y-87673571D01*
X156837143Y-87673571D01*
X156980000Y-87602143D01*
X157051429Y-87530714D01*
X157122857Y-87387857D01*
X157122857Y-87030714D01*
X157051429Y-86887857D01*
X156980000Y-86816429D01*
X156837143Y-86745000D01*
X156551429Y-86745000D01*
X156408571Y-86816429D01*
X156337143Y-86887857D01*
X156265714Y-87030714D01*
X158051428Y-86173571D02*
X158194285Y-86173571D01*
X158337142Y-86245000D01*
X158408571Y-86316429D01*
X158480000Y-86459286D01*
X158551428Y-86745000D01*
X158551428Y-87102143D01*
X158480000Y-87387857D01*
X158408571Y-87530714D01*
X158337142Y-87602143D01*
X158194285Y-87673571D01*
X158051428Y-87673571D01*
X157908571Y-87602143D01*
X157837142Y-87530714D01*
X157765714Y-87387857D01*
X157694285Y-87102143D01*
X157694285Y-86745000D01*
X157765714Y-86459286D01*
X157837142Y-86316429D01*
X157908571Y-86245000D01*
X158051428Y-86173571D01*
X160337142Y-87673571D02*
X160337142Y-86673571D01*
X160337142Y-86816429D02*
X160408570Y-86745000D01*
X160551428Y-86673571D01*
X160765713Y-86673571D01*
X160908570Y-86745000D01*
X160979999Y-86887857D01*
X160979999Y-87673571D01*
X160979999Y-86887857D02*
X161051428Y-86745000D01*
X161194285Y-86673571D01*
X161408570Y-86673571D01*
X161551428Y-86745000D01*
X161622856Y-86887857D01*
X161622856Y-87673571D01*
X162337142Y-87673571D02*
X162337142Y-86673571D01*
X162337142Y-86816429D02*
X162408570Y-86745000D01*
X162551428Y-86673571D01*
X162765713Y-86673571D01*
X162908570Y-86745000D01*
X162979999Y-86887857D01*
X162979999Y-87673571D01*
X162979999Y-86887857D02*
X163051428Y-86745000D01*
X163194285Y-86673571D01*
X163408570Y-86673571D01*
X163551428Y-86745000D01*
X163622856Y-86887857D01*
X163622856Y-87673571D01*
X127000000Y-88900000D02*
X226060000Y-88900000D01*
X127000000Y-93980000D02*
X127000000Y-86200000D01*
X226060000Y-93980000D02*
X226060000Y-86200000D01*
X226060000Y-88900000D02*
X224933496Y-89486421D01*
X226060000Y-88900000D02*
X224933496Y-88313579D01*
X127000000Y-88900000D02*
X128126504Y-89486421D01*
X127000000Y-88900000D02*
X128126504Y-88313579D01*
M02*
