M48
;DRILL file {KiCad 4.0.2+dfsg1-stable} date Sun 23 Dec 2018 16:06:37 CET
;FORMAT={-:-/ absolute / metric / decimal}
FMAT,2
METRIC,TZ
T1C0.400
T2C0.800
T3C1.016
%
G90
G05
M71
T1
X178.345Y-98.584
X180.427Y-111.607
X186.347Y-103.65
X192.248Y-111.968
X193.012Y-104.406
X209.628Y-109.22
X212.009Y-107.669
X212.484Y-111.6
X213.603Y-106.06
T2
X152.4Y-114.3
X152.4Y-121.92
X154.94Y-114.3
X154.94Y-121.92
X157.48Y-114.3
X157.48Y-121.92
X160.02Y-114.3
X160.02Y-121.92
X162.56Y-114.3
X162.56Y-121.92
X165.1Y-114.3
X165.1Y-121.92
X167.64Y-114.3
X167.64Y-121.92
T3
X137.16Y-114.3
X137.16Y-116.84
X137.16Y-119.38
X137.16Y-121.92
X160.02Y-109.22
X162.56Y-109.22
X165.1Y-109.22
X167.64Y-109.22
X177.8Y-116.84
X177.8Y-119.38
X180.34Y-99.06
X180.34Y-101.6
X180.34Y-116.84
X180.34Y-119.38
X182.88Y-99.06
X182.88Y-101.6
X182.88Y-116.84
X182.88Y-119.38
X185.42Y-99.06
X185.42Y-101.6
X185.42Y-116.84
X185.42Y-119.38
X187.96Y-99.06
X187.96Y-101.6
X187.96Y-116.84
X187.96Y-119.38
X190.5Y-99.06
X190.5Y-101.6
X190.5Y-116.84
X190.5Y-119.38
X193.04Y-99.06
X193.04Y-101.6
X193.04Y-116.84
X193.04Y-119.38
X195.58Y-99.06
X195.58Y-101.6
X195.58Y-116.84
X195.58Y-119.38
X198.12Y-99.06
X198.12Y-101.6
X198.12Y-116.84
X198.12Y-119.38
X200.66Y-99.06
X200.66Y-101.6
X200.66Y-116.84
X200.66Y-119.38
X203.2Y-99.06
X203.2Y-101.6
X203.2Y-116.84
X203.2Y-119.38
X205.74Y-99.06
X205.74Y-101.6
X205.74Y-116.84
X205.74Y-119.38
X208.28Y-99.06
X208.28Y-101.6
X208.28Y-116.84
X208.28Y-119.38
X210.82Y-99.06
X210.82Y-101.6
X210.82Y-116.84
X210.82Y-119.38
X213.36Y-99.06
X213.36Y-101.6
X213.36Y-116.84
X213.36Y-119.38
X215.9Y-99.06
X215.9Y-101.6
X215.9Y-116.84
X215.9Y-119.38
X218.44Y-99.06
X218.44Y-101.6
X218.44Y-116.84
X218.44Y-119.38
X220.98Y-99.06
X220.98Y-101.6
T0
M30
