%TF.GenerationSoftware,KiCad,Pcbnew,5.1.9+dfsg1-1*%
%TF.CreationDate,2022-04-01T11:17:58+02:00*%
%TF.ProjectId,AmigaPCDriveAdapter,416d6967-6150-4434-9472-697665416461,2.0*%
%TF.SameCoordinates,Original*%
%TF.FileFunction,Other,User*%
%FSLAX46Y46*%
G04 Gerber Fmt 4.6, Leading zero omitted, Abs format (unit mm)*
G04 Created by KiCad (PCBNEW 5.1.9+dfsg1-1) date 2022-04-01 11:17:58*
%MOMM*%
%LPD*%
G01*
G04 APERTURE LIST*
%ADD10C,0.300000*%
G04 APERTURE END LIST*
D10*
X170231428Y-69473571D02*
X169517142Y-69473571D01*
X169445714Y-70187857D01*
X169517142Y-70116428D01*
X169660000Y-70045000D01*
X170017142Y-70045000D01*
X170160000Y-70116428D01*
X170231428Y-70187857D01*
X170302857Y-70330714D01*
X170302857Y-70687857D01*
X170231428Y-70830714D01*
X170160000Y-70902142D01*
X170017142Y-70973571D01*
X169660000Y-70973571D01*
X169517142Y-70902142D01*
X169445714Y-70830714D01*
X171231428Y-69473571D02*
X171374285Y-69473571D01*
X171517142Y-69545000D01*
X171588571Y-69616428D01*
X171660000Y-69759285D01*
X171731428Y-70045000D01*
X171731428Y-70402142D01*
X171660000Y-70687857D01*
X171588571Y-70830714D01*
X171517142Y-70902142D01*
X171374285Y-70973571D01*
X171231428Y-70973571D01*
X171088571Y-70902142D01*
X171017142Y-70830714D01*
X170945714Y-70687857D01*
X170874285Y-70402142D01*
X170874285Y-70045000D01*
X170945714Y-69759285D01*
X171017142Y-69616428D01*
X171088571Y-69545000D01*
X171231428Y-69473571D01*
X172445714Y-70902142D02*
X172445714Y-70973571D01*
X172374285Y-71116428D01*
X172302857Y-71187857D01*
X173302857Y-70116428D02*
X173160000Y-70045000D01*
X173088571Y-69973571D01*
X173017142Y-69830714D01*
X173017142Y-69759285D01*
X173088571Y-69616428D01*
X173160000Y-69545000D01*
X173302857Y-69473571D01*
X173588571Y-69473571D01*
X173731428Y-69545000D01*
X173802857Y-69616428D01*
X173874285Y-69759285D01*
X173874285Y-69830714D01*
X173802857Y-69973571D01*
X173731428Y-70045000D01*
X173588571Y-70116428D01*
X173302857Y-70116428D01*
X173160000Y-70187857D01*
X173088571Y-70259285D01*
X173017142Y-70402142D01*
X173017142Y-70687857D01*
X173088571Y-70830714D01*
X173160000Y-70902142D01*
X173302857Y-70973571D01*
X173588571Y-70973571D01*
X173731428Y-70902142D01*
X173802857Y-70830714D01*
X173874285Y-70687857D01*
X173874285Y-70402142D01*
X173802857Y-70259285D01*
X173731428Y-70187857D01*
X173588571Y-70116428D01*
X174802857Y-69473571D02*
X174945714Y-69473571D01*
X175088571Y-69545000D01*
X175160000Y-69616428D01*
X175231428Y-69759285D01*
X175302857Y-70045000D01*
X175302857Y-70402142D01*
X175231428Y-70687857D01*
X175160000Y-70830714D01*
X175088571Y-70902142D01*
X174945714Y-70973571D01*
X174802857Y-70973571D01*
X174660000Y-70902142D01*
X174588571Y-70830714D01*
X174517142Y-70687857D01*
X174445714Y-70402142D01*
X174445714Y-70045000D01*
X174517142Y-69759285D01*
X174588571Y-69616428D01*
X174660000Y-69545000D01*
X174802857Y-69473571D01*
X176231428Y-69473571D02*
X176374285Y-69473571D01*
X176517142Y-69545000D01*
X176588571Y-69616428D01*
X176660000Y-69759285D01*
X176731428Y-70045000D01*
X176731428Y-70402142D01*
X176660000Y-70687857D01*
X176588571Y-70830714D01*
X176517142Y-70902142D01*
X176374285Y-70973571D01*
X176231428Y-70973571D01*
X176088571Y-70902142D01*
X176017142Y-70830714D01*
X175945714Y-70687857D01*
X175874285Y-70402142D01*
X175874285Y-70045000D01*
X175945714Y-69759285D01*
X176017142Y-69616428D01*
X176088571Y-69545000D01*
X176231428Y-69473571D01*
X178517142Y-70973571D02*
X178517142Y-69973571D01*
X178517142Y-70116428D02*
X178588571Y-70045000D01*
X178731428Y-69973571D01*
X178945714Y-69973571D01*
X179088571Y-70045000D01*
X179160000Y-70187857D01*
X179160000Y-70973571D01*
X179160000Y-70187857D02*
X179231428Y-70045000D01*
X179374285Y-69973571D01*
X179588571Y-69973571D01*
X179731428Y-70045000D01*
X179802857Y-70187857D01*
X179802857Y-70973571D01*
X180517142Y-70973571D02*
X180517142Y-69973571D01*
X180517142Y-70116428D02*
X180588571Y-70045000D01*
X180731428Y-69973571D01*
X180945714Y-69973571D01*
X181088571Y-70045000D01*
X181160000Y-70187857D01*
X181160000Y-70973571D01*
X181160000Y-70187857D02*
X181231428Y-70045000D01*
X181374285Y-69973571D01*
X181588571Y-69973571D01*
X181731428Y-70045000D01*
X181802857Y-70187857D01*
X181802857Y-70973571D01*
X150260000Y-71645000D02*
X201060000Y-71645000D01*
X150260000Y-84980000D02*
X150260000Y-68945000D01*
X201060000Y-84980000D02*
X201060000Y-68945000D01*
X201060000Y-71645000D02*
X199933496Y-72231421D01*
X201060000Y-71645000D02*
X199933496Y-71058579D01*
X150260000Y-71645000D02*
X151386504Y-72231421D01*
X150260000Y-71645000D02*
X151386504Y-71058579D01*
X91311428Y-93934285D02*
X91311428Y-94862857D01*
X90740000Y-94362857D01*
X90740000Y-94577142D01*
X90668571Y-94720000D01*
X90597142Y-94791428D01*
X90454285Y-94862857D01*
X90097142Y-94862857D01*
X89954285Y-94791428D01*
X89882857Y-94720000D01*
X89811428Y-94577142D01*
X89811428Y-94148571D01*
X89882857Y-94005714D01*
X89954285Y-93934285D01*
X91311428Y-95791428D02*
X91311428Y-95934285D01*
X91240000Y-96077142D01*
X91168571Y-96148571D01*
X91025714Y-96220000D01*
X90740000Y-96291428D01*
X90382857Y-96291428D01*
X90097142Y-96220000D01*
X89954285Y-96148571D01*
X89882857Y-96077142D01*
X89811428Y-95934285D01*
X89811428Y-95791428D01*
X89882857Y-95648571D01*
X89954285Y-95577142D01*
X90097142Y-95505714D01*
X90382857Y-95434285D01*
X90740000Y-95434285D01*
X91025714Y-95505714D01*
X91168571Y-95577142D01*
X91240000Y-95648571D01*
X91311428Y-95791428D01*
X89882857Y-97005714D02*
X89811428Y-97005714D01*
X89668571Y-96934285D01*
X89597142Y-96862857D01*
X90811428Y-98291428D02*
X89811428Y-98291428D01*
X91382857Y-97934285D02*
X90311428Y-97577142D01*
X90311428Y-98505714D01*
X90668571Y-99291428D02*
X90740000Y-99148571D01*
X90811428Y-99077142D01*
X90954285Y-99005714D01*
X91025714Y-99005714D01*
X91168571Y-99077142D01*
X91240000Y-99148571D01*
X91311428Y-99291428D01*
X91311428Y-99577142D01*
X91240000Y-99720000D01*
X91168571Y-99791428D01*
X91025714Y-99862857D01*
X90954285Y-99862857D01*
X90811428Y-99791428D01*
X90740000Y-99720000D01*
X90668571Y-99577142D01*
X90668571Y-99291428D01*
X90597142Y-99148571D01*
X90525714Y-99077142D01*
X90382857Y-99005714D01*
X90097142Y-99005714D01*
X89954285Y-99077142D01*
X89882857Y-99148571D01*
X89811428Y-99291428D01*
X89811428Y-99577142D01*
X89882857Y-99720000D01*
X89954285Y-99791428D01*
X90097142Y-99862857D01*
X90382857Y-99862857D01*
X90525714Y-99791428D01*
X90597142Y-99720000D01*
X90668571Y-99577142D01*
X91311428Y-100791428D02*
X91311428Y-100934285D01*
X91240000Y-101077142D01*
X91168571Y-101148571D01*
X91025714Y-101220000D01*
X90740000Y-101291428D01*
X90382857Y-101291428D01*
X90097142Y-101220000D01*
X89954285Y-101148571D01*
X89882857Y-101077142D01*
X89811428Y-100934285D01*
X89811428Y-100791428D01*
X89882857Y-100648571D01*
X89954285Y-100577142D01*
X90097142Y-100505714D01*
X90382857Y-100434285D01*
X90740000Y-100434285D01*
X91025714Y-100505714D01*
X91168571Y-100577142D01*
X91240000Y-100648571D01*
X91311428Y-100791428D01*
X89811428Y-103077142D02*
X90811428Y-103077142D01*
X90668571Y-103077142D02*
X90740000Y-103148571D01*
X90811428Y-103291428D01*
X90811428Y-103505714D01*
X90740000Y-103648571D01*
X90597142Y-103720000D01*
X89811428Y-103720000D01*
X90597142Y-103720000D02*
X90740000Y-103791428D01*
X90811428Y-103934285D01*
X90811428Y-104148571D01*
X90740000Y-104291428D01*
X90597142Y-104362857D01*
X89811428Y-104362857D01*
X89811428Y-105077142D02*
X90811428Y-105077142D01*
X90668571Y-105077142D02*
X90740000Y-105148571D01*
X90811428Y-105291428D01*
X90811428Y-105505714D01*
X90740000Y-105648571D01*
X90597142Y-105720000D01*
X89811428Y-105720000D01*
X90597142Y-105720000D02*
X90740000Y-105791428D01*
X90811428Y-105934285D01*
X90811428Y-106148571D01*
X90740000Y-106291428D01*
X90597142Y-106362857D01*
X89811428Y-106362857D01*
X91840000Y-84980000D02*
X91840000Y-115460000D01*
X102000000Y-84980000D02*
X89140000Y-84980000D01*
X102000000Y-115460000D02*
X89140000Y-115460000D01*
X91840000Y-115460000D02*
X91253579Y-114333496D01*
X91840000Y-115460000D02*
X92426421Y-114333496D01*
X91840000Y-84980000D02*
X91253579Y-86106504D01*
X91840000Y-84980000D02*
X92426421Y-86106504D01*
X126408571Y-78673571D02*
X126694285Y-78673571D01*
X126837142Y-78602142D01*
X126908571Y-78530714D01*
X127051428Y-78316428D01*
X127122857Y-78030714D01*
X127122857Y-77459285D01*
X127051428Y-77316428D01*
X126980000Y-77245000D01*
X126837142Y-77173571D01*
X126551428Y-77173571D01*
X126408571Y-77245000D01*
X126337142Y-77316428D01*
X126265714Y-77459285D01*
X126265714Y-77816428D01*
X126337142Y-77959285D01*
X126408571Y-78030714D01*
X126551428Y-78102142D01*
X126837142Y-78102142D01*
X126980000Y-78030714D01*
X127051428Y-77959285D01*
X127122857Y-77816428D01*
X127837142Y-78673571D02*
X128122857Y-78673571D01*
X128265714Y-78602142D01*
X128337142Y-78530714D01*
X128480000Y-78316428D01*
X128551428Y-78030714D01*
X128551428Y-77459285D01*
X128480000Y-77316428D01*
X128408571Y-77245000D01*
X128265714Y-77173571D01*
X127980000Y-77173571D01*
X127837142Y-77245000D01*
X127765714Y-77316428D01*
X127694285Y-77459285D01*
X127694285Y-77816428D01*
X127765714Y-77959285D01*
X127837142Y-78030714D01*
X127980000Y-78102142D01*
X128265714Y-78102142D01*
X128408571Y-78030714D01*
X128480000Y-77959285D01*
X128551428Y-77816428D01*
X129265714Y-78602142D02*
X129265714Y-78673571D01*
X129194285Y-78816428D01*
X129122857Y-78887857D01*
X130194285Y-77173571D02*
X130337142Y-77173571D01*
X130480000Y-77245000D01*
X130551428Y-77316428D01*
X130622857Y-77459285D01*
X130694285Y-77745000D01*
X130694285Y-78102142D01*
X130622857Y-78387857D01*
X130551428Y-78530714D01*
X130480000Y-78602142D01*
X130337142Y-78673571D01*
X130194285Y-78673571D01*
X130051428Y-78602142D01*
X129980000Y-78530714D01*
X129908571Y-78387857D01*
X129837142Y-78102142D01*
X129837142Y-77745000D01*
X129908571Y-77459285D01*
X129980000Y-77316428D01*
X130051428Y-77245000D01*
X130194285Y-77173571D01*
X131980000Y-77173571D02*
X131694285Y-77173571D01*
X131551428Y-77245000D01*
X131480000Y-77316428D01*
X131337142Y-77530714D01*
X131265714Y-77816428D01*
X131265714Y-78387857D01*
X131337142Y-78530714D01*
X131408571Y-78602142D01*
X131551428Y-78673571D01*
X131837142Y-78673571D01*
X131980000Y-78602142D01*
X132051428Y-78530714D01*
X132122857Y-78387857D01*
X132122857Y-78030714D01*
X132051428Y-77887857D01*
X131980000Y-77816428D01*
X131837142Y-77745000D01*
X131551428Y-77745000D01*
X131408571Y-77816428D01*
X131337142Y-77887857D01*
X131265714Y-78030714D01*
X133051428Y-77173571D02*
X133194285Y-77173571D01*
X133337142Y-77245000D01*
X133408571Y-77316428D01*
X133480000Y-77459285D01*
X133551428Y-77745000D01*
X133551428Y-78102142D01*
X133480000Y-78387857D01*
X133408571Y-78530714D01*
X133337142Y-78602142D01*
X133194285Y-78673571D01*
X133051428Y-78673571D01*
X132908571Y-78602142D01*
X132837142Y-78530714D01*
X132765714Y-78387857D01*
X132694285Y-78102142D01*
X132694285Y-77745000D01*
X132765714Y-77459285D01*
X132837142Y-77316428D01*
X132908571Y-77245000D01*
X133051428Y-77173571D01*
X135337142Y-78673571D02*
X135337142Y-77673571D01*
X135337142Y-77816428D02*
X135408571Y-77745000D01*
X135551428Y-77673571D01*
X135765714Y-77673571D01*
X135908571Y-77745000D01*
X135980000Y-77887857D01*
X135980000Y-78673571D01*
X135980000Y-77887857D02*
X136051428Y-77745000D01*
X136194285Y-77673571D01*
X136408571Y-77673571D01*
X136551428Y-77745000D01*
X136622857Y-77887857D01*
X136622857Y-78673571D01*
X137337142Y-78673571D02*
X137337142Y-77673571D01*
X137337142Y-77816428D02*
X137408571Y-77745000D01*
X137551428Y-77673571D01*
X137765714Y-77673571D01*
X137908571Y-77745000D01*
X137980000Y-77887857D01*
X137980000Y-78673571D01*
X137980000Y-77887857D02*
X138051428Y-77745000D01*
X138194285Y-77673571D01*
X138408571Y-77673571D01*
X138551428Y-77745000D01*
X138622857Y-77887857D01*
X138622857Y-78673571D01*
X102000000Y-79900000D02*
X201060000Y-79900000D01*
X102000000Y-84980000D02*
X102000000Y-77200000D01*
X201060000Y-84980000D02*
X201060000Y-77200000D01*
X201060000Y-79900000D02*
X199933496Y-80486421D01*
X201060000Y-79900000D02*
X199933496Y-79313579D01*
X102000000Y-79900000D02*
X103126504Y-80486421D01*
X102000000Y-79900000D02*
X103126504Y-79313579D01*
M02*
