%TF.GenerationSoftware,KiCad,Pcbnew,5.0.2+dfsg1-1*%
%TF.CreationDate,2021-01-23T15:55:11+01:00*%
%TF.ProjectId,AmigaPCDriveAdapter,416d6967-6150-4434-9472-697665416461,2.0*%
%TF.SameCoordinates,Original*%
%TF.FileFunction,Paste,Top*%
%TF.FilePolarity,Positive*%
%FSLAX46Y46*%
G04 Gerber Fmt 4.6, Leading zero omitted, Abs format (unit mm)*
G04 Created by KiCad (PCBNEW 5.0.2+dfsg1-1) date Sat 23 Jan 2021 03:55:11 PM CET*
%MOMM*%
%LPD*%
G01*
G04 APERTURE LIST*
%ADD10C,0.100000*%
%ADD11C,1.350000*%
%ADD12C,1.425000*%
G04 APERTURE END LIST*
D10*
G36*
X177614505Y-96376204D02*
X177638773Y-96379804D01*
X177662572Y-96385765D01*
X177685671Y-96394030D01*
X177707850Y-96404520D01*
X177728893Y-96417132D01*
X177748599Y-96431747D01*
X177766777Y-96448223D01*
X177783253Y-96466401D01*
X177797868Y-96486107D01*
X177810480Y-96507150D01*
X177820970Y-96529329D01*
X177829235Y-96552428D01*
X177835196Y-96576227D01*
X177838796Y-96600495D01*
X177840000Y-96624999D01*
X177840000Y-97525001D01*
X177838796Y-97549505D01*
X177835196Y-97573773D01*
X177829235Y-97597572D01*
X177820970Y-97620671D01*
X177810480Y-97642850D01*
X177797868Y-97663893D01*
X177783253Y-97683599D01*
X177766777Y-97701777D01*
X177748599Y-97718253D01*
X177728893Y-97732868D01*
X177707850Y-97745480D01*
X177685671Y-97755970D01*
X177662572Y-97764235D01*
X177638773Y-97770196D01*
X177614505Y-97773796D01*
X177590001Y-97775000D01*
X176739999Y-97775000D01*
X176715495Y-97773796D01*
X176691227Y-97770196D01*
X176667428Y-97764235D01*
X176644329Y-97755970D01*
X176622150Y-97745480D01*
X176601107Y-97732868D01*
X176581401Y-97718253D01*
X176563223Y-97701777D01*
X176546747Y-97683599D01*
X176532132Y-97663893D01*
X176519520Y-97642850D01*
X176509030Y-97620671D01*
X176500765Y-97597572D01*
X176494804Y-97573773D01*
X176491204Y-97549505D01*
X176490000Y-97525001D01*
X176490000Y-96624999D01*
X176491204Y-96600495D01*
X176494804Y-96576227D01*
X176500765Y-96552428D01*
X176509030Y-96529329D01*
X176519520Y-96507150D01*
X176532132Y-96486107D01*
X176546747Y-96466401D01*
X176563223Y-96448223D01*
X176581401Y-96431747D01*
X176601107Y-96417132D01*
X176622150Y-96404520D01*
X176644329Y-96394030D01*
X176667428Y-96385765D01*
X176691227Y-96379804D01*
X176715495Y-96376204D01*
X176739999Y-96375000D01*
X177590001Y-96375000D01*
X177614505Y-96376204D01*
X177614505Y-96376204D01*
G37*
D11*
X177165000Y-97075000D03*
D10*
G36*
X177614505Y-99076204D02*
X177638773Y-99079804D01*
X177662572Y-99085765D01*
X177685671Y-99094030D01*
X177707850Y-99104520D01*
X177728893Y-99117132D01*
X177748599Y-99131747D01*
X177766777Y-99148223D01*
X177783253Y-99166401D01*
X177797868Y-99186107D01*
X177810480Y-99207150D01*
X177820970Y-99229329D01*
X177829235Y-99252428D01*
X177835196Y-99276227D01*
X177838796Y-99300495D01*
X177840000Y-99324999D01*
X177840000Y-100225001D01*
X177838796Y-100249505D01*
X177835196Y-100273773D01*
X177829235Y-100297572D01*
X177820970Y-100320671D01*
X177810480Y-100342850D01*
X177797868Y-100363893D01*
X177783253Y-100383599D01*
X177766777Y-100401777D01*
X177748599Y-100418253D01*
X177728893Y-100432868D01*
X177707850Y-100445480D01*
X177685671Y-100455970D01*
X177662572Y-100464235D01*
X177638773Y-100470196D01*
X177614505Y-100473796D01*
X177590001Y-100475000D01*
X176739999Y-100475000D01*
X176715495Y-100473796D01*
X176691227Y-100470196D01*
X176667428Y-100464235D01*
X176644329Y-100455970D01*
X176622150Y-100445480D01*
X176601107Y-100432868D01*
X176581401Y-100418253D01*
X176563223Y-100401777D01*
X176546747Y-100383599D01*
X176532132Y-100363893D01*
X176519520Y-100342850D01*
X176509030Y-100320671D01*
X176500765Y-100297572D01*
X176494804Y-100273773D01*
X176491204Y-100249505D01*
X176490000Y-100225001D01*
X176490000Y-99324999D01*
X176491204Y-99300495D01*
X176494804Y-99276227D01*
X176500765Y-99252428D01*
X176509030Y-99229329D01*
X176519520Y-99207150D01*
X176532132Y-99186107D01*
X176546747Y-99166401D01*
X176563223Y-99148223D01*
X176581401Y-99131747D01*
X176601107Y-99117132D01*
X176622150Y-99104520D01*
X176644329Y-99094030D01*
X176667428Y-99085765D01*
X176691227Y-99079804D01*
X176715495Y-99076204D01*
X176739999Y-99075000D01*
X177590001Y-99075000D01*
X177614505Y-99076204D01*
X177614505Y-99076204D01*
G37*
D11*
X177165000Y-99775000D03*
D10*
G36*
X180626504Y-102631204D02*
X180650773Y-102634804D01*
X180674571Y-102640765D01*
X180697671Y-102649030D01*
X180719849Y-102659520D01*
X180740893Y-102672133D01*
X180760598Y-102686747D01*
X180778777Y-102703223D01*
X180795253Y-102721402D01*
X180809867Y-102741107D01*
X180822480Y-102762151D01*
X180832970Y-102784329D01*
X180841235Y-102807429D01*
X180847196Y-102831227D01*
X180850796Y-102855496D01*
X180852000Y-102880000D01*
X180852000Y-104130000D01*
X180850796Y-104154504D01*
X180847196Y-104178773D01*
X180841235Y-104202571D01*
X180832970Y-104225671D01*
X180822480Y-104247849D01*
X180809867Y-104268893D01*
X180795253Y-104288598D01*
X180778777Y-104306777D01*
X180760598Y-104323253D01*
X180740893Y-104337867D01*
X180719849Y-104350480D01*
X180697671Y-104360970D01*
X180674571Y-104369235D01*
X180650773Y-104375196D01*
X180626504Y-104378796D01*
X180602000Y-104380000D01*
X179677000Y-104380000D01*
X179652496Y-104378796D01*
X179628227Y-104375196D01*
X179604429Y-104369235D01*
X179581329Y-104360970D01*
X179559151Y-104350480D01*
X179538107Y-104337867D01*
X179518402Y-104323253D01*
X179500223Y-104306777D01*
X179483747Y-104288598D01*
X179469133Y-104268893D01*
X179456520Y-104247849D01*
X179446030Y-104225671D01*
X179437765Y-104202571D01*
X179431804Y-104178773D01*
X179428204Y-104154504D01*
X179427000Y-104130000D01*
X179427000Y-102880000D01*
X179428204Y-102855496D01*
X179431804Y-102831227D01*
X179437765Y-102807429D01*
X179446030Y-102784329D01*
X179456520Y-102762151D01*
X179469133Y-102741107D01*
X179483747Y-102721402D01*
X179500223Y-102703223D01*
X179518402Y-102686747D01*
X179538107Y-102672133D01*
X179559151Y-102659520D01*
X179581329Y-102649030D01*
X179604429Y-102640765D01*
X179628227Y-102634804D01*
X179652496Y-102631204D01*
X179677000Y-102630000D01*
X180602000Y-102630000D01*
X180626504Y-102631204D01*
X180626504Y-102631204D01*
G37*
D12*
X180139500Y-103505000D03*
D10*
G36*
X177651504Y-102631204D02*
X177675773Y-102634804D01*
X177699571Y-102640765D01*
X177722671Y-102649030D01*
X177744849Y-102659520D01*
X177765893Y-102672133D01*
X177785598Y-102686747D01*
X177803777Y-102703223D01*
X177820253Y-102721402D01*
X177834867Y-102741107D01*
X177847480Y-102762151D01*
X177857970Y-102784329D01*
X177866235Y-102807429D01*
X177872196Y-102831227D01*
X177875796Y-102855496D01*
X177877000Y-102880000D01*
X177877000Y-104130000D01*
X177875796Y-104154504D01*
X177872196Y-104178773D01*
X177866235Y-104202571D01*
X177857970Y-104225671D01*
X177847480Y-104247849D01*
X177834867Y-104268893D01*
X177820253Y-104288598D01*
X177803777Y-104306777D01*
X177785598Y-104323253D01*
X177765893Y-104337867D01*
X177744849Y-104350480D01*
X177722671Y-104360970D01*
X177699571Y-104369235D01*
X177675773Y-104375196D01*
X177651504Y-104378796D01*
X177627000Y-104380000D01*
X176702000Y-104380000D01*
X176677496Y-104378796D01*
X176653227Y-104375196D01*
X176629429Y-104369235D01*
X176606329Y-104360970D01*
X176584151Y-104350480D01*
X176563107Y-104337867D01*
X176543402Y-104323253D01*
X176525223Y-104306777D01*
X176508747Y-104288598D01*
X176494133Y-104268893D01*
X176481520Y-104247849D01*
X176471030Y-104225671D01*
X176462765Y-104202571D01*
X176456804Y-104178773D01*
X176453204Y-104154504D01*
X176452000Y-104130000D01*
X176452000Y-102880000D01*
X176453204Y-102855496D01*
X176456804Y-102831227D01*
X176462765Y-102807429D01*
X176471030Y-102784329D01*
X176481520Y-102762151D01*
X176494133Y-102741107D01*
X176508747Y-102721402D01*
X176525223Y-102703223D01*
X176543402Y-102686747D01*
X176563107Y-102672133D01*
X176584151Y-102659520D01*
X176606329Y-102649030D01*
X176629429Y-102640765D01*
X176653227Y-102634804D01*
X176677496Y-102631204D01*
X176702000Y-102630000D01*
X177627000Y-102630000D01*
X177651504Y-102631204D01*
X177651504Y-102631204D01*
G37*
D12*
X177164500Y-103505000D03*
D10*
G36*
X163589505Y-105371204D02*
X163613773Y-105374804D01*
X163637572Y-105380765D01*
X163660671Y-105389030D01*
X163682850Y-105399520D01*
X163703893Y-105412132D01*
X163723599Y-105426747D01*
X163741777Y-105443223D01*
X163758253Y-105461401D01*
X163772868Y-105481107D01*
X163785480Y-105502150D01*
X163795970Y-105524329D01*
X163804235Y-105547428D01*
X163810196Y-105571227D01*
X163813796Y-105595495D01*
X163815000Y-105619999D01*
X163815000Y-106470001D01*
X163813796Y-106494505D01*
X163810196Y-106518773D01*
X163804235Y-106542572D01*
X163795970Y-106565671D01*
X163785480Y-106587850D01*
X163772868Y-106608893D01*
X163758253Y-106628599D01*
X163741777Y-106646777D01*
X163723599Y-106663253D01*
X163703893Y-106677868D01*
X163682850Y-106690480D01*
X163660671Y-106700970D01*
X163637572Y-106709235D01*
X163613773Y-106715196D01*
X163589505Y-106718796D01*
X163565001Y-106720000D01*
X162664999Y-106720000D01*
X162640495Y-106718796D01*
X162616227Y-106715196D01*
X162592428Y-106709235D01*
X162569329Y-106700970D01*
X162547150Y-106690480D01*
X162526107Y-106677868D01*
X162506401Y-106663253D01*
X162488223Y-106646777D01*
X162471747Y-106628599D01*
X162457132Y-106608893D01*
X162444520Y-106587850D01*
X162434030Y-106565671D01*
X162425765Y-106542572D01*
X162419804Y-106518773D01*
X162416204Y-106494505D01*
X162415000Y-106470001D01*
X162415000Y-105619999D01*
X162416204Y-105595495D01*
X162419804Y-105571227D01*
X162425765Y-105547428D01*
X162434030Y-105524329D01*
X162444520Y-105502150D01*
X162457132Y-105481107D01*
X162471747Y-105461401D01*
X162488223Y-105443223D01*
X162506401Y-105426747D01*
X162526107Y-105412132D01*
X162547150Y-105399520D01*
X162569329Y-105389030D01*
X162592428Y-105380765D01*
X162616227Y-105374804D01*
X162640495Y-105371204D01*
X162664999Y-105370000D01*
X163565001Y-105370000D01*
X163589505Y-105371204D01*
X163589505Y-105371204D01*
G37*
D11*
X163115000Y-106045000D03*
D10*
G36*
X166289505Y-105371204D02*
X166313773Y-105374804D01*
X166337572Y-105380765D01*
X166360671Y-105389030D01*
X166382850Y-105399520D01*
X166403893Y-105412132D01*
X166423599Y-105426747D01*
X166441777Y-105443223D01*
X166458253Y-105461401D01*
X166472868Y-105481107D01*
X166485480Y-105502150D01*
X166495970Y-105524329D01*
X166504235Y-105547428D01*
X166510196Y-105571227D01*
X166513796Y-105595495D01*
X166515000Y-105619999D01*
X166515000Y-106470001D01*
X166513796Y-106494505D01*
X166510196Y-106518773D01*
X166504235Y-106542572D01*
X166495970Y-106565671D01*
X166485480Y-106587850D01*
X166472868Y-106608893D01*
X166458253Y-106628599D01*
X166441777Y-106646777D01*
X166423599Y-106663253D01*
X166403893Y-106677868D01*
X166382850Y-106690480D01*
X166360671Y-106700970D01*
X166337572Y-106709235D01*
X166313773Y-106715196D01*
X166289505Y-106718796D01*
X166265001Y-106720000D01*
X165364999Y-106720000D01*
X165340495Y-106718796D01*
X165316227Y-106715196D01*
X165292428Y-106709235D01*
X165269329Y-106700970D01*
X165247150Y-106690480D01*
X165226107Y-106677868D01*
X165206401Y-106663253D01*
X165188223Y-106646777D01*
X165171747Y-106628599D01*
X165157132Y-106608893D01*
X165144520Y-106587850D01*
X165134030Y-106565671D01*
X165125765Y-106542572D01*
X165119804Y-106518773D01*
X165116204Y-106494505D01*
X165115000Y-106470001D01*
X165115000Y-105619999D01*
X165116204Y-105595495D01*
X165119804Y-105571227D01*
X165125765Y-105547428D01*
X165134030Y-105524329D01*
X165144520Y-105502150D01*
X165157132Y-105481107D01*
X165171747Y-105461401D01*
X165188223Y-105443223D01*
X165206401Y-105426747D01*
X165226107Y-105412132D01*
X165247150Y-105399520D01*
X165269329Y-105389030D01*
X165292428Y-105380765D01*
X165316227Y-105374804D01*
X165340495Y-105371204D01*
X165364999Y-105370000D01*
X166265001Y-105370000D01*
X166289505Y-105371204D01*
X166289505Y-105371204D01*
G37*
D11*
X165815000Y-106045000D03*
D10*
G36*
X178069504Y-108346204D02*
X178093773Y-108349804D01*
X178117571Y-108355765D01*
X178140671Y-108364030D01*
X178162849Y-108374520D01*
X178183893Y-108387133D01*
X178203598Y-108401747D01*
X178221777Y-108418223D01*
X178238253Y-108436402D01*
X178252867Y-108456107D01*
X178265480Y-108477151D01*
X178275970Y-108499329D01*
X178284235Y-108522429D01*
X178290196Y-108546227D01*
X178293796Y-108570496D01*
X178295000Y-108595000D01*
X178295000Y-109845000D01*
X178293796Y-109869504D01*
X178290196Y-109893773D01*
X178284235Y-109917571D01*
X178275970Y-109940671D01*
X178265480Y-109962849D01*
X178252867Y-109983893D01*
X178238253Y-110003598D01*
X178221777Y-110021777D01*
X178203598Y-110038253D01*
X178183893Y-110052867D01*
X178162849Y-110065480D01*
X178140671Y-110075970D01*
X178117571Y-110084235D01*
X178093773Y-110090196D01*
X178069504Y-110093796D01*
X178045000Y-110095000D01*
X177120000Y-110095000D01*
X177095496Y-110093796D01*
X177071227Y-110090196D01*
X177047429Y-110084235D01*
X177024329Y-110075970D01*
X177002151Y-110065480D01*
X176981107Y-110052867D01*
X176961402Y-110038253D01*
X176943223Y-110021777D01*
X176926747Y-110003598D01*
X176912133Y-109983893D01*
X176899520Y-109962849D01*
X176889030Y-109940671D01*
X176880765Y-109917571D01*
X176874804Y-109893773D01*
X176871204Y-109869504D01*
X176870000Y-109845000D01*
X176870000Y-108595000D01*
X176871204Y-108570496D01*
X176874804Y-108546227D01*
X176880765Y-108522429D01*
X176889030Y-108499329D01*
X176899520Y-108477151D01*
X176912133Y-108456107D01*
X176926747Y-108436402D01*
X176943223Y-108418223D01*
X176961402Y-108401747D01*
X176981107Y-108387133D01*
X177002151Y-108374520D01*
X177024329Y-108364030D01*
X177047429Y-108355765D01*
X177071227Y-108349804D01*
X177095496Y-108346204D01*
X177120000Y-108345000D01*
X178045000Y-108345000D01*
X178069504Y-108346204D01*
X178069504Y-108346204D01*
G37*
D12*
X177582500Y-109220000D03*
D10*
G36*
X181044504Y-108346204D02*
X181068773Y-108349804D01*
X181092571Y-108355765D01*
X181115671Y-108364030D01*
X181137849Y-108374520D01*
X181158893Y-108387133D01*
X181178598Y-108401747D01*
X181196777Y-108418223D01*
X181213253Y-108436402D01*
X181227867Y-108456107D01*
X181240480Y-108477151D01*
X181250970Y-108499329D01*
X181259235Y-108522429D01*
X181265196Y-108546227D01*
X181268796Y-108570496D01*
X181270000Y-108595000D01*
X181270000Y-109845000D01*
X181268796Y-109869504D01*
X181265196Y-109893773D01*
X181259235Y-109917571D01*
X181250970Y-109940671D01*
X181240480Y-109962849D01*
X181227867Y-109983893D01*
X181213253Y-110003598D01*
X181196777Y-110021777D01*
X181178598Y-110038253D01*
X181158893Y-110052867D01*
X181137849Y-110065480D01*
X181115671Y-110075970D01*
X181092571Y-110084235D01*
X181068773Y-110090196D01*
X181044504Y-110093796D01*
X181020000Y-110095000D01*
X180095000Y-110095000D01*
X180070496Y-110093796D01*
X180046227Y-110090196D01*
X180022429Y-110084235D01*
X179999329Y-110075970D01*
X179977151Y-110065480D01*
X179956107Y-110052867D01*
X179936402Y-110038253D01*
X179918223Y-110021777D01*
X179901747Y-110003598D01*
X179887133Y-109983893D01*
X179874520Y-109962849D01*
X179864030Y-109940671D01*
X179855765Y-109917571D01*
X179849804Y-109893773D01*
X179846204Y-109869504D01*
X179845000Y-109845000D01*
X179845000Y-108595000D01*
X179846204Y-108570496D01*
X179849804Y-108546227D01*
X179855765Y-108522429D01*
X179864030Y-108499329D01*
X179874520Y-108477151D01*
X179887133Y-108456107D01*
X179901747Y-108436402D01*
X179918223Y-108418223D01*
X179936402Y-108401747D01*
X179956107Y-108387133D01*
X179977151Y-108374520D01*
X179999329Y-108364030D01*
X180022429Y-108355765D01*
X180046227Y-108349804D01*
X180070496Y-108346204D01*
X180095000Y-108345000D01*
X181020000Y-108345000D01*
X181044504Y-108346204D01*
X181044504Y-108346204D01*
G37*
D12*
X180557500Y-109220000D03*
D10*
G36*
X187394504Y-103901204D02*
X187418773Y-103904804D01*
X187442571Y-103910765D01*
X187465671Y-103919030D01*
X187487849Y-103929520D01*
X187508893Y-103942133D01*
X187528598Y-103956747D01*
X187546777Y-103973223D01*
X187563253Y-103991402D01*
X187577867Y-104011107D01*
X187590480Y-104032151D01*
X187600970Y-104054329D01*
X187609235Y-104077429D01*
X187615196Y-104101227D01*
X187618796Y-104125496D01*
X187620000Y-104150000D01*
X187620000Y-105400000D01*
X187618796Y-105424504D01*
X187615196Y-105448773D01*
X187609235Y-105472571D01*
X187600970Y-105495671D01*
X187590480Y-105517849D01*
X187577867Y-105538893D01*
X187563253Y-105558598D01*
X187546777Y-105576777D01*
X187528598Y-105593253D01*
X187508893Y-105607867D01*
X187487849Y-105620480D01*
X187465671Y-105630970D01*
X187442571Y-105639235D01*
X187418773Y-105645196D01*
X187394504Y-105648796D01*
X187370000Y-105650000D01*
X186445000Y-105650000D01*
X186420496Y-105648796D01*
X186396227Y-105645196D01*
X186372429Y-105639235D01*
X186349329Y-105630970D01*
X186327151Y-105620480D01*
X186306107Y-105607867D01*
X186286402Y-105593253D01*
X186268223Y-105576777D01*
X186251747Y-105558598D01*
X186237133Y-105538893D01*
X186224520Y-105517849D01*
X186214030Y-105495671D01*
X186205765Y-105472571D01*
X186199804Y-105448773D01*
X186196204Y-105424504D01*
X186195000Y-105400000D01*
X186195000Y-104150000D01*
X186196204Y-104125496D01*
X186199804Y-104101227D01*
X186205765Y-104077429D01*
X186214030Y-104054329D01*
X186224520Y-104032151D01*
X186237133Y-104011107D01*
X186251747Y-103991402D01*
X186268223Y-103973223D01*
X186286402Y-103956747D01*
X186306107Y-103942133D01*
X186327151Y-103929520D01*
X186349329Y-103919030D01*
X186372429Y-103910765D01*
X186396227Y-103904804D01*
X186420496Y-103901204D01*
X186445000Y-103900000D01*
X187370000Y-103900000D01*
X187394504Y-103901204D01*
X187394504Y-103901204D01*
G37*
D12*
X186907500Y-104775000D03*
D10*
G36*
X184419504Y-103901204D02*
X184443773Y-103904804D01*
X184467571Y-103910765D01*
X184490671Y-103919030D01*
X184512849Y-103929520D01*
X184533893Y-103942133D01*
X184553598Y-103956747D01*
X184571777Y-103973223D01*
X184588253Y-103991402D01*
X184602867Y-104011107D01*
X184615480Y-104032151D01*
X184625970Y-104054329D01*
X184634235Y-104077429D01*
X184640196Y-104101227D01*
X184643796Y-104125496D01*
X184645000Y-104150000D01*
X184645000Y-105400000D01*
X184643796Y-105424504D01*
X184640196Y-105448773D01*
X184634235Y-105472571D01*
X184625970Y-105495671D01*
X184615480Y-105517849D01*
X184602867Y-105538893D01*
X184588253Y-105558598D01*
X184571777Y-105576777D01*
X184553598Y-105593253D01*
X184533893Y-105607867D01*
X184512849Y-105620480D01*
X184490671Y-105630970D01*
X184467571Y-105639235D01*
X184443773Y-105645196D01*
X184419504Y-105648796D01*
X184395000Y-105650000D01*
X183470000Y-105650000D01*
X183445496Y-105648796D01*
X183421227Y-105645196D01*
X183397429Y-105639235D01*
X183374329Y-105630970D01*
X183352151Y-105620480D01*
X183331107Y-105607867D01*
X183311402Y-105593253D01*
X183293223Y-105576777D01*
X183276747Y-105558598D01*
X183262133Y-105538893D01*
X183249520Y-105517849D01*
X183239030Y-105495671D01*
X183230765Y-105472571D01*
X183224804Y-105448773D01*
X183221204Y-105424504D01*
X183220000Y-105400000D01*
X183220000Y-104150000D01*
X183221204Y-104125496D01*
X183224804Y-104101227D01*
X183230765Y-104077429D01*
X183239030Y-104054329D01*
X183249520Y-104032151D01*
X183262133Y-104011107D01*
X183276747Y-103991402D01*
X183293223Y-103973223D01*
X183311402Y-103956747D01*
X183331107Y-103942133D01*
X183352151Y-103929520D01*
X183374329Y-103919030D01*
X183397429Y-103910765D01*
X183421227Y-103904804D01*
X183445496Y-103901204D01*
X183470000Y-103900000D01*
X184395000Y-103900000D01*
X184419504Y-103901204D01*
X184419504Y-103901204D01*
G37*
D12*
X183932500Y-104775000D03*
D10*
G36*
X205174504Y-110251204D02*
X205198773Y-110254804D01*
X205222571Y-110260765D01*
X205245671Y-110269030D01*
X205267849Y-110279520D01*
X205288893Y-110292133D01*
X205308598Y-110306747D01*
X205326777Y-110323223D01*
X205343253Y-110341402D01*
X205357867Y-110361107D01*
X205370480Y-110382151D01*
X205380970Y-110404329D01*
X205389235Y-110427429D01*
X205395196Y-110451227D01*
X205398796Y-110475496D01*
X205400000Y-110500000D01*
X205400000Y-111750000D01*
X205398796Y-111774504D01*
X205395196Y-111798773D01*
X205389235Y-111822571D01*
X205380970Y-111845671D01*
X205370480Y-111867849D01*
X205357867Y-111888893D01*
X205343253Y-111908598D01*
X205326777Y-111926777D01*
X205308598Y-111943253D01*
X205288893Y-111957867D01*
X205267849Y-111970480D01*
X205245671Y-111980970D01*
X205222571Y-111989235D01*
X205198773Y-111995196D01*
X205174504Y-111998796D01*
X205150000Y-112000000D01*
X204225000Y-112000000D01*
X204200496Y-111998796D01*
X204176227Y-111995196D01*
X204152429Y-111989235D01*
X204129329Y-111980970D01*
X204107151Y-111970480D01*
X204086107Y-111957867D01*
X204066402Y-111943253D01*
X204048223Y-111926777D01*
X204031747Y-111908598D01*
X204017133Y-111888893D01*
X204004520Y-111867849D01*
X203994030Y-111845671D01*
X203985765Y-111822571D01*
X203979804Y-111798773D01*
X203976204Y-111774504D01*
X203975000Y-111750000D01*
X203975000Y-110500000D01*
X203976204Y-110475496D01*
X203979804Y-110451227D01*
X203985765Y-110427429D01*
X203994030Y-110404329D01*
X204004520Y-110382151D01*
X204017133Y-110361107D01*
X204031747Y-110341402D01*
X204048223Y-110323223D01*
X204066402Y-110306747D01*
X204086107Y-110292133D01*
X204107151Y-110279520D01*
X204129329Y-110269030D01*
X204152429Y-110260765D01*
X204176227Y-110254804D01*
X204200496Y-110251204D01*
X204225000Y-110250000D01*
X205150000Y-110250000D01*
X205174504Y-110251204D01*
X205174504Y-110251204D01*
G37*
D12*
X204687500Y-111125000D03*
D10*
G36*
X202199504Y-110251204D02*
X202223773Y-110254804D01*
X202247571Y-110260765D01*
X202270671Y-110269030D01*
X202292849Y-110279520D01*
X202313893Y-110292133D01*
X202333598Y-110306747D01*
X202351777Y-110323223D01*
X202368253Y-110341402D01*
X202382867Y-110361107D01*
X202395480Y-110382151D01*
X202405970Y-110404329D01*
X202414235Y-110427429D01*
X202420196Y-110451227D01*
X202423796Y-110475496D01*
X202425000Y-110500000D01*
X202425000Y-111750000D01*
X202423796Y-111774504D01*
X202420196Y-111798773D01*
X202414235Y-111822571D01*
X202405970Y-111845671D01*
X202395480Y-111867849D01*
X202382867Y-111888893D01*
X202368253Y-111908598D01*
X202351777Y-111926777D01*
X202333598Y-111943253D01*
X202313893Y-111957867D01*
X202292849Y-111970480D01*
X202270671Y-111980970D01*
X202247571Y-111989235D01*
X202223773Y-111995196D01*
X202199504Y-111998796D01*
X202175000Y-112000000D01*
X201250000Y-112000000D01*
X201225496Y-111998796D01*
X201201227Y-111995196D01*
X201177429Y-111989235D01*
X201154329Y-111980970D01*
X201132151Y-111970480D01*
X201111107Y-111957867D01*
X201091402Y-111943253D01*
X201073223Y-111926777D01*
X201056747Y-111908598D01*
X201042133Y-111888893D01*
X201029520Y-111867849D01*
X201019030Y-111845671D01*
X201010765Y-111822571D01*
X201004804Y-111798773D01*
X201001204Y-111774504D01*
X201000000Y-111750000D01*
X201000000Y-110500000D01*
X201001204Y-110475496D01*
X201004804Y-110451227D01*
X201010765Y-110427429D01*
X201019030Y-110404329D01*
X201029520Y-110382151D01*
X201042133Y-110361107D01*
X201056747Y-110341402D01*
X201073223Y-110323223D01*
X201091402Y-110306747D01*
X201111107Y-110292133D01*
X201132151Y-110279520D01*
X201154329Y-110269030D01*
X201177429Y-110260765D01*
X201201227Y-110254804D01*
X201225496Y-110251204D01*
X201250000Y-110250000D01*
X202175000Y-110250000D01*
X202199504Y-110251204D01*
X202199504Y-110251204D01*
G37*
D12*
X201712500Y-111125000D03*
D10*
G36*
X223172504Y-110251204D02*
X223196773Y-110254804D01*
X223220571Y-110260765D01*
X223243671Y-110269030D01*
X223265849Y-110279520D01*
X223286893Y-110292133D01*
X223306598Y-110306747D01*
X223324777Y-110323223D01*
X223341253Y-110341402D01*
X223355867Y-110361107D01*
X223368480Y-110382151D01*
X223378970Y-110404329D01*
X223387235Y-110427429D01*
X223393196Y-110451227D01*
X223396796Y-110475496D01*
X223398000Y-110500000D01*
X223398000Y-111750000D01*
X223396796Y-111774504D01*
X223393196Y-111798773D01*
X223387235Y-111822571D01*
X223378970Y-111845671D01*
X223368480Y-111867849D01*
X223355867Y-111888893D01*
X223341253Y-111908598D01*
X223324777Y-111926777D01*
X223306598Y-111943253D01*
X223286893Y-111957867D01*
X223265849Y-111970480D01*
X223243671Y-111980970D01*
X223220571Y-111989235D01*
X223196773Y-111995196D01*
X223172504Y-111998796D01*
X223148000Y-112000000D01*
X222223000Y-112000000D01*
X222198496Y-111998796D01*
X222174227Y-111995196D01*
X222150429Y-111989235D01*
X222127329Y-111980970D01*
X222105151Y-111970480D01*
X222084107Y-111957867D01*
X222064402Y-111943253D01*
X222046223Y-111926777D01*
X222029747Y-111908598D01*
X222015133Y-111888893D01*
X222002520Y-111867849D01*
X221992030Y-111845671D01*
X221983765Y-111822571D01*
X221977804Y-111798773D01*
X221974204Y-111774504D01*
X221973000Y-111750000D01*
X221973000Y-110500000D01*
X221974204Y-110475496D01*
X221977804Y-110451227D01*
X221983765Y-110427429D01*
X221992030Y-110404329D01*
X222002520Y-110382151D01*
X222015133Y-110361107D01*
X222029747Y-110341402D01*
X222046223Y-110323223D01*
X222064402Y-110306747D01*
X222084107Y-110292133D01*
X222105151Y-110279520D01*
X222127329Y-110269030D01*
X222150429Y-110260765D01*
X222174227Y-110254804D01*
X222198496Y-110251204D01*
X222223000Y-110250000D01*
X223148000Y-110250000D01*
X223172504Y-110251204D01*
X223172504Y-110251204D01*
G37*
D12*
X222685500Y-111125000D03*
D10*
G36*
X220197504Y-110251204D02*
X220221773Y-110254804D01*
X220245571Y-110260765D01*
X220268671Y-110269030D01*
X220290849Y-110279520D01*
X220311893Y-110292133D01*
X220331598Y-110306747D01*
X220349777Y-110323223D01*
X220366253Y-110341402D01*
X220380867Y-110361107D01*
X220393480Y-110382151D01*
X220403970Y-110404329D01*
X220412235Y-110427429D01*
X220418196Y-110451227D01*
X220421796Y-110475496D01*
X220423000Y-110500000D01*
X220423000Y-111750000D01*
X220421796Y-111774504D01*
X220418196Y-111798773D01*
X220412235Y-111822571D01*
X220403970Y-111845671D01*
X220393480Y-111867849D01*
X220380867Y-111888893D01*
X220366253Y-111908598D01*
X220349777Y-111926777D01*
X220331598Y-111943253D01*
X220311893Y-111957867D01*
X220290849Y-111970480D01*
X220268671Y-111980970D01*
X220245571Y-111989235D01*
X220221773Y-111995196D01*
X220197504Y-111998796D01*
X220173000Y-112000000D01*
X219248000Y-112000000D01*
X219223496Y-111998796D01*
X219199227Y-111995196D01*
X219175429Y-111989235D01*
X219152329Y-111980970D01*
X219130151Y-111970480D01*
X219109107Y-111957867D01*
X219089402Y-111943253D01*
X219071223Y-111926777D01*
X219054747Y-111908598D01*
X219040133Y-111888893D01*
X219027520Y-111867849D01*
X219017030Y-111845671D01*
X219008765Y-111822571D01*
X219002804Y-111798773D01*
X218999204Y-111774504D01*
X218998000Y-111750000D01*
X218998000Y-110500000D01*
X218999204Y-110475496D01*
X219002804Y-110451227D01*
X219008765Y-110427429D01*
X219017030Y-110404329D01*
X219027520Y-110382151D01*
X219040133Y-110361107D01*
X219054747Y-110341402D01*
X219071223Y-110323223D01*
X219089402Y-110306747D01*
X219109107Y-110292133D01*
X219130151Y-110279520D01*
X219152329Y-110269030D01*
X219175429Y-110260765D01*
X219199227Y-110254804D01*
X219223496Y-110251204D01*
X219248000Y-110250000D01*
X220173000Y-110250000D01*
X220197504Y-110251204D01*
X220197504Y-110251204D01*
G37*
D12*
X219710500Y-111125000D03*
D10*
G36*
X175746504Y-108346204D02*
X175770773Y-108349804D01*
X175794571Y-108355765D01*
X175817671Y-108364030D01*
X175839849Y-108374520D01*
X175860893Y-108387133D01*
X175880598Y-108401747D01*
X175898777Y-108418223D01*
X175915253Y-108436402D01*
X175929867Y-108456107D01*
X175942480Y-108477151D01*
X175952970Y-108499329D01*
X175961235Y-108522429D01*
X175967196Y-108546227D01*
X175970796Y-108570496D01*
X175972000Y-108595000D01*
X175972000Y-109845000D01*
X175970796Y-109869504D01*
X175967196Y-109893773D01*
X175961235Y-109917571D01*
X175952970Y-109940671D01*
X175942480Y-109962849D01*
X175929867Y-109983893D01*
X175915253Y-110003598D01*
X175898777Y-110021777D01*
X175880598Y-110038253D01*
X175860893Y-110052867D01*
X175839849Y-110065480D01*
X175817671Y-110075970D01*
X175794571Y-110084235D01*
X175770773Y-110090196D01*
X175746504Y-110093796D01*
X175722000Y-110095000D01*
X174797000Y-110095000D01*
X174772496Y-110093796D01*
X174748227Y-110090196D01*
X174724429Y-110084235D01*
X174701329Y-110075970D01*
X174679151Y-110065480D01*
X174658107Y-110052867D01*
X174638402Y-110038253D01*
X174620223Y-110021777D01*
X174603747Y-110003598D01*
X174589133Y-109983893D01*
X174576520Y-109962849D01*
X174566030Y-109940671D01*
X174557765Y-109917571D01*
X174551804Y-109893773D01*
X174548204Y-109869504D01*
X174547000Y-109845000D01*
X174547000Y-108595000D01*
X174548204Y-108570496D01*
X174551804Y-108546227D01*
X174557765Y-108522429D01*
X174566030Y-108499329D01*
X174576520Y-108477151D01*
X174589133Y-108456107D01*
X174603747Y-108436402D01*
X174620223Y-108418223D01*
X174638402Y-108401747D01*
X174658107Y-108387133D01*
X174679151Y-108374520D01*
X174701329Y-108364030D01*
X174724429Y-108355765D01*
X174748227Y-108349804D01*
X174772496Y-108346204D01*
X174797000Y-108345000D01*
X175722000Y-108345000D01*
X175746504Y-108346204D01*
X175746504Y-108346204D01*
G37*
D12*
X175259500Y-109220000D03*
D10*
G36*
X172771504Y-108346204D02*
X172795773Y-108349804D01*
X172819571Y-108355765D01*
X172842671Y-108364030D01*
X172864849Y-108374520D01*
X172885893Y-108387133D01*
X172905598Y-108401747D01*
X172923777Y-108418223D01*
X172940253Y-108436402D01*
X172954867Y-108456107D01*
X172967480Y-108477151D01*
X172977970Y-108499329D01*
X172986235Y-108522429D01*
X172992196Y-108546227D01*
X172995796Y-108570496D01*
X172997000Y-108595000D01*
X172997000Y-109845000D01*
X172995796Y-109869504D01*
X172992196Y-109893773D01*
X172986235Y-109917571D01*
X172977970Y-109940671D01*
X172967480Y-109962849D01*
X172954867Y-109983893D01*
X172940253Y-110003598D01*
X172923777Y-110021777D01*
X172905598Y-110038253D01*
X172885893Y-110052867D01*
X172864849Y-110065480D01*
X172842671Y-110075970D01*
X172819571Y-110084235D01*
X172795773Y-110090196D01*
X172771504Y-110093796D01*
X172747000Y-110095000D01*
X171822000Y-110095000D01*
X171797496Y-110093796D01*
X171773227Y-110090196D01*
X171749429Y-110084235D01*
X171726329Y-110075970D01*
X171704151Y-110065480D01*
X171683107Y-110052867D01*
X171663402Y-110038253D01*
X171645223Y-110021777D01*
X171628747Y-110003598D01*
X171614133Y-109983893D01*
X171601520Y-109962849D01*
X171591030Y-109940671D01*
X171582765Y-109917571D01*
X171576804Y-109893773D01*
X171573204Y-109869504D01*
X171572000Y-109845000D01*
X171572000Y-108595000D01*
X171573204Y-108570496D01*
X171576804Y-108546227D01*
X171582765Y-108522429D01*
X171591030Y-108499329D01*
X171601520Y-108477151D01*
X171614133Y-108456107D01*
X171628747Y-108436402D01*
X171645223Y-108418223D01*
X171663402Y-108401747D01*
X171683107Y-108387133D01*
X171704151Y-108374520D01*
X171726329Y-108364030D01*
X171749429Y-108355765D01*
X171773227Y-108349804D01*
X171797496Y-108346204D01*
X171822000Y-108345000D01*
X172747000Y-108345000D01*
X172771504Y-108346204D01*
X172771504Y-108346204D01*
G37*
D12*
X172284500Y-109220000D03*
M02*
